<?xml version="1.0" encoding="utf-8"?>
<!-- Generator: Adobe Illustrator 26.4.1, SVG Export Plug-In . SVG Version: 6.00 Build 0)  -->
<svg version="1.1" id="Layer_1" xmlns="http://www.w3.org/2000/svg" xmlns:xlink="http://www.w3.org/1999/xlink" x="0px" y="0px"
	 viewBox="0 0 597.3 360" style="enable-background:new 0 0 597.3 360;" xml:space="preserve">
<style type="text/css">
	.st0{stroke:#000000;stroke-width:0.8;stroke-linejoin:round;}
	.st1{fill:none;stroke:#000000;stroke-width:0.8;stroke-linecap:square;}
	.st2{fill:none;stroke:#424242;stroke-width:2.7;stroke-linecap:square;stroke-linejoin:round;}
	.st3{fill:#3274A1;}
	.st4{fill:#E1812C;}
	.st5{font-family:'MyriadPro-Regular';}
	.st6{font-size:12px;}
</style>
<g id="axes_1">
	<g id="matplotlib.axis_2">
		<g id="ytick_1">
			<g id="line2d_3">
				<g>
					<g>
						<path id="m6ff094096a" class="st0" d="M47.1,318.2h-3.5"/>
					</g>
				</g>
			</g>
			<g id="text_4">
				<g transform="translate(28.504005 321.999219)scale(0.1 -0.1)">
					<g>
						<path id="DejaVuSans-30" d="M-11.2,66.4c-5.1,0-8.9-2.5-11.5-7.5c-2.6-5-3.8-12.5-3.8-22.5c0-10,1.3-17.5,3.8-22.5
							c2.6-5,6.4-7.5,11.5-7.5c5.1,0,8.9,2.5,11.5,7.5c2.6,5,3.8,12.5,3.8,22.5c0,10-1.3,17.5-3.8,22.5
							C-2.2,63.9-6.1,66.4-11.2,66.4z M-11.2,74.2c8.2,0,14.4-3.2,18.7-9.7c4.3-6.5,6.5-15.8,6.5-28.1c0-12.3-2.2-21.6-6.5-28.1
							C3.2,1.8-3-1.4-11.2-1.4c-8.2,0-14.4,3.2-18.7,9.7c-4.3,6.5-6.5,15.8-6.5,28.1c0,12.3,2.2,21.7,6.5,28.1
							C-25.6,71-19.3,74.2-11.2,74.2z"/>
					</g>
					<g>
						<path id="DejaVuSans-2e" d="M31.4,12.4h10.3V0H31.4V12.4z"/>
					</g>
					<g>
						<path id="DejaVuSans-32" d="M71.6,8.3h34.4V0H59.8v8.3c3.7,3.9,8.8,9.1,15.3,15.6c6.5,6.5,10.5,10.7,12.2,12.6
							c3.2,3.5,5.4,6.5,6.6,9c1.3,2.5,1.9,4.9,1.9,7.2c0,3.9-1.4,7-4.1,9.5c-2.7,2.4-6.3,3.7-10.6,3.7c-3.1,0-6.4-0.5-9.8-1.6
							c-3.4-1.1-7.1-2.7-11-4.9v10c4,1.6,7.7,2.8,11.1,3.6c3.5,0.8,6.6,1.2,9.5,1.2c7.6,0,13.6-1.9,18.1-5.7
							c4.5-3.8,6.7-8.8,6.7-15.1c0-3-0.6-5.8-1.7-8.5c-1.1-2.7-3.2-5.8-6.1-9.5c-0.8-0.9-3.4-3.7-7.8-8.2
							C85.7,22.7,79.6,16.4,71.6,8.3z"/>
					</g>
				</g>
			</g>
		</g>
		<g id="ytick_2">
			<g id="line2d_4">
				<g>
					<g>
						<path id="m6ff094096a_00000071560509958333532780000003002276486106480016_" class="st0" d="M47.1,269.3h-3.5"/>
					</g>
				</g>
			</g>
			<g id="text_5">
				<g transform="translate(28.504005 273.099219)scale(0.1 -0.1)">
					<g>
						<path id="DejaVuSans-30_00000035531415434531403310000004633776208706084244_" d="M-11.2,66.4c-5.1,0-8.9-2.5-11.5-7.5
							c-2.6-5-3.8-12.5-3.8-22.5c0-10,1.3-17.5,3.8-22.5c2.6-5,6.4-7.5,11.5-7.5c5.1,0,8.9,2.5,11.5,7.5c2.6,5,3.8,12.5,3.8,22.5
							c0,10-1.3,17.5-3.8,22.5C-2.2,63.9-6.1,66.4-11.2,66.4z M-11.2,74.2c8.2,0,14.4-3.2,18.7-9.7c4.3-6.5,6.5-15.8,6.5-28.1
							c0-12.3-2.2-21.6-6.5-28.1C3.2,1.8-3-1.4-11.2-1.4c-8.2,0-14.4,3.2-18.7,9.7c-4.3,6.5-6.5,15.8-6.5,28.1
							c0,12.3,2.2,21.7,6.5,28.1C-25.6,71-19.3,74.2-11.2,74.2z"/>
					</g>
					<g>
						<path id="DejaVuSans-2e_00000177473226413977071740000003768951517346660740_" d="M31.4,12.4h10.3V0H31.4V12.4z"/>
					</g>
					<g>
						<path id="DejaVuSans-33" d="M93,39.3c4.7-1,8.4-3.1,11-6.3c2.7-3.2,4-7.1,4-11.8c0-7.2-2.5-12.8-7.4-16.7
							c-4.9-3.9-12-5.9-21.1-5.9c-3.1,0-6.2,0.3-9.4,0.9c-3.2,0.6-6.6,1.5-10,2.7v9.5c2.7-1.6,5.7-2.8,9-3.6
							c3.3-0.8,6.7-1.2,10.2-1.2c6.2,0,10.9,1.2,14.1,3.7c3.2,2.4,4.9,6,4.9,10.6c0,4.3-1.5,7.7-4.5,10.1c-3,2.4-7.2,3.6-12.6,3.6
							h-8.5V43h8.9c4.8,0,8.6,1,11.1,2.9c2.6,1.9,3.9,4.7,3.9,8.4c0,3.7-1.3,6.6-4,8.6c-2.6,2-6.4,3-11.4,3c-2.7,0-5.6-0.3-8.7-0.9
							c-3.1-0.6-6.5-1.5-10.2-2.7v8.8c3.7,1,7.3,1.8,10.5,2.3c3.3,0.5,6.4,0.8,9.2,0.8c7.5,0,13.4-1.7,17.8-5.1
							c4.4-3.4,6.5-8,6.5-13.8c0-4-1.2-7.5-3.5-10.2S97.3,40.4,93,39.3z"/>
					</g>
				</g>
			</g>
		</g>
		<g id="ytick_3">
			<g id="line2d_5">
				<g>
					<g>
						<path id="m6ff094096a_00000003066787468864162460000015881483820286825856_" class="st0" d="M47.1,220.4h-3.5"/>
					</g>
				</g>
			</g>
			<g id="text_6">
				<g transform="translate(28.504005 224.199219)scale(0.1 -0.1)">
					<g>
						<path id="DejaVuSans-30_00000035503505852157358320000006110211211953663651_" d="M-11.2,66.4c-5.1,0-8.9-2.5-11.5-7.5
							c-2.6-5-3.8-12.5-3.8-22.5c0-10,1.3-17.5,3.8-22.5c2.6-5,6.4-7.5,11.5-7.5c5.1,0,8.9,2.5,11.5,7.5c2.6,5,3.8,12.5,3.8,22.5
							c0,10-1.3,17.5-3.8,22.5C-2.2,63.9-6.1,66.4-11.2,66.4z M-11.2,74.2c8.2,0,14.4-3.2,18.7-9.7c4.3-6.5,6.5-15.8,6.5-28.1
							c0-12.3-2.2-21.6-6.5-28.1C3.2,1.8-3-1.4-11.2-1.4c-8.2,0-14.4,3.2-18.7,9.7c-4.3,6.5-6.5,15.8-6.5,28.1
							c0,12.3,2.2,21.7,6.5,28.1C-25.6,71-19.3,74.2-11.2,74.2z"/>
					</g>
					<g>
						<path id="DejaVuSans-2e_00000137814514817027368180000017249338872092221887_" d="M31.4,12.4h10.3V0H31.4V12.4z"/>
					</g>
					<g>
						<path id="DejaVuSans-34" d="M90.2,64.3L65.3,25.4h24.9V64.3z M87.7,72.9h12.4V25.4h10.4v-8.2h-10.4V0h-9.8v17.2H57.3v9.5
							L87.7,72.9z"/>
					</g>
				</g>
			</g>
		</g>
		<g id="ytick_4">
			<g id="line2d_6">
				<g>
					<g>
						<path id="m6ff094096a_00000074408982962228363000000016024332065055294890_" class="st0" d="M47.1,171.5h-3.5"/>
					</g>
				</g>
			</g>
			<g id="text_7">
				<g transform="translate(28.504005 175.299219)scale(0.1 -0.1)">
					<g>
						<path id="DejaVuSans-30_00000093170379672297681150000003873529486184564118_" d="M-11.2,66.4c-5.1,0-8.9-2.5-11.5-7.5
							c-2.6-5-3.8-12.5-3.8-22.5c0-10,1.3-17.5,3.8-22.5c2.6-5,6.4-7.5,11.5-7.5c5.1,0,8.9,2.5,11.5,7.5c2.6,5,3.8,12.5,3.8,22.5
							c0,10-1.3,17.5-3.8,22.5C-2.2,63.9-6.1,66.4-11.2,66.4z M-11.2,74.2c8.2,0,14.4-3.2,18.7-9.7c4.3-6.5,6.5-15.8,6.5-28.1
							c0-12.3-2.2-21.6-6.5-28.1C3.2,1.8-3-1.4-11.2-1.4c-8.2,0-14.4,3.2-18.7,9.7c-4.3,6.5-6.5,15.8-6.5,28.1
							c0,12.3,2.2,21.7,6.5,28.1C-25.6,71-19.3,74.2-11.2,74.2z"/>
					</g>
					<g>
						<path id="DejaVuSans-2e_00000134958206981004447970000008116558209195004809_" d="M31.4,12.4h10.3V0H31.4V12.4z"/>
					</g>
					<g>
						<path id="DejaVuSans-35" d="M63.2,72.9H102v-8.3H72.3V46.7c1.4,0.5,2.9,0.9,4.3,1.1c1.4,0.2,2.9,0.4,4.3,0.4
							c8.1,0,14.6-2.2,19.3-6.7c4.8-4.5,7.1-10.5,7.1-18.1c0-7.8-2.4-13.9-7.3-18.3c-4.9-4.3-11.8-6.5-20.7-6.5
							c-3.1,0-6.2,0.3-9.4,0.8c-3.2,0.5-6.4,1.3-9.8,2.3v9.9c2.9-1.6,6-2.8,9.1-3.6s6.4-1.2,9.9-1.2c5.6,0,10.1,1.5,13.4,4.4
							c3.3,3,4.9,7,4.9,12.1c0,5.1-1.6,9.1-4.9,12c-3.3,3-7.7,4.5-13.4,4.5c-2.6,0-5.3-0.3-7.9-0.9c-2.6-0.6-5.3-1.5-8-2.7V72.9z"/>
					</g>
				</g>
			</g>
		</g>
		<g id="ytick_5">
			<g id="line2d_7">
				<g>
					<g>
						<path id="m6ff094096a_00000032647975287490584510000008016039074308166590_" class="st0" d="M47.1,122.6h-3.5"/>
					</g>
				</g>
			</g>
			<g id="text_8">
				<g transform="translate(28.504005 126.399219)scale(0.1 -0.1)">
					<g>
						<path id="DejaVuSans-30_00000110449880722458514840000018035856336979807127_" d="M-11.2,66.4c-5.1,0-8.9-2.5-11.5-7.5
							c-2.6-5-3.8-12.5-3.8-22.5c0-10,1.3-17.5,3.8-22.5c2.6-5,6.4-7.5,11.5-7.5c5.1,0,8.9,2.5,11.5,7.5c2.6,5,3.8,12.5,3.8,22.5
							c0,10-1.3,17.5-3.8,22.5C-2.2,63.9-6.1,66.4-11.2,66.4z M-11.2,74.2c8.2,0,14.4-3.2,18.7-9.7c4.3-6.5,6.5-15.8,6.5-28.1
							c0-12.3-2.2-21.6-6.5-28.1C3.2,1.8-3-1.4-11.2-1.4c-8.2,0-14.4,3.2-18.7,9.7c-4.3,6.5-6.5,15.8-6.5,28.1
							c0,12.3,2.2,21.7,6.5,28.1C-25.6,71-19.3,74.2-11.2,74.2z"/>
					</g>
					<g>
						<path id="DejaVuSans-2e_00000003075308352759005680000013365157649237604503_" d="M31.4,12.4h10.3V0H31.4V12.4z"/>
					</g>
					<g>
						<path id="DejaVuSans-36" d="M85.5,40.4c-4.4,0-7.9-1.5-10.5-4.5c-2.6-3-3.9-7.2-3.9-12.4c0-5.2,1.3-9.4,3.9-12.4
							c2.6-3,6.1-4.6,10.5-4.6c4.4,0,7.9,1.5,10.5,4.6c2.6,3.1,3.9,7.2,3.9,12.4c0,5.3-1.3,9.4-3.9,12.4
							C93.4,38.9,89.9,40.4,85.5,40.4z M105,71.3v-9c-2.5,1.2-5,2.1-7.5,2.7c-2.5,0.6-5,0.9-7.5,0.9c-6.5,0-11.5-2.2-14.9-6.6
							c-3.4-4.4-5.4-11-5.9-19.9c1.9,2.8,4.3,5,7.2,6.5c2.9,1.5,6.1,2.3,9.6,2.3c7.3,0,13.1-2.2,17.4-6.7c4.2-4.4,6.4-10.5,6.4-18.1
							c0-7.5-2.2-13.5-6.6-18c-4.4-4.5-10.3-6.8-17.7-6.8c-8.4,0-14.9,3.2-19.3,9.7c-4.5,6.5-6.7,15.8-6.7,28.1
							c0,11.5,2.7,20.7,8.2,27.6s12.8,10.3,22,10.3c2.5,0,5-0.2,7.5-0.7C99.7,73,102.3,72.3,105,71.3z"/>
					</g>
				</g>
			</g>
		</g>
		<g id="ytick_6">
			<g id="line2d_8">
				<g>
					<g>
						<path id="m6ff094096a_00000165235440979148444500000003187598911308399034_" class="st0" d="M47.1,73.7h-3.5"/>
					</g>
				</g>
			</g>
			<g id="text_9">
				<g transform="translate(28.504005 77.499219)scale(0.1 -0.1)">
					<g>
						<path id="DejaVuSans-30_00000159457655914768213390000011546038475806062225_" d="M-11.2,66.4c-5.1,0-8.9-2.5-11.5-7.5
							c-2.6-5-3.8-12.5-3.8-22.5c0-10,1.3-17.5,3.8-22.5c2.6-5,6.4-7.5,11.5-7.5c5.1,0,8.9,2.5,11.5,7.5c2.6,5,3.8,12.5,3.8,22.5
							c0,10-1.3,17.5-3.8,22.5C-2.2,63.9-6.1,66.4-11.2,66.4z M-11.2,74.2c8.2,0,14.4-3.2,18.7-9.7c4.3-6.5,6.5-15.8,6.5-28.1
							c0-12.3-2.2-21.6-6.5-28.1C3.2,1.8-3-1.4-11.2-1.4c-8.2,0-14.4,3.2-18.7,9.7c-4.3,6.5-6.5,15.8-6.5,28.1
							c0,12.3,2.2,21.7,6.5,28.1C-25.6,71-19.3,74.2-11.2,74.2z"/>
					</g>
					<g>
						<path id="DejaVuSans-2e_00000129176367336894916790000009589001179747640453_" d="M31.4,12.4h10.3V0H31.4V12.4z"/>
					</g>
					<g>
						<path id="DejaVuSans-37" d="M60.7,72.9h46.9v-4.2L81.1,0H70.8l24.9,64.6h-35V72.9z"/>
					</g>
				</g>
			</g>
		</g>
		<g id="ytick_7">
			<g id="line2d_9">
				<g>
					<g>
						<path id="m6ff094096a_00000022526953786838777670000007379281785617989786_" class="st0" d="M47.1,24.8h-3.5"/>
					</g>
				</g>
			</g>
			<g id="text_10">
				<g transform="translate(28.504005 28.599219)scale(0.1 -0.1)">
					<g>
						<path id="DejaVuSans-30_00000178898054274999119680000000861847361373575346_" d="M-11.2,66.4c-5.1,0-8.9-2.5-11.5-7.5
							c-2.6-5-3.8-12.5-3.8-22.5c0-10,1.3-17.5,3.8-22.5c2.6-5,6.4-7.5,11.5-7.5c5.1,0,8.9,2.5,11.5,7.5c2.6,5,3.8,12.5,3.8,22.5
							c0,10-1.3,17.5-3.8,22.5C-2.2,63.9-6.1,66.4-11.2,66.4z M-11.2,74.2c8.2,0,14.4-3.2,18.7-9.7c4.3-6.5,6.5-15.8,6.5-28.1
							c0-12.3-2.2-21.6-6.5-28.1C3.2,1.8-3-1.4-11.2-1.4c-8.2,0-14.4,3.2-18.7,9.7c-4.3,6.5-6.5,15.8-6.5,28.1
							c0,12.3,2.2,21.7,6.5,28.1C-25.6,71-19.3,74.2-11.2,74.2z"/>
					</g>
					<g>
						<path id="DejaVuSans-2e_00000013178650701527187170000009740580999145985195_" d="M31.4,12.4h10.3V0H31.4V12.4z"/>
					</g>
					<g>
						<path id="DejaVuSans-38" d="M84.2,34.6c-4.7,0-8.4-1.3-11.1-3.8c-2.7-2.5-4-6-4-10.3c0-4.4,1.3-7.8,4-10.4
							c2.7-2.5,6.4-3.8,11.1-3.8s8.4,1.3,11.1,3.8c2.7,2.5,4.1,6,4.1,10.3c0,4.4-1.3,7.8-4,10.3C92.7,33.4,89,34.6,84.2,34.6z
							 M74.4,38.8c-4.2,1-7.5,3-9.9,5.9c-2.4,2.9-3.5,6.4-3.5,10.6c0,5.8,2.1,10.4,6.2,13.8c4.2,3.4,9.8,5.1,17.1,5.1
							c7.3,0,13-1.7,17.1-5.1c4.1-3.4,6.2-8,6.2-13.8c0-4.2-1.2-7.7-3.5-10.6c-2.4-2.9-5.6-4.9-9.8-5.9c4.8-1.1,8.4-3.3,11.1-6.5
							c2.7-3.2,4-7.2,4-11.8c0-7.1-2.2-12.5-6.5-16.3c-4.3-3.8-10.5-5.7-18.5-5.7c-8,0-14.2,1.9-18.5,5.7c-4.3,3.8-6.5,9.2-6.5,16.3
							c0,4.6,1.3,8.6,4,11.8C65.9,35.5,69.6,37.7,74.4,38.8z M70.8,54.4c0-3.8,1.2-6.7,3.5-8.8c2.4-2.1,5.7-3.2,9.9-3.2
							c4.2,0,7.6,1.1,9.9,3.2c2.4,2.1,3.6,5.1,3.6,8.8c0,3.8-1.2,6.7-3.6,8.8c-2.4,2.1-5.7,3.2-9.9,3.2c-4.3,0-7.6-1.1-9.9-3.2
							C71.9,61.1,70.8,58.2,70.8,54.4z"/>
					</g>
				</g>
			</g>
		</g>
		<g id="text_11">
			<g transform="translate(22.424317 181.65625)rotate(-90)scale(0.1 -0.1)">
				<g>
					<path id="DejaVuSans-72_00000114794078117738145000000015040792575684459153_" d="M41.1,89.3c-1,0.6-2.1,1-3.3,1.3
						c-1.2,0.3-2.5,0.4-3.9,0.4c-5.1,0-9-1.7-11.7-5s-4.1-8-4.1-14.2V43h-9v54.7h9v-8.5c1.9,3.3,4.4,5.8,7.4,7.4
						c3,1.6,6.7,2.4,11,2.4c0.6,0,1.3,0,2-0.1c0.8-0.1,1.6-0.2,2.5-0.4L41.1,89.3z"/>
				</g>
				<g>
					<path id="DejaVuSans-61_00000062152639522674337430000009041471302350150028_" d="M75.4,70.4c-7.3,0-12.3-0.8-15.1-2.5
						c-2.8-1.7-4.2-4.5-4.2-8.5c0-3.2,1.1-5.7,3.2-7.6c2.1-1.9,5-2.8,8.6-2.8c5,0,9,1.8,12,5.3c3,3.5,4.5,8.2,4.5,14.1v2H75.4z
						 M93.3,74.2V43h-9v8.3c-2.1-3.3-4.6-5.8-7.7-7.3c-3.1-1.6-6.8-2.4-11.2-2.4c-5.6,0-10,1.6-13.4,4.7c-3.3,3.1-5,7.4-5,12.6
						c0,6.1,2.1,10.8,6.2,13.9c4.1,3.1,10.3,4.7,18.4,4.7h12.6v0.9c0,4.1-1.4,7.3-4.1,9.6s-6.5,3.4-11.5,3.4c-3.1,0-6.2-0.4-9.1-1.1
						c-3-0.8-5.8-1.9-8.5-3.4v8.3c3.3,1.3,6.5,2.2,9.6,2.8c3.1,0.6,6.1,1,9,1c7.9,0,13.8-2.1,17.7-6.2
						C91.4,88.7,93.3,82.5,93.3,74.2z"/>
				</g>
				<g>
					<path id="DejaVuSans-74_00000171681468026895784200000002517878407667813012_" d="M120.7,113.2V97.6h18.5v-7h-18.5V61
						c0-4.5,0.6-7.3,1.8-8.6s3.7-1.9,7.5-1.9h9.2V43H130c-6.9,0-11.7,1.3-14.4,3.9c-2.6,2.6-4,7.3-4,14.1v29.7h-6.6v7h6.6v15.5
						H120.7z"/>
				</g>
				<g>
					<path id="DejaVuSans-65_00000025432790812816527150000018370322778936822962_" d="M197.8,72.6v-4.4h-41.3
						c0.4-6.2,2.3-10.9,5.6-14.1c3.3-3.2,8-4.9,13.9-4.9c3.4,0,6.8,0.4,10,1.3s6.5,2.1,9.7,3.8v-8.5c-3.2-1.4-6.5-2.4-9.9-3.1
						s-6.8-1.1-10.3-1.1c-8.7,0-15.6,2.5-20.7,7.6c-5.1,5.1-7.6,12-7.6,20.6c0,8.9,2.4,16,7.2,21.3c4.8,5.3,11.4,7.9,19.6,7.9
						c7.4,0,13.2-2.4,17.5-7.1C195.7,87.1,197.8,80.7,197.8,72.6z M188.8,75.2c-0.1,4.9-1.4,8.8-4.1,11.8c-2.7,2.9-6.2,4.4-10.7,4.4
						c-5,0-9-1.4-12-4.2c-3-2.8-4.7-6.8-5.2-12L188.8,75.2z"/>
				</g>
			</g>
		</g>
	</g>
	<g id="patch_7">
		<path class="st1" d="M47.1,318.2V24.8"/>
	</g>
</g>
<g id="line2d_14">
	<g>
		<g>
			<path id="m3053d71b8b_00000116953954305435836110000009800060244584462228_" class="st0" d="M103,318.2v3.5"/>
		</g>
	</g>
</g>
<g id="line2d_15">
	<g>
		<g>
			<path id="m3053d71b8b_00000100383877796689810180000008141954217381355193_" class="st0" d="M204.4,318.2v3.5"/>
		</g>
	</g>
</g>
<g id="line2d_23">
	<g>
		<path class="st2" d="M70.1,151.3"/>
		<path class="st2" d="M70.1,178.4"/>
	</g>
</g>
<g id="line2d_24">
	<g>
		<path class="st2" d="M171.4,78"/>
		<path class="st2" d="M171.4,128.7"/>
	</g>
</g>
<g id="line2d_25">
	<g>
		<path class="st2" d="M136,164.3"/>
		<path class="st2" d="M136,190.7"/>
	</g>
</g>
<g id="line2d_26">
	<g>
		<path class="st2" d="M237.3,214.7"/>
		<path class="st2" d="M237.3,263.5"/>
	</g>
</g>
<g id="patch_15">
	<path class="st1" d="M47.1,318.2H523"/>
</g>
<g id="line2d_1">
	<g>
		<g>
			<path id="mc41f67f26f" class="st0" d="M470.5,318.2v3.5"/>
		</g>
	</g>
</g>
<g id="line2d_2">
	<g>
		<g>
			<path id="mc41f67f26f_00000016764060051931330770000007547543569828121780_" class="st0" d="M376.9,318.2v3.5"/>
		</g>
	</g>
</g>
<g id="legend_1_00000037657960410695024690000009171370754027165863_">
	<g id="text_12">
		<g transform="translate(372.455469 168.08125)scale(0.1 -0.1)">
			<g>
				<path id="DejaVuSans-63" d="M1577.2,358.7v-8.4c-2.5,1.4-5.1,2.5-7.6,3.2c-2.6,0.7-5.1,1-7.7,1c-5.8,0-10.4-1.8-13.6-5.5
					c-3.2-3.7-4.8-8.9-4.8-15.5c0-6.7,1.6-11.9,4.8-15.6c3.2-3.7,7.8-5.5,13.6-5.5c2.6,0,5.2,0.3,7.7,1c2.6,0.7,5.1,1.8,7.6,3.2
					v-8.3c-2.5-1.2-5.1-2-7.8-2.6c-2.7-0.6-5.5-0.9-8.6-0.9c-8.2,0-14.8,2.6-19.6,7.8c-4.8,5.2-7.3,12.2-7.3,21
					c0,8.9,2.4,15.9,7.3,21c4.9,5.1,11.6,7.7,20.2,7.7c2.8,0,5.5-0.3,8.1-0.9C1572.2,360.7,1574.7,359.9,1577.2,358.7z"/>
			</g>
			<g>
				<path id="DejaVuSans-6f" d="M1614,354.5c-4.8,0-8.6-1.9-11.4-5.6c-2.8-3.8-4.2-8.9-4.2-15.5c0-6.5,1.4-11.7,4.2-15.5
					c2.8-3.8,6.6-5.6,11.5-5.6c4.8,0,8.6,1.9,11.4,5.7c2.8,3.8,4.2,8.9,4.2,15.4c0,6.5-1.4,11.6-4.2,15.4
					C1622.6,352.6,1618.8,354.5,1614,354.5z M1614,362.1c7.8,0,13.9-2.5,18.4-7.6c4.5-5.1,6.7-12.1,6.7-21.1c0-8.9-2.2-16-6.7-21.1
					c-4.5-5.1-10.6-7.6-18.4-7.6c-7.8,0-14,2.5-18.4,7.6c-4.4,5.1-6.7,12.1-6.7,21.1c0,9,2.2,16,6.7,21.1
					C1600,359.6,1606.2,362.1,1614,362.1z"/>
			</g>
			<g>
				<path id="DejaVuSans-6e" d="M1699.5,339.1v-33h-9v32.7c0,5.2-1,9-3,11.6c-2,2.6-5,3.9-9.1,3.9c-4.9,0-8.7-1.5-11.5-4.6
					c-2.8-3.1-4.2-7.3-4.2-12.6v-30.9h-9v54.7h9v-8.5c2.2,3.3,4.7,5.8,7.6,7.4c2.9,1.6,6.3,2.4,10.1,2.4c6.3,0,11-1.9,14.2-5.8
					C1697.9,352.4,1699.5,346.7,1699.5,339.1z"/>
			</g>
			<g>
				<path id="DejaVuSans-64" d="M1753.4,352.5v29.6h9v-76h-9v8.2c-1.9-3.2-4.3-5.7-7.2-7.2c-2.9-1.6-6.3-2.4-10.4-2.4
					c-6.6,0-12,2.6-16.1,7.9c-4.1,5.3-6.2,12.2-6.2,20.8s2.1,15.5,6.2,20.8c4.2,5.3,9.5,7.9,16.1,7.9c4,0,7.5-0.8,10.4-2.4
					C1749.1,358.2,1751.5,355.8,1753.4,352.5z M1722.8,333.4c0-6.6,1.4-11.8,4.1-15.5c2.7-3.8,6.5-5.6,11.2-5.6s8.5,1.9,11.2,5.6
					c2.7,3.8,4.1,8.9,4.1,15.5c0,6.6-1.4,11.8-4.1,15.5c-2.7,3.8-6.5,5.6-11.2,5.6s-8.5-1.9-11.2-5.6
					C1724.1,345.2,1722.8,340,1722.8,333.4z"/>
			</g>
			<g>
				<path id="DejaVuSans-69" d="M1780.9,360.8h9v-54.7h-9V360.8z M1780.9,382.1h9v-11.4h-9V382.1z"/>
			</g>
			<g>
				<path id="DejaVuSans-74_00000165227336711370405300000010561150738189207735_" d="M1817.6,376.3v-15.5h18.5v-7h-18.5v-29.7
					c0-4.5,0.6-7.3,1.8-8.6c1.2-1.3,3.7-1.9,7.5-1.9h9.2v-7.5h-9.2c-6.9,0-11.7,1.3-14.4,3.9c-2.6,2.6-4,7.3-4,14.1v29.7h-6.6v7h6.6
					v15.5H1817.6z"/>
			</g>
			<g>
				<path id="DejaVuSans-69_00000045592947885839362490000000678420804696392603_" d="M1847.9,360.8h9v-54.7h-9V360.8z
					 M1847.9,382.1h9v-11.4h-9V382.1z"/>
			</g>
			<g>
				<path id="DejaVuSans-6f_00000018918910300932226810000001818303188034417595_" d="M1896.8,354.5c-4.8,0-8.6-1.9-11.4-5.6
					c-2.8-3.8-4.2-8.9-4.2-15.5c0-6.5,1.4-11.7,4.2-15.5c2.8-3.8,6.6-5.6,11.5-5.6c4.8,0,8.6,1.9,11.4,5.7c2.8,3.8,4.2,8.9,4.2,15.4
					c0,6.5-1.4,11.6-4.2,15.4C1905.4,352.6,1901.6,354.5,1896.8,354.5z M1896.8,362.1c7.8,0,13.9-2.5,18.4-7.6
					c4.5-5.1,6.7-12.1,6.7-21.1c0-8.9-2.2-16-6.7-21.1c-4.5-5.1-10.6-7.6-18.4-7.6c-7.8,0-14,2.5-18.4,7.6
					c-4.4,5.1-6.7,12.1-6.7,21.1c0,9,2.2,16,6.7,21.1C1882.9,359.6,1889,362.1,1896.8,362.1z"/>
			</g>
			<g>
				<path id="DejaVuSans-6e_00000083789854244956723730000017839755009887386551_" d="M1982.3,339.1v-33h-9v32.7c0,5.2-1,9-3,11.6
					c-2,2.6-5,3.9-9.1,3.9c-4.9,0-8.7-1.5-11.5-4.6c-2.8-3.1-4.2-7.3-4.2-12.6v-30.9h-9v54.7h9v-8.5c2.2,3.3,4.7,5.8,7.6,7.4
					c2.9,1.6,6.3,2.4,10.1,2.4c6.3,0,11-1.9,14.2-5.8C1980.7,352.4,1982.3,346.7,1982.3,339.1z"/>
			</g>
		</g>
	</g>
	<g id="patch_9_00000023243982085504342320000010046245333761155723_">
		<path class="st3" d="M511.5,152.1h20v-7h-20V152.1z"/>
	</g>
	<g id="text_13_00000176027469537066523580000004119011993814460544_">
		<g transform="translate(386.646875 182.759375)scale(0.1 -0.1)">
			<g>
				<path id="DejaVuSans-53_00000125567045401616849810000017769030250397247408_" d="M1582,376.6V367c-3.7,1.8-7.3,3.1-10.6,4
					c-3.3,0.9-6.5,1.3-9.6,1.3c-5.4,0-9.5-1-12.4-3.1c-2.9-2.1-4.4-5-4.4-8.9c0-3.2,1-5.7,2.9-7.3c1.9-1.6,5.6-3,11-4l6-1.2
					c7.4-1.4,12.8-3.9,16.3-7.4s5.2-8.3,5.2-14.2c0-7.1-2.4-12.4-7.1-16.1c-4.7-3.6-11.7-5.5-20.8-5.5c-3.4,0-7.1,0.4-11,1.2
					c-3.9,0.8-7.9,1.9-12.1,3.5v10.2c4-2.2,7.9-3.9,11.8-5.1c3.8-1.1,7.6-1.7,11.3-1.7c5.6,0,10,1.1,13,3.3c3.1,2.2,4.6,5.4,4.6,9.5
					c0,3.6-1.1,6.4-3.3,8.4c-2.2,2-5.8,3.5-10.8,4.5l-6,1.2c-7.4,1.5-12.7,3.8-16,6.9c-3.3,3.1-4.9,7.5-4.9,13
					c0,6.4,2.3,11.5,6.8,15.2c4.5,3.7,10.8,5.6,18.8,5.6c3.4,0,6.9-0.3,10.5-0.9C1574.6,378.8,1578.3,377.9,1582,376.6z"/>
			</g>
			<g>
				<path id="DejaVuSans-68" d="M1646.8,339.1v-33h-9v32.7c0,5.2-1,9-3,11.6c-2,2.6-5,3.9-9.1,3.9c-4.9,0-8.7-1.5-11.5-4.6
					c-2.8-3.1-4.2-7.3-4.2-12.6v-30.9h-9v76h9v-29.8c2.2,3.3,4.7,5.8,7.6,7.4c2.9,1.6,6.3,2.4,10.1,2.4c6.3,0,11-1.9,14.2-5.8
					C1645.2,352.4,1646.8,346.7,1646.8,339.1z"/>
			</g>
			<g>
				<path id="DejaVuSans-69_00000060731506140163000540000015403512498720884157_" d="M1664.7,360.8h9v-54.7h-9V360.8z
					 M1664.7,382.1h9v-11.4h-9V382.1z"/>
			</g>
			<g>
				<path id="DejaVuSans-66_00000123419728219333799470000014272674325331388039_" d="M1720.2,382.1v-7.5h-8.6c-3.2,0-5.5-0.7-6.7-2
					c-1.2-1.3-1.9-3.6-1.9-7v-4.8h14.8v-7H1703v-47.7h-9v47.7h-8.6v7h8.6v3.8c0,6.1,1.4,10.5,4.2,13.3c2.8,2.8,7.3,4.2,13.5,4.2
					H1720.2z"/>
			</g>
			<g>
				<path id="DejaVuSans-74_00000176019815090162115150000009226590936822060988_" d="M1734.8,376.3v-15.5h18.5v-7h-18.5v-29.7
					c0-4.5,0.6-7.3,1.8-8.6c1.2-1.3,3.7-1.9,7.5-1.9h9.2v-7.5h-9.2c-6.9,0-11.7,1.3-14.4,3.9c-2.6,2.6-4,7.3-4,14.1v29.7h-6.6v7h6.6
					v15.5H1734.8z"/>
			</g>
			<g>
				<path id="DejaVuSans-65_00000057112494449355277750000005826782416585031302_" d="M1811.9,335.7v-4.4h-41.3
					c0.4-6.2,2.3-10.9,5.6-14.1c3.3-3.2,8-4.9,13.9-4.9c3.4,0,6.8,0.4,10,1.3s6.5,2.1,9.7,3.8v-8.5c-3.2-1.4-6.5-2.4-9.9-3.1
					s-6.8-1.1-10.3-1.1c-8.7,0-15.6,2.5-20.7,7.6c-5.1,5.1-7.6,12-7.6,20.6c0,8.9,2.4,16,7.2,21.3c4.8,5.3,11.4,7.9,19.6,7.9
					c7.4,0,13.2-2.4,17.5-7.1C1809.8,350.3,1811.9,343.9,1811.9,335.7z M1803,338.4c-0.1,4.9-1.4,8.8-4.1,11.8
					c-2.7,2.9-6.2,4.4-10.7,4.4c-5,0-9-1.4-12-4.2c-3-2.8-4.7-6.8-5.2-12L1803,338.4z"/>
			</g>
			<g>
				<path id="DejaVuSans-64_00000029006848903826324780000007259193743983071889_" d="M1862.7,352.5v29.6h9v-76h-9v8.2
					c-1.9-3.2-4.3-5.7-7.2-7.2c-2.9-1.6-6.3-2.4-10.4-2.4c-6.6,0-12,2.6-16.1,7.9c-4.1,5.3-6.2,12.2-6.2,20.8s2.1,15.5,6.2,20.8
					c4.2,5.3,9.5,7.9,16.1,7.9c4,0,7.5-0.8,10.4-2.4C1858.4,358.2,1860.8,355.8,1862.7,352.5z M1832.1,333.4
					c0-6.6,1.4-11.8,4.1-15.5c2.7-3.8,6.5-5.6,11.2-5.6s8.5,1.9,11.2,5.6c2.7,3.8,4.1,8.9,4.1,15.5c0,6.6-1.4,11.8-4.1,15.5
					c-2.7,3.8-6.5,5.6-11.2,5.6s-8.5-1.9-11.2-5.6C1833.4,345.2,1832.1,340,1832.1,333.4z"/>
			</g>
		</g>
	</g>
	<g id="patch_10_00000144324986334361065020000002814005189874568336_">
		<path class="st4" d="M511.5,166.8h20v-7h-20V166.8z"/>
	</g>
	<g id="text_14_00000168089012597159260600000002322875220735362492_">
		<g transform="translate(386.646875 197.4375)scale(0.1 -0.1)">
			<g>
				<path id="DejaVuSans-53_00000000922476119876025870000000949562778648374423_" d="M1582,376.6V367c-3.7,1.8-7.3,3.1-10.6,4
					c-3.3,0.9-6.5,1.3-9.6,1.3c-5.4,0-9.5-1-12.4-3.1c-2.9-2.1-4.4-5-4.4-8.9c0-3.2,1-5.7,2.9-7.3c1.9-1.6,5.6-3,11-4l6-1.2
					c7.4-1.4,12.8-3.9,16.3-7.4s5.2-8.3,5.2-14.2c0-7.1-2.4-12.4-7.1-16.1c-4.7-3.6-11.7-5.5-20.8-5.5c-3.4,0-7.1,0.4-11,1.2
					c-3.9,0.8-7.9,1.9-12.1,3.5v10.2c4-2.2,7.9-3.9,11.8-5.1c3.8-1.1,7.6-1.7,11.3-1.7c5.6,0,10,1.1,13,3.3c3.1,2.2,4.6,5.4,4.6,9.5
					c0,3.6-1.1,6.4-3.3,8.4c-2.2,2-5.8,3.5-10.8,4.5l-6,1.2c-7.4,1.5-12.7,3.8-16,6.9c-3.3,3.1-4.9,7.5-4.9,13
					c0,6.4,2.3,11.5,6.8,15.2c4.5,3.7,10.8,5.6,18.8,5.6c3.4,0,6.9-0.3,10.5-0.9C1574.6,378.8,1578.3,377.9,1582,376.6z"/>
			</g>
			<g>
				<path id="DejaVuSans-77_00000069384672434981976170000005294984554611254458_" d="M1596.1,360.8h9l11.2-42.7l11.2,42.7h10.6
					l11.2-42.7l11.2,42.7h9l-14.3-54.7h-10.6l-11.8,44.8l-11.8-44.8h-10.6L1596.1,360.8z"/>
			</g>
			<g>
				<path id="DejaVuSans-61_00000143577342618599103390000000863990006578630559_" d="M1708,333.6c-7.3,0-12.3-0.8-15.1-2.5
					s-4.2-4.5-4.2-8.5c0-3.2,1.1-5.7,3.2-7.6c2.1-1.9,5-2.8,8.6-2.8c5,0,9,1.8,12,5.3s4.5,8.2,4.5,14.1v2H1708z M1725.9,337.3v-31.2
					h-9v8.3c-2.1-3.3-4.6-5.8-7.7-7.3c-3.1-1.6-6.8-2.4-11.2-2.4c-5.6,0-10,1.6-13.4,4.7c-3.3,3.1-5,7.4-5,12.6
					c0,6.1,2.1,10.8,6.2,13.9c4.1,3.1,10.3,4.7,18.4,4.7h12.6v0.9c0,4.1-1.4,7.3-4.1,9.6c-2.7,2.3-6.5,3.4-11.5,3.4
					c-3.1,0-6.2-0.4-9.1-1.1c-3-0.8-5.8-1.9-8.5-3.4v8.3c3.3,1.3,6.5,2.2,9.6,2.8c3.1,0.6,6.1,1,9,1c7.9,0,13.8-2.1,17.7-6.2
					C1724,351.9,1725.9,345.7,1725.9,337.3z"/>
			</g>
			<g>
				<path id="DejaVuSans-70_00000047746493006465249280000015747967558764062854_" d="M1753.1,314.3v-29h-9v75.5h9v-8.3
					c1.9,3.2,4.3,5.7,7.2,7.2c2.9,1.6,6.3,2.4,10.3,2.4c6.6,0,12-2.6,16.2-7.9c4.2-5.3,6.2-12.2,6.2-20.8s-2.1-15.5-6.2-20.8
					c-4.1-5.3-9.5-7.9-16.2-7.9c-4,0-7.4,0.8-10.3,2.4C1757.4,308.7,1755,311.1,1753.1,314.3z M1783.7,333.4
					c0,6.6-1.4,11.8-4.1,15.5c-2.7,3.8-6.5,5.6-11.2,5.6c-4.8,0-8.5-1.9-11.2-5.6c-2.7-3.8-4.1-8.9-4.1-15.5
					c0-6.6,1.4-11.8,4.1-15.5c2.7-3.8,6.5-5.6,11.2-5.6c4.8,0,8.5,1.9,11.2,5.6C1782.3,321.6,1783.7,326.8,1783.7,333.4z"/>
			</g>
			<g>
				<path id="DejaVuSans-70_00000135653025539268221720000016720354895271335067_" d="M1816.6,314.3v-29h-9v75.5h9v-8.3
					c1.9,3.2,4.3,5.7,7.2,7.2c2.9,1.6,6.3,2.4,10.3,2.4c6.6,0,12-2.6,16.2-7.9c4.2-5.3,6.2-12.2,6.2-20.8s-2.1-15.5-6.2-20.8
					c-4.1-5.3-9.5-7.9-16.2-7.9c-4,0-7.4,0.8-10.3,2.4C1820.9,308.7,1818.5,311.1,1816.6,314.3z M1847.2,333.4
					c0,6.6-1.4,11.8-4.1,15.5c-2.7,3.8-6.5,5.6-11.2,5.6c-4.8,0-8.5-1.9-11.2-5.6c-2.7-3.8-4.1-8.9-4.1-15.5
					c0-6.6,1.4-11.8,4.1-15.5c2.7-3.8,6.5-5.6,11.2-5.6c4.8,0,8.5,1.9,11.2,5.6C1845.8,321.6,1847.2,326.8,1847.2,333.4z"/>
			</g>
			<g>
				<path id="DejaVuSans-65_00000059990697933842670960000007048047259376034434_" d="M1918.1,335.7v-4.4h-41.3
					c0.4-6.2,2.3-10.9,5.6-14.1c3.3-3.2,8-4.9,13.9-4.9c3.4,0,6.8,0.4,10,1.3s6.5,2.1,9.7,3.8v-8.5c-3.2-1.4-6.5-2.4-9.9-3.1
					s-6.8-1.1-10.3-1.1c-8.7,0-15.6,2.5-20.7,7.6c-5.1,5.1-7.6,12-7.6,20.6c0,8.9,2.4,16,7.2,21.3c4.8,5.3,11.4,7.9,19.6,7.9
					c7.4,0,13.2-2.4,17.5-7.1C1916,350.3,1918.1,343.9,1918.1,335.7z M1909.2,338.4c-0.1,4.9-1.4,8.8-4.1,11.8
					c-2.7,2.9-6.2,4.4-10.7,4.4c-5,0-9-1.4-12-4.2c-3-2.8-4.7-6.8-5.2-12L1909.2,338.4z"/>
			</g>
			<g>
				<path id="DejaVuSans-64_00000134237598987240359380000017150454190141400455_" d="M1968.9,352.5v29.6h9v-76h-9v8.2
					c-1.9-3.2-4.3-5.7-7.2-7.2c-2.9-1.6-6.3-2.4-10.4-2.4c-6.6,0-12,2.6-16.1,7.9c-4.1,5.3-6.2,12.2-6.2,20.8s2.1,15.5,6.2,20.8
					c4.2,5.3,9.5,7.9,16.1,7.9c4,0,7.5-0.8,10.4-2.4C1964.6,358.2,1967,355.8,1968.9,352.5z M1938.3,333.4c0-6.6,1.4-11.8,4.1-15.5
					c2.7-3.8,6.5-5.6,11.2-5.6s8.5,1.9,11.2,5.6c2.7,3.8,4.1,8.9,4.1,15.5c0,6.6-1.4,11.8-4.1,15.5c-2.7,3.8-6.5,5.6-11.2,5.6
					s-8.5-1.9-11.2-5.6C1939.6,345.2,1938.3,340,1938.3,333.4z"/>
			</g>
		</g>
	</g>
</g>
<g>
	<path class="st3" d="M63.6,318.4h39.5V140.3H63.6V318.4z"/>
	<path class="st3" d="M165,318.4h39.5V95.9H165V318.4z"/>
	<path class="st4" d="M102.8,318.4h39.5V148.7h-39.5V318.4z"/>
	<path class="st4" d="M204.2,318.4h39.5V193.1h-39.5V318.4z"/>
	<path class="st2" d="M83.4,149.4v-19.3"/>
	<path class="st2" d="M184.7,114.1V78"/>
	<path class="st2" d="M122.6,158.1v-18.7"/>
	<path class="st2" d="M223.9,209.9v-34.6"/>
</g>
<path class="st3" d="M434.5,318.2h35.6V56.3h-35.6V318.2z"/>
<path class="st3" d="M340.9,317.3h35.6V137.3h-35.6V317.3z"/>
<path class="st4" d="M469.9,318.2h35.6v-45.5h-35.6V318.2z"/>
<path class="st4" d="M376.3,317.9h35.6V191.7h-35.6V317.9z"/>
<path class="st2" d="M451.4,81.3V30.9"/>
<path class="st2" d="M358.7,162.5V112"/>
<path class="st2" d="M487.7,298.3V245"/>
<path class="st2" d="M392.1,215.7V166"/>
<text transform="matrix(1 0 0 1 74.3987 332.075)" class="st5 st6">Chromatic</text>
<text transform="matrix(1 0 0 1 138.7715 351.038)" class="st5 st6">Study I</text>
<text transform="matrix(1 0 0 1 383.6905 351.038)" class="st5 st6">All-scale Study</text>
<text transform="matrix(1 0 0 1 177.9648 332.0747)" class="st5 st6">Pentatonic</text>
<text transform="matrix(1 0 0 1 352.4897 332.0747)" class="st5 st6">0 1 2 3 5</text>
<text transform="matrix(1 0 0 1 443.3121 332.0747)" class="st5 st6">Pentatonic</text>
</svg>
