<?xml version="1.0" encoding="utf-8" standalone="no"?>
<!DOCTYPE svg PUBLIC "-//W3C//DTD SVG 1.1//EN"
  "http://www.w3.org/Graphics/SVG/1.1/DTD/svg11.dtd">
<svg xmlns:xlink="http://www.w3.org/1999/xlink" width="360pt" height="360pt" viewBox="0 0 360 360" xmlns="http://www.w3.org/2000/svg" version="1.1">
 <metadata>
  <rdf:RDF xmlns:dc="http://purl.org/dc/elements/1.1/" xmlns:cc="http://creativecommons.org/ns#" xmlns:rdf="http://www.w3.org/1999/02/22-rdf-syntax-ns#">
   <cc:Work>
    <dc:type rdf:resource="http://purl.org/dc/dcmitype/StillImage"/>
    <dc:date>2024-06-03T14:26:20.714502</dc:date>
    <dc:format>image/svg+xml</dc:format>
    <dc:creator>
     <cc:Agent>
      <dc:title>Matplotlib v3.8.2, https://matplotlib.org/</dc:title>
     </cc:Agent>
    </dc:creator>
   </cc:Work>
  </rdf:RDF>
 </metadata>
 <defs>
  <style type="text/css">*{stroke-linejoin: round; stroke-linecap: butt}</style>
 </defs>
 <g id="figure_1">
  <g id="patch_1">
   <path d="M 0 360 
L 360 360 
L 360 0 
L 0 0 
z
" style="fill: #ffffff"/>
  </g>
  <g id="axes_1">
   <g id="patch_2">
    <path d="M 45 320.4 
L 324 320.4 
L 324 43.2 
L 45 43.2 
z
" style="fill: #eaeaf2"/>
   </g>
   <g id="matplotlib.axis_1">
    <g id="xtick_1">
     <g id="line2d_1">
      <path d="M 57.681818 320.4 
L 57.681818 43.2 
" clip-path="url(#paf91c07d41)" style="fill: none; stroke: #ffffff; stroke-width: 0.8; stroke-linecap: round"/>
     </g>
     <g id="text_1">
      <!-- 2.8 -->
      <g style="fill: #262626" transform="translate(50.731818 334.557813) scale(0.1 -0.1)">
       <defs>
        <path id="ArialMT-32" d="M 3222 541 
L 3222 0 
L 194 0 
Q 188 203 259 391 
Q 375 700 629 1000 
Q 884 1300 1366 1694 
Q 2113 2306 2375 2664 
Q 2638 3022 2638 3341 
Q 2638 3675 2398 3904 
Q 2159 4134 1775 4134 
Q 1369 4134 1125 3890 
Q 881 3647 878 3216 
L 300 3275 
Q 359 3922 746 4261 
Q 1134 4600 1788 4600 
Q 2447 4600 2831 4234 
Q 3216 3869 3216 3328 
Q 3216 3053 3103 2787 
Q 2991 2522 2730 2228 
Q 2469 1934 1863 1422 
Q 1356 997 1212 845 
Q 1069 694 975 541 
L 3222 541 
z
" transform="scale(0.015625)"/>
        <path id="ArialMT-2e" d="M 581 0 
L 581 641 
L 1222 641 
L 1222 0 
L 581 0 
z
" transform="scale(0.015625)"/>
        <path id="ArialMT-38" d="M 1131 2484 
Q 781 2613 612 2850 
Q 444 3088 444 3419 
Q 444 3919 803 4259 
Q 1163 4600 1759 4600 
Q 2359 4600 2725 4251 
Q 3091 3903 3091 3403 
Q 3091 3084 2923 2848 
Q 2756 2613 2416 2484 
Q 2838 2347 3058 2040 
Q 3278 1734 3278 1309 
Q 3278 722 2862 322 
Q 2447 -78 1769 -78 
Q 1091 -78 675 323 
Q 259 725 259 1325 
Q 259 1772 486 2073 
Q 713 2375 1131 2484 
z
M 1019 3438 
Q 1019 3113 1228 2906 
Q 1438 2700 1772 2700 
Q 2097 2700 2305 2904 
Q 2513 3109 2513 3406 
Q 2513 3716 2298 3927 
Q 2084 4138 1766 4138 
Q 1444 4138 1231 3931 
Q 1019 3725 1019 3438 
z
M 838 1322 
Q 838 1081 952 856 
Q 1066 631 1291 507 
Q 1516 384 1775 384 
Q 2178 384 2440 643 
Q 2703 903 2703 1303 
Q 2703 1709 2433 1975 
Q 2163 2241 1756 2241 
Q 1359 2241 1098 1978 
Q 838 1716 838 1322 
z
" transform="scale(0.015625)"/>
       </defs>
       <use xlink:href="#ArialMT-32"/>
       <use xlink:href="#ArialMT-2e" x="55.615234"/>
       <use xlink:href="#ArialMT-38" x="83.398438"/>
      </g>
     </g>
    </g>
    <g id="xtick_2">
     <g id="line2d_2">
      <path d="M 108.409091 320.4 
L 108.409091 43.2 
" clip-path="url(#paf91c07d41)" style="fill: none; stroke: #ffffff; stroke-width: 0.8; stroke-linecap: round"/>
     </g>
     <g id="text_2">
      <!-- 2.9 -->
      <g style="fill: #262626" transform="translate(101.459091 334.557813) scale(0.1 -0.1)">
       <defs>
        <path id="ArialMT-39" d="M 350 1059 
L 891 1109 
Q 959 728 1153 556 
Q 1347 384 1650 384 
Q 1909 384 2104 503 
Q 2300 622 2425 820 
Q 2550 1019 2634 1356 
Q 2719 1694 2719 2044 
Q 2719 2081 2716 2156 
Q 2547 1888 2255 1720 
Q 1963 1553 1622 1553 
Q 1053 1553 659 1965 
Q 266 2378 266 3053 
Q 266 3750 677 4175 
Q 1088 4600 1706 4600 
Q 2153 4600 2523 4359 
Q 2894 4119 3086 3673 
Q 3278 3228 3278 2384 
Q 3278 1506 3087 986 
Q 2897 466 2520 194 
Q 2144 -78 1638 -78 
Q 1100 -78 759 220 
Q 419 519 350 1059 
z
M 2653 3081 
Q 2653 3566 2395 3850 
Q 2138 4134 1775 4134 
Q 1400 4134 1122 3828 
Q 844 3522 844 3034 
Q 844 2597 1108 2323 
Q 1372 2050 1759 2050 
Q 2150 2050 2401 2323 
Q 2653 2597 2653 3081 
z
" transform="scale(0.015625)"/>
       </defs>
       <use xlink:href="#ArialMT-32"/>
       <use xlink:href="#ArialMT-2e" x="55.615234"/>
       <use xlink:href="#ArialMT-39" x="83.398438"/>
      </g>
     </g>
    </g>
    <g id="xtick_3">
     <g id="line2d_3">
      <path d="M 159.136364 320.4 
L 159.136364 43.2 
" clip-path="url(#paf91c07d41)" style="fill: none; stroke: #ffffff; stroke-width: 0.8; stroke-linecap: round"/>
     </g>
     <g id="text_3">
      <!-- 3.0 -->
      <g style="fill: #262626" transform="translate(152.186364 334.557813) scale(0.1 -0.1)">
       <defs>
        <path id="ArialMT-33" d="M 269 1209 
L 831 1284 
Q 928 806 1161 595 
Q 1394 384 1728 384 
Q 2125 384 2398 659 
Q 2672 934 2672 1341 
Q 2672 1728 2419 1979 
Q 2166 2231 1775 2231 
Q 1616 2231 1378 2169 
L 1441 2663 
Q 1497 2656 1531 2656 
Q 1891 2656 2178 2843 
Q 2466 3031 2466 3422 
Q 2466 3731 2256 3934 
Q 2047 4138 1716 4138 
Q 1388 4138 1169 3931 
Q 950 3725 888 3313 
L 325 3413 
Q 428 3978 793 4289 
Q 1159 4600 1703 4600 
Q 2078 4600 2393 4439 
Q 2709 4278 2876 4000 
Q 3044 3722 3044 3409 
Q 3044 3113 2884 2869 
Q 2725 2625 2413 2481 
Q 2819 2388 3044 2092 
Q 3269 1797 3269 1353 
Q 3269 753 2831 336 
Q 2394 -81 1725 -81 
Q 1122 -81 723 278 
Q 325 638 269 1209 
z
" transform="scale(0.015625)"/>
        <path id="ArialMT-30" d="M 266 2259 
Q 266 3072 433 3567 
Q 600 4063 929 4331 
Q 1259 4600 1759 4600 
Q 2128 4600 2406 4451 
Q 2684 4303 2865 4023 
Q 3047 3744 3150 3342 
Q 3253 2941 3253 2259 
Q 3253 1453 3087 958 
Q 2922 463 2592 192 
Q 2263 -78 1759 -78 
Q 1097 -78 719 397 
Q 266 969 266 2259 
z
M 844 2259 
Q 844 1131 1108 757 
Q 1372 384 1759 384 
Q 2147 384 2411 759 
Q 2675 1134 2675 2259 
Q 2675 3391 2411 3762 
Q 2147 4134 1753 4134 
Q 1366 4134 1134 3806 
Q 844 3388 844 2259 
z
" transform="scale(0.015625)"/>
       </defs>
       <use xlink:href="#ArialMT-33"/>
       <use xlink:href="#ArialMT-2e" x="55.615234"/>
       <use xlink:href="#ArialMT-30" x="83.398438"/>
      </g>
     </g>
    </g>
    <g id="xtick_4">
     <g id="line2d_4">
      <path d="M 209.863636 320.4 
L 209.863636 43.2 
" clip-path="url(#paf91c07d41)" style="fill: none; stroke: #ffffff; stroke-width: 0.8; stroke-linecap: round"/>
     </g>
     <g id="text_4">
      <!-- 3.1 -->
      <g style="fill: #262626" transform="translate(202.913636 334.557813) scale(0.1 -0.1)">
       <defs>
        <path id="ArialMT-31" d="M 2384 0 
L 1822 0 
L 1822 3584 
Q 1619 3391 1289 3197 
Q 959 3003 697 2906 
L 697 3450 
Q 1169 3672 1522 3987 
Q 1875 4303 2022 4600 
L 2384 4600 
L 2384 0 
z
" transform="scale(0.015625)"/>
       </defs>
       <use xlink:href="#ArialMT-33"/>
       <use xlink:href="#ArialMT-2e" x="55.615234"/>
       <use xlink:href="#ArialMT-31" x="83.398438"/>
      </g>
     </g>
    </g>
    <g id="xtick_5">
     <g id="line2d_5">
      <path d="M 260.590909 320.4 
L 260.590909 43.2 
" clip-path="url(#paf91c07d41)" style="fill: none; stroke: #ffffff; stroke-width: 0.8; stroke-linecap: round"/>
     </g>
     <g id="text_5">
      <!-- 3.2 -->
      <g style="fill: #262626" transform="translate(253.640909 334.557813) scale(0.1 -0.1)">
       <use xlink:href="#ArialMT-33"/>
       <use xlink:href="#ArialMT-2e" x="55.615234"/>
       <use xlink:href="#ArialMT-32" x="83.398438"/>
      </g>
     </g>
    </g>
    <g id="xtick_6">
     <g id="line2d_6">
      <path d="M 311.318182 320.4 
L 311.318182 43.2 
" clip-path="url(#paf91c07d41)" style="fill: none; stroke: #ffffff; stroke-width: 0.8; stroke-linecap: round"/>
     </g>
     <g id="text_6">
      <!-- 3.3 -->
      <g style="fill: #262626" transform="translate(304.368182 334.557813) scale(0.1 -0.1)">
       <use xlink:href="#ArialMT-33"/>
       <use xlink:href="#ArialMT-2e" x="55.615234"/>
       <use xlink:href="#ArialMT-33" x="83.398438"/>
      </g>
     </g>
    </g>
    <g id="text_7">
     <!-- Q3 Mean -->
     <g style="fill: #262626" transform="translate(163.935156 347.703125) scale(0.1 -0.1)">
      <defs>
       <path id="ArialMT-51" d="M 3966 491 
Q 4388 200 4744 66 
L 4566 -356 
Q 4072 -178 3581 206 
Q 3072 -78 2456 -78 
Q 1834 -78 1328 222 
Q 822 522 548 1065 
Q 275 1609 275 2291 
Q 275 2969 550 3525 
Q 825 4081 1333 4372 
Q 1841 4663 2469 4663 
Q 3103 4663 3612 4361 
Q 4122 4059 4389 3517 
Q 4656 2975 4656 2294 
Q 4656 1728 4484 1276 
Q 4313 825 3966 491 
z
M 2631 1266 
Q 3156 1119 3497 828 
Q 4031 1316 4031 2294 
Q 4031 2850 3842 3265 
Q 3653 3681 3289 3911 
Q 2925 4141 2472 4141 
Q 1794 4141 1347 3677 
Q 900 3213 900 2291 
Q 900 1397 1342 919 
Q 1784 441 2472 441 
Q 2797 441 3084 563 
Q 2800 747 2484 825 
L 2631 1266 
z
" transform="scale(0.015625)"/>
       <path id="ArialMT-20" transform="scale(0.015625)"/>
       <path id="ArialMT-4d" d="M 475 0 
L 475 4581 
L 1388 4581 
L 2472 1338 
Q 2622 884 2691 659 
Q 2769 909 2934 1394 
L 4031 4581 
L 4847 4581 
L 4847 0 
L 4263 0 
L 4263 3834 
L 2931 0 
L 2384 0 
L 1059 3900 
L 1059 0 
L 475 0 
z
" transform="scale(0.015625)"/>
       <path id="ArialMT-65" d="M 2694 1069 
L 3275 997 
Q 3138 488 2766 206 
Q 2394 -75 1816 -75 
Q 1088 -75 661 373 
Q 234 822 234 1631 
Q 234 2469 665 2931 
Q 1097 3394 1784 3394 
Q 2450 3394 2872 2941 
Q 3294 2488 3294 1666 
Q 3294 1616 3291 1516 
L 816 1516 
Q 847 969 1125 678 
Q 1403 388 1819 388 
Q 2128 388 2347 550 
Q 2566 713 2694 1069 
z
M 847 1978 
L 2700 1978 
Q 2663 2397 2488 2606 
Q 2219 2931 1791 2931 
Q 1403 2931 1139 2672 
Q 875 2413 847 1978 
z
" transform="scale(0.015625)"/>
       <path id="ArialMT-61" d="M 2588 409 
Q 2275 144 1986 34 
Q 1697 -75 1366 -75 
Q 819 -75 525 192 
Q 231 459 231 875 
Q 231 1119 342 1320 
Q 453 1522 633 1644 
Q 813 1766 1038 1828 
Q 1203 1872 1538 1913 
Q 2219 1994 2541 2106 
Q 2544 2222 2544 2253 
Q 2544 2597 2384 2738 
Q 2169 2928 1744 2928 
Q 1347 2928 1158 2789 
Q 969 2650 878 2297 
L 328 2372 
Q 403 2725 575 2942 
Q 747 3159 1072 3276 
Q 1397 3394 1825 3394 
Q 2250 3394 2515 3294 
Q 2781 3194 2906 3042 
Q 3031 2891 3081 2659 
Q 3109 2516 3109 2141 
L 3109 1391 
Q 3109 606 3145 398 
Q 3181 191 3288 0 
L 2700 0 
Q 2613 175 2588 409 
z
M 2541 1666 
Q 2234 1541 1622 1453 
Q 1275 1403 1131 1340 
Q 988 1278 909 1158 
Q 831 1038 831 891 
Q 831 666 1001 516 
Q 1172 366 1500 366 
Q 1825 366 2078 508 
Q 2331 650 2450 897 
Q 2541 1088 2541 1459 
L 2541 1666 
z
" transform="scale(0.015625)"/>
       <path id="ArialMT-6e" d="M 422 0 
L 422 3319 
L 928 3319 
L 928 2847 
Q 1294 3394 1984 3394 
Q 2284 3394 2536 3286 
Q 2788 3178 2913 3003 
Q 3038 2828 3088 2588 
Q 3119 2431 3119 2041 
L 3119 0 
L 2556 0 
L 2556 2019 
Q 2556 2363 2490 2533 
Q 2425 2703 2258 2804 
Q 2091 2906 1866 2906 
Q 1506 2906 1245 2678 
Q 984 2450 984 1813 
L 984 0 
L 422 0 
z
" transform="scale(0.015625)"/>
      </defs>
      <use xlink:href="#ArialMT-51"/>
      <use xlink:href="#ArialMT-33" x="77.783203"/>
      <use xlink:href="#ArialMT-20" x="133.398438"/>
      <use xlink:href="#ArialMT-4d" x="161.181641"/>
      <use xlink:href="#ArialMT-65" x="244.482422"/>
      <use xlink:href="#ArialMT-61" x="300.097656"/>
      <use xlink:href="#ArialMT-6e" x="355.712891"/>
     </g>
    </g>
   </g>
   <g id="matplotlib.axis_2">
    <g id="ytick_1">
     <g id="line2d_7">
      <path d="M 45 301.665068 
L 324 301.665068 
" clip-path="url(#paf91c07d41)" style="fill: none; stroke: #ffffff; stroke-width: 0.8; stroke-linecap: round"/>
     </g>
     <g id="text_8">
      <!-- 0.00 -->
      <g style="fill: #262626" transform="translate(18.539062 305.243974) scale(0.1 -0.1)">
       <use xlink:href="#ArialMT-30"/>
       <use xlink:href="#ArialMT-2e" x="55.615234"/>
       <use xlink:href="#ArialMT-30" x="83.398438"/>
       <use xlink:href="#ArialMT-30" x="139.013672"/>
      </g>
     </g>
    </g>
    <g id="ytick_2">
     <g id="line2d_8">
      <path d="M 45 263.304971 
L 324 263.304971 
" clip-path="url(#paf91c07d41)" style="fill: none; stroke: #ffffff; stroke-width: 0.8; stroke-linecap: round"/>
     </g>
     <g id="text_9">
      <!-- 0.05 -->
      <g style="fill: #262626" transform="translate(18.539062 266.883877) scale(0.1 -0.1)">
       <defs>
        <path id="ArialMT-35" d="M 266 1200 
L 856 1250 
Q 922 819 1161 601 
Q 1400 384 1738 384 
Q 2144 384 2425 690 
Q 2706 997 2706 1503 
Q 2706 1984 2436 2262 
Q 2166 2541 1728 2541 
Q 1456 2541 1237 2417 
Q 1019 2294 894 2097 
L 366 2166 
L 809 4519 
L 3088 4519 
L 3088 3981 
L 1259 3981 
L 1013 2750 
Q 1425 3038 1878 3038 
Q 2478 3038 2890 2622 
Q 3303 2206 3303 1553 
Q 3303 931 2941 478 
Q 2500 -78 1738 -78 
Q 1113 -78 717 272 
Q 322 622 266 1200 
z
" transform="scale(0.015625)"/>
       </defs>
       <use xlink:href="#ArialMT-30"/>
       <use xlink:href="#ArialMT-2e" x="55.615234"/>
       <use xlink:href="#ArialMT-30" x="83.398438"/>
       <use xlink:href="#ArialMT-35" x="139.013672"/>
      </g>
     </g>
    </g>
    <g id="ytick_3">
     <g id="line2d_9">
      <path d="M 45 224.944874 
L 324 224.944874 
" clip-path="url(#paf91c07d41)" style="fill: none; stroke: #ffffff; stroke-width: 0.8; stroke-linecap: round"/>
     </g>
     <g id="text_10">
      <!-- 0.10 -->
      <g style="fill: #262626" transform="translate(18.539062 228.52378) scale(0.1 -0.1)">
       <use xlink:href="#ArialMT-30"/>
       <use xlink:href="#ArialMT-2e" x="55.615234"/>
       <use xlink:href="#ArialMT-31" x="83.398438"/>
       <use xlink:href="#ArialMT-30" x="139.013672"/>
      </g>
     </g>
    </g>
    <g id="ytick_4">
     <g id="line2d_10">
      <path d="M 45 186.584777 
L 324 186.584777 
" clip-path="url(#paf91c07d41)" style="fill: none; stroke: #ffffff; stroke-width: 0.8; stroke-linecap: round"/>
     </g>
     <g id="text_11">
      <!-- 0.15 -->
      <g style="fill: #262626" transform="translate(18.539062 190.163683) scale(0.1 -0.1)">
       <use xlink:href="#ArialMT-30"/>
       <use xlink:href="#ArialMT-2e" x="55.615234"/>
       <use xlink:href="#ArialMT-31" x="83.398438"/>
       <use xlink:href="#ArialMT-35" x="139.013672"/>
      </g>
     </g>
    </g>
    <g id="ytick_5">
     <g id="line2d_11">
      <path d="M 45 148.22468 
L 324 148.22468 
" clip-path="url(#paf91c07d41)" style="fill: none; stroke: #ffffff; stroke-width: 0.8; stroke-linecap: round"/>
     </g>
     <g id="text_12">
      <!-- 0.20 -->
      <g style="fill: #262626" transform="translate(18.539062 151.803586) scale(0.1 -0.1)">
       <use xlink:href="#ArialMT-30"/>
       <use xlink:href="#ArialMT-2e" x="55.615234"/>
       <use xlink:href="#ArialMT-32" x="83.398438"/>
       <use xlink:href="#ArialMT-30" x="139.013672"/>
      </g>
     </g>
    </g>
    <g id="ytick_6">
     <g id="line2d_12">
      <path d="M 45 109.864583 
L 324 109.864583 
" clip-path="url(#paf91c07d41)" style="fill: none; stroke: #ffffff; stroke-width: 0.8; stroke-linecap: round"/>
     </g>
     <g id="text_13">
      <!-- 0.25 -->
      <g style="fill: #262626" transform="translate(18.539062 113.443489) scale(0.1 -0.1)">
       <use xlink:href="#ArialMT-30"/>
       <use xlink:href="#ArialMT-2e" x="55.615234"/>
       <use xlink:href="#ArialMT-32" x="83.398438"/>
       <use xlink:href="#ArialMT-35" x="139.013672"/>
      </g>
     </g>
    </g>
    <g id="ytick_7">
     <g id="line2d_13">
      <path d="M 45 71.504486 
L 324 71.504486 
" clip-path="url(#paf91c07d41)" style="fill: none; stroke: #ffffff; stroke-width: 0.8; stroke-linecap: round"/>
     </g>
     <g id="text_14">
      <!-- 0.30 -->
      <g style="fill: #262626" transform="translate(18.539062 75.083392) scale(0.1 -0.1)">
       <use xlink:href="#ArialMT-30"/>
       <use xlink:href="#ArialMT-2e" x="55.615234"/>
       <use xlink:href="#ArialMT-33" x="83.398438"/>
       <use xlink:href="#ArialMT-30" x="139.013672"/>
      </g>
     </g>
    </g>
    <g id="text_15">
     <!-- rate shifted - rate swapped (NN) -->
     <g style="fill: #262626" transform="translate(12.434375 252.935156) rotate(-90) scale(0.1 -0.1)">
      <defs>
       <path id="ArialMT-72" d="M 416 0 
L 416 3319 
L 922 3319 
L 922 2816 
Q 1116 3169 1280 3281 
Q 1444 3394 1641 3394 
Q 1925 3394 2219 3213 
L 2025 2691 
Q 1819 2813 1613 2813 
Q 1428 2813 1281 2702 
Q 1134 2591 1072 2394 
Q 978 2094 978 1738 
L 978 0 
L 416 0 
z
" transform="scale(0.015625)"/>
       <path id="ArialMT-74" d="M 1650 503 
L 1731 6 
Q 1494 -44 1306 -44 
Q 1000 -44 831 53 
Q 663 150 594 308 
Q 525 466 525 972 
L 525 2881 
L 113 2881 
L 113 3319 
L 525 3319 
L 525 4141 
L 1084 4478 
L 1084 3319 
L 1650 3319 
L 1650 2881 
L 1084 2881 
L 1084 941 
Q 1084 700 1114 631 
Q 1144 563 1211 522 
Q 1278 481 1403 481 
Q 1497 481 1650 503 
z
" transform="scale(0.015625)"/>
       <path id="ArialMT-73" d="M 197 991 
L 753 1078 
Q 800 744 1014 566 
Q 1228 388 1613 388 
Q 2000 388 2187 545 
Q 2375 703 2375 916 
Q 2375 1106 2209 1216 
Q 2094 1291 1634 1406 
Q 1016 1563 777 1677 
Q 538 1791 414 1992 
Q 291 2194 291 2438 
Q 291 2659 392 2848 
Q 494 3038 669 3163 
Q 800 3259 1026 3326 
Q 1253 3394 1513 3394 
Q 1903 3394 2198 3281 
Q 2494 3169 2634 2976 
Q 2775 2784 2828 2463 
L 2278 2388 
Q 2241 2644 2061 2787 
Q 1881 2931 1553 2931 
Q 1166 2931 1000 2803 
Q 834 2675 834 2503 
Q 834 2394 903 2306 
Q 972 2216 1119 2156 
Q 1203 2125 1616 2013 
Q 2213 1853 2448 1751 
Q 2684 1650 2818 1456 
Q 2953 1263 2953 975 
Q 2953 694 2789 445 
Q 2625 197 2315 61 
Q 2006 -75 1616 -75 
Q 969 -75 630 194 
Q 291 463 197 991 
z
" transform="scale(0.015625)"/>
       <path id="ArialMT-68" d="M 422 0 
L 422 4581 
L 984 4581 
L 984 2938 
Q 1378 3394 1978 3394 
Q 2347 3394 2619 3248 
Q 2891 3103 3008 2847 
Q 3125 2591 3125 2103 
L 3125 0 
L 2563 0 
L 2563 2103 
Q 2563 2525 2380 2717 
Q 2197 2909 1863 2909 
Q 1613 2909 1392 2779 
Q 1172 2650 1078 2428 
Q 984 2206 984 1816 
L 984 0 
L 422 0 
z
" transform="scale(0.015625)"/>
       <path id="ArialMT-69" d="M 425 3934 
L 425 4581 
L 988 4581 
L 988 3934 
L 425 3934 
z
M 425 0 
L 425 3319 
L 988 3319 
L 988 0 
L 425 0 
z
" transform="scale(0.015625)"/>
       <path id="ArialMT-66" d="M 556 0 
L 556 2881 
L 59 2881 
L 59 3319 
L 556 3319 
L 556 3672 
Q 556 4006 616 4169 
Q 697 4388 901 4523 
Q 1106 4659 1475 4659 
Q 1713 4659 2000 4603 
L 1916 4113 
Q 1741 4144 1584 4144 
Q 1328 4144 1222 4034 
Q 1116 3925 1116 3625 
L 1116 3319 
L 1763 3319 
L 1763 2881 
L 1116 2881 
L 1116 0 
L 556 0 
z
" transform="scale(0.015625)"/>
       <path id="ArialMT-64" d="M 2575 0 
L 2575 419 
Q 2259 -75 1647 -75 
Q 1250 -75 917 144 
Q 584 363 401 755 
Q 219 1147 219 1656 
Q 219 2153 384 2558 
Q 550 2963 881 3178 
Q 1213 3394 1622 3394 
Q 1922 3394 2156 3267 
Q 2391 3141 2538 2938 
L 2538 4581 
L 3097 4581 
L 3097 0 
L 2575 0 
z
M 797 1656 
Q 797 1019 1065 703 
Q 1334 388 1700 388 
Q 2069 388 2326 689 
Q 2584 991 2584 1609 
Q 2584 2291 2321 2609 
Q 2059 2928 1675 2928 
Q 1300 2928 1048 2622 
Q 797 2316 797 1656 
z
" transform="scale(0.015625)"/>
       <path id="ArialMT-2d" d="M 203 1375 
L 203 1941 
L 1931 1941 
L 1931 1375 
L 203 1375 
z
" transform="scale(0.015625)"/>
       <path id="ArialMT-77" d="M 1034 0 
L 19 3319 
L 600 3319 
L 1128 1403 
L 1325 691 
Q 1338 744 1497 1375 
L 2025 3319 
L 2603 3319 
L 3100 1394 
L 3266 759 
L 3456 1400 
L 4025 3319 
L 4572 3319 
L 3534 0 
L 2950 0 
L 2422 1988 
L 2294 2553 
L 1622 0 
L 1034 0 
z
" transform="scale(0.015625)"/>
       <path id="ArialMT-70" d="M 422 -1272 
L 422 3319 
L 934 3319 
L 934 2888 
Q 1116 3141 1344 3267 
Q 1572 3394 1897 3394 
Q 2322 3394 2647 3175 
Q 2972 2956 3137 2557 
Q 3303 2159 3303 1684 
Q 3303 1175 3120 767 
Q 2938 359 2589 142 
Q 2241 -75 1856 -75 
Q 1575 -75 1351 44 
Q 1128 163 984 344 
L 984 -1272 
L 422 -1272 
z
M 931 1641 
Q 931 1000 1190 694 
Q 1450 388 1819 388 
Q 2194 388 2461 705 
Q 2728 1022 2728 1688 
Q 2728 2322 2467 2637 
Q 2206 2953 1844 2953 
Q 1484 2953 1207 2617 
Q 931 2281 931 1641 
z
" transform="scale(0.015625)"/>
       <path id="ArialMT-28" d="M 1497 -1347 
Q 1031 -759 709 28 
Q 388 816 388 1659 
Q 388 2403 628 3084 
Q 909 3875 1497 4659 
L 1900 4659 
Q 1522 4009 1400 3731 
Q 1209 3300 1100 2831 
Q 966 2247 966 1656 
Q 966 153 1900 -1347 
L 1497 -1347 
z
" transform="scale(0.015625)"/>
       <path id="ArialMT-4e" d="M 488 0 
L 488 4581 
L 1109 4581 
L 3516 984 
L 3516 4581 
L 4097 4581 
L 4097 0 
L 3475 0 
L 1069 3600 
L 1069 0 
L 488 0 
z
" transform="scale(0.015625)"/>
       <path id="ArialMT-29" d="M 791 -1347 
L 388 -1347 
Q 1322 153 1322 1656 
Q 1322 2244 1188 2822 
Q 1081 3291 891 3722 
Q 769 4003 388 4659 
L 791 4659 
Q 1378 3875 1659 3084 
Q 1900 2403 1900 1659 
Q 1900 816 1576 28 
Q 1253 -759 791 -1347 
z
" transform="scale(0.015625)"/>
      </defs>
      <use xlink:href="#ArialMT-72"/>
      <use xlink:href="#ArialMT-61" x="33.300781"/>
      <use xlink:href="#ArialMT-74" x="88.916016"/>
      <use xlink:href="#ArialMT-65" x="116.699219"/>
      <use xlink:href="#ArialMT-20" x="172.314453"/>
      <use xlink:href="#ArialMT-73" x="200.097656"/>
      <use xlink:href="#ArialMT-68" x="250.097656"/>
      <use xlink:href="#ArialMT-69" x="305.712891"/>
      <use xlink:href="#ArialMT-66" x="327.929688"/>
      <use xlink:href="#ArialMT-74" x="355.712891"/>
      <use xlink:href="#ArialMT-65" x="383.496094"/>
      <use xlink:href="#ArialMT-64" x="439.111328"/>
      <use xlink:href="#ArialMT-20" x="494.726562"/>
      <use xlink:href="#ArialMT-2d" x="522.509766"/>
      <use xlink:href="#ArialMT-20" x="555.810547"/>
      <use xlink:href="#ArialMT-72" x="583.59375"/>
      <use xlink:href="#ArialMT-61" x="616.894531"/>
      <use xlink:href="#ArialMT-74" x="672.509766"/>
      <use xlink:href="#ArialMT-65" x="700.292969"/>
      <use xlink:href="#ArialMT-20" x="755.908203"/>
      <use xlink:href="#ArialMT-73" x="783.691406"/>
      <use xlink:href="#ArialMT-77" x="833.691406"/>
      <use xlink:href="#ArialMT-61" x="905.908203"/>
      <use xlink:href="#ArialMT-70" x="961.523438"/>
      <use xlink:href="#ArialMT-70" x="1017.138672"/>
      <use xlink:href="#ArialMT-65" x="1072.753906"/>
      <use xlink:href="#ArialMT-64" x="1128.369141"/>
      <use xlink:href="#ArialMT-20" x="1183.984375"/>
      <use xlink:href="#ArialMT-28" x="1211.767578"/>
      <use xlink:href="#ArialMT-4e" x="1245.068359"/>
      <use xlink:href="#ArialMT-4e" x="1317.285156"/>
      <use xlink:href="#ArialMT-29" x="1389.501953"/>
     </g>
    </g>
   </g>
   <g id="PathCollection_1">
    <defs>
     <path id="mdf5f58f46d" d="M 0 1.936492 
C 0.513564 1.936492 1.006162 1.732451 1.369306 1.369306 
C 1.732451 1.006162 1.936492 0.513564 1.936492 0 
C 1.936492 -0.513564 1.732451 -1.006162 1.369306 -1.369306 
C 1.006162 -1.732451 0.513564 -1.936492 0 -1.936492 
C -0.513564 -1.936492 -1.006162 -1.732451 -1.369306 -1.369306 
C -1.732451 -1.006162 -1.936492 -0.513564 -1.936492 0 
C -1.936492 0.513564 -1.732451 1.006162 -1.369306 1.369306 
C -1.006162 1.732451 -0.513564 1.936492 0 1.936492 
z
" style="stroke: #3b54a5; stroke-opacity: 0.8"/>
    </defs>
    <g clip-path="url(#paf91c07d41)">
     <use xlink:href="#mdf5f58f46d" x="209.863636" y="155.585422" style="fill: #3b54a5; fill-opacity: 0.8; stroke: #3b54a5; stroke-opacity: 0.8"/>
     <use xlink:href="#mdf5f58f46d" x="209.863636" y="227.829563" style="fill: #3b54a5; fill-opacity: 0.8; stroke: #3b54a5; stroke-opacity: 0.8"/>
     <use xlink:href="#mdf5f58f46d" x="108.409091" y="276.603976" style="fill: #3b54a5; fill-opacity: 0.8; stroke: #3b54a5; stroke-opacity: 0.8"/>
     <use xlink:href="#mdf5f58f46d" x="209.863636" y="259.333673" style="fill: #3b54a5; fill-opacity: 0.8; stroke: #3b54a5; stroke-opacity: 0.8"/>
     <use xlink:href="#mdf5f58f46d" x="159.136364" y="191.865515" style="fill: #3b54a5; fill-opacity: 0.8; stroke: #3b54a5; stroke-opacity: 0.8"/>
     <use xlink:href="#mdf5f58f46d" x="57.681818" y="236.853055" style="fill: #3b54a5; fill-opacity: 0.8; stroke: #3b54a5; stroke-opacity: 0.8"/>
     <use xlink:href="#mdf5f58f46d" x="260.590909" y="197.094671" style="fill: #3b54a5; fill-opacity: 0.8; stroke: #3b54a5; stroke-opacity: 0.8"/>
     <use xlink:href="#mdf5f58f46d" x="86.668831" y="307.8" style="fill: #3b54a5; fill-opacity: 0.8; stroke: #3b54a5; stroke-opacity: 0.8"/>
     <use xlink:href="#mdf5f58f46d" x="57.681818" y="123.027361" style="fill: #3b54a5; fill-opacity: 0.8; stroke: #3b54a5; stroke-opacity: 0.8"/>
     <use xlink:href="#mdf5f58f46d" x="97.538961" y="233.149028" style="fill: #3b54a5; fill-opacity: 0.8; stroke: #3b54a5; stroke-opacity: 0.8"/>
     <use xlink:href="#mdf5f58f46d" x="57.681818" y="194.082801" style="fill: #3b54a5; fill-opacity: 0.8; stroke: #3b54a5; stroke-opacity: 0.8"/>
     <use xlink:href="#mdf5f58f46d" x="108.409091" y="237.517395" style="fill: #3b54a5; fill-opacity: 0.8; stroke: #3b54a5; stroke-opacity: 0.8"/>
     <use xlink:href="#mdf5f58f46d" x="133.772727" y="225.354299" style="fill: #3b54a5; fill-opacity: 0.8; stroke: #3b54a5; stroke-opacity: 0.8"/>
     <use xlink:href="#mdf5f58f46d" x="133.772727" y="199.040116" style="fill: #3b54a5; fill-opacity: 0.8; stroke: #3b54a5; stroke-opacity: 0.8"/>
     <use xlink:href="#mdf5f58f46d" x="209.863636" y="200.656199" style="fill: #3b54a5; fill-opacity: 0.8; stroke: #3b54a5; stroke-opacity: 0.8"/>
     <use xlink:href="#mdf5f58f46d" x="108.409091" y="138.464157" style="fill: #3b54a5; fill-opacity: 0.8; stroke: #3b54a5; stroke-opacity: 0.8"/>
     <use xlink:href="#mdf5f58f46d" x="311.318182" y="102.159721" style="fill: #3b54a5; fill-opacity: 0.8; stroke: #3b54a5; stroke-opacity: 0.8"/>
     <use xlink:href="#mdf5f58f46d" x="252.136364" y="208.758895" style="fill: #3b54a5; fill-opacity: 0.8; stroke: #3b54a5; stroke-opacity: 0.8"/>
     <use xlink:href="#mdf5f58f46d" x="159.136364" y="213.121283" style="fill: #3b54a5; fill-opacity: 0.8; stroke: #3b54a5; stroke-opacity: 0.8"/>
     <use xlink:href="#mdf5f58f46d" x="159.136364" y="57.699105" style="fill: #3b54a5; fill-opacity: 0.8; stroke: #3b54a5; stroke-opacity: 0.8"/>
     <use xlink:href="#mdf5f58f46d" x="159.136364" y="153.805871" style="fill: #3b54a5; fill-opacity: 0.8; stroke: #3b54a5; stroke-opacity: 0.8"/>
     <use xlink:href="#mdf5f58f46d" x="159.136364" y="161.333644" style="fill: #3b54a5; fill-opacity: 0.8; stroke: #3b54a5; stroke-opacity: 0.8"/>
     <use xlink:href="#mdf5f58f46d" x="209.863636" y="194.845987" style="fill: #3b54a5; fill-opacity: 0.8; stroke: #3b54a5; stroke-opacity: 0.8"/>
     <use xlink:href="#mdf5f58f46d" x="209.863636" y="188.971514" style="fill: #3b54a5; fill-opacity: 0.8; stroke: #3b54a5; stroke-opacity: 0.8"/>
     <use xlink:href="#mdf5f58f46d" x="108.409091" y="199.820479" style="fill: #3b54a5; fill-opacity: 0.8; stroke: #3b54a5; stroke-opacity: 0.8"/>
     <use xlink:href="#mdf5f58f46d" x="159.136364" y="226.190804" style="fill: #3b54a5; fill-opacity: 0.8; stroke: #3b54a5; stroke-opacity: 0.8"/>
     <use xlink:href="#mdf5f58f46d" x="57.681818" y="126.010381" style="fill: #3b54a5; fill-opacity: 0.8; stroke: #3b54a5; stroke-opacity: 0.8"/>
     <use xlink:href="#mdf5f58f46d" x="108.409091" y="200.429394" style="fill: #3b54a5; fill-opacity: 0.8; stroke: #3b54a5; stroke-opacity: 0.8"/>
     <use xlink:href="#mdf5f58f46d" x="108.409091" y="204.201771" style="fill: #3b54a5; fill-opacity: 0.8; stroke: #3b54a5; stroke-opacity: 0.8"/>
     <use xlink:href="#mdf5f58f46d" x="108.409091" y="195.025789" style="fill: #3b54a5; fill-opacity: 0.8; stroke: #3b54a5; stroke-opacity: 0.8"/>
     <use xlink:href="#mdf5f58f46d" x="57.681818" y="205.380074" style="fill: #3b54a5; fill-opacity: 0.8; stroke: #3b54a5; stroke-opacity: 0.8"/>
     <use xlink:href="#mdf5f58f46d" x="241.568182" y="133.088164" style="fill: #3b54a5; fill-opacity: 0.8; stroke: #3b54a5; stroke-opacity: 0.8"/>
     <use xlink:href="#mdf5f58f46d" x="260.590909" y="216.483471" style="fill: #3b54a5; fill-opacity: 0.8; stroke: #3b54a5; stroke-opacity: 0.8"/>
     <use xlink:href="#mdf5f58f46d" x="209.863636" y="193.425506" style="fill: #3b54a5; fill-opacity: 0.8; stroke: #3b54a5; stroke-opacity: 0.8"/>
     <use xlink:href="#mdf5f58f46d" x="260.590909" y="196.411923" style="fill: #3b54a5; fill-opacity: 0.8; stroke: #3b54a5; stroke-opacity: 0.8"/>
     <use xlink:href="#mdf5f58f46d" x="159.136364" y="188.193212" style="fill: #3b54a5; fill-opacity: 0.8; stroke: #3b54a5; stroke-opacity: 0.8"/>
     <use xlink:href="#mdf5f58f46d" x="159.136364" y="212.165597" style="fill: #3b54a5; fill-opacity: 0.8; stroke: #3b54a5; stroke-opacity: 0.8"/>
     <use xlink:href="#mdf5f58f46d" x="260.590909" y="104.651334" style="fill: #3b54a5; fill-opacity: 0.8; stroke: #3b54a5; stroke-opacity: 0.8"/>
     <use xlink:href="#mdf5f58f46d" x="159.136364" y="154.194601" style="fill: #3b54a5; fill-opacity: 0.8; stroke: #3b54a5; stroke-opacity: 0.8"/>
     <use xlink:href="#mdf5f58f46d" x="133.772727" y="122.428237" style="fill: #3b54a5; fill-opacity: 0.8; stroke: #3b54a5; stroke-opacity: 0.8"/>
     <use xlink:href="#mdf5f58f46d" x="235.227273" y="193.308021" style="fill: #3b54a5; fill-opacity: 0.8; stroke: #3b54a5; stroke-opacity: 0.8"/>
     <use xlink:href="#mdf5f58f46d" x="209.863636" y="207.182835" style="fill: #3b54a5; fill-opacity: 0.8; stroke: #3b54a5; stroke-opacity: 0.8"/>
     <use xlink:href="#mdf5f58f46d" x="212.681818" y="117.15621" style="fill: #3b54a5; fill-opacity: 0.8; stroke: #3b54a5; stroke-opacity: 0.8"/>
     <use xlink:href="#mdf5f58f46d" x="57.681818" y="234.842864" style="fill: #3b54a5; fill-opacity: 0.8; stroke: #3b54a5; stroke-opacity: 0.8"/>
     <use xlink:href="#mdf5f58f46d" x="285.954545" y="81.180063" style="fill: #3b54a5; fill-opacity: 0.8; stroke: #3b54a5; stroke-opacity: 0.8"/>
     <use xlink:href="#mdf5f58f46d" x="108.409091" y="220.382183" style="fill: #3b54a5; fill-opacity: 0.8; stroke: #3b54a5; stroke-opacity: 0.8"/>
     <use xlink:href="#mdf5f58f46d" x="159.136364" y="189.912986" style="fill: #3b54a5; fill-opacity: 0.8; stroke: #3b54a5; stroke-opacity: 0.8"/>
     <use xlink:href="#mdf5f58f46d" x="95.727273" y="195.422737" style="fill: #3b54a5; fill-opacity: 0.8; stroke: #3b54a5; stroke-opacity: 0.8"/>
     <use xlink:href="#mdf5f58f46d" x="311.318182" y="160.633792" style="fill: #3b54a5; fill-opacity: 0.8; stroke: #3b54a5; stroke-opacity: 0.8"/>
     <use xlink:href="#mdf5f58f46d" x="95.727273" y="179.010941" style="fill: #3b54a5; fill-opacity: 0.8; stroke: #3b54a5; stroke-opacity: 0.8"/>
     <use xlink:href="#mdf5f58f46d" x="209.863636" y="55.8" style="fill: #3b54a5; fill-opacity: 0.8; stroke: #3b54a5; stroke-opacity: 0.8"/>
     <use xlink:href="#mdf5f58f46d" x="159.136364" y="227.663402" style="fill: #3b54a5; fill-opacity: 0.8; stroke: #3b54a5; stroke-opacity: 0.8"/>
     <use xlink:href="#mdf5f58f46d" x="57.681818" y="234.892713" style="fill: #3b54a5; fill-opacity: 0.8; stroke: #3b54a5; stroke-opacity: 0.8"/>
     <use xlink:href="#mdf5f58f46d" x="57.681818" y="176.252674" style="fill: #3b54a5; fill-opacity: 0.8; stroke: #3b54a5; stroke-opacity: 0.8"/>
     <use xlink:href="#mdf5f58f46d" x="108.409091" y="147.3753" style="fill: #3b54a5; fill-opacity: 0.8; stroke: #3b54a5; stroke-opacity: 0.8"/>
     <use xlink:href="#mdf5f58f46d" x="108.409091" y="181.32085" style="fill: #3b54a5; fill-opacity: 0.8; stroke: #3b54a5; stroke-opacity: 0.8"/>
     <use xlink:href="#mdf5f58f46d" x="159.136364" y="133.68372" style="fill: #3b54a5; fill-opacity: 0.8; stroke: #3b54a5; stroke-opacity: 0.8"/>
     <use xlink:href="#mdf5f58f46d" x="285.954545" y="185.366743" style="fill: #3b54a5; fill-opacity: 0.8; stroke: #3b54a5; stroke-opacity: 0.8"/>
     <use xlink:href="#mdf5f58f46d" x="209.863636" y="166.659362" style="fill: #3b54a5; fill-opacity: 0.8; stroke: #3b54a5; stroke-opacity: 0.8"/>
     <use xlink:href="#mdf5f58f46d" x="243.681818" y="253.590976" style="fill: #3b54a5; fill-opacity: 0.8; stroke: #3b54a5; stroke-opacity: 0.8"/>
     <use xlink:href="#mdf5f58f46d" x="209.863636" y="158.567275" style="fill: #3b54a5; fill-opacity: 0.8; stroke: #3b54a5; stroke-opacity: 0.8"/>
     <use xlink:href="#mdf5f58f46d" x="108.409091" y="237.319294" style="fill: #3b54a5; fill-opacity: 0.8; stroke: #3b54a5; stroke-opacity: 0.8"/>
     <use xlink:href="#mdf5f58f46d" x="108.409091" y="113.168049" style="fill: #3b54a5; fill-opacity: 0.8; stroke: #3b54a5; stroke-opacity: 0.8"/>
     <use xlink:href="#mdf5f58f46d" x="184.5" y="124.181215" style="fill: #3b54a5; fill-opacity: 0.8; stroke: #3b54a5; stroke-opacity: 0.8"/>
     <use xlink:href="#mdf5f58f46d" x="209.863636" y="171.968082" style="fill: #3b54a5; fill-opacity: 0.8; stroke: #3b54a5; stroke-opacity: 0.8"/>
     <use xlink:href="#mdf5f58f46d" x="159.136364" y="249.915753" style="fill: #3b54a5; fill-opacity: 0.8; stroke: #3b54a5; stroke-opacity: 0.8"/>
    </g>
   </g>
   <g id="PolyCollection_1">
    <defs>
     <path id="m84652fa0af" d="M 57.681818 -179.141017 
L 57.681818 -135.854778 
L 60.243802 -136.755239 
L 62.805785 -137.658399 
L 65.367769 -138.486913 
L 67.929752 -139.464714 
L 70.491736 -140.169864 
L 73.053719 -140.825781 
L 75.615702 -141.611296 
L 78.177686 -142.399602 
L 80.739669 -143.185471 
L 83.301653 -143.970687 
L 85.863636 -144.758644 
L 88.42562 -145.546273 
L 90.987603 -146.330972 
L 93.549587 -147.1148 
L 96.11157 -147.810754 
L 98.673554 -148.687725 
L 101.235537 -149.407145 
L 103.797521 -150.12305 
L 106.359504 -150.783931 
L 108.921488 -151.440811 
L 111.483471 -152.152459 
L 114.045455 -152.800572 
L 116.607438 -153.657966 
L 119.169421 -154.13041 
L 121.731405 -154.889674 
L 124.293388 -155.707912 
L 126.855372 -156.297959 
L 129.417355 -156.855813 
L 131.979339 -157.551252 
L 134.541322 -158.059871 
L 137.103306 -158.651167 
L 139.665289 -159.28148 
L 142.227273 -159.956119 
L 144.789256 -160.625793 
L 147.35124 -161.028729 
L 149.913223 -161.587424 
L 152.475207 -162.217701 
L 155.03719 -162.697546 
L 157.599174 -163.097066 
L 160.161157 -163.499062 
L 162.72314 -163.934731 
L 165.285124 -164.438964 
L 167.847107 -164.835193 
L 170.409091 -165.183608 
L 172.971074 -165.532023 
L 175.533058 -165.910755 
L 178.095041 -166.25442 
L 180.657025 -166.572466 
L 183.219008 -167.015687 
L 185.780992 -167.266147 
L 188.342975 -167.643761 
L 190.904959 -168.092572 
L 193.466942 -168.306947 
L 196.028926 -168.476903 
L 198.590909 -168.599296 
L 201.152893 -168.941758 
L 203.714876 -169.258531 
L 206.27686 -169.405399 
L 208.838843 -169.537141 
L 211.400826 -169.89481 
L 213.96281 -170.169433 
L 216.524793 -170.301284 
L 219.086777 -170.466108 
L 221.64876 -170.647527 
L 224.210744 -170.80434 
L 226.772727 -170.963772 
L 229.334711 -171.129695 
L 231.896694 -171.467336 
L 234.458678 -171.886575 
L 237.020661 -172.155223 
L 239.582645 -172.27962 
L 242.144628 -172.476379 
L 244.706612 -172.575236 
L 247.268595 -172.746424 
L 249.830579 -172.624029 
L 252.392562 -172.566423 
L 254.954545 -172.724068 
L 257.516529 -172.884114 
L 260.078512 -173.04416 
L 262.640496 -173.199411 
L 265.202479 -173.221394 
L 267.764463 -173.180374 
L 270.326446 -173.200388 
L 272.88843 -173.605906 
L 275.450413 -173.699843 
L 278.012397 -173.769735 
L 280.57438 -173.839627 
L 283.136364 -174.112017 
L 285.698347 -174.269602 
L 288.260331 -174.060957 
L 290.822314 -174.092127 
L 293.384298 -174.213777 
L 295.946281 -174.421755 
L 298.508264 -174.629733 
L 301.070248 -174.764255 
L 303.632231 -174.762023 
L 306.194215 -174.759791 
L 308.756198 -174.757559 
L 311.318182 -174.755328 
L 311.318182 -230.149775 
L 311.318182 -230.149775 
L 308.756198 -229.374292 
L 306.194215 -228.598809 
L 303.632231 -227.823327 
L 301.070248 -227.047844 
L 298.508264 -226.272361 
L 295.946281 -225.448833 
L 293.384298 -224.55091 
L 290.822314 -223.652986 
L 288.260331 -222.755063 
L 285.698347 -221.85714 
L 283.136364 -220.954017 
L 280.57438 -220.048396 
L 278.012397 -219.142774 
L 275.450413 -218.247794 
L 272.88843 -217.345231 
L 270.326446 -216.449182 
L 267.764463 -215.555437 
L 265.202479 -214.736021 
L 262.640496 -213.916604 
L 260.078512 -213.107518 
L 257.516529 -212.319442 
L 254.954545 -211.480609 
L 252.392562 -210.643975 
L 249.830579 -209.867681 
L 247.268595 -209.127402 
L 244.706612 -208.396594 
L 242.144628 -207.742717 
L 239.582645 -206.855006 
L 237.020661 -206.061559 
L 234.458678 -205.347224 
L 231.896694 -204.610404 
L 229.334711 -203.960572 
L 226.772727 -203.23213 
L 224.210744 -202.576147 
L 221.64876 -201.934623 
L 219.086777 -201.379221 
L 216.524793 -200.823819 
L 213.96281 -200.267898 
L 211.400826 -199.364803 
L 208.838843 -198.656859 
L 206.27686 -197.993421 
L 203.714876 -197.321658 
L 201.152893 -196.782133 
L 198.590909 -196.016457 
L 196.028926 -195.34132 
L 193.466942 -194.550739 
L 190.904959 -193.835731 
L 188.342975 -193.008339 
L 185.780992 -192.173923 
L 183.219008 -191.518747 
L 180.657025 -190.965373 
L 178.095041 -190.213801 
L 175.533058 -189.572739 
L 172.971074 -188.85334 
L 170.409091 -188.44292 
L 167.847107 -187.997043 
L 165.285124 -187.467433 
L 162.72314 -186.85564 
L 160.161157 -186.232752 
L 157.599174 -185.936062 
L 155.03719 -185.520121 
L 152.475207 -185.230177 
L 149.913223 -184.890315 
L 147.35124 -184.742805 
L 144.789256 -184.361966 
L 142.227273 -183.954962 
L 139.665289 -183.706114 
L 137.103306 -183.403621 
L 134.541322 -183.059091 
L 131.979339 -182.760229 
L 129.417355 -182.535083 
L 126.855372 -182.246476 
L 124.293388 -181.888423 
L 121.731405 -181.649106 
L 119.169421 -181.511781 
L 116.607438 -181.286181 
L 114.045455 -181.216365 
L 111.483471 -181.145301 
L 108.921488 -180.948638 
L 106.359504 -180.836313 
L 103.797521 -180.725418 
L 101.235537 -180.615575 
L 98.673554 -180.633442 
L 96.11157 -180.595043 
L 93.549587 -180.350391 
L 90.987603 -180.165064 
L 88.42562 -180.054284 
L 85.863636 -180.056746 
L 83.301653 -179.831454 
L 80.739669 -179.717798 
L 78.177686 -179.607134 
L 75.615702 -179.496471 
L 73.053719 -179.460665 
L 70.491736 -179.434517 
L 67.929752 -179.397815 
L 65.367769 -179.333911 
L 62.805785 -179.270007 
L 60.243802 -179.206103 
L 57.681818 -179.141017 
z
" style="stroke: #ffffff; stroke-opacity: 0.15"/>
    </defs>
    <g clip-path="url(#paf91c07d41)">
     <use xlink:href="#m84652fa0af" x="0" y="360" style="fill-opacity: 0.15; stroke: #ffffff; stroke-opacity: 0.15"/>
    </g>
   </g>
   <g id="line2d_14">
    <path d="M 57.681818 203.785218 
L 60.243802 203.308044 
L 62.805785 202.830871 
L 65.367769 202.353698 
L 67.929752 201.876525 
L 70.491736 201.399351 
L 73.053719 200.922178 
L 75.615702 200.445005 
L 78.177686 199.967832 
L 80.739669 199.490658 
L 83.301653 199.013485 
L 85.863636 198.536312 
L 88.42562 198.059139 
L 90.987603 197.581965 
L 93.549587 197.104792 
L 96.11157 196.627619 
L 98.673554 196.150446 
L 101.235537 195.673272 
L 103.797521 195.196099 
L 106.359504 194.718926 
L 108.921488 194.241753 
L 111.483471 193.764579 
L 114.045455 193.287406 
L 116.607438 192.810233 
L 119.169421 192.33306 
L 121.731405 191.855886 
L 124.293388 191.378713 
L 126.855372 190.90154 
L 129.417355 190.424366 
L 131.979339 189.947193 
L 134.541322 189.47002 
L 137.103306 188.992847 
L 139.665289 188.515673 
L 142.227273 188.0385 
L 144.789256 187.561327 
L 147.35124 187.084154 
L 149.913223 186.60698 
L 152.475207 186.129807 
L 155.03719 185.652634 
L 157.599174 185.175461 
L 160.161157 184.698287 
L 162.72314 184.221114 
L 165.285124 183.743941 
L 167.847107 183.266768 
L 170.409091 182.789594 
L 172.971074 182.312421 
L 175.533058 181.835248 
L 178.095041 181.358075 
L 180.657025 180.880901 
L 183.219008 180.403728 
L 185.780992 179.926555 
L 188.342975 179.449382 
L 190.904959 178.972208 
L 193.466942 178.495035 
L 196.028926 178.017862 
L 198.590909 177.540689 
L 201.152893 177.063515 
L 203.714876 176.586342 
L 206.27686 176.109169 
L 208.838843 175.631995 
L 211.400826 175.154822 
L 213.96281 174.677649 
L 216.524793 174.200476 
L 219.086777 173.723302 
L 221.64876 173.246129 
L 224.210744 172.768956 
L 226.772727 172.291783 
L 229.334711 171.814609 
L 231.896694 171.337436 
L 234.458678 170.860263 
L 237.020661 170.38309 
L 239.582645 169.905916 
L 242.144628 169.428743 
L 244.706612 168.95157 
L 247.268595 168.474397 
L 249.830579 167.997223 
L 252.392562 167.52005 
L 254.954545 167.042877 
L 257.516529 166.565704 
L 260.078512 166.08853 
L 262.640496 165.611357 
L 265.202479 165.134184 
L 267.764463 164.657011 
L 270.326446 164.179837 
L 272.88843 163.702664 
L 275.450413 163.225491 
L 278.012397 162.748318 
L 280.57438 162.271144 
L 283.136364 161.793971 
L 285.698347 161.316798 
L 288.260331 160.839624 
L 290.822314 160.362451 
L 293.384298 159.885278 
L 295.946281 159.408105 
L 298.508264 158.930931 
L 301.070248 158.453758 
L 303.632231 157.976585 
L 306.194215 157.499412 
L 308.756198 157.022238 
L 311.318182 156.545065 
" clip-path="url(#paf91c07d41)" style="fill: none; stroke: #000000; stroke-linecap: round"/>
   </g>
   <g id="patch_3">
    <path d="M 45 320.4 
L 45 43.2 
" style="fill: none; stroke: #ffffff; stroke-width: 0.8; stroke-linejoin: miter; stroke-linecap: square"/>
   </g>
   <g id="patch_4">
    <path d="M 324 320.4 
L 324 43.2 
" style="fill: none; stroke: #ffffff; stroke-width: 0.8; stroke-linejoin: miter; stroke-linecap: square"/>
   </g>
   <g id="patch_5">
    <path d="M 45 320.4 
L 324 320.4 
" style="fill: none; stroke: #ffffff; stroke-width: 0.8; stroke-linejoin: miter; stroke-linecap: square"/>
   </g>
   <g id="patch_6">
    <path d="M 45 43.2 
L 324 43.2 
" style="fill: none; stroke: #ffffff; stroke-width: 0.8; stroke-linejoin: miter; stroke-linecap: square"/>
   </g>
  </g>
 </g>
 <defs>
  <clipPath id="paf91c07d41">
   <rect x="45" y="43.2" width="279" height="277.2"/>
  </clipPath>
 </defs>
</svg>
