<?xml version="1.0" encoding="utf-8" standalone="no"?>
<!DOCTYPE svg PUBLIC "-//W3C//DTD SVG 1.1//EN"
  "http://www.w3.org/Graphics/SVG/1.1/DTD/svg11.dtd">
<svg xmlns:xlink="http://www.w3.org/1999/xlink" width="360pt" height="360pt" viewBox="0 0 360 360" xmlns="http://www.w3.org/2000/svg" version="1.1">
 <metadata>
  <rdf:RDF xmlns:dc="http://purl.org/dc/elements/1.1/" xmlns:cc="http://creativecommons.org/ns#" xmlns:rdf="http://www.w3.org/1999/02/22-rdf-syntax-ns#">
   <cc:Work>
    <dc:type rdf:resource="http://purl.org/dc/dcmitype/StillImage"/>
    <dc:date>2024-06-02T15:12:44.324633</dc:date>
    <dc:format>image/svg+xml</dc:format>
    <dc:creator>
     <cc:Agent>
      <dc:title>Matplotlib v3.8.2, https://matplotlib.org/</dc:title>
     </cc:Agent>
    </dc:creator>
   </cc:Work>
  </rdf:RDF>
 </metadata>
 <defs>
  <style type="text/css">*{stroke-linejoin: round; stroke-linecap: butt}</style>
 </defs>
 <g id="figure_1">
  <g id="patch_1">
   <path d="M 0 360 
L 360 360 
L 360 0 
L 0 0 
z
" style="fill: #ffffff"/>
  </g>
  <g id="axes_1">
   <g id="patch_2">
    <path d="M 45 320.4 
L 324 320.4 
L 324 43.2 
L 45 43.2 
z
" style="fill: #eaeaf2"/>
   </g>
   <g id="matplotlib.axis_1">
    <g id="xtick_1">
     <g id="line2d_1">
      <path d="M 72.314685 320.4 
L 72.314685 43.2 
" clip-path="url(#p78c5314b39)" style="fill: none; stroke: #ffffff; stroke-width: 0.8; stroke-linecap: round"/>
     </g>
     <g id="text_1">
      <!-- 2.8 -->
      <g style="fill: #262626" transform="translate(65.364685 334.557813) scale(0.1 -0.1)">
       <defs>
        <path id="ArialMT-32" d="M 3222 541 
L 3222 0 
L 194 0 
Q 188 203 259 391 
Q 375 700 629 1000 
Q 884 1300 1366 1694 
Q 2113 2306 2375 2664 
Q 2638 3022 2638 3341 
Q 2638 3675 2398 3904 
Q 2159 4134 1775 4134 
Q 1369 4134 1125 3890 
Q 881 3647 878 3216 
L 300 3275 
Q 359 3922 746 4261 
Q 1134 4600 1788 4600 
Q 2447 4600 2831 4234 
Q 3216 3869 3216 3328 
Q 3216 3053 3103 2787 
Q 2991 2522 2730 2228 
Q 2469 1934 1863 1422 
Q 1356 997 1212 845 
Q 1069 694 975 541 
L 3222 541 
z
" transform="scale(0.015625)"/>
        <path id="ArialMT-2e" d="M 581 0 
L 581 641 
L 1222 641 
L 1222 0 
L 581 0 
z
" transform="scale(0.015625)"/>
        <path id="ArialMT-38" d="M 1131 2484 
Q 781 2613 612 2850 
Q 444 3088 444 3419 
Q 444 3919 803 4259 
Q 1163 4600 1759 4600 
Q 2359 4600 2725 4251 
Q 3091 3903 3091 3403 
Q 3091 3084 2923 2848 
Q 2756 2613 2416 2484 
Q 2838 2347 3058 2040 
Q 3278 1734 3278 1309 
Q 3278 722 2862 322 
Q 2447 -78 1769 -78 
Q 1091 -78 675 323 
Q 259 725 259 1325 
Q 259 1772 486 2073 
Q 713 2375 1131 2484 
z
M 1019 3438 
Q 1019 3113 1228 2906 
Q 1438 2700 1772 2700 
Q 2097 2700 2305 2904 
Q 2513 3109 2513 3406 
Q 2513 3716 2298 3927 
Q 2084 4138 1766 4138 
Q 1444 4138 1231 3931 
Q 1019 3725 1019 3438 
z
M 838 1322 
Q 838 1081 952 856 
Q 1066 631 1291 507 
Q 1516 384 1775 384 
Q 2178 384 2440 643 
Q 2703 903 2703 1303 
Q 2703 1709 2433 1975 
Q 2163 2241 1756 2241 
Q 1359 2241 1098 1978 
Q 838 1716 838 1322 
z
" transform="scale(0.015625)"/>
       </defs>
       <use xlink:href="#ArialMT-32"/>
       <use xlink:href="#ArialMT-2e" x="55.615234"/>
       <use xlink:href="#ArialMT-38" x="83.398438"/>
      </g>
     </g>
    </g>
    <g id="xtick_2">
     <g id="line2d_2">
      <path d="M 106.458042 320.4 
L 106.458042 43.2 
" clip-path="url(#p78c5314b39)" style="fill: none; stroke: #ffffff; stroke-width: 0.8; stroke-linecap: round"/>
     </g>
     <g id="text_2">
      <!-- 2.9 -->
      <g style="fill: #262626" transform="translate(99.508042 334.557813) scale(0.1 -0.1)">
       <defs>
        <path id="ArialMT-39" d="M 350 1059 
L 891 1109 
Q 959 728 1153 556 
Q 1347 384 1650 384 
Q 1909 384 2104 503 
Q 2300 622 2425 820 
Q 2550 1019 2634 1356 
Q 2719 1694 2719 2044 
Q 2719 2081 2716 2156 
Q 2547 1888 2255 1720 
Q 1963 1553 1622 1553 
Q 1053 1553 659 1965 
Q 266 2378 266 3053 
Q 266 3750 677 4175 
Q 1088 4600 1706 4600 
Q 2153 4600 2523 4359 
Q 2894 4119 3086 3673 
Q 3278 3228 3278 2384 
Q 3278 1506 3087 986 
Q 2897 466 2520 194 
Q 2144 -78 1638 -78 
Q 1100 -78 759 220 
Q 419 519 350 1059 
z
M 2653 3081 
Q 2653 3566 2395 3850 
Q 2138 4134 1775 4134 
Q 1400 4134 1122 3828 
Q 844 3522 844 3034 
Q 844 2597 1108 2323 
Q 1372 2050 1759 2050 
Q 2150 2050 2401 2323 
Q 2653 2597 2653 3081 
z
" transform="scale(0.015625)"/>
       </defs>
       <use xlink:href="#ArialMT-32"/>
       <use xlink:href="#ArialMT-2e" x="55.615234"/>
       <use xlink:href="#ArialMT-39" x="83.398438"/>
      </g>
     </g>
    </g>
    <g id="xtick_3">
     <g id="line2d_3">
      <path d="M 140.601399 320.4 
L 140.601399 43.2 
" clip-path="url(#p78c5314b39)" style="fill: none; stroke: #ffffff; stroke-width: 0.8; stroke-linecap: round"/>
     </g>
     <g id="text_3">
      <!-- 3.0 -->
      <g style="fill: #262626" transform="translate(133.651399 334.557813) scale(0.1 -0.1)">
       <defs>
        <path id="ArialMT-33" d="M 269 1209 
L 831 1284 
Q 928 806 1161 595 
Q 1394 384 1728 384 
Q 2125 384 2398 659 
Q 2672 934 2672 1341 
Q 2672 1728 2419 1979 
Q 2166 2231 1775 2231 
Q 1616 2231 1378 2169 
L 1441 2663 
Q 1497 2656 1531 2656 
Q 1891 2656 2178 2843 
Q 2466 3031 2466 3422 
Q 2466 3731 2256 3934 
Q 2047 4138 1716 4138 
Q 1388 4138 1169 3931 
Q 950 3725 888 3313 
L 325 3413 
Q 428 3978 793 4289 
Q 1159 4600 1703 4600 
Q 2078 4600 2393 4439 
Q 2709 4278 2876 4000 
Q 3044 3722 3044 3409 
Q 3044 3113 2884 2869 
Q 2725 2625 2413 2481 
Q 2819 2388 3044 2092 
Q 3269 1797 3269 1353 
Q 3269 753 2831 336 
Q 2394 -81 1725 -81 
Q 1122 -81 723 278 
Q 325 638 269 1209 
z
" transform="scale(0.015625)"/>
        <path id="ArialMT-30" d="M 266 2259 
Q 266 3072 433 3567 
Q 600 4063 929 4331 
Q 1259 4600 1759 4600 
Q 2128 4600 2406 4451 
Q 2684 4303 2865 4023 
Q 3047 3744 3150 3342 
Q 3253 2941 3253 2259 
Q 3253 1453 3087 958 
Q 2922 463 2592 192 
Q 2263 -78 1759 -78 
Q 1097 -78 719 397 
Q 266 969 266 2259 
z
M 844 2259 
Q 844 1131 1108 757 
Q 1372 384 1759 384 
Q 2147 384 2411 759 
Q 2675 1134 2675 2259 
Q 2675 3391 2411 3762 
Q 2147 4134 1753 4134 
Q 1366 4134 1134 3806 
Q 844 3388 844 2259 
z
" transform="scale(0.015625)"/>
       </defs>
       <use xlink:href="#ArialMT-33"/>
       <use xlink:href="#ArialMT-2e" x="55.615234"/>
       <use xlink:href="#ArialMT-30" x="83.398438"/>
      </g>
     </g>
    </g>
    <g id="xtick_4">
     <g id="line2d_4">
      <path d="M 174.744755 320.4 
L 174.744755 43.2 
" clip-path="url(#p78c5314b39)" style="fill: none; stroke: #ffffff; stroke-width: 0.8; stroke-linecap: round"/>
     </g>
     <g id="text_4">
      <!-- 3.1 -->
      <g style="fill: #262626" transform="translate(167.794755 334.557813) scale(0.1 -0.1)">
       <defs>
        <path id="ArialMT-31" d="M 2384 0 
L 1822 0 
L 1822 3584 
Q 1619 3391 1289 3197 
Q 959 3003 697 2906 
L 697 3450 
Q 1169 3672 1522 3987 
Q 1875 4303 2022 4600 
L 2384 4600 
L 2384 0 
z
" transform="scale(0.015625)"/>
       </defs>
       <use xlink:href="#ArialMT-33"/>
       <use xlink:href="#ArialMT-2e" x="55.615234"/>
       <use xlink:href="#ArialMT-31" x="83.398438"/>
      </g>
     </g>
    </g>
    <g id="xtick_5">
     <g id="line2d_5">
      <path d="M 208.888112 320.4 
L 208.888112 43.2 
" clip-path="url(#p78c5314b39)" style="fill: none; stroke: #ffffff; stroke-width: 0.8; stroke-linecap: round"/>
     </g>
     <g id="text_5">
      <!-- 3.2 -->
      <g style="fill: #262626" transform="translate(201.938112 334.557813) scale(0.1 -0.1)">
       <use xlink:href="#ArialMT-33"/>
       <use xlink:href="#ArialMT-2e" x="55.615234"/>
       <use xlink:href="#ArialMT-32" x="83.398438"/>
      </g>
     </g>
    </g>
    <g id="xtick_6">
     <g id="line2d_6">
      <path d="M 243.031469 320.4 
L 243.031469 43.2 
" clip-path="url(#p78c5314b39)" style="fill: none; stroke: #ffffff; stroke-width: 0.8; stroke-linecap: round"/>
     </g>
     <g id="text_6">
      <!-- 3.3 -->
      <g style="fill: #262626" transform="translate(236.081469 334.557813) scale(0.1 -0.1)">
       <use xlink:href="#ArialMT-33"/>
       <use xlink:href="#ArialMT-2e" x="55.615234"/>
       <use xlink:href="#ArialMT-33" x="83.398438"/>
      </g>
     </g>
    </g>
    <g id="xtick_7">
     <g id="line2d_7">
      <path d="M 277.174825 320.4 
L 277.174825 43.2 
" clip-path="url(#p78c5314b39)" style="fill: none; stroke: #ffffff; stroke-width: 0.8; stroke-linecap: round"/>
     </g>
     <g id="text_7">
      <!-- 3.4 -->
      <g style="fill: #262626" transform="translate(270.224825 334.557813) scale(0.1 -0.1)">
       <defs>
        <path id="ArialMT-34" d="M 2069 0 
L 2069 1097 
L 81 1097 
L 81 1613 
L 2172 4581 
L 2631 4581 
L 2631 1613 
L 3250 1613 
L 3250 1097 
L 2631 1097 
L 2631 0 
L 2069 0 
z
M 2069 1613 
L 2069 3678 
L 634 1613 
L 2069 1613 
z
" transform="scale(0.015625)"/>
       </defs>
       <use xlink:href="#ArialMT-33"/>
       <use xlink:href="#ArialMT-2e" x="55.615234"/>
       <use xlink:href="#ArialMT-34" x="83.398438"/>
      </g>
     </g>
    </g>
    <g id="xtick_8">
     <g id="line2d_8">
      <path d="M 311.318182 320.4 
L 311.318182 43.2 
" clip-path="url(#p78c5314b39)" style="fill: none; stroke: #ffffff; stroke-width: 0.8; stroke-linecap: round"/>
     </g>
     <g id="text_8">
      <!-- 3.5 -->
      <g style="fill: #262626" transform="translate(304.368182 334.557813) scale(0.1 -0.1)">
       <defs>
        <path id="ArialMT-35" d="M 266 1200 
L 856 1250 
Q 922 819 1161 601 
Q 1400 384 1738 384 
Q 2144 384 2425 690 
Q 2706 997 2706 1503 
Q 2706 1984 2436 2262 
Q 2166 2541 1728 2541 
Q 1456 2541 1237 2417 
Q 1019 2294 894 2097 
L 366 2166 
L 809 4519 
L 3088 4519 
L 3088 3981 
L 1259 3981 
L 1013 2750 
Q 1425 3038 1878 3038 
Q 2478 3038 2890 2622 
Q 3303 2206 3303 1553 
Q 3303 931 2941 478 
Q 2500 -78 1738 -78 
Q 1113 -78 717 272 
Q 322 622 266 1200 
z
" transform="scale(0.015625)"/>
       </defs>
       <use xlink:href="#ArialMT-33"/>
       <use xlink:href="#ArialMT-2e" x="55.615234"/>
       <use xlink:href="#ArialMT-35" x="83.398438"/>
      </g>
     </g>
    </g>
    <g id="text_9">
     <!-- Q2 Mean -->
     <g style="fill: #262626" transform="translate(163.935156 347.703125) scale(0.1 -0.1)">
      <defs>
       <path id="ArialMT-51" d="M 3966 491 
Q 4388 200 4744 66 
L 4566 -356 
Q 4072 -178 3581 206 
Q 3072 -78 2456 -78 
Q 1834 -78 1328 222 
Q 822 522 548 1065 
Q 275 1609 275 2291 
Q 275 2969 550 3525 
Q 825 4081 1333 4372 
Q 1841 4663 2469 4663 
Q 3103 4663 3612 4361 
Q 4122 4059 4389 3517 
Q 4656 2975 4656 2294 
Q 4656 1728 4484 1276 
Q 4313 825 3966 491 
z
M 2631 1266 
Q 3156 1119 3497 828 
Q 4031 1316 4031 2294 
Q 4031 2850 3842 3265 
Q 3653 3681 3289 3911 
Q 2925 4141 2472 4141 
Q 1794 4141 1347 3677 
Q 900 3213 900 2291 
Q 900 1397 1342 919 
Q 1784 441 2472 441 
Q 2797 441 3084 563 
Q 2800 747 2484 825 
L 2631 1266 
z
" transform="scale(0.015625)"/>
       <path id="ArialMT-20" transform="scale(0.015625)"/>
       <path id="ArialMT-4d" d="M 475 0 
L 475 4581 
L 1388 4581 
L 2472 1338 
Q 2622 884 2691 659 
Q 2769 909 2934 1394 
L 4031 4581 
L 4847 4581 
L 4847 0 
L 4263 0 
L 4263 3834 
L 2931 0 
L 2384 0 
L 1059 3900 
L 1059 0 
L 475 0 
z
" transform="scale(0.015625)"/>
       <path id="ArialMT-65" d="M 2694 1069 
L 3275 997 
Q 3138 488 2766 206 
Q 2394 -75 1816 -75 
Q 1088 -75 661 373 
Q 234 822 234 1631 
Q 234 2469 665 2931 
Q 1097 3394 1784 3394 
Q 2450 3394 2872 2941 
Q 3294 2488 3294 1666 
Q 3294 1616 3291 1516 
L 816 1516 
Q 847 969 1125 678 
Q 1403 388 1819 388 
Q 2128 388 2347 550 
Q 2566 713 2694 1069 
z
M 847 1978 
L 2700 1978 
Q 2663 2397 2488 2606 
Q 2219 2931 1791 2931 
Q 1403 2931 1139 2672 
Q 875 2413 847 1978 
z
" transform="scale(0.015625)"/>
       <path id="ArialMT-61" d="M 2588 409 
Q 2275 144 1986 34 
Q 1697 -75 1366 -75 
Q 819 -75 525 192 
Q 231 459 231 875 
Q 231 1119 342 1320 
Q 453 1522 633 1644 
Q 813 1766 1038 1828 
Q 1203 1872 1538 1913 
Q 2219 1994 2541 2106 
Q 2544 2222 2544 2253 
Q 2544 2597 2384 2738 
Q 2169 2928 1744 2928 
Q 1347 2928 1158 2789 
Q 969 2650 878 2297 
L 328 2372 
Q 403 2725 575 2942 
Q 747 3159 1072 3276 
Q 1397 3394 1825 3394 
Q 2250 3394 2515 3294 
Q 2781 3194 2906 3042 
Q 3031 2891 3081 2659 
Q 3109 2516 3109 2141 
L 3109 1391 
Q 3109 606 3145 398 
Q 3181 191 3288 0 
L 2700 0 
Q 2613 175 2588 409 
z
M 2541 1666 
Q 2234 1541 1622 1453 
Q 1275 1403 1131 1340 
Q 988 1278 909 1158 
Q 831 1038 831 891 
Q 831 666 1001 516 
Q 1172 366 1500 366 
Q 1825 366 2078 508 
Q 2331 650 2450 897 
Q 2541 1088 2541 1459 
L 2541 1666 
z
" transform="scale(0.015625)"/>
       <path id="ArialMT-6e" d="M 422 0 
L 422 3319 
L 928 3319 
L 928 2847 
Q 1294 3394 1984 3394 
Q 2284 3394 2536 3286 
Q 2788 3178 2913 3003 
Q 3038 2828 3088 2588 
Q 3119 2431 3119 2041 
L 3119 0 
L 2556 0 
L 2556 2019 
Q 2556 2363 2490 2533 
Q 2425 2703 2258 2804 
Q 2091 2906 1866 2906 
Q 1506 2906 1245 2678 
Q 984 2450 984 1813 
L 984 0 
L 422 0 
z
" transform="scale(0.015625)"/>
      </defs>
      <use xlink:href="#ArialMT-51"/>
      <use xlink:href="#ArialMT-32" x="77.783203"/>
      <use xlink:href="#ArialMT-20" x="133.398438"/>
      <use xlink:href="#ArialMT-4d" x="161.181641"/>
      <use xlink:href="#ArialMT-65" x="244.482422"/>
      <use xlink:href="#ArialMT-61" x="300.097656"/>
      <use xlink:href="#ArialMT-6e" x="355.712891"/>
     </g>
    </g>
   </g>
   <g id="matplotlib.axis_2">
    <g id="ytick_1">
     <g id="line2d_9">
      <path d="M 45 301.665068 
L 324 301.665068 
" clip-path="url(#p78c5314b39)" style="fill: none; stroke: #ffffff; stroke-width: 0.8; stroke-linecap: round"/>
     </g>
     <g id="text_10">
      <!-- 0.00 -->
      <g style="fill: #262626" transform="translate(18.539062 305.243974) scale(0.1 -0.1)">
       <use xlink:href="#ArialMT-30"/>
       <use xlink:href="#ArialMT-2e" x="55.615234"/>
       <use xlink:href="#ArialMT-30" x="83.398438"/>
       <use xlink:href="#ArialMT-30" x="139.013672"/>
      </g>
     </g>
    </g>
    <g id="ytick_2">
     <g id="line2d_10">
      <path d="M 45 263.304971 
L 324 263.304971 
" clip-path="url(#p78c5314b39)" style="fill: none; stroke: #ffffff; stroke-width: 0.8; stroke-linecap: round"/>
     </g>
     <g id="text_11">
      <!-- 0.05 -->
      <g style="fill: #262626" transform="translate(18.539062 266.883877) scale(0.1 -0.1)">
       <use xlink:href="#ArialMT-30"/>
       <use xlink:href="#ArialMT-2e" x="55.615234"/>
       <use xlink:href="#ArialMT-30" x="83.398438"/>
       <use xlink:href="#ArialMT-35" x="139.013672"/>
      </g>
     </g>
    </g>
    <g id="ytick_3">
     <g id="line2d_11">
      <path d="M 45 224.944874 
L 324 224.944874 
" clip-path="url(#p78c5314b39)" style="fill: none; stroke: #ffffff; stroke-width: 0.8; stroke-linecap: round"/>
     </g>
     <g id="text_12">
      <!-- 0.10 -->
      <g style="fill: #262626" transform="translate(18.539062 228.52378) scale(0.1 -0.1)">
       <use xlink:href="#ArialMT-30"/>
       <use xlink:href="#ArialMT-2e" x="55.615234"/>
       <use xlink:href="#ArialMT-31" x="83.398438"/>
       <use xlink:href="#ArialMT-30" x="139.013672"/>
      </g>
     </g>
    </g>
    <g id="ytick_4">
     <g id="line2d_12">
      <path d="M 45 186.584777 
L 324 186.584777 
" clip-path="url(#p78c5314b39)" style="fill: none; stroke: #ffffff; stroke-width: 0.8; stroke-linecap: round"/>
     </g>
     <g id="text_13">
      <!-- 0.15 -->
      <g style="fill: #262626" transform="translate(18.539062 190.163683) scale(0.1 -0.1)">
       <use xlink:href="#ArialMT-30"/>
       <use xlink:href="#ArialMT-2e" x="55.615234"/>
       <use xlink:href="#ArialMT-31" x="83.398438"/>
       <use xlink:href="#ArialMT-35" x="139.013672"/>
      </g>
     </g>
    </g>
    <g id="ytick_5">
     <g id="line2d_13">
      <path d="M 45 148.22468 
L 324 148.22468 
" clip-path="url(#p78c5314b39)" style="fill: none; stroke: #ffffff; stroke-width: 0.8; stroke-linecap: round"/>
     </g>
     <g id="text_14">
      <!-- 0.20 -->
      <g style="fill: #262626" transform="translate(18.539062 151.803586) scale(0.1 -0.1)">
       <use xlink:href="#ArialMT-30"/>
       <use xlink:href="#ArialMT-2e" x="55.615234"/>
       <use xlink:href="#ArialMT-32" x="83.398438"/>
       <use xlink:href="#ArialMT-30" x="139.013672"/>
      </g>
     </g>
    </g>
    <g id="ytick_6">
     <g id="line2d_14">
      <path d="M 45 109.864583 
L 324 109.864583 
" clip-path="url(#p78c5314b39)" style="fill: none; stroke: #ffffff; stroke-width: 0.8; stroke-linecap: round"/>
     </g>
     <g id="text_15">
      <!-- 0.25 -->
      <g style="fill: #262626" transform="translate(18.539062 113.443489) scale(0.1 -0.1)">
       <use xlink:href="#ArialMT-30"/>
       <use xlink:href="#ArialMT-2e" x="55.615234"/>
       <use xlink:href="#ArialMT-32" x="83.398438"/>
       <use xlink:href="#ArialMT-35" x="139.013672"/>
      </g>
     </g>
    </g>
    <g id="ytick_7">
     <g id="line2d_15">
      <path d="M 45 71.504486 
L 324 71.504486 
" clip-path="url(#p78c5314b39)" style="fill: none; stroke: #ffffff; stroke-width: 0.8; stroke-linecap: round"/>
     </g>
     <g id="text_16">
      <!-- 0.30 -->
      <g style="fill: #262626" transform="translate(18.539062 75.083392) scale(0.1 -0.1)">
       <use xlink:href="#ArialMT-30"/>
       <use xlink:href="#ArialMT-2e" x="55.615234"/>
       <use xlink:href="#ArialMT-33" x="83.398438"/>
       <use xlink:href="#ArialMT-30" x="139.013672"/>
      </g>
     </g>
    </g>
    <g id="text_17">
     <!-- rate shifted - rate swapped (NN) -->
     <g style="fill: #262626" transform="translate(12.434375 252.935156) rotate(-90) scale(0.1 -0.1)">
      <defs>
       <path id="ArialMT-72" d="M 416 0 
L 416 3319 
L 922 3319 
L 922 2816 
Q 1116 3169 1280 3281 
Q 1444 3394 1641 3394 
Q 1925 3394 2219 3213 
L 2025 2691 
Q 1819 2813 1613 2813 
Q 1428 2813 1281 2702 
Q 1134 2591 1072 2394 
Q 978 2094 978 1738 
L 978 0 
L 416 0 
z
" transform="scale(0.015625)"/>
       <path id="ArialMT-74" d="M 1650 503 
L 1731 6 
Q 1494 -44 1306 -44 
Q 1000 -44 831 53 
Q 663 150 594 308 
Q 525 466 525 972 
L 525 2881 
L 113 2881 
L 113 3319 
L 525 3319 
L 525 4141 
L 1084 4478 
L 1084 3319 
L 1650 3319 
L 1650 2881 
L 1084 2881 
L 1084 941 
Q 1084 700 1114 631 
Q 1144 563 1211 522 
Q 1278 481 1403 481 
Q 1497 481 1650 503 
z
" transform="scale(0.015625)"/>
       <path id="ArialMT-73" d="M 197 991 
L 753 1078 
Q 800 744 1014 566 
Q 1228 388 1613 388 
Q 2000 388 2187 545 
Q 2375 703 2375 916 
Q 2375 1106 2209 1216 
Q 2094 1291 1634 1406 
Q 1016 1563 777 1677 
Q 538 1791 414 1992 
Q 291 2194 291 2438 
Q 291 2659 392 2848 
Q 494 3038 669 3163 
Q 800 3259 1026 3326 
Q 1253 3394 1513 3394 
Q 1903 3394 2198 3281 
Q 2494 3169 2634 2976 
Q 2775 2784 2828 2463 
L 2278 2388 
Q 2241 2644 2061 2787 
Q 1881 2931 1553 2931 
Q 1166 2931 1000 2803 
Q 834 2675 834 2503 
Q 834 2394 903 2306 
Q 972 2216 1119 2156 
Q 1203 2125 1616 2013 
Q 2213 1853 2448 1751 
Q 2684 1650 2818 1456 
Q 2953 1263 2953 975 
Q 2953 694 2789 445 
Q 2625 197 2315 61 
Q 2006 -75 1616 -75 
Q 969 -75 630 194 
Q 291 463 197 991 
z
" transform="scale(0.015625)"/>
       <path id="ArialMT-68" d="M 422 0 
L 422 4581 
L 984 4581 
L 984 2938 
Q 1378 3394 1978 3394 
Q 2347 3394 2619 3248 
Q 2891 3103 3008 2847 
Q 3125 2591 3125 2103 
L 3125 0 
L 2563 0 
L 2563 2103 
Q 2563 2525 2380 2717 
Q 2197 2909 1863 2909 
Q 1613 2909 1392 2779 
Q 1172 2650 1078 2428 
Q 984 2206 984 1816 
L 984 0 
L 422 0 
z
" transform="scale(0.015625)"/>
       <path id="ArialMT-69" d="M 425 3934 
L 425 4581 
L 988 4581 
L 988 3934 
L 425 3934 
z
M 425 0 
L 425 3319 
L 988 3319 
L 988 0 
L 425 0 
z
" transform="scale(0.015625)"/>
       <path id="ArialMT-66" d="M 556 0 
L 556 2881 
L 59 2881 
L 59 3319 
L 556 3319 
L 556 3672 
Q 556 4006 616 4169 
Q 697 4388 901 4523 
Q 1106 4659 1475 4659 
Q 1713 4659 2000 4603 
L 1916 4113 
Q 1741 4144 1584 4144 
Q 1328 4144 1222 4034 
Q 1116 3925 1116 3625 
L 1116 3319 
L 1763 3319 
L 1763 2881 
L 1116 2881 
L 1116 0 
L 556 0 
z
" transform="scale(0.015625)"/>
       <path id="ArialMT-64" d="M 2575 0 
L 2575 419 
Q 2259 -75 1647 -75 
Q 1250 -75 917 144 
Q 584 363 401 755 
Q 219 1147 219 1656 
Q 219 2153 384 2558 
Q 550 2963 881 3178 
Q 1213 3394 1622 3394 
Q 1922 3394 2156 3267 
Q 2391 3141 2538 2938 
L 2538 4581 
L 3097 4581 
L 3097 0 
L 2575 0 
z
M 797 1656 
Q 797 1019 1065 703 
Q 1334 388 1700 388 
Q 2069 388 2326 689 
Q 2584 991 2584 1609 
Q 2584 2291 2321 2609 
Q 2059 2928 1675 2928 
Q 1300 2928 1048 2622 
Q 797 2316 797 1656 
z
" transform="scale(0.015625)"/>
       <path id="ArialMT-2d" d="M 203 1375 
L 203 1941 
L 1931 1941 
L 1931 1375 
L 203 1375 
z
" transform="scale(0.015625)"/>
       <path id="ArialMT-77" d="M 1034 0 
L 19 3319 
L 600 3319 
L 1128 1403 
L 1325 691 
Q 1338 744 1497 1375 
L 2025 3319 
L 2603 3319 
L 3100 1394 
L 3266 759 
L 3456 1400 
L 4025 3319 
L 4572 3319 
L 3534 0 
L 2950 0 
L 2422 1988 
L 2294 2553 
L 1622 0 
L 1034 0 
z
" transform="scale(0.015625)"/>
       <path id="ArialMT-70" d="M 422 -1272 
L 422 3319 
L 934 3319 
L 934 2888 
Q 1116 3141 1344 3267 
Q 1572 3394 1897 3394 
Q 2322 3394 2647 3175 
Q 2972 2956 3137 2557 
Q 3303 2159 3303 1684 
Q 3303 1175 3120 767 
Q 2938 359 2589 142 
Q 2241 -75 1856 -75 
Q 1575 -75 1351 44 
Q 1128 163 984 344 
L 984 -1272 
L 422 -1272 
z
M 931 1641 
Q 931 1000 1190 694 
Q 1450 388 1819 388 
Q 2194 388 2461 705 
Q 2728 1022 2728 1688 
Q 2728 2322 2467 2637 
Q 2206 2953 1844 2953 
Q 1484 2953 1207 2617 
Q 931 2281 931 1641 
z
" transform="scale(0.015625)"/>
       <path id="ArialMT-28" d="M 1497 -1347 
Q 1031 -759 709 28 
Q 388 816 388 1659 
Q 388 2403 628 3084 
Q 909 3875 1497 4659 
L 1900 4659 
Q 1522 4009 1400 3731 
Q 1209 3300 1100 2831 
Q 966 2247 966 1656 
Q 966 153 1900 -1347 
L 1497 -1347 
z
" transform="scale(0.015625)"/>
       <path id="ArialMT-4e" d="M 488 0 
L 488 4581 
L 1109 4581 
L 3516 984 
L 3516 4581 
L 4097 4581 
L 4097 0 
L 3475 0 
L 1069 3600 
L 1069 0 
L 488 0 
z
" transform="scale(0.015625)"/>
       <path id="ArialMT-29" d="M 791 -1347 
L 388 -1347 
Q 1322 153 1322 1656 
Q 1322 2244 1188 2822 
Q 1081 3291 891 3722 
Q 769 4003 388 4659 
L 791 4659 
Q 1378 3875 1659 3084 
Q 1900 2403 1900 1659 
Q 1900 816 1576 28 
Q 1253 -759 791 -1347 
z
" transform="scale(0.015625)"/>
      </defs>
      <use xlink:href="#ArialMT-72"/>
      <use xlink:href="#ArialMT-61" x="33.300781"/>
      <use xlink:href="#ArialMT-74" x="88.916016"/>
      <use xlink:href="#ArialMT-65" x="116.699219"/>
      <use xlink:href="#ArialMT-20" x="172.314453"/>
      <use xlink:href="#ArialMT-73" x="200.097656"/>
      <use xlink:href="#ArialMT-68" x="250.097656"/>
      <use xlink:href="#ArialMT-69" x="305.712891"/>
      <use xlink:href="#ArialMT-66" x="327.929688"/>
      <use xlink:href="#ArialMT-74" x="355.712891"/>
      <use xlink:href="#ArialMT-65" x="383.496094"/>
      <use xlink:href="#ArialMT-64" x="439.111328"/>
      <use xlink:href="#ArialMT-20" x="494.726562"/>
      <use xlink:href="#ArialMT-2d" x="522.509766"/>
      <use xlink:href="#ArialMT-20" x="555.810547"/>
      <use xlink:href="#ArialMT-72" x="583.59375"/>
      <use xlink:href="#ArialMT-61" x="616.894531"/>
      <use xlink:href="#ArialMT-74" x="672.509766"/>
      <use xlink:href="#ArialMT-65" x="700.292969"/>
      <use xlink:href="#ArialMT-20" x="755.908203"/>
      <use xlink:href="#ArialMT-73" x="783.691406"/>
      <use xlink:href="#ArialMT-77" x="833.691406"/>
      <use xlink:href="#ArialMT-61" x="905.908203"/>
      <use xlink:href="#ArialMT-70" x="961.523438"/>
      <use xlink:href="#ArialMT-70" x="1017.138672"/>
      <use xlink:href="#ArialMT-65" x="1072.753906"/>
      <use xlink:href="#ArialMT-64" x="1128.369141"/>
      <use xlink:href="#ArialMT-20" x="1183.984375"/>
      <use xlink:href="#ArialMT-28" x="1211.767578"/>
      <use xlink:href="#ArialMT-4e" x="1245.068359"/>
      <use xlink:href="#ArialMT-4e" x="1317.285156"/>
      <use xlink:href="#ArialMT-29" x="1389.501953"/>
     </g>
    </g>
   </g>
   <g id="PathCollection_1">
    <defs>
     <path id="mf64bba50e5" d="M 0 1.936492 
C 0.513564 1.936492 1.006162 1.732451 1.369306 1.369306 
C 1.732451 1.006162 1.936492 0.513564 1.936492 0 
C 1.936492 -0.513564 1.732451 -1.006162 1.369306 -1.369306 
C 1.006162 -1.732451 0.513564 -1.936492 0 -1.936492 
C -0.513564 -1.936492 -1.006162 -1.732451 -1.369306 -1.369306 
C -1.732451 -1.006162 -1.936492 -0.513564 -1.936492 0 
C -1.936492 0.513564 -1.732451 1.006162 -1.369306 1.369306 
C -1.006162 1.732451 -0.513564 1.936492 0 1.936492 
z
" style="stroke: #3b54a5; stroke-opacity: 0.8"/>
    </defs>
    <g clip-path="url(#p78c5314b39)">
     <use xlink:href="#mf64bba50e5" x="243.031469" y="155.585422" style="fill: #3b54a5; fill-opacity: 0.8; stroke: #3b54a5; stroke-opacity: 0.8"/>
     <use xlink:href="#mf64bba50e5" x="123.52972" y="227.829563" style="fill: #3b54a5; fill-opacity: 0.8; stroke: #3b54a5; stroke-opacity: 0.8"/>
     <use xlink:href="#mf64bba50e5" x="72.314685" y="276.603976" style="fill: #3b54a5; fill-opacity: 0.8; stroke: #3b54a5; stroke-opacity: 0.8"/>
     <use xlink:href="#mf64bba50e5" x="174.744755" y="259.333673" style="fill: #3b54a5; fill-opacity: 0.8; stroke: #3b54a5; stroke-opacity: 0.8"/>
     <use xlink:href="#mf64bba50e5" x="157.673077" y="191.865515" style="fill: #3b54a5; fill-opacity: 0.8; stroke: #3b54a5; stroke-opacity: 0.8"/>
     <use xlink:href="#mf64bba50e5" x="123.52972" y="236.853055" style="fill: #3b54a5; fill-opacity: 0.8; stroke: #3b54a5; stroke-opacity: 0.8"/>
     <use xlink:href="#mf64bba50e5" x="189.377622" y="197.094671" style="fill: #3b54a5; fill-opacity: 0.8; stroke: #3b54a5; stroke-opacity: 0.8"/>
     <use xlink:href="#mf64bba50e5" x="72.314685" y="307.8" style="fill: #3b54a5; fill-opacity: 0.8; stroke: #3b54a5; stroke-opacity: 0.8"/>
     <use xlink:href="#mf64bba50e5" x="57.681818" y="123.027361" style="fill: #3b54a5; fill-opacity: 0.8; stroke: #3b54a5; stroke-opacity: 0.8"/>
     <use xlink:href="#mf64bba50e5" x="157.673077" y="233.149028" style="fill: #3b54a5; fill-opacity: 0.8; stroke: #3b54a5; stroke-opacity: 0.8"/>
     <use xlink:href="#mf64bba50e5" x="179.012675" y="194.082801" style="fill: #3b54a5; fill-opacity: 0.8; stroke: #3b54a5; stroke-opacity: 0.8"/>
     <use xlink:href="#mf64bba50e5" x="140.601399" y="237.517395" style="fill: #3b54a5; fill-opacity: 0.8; stroke: #3b54a5; stroke-opacity: 0.8"/>
     <use xlink:href="#mf64bba50e5" x="82.06993" y="225.354299" style="fill: #3b54a5; fill-opacity: 0.8; stroke: #3b54a5; stroke-opacity: 0.8"/>
     <use xlink:href="#mf64bba50e5" x="140.601399" y="199.040116" style="fill: #3b54a5; fill-opacity: 0.8; stroke: #3b54a5; stroke-opacity: 0.8"/>
     <use xlink:href="#mf64bba50e5" x="243.031469" y="200.656199" style="fill: #3b54a5; fill-opacity: 0.8; stroke: #3b54a5; stroke-opacity: 0.8"/>
     <use xlink:href="#mf64bba50e5" x="140.601399" y="138.464157" style="fill: #3b54a5; fill-opacity: 0.8; stroke: #3b54a5; stroke-opacity: 0.8"/>
     <use xlink:href="#mf64bba50e5" x="243.031469" y="102.159721" style="fill: #3b54a5; fill-opacity: 0.8; stroke: #3b54a5; stroke-opacity: 0.8"/>
     <use xlink:href="#mf64bba50e5" x="208.888112" y="208.758895" style="fill: #3b54a5; fill-opacity: 0.8; stroke: #3b54a5; stroke-opacity: 0.8"/>
     <use xlink:href="#mf64bba50e5" x="140.601399" y="213.121283" style="fill: #3b54a5; fill-opacity: 0.8; stroke: #3b54a5; stroke-opacity: 0.8"/>
     <use xlink:href="#mf64bba50e5" x="243.031469" y="57.699105" style="fill: #3b54a5; fill-opacity: 0.8; stroke: #3b54a5; stroke-opacity: 0.8"/>
     <use xlink:href="#mf64bba50e5" x="157.673077" y="153.805871" style="fill: #3b54a5; fill-opacity: 0.8; stroke: #3b54a5; stroke-opacity: 0.8"/>
     <use xlink:href="#mf64bba50e5" x="183.280594" y="161.333644" style="fill: #3b54a5; fill-opacity: 0.8; stroke: #3b54a5; stroke-opacity: 0.8"/>
     <use xlink:href="#mf64bba50e5" x="208.888112" y="194.845987" style="fill: #3b54a5; fill-opacity: 0.8; stroke: #3b54a5; stroke-opacity: 0.8"/>
     <use xlink:href="#mf64bba50e5" x="140.601399" y="188.971514" style="fill: #3b54a5; fill-opacity: 0.8; stroke: #3b54a5; stroke-opacity: 0.8"/>
     <use xlink:href="#mf64bba50e5" x="208.888112" y="199.820479" style="fill: #3b54a5; fill-opacity: 0.8; stroke: #3b54a5; stroke-opacity: 0.8"/>
     <use xlink:href="#mf64bba50e5" x="157.673077" y="226.190804" style="fill: #3b54a5; fill-opacity: 0.8; stroke: #3b54a5; stroke-opacity: 0.8"/>
     <use xlink:href="#mf64bba50e5" x="157.673077" y="126.010381" style="fill: #3b54a5; fill-opacity: 0.8; stroke: #3b54a5; stroke-opacity: 0.8"/>
     <use xlink:href="#mf64bba50e5" x="174.744755" y="200.429394" style="fill: #3b54a5; fill-opacity: 0.8; stroke: #3b54a5; stroke-opacity: 0.8"/>
     <use xlink:href="#mf64bba50e5" x="140.601399" y="204.201771" style="fill: #3b54a5; fill-opacity: 0.8; stroke: #3b54a5; stroke-opacity: 0.8"/>
     <use xlink:href="#mf64bba50e5" x="106.458042" y="195.025789" style="fill: #3b54a5; fill-opacity: 0.8; stroke: #3b54a5; stroke-opacity: 0.8"/>
     <use xlink:href="#mf64bba50e5" x="72.314685" y="205.380074" style="fill: #3b54a5; fill-opacity: 0.8; stroke: #3b54a5; stroke-opacity: 0.8"/>
     <use xlink:href="#mf64bba50e5" x="174.744755" y="133.088164" style="fill: #3b54a5; fill-opacity: 0.8; stroke: #3b54a5; stroke-opacity: 0.8"/>
     <use xlink:href="#mf64bba50e5" x="178.538462" y="216.483471" style="fill: #3b54a5; fill-opacity: 0.8; stroke: #3b54a5; stroke-opacity: 0.8"/>
     <use xlink:href="#mf64bba50e5" x="140.601399" y="193.425506" style="fill: #3b54a5; fill-opacity: 0.8; stroke: #3b54a5; stroke-opacity: 0.8"/>
     <use xlink:href="#mf64bba50e5" x="179.012675" y="196.411923" style="fill: #3b54a5; fill-opacity: 0.8; stroke: #3b54a5; stroke-opacity: 0.8"/>
     <use xlink:href="#mf64bba50e5" x="72.314685" y="188.193212" style="fill: #3b54a5; fill-opacity: 0.8; stroke: #3b54a5; stroke-opacity: 0.8"/>
     <use xlink:href="#mf64bba50e5" x="157.673077" y="212.165597" style="fill: #3b54a5; fill-opacity: 0.8; stroke: #3b54a5; stroke-opacity: 0.8"/>
     <use xlink:href="#mf64bba50e5" x="311.318182" y="104.651334" style="fill: #3b54a5; fill-opacity: 0.8; stroke: #3b54a5; stroke-opacity: 0.8"/>
     <use xlink:href="#mf64bba50e5" x="174.744755" y="154.194601" style="fill: #3b54a5; fill-opacity: 0.8; stroke: #3b54a5; stroke-opacity: 0.8"/>
     <use xlink:href="#mf64bba50e5" x="174.744755" y="122.428237" style="fill: #3b54a5; fill-opacity: 0.8; stroke: #3b54a5; stroke-opacity: 0.8"/>
     <use xlink:href="#mf64bba50e5" x="208.888112" y="193.308021" style="fill: #3b54a5; fill-opacity: 0.8; stroke: #3b54a5; stroke-opacity: 0.8"/>
     <use xlink:href="#mf64bba50e5" x="140.601399" y="207.182835" style="fill: #3b54a5; fill-opacity: 0.8; stroke: #3b54a5; stroke-opacity: 0.8"/>
     <use xlink:href="#mf64bba50e5" x="140.601399" y="117.15621" style="fill: #3b54a5; fill-opacity: 0.8; stroke: #3b54a5; stroke-opacity: 0.8"/>
     <use xlink:href="#mf64bba50e5" x="72.314685" y="234.842864" style="fill: #3b54a5; fill-opacity: 0.8; stroke: #3b54a5; stroke-opacity: 0.8"/>
     <use xlink:href="#mf64bba50e5" x="311.318182" y="81.180063" style="fill: #3b54a5; fill-opacity: 0.8; stroke: #3b54a5; stroke-opacity: 0.8"/>
     <use xlink:href="#mf64bba50e5" x="140.601399" y="220.382183" style="fill: #3b54a5; fill-opacity: 0.8; stroke: #3b54a5; stroke-opacity: 0.8"/>
     <use xlink:href="#mf64bba50e5" x="208.888112" y="189.912986" style="fill: #3b54a5; fill-opacity: 0.8; stroke: #3b54a5; stroke-opacity: 0.8"/>
     <use xlink:href="#mf64bba50e5" x="140.601399" y="195.422737" style="fill: #3b54a5; fill-opacity: 0.8; stroke: #3b54a5; stroke-opacity: 0.8"/>
     <use xlink:href="#mf64bba50e5" x="243.031469" y="160.633792" style="fill: #3b54a5; fill-opacity: 0.8; stroke: #3b54a5; stroke-opacity: 0.8"/>
     <use xlink:href="#mf64bba50e5" x="140.601399" y="179.010941" style="fill: #3b54a5; fill-opacity: 0.8; stroke: #3b54a5; stroke-opacity: 0.8"/>
     <use xlink:href="#mf64bba50e5" x="311.318182" y="55.8" style="fill: #3b54a5; fill-opacity: 0.8; stroke: #3b54a5; stroke-opacity: 0.8"/>
     <use xlink:href="#mf64bba50e5" x="174.744755" y="227.663402" style="fill: #3b54a5; fill-opacity: 0.8; stroke: #3b54a5; stroke-opacity: 0.8"/>
     <use xlink:href="#mf64bba50e5" x="106.458042" y="234.892713" style="fill: #3b54a5; fill-opacity: 0.8; stroke: #3b54a5; stroke-opacity: 0.8"/>
     <use xlink:href="#mf64bba50e5" x="157.673077" y="176.252674" style="fill: #3b54a5; fill-opacity: 0.8; stroke: #3b54a5; stroke-opacity: 0.8"/>
     <use xlink:href="#mf64bba50e5" x="191.816434" y="147.3753" style="fill: #3b54a5; fill-opacity: 0.8; stroke: #3b54a5; stroke-opacity: 0.8"/>
     <use xlink:href="#mf64bba50e5" x="174.744755" y="181.32085" style="fill: #3b54a5; fill-opacity: 0.8; stroke: #3b54a5; stroke-opacity: 0.8"/>
     <use xlink:href="#mf64bba50e5" x="174.744755" y="133.68372" style="fill: #3b54a5; fill-opacity: 0.8; stroke: #3b54a5; stroke-opacity: 0.8"/>
     <use xlink:href="#mf64bba50e5" x="174.744755" y="185.366743" style="fill: #3b54a5; fill-opacity: 0.8; stroke: #3b54a5; stroke-opacity: 0.8"/>
     <use xlink:href="#mf64bba50e5" x="174.744755" y="166.659362" style="fill: #3b54a5; fill-opacity: 0.8; stroke: #3b54a5; stroke-opacity: 0.8"/>
     <use xlink:href="#mf64bba50e5" x="208.888112" y="253.590976" style="fill: #3b54a5; fill-opacity: 0.8; stroke: #3b54a5; stroke-opacity: 0.8"/>
     <use xlink:href="#mf64bba50e5" x="178.538462" y="158.567275" style="fill: #3b54a5; fill-opacity: 0.8; stroke: #3b54a5; stroke-opacity: 0.8"/>
     <use xlink:href="#mf64bba50e5" x="106.458042" y="237.319294" style="fill: #3b54a5; fill-opacity: 0.8; stroke: #3b54a5; stroke-opacity: 0.8"/>
     <use xlink:href="#mf64bba50e5" x="106.458042" y="113.168049" style="fill: #3b54a5; fill-opacity: 0.8; stroke: #3b54a5; stroke-opacity: 0.8"/>
     <use xlink:href="#mf64bba50e5" x="260.103147" y="124.181215" style="fill: #3b54a5; fill-opacity: 0.8; stroke: #3b54a5; stroke-opacity: 0.8"/>
     <use xlink:href="#mf64bba50e5" x="243.031469" y="171.968082" style="fill: #3b54a5; fill-opacity: 0.8; stroke: #3b54a5; stroke-opacity: 0.8"/>
     <use xlink:href="#mf64bba50e5" x="140.601399" y="249.915753" style="fill: #3b54a5; fill-opacity: 0.8; stroke: #3b54a5; stroke-opacity: 0.8"/>
    </g>
   </g>
   <g id="PolyCollection_1">
    <defs>
     <path id="mf80f517b09" d="M 57.681818 -150.343127 
L 57.681818 -95.237232 
L 60.243802 -97.016168 
L 62.805785 -98.724605 
L 65.367769 -100.450599 
L 67.929752 -102.176593 
L 70.491736 -103.902587 
L 73.053719 -105.629422 
L 75.615702 -107.358453 
L 78.177686 -109.087483 
L 80.739669 -110.816513 
L 83.301653 -112.544543 
L 85.863636 -114.270354 
L 88.42562 -115.965988 
L 90.987603 -117.721978 
L 93.549587 -119.404556 
L 96.11157 -121.031527 
L 98.673554 -122.708319 
L 101.235537 -124.281183 
L 103.797521 -125.904514 
L 106.359504 -127.528123 
L 108.921488 -129.135186 
L 111.483471 -130.778799 
L 114.045455 -132.455276 
L 116.607438 -134.116396 
L 119.169421 -135.798665 
L 121.731405 -137.434023 
L 124.293388 -139.095041 
L 126.855372 -140.936164 
L 129.417355 -142.630614 
L 131.979339 -144.079358 
L 134.541322 -145.845293 
L 137.103306 -147.715312 
L 139.665289 -149.28405 
L 142.227273 -150.771508 
L 144.789256 -152.381546 
L 147.35124 -153.815291 
L 149.913223 -155.374407 
L 152.475207 -157.078199 
L 155.03719 -158.563385 
L 157.599174 -160.186062 
L 160.161157 -161.467335 
L 162.72314 -162.757753 
L 165.285124 -164.447841 
L 167.847107 -165.678994 
L 170.409091 -167.16039 
L 172.971074 -168.126195 
L 175.533058 -169.088633 
L 178.095041 -170.088757 
L 180.657025 -171.19268 
L 183.219008 -172.419467 
L 185.780992 -173.439868 
L 188.342975 -174.531097 
L 190.904959 -175.511295 
L 193.466942 -176.159687 
L 196.028926 -177.310403 
L 198.590909 -178.125857 
L 201.152893 -178.933404 
L 203.714876 -179.741906 
L 206.27686 -180.547705 
L 208.838843 -181.357455 
L 211.400826 -182.176062 
L 213.96281 -183.005668 
L 216.524793 -183.899469 
L 219.086777 -184.832735 
L 221.64876 -185.559327 
L 224.210744 -186.381645 
L 226.772727 -187.054236 
L 229.334711 -187.974275 
L 231.896694 -188.6997 
L 234.458678 -189.467683 
L 237.020661 -190.25612 
L 239.582645 -191.002811 
L 242.144628 -191.750128 
L 244.706612 -192.315202 
L 247.268595 -193.091691 
L 249.830579 -193.789479 
L 252.392562 -194.439622 
L 254.954545 -195.06647 
L 257.516529 -195.774401 
L 260.078512 -196.568986 
L 262.640496 -197.310471 
L 265.202479 -198.092802 
L 267.764463 -198.72664 
L 270.326446 -199.398512 
L 272.88843 -200.026441 
L 275.450413 -200.601176 
L 278.012397 -201.158018 
L 280.57438 -201.715267 
L 283.136364 -202.436503 
L 285.698347 -203.034838 
L 288.260331 -203.633173 
L 290.822314 -204.276246 
L 293.384298 -204.932623 
L 295.946281 -205.58996 
L 298.508264 -206.29574 
L 301.070248 -206.983825 
L 303.632231 -207.645906 
L 306.194215 -208.342646 
L 308.756198 -208.972297 
L 311.318182 -209.704211 
L 311.318182 -272.221801 
L 311.318182 -272.221801 
L 308.756198 -270.390946 
L 306.194215 -268.685764 
L 303.632231 -267.042959 
L 301.070248 -265.427017 
L 298.508264 -263.811074 
L 295.946281 -262.177885 
L 293.384298 -260.453209 
L 290.822314 -258.787723 
L 288.260331 -257.156559 
L 285.698347 -255.467168 
L 283.136364 -253.688955 
L 280.57438 -251.988911 
L 278.012397 -250.298968 
L 275.450413 -248.488508 
L 272.88843 -246.678047 
L 270.326446 -245.011025 
L 267.764463 -243.371152 
L 265.202479 -241.731279 
L 262.640496 -240.091406 
L 260.078512 -238.451533 
L 257.516529 -236.832916 
L 254.954545 -235.42552 
L 252.392562 -233.797307 
L 249.830579 -232.10161 
L 247.268595 -230.716045 
L 244.706612 -229.235123 
L 242.144628 -227.572669 
L 239.582645 -225.769525 
L 237.020661 -223.966381 
L 234.458678 -222.219016 
L 231.896694 -220.90534 
L 229.334711 -219.183041 
L 226.772727 -217.458633 
L 224.210744 -215.807973 
L 221.64876 -214.331621 
L 219.086777 -212.927018 
L 216.524793 -211.410058 
L 213.96281 -209.914236 
L 211.400826 -208.504071 
L 208.838843 -207.15344 
L 206.27686 -205.539055 
L 203.714876 -204.000508 
L 201.152893 -202.640456 
L 198.590909 -201.076033 
L 196.028926 -199.822034 
L 193.466942 -198.478308 
L 190.904959 -197.29988 
L 188.342975 -195.97662 
L 185.780992 -194.635544 
L 183.219008 -193.266144 
L 180.657025 -191.959061 
L 178.095041 -190.768011 
L 175.533058 -189.540315 
L 172.971074 -188.306755 
L 170.409091 -187.077057 
L 167.847107 -185.843443 
L 165.285124 -184.53557 
L 162.72314 -183.384028 
L 160.161157 -182.159034 
L 157.599174 -181.340838 
L 155.03719 -180.355218 
L 152.475207 -179.402691 
L 149.913223 -178.213372 
L 147.35124 -177.053711 
L 144.789256 -175.933755 
L 142.227273 -174.8504 
L 139.665289 -173.785837 
L 137.103306 -172.903857 
L 134.541322 -172.050993 
L 131.979339 -171.187112 
L 129.417355 -170.658586 
L 126.855372 -169.997716 
L 124.293388 -169.208563 
L 121.731405 -168.359169 
L 119.169421 -167.446743 
L 116.607438 -166.581676 
L 114.045455 -165.691621 
L 111.483471 -164.937247 
L 108.921488 -164.260079 
L 106.359504 -163.582912 
L 103.797521 -163.151061 
L 101.235537 -162.39275 
L 98.673554 -161.541051 
L 96.11157 -160.968163 
L 93.549587 -160.450826 
L 90.987603 -159.660136 
L 88.42562 -158.834953 
L 85.863636 -158.133797 
L 83.301653 -157.452346 
L 80.739669 -156.770896 
L 78.177686 -156.089445 
L 75.615702 -155.407994 
L 73.053719 -154.647444 
L 70.491736 -153.878305 
L 67.929752 -153.24372 
L 65.367769 -152.4901 
L 62.805785 -151.792962 
L 60.243802 -151.04043 
L 57.681818 -150.343127 
z
" style="stroke: #ffffff; stroke-opacity: 0.15"/>
    </defs>
    <g clip-path="url(#p78c5314b39)">
     <use xlink:href="#mf80f517b09" x="0" y="360" style="fill-opacity: 0.15; stroke: #ffffff; stroke-opacity: 0.15"/>
    </g>
   </g>
   <g id="line2d_16">
    <path d="M 57.681818 236.715138 
L 60.243802 235.4881 
L 62.805785 234.261061 
L 65.367769 233.034023 
L 67.929752 231.806984 
L 70.491736 230.579945 
L 73.053719 229.352907 
L 75.615702 228.125868 
L 78.177686 226.89883 
L 80.739669 225.671791 
L 83.301653 224.444753 
L 85.863636 223.217714 
L 88.42562 221.990676 
L 90.987603 220.763637 
L 93.549587 219.536598 
L 96.11157 218.30956 
L 98.673554 217.082521 
L 101.235537 215.855483 
L 103.797521 214.628444 
L 106.359504 213.401406 
L 108.921488 212.174367 
L 111.483471 210.947329 
L 114.045455 209.72029 
L 116.607438 208.493252 
L 119.169421 207.266213 
L 121.731405 206.039174 
L 124.293388 204.812136 
L 126.855372 203.585097 
L 129.417355 202.358059 
L 131.979339 201.13102 
L 134.541322 199.903982 
L 137.103306 198.676943 
L 139.665289 197.449905 
L 142.227273 196.222866 
L 144.789256 194.995828 
L 147.35124 193.768789 
L 149.913223 192.54175 
L 152.475207 191.314712 
L 155.03719 190.087673 
L 157.599174 188.860635 
L 160.161157 187.633596 
L 162.72314 186.406558 
L 165.285124 185.179519 
L 167.847107 183.952481 
L 170.409091 182.725442 
L 172.971074 181.498404 
L 175.533058 180.271365 
L 178.095041 179.044326 
L 180.657025 177.817288 
L 183.219008 176.590249 
L 185.780992 175.363211 
L 188.342975 174.136172 
L 190.904959 172.909134 
L 193.466942 171.682095 
L 196.028926 170.455057 
L 198.590909 169.228018 
L 201.152893 168.00098 
L 203.714876 166.773941 
L 206.27686 165.546902 
L 208.838843 164.319864 
L 211.400826 163.092825 
L 213.96281 161.865787 
L 216.524793 160.638748 
L 219.086777 159.41171 
L 221.64876 158.184671 
L 224.210744 156.957633 
L 226.772727 155.730594 
L 229.334711 154.503556 
L 231.896694 153.276517 
L 234.458678 152.049478 
L 237.020661 150.82244 
L 239.582645 149.595401 
L 242.144628 148.368363 
L 244.706612 147.141324 
L 247.268595 145.914286 
L 249.830579 144.687247 
L 252.392562 143.460209 
L 254.954545 142.23317 
L 257.516529 141.006131 
L 260.078512 139.779093 
L 262.640496 138.552054 
L 265.202479 137.325016 
L 267.764463 136.097977 
L 270.326446 134.870939 
L 272.88843 133.6439 
L 275.450413 132.416862 
L 278.012397 131.189823 
L 280.57438 129.962785 
L 283.136364 128.735746 
L 285.698347 127.508707 
L 288.260331 126.281669 
L 290.822314 125.05463 
L 293.384298 123.827592 
L 295.946281 122.600553 
L 298.508264 121.373515 
L 301.070248 120.146476 
L 303.632231 118.919438 
L 306.194215 117.692399 
L 308.756198 116.465361 
L 311.318182 115.238322 
" clip-path="url(#p78c5314b39)" style="fill: none; stroke: #000000; stroke-linecap: round"/>
   </g>
   <g id="patch_3">
    <path d="M 45 320.4 
L 45 43.2 
" style="fill: none; stroke: #ffffff; stroke-width: 0.8; stroke-linejoin: miter; stroke-linecap: square"/>
   </g>
   <g id="patch_4">
    <path d="M 324 320.4 
L 324 43.2 
" style="fill: none; stroke: #ffffff; stroke-width: 0.8; stroke-linejoin: miter; stroke-linecap: square"/>
   </g>
   <g id="patch_5">
    <path d="M 45 320.4 
L 324 320.4 
" style="fill: none; stroke: #ffffff; stroke-width: 0.8; stroke-linejoin: miter; stroke-linecap: square"/>
   </g>
   <g id="patch_6">
    <path d="M 45 43.2 
L 324 43.2 
" style="fill: none; stroke: #ffffff; stroke-width: 0.8; stroke-linejoin: miter; stroke-linecap: square"/>
   </g>
  </g>
 </g>
 <defs>
  <clipPath id="p78c5314b39">
   <rect x="45" y="43.2" width="279" height="277.2"/>
  </clipPath>
 </defs>
</svg>
