<?xml version="1.0" encoding="utf-8" standalone="no"?>
<!DOCTYPE svg PUBLIC "-//W3C//DTD SVG 1.1//EN"
  "http://www.w3.org/Graphics/SVG/1.1/DTD/svg11.dtd">
<svg xmlns:xlink="http://www.w3.org/1999/xlink" width="576pt" height="432pt" viewBox="0 0 576 432" xmlns="http://www.w3.org/2000/svg" version="1.1">
 <metadata>
  <rdf:RDF xmlns:dc="http://purl.org/dc/elements/1.1/" xmlns:cc="http://creativecommons.org/ns#" xmlns:rdf="http://www.w3.org/1999/02/22-rdf-syntax-ns#">
   <cc:Work>
    <dc:type rdf:resource="http://purl.org/dc/dcmitype/StillImage"/>
    <dc:date>2024-06-03T20:05:40.699479</dc:date>
    <dc:format>image/svg+xml</dc:format>
    <dc:creator>
     <cc:Agent>
      <dc:title>Matplotlib v3.7.2, https://matplotlib.org/</dc:title>
     </cc:Agent>
    </dc:creator>
   </cc:Work>
  </rdf:RDF>
 </metadata>
 <defs>
  <style type="text/css">*{stroke-linejoin: round; stroke-linecap: butt}</style>
 </defs>
 <g id="figure_1">
  <g id="patch_1">
   <path d="M 0 432 
L 576 432 
L 576 0 
L 0 0 
z
" style="fill: #ffffff"/>
  </g>
  <g id="axes_1">
   <g id="patch_2">
    <path d="M 72 384.48 
L 518.4 384.48 
L 518.4 51.84 
L 72 51.84 
z
" style="fill: #eaeaf2"/>
   </g>
   <g id="matplotlib.axis_1">
    <g id="xtick_1">
     <g id="text_1">
      <!-- 15 -->
      <g style="fill: #262626" transform="translate(177.482969 401.853594) scale(0.11 -0.11)">
       <defs>
        <path id="ArialMT-31" d="M 2384 0 
L 1822 0 
L 1822 3584 
Q 1619 3391 1289 3197 
Q 959 3003 697 2906 
L 697 3450 
Q 1169 3672 1522 3987 
Q 1875 4303 2022 4600 
L 2384 4600 
L 2384 0 
z
" transform="scale(0.015625)"/>
        <path id="ArialMT-35" d="M 266 1200 
L 856 1250 
Q 922 819 1161 601 
Q 1400 384 1738 384 
Q 2144 384 2425 690 
Q 2706 997 2706 1503 
Q 2706 1984 2436 2262 
Q 2166 2541 1728 2541 
Q 1456 2541 1237 2417 
Q 1019 2294 894 2097 
L 366 2166 
L 809 4519 
L 3088 4519 
L 3088 3981 
L 1259 3981 
L 1013 2750 
Q 1425 3038 1878 3038 
Q 2478 3038 2890 2622 
Q 3303 2206 3303 1553 
Q 3303 931 2941 478 
Q 2500 -78 1738 -78 
Q 1113 -78 717 272 
Q 322 622 266 1200 
z
" transform="scale(0.015625)"/>
       </defs>
       <use xlink:href="#ArialMT-31"/>
       <use xlink:href="#ArialMT-35" x="55.615234"/>
      </g>
     </g>
    </g>
    <g id="xtick_2">
     <g id="text_2">
      <!-- 60 -->
      <g style="fill: #262626" transform="translate(400.682969 401.853594) scale(0.11 -0.11)">
       <defs>
        <path id="ArialMT-36" d="M 3184 3459 
L 2625 3416 
Q 2550 3747 2413 3897 
Q 2184 4138 1850 4138 
Q 1581 4138 1378 3988 
Q 1113 3794 959 3422 
Q 806 3050 800 2363 
Q 1003 2672 1297 2822 
Q 1591 2972 1913 2972 
Q 2475 2972 2870 2558 
Q 3266 2144 3266 1488 
Q 3266 1056 3080 686 
Q 2894 316 2569 119 
Q 2244 -78 1831 -78 
Q 1128 -78 684 439 
Q 241 956 241 2144 
Q 241 3472 731 4075 
Q 1159 4600 1884 4600 
Q 2425 4600 2770 4297 
Q 3116 3994 3184 3459 
z
M 888 1484 
Q 888 1194 1011 928 
Q 1134 663 1356 523 
Q 1578 384 1822 384 
Q 2178 384 2434 671 
Q 2691 959 2691 1453 
Q 2691 1928 2437 2201 
Q 2184 2475 1800 2475 
Q 1419 2475 1153 2201 
Q 888 1928 888 1484 
z
" transform="scale(0.015625)"/>
        <path id="ArialMT-30" d="M 266 2259 
Q 266 3072 433 3567 
Q 600 4063 929 4331 
Q 1259 4600 1759 4600 
Q 2128 4600 2406 4451 
Q 2684 4303 2865 4023 
Q 3047 3744 3150 3342 
Q 3253 2941 3253 2259 
Q 3253 1453 3087 958 
Q 2922 463 2592 192 
Q 2263 -78 1759 -78 
Q 1097 -78 719 397 
Q 266 969 266 2259 
z
M 844 2259 
Q 844 1131 1108 757 
Q 1372 384 1759 384 
Q 2147 384 2411 759 
Q 2675 1134 2675 2259 
Q 2675 3391 2411 3762 
Q 2147 4134 1753 4134 
Q 1366 4134 1134 3806 
Q 844 3388 844 2259 
z
" transform="scale(0.015625)"/>
       </defs>
       <use xlink:href="#ArialMT-36"/>
       <use xlink:href="#ArialMT-30" x="55.615234"/>
      </g>
     </g>
    </g>
    <g id="text_3">
     <!-- num_trials -->
     <g style="fill: #262626" transform="translate(267.525 416.629219) scale(0.12 -0.12)">
      <defs>
       <path id="ArialMT-6e" d="M 422 0 
L 422 3319 
L 928 3319 
L 928 2847 
Q 1294 3394 1984 3394 
Q 2284 3394 2536 3286 
Q 2788 3178 2913 3003 
Q 3038 2828 3088 2588 
Q 3119 2431 3119 2041 
L 3119 0 
L 2556 0 
L 2556 2019 
Q 2556 2363 2490 2533 
Q 2425 2703 2258 2804 
Q 2091 2906 1866 2906 
Q 1506 2906 1245 2678 
Q 984 2450 984 1813 
L 984 0 
L 422 0 
z
" transform="scale(0.015625)"/>
       <path id="ArialMT-75" d="M 2597 0 
L 2597 488 
Q 2209 -75 1544 -75 
Q 1250 -75 995 37 
Q 741 150 617 320 
Q 494 491 444 738 
Q 409 903 409 1263 
L 409 3319 
L 972 3319 
L 972 1478 
Q 972 1038 1006 884 
Q 1059 663 1231 536 
Q 1403 409 1656 409 
Q 1909 409 2131 539 
Q 2353 669 2445 892 
Q 2538 1116 2538 1541 
L 2538 3319 
L 3100 3319 
L 3100 0 
L 2597 0 
z
" transform="scale(0.015625)"/>
       <path id="ArialMT-6d" d="M 422 0 
L 422 3319 
L 925 3319 
L 925 2853 
Q 1081 3097 1340 3245 
Q 1600 3394 1931 3394 
Q 2300 3394 2536 3241 
Q 2772 3088 2869 2813 
Q 3263 3394 3894 3394 
Q 4388 3394 4653 3120 
Q 4919 2847 4919 2278 
L 4919 0 
L 4359 0 
L 4359 2091 
Q 4359 2428 4304 2576 
Q 4250 2725 4106 2815 
Q 3963 2906 3769 2906 
Q 3419 2906 3187 2673 
Q 2956 2441 2956 1928 
L 2956 0 
L 2394 0 
L 2394 2156 
Q 2394 2531 2256 2718 
Q 2119 2906 1806 2906 
Q 1569 2906 1367 2781 
Q 1166 2656 1075 2415 
Q 984 2175 984 1722 
L 984 0 
L 422 0 
z
" transform="scale(0.015625)"/>
       <path id="ArialMT-5f" d="M -97 -1272 
L -97 -866 
L 3631 -866 
L 3631 -1272 
L -97 -1272 
z
" transform="scale(0.015625)"/>
       <path id="ArialMT-74" d="M 1650 503 
L 1731 6 
Q 1494 -44 1306 -44 
Q 1000 -44 831 53 
Q 663 150 594 308 
Q 525 466 525 972 
L 525 2881 
L 113 2881 
L 113 3319 
L 525 3319 
L 525 4141 
L 1084 4478 
L 1084 3319 
L 1650 3319 
L 1650 2881 
L 1084 2881 
L 1084 941 
Q 1084 700 1114 631 
Q 1144 563 1211 522 
Q 1278 481 1403 481 
Q 1497 481 1650 503 
z
" transform="scale(0.015625)"/>
       <path id="ArialMT-72" d="M 416 0 
L 416 3319 
L 922 3319 
L 922 2816 
Q 1116 3169 1280 3281 
Q 1444 3394 1641 3394 
Q 1925 3394 2219 3213 
L 2025 2691 
Q 1819 2813 1613 2813 
Q 1428 2813 1281 2702 
Q 1134 2591 1072 2394 
Q 978 2094 978 1738 
L 978 0 
L 416 0 
z
" transform="scale(0.015625)"/>
       <path id="ArialMT-69" d="M 425 3934 
L 425 4581 
L 988 4581 
L 988 3934 
L 425 3934 
z
M 425 0 
L 425 3319 
L 988 3319 
L 988 0 
L 425 0 
z
" transform="scale(0.015625)"/>
       <path id="ArialMT-61" d="M 2588 409 
Q 2275 144 1986 34 
Q 1697 -75 1366 -75 
Q 819 -75 525 192 
Q 231 459 231 875 
Q 231 1119 342 1320 
Q 453 1522 633 1644 
Q 813 1766 1038 1828 
Q 1203 1872 1538 1913 
Q 2219 1994 2541 2106 
Q 2544 2222 2544 2253 
Q 2544 2597 2384 2738 
Q 2169 2928 1744 2928 
Q 1347 2928 1158 2789 
Q 969 2650 878 2297 
L 328 2372 
Q 403 2725 575 2942 
Q 747 3159 1072 3276 
Q 1397 3394 1825 3394 
Q 2250 3394 2515 3294 
Q 2781 3194 2906 3042 
Q 3031 2891 3081 2659 
Q 3109 2516 3109 2141 
L 3109 1391 
Q 3109 606 3145 398 
Q 3181 191 3288 0 
L 2700 0 
Q 2613 175 2588 409 
z
M 2541 1666 
Q 2234 1541 1622 1453 
Q 1275 1403 1131 1340 
Q 988 1278 909 1158 
Q 831 1038 831 891 
Q 831 666 1001 516 
Q 1172 366 1500 366 
Q 1825 366 2078 508 
Q 2331 650 2450 897 
Q 2541 1088 2541 1459 
L 2541 1666 
z
" transform="scale(0.015625)"/>
       <path id="ArialMT-6c" d="M 409 0 
L 409 4581 
L 972 4581 
L 972 0 
L 409 0 
z
" transform="scale(0.015625)"/>
       <path id="ArialMT-73" d="M 197 991 
L 753 1078 
Q 800 744 1014 566 
Q 1228 388 1613 388 
Q 2000 388 2187 545 
Q 2375 703 2375 916 
Q 2375 1106 2209 1216 
Q 2094 1291 1634 1406 
Q 1016 1563 777 1677 
Q 538 1791 414 1992 
Q 291 2194 291 2438 
Q 291 2659 392 2848 
Q 494 3038 669 3163 
Q 800 3259 1026 3326 
Q 1253 3394 1513 3394 
Q 1903 3394 2198 3281 
Q 2494 3169 2634 2976 
Q 2775 2784 2828 2463 
L 2278 2388 
Q 2241 2644 2061 2787 
Q 1881 2931 1553 2931 
Q 1166 2931 1000 2803 
Q 834 2675 834 2503 
Q 834 2394 903 2306 
Q 972 2216 1119 2156 
Q 1203 2125 1616 2013 
Q 2213 1853 2448 1751 
Q 2684 1650 2818 1456 
Q 2953 1263 2953 975 
Q 2953 694 2789 445 
Q 2625 197 2315 61 
Q 2006 -75 1616 -75 
Q 969 -75 630 194 
Q 291 463 197 991 
z
" transform="scale(0.015625)"/>
      </defs>
      <use xlink:href="#ArialMT-6e"/>
      <use xlink:href="#ArialMT-75" x="55.615234"/>
      <use xlink:href="#ArialMT-6d" x="111.230469"/>
      <use xlink:href="#ArialMT-5f" x="194.53125"/>
      <use xlink:href="#ArialMT-74" x="250.146484"/>
      <use xlink:href="#ArialMT-72" x="277.929688"/>
      <use xlink:href="#ArialMT-69" x="311.230469"/>
      <use xlink:href="#ArialMT-61" x="333.447266"/>
      <use xlink:href="#ArialMT-6c" x="389.0625"/>
      <use xlink:href="#ArialMT-73" x="411.279297"/>
     </g>
    </g>
   </g>
   <g id="matplotlib.axis_2">
    <g id="ytick_1">
     <g id="line2d_1">
      <path d="M 72 384.48 
L 518.4 384.48 
" clip-path="url(#p73b799b1e5)" style="fill: none; stroke: #ffffff; stroke-linecap: round"/>
     </g>
     <g id="text_4">
      <!-- −0.4 -->
      <g style="fill: #262626" transform="translate(40.785313 388.416797) scale(0.11 -0.11)">
       <defs>
        <path id="ArialMT-2212" d="M 3381 1997 
L 356 1997 
L 356 2522 
L 3381 2522 
L 3381 1997 
z
" transform="scale(0.015625)"/>
        <path id="ArialMT-2e" d="M 581 0 
L 581 641 
L 1222 641 
L 1222 0 
L 581 0 
z
" transform="scale(0.015625)"/>
        <path id="ArialMT-34" d="M 2069 0 
L 2069 1097 
L 81 1097 
L 81 1613 
L 2172 4581 
L 2631 4581 
L 2631 1613 
L 3250 1613 
L 3250 1097 
L 2631 1097 
L 2631 0 
L 2069 0 
z
M 2069 1613 
L 2069 3678 
L 634 1613 
L 2069 1613 
z
" transform="scale(0.015625)"/>
       </defs>
       <use xlink:href="#ArialMT-2212"/>
       <use xlink:href="#ArialMT-30" x="58.398438"/>
       <use xlink:href="#ArialMT-2e" x="114.013672"/>
       <use xlink:href="#ArialMT-34" x="141.796875"/>
      </g>
     </g>
    </g>
    <g id="ytick_2">
     <g id="line2d_2">
      <path d="M 72 339.12 
L 518.4 339.12 
" clip-path="url(#p73b799b1e5)" style="fill: none; stroke: #ffffff; stroke-linecap: round"/>
     </g>
     <g id="text_5">
      <!-- −0.2 -->
      <g style="fill: #262626" transform="translate(40.785313 343.056797) scale(0.11 -0.11)">
       <defs>
        <path id="ArialMT-32" d="M 3222 541 
L 3222 0 
L 194 0 
Q 188 203 259 391 
Q 375 700 629 1000 
Q 884 1300 1366 1694 
Q 2113 2306 2375 2664 
Q 2638 3022 2638 3341 
Q 2638 3675 2398 3904 
Q 2159 4134 1775 4134 
Q 1369 4134 1125 3890 
Q 881 3647 878 3216 
L 300 3275 
Q 359 3922 746 4261 
Q 1134 4600 1788 4600 
Q 2447 4600 2831 4234 
Q 3216 3869 3216 3328 
Q 3216 3053 3103 2787 
Q 2991 2522 2730 2228 
Q 2469 1934 1863 1422 
Q 1356 997 1212 845 
Q 1069 694 975 541 
L 3222 541 
z
" transform="scale(0.015625)"/>
       </defs>
       <use xlink:href="#ArialMT-2212"/>
       <use xlink:href="#ArialMT-30" x="58.398438"/>
       <use xlink:href="#ArialMT-2e" x="114.013672"/>
       <use xlink:href="#ArialMT-32" x="141.796875"/>
      </g>
     </g>
    </g>
    <g id="ytick_3">
     <g id="line2d_3">
      <path d="M 72 293.76 
L 518.4 293.76 
" clip-path="url(#p73b799b1e5)" style="fill: none; stroke: #ffffff; stroke-linecap: round"/>
     </g>
     <g id="text_6">
      <!-- 0.0 -->
      <g style="fill: #262626" transform="translate(47.21 297.696797) scale(0.11 -0.11)">
       <use xlink:href="#ArialMT-30"/>
       <use xlink:href="#ArialMT-2e" x="55.615234"/>
       <use xlink:href="#ArialMT-30" x="83.398438"/>
      </g>
     </g>
    </g>
    <g id="ytick_4">
     <g id="line2d_4">
      <path d="M 72 248.4 
L 518.4 248.4 
" clip-path="url(#p73b799b1e5)" style="fill: none; stroke: #ffffff; stroke-linecap: round"/>
     </g>
     <g id="text_7">
      <!-- 0.2 -->
      <g style="fill: #262626" transform="translate(47.21 252.336797) scale(0.11 -0.11)">
       <use xlink:href="#ArialMT-30"/>
       <use xlink:href="#ArialMT-2e" x="55.615234"/>
       <use xlink:href="#ArialMT-32" x="83.398438"/>
      </g>
     </g>
    </g>
    <g id="ytick_5">
     <g id="line2d_5">
      <path d="M 72 203.04 
L 518.4 203.04 
" clip-path="url(#p73b799b1e5)" style="fill: none; stroke: #ffffff; stroke-linecap: round"/>
     </g>
     <g id="text_8">
      <!-- 0.4 -->
      <g style="fill: #262626" transform="translate(47.21 206.976797) scale(0.11 -0.11)">
       <use xlink:href="#ArialMT-30"/>
       <use xlink:href="#ArialMT-2e" x="55.615234"/>
       <use xlink:href="#ArialMT-34" x="83.398438"/>
      </g>
     </g>
    </g>
    <g id="ytick_6">
     <g id="line2d_6">
      <path d="M 72 157.68 
L 518.4 157.68 
" clip-path="url(#p73b799b1e5)" style="fill: none; stroke: #ffffff; stroke-linecap: round"/>
     </g>
     <g id="text_9">
      <!-- 0.6 -->
      <g style="fill: #262626" transform="translate(47.21 161.616797) scale(0.11 -0.11)">
       <use xlink:href="#ArialMT-30"/>
       <use xlink:href="#ArialMT-2e" x="55.615234"/>
       <use xlink:href="#ArialMT-36" x="83.398438"/>
      </g>
     </g>
    </g>
    <g id="ytick_7">
     <g id="line2d_7">
      <path d="M 72 112.32 
L 518.4 112.32 
" clip-path="url(#p73b799b1e5)" style="fill: none; stroke: #ffffff; stroke-linecap: round"/>
     </g>
     <g id="text_10">
      <!-- 0.8 -->
      <g style="fill: #262626" transform="translate(47.21 116.256797) scale(0.11 -0.11)">
       <defs>
        <path id="ArialMT-38" d="M 1131 2484 
Q 781 2613 612 2850 
Q 444 3088 444 3419 
Q 444 3919 803 4259 
Q 1163 4600 1759 4600 
Q 2359 4600 2725 4251 
Q 3091 3903 3091 3403 
Q 3091 3084 2923 2848 
Q 2756 2613 2416 2484 
Q 2838 2347 3058 2040 
Q 3278 1734 3278 1309 
Q 3278 722 2862 322 
Q 2447 -78 1769 -78 
Q 1091 -78 675 323 
Q 259 725 259 1325 
Q 259 1772 486 2073 
Q 713 2375 1131 2484 
z
M 1019 3438 
Q 1019 3113 1228 2906 
Q 1438 2700 1772 2700 
Q 2097 2700 2305 2904 
Q 2513 3109 2513 3406 
Q 2513 3716 2298 3927 
Q 2084 4138 1766 4138 
Q 1444 4138 1231 3931 
Q 1019 3725 1019 3438 
z
M 838 1322 
Q 838 1081 952 856 
Q 1066 631 1291 507 
Q 1516 384 1775 384 
Q 2178 384 2440 643 
Q 2703 903 2703 1303 
Q 2703 1709 2433 1975 
Q 2163 2241 1756 2241 
Q 1359 2241 1098 1978 
Q 838 1716 838 1322 
z
" transform="scale(0.015625)"/>
       </defs>
       <use xlink:href="#ArialMT-30"/>
       <use xlink:href="#ArialMT-2e" x="55.615234"/>
       <use xlink:href="#ArialMT-38" x="83.398438"/>
      </g>
     </g>
    </g>
    <g id="ytick_8">
     <g id="line2d_8">
      <path d="M 72 66.96 
L 518.4 66.96 
" clip-path="url(#p73b799b1e5)" style="fill: none; stroke: #ffffff; stroke-linecap: round"/>
     </g>
     <g id="text_11">
      <!-- 1.0 -->
      <g style="fill: #262626" transform="translate(47.21 70.896797) scale(0.11 -0.11)">
       <use xlink:href="#ArialMT-31"/>
       <use xlink:href="#ArialMT-2e" x="55.615234"/>
       <use xlink:href="#ArialMT-30" x="83.398438"/>
      </g>
     </g>
    </g>
    <g id="text_12">
     <!-- bias -->
     <g style="fill: #262626" transform="translate(34.400313 229.16625) rotate(-90) scale(0.12 -0.12)">
      <defs>
       <path id="ArialMT-62" d="M 941 0 
L 419 0 
L 419 4581 
L 981 4581 
L 981 2947 
Q 1338 3394 1891 3394 
Q 2197 3394 2470 3270 
Q 2744 3147 2920 2923 
Q 3097 2700 3197 2384 
Q 3297 2069 3297 1709 
Q 3297 856 2875 390 
Q 2453 -75 1863 -75 
Q 1275 -75 941 416 
L 941 0 
z
M 934 1684 
Q 934 1088 1097 822 
Q 1363 388 1816 388 
Q 2184 388 2453 708 
Q 2722 1028 2722 1663 
Q 2722 2313 2464 2622 
Q 2206 2931 1841 2931 
Q 1472 2931 1203 2611 
Q 934 2291 934 1684 
z
" transform="scale(0.015625)"/>
      </defs>
      <use xlink:href="#ArialMT-62"/>
      <use xlink:href="#ArialMT-69" x="55.615234"/>
      <use xlink:href="#ArialMT-61" x="77.832031"/>
      <use xlink:href="#ArialMT-73" x="133.447266"/>
     </g>
    </g>
   </g>
   <g id="patch_3">
    <path d="M 94.32 293.76 
L 183.6 293.76 
L 183.6 218.16 
L 94.32 218.16 
z
" clip-path="url(#p73b799b1e5)" style="fill: #5875a4; stroke: #ffffff; stroke-linejoin: miter"/>
   </g>
   <g id="patch_4">
    <path d="M 317.52 293.76 
L 406.8 293.76 
L 406.8 229.275892 
L 317.52 229.275892 
z
" clip-path="url(#p73b799b1e5)" style="fill: #5875a4; stroke: #ffffff; stroke-linejoin: miter"/>
   </g>
   <g id="patch_5">
    <path d="M 183.6 293.76 
L 272.88 293.76 
L 272.88 283.932 
L 183.6 283.932 
z
" clip-path="url(#p73b799b1e5)" style="fill: #cc8963; stroke: #ffffff; stroke-linejoin: miter"/>
   </g>
   <g id="patch_6">
    <path d="M 406.8 293.76 
L 496.08 293.76 
L 496.08 287.307295 
L 406.8 287.307295 
z
" clip-path="url(#p73b799b1e5)" style="fill: #cc8963; stroke: #ffffff; stroke-linejoin: miter"/>
   </g>
   <g id="PathCollection_1"/>
   <g id="PathCollection_2"/>
   <g id="line2d_9">
    <path d="M 138.96 240.336 
L 138.96 198 
" clip-path="url(#p73b799b1e5)" style="fill: none; stroke: #424242; stroke-width: 2.7; stroke-linecap: round"/>
   </g>
   <g id="line2d_10">
    <path d="M 362.16 247.894001 
L 362.16 208.413645 
" clip-path="url(#p73b799b1e5)" style="fill: none; stroke: #424242; stroke-width: 2.7; stroke-linecap: round"/>
   </g>
   <g id="line2d_11">
    <path d="M 228.24 300.8223 
L 228.24 266.0274 
" clip-path="url(#p73b799b1e5)" style="fill: none; stroke: #424242; stroke-width: 2.7; stroke-linecap: round"/>
   </g>
   <g id="line2d_12">
    <path d="M 451.44 300.351809 
L 451.44 274.289233 
" clip-path="url(#p73b799b1e5)" style="fill: none; stroke: #424242; stroke-width: 2.7; stroke-linecap: round"/>
   </g>
   <g id="patch_7">
    <path d="M 72 384.48 
L 72 51.84 
" style="fill: none; stroke: #ffffff; stroke-width: 1.25; stroke-linejoin: miter; stroke-linecap: square"/>
   </g>
   <g id="patch_8">
    <path d="M 518.4 384.48 
L 518.4 51.84 
" style="fill: none; stroke: #ffffff; stroke-width: 1.25; stroke-linejoin: miter; stroke-linecap: square"/>
   </g>
   <g id="patch_9">
    <path d="M 72 384.48 
L 518.4 384.48 
" style="fill: none; stroke: #ffffff; stroke-width: 1.25; stroke-linejoin: miter; stroke-linecap: square"/>
   </g>
   <g id="patch_10">
    <path d="M 72 51.84 
L 518.4 51.84 
" style="fill: none; stroke: #ffffff; stroke-width: 1.25; stroke-linejoin: miter; stroke-linecap: square"/>
   </g>
   <g id="PathCollection_3">
    <defs>
     <path id="C0_0_5467c79b45" d="M 0 3 
C 0.795609 3 1.55874 2.683901 2.12132 2.12132 
C 2.683901 1.55874 3 0.795609 3 -0 
C 3 -0.795609 2.683901 -1.55874 2.12132 -2.12132 
C 1.55874 -2.683901 0.795609 -3 0 -3 
C -0.795609 -3 -1.55874 -2.683901 -2.12132 -2.12132 
C -2.683901 -1.55874 -3 -0.795609 -3 0 
C -3 0.795609 -2.683901 1.55874 -2.12132 2.12132 
C -1.55874 2.683901 -0.795609 3 0 3 
z
"/>
    </defs>
    <g clip-path="url(#p73b799b1e5)">
     <use xlink:href="#C0_0_5467c79b45" x="140.049092" y="308.88" style="fill: #262626"/>
    </g>
    <g clip-path="url(#p73b799b1e5)">
     <use xlink:href="#C0_0_5467c79b45" x="140.772893" y="187.92" style="fill: #262626"/>
    </g>
    <g clip-path="url(#p73b799b1e5)">
     <use xlink:href="#C0_0_5467c79b45" x="142.383794" y="248.4" style="fill: #262626"/>
    </g>
    <g clip-path="url(#p73b799b1e5)">
     <use xlink:href="#C0_0_5467c79b45" x="130.340565" y="157.68" style="fill: #262626"/>
    </g>
    <g clip-path="url(#p73b799b1e5)">
     <use xlink:href="#C0_0_5467c79b45" x="131.717126" y="308.88" style="fill: #262626"/>
    </g>
    <g clip-path="url(#p73b799b1e5)">
     <use xlink:href="#C0_0_5467c79b45" x="128.437026" y="339.12" style="fill: #262626"/>
    </g>
    <g clip-path="url(#p73b799b1e5)">
     <use xlink:href="#C0_0_5467c79b45" x="144.655813" y="278.64" style="fill: #262626"/>
    </g>
    <g clip-path="url(#p73b799b1e5)">
     <use xlink:href="#C0_0_5467c79b45" x="148.140282" y="187.92" style="fill: #262626"/>
    </g>
    <g clip-path="url(#p73b799b1e5)">
     <use xlink:href="#C0_0_5467c79b45" x="135.130301" y="187.92" style="fill: #262626"/>
    </g>
    <g clip-path="url(#p73b799b1e5)">
     <use xlink:href="#C0_0_5467c79b45" x="133.227166" y="218.16" style="fill: #262626"/>
    </g>
    <g clip-path="url(#p73b799b1e5)">
     <use xlink:href="#C0_0_5467c79b45" x="145.53" y="187.92" style="fill: #262626"/>
    </g>
    <g clip-path="url(#p73b799b1e5)">
     <use xlink:href="#C0_0_5467c79b45" x="130.430413" y="278.64" style="fill: #262626"/>
    </g>
    <g clip-path="url(#p73b799b1e5)">
     <use xlink:href="#C0_0_5467c79b45" x="142.10421" y="157.68" style="fill: #262626"/>
    </g>
    <g clip-path="url(#p73b799b1e5)">
     <use xlink:href="#C0_0_5467c79b45" x="131.999283" y="278.64" style="fill: #262626"/>
    </g>
    <g clip-path="url(#p73b799b1e5)">
     <use xlink:href="#C0_0_5467c79b45" x="143.399969" y="278.64" style="fill: #262626"/>
    </g>
    <g clip-path="url(#p73b799b1e5)">
     <use xlink:href="#C0_0_5467c79b45" x="129.494508" y="187.92" style="fill: #262626"/>
    </g>
    <g clip-path="url(#p73b799b1e5)">
     <use xlink:href="#C0_0_5467c79b45" x="141.232155" y="187.92" style="fill: #262626"/>
    </g>
    <g clip-path="url(#p73b799b1e5)">
     <use xlink:href="#C0_0_5467c79b45" x="148.474659" y="278.64" style="fill: #262626"/>
    </g>
    <g clip-path="url(#p73b799b1e5)">
     <use xlink:href="#C0_0_5467c79b45" x="128.728872" y="157.68" style="fill: #262626"/>
    </g>
    <g clip-path="url(#p73b799b1e5)">
     <use xlink:href="#C0_0_5467c79b45" x="128.510706" y="278.64" style="fill: #262626"/>
    </g>
    <g clip-path="url(#p73b799b1e5)">
     <use xlink:href="#C0_0_5467c79b45" x="145.320323" y="157.68" style="fill: #262626"/>
    </g>
    <g clip-path="url(#p73b799b1e5)">
     <use xlink:href="#C0_0_5467c79b45" x="132.891955" y="218.16" style="fill: #262626"/>
    </g>
    <g clip-path="url(#p73b799b1e5)">
     <use xlink:href="#C0_0_5467c79b45" x="135.606605" y="187.92" style="fill: #262626"/>
    </g>
    <g clip-path="url(#p73b799b1e5)">
     <use xlink:href="#C0_0_5467c79b45" x="130.581733" y="218.16" style="fill: #262626"/>
    </g>
    <g clip-path="url(#p73b799b1e5)">
     <use xlink:href="#C0_0_5467c79b45" x="138.523058" y="187.92" style="fill: #262626"/>
    </g>
    <g clip-path="url(#p73b799b1e5)">
     <use xlink:href="#C0_0_5467c79b45" x="136.660739" y="187.92" style="fill: #262626"/>
    </g>
    <g clip-path="url(#p73b799b1e5)">
     <use xlink:href="#C0_0_5467c79b45" x="130.403797" y="66.96" style="fill: #262626"/>
    </g>
    <g clip-path="url(#p73b799b1e5)">
     <use xlink:href="#C0_0_5467c79b45" x="127.958957" y="187.92" style="fill: #262626"/>
    </g>
    <g clip-path="url(#p73b799b1e5)">
     <use xlink:href="#C0_0_5467c79b45" x="136.942376" y="218.16" style="fill: #262626"/>
    </g>
    <g clip-path="url(#p73b799b1e5)">
     <use xlink:href="#C0_0_5467c79b45" x="131.683265" y="218.16" style="fill: #262626"/>
    </g>
   </g>
   <g id="PathCollection_4">
    <defs>
     <path id="C1_0_a060639a4d" d="M 0 3 
C 0.795609 3 1.55874 2.683901 2.12132 2.12132 
C 2.683901 1.55874 3 0.795609 3 -0 
C 3 -0.795609 2.683901 -1.55874 2.12132 -2.12132 
C 1.55874 -2.683901 0.795609 -3 0 -3 
C -0.795609 -3 -1.55874 -2.683901 -2.12132 -2.12132 
C -2.683901 -1.55874 -3 -0.795609 -3 0 
C -3 0.795609 -2.683901 1.55874 -2.12132 2.12132 
C -1.55874 2.683901 -0.795609 3 0 3 
z
"/>
    </defs>
    <g clip-path="url(#p73b799b1e5)">
     <use xlink:href="#C1_0_a060639a4d" x="223.798799" y="278.64"/>
    </g>
    <g clip-path="url(#p73b799b1e5)">
     <use xlink:href="#C1_0_a060639a4d" x="225.459576" y="308.88"/>
    </g>
    <g clip-path="url(#p73b799b1e5)">
     <use xlink:href="#C1_0_a060639a4d" x="228.116212" y="278.64"/>
    </g>
    <g clip-path="url(#p73b799b1e5)">
     <use xlink:href="#C1_0_a060639a4d" x="227.30332" y="369.36"/>
    </g>
    <g clip-path="url(#p73b799b1e5)">
     <use xlink:href="#C1_0_a060639a4d" x="236.74932" y="339.12"/>
    </g>
    <g clip-path="url(#p73b799b1e5)">
     <use xlink:href="#C1_0_a060639a4d" x="233.92773" y="308.88"/>
    </g>
    <g clip-path="url(#p73b799b1e5)">
     <use xlink:href="#C1_0_a060639a4d" x="222.011037" y="339.12"/>
    </g>
    <g clip-path="url(#p73b799b1e5)">
     <use xlink:href="#C1_0_a060639a4d" x="219.98179" y="278.64"/>
    </g>
    <g clip-path="url(#p73b799b1e5)">
     <use xlink:href="#C1_0_a060639a4d" x="238.876227" y="157.68"/>
    </g>
    <g clip-path="url(#p73b799b1e5)">
     <use xlink:href="#C1_0_a060639a4d" x="238.69134" y="308.88"/>
    </g>
    <g clip-path="url(#p73b799b1e5)">
     <use xlink:href="#C1_0_a060639a4d" x="238.8225" y="187.92"/>
    </g>
    <g clip-path="url(#p73b799b1e5)">
     <use xlink:href="#C1_0_a060639a4d" x="226.612899" y="248.4"/>
    </g>
    <g clip-path="url(#p73b799b1e5)">
     <use xlink:href="#C1_0_a060639a4d" x="229.386318" y="339.12"/>
    </g>
    <g clip-path="url(#p73b799b1e5)">
     <use xlink:href="#C1_0_a060639a4d" x="222.583574" y="339.12"/>
    </g>
    <g clip-path="url(#p73b799b1e5)">
     <use xlink:href="#C1_0_a060639a4d" x="232.913977" y="248.4"/>
    </g>
    <g clip-path="url(#p73b799b1e5)">
     <use xlink:href="#C1_0_a060639a4d" x="237.601087" y="339.12"/>
    </g>
    <g clip-path="url(#p73b799b1e5)">
     <use xlink:href="#C1_0_a060639a4d" x="238.527455" y="278.64"/>
    </g>
    <g clip-path="url(#p73b799b1e5)">
     <use xlink:href="#C1_0_a060639a4d" x="234.077651" y="278.64"/>
    </g>
    <g clip-path="url(#p73b799b1e5)">
     <use xlink:href="#C1_0_a060639a4d" x="224.513173" y="308.88"/>
    </g>
    <g clip-path="url(#p73b799b1e5)">
     <use xlink:href="#C1_0_a060639a4d" x="232.206328" y="339.12"/>
    </g>
    <g clip-path="url(#p73b799b1e5)">
     <use xlink:href="#C1_0_a060639a4d" x="239.296184" y="308.88"/>
    </g>
    <g clip-path="url(#p73b799b1e5)">
     <use xlink:href="#C1_0_a060639a4d" x="234.742075" y="278.64"/>
    </g>
    <g clip-path="url(#p73b799b1e5)">
     <use xlink:href="#C1_0_a060639a4d" x="234.645346" y="187.92"/>
    </g>
    <g clip-path="url(#p73b799b1e5)">
     <use xlink:href="#C1_0_a060639a4d" x="228.320123" y="248.4"/>
    </g>
    <g clip-path="url(#p73b799b1e5)">
     <use xlink:href="#C1_0_a060639a4d" x="236.544721" y="308.88"/>
    </g>
    <g clip-path="url(#p73b799b1e5)">
     <use xlink:href="#C1_0_a060639a4d" x="233.433648" y="248.4"/>
    </g>
    <g clip-path="url(#p73b799b1e5)">
     <use xlink:href="#C1_0_a060639a4d" x="224.264445" y="218.16"/>
    </g>
    <g clip-path="url(#p73b799b1e5)">
     <use xlink:href="#C1_0_a060639a4d" x="229.213807" y="278.64"/>
    </g>
    <g clip-path="url(#p73b799b1e5)">
     <use xlink:href="#C1_0_a060639a4d" x="223.484111" y="255.96"/>
    </g>
    <g clip-path="url(#p73b799b1e5)">
     <use xlink:href="#C1_0_a060639a4d" x="224.21112" y="308.88"/>
    </g>
   </g>
   <g id="PathCollection_5">
    <defs>
     <path id="C2_0_4c3bc26351" d="M 0 3 
C 0.795609 3 1.55874 2.683901 2.12132 2.12132 
C 2.683901 1.55874 3 0.795609 3 -0 
C 3 -0.795609 2.683901 -1.55874 2.12132 -2.12132 
C 1.55874 -2.683901 0.795609 -3 0 -3 
C -0.795609 -3 -1.55874 -2.683901 -2.12132 -2.12132 
C -2.683901 -1.55874 -3 -0.795609 -3 0 
C -3 0.795609 -2.683901 1.55874 -2.12132 2.12132 
C -1.55874 2.683901 -0.795609 3 0 3 
z
"/>
    </defs>
    <g clip-path="url(#p73b799b1e5)">
     <use xlink:href="#C2_0_4c3bc26351" x="366.522872" y="299.88973" style="fill: #262626"/>
    </g>
    <g clip-path="url(#p73b799b1e5)">
     <use xlink:href="#C2_0_4c3bc26351" x="352.747338" y="257.949474" style="fill: #262626"/>
    </g>
    <g clip-path="url(#p73b799b1e5)">
     <use xlink:href="#C2_0_4c3bc26351" x="354.495237" y="239.015172" style="fill: #262626"/>
    </g>
    <g clip-path="url(#p73b799b1e5)">
     <use xlink:href="#C2_0_4c3bc26351" x="352.81281" y="273.141818" style="fill: #262626"/>
    </g>
    <g clip-path="url(#p73b799b1e5)">
     <use xlink:href="#C2_0_4c3bc26351" x="353.035334" y="195.48" style="fill: #262626"/>
    </g>
    <g clip-path="url(#p73b799b1e5)">
     <use xlink:href="#C2_0_4c3bc26351" x="352.199105" y="188.46" style="fill: #262626"/>
    </g>
    <g clip-path="url(#p73b799b1e5)">
     <use xlink:href="#C2_0_4c3bc26351" x="360.732324" y="194.286316" style="fill: #262626"/>
    </g>
    <g clip-path="url(#p73b799b1e5)">
     <use xlink:href="#C2_0_4c3bc26351" x="355.206003" y="176.16" style="fill: #262626"/>
    </g>
    <g clip-path="url(#p73b799b1e5)">
     <use xlink:href="#C2_0_4c3bc26351" x="368.904502" y="199.720976" style="fill: #262626"/>
    </g>
    <g clip-path="url(#p73b799b1e5)">
     <use xlink:href="#C2_0_4c3bc26351" x="355.489831" y="178.220377" style="fill: #262626"/>
    </g>
    <g clip-path="url(#p73b799b1e5)">
     <use xlink:href="#C2_0_4c3bc26351" x="364.979328" y="154.190769" style="fill: #262626"/>
    </g>
    <g clip-path="url(#p73b799b1e5)">
     <use xlink:href="#C2_0_4c3bc26351" x="363.338423" y="343.732881" style="fill: #262626"/>
    </g>
    <g clip-path="url(#p73b799b1e5)">
     <use xlink:href="#C2_0_4c3bc26351" x="371.717297" y="240.679149" style="fill: #262626"/>
    </g>
    <g clip-path="url(#p73b799b1e5)">
     <use xlink:href="#C2_0_4c3bc26351" x="369.190189" y="251.475254" style="fill: #262626"/>
    </g>
    <g clip-path="url(#p73b799b1e5)">
     <use xlink:href="#C2_0_4c3bc26351" x="358.593844" y="218.16" style="fill: #262626"/>
    </g>
    <g clip-path="url(#p73b799b1e5)">
     <use xlink:href="#C2_0_4c3bc26351" x="355.243143" y="328.652308" style="fill: #262626"/>
    </g>
    <g clip-path="url(#p73b799b1e5)">
     <use xlink:href="#C2_0_4c3bc26351" x="352.200334" y="271.08" style="fill: #262626"/>
    </g>
    <g clip-path="url(#p73b799b1e5)">
     <use xlink:href="#C2_0_4c3bc26351" x="351.769901" y="226.56" style="fill: #262626"/>
    </g>
    <g clip-path="url(#p73b799b1e5)">
     <use xlink:href="#C2_0_4c3bc26351" x="351.646789" y="233.28" style="fill: #262626"/>
    </g>
    <g clip-path="url(#p73b799b1e5)">
     <use xlink:href="#C2_0_4c3bc26351" x="357.051839" y="293.76" style="fill: #262626"/>
    </g>
    <g clip-path="url(#p73b799b1e5)">
     <use xlink:href="#C2_0_4c3bc26351" x="364.965262" y="196.56" style="fill: #262626"/>
    </g>
    <g clip-path="url(#p73b799b1e5)">
     <use xlink:href="#C2_0_4c3bc26351" x="356.222329" y="221.01283" style="fill: #262626"/>
    </g>
    <g clip-path="url(#p73b799b1e5)">
     <use xlink:href="#C2_0_4c3bc26351" x="356.68555" y="239.015172" style="fill: #262626"/>
    </g>
    <g clip-path="url(#p73b799b1e5)">
     <use xlink:href="#C2_0_4c3bc26351" x="372.3465" y="228.24" style="fill: #262626"/>
    </g>
    <g clip-path="url(#p73b799b1e5)">
     <use xlink:href="#C2_0_4c3bc26351" x="354.429516" y="119.88" style="fill: #262626"/>
    </g>
    <g clip-path="url(#p73b799b1e5)">
     <use xlink:href="#C2_0_4c3bc26351" x="364.799679" y="223.373793" style="fill: #262626"/>
    </g>
    <g clip-path="url(#p73b799b1e5)">
     <use xlink:href="#C2_0_4c3bc26351" x="355.998607" y="248.4" style="fill: #262626"/>
    </g>
    <g clip-path="url(#p73b799b1e5)">
     <use xlink:href="#C2_0_4c3bc26351" x="371.974975" y="277.936744" style="fill: #262626"/>
    </g>
    <g clip-path="url(#p73b799b1e5)">
     <use xlink:href="#C2_0_4c3bc26351" x="356.344256" y="85.104" style="fill: #262626"/>
    </g>
    <g clip-path="url(#p73b799b1e5)">
     <use xlink:href="#C2_0_4c3bc26351" x="370.43439" y="274.86" style="fill: #262626"/>
    </g>
   </g>
   <g id="PathCollection_6">
    <defs>
     <path id="C3_0_340cc115e1" d="M 0 3 
C 0.795609 3 1.55874 2.683901 2.12132 2.12132 
C 2.683901 1.55874 3 0.795609 3 -0 
C 3 -0.795609 2.683901 -1.55874 2.12132 -2.12132 
C 1.55874 -2.683901 0.795609 -3 0 -3 
C -0.795609 -3 -1.55874 -2.683901 -2.12132 -2.12132 
C -2.683901 -1.55874 -3 -0.795609 -3 0 
C -3 0.795609 -2.683901 1.55874 -2.12132 2.12132 
C -1.55874 2.683901 -0.795609 3 0 3 
z
"/>
    </defs>
    <g clip-path="url(#p73b799b1e5)">
     <use xlink:href="#C3_0_340cc115e1" x="443.290177" y="369.36"/>
    </g>
    <g clip-path="url(#p73b799b1e5)">
     <use xlink:href="#C3_0_340cc115e1" x="446.194903" y="322.11"/>
    </g>
    <g clip-path="url(#p73b799b1e5)">
     <use xlink:href="#C3_0_340cc115e1" x="456.052753" y="318.06"/>
    </g>
    <g clip-path="url(#p73b799b1e5)">
     <use xlink:href="#C3_0_340cc115e1" x="459.762685" y="302.832"/>
    </g>
    <g clip-path="url(#p73b799b1e5)">
     <use xlink:href="#C3_0_340cc115e1" x="456.164375" y="276.96"/>
    </g>
    <g clip-path="url(#p73b799b1e5)">
     <use xlink:href="#C3_0_340cc115e1" x="459.03562" y="308.88"/>
    </g>
    <g clip-path="url(#p73b799b1e5)">
     <use xlink:href="#C3_0_340cc115e1" x="453.438747" y="314.378182"/>
    </g>
    <g clip-path="url(#p73b799b1e5)">
     <use xlink:href="#C3_0_340cc115e1" x="451.804139" y="315.156226"/>
    </g>
    <g clip-path="url(#p73b799b1e5)">
     <use xlink:href="#C3_0_340cc115e1" x="440.695344" y="225.72"/>
    </g>
    <g clip-path="url(#p73b799b1e5)">
     <use xlink:href="#C3_0_340cc115e1" x="450.087982" y="231.194483"/>
    </g>
    <g clip-path="url(#p73b799b1e5)">
     <use xlink:href="#C3_0_340cc115e1" x="442.352391" y="228.96"/>
    </g>
    <g clip-path="url(#p73b799b1e5)">
     <use xlink:href="#C3_0_340cc115e1" x="455.520574" y="218.16"/>
    </g>
    <g clip-path="url(#p73b799b1e5)">
     <use xlink:href="#C3_0_340cc115e1" x="451.016232" y="287.944615"/>
    </g>
    <g clip-path="url(#p73b799b1e5)">
     <use xlink:href="#C3_0_340cc115e1" x="460.878536" y="218.16"/>
    </g>
    <g clip-path="url(#p73b799b1e5)">
     <use xlink:href="#C3_0_340cc115e1" x="449.486431" y="231.028085"/>
    </g>
    <g clip-path="url(#p73b799b1e5)">
     <use xlink:href="#C3_0_340cc115e1" x="443.443282" y="255.96"/>
    </g>
    <g clip-path="url(#p73b799b1e5)">
     <use xlink:href="#C3_0_340cc115e1" x="440.341187" y="293.76"/>
    </g>
    <g clip-path="url(#p73b799b1e5)">
     <use xlink:href="#C3_0_340cc115e1" x="457.873151" y="317.222069"/>
    </g>
    <g clip-path="url(#p73b799b1e5)">
     <use xlink:href="#C3_0_340cc115e1" x="442.097217" y="252.102857"/>
    </g>
    <g clip-path="url(#p73b799b1e5)">
     <use xlink:href="#C3_0_340cc115e1" x="452.703161" y="312.980339"/>
    </g>
    <g clip-path="url(#p73b799b1e5)">
     <use xlink:href="#C3_0_340cc115e1" x="457.840152" y="306.130909"/>
    </g>
    <g clip-path="url(#p73b799b1e5)">
     <use xlink:href="#C3_0_340cc115e1" x="444.704856" y="309.583256"/>
    </g>
    <g clip-path="url(#p73b799b1e5)">
     <use xlink:href="#C3_0_340cc115e1" x="440.507606" y="262.630588"/>
    </g>
    <g clip-path="url(#p73b799b1e5)">
     <use xlink:href="#C3_0_340cc115e1" x="445.410935" y="320.976"/>
    </g>
    <g clip-path="url(#p73b799b1e5)">
     <use xlink:href="#C3_0_340cc115e1" x="452.43241" y="324"/>
    </g>
    <g clip-path="url(#p73b799b1e5)">
     <use xlink:href="#C3_0_340cc115e1" x="444.230105" y="268.56"/>
    </g>
    <g clip-path="url(#p73b799b1e5)">
     <use xlink:href="#C3_0_340cc115e1" x="461.870483" y="288.72"/>
    </g>
    <g clip-path="url(#p73b799b1e5)">
     <use xlink:href="#C3_0_340cc115e1" x="453.34287" y="324"/>
    </g>
    <g clip-path="url(#p73b799b1e5)">
     <use xlink:href="#C3_0_340cc115e1" x="458.706954" y="293.76"/>
    </g>
    <g clip-path="url(#p73b799b1e5)">
     <use xlink:href="#C3_0_340cc115e1" x="449.091474" y="319.929231"/>
    </g>
   </g>
   <g id="legend_1">
    <g id="patch_11">
     <path d="M 424.741875 139.494375 
L 510.7 139.494375 
Q 512.9 139.494375 512.9 137.294375 
L 512.9 59.54 
Q 512.9 57.34 510.7 57.34 
L 424.741875 57.34 
Q 422.541875 57.34 422.541875 59.54 
L 422.541875 137.294375 
Q 422.541875 139.494375 424.741875 139.494375 
z
" style="fill: #eaeaf2; opacity: 0.8; stroke: #cccccc; stroke-linejoin: miter"/>
    </g>
    <g id="text_13">
     <!-- type -->
     <g style="fill: #262626" transform="translate(456.380937 70.329375) scale(0.12 -0.12)">
      <defs>
       <path id="ArialMT-79" d="M 397 -1278 
L 334 -750 
Q 519 -800 656 -800 
Q 844 -800 956 -737 
Q 1069 -675 1141 -563 
Q 1194 -478 1313 -144 
Q 1328 -97 1363 -6 
L 103 3319 
L 709 3319 
L 1400 1397 
Q 1534 1031 1641 628 
Q 1738 1016 1872 1384 
L 2581 3319 
L 3144 3319 
L 1881 -56 
Q 1678 -603 1566 -809 
Q 1416 -1088 1222 -1217 
Q 1028 -1347 759 -1347 
Q 597 -1347 397 -1278 
z
" transform="scale(0.015625)"/>
       <path id="ArialMT-70" d="M 422 -1272 
L 422 3319 
L 934 3319 
L 934 2888 
Q 1116 3141 1344 3267 
Q 1572 3394 1897 3394 
Q 2322 3394 2647 3175 
Q 2972 2956 3137 2557 
Q 3303 2159 3303 1684 
Q 3303 1175 3120 767 
Q 2938 359 2589 142 
Q 2241 -75 1856 -75 
Q 1575 -75 1351 44 
Q 1128 163 984 344 
L 984 -1272 
L 422 -1272 
z
M 931 1641 
Q 931 1000 1190 694 
Q 1450 388 1819 388 
Q 2194 388 2461 705 
Q 2728 1022 2728 1688 
Q 2728 2322 2467 2637 
Q 2206 2953 1844 2953 
Q 1484 2953 1207 2617 
Q 931 2281 931 1641 
z
" transform="scale(0.015625)"/>
       <path id="ArialMT-65" d="M 2694 1069 
L 3275 997 
Q 3138 488 2766 206 
Q 2394 -75 1816 -75 
Q 1088 -75 661 373 
Q 234 822 234 1631 
Q 234 2469 665 2931 
Q 1097 3394 1784 3394 
Q 2450 3394 2872 2941 
Q 3294 2488 3294 1666 
Q 3294 1616 3291 1516 
L 816 1516 
Q 847 969 1125 678 
Q 1403 388 1819 388 
Q 2128 388 2347 550 
Q 2566 713 2694 1069 
z
M 847 1978 
L 2700 1978 
Q 2663 2397 2488 2606 
Q 2219 2931 1791 2931 
Q 1403 2931 1139 2672 
Q 875 2413 847 1978 
z
" transform="scale(0.015625)"/>
      </defs>
      <use xlink:href="#ArialMT-74"/>
      <use xlink:href="#ArialMT-79" x="27.783203"/>
      <use xlink:href="#ArialMT-70" x="77.783203"/>
      <use xlink:href="#ArialMT-65" x="133.398438"/>
     </g>
    </g>
    <g id="PathCollection_7">
     <defs>
      <path id="m599f85aef6" d="M 0 3 
C 0.795609 3 1.55874 2.683901 2.12132 2.12132 
C 2.683901 1.55874 3 0.795609 3 0 
C 3 -0.795609 2.683901 -1.55874 2.12132 -2.12132 
C 1.55874 -2.683901 0.795609 -3 0 -3 
C -0.795609 -3 -1.55874 -2.683901 -2.12132 -2.12132 
C -2.683901 -1.55874 -3 -0.795609 -3 0 
C -3 0.795609 -2.683901 1.55874 -2.12132 2.12132 
C -1.55874 2.683901 -0.795609 3 0 3 
z
" style="stroke: #262626"/>
     </defs>
     <g>
      <use xlink:href="#m599f85aef6" x="437.941875" y="83.341094" style="fill: #262626; stroke: #262626"/>
     </g>
    </g>
    <g id="text_14">
     <!-- pentatonic -->
     <g style="fill: #262626" transform="translate(457.741875 86.228594) scale(0.11 -0.11)">
      <defs>
       <path id="ArialMT-6f" d="M 213 1659 
Q 213 2581 725 3025 
Q 1153 3394 1769 3394 
Q 2453 3394 2887 2945 
Q 3322 2497 3322 1706 
Q 3322 1066 3130 698 
Q 2938 331 2570 128 
Q 2203 -75 1769 -75 
Q 1072 -75 642 372 
Q 213 819 213 1659 
z
M 791 1659 
Q 791 1022 1069 705 
Q 1347 388 1769 388 
Q 2188 388 2466 706 
Q 2744 1025 2744 1678 
Q 2744 2294 2464 2611 
Q 2184 2928 1769 2928 
Q 1347 2928 1069 2612 
Q 791 2297 791 1659 
z
" transform="scale(0.015625)"/>
       <path id="ArialMT-63" d="M 2588 1216 
L 3141 1144 
Q 3050 572 2676 248 
Q 2303 -75 1759 -75 
Q 1078 -75 664 370 
Q 250 816 250 1647 
Q 250 2184 428 2587 
Q 606 2991 970 3192 
Q 1334 3394 1763 3394 
Q 2303 3394 2647 3120 
Q 2991 2847 3088 2344 
L 2541 2259 
Q 2463 2594 2264 2762 
Q 2066 2931 1784 2931 
Q 1359 2931 1093 2626 
Q 828 2322 828 1663 
Q 828 994 1084 691 
Q 1341 388 1753 388 
Q 2084 388 2306 591 
Q 2528 794 2588 1216 
z
" transform="scale(0.015625)"/>
      </defs>
      <use xlink:href="#ArialMT-70"/>
      <use xlink:href="#ArialMT-65" x="55.615234"/>
      <use xlink:href="#ArialMT-6e" x="111.230469"/>
      <use xlink:href="#ArialMT-74" x="166.845703"/>
      <use xlink:href="#ArialMT-61" x="194.628906"/>
      <use xlink:href="#ArialMT-74" x="250.244141"/>
      <use xlink:href="#ArialMT-6f" x="278.027344"/>
      <use xlink:href="#ArialMT-6e" x="333.642578"/>
      <use xlink:href="#ArialMT-69" x="389.257812"/>
      <use xlink:href="#ArialMT-63" x="411.474609"/>
     </g>
    </g>
    <g id="PathCollection_8">
     <defs>
      <path id="m9a84be0085" d="M 0 3 
C 0.795609 3 1.55874 2.683901 2.12132 2.12132 
C 2.683901 1.55874 3 0.795609 3 0 
C 3 -0.795609 2.683901 -1.55874 2.12132 -2.12132 
C 1.55874 -2.683901 0.795609 -3 0 -3 
C -0.795609 -3 -1.55874 -2.683901 -2.12132 -2.12132 
C -2.683901 -1.55874 -3 -0.795609 -3 0 
C -3 0.795609 -2.683901 1.55874 -2.12132 2.12132 
C -1.55874 2.683901 -0.795609 3 0 3 
z
" style="stroke: #000000"/>
     </defs>
     <g>
      <use xlink:href="#m9a84be0085" x="437.941875" y="98.900937" style="stroke: #000000"/>
     </g>
    </g>
    <g id="text_15">
     <!-- chromatic -->
     <g style="fill: #262626" transform="translate(457.741875 101.788437) scale(0.11 -0.11)">
      <defs>
       <path id="ArialMT-68" d="M 422 0 
L 422 4581 
L 984 4581 
L 984 2938 
Q 1378 3394 1978 3394 
Q 2347 3394 2619 3248 
Q 2891 3103 3008 2847 
Q 3125 2591 3125 2103 
L 3125 0 
L 2563 0 
L 2563 2103 
Q 2563 2525 2380 2717 
Q 2197 2909 1863 2909 
Q 1613 2909 1392 2779 
Q 1172 2650 1078 2428 
Q 984 2206 984 1816 
L 984 0 
L 422 0 
z
" transform="scale(0.015625)"/>
      </defs>
      <use xlink:href="#ArialMT-63"/>
      <use xlink:href="#ArialMT-68" x="50"/>
      <use xlink:href="#ArialMT-72" x="105.615234"/>
      <use xlink:href="#ArialMT-6f" x="138.916016"/>
      <use xlink:href="#ArialMT-6d" x="194.53125"/>
      <use xlink:href="#ArialMT-61" x="277.832031"/>
      <use xlink:href="#ArialMT-74" x="333.447266"/>
      <use xlink:href="#ArialMT-69" x="361.230469"/>
      <use xlink:href="#ArialMT-63" x="383.447266"/>
     </g>
    </g>
    <g id="patch_12">
     <path d="M 426.941875 117.348281 
L 448.941875 117.348281 
L 448.941875 109.648281 
L 426.941875 109.648281 
z
" style="fill: #5875a4; stroke: #ffffff; stroke-linejoin: miter"/>
    </g>
    <g id="text_16">
     <!-- pentatonic -->
     <g style="fill: #262626" transform="translate(457.741875 117.348281) scale(0.11 -0.11)">
      <use xlink:href="#ArialMT-70"/>
      <use xlink:href="#ArialMT-65" x="55.615234"/>
      <use xlink:href="#ArialMT-6e" x="111.230469"/>
      <use xlink:href="#ArialMT-74" x="166.845703"/>
      <use xlink:href="#ArialMT-61" x="194.628906"/>
      <use xlink:href="#ArialMT-74" x="250.244141"/>
      <use xlink:href="#ArialMT-6f" x="278.027344"/>
      <use xlink:href="#ArialMT-6e" x="333.642578"/>
      <use xlink:href="#ArialMT-69" x="389.257812"/>
      <use xlink:href="#ArialMT-63" x="411.474609"/>
     </g>
    </g>
    <g id="patch_13">
     <path d="M 426.941875 132.908125 
L 448.941875 132.908125 
L 448.941875 125.208125 
L 426.941875 125.208125 
z
" style="fill: #cc8963; stroke: #ffffff; stroke-linejoin: miter"/>
    </g>
    <g id="text_17">
     <!-- chromatic -->
     <g style="fill: #262626" transform="translate(457.741875 132.908125) scale(0.11 -0.11)">
      <use xlink:href="#ArialMT-63"/>
      <use xlink:href="#ArialMT-68" x="50"/>
      <use xlink:href="#ArialMT-72" x="105.615234"/>
      <use xlink:href="#ArialMT-6f" x="138.916016"/>
      <use xlink:href="#ArialMT-6d" x="194.53125"/>
      <use xlink:href="#ArialMT-61" x="277.832031"/>
      <use xlink:href="#ArialMT-74" x="333.447266"/>
      <use xlink:href="#ArialMT-69" x="361.230469"/>
      <use xlink:href="#ArialMT-63" x="383.447266"/>
     </g>
    </g>
   </g>
  </g>
 </g>
 <defs>
  <clipPath id="p73b799b1e5">
   <rect x="72" y="51.84" width="446.4" height="332.64"/>
  </clipPath>
 </defs>
</svg>
