<?xml version="1.0" encoding="utf-8" standalone="no"?>
<!DOCTYPE svg PUBLIC "-//W3C//DTD SVG 1.1//EN"
  "http://www.w3.org/Graphics/SVG/1.1/DTD/svg11.dtd">
<svg xmlns:xlink="http://www.w3.org/1999/xlink" width="360pt" height="360pt" viewBox="0 0 360 360" xmlns="http://www.w3.org/2000/svg" version="1.1">
 <metadata>
  <rdf:RDF xmlns:dc="http://purl.org/dc/elements/1.1/" xmlns:cc="http://creativecommons.org/ns#" xmlns:rdf="http://www.w3.org/1999/02/22-rdf-syntax-ns#">
   <cc:Work>
    <dc:type rdf:resource="http://purl.org/dc/dcmitype/StillImage"/>
    <dc:date>2025-01-27T18:45:48.569588</dc:date>
    <dc:format>image/svg+xml</dc:format>
    <dc:creator>
     <cc:Agent>
      <dc:title>Matplotlib v3.7.2, https://matplotlib.org/</dc:title>
     </cc:Agent>
    </dc:creator>
   </cc:Work>
  </rdf:RDF>
 </metadata>
 <defs>
  <style type="text/css">*{stroke-linejoin: round; stroke-linecap: butt}</style>
 </defs>
 <g id="figure_1">
  <g id="patch_1">
   <path d="M 0 360 
L 360 360 
L 360 0 
L 0 0 
z
" style="fill: #ffffff"/>
  </g>
  <g id="axes_1">
   <g id="patch_2">
    <path d="M 50.5325 320.92 
L 349.2 320.92 
L 349.2 10.8 
L 50.5325 10.8 
z
" style="fill: #eaeaf2"/>
   </g>
   <g id="matplotlib.axis_1">
    <g id="xtick_1">
     <g id="text_1">
      <!-- BP_5ue -->
      <g style="fill: #262626" transform="translate(107.407188 335.077812) scale(0.1 -0.1)">
       <defs>
        <path id="ArialMT-42" d="M 469 0 
L 469 4581 
L 2188 4581 
Q 2713 4581 3030 4442 
Q 3347 4303 3526 4014 
Q 3706 3725 3706 3409 
Q 3706 3116 3547 2856 
Q 3388 2597 3066 2438 
Q 3481 2316 3704 2022 
Q 3928 1728 3928 1328 
Q 3928 1006 3792 729 
Q 3656 453 3456 303 
Q 3256 153 2954 76 
Q 2653 0 2216 0 
L 469 0 
z
M 1075 2656 
L 2066 2656 
Q 2469 2656 2644 2709 
Q 2875 2778 2992 2937 
Q 3109 3097 3109 3338 
Q 3109 3566 3000 3739 
Q 2891 3913 2687 3977 
Q 2484 4041 1991 4041 
L 1075 4041 
L 1075 2656 
z
M 1075 541 
L 2216 541 
Q 2509 541 2628 563 
Q 2838 600 2978 687 
Q 3119 775 3209 942 
Q 3300 1109 3300 1328 
Q 3300 1584 3169 1773 
Q 3038 1963 2805 2039 
Q 2572 2116 2134 2116 
L 1075 2116 
L 1075 541 
z
" transform="scale(0.015625)"/>
        <path id="ArialMT-50" d="M 494 0 
L 494 4581 
L 2222 4581 
Q 2678 4581 2919 4538 
Q 3256 4481 3484 4323 
Q 3713 4166 3852 3881 
Q 3991 3597 3991 3256 
Q 3991 2672 3619 2267 
Q 3247 1863 2275 1863 
L 1100 1863 
L 1100 0 
L 494 0 
z
M 1100 2403 
L 2284 2403 
Q 2872 2403 3119 2622 
Q 3366 2841 3366 3238 
Q 3366 3525 3220 3729 
Q 3075 3934 2838 4000 
Q 2684 4041 2272 4041 
L 1100 4041 
L 1100 2403 
z
" transform="scale(0.015625)"/>
        <path id="ArialMT-5f" d="M -97 -1272 
L -97 -866 
L 3631 -866 
L 3631 -1272 
L -97 -1272 
z
" transform="scale(0.015625)"/>
        <path id="ArialMT-35" d="M 266 1200 
L 856 1250 
Q 922 819 1161 601 
Q 1400 384 1738 384 
Q 2144 384 2425 690 
Q 2706 997 2706 1503 
Q 2706 1984 2436 2262 
Q 2166 2541 1728 2541 
Q 1456 2541 1237 2417 
Q 1019 2294 894 2097 
L 366 2166 
L 809 4519 
L 3088 4519 
L 3088 3981 
L 1259 3981 
L 1013 2750 
Q 1425 3038 1878 3038 
Q 2478 3038 2890 2622 
Q 3303 2206 3303 1553 
Q 3303 931 2941 478 
Q 2500 -78 1738 -78 
Q 1113 -78 717 272 
Q 322 622 266 1200 
z
" transform="scale(0.015625)"/>
        <path id="ArialMT-75" d="M 2597 0 
L 2597 488 
Q 2209 -75 1544 -75 
Q 1250 -75 995 37 
Q 741 150 617 320 
Q 494 491 444 738 
Q 409 903 409 1263 
L 409 3319 
L 972 3319 
L 972 1478 
Q 972 1038 1006 884 
Q 1059 663 1231 536 
Q 1403 409 1656 409 
Q 1909 409 2131 539 
Q 2353 669 2445 892 
Q 2538 1116 2538 1541 
L 2538 3319 
L 3100 3319 
L 3100 0 
L 2597 0 
z
" transform="scale(0.015625)"/>
        <path id="ArialMT-65" d="M 2694 1069 
L 3275 997 
Q 3138 488 2766 206 
Q 2394 -75 1816 -75 
Q 1088 -75 661 373 
Q 234 822 234 1631 
Q 234 2469 665 2931 
Q 1097 3394 1784 3394 
Q 2450 3394 2872 2941 
Q 3294 2488 3294 1666 
Q 3294 1616 3291 1516 
L 816 1516 
Q 847 969 1125 678 
Q 1403 388 1819 388 
Q 2128 388 2347 550 
Q 2566 713 2694 1069 
z
M 847 1978 
L 2700 1978 
Q 2663 2397 2488 2606 
Q 2219 2931 1791 2931 
Q 1403 2931 1139 2672 
Q 875 2413 847 1978 
z
" transform="scale(0.015625)"/>
       </defs>
       <use xlink:href="#ArialMT-42"/>
       <use xlink:href="#ArialMT-50" x="66.699219"/>
       <use xlink:href="#ArialMT-5f" x="133.398438"/>
       <use xlink:href="#ArialMT-35" x="189.013672"/>
       <use xlink:href="#ArialMT-75" x="244.628906"/>
       <use xlink:href="#ArialMT-65" x="300.244141"/>
      </g>
     </g>
    </g>
    <g id="xtick_2">
     <g id="text_2">
      <!-- BP_p -->
      <g style="fill: #262626" transform="translate(262.301875 335.077812) scale(0.1 -0.1)">
       <defs>
        <path id="ArialMT-70" d="M 422 -1272 
L 422 3319 
L 934 3319 
L 934 2888 
Q 1116 3141 1344 3267 
Q 1572 3394 1897 3394 
Q 2322 3394 2647 3175 
Q 2972 2956 3137 2557 
Q 3303 2159 3303 1684 
Q 3303 1175 3120 767 
Q 2938 359 2589 142 
Q 2241 -75 1856 -75 
Q 1575 -75 1351 44 
Q 1128 163 984 344 
L 984 -1272 
L 422 -1272 
z
M 931 1641 
Q 931 1000 1190 694 
Q 1450 388 1819 388 
Q 2194 388 2461 705 
Q 2728 1022 2728 1688 
Q 2728 2322 2467 2637 
Q 2206 2953 1844 2953 
Q 1484 2953 1207 2617 
Q 931 2281 931 1641 
z
" transform="scale(0.015625)"/>
       </defs>
       <use xlink:href="#ArialMT-42"/>
       <use xlink:href="#ArialMT-50" x="66.699219"/>
       <use xlink:href="#ArialMT-5f" x="133.398438"/>
       <use xlink:href="#ArialMT-70" x="189.013672"/>
      </g>
     </g>
    </g>
    <g id="text_3">
     <!-- set -->
     <g style="fill: #262626" transform="translate(193.196719 348.223125) scale(0.1 -0.1)">
      <defs>
       <path id="ArialMT-73" d="M 197 991 
L 753 1078 
Q 800 744 1014 566 
Q 1228 388 1613 388 
Q 2000 388 2187 545 
Q 2375 703 2375 916 
Q 2375 1106 2209 1216 
Q 2094 1291 1634 1406 
Q 1016 1563 777 1677 
Q 538 1791 414 1992 
Q 291 2194 291 2438 
Q 291 2659 392 2848 
Q 494 3038 669 3163 
Q 800 3259 1026 3326 
Q 1253 3394 1513 3394 
Q 1903 3394 2198 3281 
Q 2494 3169 2634 2976 
Q 2775 2784 2828 2463 
L 2278 2388 
Q 2241 2644 2061 2787 
Q 1881 2931 1553 2931 
Q 1166 2931 1000 2803 
Q 834 2675 834 2503 
Q 834 2394 903 2306 
Q 972 2216 1119 2156 
Q 1203 2125 1616 2013 
Q 2213 1853 2448 1751 
Q 2684 1650 2818 1456 
Q 2953 1263 2953 975 
Q 2953 694 2789 445 
Q 2625 197 2315 61 
Q 2006 -75 1616 -75 
Q 969 -75 630 194 
Q 291 463 197 991 
z
" transform="scale(0.015625)"/>
       <path id="ArialMT-74" d="M 1650 503 
L 1731 6 
Q 1494 -44 1306 -44 
Q 1000 -44 831 53 
Q 663 150 594 308 
Q 525 466 525 972 
L 525 2881 
L 113 2881 
L 113 3319 
L 525 3319 
L 525 4141 
L 1084 4478 
L 1084 3319 
L 1650 3319 
L 1650 2881 
L 1084 2881 
L 1084 941 
Q 1084 700 1114 631 
Q 1144 563 1211 522 
Q 1278 481 1403 481 
Q 1497 481 1650 503 
z
" transform="scale(0.015625)"/>
      </defs>
      <use xlink:href="#ArialMT-73"/>
      <use xlink:href="#ArialMT-65" x="50"/>
      <use xlink:href="#ArialMT-74" x="105.615234"/>
     </g>
    </g>
   </g>
   <g id="matplotlib.axis_2">
    <g id="ytick_1">
     <g id="line2d_1">
      <path d="M 50.5325 290.974752 
L 349.2 290.974752 
" clip-path="url(#p64199f1071)" style="fill: none; stroke: #ffffff; stroke-width: 0.8; stroke-linecap: round"/>
     </g>
     <g id="text_4">
      <!-- −0.2 -->
      <g style="fill: #262626" transform="translate(23.791875 294.553658) scale(0.1 -0.1)">
       <defs>
        <path id="ArialMT-2212" d="M 3381 1997 
L 356 1997 
L 356 2522 
L 3381 2522 
L 3381 1997 
z
" transform="scale(0.015625)"/>
        <path id="ArialMT-30" d="M 266 2259 
Q 266 3072 433 3567 
Q 600 4063 929 4331 
Q 1259 4600 1759 4600 
Q 2128 4600 2406 4451 
Q 2684 4303 2865 4023 
Q 3047 3744 3150 3342 
Q 3253 2941 3253 2259 
Q 3253 1453 3087 958 
Q 2922 463 2592 192 
Q 2263 -78 1759 -78 
Q 1097 -78 719 397 
Q 266 969 266 2259 
z
M 844 2259 
Q 844 1131 1108 757 
Q 1372 384 1759 384 
Q 2147 384 2411 759 
Q 2675 1134 2675 2259 
Q 2675 3391 2411 3762 
Q 2147 4134 1753 4134 
Q 1366 4134 1134 3806 
Q 844 3388 844 2259 
z
" transform="scale(0.015625)"/>
        <path id="ArialMT-2e" d="M 581 0 
L 581 641 
L 1222 641 
L 1222 0 
L 581 0 
z
" transform="scale(0.015625)"/>
        <path id="ArialMT-32" d="M 3222 541 
L 3222 0 
L 194 0 
Q 188 203 259 391 
Q 375 700 629 1000 
Q 884 1300 1366 1694 
Q 2113 2306 2375 2664 
Q 2638 3022 2638 3341 
Q 2638 3675 2398 3904 
Q 2159 4134 1775 4134 
Q 1369 4134 1125 3890 
Q 881 3647 878 3216 
L 300 3275 
Q 359 3922 746 4261 
Q 1134 4600 1788 4600 
Q 2447 4600 2831 4234 
Q 3216 3869 3216 3328 
Q 3216 3053 3103 2787 
Q 2991 2522 2730 2228 
Q 2469 1934 1863 1422 
Q 1356 997 1212 845 
Q 1069 694 975 541 
L 3222 541 
z
" transform="scale(0.015625)"/>
       </defs>
       <use xlink:href="#ArialMT-2212"/>
       <use xlink:href="#ArialMT-30" x="58.398438"/>
       <use xlink:href="#ArialMT-2e" x="114.013672"/>
       <use xlink:href="#ArialMT-32" x="141.796875"/>
      </g>
     </g>
    </g>
    <g id="ytick_2">
     <g id="line2d_2">
      <path d="M 50.5325 237.484767 
L 349.2 237.484767 
" clip-path="url(#p64199f1071)" style="fill: none; stroke: #ffffff; stroke-width: 0.8; stroke-linecap: round"/>
     </g>
     <g id="text_5">
      <!-- 0.0 -->
      <g style="fill: #262626" transform="translate(29.6325 241.063673) scale(0.1 -0.1)">
       <use xlink:href="#ArialMT-30"/>
       <use xlink:href="#ArialMT-2e" x="55.615234"/>
       <use xlink:href="#ArialMT-30" x="83.398438"/>
      </g>
     </g>
    </g>
    <g id="ytick_3">
     <g id="line2d_3">
      <path d="M 50.5325 183.994781 
L 349.2 183.994781 
" clip-path="url(#p64199f1071)" style="fill: none; stroke: #ffffff; stroke-width: 0.8; stroke-linecap: round"/>
     </g>
     <g id="text_6">
      <!-- 0.2 -->
      <g style="fill: #262626" transform="translate(29.6325 187.573688) scale(0.1 -0.1)">
       <use xlink:href="#ArialMT-30"/>
       <use xlink:href="#ArialMT-2e" x="55.615234"/>
       <use xlink:href="#ArialMT-32" x="83.398438"/>
      </g>
     </g>
    </g>
    <g id="ytick_4">
     <g id="line2d_4">
      <path d="M 50.5325 130.504796 
L 349.2 130.504796 
" clip-path="url(#p64199f1071)" style="fill: none; stroke: #ffffff; stroke-width: 0.8; stroke-linecap: round"/>
     </g>
     <g id="text_7">
      <!-- 0.4 -->
      <g style="fill: #262626" transform="translate(29.6325 134.083702) scale(0.1 -0.1)">
       <defs>
        <path id="ArialMT-34" d="M 2069 0 
L 2069 1097 
L 81 1097 
L 81 1613 
L 2172 4581 
L 2631 4581 
L 2631 1613 
L 3250 1613 
L 3250 1097 
L 2631 1097 
L 2631 0 
L 2069 0 
z
M 2069 1613 
L 2069 3678 
L 634 1613 
L 2069 1613 
z
" transform="scale(0.015625)"/>
       </defs>
       <use xlink:href="#ArialMT-30"/>
       <use xlink:href="#ArialMT-2e" x="55.615234"/>
       <use xlink:href="#ArialMT-34" x="83.398438"/>
      </g>
     </g>
    </g>
    <g id="ytick_5">
     <g id="line2d_5">
      <path d="M 50.5325 77.014811 
L 349.2 77.014811 
" clip-path="url(#p64199f1071)" style="fill: none; stroke: #ffffff; stroke-width: 0.8; stroke-linecap: round"/>
     </g>
     <g id="text_8">
      <!-- 0.6 -->
      <g style="fill: #262626" transform="translate(29.6325 80.593717) scale(0.1 -0.1)">
       <defs>
        <path id="ArialMT-36" d="M 3184 3459 
L 2625 3416 
Q 2550 3747 2413 3897 
Q 2184 4138 1850 4138 
Q 1581 4138 1378 3988 
Q 1113 3794 959 3422 
Q 806 3050 800 2363 
Q 1003 2672 1297 2822 
Q 1591 2972 1913 2972 
Q 2475 2972 2870 2558 
Q 3266 2144 3266 1488 
Q 3266 1056 3080 686 
Q 2894 316 2569 119 
Q 2244 -78 1831 -78 
Q 1128 -78 684 439 
Q 241 956 241 2144 
Q 241 3472 731 4075 
Q 1159 4600 1884 4600 
Q 2425 4600 2770 4297 
Q 3116 3994 3184 3459 
z
M 888 1484 
Q 888 1194 1011 928 
Q 1134 663 1356 523 
Q 1578 384 1822 384 
Q 2178 384 2434 671 
Q 2691 959 2691 1453 
Q 2691 1928 2437 2201 
Q 2184 2475 1800 2475 
Q 1419 2475 1153 2201 
Q 888 1928 888 1484 
z
" transform="scale(0.015625)"/>
       </defs>
       <use xlink:href="#ArialMT-30"/>
       <use xlink:href="#ArialMT-2e" x="55.615234"/>
       <use xlink:href="#ArialMT-36" x="83.398438"/>
      </g>
     </g>
    </g>
    <g id="ytick_6">
     <g id="line2d_6">
      <path d="M 50.5325 23.524826 
L 349.2 23.524826 
" clip-path="url(#p64199f1071)" style="fill: none; stroke: #ffffff; stroke-width: 0.8; stroke-linecap: round"/>
     </g>
     <g id="text_9">
      <!-- 0.8 -->
      <g style="fill: #262626" transform="translate(29.6325 27.103732) scale(0.1 -0.1)">
       <defs>
        <path id="ArialMT-38" d="M 1131 2484 
Q 781 2613 612 2850 
Q 444 3088 444 3419 
Q 444 3919 803 4259 
Q 1163 4600 1759 4600 
Q 2359 4600 2725 4251 
Q 3091 3903 3091 3403 
Q 3091 3084 2923 2848 
Q 2756 2613 2416 2484 
Q 2838 2347 3058 2040 
Q 3278 1734 3278 1309 
Q 3278 722 2862 322 
Q 2447 -78 1769 -78 
Q 1091 -78 675 323 
Q 259 725 259 1325 
Q 259 1772 486 2073 
Q 713 2375 1131 2484 
z
M 1019 3438 
Q 1019 3113 1228 2906 
Q 1438 2700 1772 2700 
Q 2097 2700 2305 2904 
Q 2513 3109 2513 3406 
Q 2513 3716 2298 3927 
Q 2084 4138 1766 4138 
Q 1444 4138 1231 3931 
Q 1019 3725 1019 3438 
z
M 838 1322 
Q 838 1081 952 856 
Q 1066 631 1291 507 
Q 1516 384 1775 384 
Q 2178 384 2440 643 
Q 2703 903 2703 1303 
Q 2703 1709 2433 1975 
Q 2163 2241 1756 2241 
Q 1359 2241 1098 1978 
Q 838 1716 838 1322 
z
" transform="scale(0.015625)"/>
       </defs>
       <use xlink:href="#ArialMT-30"/>
       <use xlink:href="#ArialMT-2e" x="55.615234"/>
       <use xlink:href="#ArialMT-38" x="83.398438"/>
      </g>
     </g>
    </g>
    <g id="text_10">
     <!-- rate shifted - rate swapped (NN) -->
     <g style="fill: #262626" transform="translate(17.687188 236.995156) rotate(-90) scale(0.1 -0.1)">
      <defs>
       <path id="ArialMT-72" d="M 416 0 
L 416 3319 
L 922 3319 
L 922 2816 
Q 1116 3169 1280 3281 
Q 1444 3394 1641 3394 
Q 1925 3394 2219 3213 
L 2025 2691 
Q 1819 2813 1613 2813 
Q 1428 2813 1281 2702 
Q 1134 2591 1072 2394 
Q 978 2094 978 1738 
L 978 0 
L 416 0 
z
" transform="scale(0.015625)"/>
       <path id="ArialMT-61" d="M 2588 409 
Q 2275 144 1986 34 
Q 1697 -75 1366 -75 
Q 819 -75 525 192 
Q 231 459 231 875 
Q 231 1119 342 1320 
Q 453 1522 633 1644 
Q 813 1766 1038 1828 
Q 1203 1872 1538 1913 
Q 2219 1994 2541 2106 
Q 2544 2222 2544 2253 
Q 2544 2597 2384 2738 
Q 2169 2928 1744 2928 
Q 1347 2928 1158 2789 
Q 969 2650 878 2297 
L 328 2372 
Q 403 2725 575 2942 
Q 747 3159 1072 3276 
Q 1397 3394 1825 3394 
Q 2250 3394 2515 3294 
Q 2781 3194 2906 3042 
Q 3031 2891 3081 2659 
Q 3109 2516 3109 2141 
L 3109 1391 
Q 3109 606 3145 398 
Q 3181 191 3288 0 
L 2700 0 
Q 2613 175 2588 409 
z
M 2541 1666 
Q 2234 1541 1622 1453 
Q 1275 1403 1131 1340 
Q 988 1278 909 1158 
Q 831 1038 831 891 
Q 831 666 1001 516 
Q 1172 366 1500 366 
Q 1825 366 2078 508 
Q 2331 650 2450 897 
Q 2541 1088 2541 1459 
L 2541 1666 
z
" transform="scale(0.015625)"/>
       <path id="ArialMT-20" transform="scale(0.015625)"/>
       <path id="ArialMT-68" d="M 422 0 
L 422 4581 
L 984 4581 
L 984 2938 
Q 1378 3394 1978 3394 
Q 2347 3394 2619 3248 
Q 2891 3103 3008 2847 
Q 3125 2591 3125 2103 
L 3125 0 
L 2563 0 
L 2563 2103 
Q 2563 2525 2380 2717 
Q 2197 2909 1863 2909 
Q 1613 2909 1392 2779 
Q 1172 2650 1078 2428 
Q 984 2206 984 1816 
L 984 0 
L 422 0 
z
" transform="scale(0.015625)"/>
       <path id="ArialMT-69" d="M 425 3934 
L 425 4581 
L 988 4581 
L 988 3934 
L 425 3934 
z
M 425 0 
L 425 3319 
L 988 3319 
L 988 0 
L 425 0 
z
" transform="scale(0.015625)"/>
       <path id="ArialMT-66" d="M 556 0 
L 556 2881 
L 59 2881 
L 59 3319 
L 556 3319 
L 556 3672 
Q 556 4006 616 4169 
Q 697 4388 901 4523 
Q 1106 4659 1475 4659 
Q 1713 4659 2000 4603 
L 1916 4113 
Q 1741 4144 1584 4144 
Q 1328 4144 1222 4034 
Q 1116 3925 1116 3625 
L 1116 3319 
L 1763 3319 
L 1763 2881 
L 1116 2881 
L 1116 0 
L 556 0 
z
" transform="scale(0.015625)"/>
       <path id="ArialMT-64" d="M 2575 0 
L 2575 419 
Q 2259 -75 1647 -75 
Q 1250 -75 917 144 
Q 584 363 401 755 
Q 219 1147 219 1656 
Q 219 2153 384 2558 
Q 550 2963 881 3178 
Q 1213 3394 1622 3394 
Q 1922 3394 2156 3267 
Q 2391 3141 2538 2938 
L 2538 4581 
L 3097 4581 
L 3097 0 
L 2575 0 
z
M 797 1656 
Q 797 1019 1065 703 
Q 1334 388 1700 388 
Q 2069 388 2326 689 
Q 2584 991 2584 1609 
Q 2584 2291 2321 2609 
Q 2059 2928 1675 2928 
Q 1300 2928 1048 2622 
Q 797 2316 797 1656 
z
" transform="scale(0.015625)"/>
       <path id="ArialMT-2d" d="M 203 1375 
L 203 1941 
L 1931 1941 
L 1931 1375 
L 203 1375 
z
" transform="scale(0.015625)"/>
       <path id="ArialMT-77" d="M 1034 0 
L 19 3319 
L 600 3319 
L 1128 1403 
L 1325 691 
Q 1338 744 1497 1375 
L 2025 3319 
L 2603 3319 
L 3100 1394 
L 3266 759 
L 3456 1400 
L 4025 3319 
L 4572 3319 
L 3534 0 
L 2950 0 
L 2422 1988 
L 2294 2553 
L 1622 0 
L 1034 0 
z
" transform="scale(0.015625)"/>
       <path id="ArialMT-28" d="M 1497 -1347 
Q 1031 -759 709 28 
Q 388 816 388 1659 
Q 388 2403 628 3084 
Q 909 3875 1497 4659 
L 1900 4659 
Q 1522 4009 1400 3731 
Q 1209 3300 1100 2831 
Q 966 2247 966 1656 
Q 966 153 1900 -1347 
L 1497 -1347 
z
" transform="scale(0.015625)"/>
       <path id="ArialMT-4e" d="M 488 0 
L 488 4581 
L 1109 4581 
L 3516 984 
L 3516 4581 
L 4097 4581 
L 4097 0 
L 3475 0 
L 1069 3600 
L 1069 0 
L 488 0 
z
" transform="scale(0.015625)"/>
       <path id="ArialMT-29" d="M 791 -1347 
L 388 -1347 
Q 1322 153 1322 1656 
Q 1322 2244 1188 2822 
Q 1081 3291 891 3722 
Q 769 4003 388 4659 
L 791 4659 
Q 1378 3875 1659 3084 
Q 1900 2403 1900 1659 
Q 1900 816 1576 28 
Q 1253 -759 791 -1347 
z
" transform="scale(0.015625)"/>
      </defs>
      <use xlink:href="#ArialMT-72"/>
      <use xlink:href="#ArialMT-61" x="33.300781"/>
      <use xlink:href="#ArialMT-74" x="88.916016"/>
      <use xlink:href="#ArialMT-65" x="116.699219"/>
      <use xlink:href="#ArialMT-20" x="172.314453"/>
      <use xlink:href="#ArialMT-73" x="200.097656"/>
      <use xlink:href="#ArialMT-68" x="250.097656"/>
      <use xlink:href="#ArialMT-69" x="305.712891"/>
      <use xlink:href="#ArialMT-66" x="327.929688"/>
      <use xlink:href="#ArialMT-74" x="355.712891"/>
      <use xlink:href="#ArialMT-65" x="383.496094"/>
      <use xlink:href="#ArialMT-64" x="439.111328"/>
      <use xlink:href="#ArialMT-20" x="494.726562"/>
      <use xlink:href="#ArialMT-2d" x="522.509766"/>
      <use xlink:href="#ArialMT-20" x="555.810547"/>
      <use xlink:href="#ArialMT-72" x="583.59375"/>
      <use xlink:href="#ArialMT-61" x="616.894531"/>
      <use xlink:href="#ArialMT-74" x="672.509766"/>
      <use xlink:href="#ArialMT-65" x="700.292969"/>
      <use xlink:href="#ArialMT-20" x="755.908203"/>
      <use xlink:href="#ArialMT-73" x="783.691406"/>
      <use xlink:href="#ArialMT-77" x="833.691406"/>
      <use xlink:href="#ArialMT-61" x="905.908203"/>
      <use xlink:href="#ArialMT-70" x="961.523438"/>
      <use xlink:href="#ArialMT-70" x="1017.138672"/>
      <use xlink:href="#ArialMT-65" x="1072.753906"/>
      <use xlink:href="#ArialMT-64" x="1128.369141"/>
      <use xlink:href="#ArialMT-20" x="1183.984375"/>
      <use xlink:href="#ArialMT-28" x="1211.767578"/>
      <use xlink:href="#ArialMT-4e" x="1245.068359"/>
      <use xlink:href="#ArialMT-4e" x="1317.285156"/>
      <use xlink:href="#ArialMT-29" x="1389.501953"/>
     </g>
    </g>
   </g>
   <g id="patch_3">
    <path d="M 65.465875 237.484767 
L 184.932875 237.484767 
L 184.932875 168.393536 
L 65.465875 168.393536 
L 65.465875 237.484767 
z
" clip-path="url(#p64199f1071)" style="fill: #3274a1; stroke: #3f3f3f; stroke-width: 1.5; stroke-linejoin: miter"/>
   </g>
   <g id="patch_4">
    <path d="M 214.799625 207.804348 
L 334.266625 207.804348 
L 334.266625 148.61069 
L 214.799625 148.61069 
L 214.799625 207.804348 
z
" clip-path="url(#p64199f1071)" style="fill: #e1812c; stroke: #3f3f3f; stroke-width: 1.5; stroke-linejoin: miter"/>
   </g>
   <g id="PathCollection_1"/>
   <g id="PathCollection_2"/>
   <g id="line2d_7">
    <path d="M 125.199375 237.484767 
L 125.199375 306.823636 
" clip-path="url(#p64199f1071)" style="fill: none; stroke: #3f3f3f; stroke-width: 1.5; stroke-linecap: round"/>
   </g>
   <g id="line2d_8">
    <path d="M 125.199375 168.393536 
L 125.199375 80.703775 
" clip-path="url(#p64199f1071)" style="fill: none; stroke: #3f3f3f; stroke-width: 1.5; stroke-linecap: round"/>
   </g>
   <g id="line2d_9">
    <path d="M 95.332625 306.823636 
L 155.066125 306.823636 
" clip-path="url(#p64199f1071)" style="fill: none; stroke: #3f3f3f; stroke-width: 1.5; stroke-linecap: round"/>
   </g>
   <g id="line2d_10">
    <path d="M 95.332625 80.703775 
L 155.066125 80.703775 
" clip-path="url(#p64199f1071)" style="fill: none; stroke: #3f3f3f; stroke-width: 1.5; stroke-linecap: round"/>
   </g>
   <g id="line2d_11">
    <defs>
     <path id="m08ac1a4b00" d="M 0 3.535534 
L 2.12132 0 
L 0 -3.535534 
L -2.12132 0 
z
" style="stroke: #3f3f3f; stroke-linejoin: miter"/>
    </defs>
    <g clip-path="url(#p64199f1071)">
     <use xlink:href="#m08ac1a4b00" x="125.199375" y="48.312868" style="fill: #3f3f3f; stroke: #3f3f3f; stroke-linejoin: miter"/>
    </g>
   </g>
   <g id="line2d_12">
    <path d="M 274.533125 207.804348 
L 274.533125 286.112026 
" clip-path="url(#p64199f1071)" style="fill: none; stroke: #3f3f3f; stroke-width: 1.5; stroke-linecap: round"/>
   </g>
   <g id="line2d_13">
    <path d="M 274.533125 148.61069 
L 274.533125 77.014811 
" clip-path="url(#p64199f1071)" style="fill: none; stroke: #3f3f3f; stroke-width: 1.5; stroke-linecap: round"/>
   </g>
   <g id="line2d_14">
    <path d="M 244.666375 286.112026 
L 304.399875 286.112026 
" clip-path="url(#p64199f1071)" style="fill: none; stroke: #3f3f3f; stroke-width: 1.5; stroke-linecap: round"/>
   </g>
   <g id="line2d_15">
    <path d="M 244.666375 77.014811 
L 304.399875 77.014811 
" clip-path="url(#p64199f1071)" style="fill: none; stroke: #3f3f3f; stroke-width: 1.5; stroke-linecap: round"/>
   </g>
   <g id="line2d_16">
    <g clip-path="url(#p64199f1071)">
     <use xlink:href="#m08ac1a4b00" x="274.533125" y="24.896364" style="fill: #3f3f3f; stroke: #3f3f3f; stroke-linejoin: miter"/>
    </g>
   </g>
   <g id="line2d_17">
    <path d="M 65.465875 197.367278 
L 184.932875 197.367278 
" clip-path="url(#p64199f1071)" style="fill: none; stroke: #3f3f3f; stroke-width: 1.5; stroke-linecap: round"/>
   </g>
   <g id="line2d_18">
    <path d="M 214.799625 186.270951 
L 334.266625 186.270951 
" clip-path="url(#p64199f1071)" style="fill: none; stroke: #3f3f3f; stroke-width: 1.5; stroke-linecap: round"/>
   </g>
   <g id="patch_5">
    <path d="M 50.5325 320.92 
L 50.5325 10.8 
" style="fill: none; stroke: #ffffff; stroke-width: 0.8; stroke-linejoin: miter; stroke-linecap: square"/>
   </g>
   <g id="patch_6">
    <path d="M 50.5325 320.92 
L 349.2 320.92 
" style="fill: none; stroke: #ffffff; stroke-width: 0.8; stroke-linejoin: miter; stroke-linecap: square"/>
   </g>
   <g id="PathCollection_3">
    <defs>
     <path id="C0_0_c189f31a94" d="M 0 2.5 
C 0.663008 2.5 1.29895 2.236584 1.767767 1.767767 
C 2.236584 1.29895 2.5 0.663008 2.5 -0 
C 2.5 -0.663008 2.236584 -1.29895 1.767767 -1.767767 
C 1.29895 -2.236584 0.663008 -2.5 0 -2.5 
C -0.663008 -2.5 -1.29895 -2.236584 -1.767767 -1.767767 
C -2.236584 -1.29895 -2.5 -0.663008 -2.5 0 
C -2.5 0.663008 -2.236584 1.29895 -1.767767 1.767767 
C -1.29895 2.236584 -0.663008 2.5 0 2.5 
z
"/>
    </defs>
    <g clip-path="url(#p64199f1071)">
     <use xlink:href="#C0_0_c189f31a94" x="91.718285" y="183.994781" style="fill: #292522"/>
    </g>
    <g clip-path="url(#p64199f1071)">
     <use xlink:href="#C0_0_c189f31a94" x="95.332625" y="246.707178" style="fill: #292522"/>
    </g>
    <g clip-path="url(#p64199f1071)">
     <use xlink:href="#C0_0_c189f31a94" x="95.332625" y="290.974752" style="fill: #292522"/>
    </g>
    <g clip-path="url(#p64199f1071)">
     <use xlink:href="#C0_0_c189f31a94" x="95.332625" y="106.869686" style="fill: #292522"/>
    </g>
    <g clip-path="url(#p64199f1071)">
     <use xlink:href="#C0_0_c189f31a94" x="95.332625" y="214.228251" style="fill: #292522"/>
    </g>
    <g clip-path="url(#p64199f1071)">
     <use xlink:href="#C0_0_c189f31a94" x="95.332625" y="187.621221" style="fill: #292522"/>
    </g>
    <g clip-path="url(#p64199f1071)">
     <use xlink:href="#C0_0_c189f31a94" x="95.332625" y="192.909779" style="fill: #292522"/>
    </g>
    <g clip-path="url(#p64199f1071)">
     <use xlink:href="#C0_0_c189f31a94" x="95.332625" y="166.164786" style="fill: #292522"/>
    </g>
    <g clip-path="url(#p64199f1071)">
     <use xlink:href="#C0_0_c189f31a94" x="95.332625" y="129.366711" style="fill: #292522"/>
    </g>
    <g clip-path="url(#p64199f1071)">
     <use xlink:href="#C0_0_c189f31a94" x="95.332625" y="155.61234" style="fill: #292522"/>
    </g>
    <g clip-path="url(#p64199f1071)">
     <use xlink:href="#C0_0_c189f31a94" x="95.332625" y="223.885618" style="fill: #292522"/>
    </g>
    <g clip-path="url(#p64199f1071)">
     <use xlink:href="#C0_0_c189f31a94" x="95.332625" y="121.20219" style="fill: #292522"/>
    </g>
    <g clip-path="url(#p64199f1071)">
     <use xlink:href="#C0_0_c189f31a94" x="92.534825" y="219.654771" style="fill: #292522"/>
    </g>
    <g clip-path="url(#p64199f1071)">
     <use xlink:href="#C0_0_c189f31a94" x="95.332625" y="175.079784" style="fill: #292522"/>
    </g>
    <g clip-path="url(#p64199f1071)">
     <use xlink:href="#C0_0_c189f31a94" x="95.332625" y="282.059754" style="fill: #292522"/>
    </g>
    <g clip-path="url(#p64199f1071)">
     <use xlink:href="#C0_0_c189f31a94" x="95.332625" y="80.703775" style="fill: #292522"/>
    </g>
    <g clip-path="url(#p64199f1071)">
     <use xlink:href="#C0_0_c189f31a94" x="92.954264" y="170.622285" style="fill: #292522"/>
    </g>
    <g clip-path="url(#p64199f1071)">
     <use xlink:href="#C0_0_c189f31a94" x="95.332625" y="141.966936" style="fill: #292522"/>
    </g>
    <g clip-path="url(#p64199f1071)">
     <use xlink:href="#C0_0_c189f31a94" x="90.366152" y="164.543878" style="fill: #292522"/>
    </g>
    <g clip-path="url(#p64199f1071)">
     <use xlink:href="#C0_0_c189f31a94" x="90.092557" y="246.399764" style="fill: #292522"/>
    </g>
    <g clip-path="url(#p64199f1071)">
     <use xlink:href="#C0_0_c189f31a94" x="90.082625" y="237.484767" style="fill: #292522"/>
    </g>
    <g clip-path="url(#p64199f1071)">
     <use xlink:href="#C0_0_c189f31a94" x="95.332625" y="237.484767" style="fill: #292522"/>
    </g>
    <g clip-path="url(#p64199f1071)">
     <use xlink:href="#C0_0_c189f31a94" x="98.204264" y="170.622285" style="fill: #292522"/>
    </g>
    <g clip-path="url(#p64199f1071)">
     <use xlink:href="#C0_0_c189f31a94" x="95.332625" y="203.196314" style="fill: #292522"/>
    </g>
    <g clip-path="url(#p64199f1071)">
     <use xlink:href="#C0_0_c189f31a94" x="95.332625" y="48.312868" style="fill: #292522"/>
    </g>
   </g>
   <g id="PathCollection_4">
    <defs>
     <path id="C1_0_84d5b68ddb" d="M 0 2.5 
C 0.663008 2.5 1.29895 2.236584 1.767767 1.767767 
C 2.236584 1.29895 2.5 0.663008 2.5 -0 
C 2.5 -0.663008 2.236584 -1.29895 1.767767 -1.767767 
C 1.29895 -2.236584 0.663008 -2.5 0 -2.5 
C -0.663008 -2.5 -1.29895 -2.236584 -1.767767 -1.767767 
C -2.236584 -1.29895 -2.5 -0.663008 -2.5 0 
C -2.5 0.663008 -2.236584 1.29895 -1.767767 1.767767 
C -1.29895 2.236584 -0.663008 2.5 0 2.5 
z
"/>
    </defs>
    <g clip-path="url(#p64199f1071)">
     <use xlink:href="#C1_0_84d5b68ddb" x="158.670888" y="226.34102" style="fill: #ffa500"/>
    </g>
    <g clip-path="url(#p64199f1071)">
     <use xlink:href="#C1_0_84d5b68ddb" x="155.066125" y="248.628514" style="fill: #ffa500"/>
    </g>
    <g clip-path="url(#p64199f1071)">
     <use xlink:href="#C1_0_84d5b68ddb" x="155.066125" y="282.059754" style="fill: #ffa500"/>
    </g>
    <g clip-path="url(#p64199f1071)">
     <use xlink:href="#C1_0_84d5b68ddb" x="155.066125" y="173.296784" style="fill: #ffa500"/>
    </g>
    <g clip-path="url(#p64199f1071)">
     <use xlink:href="#C1_0_84d5b68ddb" x="150.630319" y="170.622285" style="fill: #ffa500"/>
    </g>
    <g clip-path="url(#p64199f1071)">
     <use xlink:href="#C1_0_84d5b68ddb" x="153.441793" y="226.78677" style="fill: #ffa500"/>
    </g>
    <g clip-path="url(#p64199f1071)">
     <use xlink:href="#C1_0_84d5b68ddb" x="155.066125" y="231.541435" style="fill: #ffa500"/>
    </g>
    <g clip-path="url(#p64199f1071)">
     <use xlink:href="#C1_0_84d5b68ddb" x="155.066125" y="288.42761" style="fill: #ffa500"/>
    </g>
    <g clip-path="url(#p64199f1071)">
     <use xlink:href="#C1_0_84d5b68ddb" x="155.066125" y="306.823636" style="fill: #ffa500"/>
    </g>
    <g clip-path="url(#p64199f1071)">
     <use xlink:href="#C1_0_84d5b68ddb" x="155.066125" y="197.367278" style="fill: #ffa500"/>
    </g>
   </g>
   <g id="PathCollection_5">
    <defs>
     <path id="C2_0_1a8a554e69" d="M 0 2.5 
C 0.663008 2.5 1.29895 2.236584 1.767767 1.767767 
C 2.236584 1.29895 2.5 0.663008 2.5 -0 
C 2.5 -0.663008 2.236584 -1.29895 1.767767 -1.767767 
C 1.29895 -2.236584 0.663008 -2.5 0 -2.5 
C -0.663008 -2.5 -1.29895 -2.236584 -1.767767 -1.767767 
C -2.236584 -1.29895 -2.5 -0.663008 -2.5 0 
C -2.5 0.663008 -2.236584 1.29895 -1.767767 1.767767 
C -1.29895 2.236584 -0.663008 2.5 0 2.5 
z
"/>
    </defs>
    <g clip-path="url(#p64199f1071)">
     <use xlink:href="#C2_0_1a8a554e69" x="244.666375" y="166.164786" style="fill: #292522"/>
    </g>
    <g clip-path="url(#p64199f1071)">
     <use xlink:href="#C2_0_1a8a554e69" x="244.666375" y="273.144757" style="fill: #292522"/>
    </g>
    <g clip-path="url(#p64199f1071)">
     <use xlink:href="#C2_0_1a8a554e69" x="244.666375" y="228.569769" style="fill: #292522"/>
    </g>
    <g clip-path="url(#p64199f1071)">
     <use xlink:href="#C2_0_1a8a554e69" x="244.666375" y="204.868922" style="fill: #292522"/>
    </g>
    <g clip-path="url(#p64199f1071)">
     <use xlink:href="#C2_0_1a8a554e69" x="244.666375" y="103.759803" style="fill: #292522"/>
    </g>
    <g clip-path="url(#p64199f1071)">
     <use xlink:href="#C2_0_1a8a554e69" x="239.881382" y="183.994781" style="fill: #292522"/>
    </g>
    <g clip-path="url(#p64199f1071)">
     <use xlink:href="#C2_0_1a8a554e69" x="239.633555" y="203.445685" style="fill: #292522"/>
    </g>
    <g clip-path="url(#p64199f1071)">
     <use xlink:href="#C2_0_1a8a554e69" x="248.831207" y="201.824776" style="fill: #292522"/>
    </g>
    <g clip-path="url(#p64199f1071)">
     <use xlink:href="#C2_0_1a8a554e69" x="244.666375" y="79.198076" style="fill: #292522"/>
    </g>
    <g clip-path="url(#p64199f1071)">
     <use xlink:href="#C2_0_1a8a554e69" x="244.666375" y="152.128407" style="fill: #292522"/>
    </g>
    <g clip-path="url(#p64199f1071)">
     <use xlink:href="#C2_0_1a8a554e69" x="240.030171" y="192.909779" style="fill: #292522"/>
    </g>
    <g clip-path="url(#p64199f1071)">
     <use xlink:href="#C2_0_1a8a554e69" x="241.368223" y="141.202793" style="fill: #292522"/>
    </g>
    <g clip-path="url(#p64199f1071)">
     <use xlink:href="#C2_0_1a8a554e69" x="244.666375" y="237.484767" style="fill: #292522"/>
    </g>
    <g clip-path="url(#p64199f1071)">
     <use xlink:href="#C2_0_1a8a554e69" x="244.666375" y="85.929808" style="fill: #292522"/>
    </g>
    <g clip-path="url(#p64199f1071)">
     <use xlink:href="#C2_0_1a8a554e69" x="240.669387" y="219.654771" style="fill: #292522"/>
    </g>
    <g clip-path="url(#p64199f1071)">
     <use xlink:href="#C2_0_1a8a554e69" x="239.943317" y="77.014811" style="fill: #292522"/>
    </g>
    <g clip-path="url(#p64199f1071)">
     <use xlink:href="#C2_0_1a8a554e69" x="244.666375" y="195.255831" style="fill: #292522"/>
    </g>
    <g clip-path="url(#p64199f1071)">
     <use xlink:href="#C2_0_1a8a554e69" x="244.666375" y="161.070502" style="fill: #292522"/>
    </g>
    <g clip-path="url(#p64199f1071)">
     <use xlink:href="#C2_0_1a8a554e69" x="244.666375" y="186.052088" style="fill: #292522"/>
    </g>
    <g clip-path="url(#p64199f1071)">
     <use xlink:href="#C2_0_1a8a554e69" x="254.081207" y="201.824776" style="fill: #292522"/>
    </g>
    <g clip-path="url(#p64199f1071)">
     <use xlink:href="#C2_0_1a8a554e69" x="239.428272" y="272.808342" style="fill: #292522"/>
    </g>
    <g clip-path="url(#p64199f1071)">
     <use xlink:href="#C2_0_1a8a554e69" x="244.666375" y="222.896589" style="fill: #292522"/>
    </g>
    <g clip-path="url(#p64199f1071)">
     <use xlink:href="#C2_0_1a8a554e69" x="244.666375" y="145.092974" style="fill: #292522"/>
    </g>
    <g clip-path="url(#p64199f1071)">
     <use xlink:href="#C2_0_1a8a554e69" x="249.302579" y="192.909779" style="fill: #292522"/>
    </g>
    <g clip-path="url(#p64199f1071)">
     <use xlink:href="#C2_0_1a8a554e69" x="244.666375" y="24.896364" style="fill: #292522"/>
    </g>
   </g>
   <g id="PathCollection_6">
    <defs>
     <path id="C3_0_a11f47fc61" d="M 0 2.5 
C 0.663008 2.5 1.29895 2.236584 1.767767 1.767767 
C 2.236584 1.29895 2.5 0.663008 2.5 -0 
C 2.5 -0.663008 2.236584 -1.29895 1.767767 -1.767767 
C 1.29895 -2.236584 0.663008 -2.5 0 -2.5 
C -0.663008 -2.5 -1.29895 -2.236584 -1.767767 -1.767767 
C -2.236584 -1.29895 -2.5 -0.663008 -2.5 0 
C -2.5 0.663008 -2.236584 1.29895 -1.767767 1.767767 
C -1.29895 2.236584 -0.663008 2.5 0 2.5 
z
"/>
    </defs>
    <g clip-path="url(#p64199f1071)">
     <use xlink:href="#C3_0_a11f47fc61" x="304.399875" y="171.883841" style="fill: #ffa500"/>
    </g>
    <g clip-path="url(#p64199f1071)">
     <use xlink:href="#C3_0_a11f47fc61" x="304.399875" y="199.277634" style="fill: #ffa500"/>
    </g>
    <g clip-path="url(#p64199f1071)">
     <use xlink:href="#C3_0_a11f47fc61" x="304.399875" y="210.739774" style="fill: #ffa500"/>
    </g>
    <g clip-path="url(#p64199f1071)">
     <use xlink:href="#C3_0_a11f47fc61" x="304.399875" y="158.823024" style="fill: #ffa500"/>
    </g>
    <g clip-path="url(#p64199f1071)">
     <use xlink:href="#C3_0_a11f47fc61" x="304.399875" y="77.014811" style="fill: #ffa500"/>
    </g>
    <g clip-path="url(#p64199f1071)">
     <use xlink:href="#C3_0_a11f47fc61" x="304.399875" y="127.358326" style="fill: #ffa500"/>
    </g>
    <g clip-path="url(#p64199f1071)">
     <use xlink:href="#C3_0_a11f47fc61" x="304.399875" y="186.270951" style="fill: #ffa500"/>
    </g>
    <g clip-path="url(#p64199f1071)">
     <use xlink:href="#C3_0_a11f47fc61" x="304.399875" y="286.112026" style="fill: #ffa500"/>
    </g>
    <g clip-path="url(#p64199f1071)">
     <use xlink:href="#C3_0_a11f47fc61" x="299.185646" y="158.240344" style="fill: #ffa500"/>
    </g>
    <g clip-path="url(#p64199f1071)">
     <use xlink:href="#C3_0_a11f47fc61" x="304.399875" y="223.408455" style="fill: #ffa500"/>
    </g>
   </g>
   <g id="legend_1">
    <g id="patch_7">
     <path d="M 154.131875 61.235938 
L 245.600625 61.235938 
Q 247.600625 61.235938 247.600625 59.235938 
L 247.600625 17.8 
Q 247.600625 15.8 245.600625 15.8 
L 154.131875 15.8 
Q 152.131875 15.8 152.131875 17.8 
L 152.131875 59.235938 
Q 152.131875 61.235938 154.131875 61.235938 
z
" style="fill: #eaeaf2; opacity: 0.8; stroke: #cccccc; stroke-linejoin: miter"/>
    </g>
    <g id="text_11">
     <!-- is_musician -->
     <g style="fill: #262626" transform="translate(173.746719 26.957813) scale(0.1 -0.1)">
      <defs>
       <path id="ArialMT-6d" d="M 422 0 
L 422 3319 
L 925 3319 
L 925 2853 
Q 1081 3097 1340 3245 
Q 1600 3394 1931 3394 
Q 2300 3394 2536 3241 
Q 2772 3088 2869 2813 
Q 3263 3394 3894 3394 
Q 4388 3394 4653 3120 
Q 4919 2847 4919 2278 
L 4919 0 
L 4359 0 
L 4359 2091 
Q 4359 2428 4304 2576 
Q 4250 2725 4106 2815 
Q 3963 2906 3769 2906 
Q 3419 2906 3187 2673 
Q 2956 2441 2956 1928 
L 2956 0 
L 2394 0 
L 2394 2156 
Q 2394 2531 2256 2718 
Q 2119 2906 1806 2906 
Q 1569 2906 1367 2781 
Q 1166 2656 1075 2415 
Q 984 2175 984 1722 
L 984 0 
L 422 0 
z
" transform="scale(0.015625)"/>
       <path id="ArialMT-63" d="M 2588 1216 
L 3141 1144 
Q 3050 572 2676 248 
Q 2303 -75 1759 -75 
Q 1078 -75 664 370 
Q 250 816 250 1647 
Q 250 2184 428 2587 
Q 606 2991 970 3192 
Q 1334 3394 1763 3394 
Q 2303 3394 2647 3120 
Q 2991 2847 3088 2344 
L 2541 2259 
Q 2463 2594 2264 2762 
Q 2066 2931 1784 2931 
Q 1359 2931 1093 2626 
Q 828 2322 828 1663 
Q 828 994 1084 691 
Q 1341 388 1753 388 
Q 2084 388 2306 591 
Q 2528 794 2588 1216 
z
" transform="scale(0.015625)"/>
       <path id="ArialMT-6e" d="M 422 0 
L 422 3319 
L 928 3319 
L 928 2847 
Q 1294 3394 1984 3394 
Q 2284 3394 2536 3286 
Q 2788 3178 2913 3003 
Q 3038 2828 3088 2588 
Q 3119 2431 3119 2041 
L 3119 0 
L 2556 0 
L 2556 2019 
Q 2556 2363 2490 2533 
Q 2425 2703 2258 2804 
Q 2091 2906 1866 2906 
Q 1506 2906 1245 2678 
Q 984 2450 984 1813 
L 984 0 
L 422 0 
z
" transform="scale(0.015625)"/>
      </defs>
      <use xlink:href="#ArialMT-69"/>
      <use xlink:href="#ArialMT-73" x="22.216797"/>
      <use xlink:href="#ArialMT-5f" x="72.216797"/>
      <use xlink:href="#ArialMT-6d" x="127.832031"/>
      <use xlink:href="#ArialMT-75" x="211.132812"/>
      <use xlink:href="#ArialMT-73" x="266.748047"/>
      <use xlink:href="#ArialMT-69" x="316.748047"/>
      <use xlink:href="#ArialMT-63" x="338.964844"/>
      <use xlink:href="#ArialMT-69" x="388.964844"/>
      <use xlink:href="#ArialMT-61" x="411.181641"/>
      <use xlink:href="#ArialMT-6e" x="466.796875"/>
     </g>
    </g>
    <g id="PathCollection_7">
     <defs>
      <path id="ma7cde2246a" d="M 0 3 
C 0.795609 3 1.55874 2.683901 2.12132 2.12132 
C 2.683901 1.55874 3 0.795609 3 0 
C 3 -0.795609 2.683901 -1.55874 2.12132 -2.12132 
C 1.55874 -2.683901 0.795609 -3 0 -3 
C -0.795609 -3 -1.55874 -2.683901 -2.12132 -2.12132 
C -2.683901 -1.55874 -3 -0.795609 -3 0 
C -3 0.795609 -2.683901 1.55874 -2.12132 2.12132 
C -1.55874 2.683901 -0.795609 3 0 3 
z
" style="stroke: #292522"/>
     </defs>
     <g>
      <use xlink:href="#ma7cde2246a" x="166.131875" y="38.478125" style="fill: #292522; stroke: #292522"/>
     </g>
    </g>
    <g id="text_12">
     <!-- musician -->
     <g style="fill: #262626" transform="translate(184.131875 41.103125) scale(0.1 -0.1)">
      <use xlink:href="#ArialMT-6d"/>
      <use xlink:href="#ArialMT-75" x="83.300781"/>
      <use xlink:href="#ArialMT-73" x="138.916016"/>
      <use xlink:href="#ArialMT-69" x="188.916016"/>
      <use xlink:href="#ArialMT-63" x="211.132812"/>
      <use xlink:href="#ArialMT-69" x="261.132812"/>
      <use xlink:href="#ArialMT-61" x="283.349609"/>
      <use xlink:href="#ArialMT-6e" x="338.964844"/>
     </g>
    </g>
    <g id="PathCollection_8">
     <defs>
      <path id="m0a0af0bc3e" d="M 0 3 
C 0.795609 3 1.55874 2.683901 2.12132 2.12132 
C 2.683901 1.55874 3 0.795609 3 0 
C 3 -0.795609 2.683901 -1.55874 2.12132 -2.12132 
C 1.55874 -2.683901 0.795609 -3 0 -3 
C -0.795609 -3 -1.55874 -2.683901 -2.12132 -2.12132 
C -2.683901 -1.55874 -3 -0.795609 -3 0 
C -3 0.795609 -2.683901 1.55874 -2.12132 2.12132 
C -1.55874 2.683901 -0.795609 3 0 3 
z
" style="stroke: #ffa500"/>
     </defs>
     <g>
      <use xlink:href="#m0a0af0bc3e" x="166.131875" y="52.623438" style="fill: #ffa500; stroke: #ffa500"/>
     </g>
    </g>
    <g id="text_13">
     <!-- non-musician -->
     <g style="fill: #262626" transform="translate(184.131875 55.248438) scale(0.1 -0.1)">
      <defs>
       <path id="ArialMT-6f" d="M 213 1659 
Q 213 2581 725 3025 
Q 1153 3394 1769 3394 
Q 2453 3394 2887 2945 
Q 3322 2497 3322 1706 
Q 3322 1066 3130 698 
Q 2938 331 2570 128 
Q 2203 -75 1769 -75 
Q 1072 -75 642 372 
Q 213 819 213 1659 
z
M 791 1659 
Q 791 1022 1069 705 
Q 1347 388 1769 388 
Q 2188 388 2466 706 
Q 2744 1025 2744 1678 
Q 2744 2294 2464 2611 
Q 2184 2928 1769 2928 
Q 1347 2928 1069 2612 
Q 791 2297 791 1659 
z
" transform="scale(0.015625)"/>
      </defs>
      <use xlink:href="#ArialMT-6e"/>
      <use xlink:href="#ArialMT-6f" x="55.615234"/>
      <use xlink:href="#ArialMT-6e" x="111.230469"/>
      <use xlink:href="#ArialMT-2d" x="166.845703"/>
      <use xlink:href="#ArialMT-6d" x="200.146484"/>
      <use xlink:href="#ArialMT-75" x="283.447266"/>
      <use xlink:href="#ArialMT-73" x="339.0625"/>
      <use xlink:href="#ArialMT-69" x="389.0625"/>
      <use xlink:href="#ArialMT-63" x="411.279297"/>
      <use xlink:href="#ArialMT-69" x="461.279297"/>
      <use xlink:href="#ArialMT-61" x="483.496094"/>
      <use xlink:href="#ArialMT-6e" x="539.111328"/>
     </g>
    </g>
   </g>
  </g>
 </g>
 <defs>
  <clipPath id="p64199f1071">
   <rect x="50.5325" y="10.8" width="298.6675" height="310.12"/>
  </clipPath>
 </defs>
</svg>
