<?xml version="1.0" encoding="utf-8" standalone="no"?>
<!DOCTYPE svg PUBLIC "-//W3C//DTD SVG 1.1//EN"
  "http://www.w3.org/Graphics/SVG/1.1/DTD/svg11.dtd">
<svg xmlns:xlink="http://www.w3.org/1999/xlink" width="360pt" height="360pt" viewBox="0 0 360 360" xmlns="http://www.w3.org/2000/svg" version="1.1">
 <metadata>
  <rdf:RDF xmlns:dc="http://purl.org/dc/elements/1.1/" xmlns:cc="http://creativecommons.org/ns#" xmlns:rdf="http://www.w3.org/1999/02/22-rdf-syntax-ns#">
   <cc:Work>
    <dc:type rdf:resource="http://purl.org/dc/dcmitype/StillImage"/>
    <dc:date>2025-01-25T20:35:41.840704</dc:date>
    <dc:format>image/svg+xml</dc:format>
    <dc:creator>
     <cc:Agent>
      <dc:title>Matplotlib v3.7.2, https://matplotlib.org/</dc:title>
     </cc:Agent>
    </dc:creator>
   </cc:Work>
  </rdf:RDF>
 </metadata>
 <defs>
  <style type="text/css">*{stroke-linejoin: round; stroke-linecap: butt}</style>
 </defs>
 <g id="figure_1">
  <g id="patch_1">
   <path d="M 0 360 
L 360 360 
L 360 0 
L 0 0 
z
" style="fill: #ffffff"/>
  </g>
  <g id="axes_1">
   <g id="patch_2">
    <path d="M 50.5325 320.92 
L 349.2 320.92 
L 349.2 10.8 
L 50.5325 10.8 
z
" style="fill: #eaeaf2"/>
   </g>
   <g id="matplotlib.axis_1">
    <g id="xtick_1">
     <g id="text_1">
      <!-- BP_5ue -->
      <g style="fill: #262626" transform="translate(107.407188 335.077812) scale(0.1 -0.1)">
       <defs>
        <path id="ArialMT-42" d="M 469 0 
L 469 4581 
L 2188 4581 
Q 2713 4581 3030 4442 
Q 3347 4303 3526 4014 
Q 3706 3725 3706 3409 
Q 3706 3116 3547 2856 
Q 3388 2597 3066 2438 
Q 3481 2316 3704 2022 
Q 3928 1728 3928 1328 
Q 3928 1006 3792 729 
Q 3656 453 3456 303 
Q 3256 153 2954 76 
Q 2653 0 2216 0 
L 469 0 
z
M 1075 2656 
L 2066 2656 
Q 2469 2656 2644 2709 
Q 2875 2778 2992 2937 
Q 3109 3097 3109 3338 
Q 3109 3566 3000 3739 
Q 2891 3913 2687 3977 
Q 2484 4041 1991 4041 
L 1075 4041 
L 1075 2656 
z
M 1075 541 
L 2216 541 
Q 2509 541 2628 563 
Q 2838 600 2978 687 
Q 3119 775 3209 942 
Q 3300 1109 3300 1328 
Q 3300 1584 3169 1773 
Q 3038 1963 2805 2039 
Q 2572 2116 2134 2116 
L 1075 2116 
L 1075 541 
z
" transform="scale(0.015625)"/>
        <path id="ArialMT-50" d="M 494 0 
L 494 4581 
L 2222 4581 
Q 2678 4581 2919 4538 
Q 3256 4481 3484 4323 
Q 3713 4166 3852 3881 
Q 3991 3597 3991 3256 
Q 3991 2672 3619 2267 
Q 3247 1863 2275 1863 
L 1100 1863 
L 1100 0 
L 494 0 
z
M 1100 2403 
L 2284 2403 
Q 2872 2403 3119 2622 
Q 3366 2841 3366 3238 
Q 3366 3525 3220 3729 
Q 3075 3934 2838 4000 
Q 2684 4041 2272 4041 
L 1100 4041 
L 1100 2403 
z
" transform="scale(0.015625)"/>
        <path id="ArialMT-5f" d="M -97 -1272 
L -97 -866 
L 3631 -866 
L 3631 -1272 
L -97 -1272 
z
" transform="scale(0.015625)"/>
        <path id="ArialMT-35" d="M 266 1200 
L 856 1250 
Q 922 819 1161 601 
Q 1400 384 1738 384 
Q 2144 384 2425 690 
Q 2706 997 2706 1503 
Q 2706 1984 2436 2262 
Q 2166 2541 1728 2541 
Q 1456 2541 1237 2417 
Q 1019 2294 894 2097 
L 366 2166 
L 809 4519 
L 3088 4519 
L 3088 3981 
L 1259 3981 
L 1013 2750 
Q 1425 3038 1878 3038 
Q 2478 3038 2890 2622 
Q 3303 2206 3303 1553 
Q 3303 931 2941 478 
Q 2500 -78 1738 -78 
Q 1113 -78 717 272 
Q 322 622 266 1200 
z
" transform="scale(0.015625)"/>
        <path id="ArialMT-75" d="M 2597 0 
L 2597 488 
Q 2209 -75 1544 -75 
Q 1250 -75 995 37 
Q 741 150 617 320 
Q 494 491 444 738 
Q 409 903 409 1263 
L 409 3319 
L 972 3319 
L 972 1478 
Q 972 1038 1006 884 
Q 1059 663 1231 536 
Q 1403 409 1656 409 
Q 1909 409 2131 539 
Q 2353 669 2445 892 
Q 2538 1116 2538 1541 
L 2538 3319 
L 3100 3319 
L 3100 0 
L 2597 0 
z
" transform="scale(0.015625)"/>
        <path id="ArialMT-65" d="M 2694 1069 
L 3275 997 
Q 3138 488 2766 206 
Q 2394 -75 1816 -75 
Q 1088 -75 661 373 
Q 234 822 234 1631 
Q 234 2469 665 2931 
Q 1097 3394 1784 3394 
Q 2450 3394 2872 2941 
Q 3294 2488 3294 1666 
Q 3294 1616 3291 1516 
L 816 1516 
Q 847 969 1125 678 
Q 1403 388 1819 388 
Q 2128 388 2347 550 
Q 2566 713 2694 1069 
z
M 847 1978 
L 2700 1978 
Q 2663 2397 2488 2606 
Q 2219 2931 1791 2931 
Q 1403 2931 1139 2672 
Q 875 2413 847 1978 
z
" transform="scale(0.015625)"/>
       </defs>
       <use xlink:href="#ArialMT-42"/>
       <use xlink:href="#ArialMT-50" x="66.699219"/>
       <use xlink:href="#ArialMT-5f" x="133.398438"/>
       <use xlink:href="#ArialMT-35" x="189.013672"/>
       <use xlink:href="#ArialMT-75" x="244.628906"/>
       <use xlink:href="#ArialMT-65" x="300.244141"/>
      </g>
     </g>
    </g>
    <g id="xtick_2">
     <g id="text_2">
      <!-- BP_p -->
      <g style="fill: #262626" transform="translate(262.301875 335.077812) scale(0.1 -0.1)">
       <defs>
        <path id="ArialMT-70" d="M 422 -1272 
L 422 3319 
L 934 3319 
L 934 2888 
Q 1116 3141 1344 3267 
Q 1572 3394 1897 3394 
Q 2322 3394 2647 3175 
Q 2972 2956 3137 2557 
Q 3303 2159 3303 1684 
Q 3303 1175 3120 767 
Q 2938 359 2589 142 
Q 2241 -75 1856 -75 
Q 1575 -75 1351 44 
Q 1128 163 984 344 
L 984 -1272 
L 422 -1272 
z
M 931 1641 
Q 931 1000 1190 694 
Q 1450 388 1819 388 
Q 2194 388 2461 705 
Q 2728 1022 2728 1688 
Q 2728 2322 2467 2637 
Q 2206 2953 1844 2953 
Q 1484 2953 1207 2617 
Q 931 2281 931 1641 
z
" transform="scale(0.015625)"/>
       </defs>
       <use xlink:href="#ArialMT-42"/>
       <use xlink:href="#ArialMT-50" x="66.699219"/>
       <use xlink:href="#ArialMT-5f" x="133.398438"/>
       <use xlink:href="#ArialMT-70" x="189.013672"/>
      </g>
     </g>
    </g>
    <g id="text_3">
     <!-- set -->
     <g style="fill: #262626" transform="translate(193.196719 348.223125) scale(0.1 -0.1)">
      <defs>
       <path id="ArialMT-73" d="M 197 991 
L 753 1078 
Q 800 744 1014 566 
Q 1228 388 1613 388 
Q 2000 388 2187 545 
Q 2375 703 2375 916 
Q 2375 1106 2209 1216 
Q 2094 1291 1634 1406 
Q 1016 1563 777 1677 
Q 538 1791 414 1992 
Q 291 2194 291 2438 
Q 291 2659 392 2848 
Q 494 3038 669 3163 
Q 800 3259 1026 3326 
Q 1253 3394 1513 3394 
Q 1903 3394 2198 3281 
Q 2494 3169 2634 2976 
Q 2775 2784 2828 2463 
L 2278 2388 
Q 2241 2644 2061 2787 
Q 1881 2931 1553 2931 
Q 1166 2931 1000 2803 
Q 834 2675 834 2503 
Q 834 2394 903 2306 
Q 972 2216 1119 2156 
Q 1203 2125 1616 2013 
Q 2213 1853 2448 1751 
Q 2684 1650 2818 1456 
Q 2953 1263 2953 975 
Q 2953 694 2789 445 
Q 2625 197 2315 61 
Q 2006 -75 1616 -75 
Q 969 -75 630 194 
Q 291 463 197 991 
z
" transform="scale(0.015625)"/>
       <path id="ArialMT-74" d="M 1650 503 
L 1731 6 
Q 1494 -44 1306 -44 
Q 1000 -44 831 53 
Q 663 150 594 308 
Q 525 466 525 972 
L 525 2881 
L 113 2881 
L 113 3319 
L 525 3319 
L 525 4141 
L 1084 4478 
L 1084 3319 
L 1650 3319 
L 1650 2881 
L 1084 2881 
L 1084 941 
Q 1084 700 1114 631 
Q 1144 563 1211 522 
Q 1278 481 1403 481 
Q 1497 481 1650 503 
z
" transform="scale(0.015625)"/>
      </defs>
      <use xlink:href="#ArialMT-73"/>
      <use xlink:href="#ArialMT-65" x="50"/>
      <use xlink:href="#ArialMT-74" x="105.615234"/>
     </g>
    </g>
   </g>
   <g id="matplotlib.axis_2">
    <g id="ytick_1">
     <g id="line2d_1">
      <path d="M 50.5325 290.974752 
L 349.2 290.974752 
" clip-path="url(#pd5622785df)" style="fill: none; stroke: #ffffff; stroke-width: 0.8; stroke-linecap: round"/>
     </g>
     <g id="text_4">
      <!-- −0.2 -->
      <g style="fill: #262626" transform="translate(23.791875 294.553658) scale(0.1 -0.1)">
       <defs>
        <path id="ArialMT-2212" d="M 3381 1997 
L 356 1997 
L 356 2522 
L 3381 2522 
L 3381 1997 
z
" transform="scale(0.015625)"/>
        <path id="ArialMT-30" d="M 266 2259 
Q 266 3072 433 3567 
Q 600 4063 929 4331 
Q 1259 4600 1759 4600 
Q 2128 4600 2406 4451 
Q 2684 4303 2865 4023 
Q 3047 3744 3150 3342 
Q 3253 2941 3253 2259 
Q 3253 1453 3087 958 
Q 2922 463 2592 192 
Q 2263 -78 1759 -78 
Q 1097 -78 719 397 
Q 266 969 266 2259 
z
M 844 2259 
Q 844 1131 1108 757 
Q 1372 384 1759 384 
Q 2147 384 2411 759 
Q 2675 1134 2675 2259 
Q 2675 3391 2411 3762 
Q 2147 4134 1753 4134 
Q 1366 4134 1134 3806 
Q 844 3388 844 2259 
z
" transform="scale(0.015625)"/>
        <path id="ArialMT-2e" d="M 581 0 
L 581 641 
L 1222 641 
L 1222 0 
L 581 0 
z
" transform="scale(0.015625)"/>
        <path id="ArialMT-32" d="M 3222 541 
L 3222 0 
L 194 0 
Q 188 203 259 391 
Q 375 700 629 1000 
Q 884 1300 1366 1694 
Q 2113 2306 2375 2664 
Q 2638 3022 2638 3341 
Q 2638 3675 2398 3904 
Q 2159 4134 1775 4134 
Q 1369 4134 1125 3890 
Q 881 3647 878 3216 
L 300 3275 
Q 359 3922 746 4261 
Q 1134 4600 1788 4600 
Q 2447 4600 2831 4234 
Q 3216 3869 3216 3328 
Q 3216 3053 3103 2787 
Q 2991 2522 2730 2228 
Q 2469 1934 1863 1422 
Q 1356 997 1212 845 
Q 1069 694 975 541 
L 3222 541 
z
" transform="scale(0.015625)"/>
       </defs>
       <use xlink:href="#ArialMT-2212"/>
       <use xlink:href="#ArialMT-30" x="58.398438"/>
       <use xlink:href="#ArialMT-2e" x="114.013672"/>
       <use xlink:href="#ArialMT-32" x="141.796875"/>
      </g>
     </g>
    </g>
    <g id="ytick_2">
     <g id="line2d_2">
      <path d="M 50.5325 237.484767 
L 349.2 237.484767 
" clip-path="url(#pd5622785df)" style="fill: none; stroke: #ffffff; stroke-width: 0.8; stroke-linecap: round"/>
     </g>
     <g id="text_5">
      <!-- 0.0 -->
      <g style="fill: #262626" transform="translate(29.6325 241.063673) scale(0.1 -0.1)">
       <use xlink:href="#ArialMT-30"/>
       <use xlink:href="#ArialMT-2e" x="55.615234"/>
       <use xlink:href="#ArialMT-30" x="83.398438"/>
      </g>
     </g>
    </g>
    <g id="ytick_3">
     <g id="line2d_3">
      <path d="M 50.5325 183.994781 
L 349.2 183.994781 
" clip-path="url(#pd5622785df)" style="fill: none; stroke: #ffffff; stroke-width: 0.8; stroke-linecap: round"/>
     </g>
     <g id="text_6">
      <!-- 0.2 -->
      <g style="fill: #262626" transform="translate(29.6325 187.573688) scale(0.1 -0.1)">
       <use xlink:href="#ArialMT-30"/>
       <use xlink:href="#ArialMT-2e" x="55.615234"/>
       <use xlink:href="#ArialMT-32" x="83.398438"/>
      </g>
     </g>
    </g>
    <g id="ytick_4">
     <g id="line2d_4">
      <path d="M 50.5325 130.504796 
L 349.2 130.504796 
" clip-path="url(#pd5622785df)" style="fill: none; stroke: #ffffff; stroke-width: 0.8; stroke-linecap: round"/>
     </g>
     <g id="text_7">
      <!-- 0.4 -->
      <g style="fill: #262626" transform="translate(29.6325 134.083702) scale(0.1 -0.1)">
       <defs>
        <path id="ArialMT-34" d="M 2069 0 
L 2069 1097 
L 81 1097 
L 81 1613 
L 2172 4581 
L 2631 4581 
L 2631 1613 
L 3250 1613 
L 3250 1097 
L 2631 1097 
L 2631 0 
L 2069 0 
z
M 2069 1613 
L 2069 3678 
L 634 1613 
L 2069 1613 
z
" transform="scale(0.015625)"/>
       </defs>
       <use xlink:href="#ArialMT-30"/>
       <use xlink:href="#ArialMT-2e" x="55.615234"/>
       <use xlink:href="#ArialMT-34" x="83.398438"/>
      </g>
     </g>
    </g>
    <g id="ytick_5">
     <g id="line2d_5">
      <path d="M 50.5325 77.014811 
L 349.2 77.014811 
" clip-path="url(#pd5622785df)" style="fill: none; stroke: #ffffff; stroke-width: 0.8; stroke-linecap: round"/>
     </g>
     <g id="text_8">
      <!-- 0.6 -->
      <g style="fill: #262626" transform="translate(29.6325 80.593717) scale(0.1 -0.1)">
       <defs>
        <path id="ArialMT-36" d="M 3184 3459 
L 2625 3416 
Q 2550 3747 2413 3897 
Q 2184 4138 1850 4138 
Q 1581 4138 1378 3988 
Q 1113 3794 959 3422 
Q 806 3050 800 2363 
Q 1003 2672 1297 2822 
Q 1591 2972 1913 2972 
Q 2475 2972 2870 2558 
Q 3266 2144 3266 1488 
Q 3266 1056 3080 686 
Q 2894 316 2569 119 
Q 2244 -78 1831 -78 
Q 1128 -78 684 439 
Q 241 956 241 2144 
Q 241 3472 731 4075 
Q 1159 4600 1884 4600 
Q 2425 4600 2770 4297 
Q 3116 3994 3184 3459 
z
M 888 1484 
Q 888 1194 1011 928 
Q 1134 663 1356 523 
Q 1578 384 1822 384 
Q 2178 384 2434 671 
Q 2691 959 2691 1453 
Q 2691 1928 2437 2201 
Q 2184 2475 1800 2475 
Q 1419 2475 1153 2201 
Q 888 1928 888 1484 
z
" transform="scale(0.015625)"/>
       </defs>
       <use xlink:href="#ArialMT-30"/>
       <use xlink:href="#ArialMT-2e" x="55.615234"/>
       <use xlink:href="#ArialMT-36" x="83.398438"/>
      </g>
     </g>
    </g>
    <g id="ytick_6">
     <g id="line2d_6">
      <path d="M 50.5325 23.524826 
L 349.2 23.524826 
" clip-path="url(#pd5622785df)" style="fill: none; stroke: #ffffff; stroke-width: 0.8; stroke-linecap: round"/>
     </g>
     <g id="text_9">
      <!-- 0.8 -->
      <g style="fill: #262626" transform="translate(29.6325 27.103732) scale(0.1 -0.1)">
       <defs>
        <path id="ArialMT-38" d="M 1131 2484 
Q 781 2613 612 2850 
Q 444 3088 444 3419 
Q 444 3919 803 4259 
Q 1163 4600 1759 4600 
Q 2359 4600 2725 4251 
Q 3091 3903 3091 3403 
Q 3091 3084 2923 2848 
Q 2756 2613 2416 2484 
Q 2838 2347 3058 2040 
Q 3278 1734 3278 1309 
Q 3278 722 2862 322 
Q 2447 -78 1769 -78 
Q 1091 -78 675 323 
Q 259 725 259 1325 
Q 259 1772 486 2073 
Q 713 2375 1131 2484 
z
M 1019 3438 
Q 1019 3113 1228 2906 
Q 1438 2700 1772 2700 
Q 2097 2700 2305 2904 
Q 2513 3109 2513 3406 
Q 2513 3716 2298 3927 
Q 2084 4138 1766 4138 
Q 1444 4138 1231 3931 
Q 1019 3725 1019 3438 
z
M 838 1322 
Q 838 1081 952 856 
Q 1066 631 1291 507 
Q 1516 384 1775 384 
Q 2178 384 2440 643 
Q 2703 903 2703 1303 
Q 2703 1709 2433 1975 
Q 2163 2241 1756 2241 
Q 1359 2241 1098 1978 
Q 838 1716 838 1322 
z
" transform="scale(0.015625)"/>
       </defs>
       <use xlink:href="#ArialMT-30"/>
       <use xlink:href="#ArialMT-2e" x="55.615234"/>
       <use xlink:href="#ArialMT-38" x="83.398438"/>
      </g>
     </g>
    </g>
    <g id="text_10">
     <!-- mean_rate -->
     <g style="fill: #262626" transform="translate(17.804375 189.761563) rotate(-90) scale(0.1 -0.1)">
      <defs>
       <path id="ArialMT-6d" d="M 422 0 
L 422 3319 
L 925 3319 
L 925 2853 
Q 1081 3097 1340 3245 
Q 1600 3394 1931 3394 
Q 2300 3394 2536 3241 
Q 2772 3088 2869 2813 
Q 3263 3394 3894 3394 
Q 4388 3394 4653 3120 
Q 4919 2847 4919 2278 
L 4919 0 
L 4359 0 
L 4359 2091 
Q 4359 2428 4304 2576 
Q 4250 2725 4106 2815 
Q 3963 2906 3769 2906 
Q 3419 2906 3187 2673 
Q 2956 2441 2956 1928 
L 2956 0 
L 2394 0 
L 2394 2156 
Q 2394 2531 2256 2718 
Q 2119 2906 1806 2906 
Q 1569 2906 1367 2781 
Q 1166 2656 1075 2415 
Q 984 2175 984 1722 
L 984 0 
L 422 0 
z
" transform="scale(0.015625)"/>
       <path id="ArialMT-61" d="M 2588 409 
Q 2275 144 1986 34 
Q 1697 -75 1366 -75 
Q 819 -75 525 192 
Q 231 459 231 875 
Q 231 1119 342 1320 
Q 453 1522 633 1644 
Q 813 1766 1038 1828 
Q 1203 1872 1538 1913 
Q 2219 1994 2541 2106 
Q 2544 2222 2544 2253 
Q 2544 2597 2384 2738 
Q 2169 2928 1744 2928 
Q 1347 2928 1158 2789 
Q 969 2650 878 2297 
L 328 2372 
Q 403 2725 575 2942 
Q 747 3159 1072 3276 
Q 1397 3394 1825 3394 
Q 2250 3394 2515 3294 
Q 2781 3194 2906 3042 
Q 3031 2891 3081 2659 
Q 3109 2516 3109 2141 
L 3109 1391 
Q 3109 606 3145 398 
Q 3181 191 3288 0 
L 2700 0 
Q 2613 175 2588 409 
z
M 2541 1666 
Q 2234 1541 1622 1453 
Q 1275 1403 1131 1340 
Q 988 1278 909 1158 
Q 831 1038 831 891 
Q 831 666 1001 516 
Q 1172 366 1500 366 
Q 1825 366 2078 508 
Q 2331 650 2450 897 
Q 2541 1088 2541 1459 
L 2541 1666 
z
" transform="scale(0.015625)"/>
       <path id="ArialMT-6e" d="M 422 0 
L 422 3319 
L 928 3319 
L 928 2847 
Q 1294 3394 1984 3394 
Q 2284 3394 2536 3286 
Q 2788 3178 2913 3003 
Q 3038 2828 3088 2588 
Q 3119 2431 3119 2041 
L 3119 0 
L 2556 0 
L 2556 2019 
Q 2556 2363 2490 2533 
Q 2425 2703 2258 2804 
Q 2091 2906 1866 2906 
Q 1506 2906 1245 2678 
Q 984 2450 984 1813 
L 984 0 
L 422 0 
z
" transform="scale(0.015625)"/>
       <path id="ArialMT-72" d="M 416 0 
L 416 3319 
L 922 3319 
L 922 2816 
Q 1116 3169 1280 3281 
Q 1444 3394 1641 3394 
Q 1925 3394 2219 3213 
L 2025 2691 
Q 1819 2813 1613 2813 
Q 1428 2813 1281 2702 
Q 1134 2591 1072 2394 
Q 978 2094 978 1738 
L 978 0 
L 416 0 
z
" transform="scale(0.015625)"/>
      </defs>
      <use xlink:href="#ArialMT-6d"/>
      <use xlink:href="#ArialMT-65" x="83.300781"/>
      <use xlink:href="#ArialMT-61" x="138.916016"/>
      <use xlink:href="#ArialMT-6e" x="194.53125"/>
      <use xlink:href="#ArialMT-5f" x="250.146484"/>
      <use xlink:href="#ArialMT-72" x="305.761719"/>
      <use xlink:href="#ArialMT-61" x="339.0625"/>
      <use xlink:href="#ArialMT-74" x="394.677734"/>
      <use xlink:href="#ArialMT-65" x="422.460938"/>
     </g>
    </g>
   </g>
   <g id="patch_3">
    <path d="M 65.465875 237.484767 
L 184.932875 237.484767 
L 184.932875 168.393536 
L 65.465875 168.393536 
L 65.465875 237.484767 
z
" clip-path="url(#pd5622785df)" style="fill: #3274a1; stroke: #3f3f3f; stroke-width: 1.5; stroke-linejoin: miter"/>
   </g>
   <g id="patch_4">
    <path d="M 214.799625 207.804348 
L 334.266625 207.804348 
L 334.266625 148.61069 
L 214.799625 148.61069 
L 214.799625 207.804348 
z
" clip-path="url(#pd5622785df)" style="fill: #e1812c; stroke: #3f3f3f; stroke-width: 1.5; stroke-linejoin: miter"/>
   </g>
   <g id="PathCollection_1">
    <defs>
     <path id="C0_0_4520861d93" d="M 0 3.383948 
C 0.897434 3.383948 1.758231 3.027394 2.392813 2.392813 
C 3.027394 1.758231 3.383948 0.897434 3.383948 -0 
C 3.383948 -0.897434 3.027394 -1.758231 2.392813 -2.392813 
C 1.758231 -3.027394 0.897434 -3.383948 0 -3.383948 
C -0.897434 -3.383948 -1.758231 -3.027394 -2.392813 -2.392813 
C -3.027394 -1.758231 -3.383948 -0.897434 -3.383948 0 
C -3.383948 0.897434 -3.027394 1.758231 -2.392813 2.392813 
C -1.758231 3.027394 -0.897434 3.383948 0 3.383948 
z
"/>
    </defs>
    <g clip-path="url(#pd5622785df)">
     <use xlink:href="#C0_0_4520861d93" x="125.199375" y="198.558981" style="fill: #008000; stroke: #008000; stroke-width: 2.025"/>
    </g>
    <g clip-path="url(#pd5622785df)">
     <use xlink:href="#C0_0_4520861d93" x="274.533125" y="175.806655" style="fill: #008000; stroke: #008000; stroke-width: 2.025"/>
    </g>
   </g>
   <g id="line2d_7">
    <path d="M 125.199375 237.484767 
L 125.199375 306.823636 
" clip-path="url(#pd5622785df)" style="fill: none; stroke: #3f3f3f; stroke-width: 1.5; stroke-linecap: round"/>
   </g>
   <g id="line2d_8">
    <path d="M 125.199375 168.393536 
L 125.199375 80.703775 
" clip-path="url(#pd5622785df)" style="fill: none; stroke: #3f3f3f; stroke-width: 1.5; stroke-linecap: round"/>
   </g>
   <g id="line2d_9">
    <path d="M 95.332625 306.823636 
L 155.066125 306.823636 
" clip-path="url(#pd5622785df)" style="fill: none; stroke: #3f3f3f; stroke-width: 1.5; stroke-linecap: round"/>
   </g>
   <g id="line2d_10">
    <path d="M 95.332625 80.703775 
L 155.066125 80.703775 
" clip-path="url(#pd5622785df)" style="fill: none; stroke: #3f3f3f; stroke-width: 1.5; stroke-linecap: round"/>
   </g>
   <g id="line2d_11">
    <defs>
     <path id="mcdc10cd420" d="M 0 3.535534 
L 2.12132 0 
L 0 -3.535534 
L -2.12132 0 
z
" style="stroke: #3f3f3f; stroke-linejoin: miter"/>
    </defs>
    <g clip-path="url(#pd5622785df)">
     <use xlink:href="#mcdc10cd420" x="125.199375" y="48.312868" style="fill: #3f3f3f; stroke: #3f3f3f; stroke-linejoin: miter"/>
    </g>
   </g>
   <g id="line2d_12">
    <path d="M 274.533125 207.804348 
L 274.533125 286.112026 
" clip-path="url(#pd5622785df)" style="fill: none; stroke: #3f3f3f; stroke-width: 1.5; stroke-linecap: round"/>
   </g>
   <g id="line2d_13">
    <path d="M 274.533125 148.61069 
L 274.533125 77.014811 
" clip-path="url(#pd5622785df)" style="fill: none; stroke: #3f3f3f; stroke-width: 1.5; stroke-linecap: round"/>
   </g>
   <g id="line2d_14">
    <path d="M 244.666375 286.112026 
L 304.399875 286.112026 
" clip-path="url(#pd5622785df)" style="fill: none; stroke: #3f3f3f; stroke-width: 1.5; stroke-linecap: round"/>
   </g>
   <g id="line2d_15">
    <path d="M 244.666375 77.014811 
L 304.399875 77.014811 
" clip-path="url(#pd5622785df)" style="fill: none; stroke: #3f3f3f; stroke-width: 1.5; stroke-linecap: round"/>
   </g>
   <g id="line2d_16">
    <g clip-path="url(#pd5622785df)">
     <use xlink:href="#mcdc10cd420" x="274.533125" y="24.896364" style="fill: #3f3f3f; stroke: #3f3f3f; stroke-linejoin: miter"/>
    </g>
   </g>
   <g id="line2d_17">
    <path d="M 125.199375 198.558981 
L 274.533125 175.806655 
" clip-path="url(#pd5622785df)" style="fill: none; stroke: #008000; stroke-width: 2.7; stroke-linecap: round"/>
   </g>
   <g id="line2d_18">
    <path d="M 125.199375 198.558981 
L 125.199375 198.558981 
" clip-path="url(#pd5622785df)" style="fill: none; stroke: #008000; stroke-width: 2.7; stroke-linecap: round"/>
   </g>
   <g id="line2d_19">
    <path d="M 274.533125 175.806655 
L 274.533125 175.806655 
" clip-path="url(#pd5622785df)" style="fill: none; stroke: #008000; stroke-width: 2.7; stroke-linecap: round"/>
   </g>
   <g id="line2d_20">
    <path d="M 65.465875 197.367278 
L 184.932875 197.367278 
" clip-path="url(#pd5622785df)" style="fill: none; stroke: #3f3f3f; stroke-width: 1.5; stroke-linecap: round"/>
   </g>
   <g id="line2d_21">
    <path d="M 214.799625 186.270951 
L 334.266625 186.270951 
" clip-path="url(#pd5622785df)" style="fill: none; stroke: #3f3f3f; stroke-width: 1.5; stroke-linecap: round"/>
   </g>
   <g id="patch_5">
    <path d="M 50.5325 320.92 
L 50.5325 10.8 
" style="fill: none; stroke: #ffffff; stroke-width: 0.8; stroke-linejoin: miter; stroke-linecap: square"/>
   </g>
   <g id="patch_6">
    <path d="M 50.5325 320.92 
L 349.2 320.92 
" style="fill: none; stroke: #ffffff; stroke-width: 0.8; stroke-linejoin: miter; stroke-linecap: square"/>
   </g>
   <g id="PathCollection_2">
    <defs>
     <path id="m3fd7b74019" d="M 0 2.5 
C 0.663008 2.5 1.29895 2.236584 1.767767 1.767767 
C 2.236584 1.29895 2.5 0.663008 2.5 0 
C 2.5 -0.663008 2.236584 -1.29895 1.767767 -1.767767 
C 1.29895 -2.236584 0.663008 -2.5 0 -2.5 
C -0.663008 -2.5 -1.29895 -2.236584 -1.767767 -1.767767 
C -2.236584 -1.29895 -2.5 -0.663008 -2.5 0 
C -2.5 0.663008 -2.236584 1.29895 -1.767767 1.767767 
C -1.29895 2.236584 -0.663008 2.5 0 2.5 
z
"/>
    </defs>
    <g clip-path="url(#pd5622785df)">
     <use xlink:href="#m3fd7b74019" x="121.585035" y="183.994781" style="fill: #ffa500"/>
     <use xlink:href="#m3fd7b74019" x="128.804138" y="226.34102" style="fill: #ffa500"/>
     <use xlink:href="#m3fd7b74019" x="120.35246" y="246.707178" style="fill: #ffa500"/>
     <use xlink:href="#m3fd7b74019" x="125.199375" y="290.974752" style="fill: #ffa500"/>
     <use xlink:href="#m3fd7b74019" x="125.199375" y="248.628514" style="fill: #ffa500"/>
     <use xlink:href="#m3fd7b74019" x="125.199375" y="282.059754" style="fill: #ffa500"/>
     <use xlink:href="#m3fd7b74019" x="125.199375" y="106.869686" style="fill: #ffa500"/>
     <use xlink:href="#m3fd7b74019" x="125.199375" y="214.228251" style="fill: #ffa500"/>
     <use xlink:href="#m3fd7b74019" x="125.199375" y="187.621221" style="fill: #ffa500"/>
     <use xlink:href="#m3fd7b74019" x="122.821014" y="192.909779" style="fill: #ffa500"/>
     <use xlink:href="#m3fd7b74019" x="125.199375" y="166.164786" style="fill: #ffa500"/>
     <use xlink:href="#m3fd7b74019" x="125.199375" y="129.366711" style="fill: #ffa500"/>
     <use xlink:href="#m3fd7b74019" x="125.199375" y="155.61234" style="fill: #ffa500"/>
     <use xlink:href="#m3fd7b74019" x="120.294525" y="173.296784" style="fill: #ffa500"/>
     <use xlink:href="#m3fd7b74019" x="115.858719" y="170.622285" style="fill: #ffa500"/>
     <use xlink:href="#m3fd7b74019" x="119.299167" y="223.885618" style="fill: #ffa500"/>
     <use xlink:href="#m3fd7b74019" x="123.575043" y="226.78677" style="fill: #ffa500"/>
     <use xlink:href="#m3fd7b74019" x="125.199375" y="121.20219" style="fill: #ffa500"/>
     <use xlink:href="#m3fd7b74019" x="125.199375" y="219.654771" style="fill: #ffa500"/>
     <use xlink:href="#m3fd7b74019" x="125.199375" y="231.541435" style="fill: #ffa500"/>
     <use xlink:href="#m3fd7b74019" x="120.681682" y="288.42761" style="fill: #ffa500"/>
     <use xlink:href="#m3fd7b74019" x="125.199375" y="306.823636" style="fill: #ffa500"/>
     <use xlink:href="#m3fd7b74019" x="125.199375" y="197.367278" style="fill: #ffa500"/>
     <use xlink:href="#m3fd7b74019" x="125.199375" y="175.079784" style="fill: #ffa500"/>
     <use xlink:href="#m3fd7b74019" x="119.949375" y="282.059754" style="fill: #ffa500"/>
     <use xlink:href="#m3fd7b74019" x="125.199375" y="80.703775" style="fill: #ffa500"/>
     <use xlink:href="#m3fd7b74019" x="132.827736" y="170.622285" style="fill: #ffa500"/>
     <use xlink:href="#m3fd7b74019" x="125.199375" y="141.966936" style="fill: #ffa500"/>
     <use xlink:href="#m3fd7b74019" x="120.232902" y="164.543878" style="fill: #ffa500"/>
     <use xlink:href="#m3fd7b74019" x="129.898952" y="246.399764" style="fill: #ffa500"/>
     <use xlink:href="#m3fd7b74019" x="125.199375" y="237.484767" style="fill: #ffa500"/>
     <use xlink:href="#m3fd7b74019" x="119.949375" y="237.484767" style="fill: #ffa500"/>
     <use xlink:href="#m3fd7b74019" x="127.577736" y="170.622285" style="fill: #ffa500"/>
     <use xlink:href="#m3fd7b74019" x="125.199375" y="203.196314" style="fill: #ffa500"/>
     <use xlink:href="#m3fd7b74019" x="125.199375" y="48.312868" style="fill: #ffa500"/>
    </g>
   </g>
   <g id="PathCollection_3">
    <g clip-path="url(#pd5622785df)">
     <use xlink:href="#m3fd7b74019" x="274.533125" y="166.164786" style="fill: #ffa500"/>
     <use xlink:href="#m3fd7b74019" x="274.533125" y="171.883841" style="fill: #ffa500"/>
     <use xlink:href="#m3fd7b74019" x="274.533125" y="273.144757" style="fill: #ffa500"/>
     <use xlink:href="#m3fd7b74019" x="274.533125" y="228.569769" style="fill: #ffa500"/>
     <use xlink:href="#m3fd7b74019" x="274.180264" y="199.277634" style="fill: #ffa500"/>
     <use xlink:href="#m3fd7b74019" x="274.533125" y="210.739774" style="fill: #ffa500"/>
     <use xlink:href="#m3fd7b74019" x="274.533125" y="204.868922" style="fill: #ffa500"/>
     <use xlink:href="#m3fd7b74019" x="274.533125" y="103.759803" style="fill: #ffa500"/>
     <use xlink:href="#m3fd7b74019" x="279.207577" y="183.994781" style="fill: #ffa500"/>
     <use xlink:href="#m3fd7b74019" x="269.500305" y="203.445685" style="fill: #ffa500"/>
     <use xlink:href="#m3fd7b74019" x="283.947957" y="201.824776" style="fill: #ffa500"/>
     <use xlink:href="#m3fd7b74019" x="274.533125" y="79.198076" style="fill: #ffa500"/>
     <use xlink:href="#m3fd7b74019" x="274.533125" y="152.128407" style="fill: #ffa500"/>
     <use xlink:href="#m3fd7b74019" x="269.843392" y="158.823024" style="fill: #ffa500"/>
     <use xlink:href="#m3fd7b74019" x="269.810067" y="77.014811" style="fill: #ffa500"/>
     <use xlink:href="#m3fd7b74019" x="272.663302" y="192.909779" style="fill: #ffa500"/>
     <use xlink:href="#m3fd7b74019" x="274.533125" y="127.358326" style="fill: #ffa500"/>
     <use xlink:href="#m3fd7b74019" x="271.234973" y="141.202793" style="fill: #ffa500"/>
     <use xlink:href="#m3fd7b74019" x="274.533125" y="237.484767" style="fill: #ffa500"/>
     <use xlink:href="#m3fd7b74019" x="274.533125" y="186.270951" style="fill: #ffa500"/>
     <use xlink:href="#m3fd7b74019" x="274.533125" y="286.112026" style="fill: #ffa500"/>
     <use xlink:href="#m3fd7b74019" x="278.861139" y="158.240344" style="fill: #ffa500"/>
     <use xlink:href="#m3fd7b74019" x="274.533125" y="223.408455" style="fill: #ffa500"/>
     <use xlink:href="#m3fd7b74019" x="274.533125" y="85.929808" style="fill: #ffa500"/>
     <use xlink:href="#m3fd7b74019" x="278.001284" y="219.654771" style="fill: #ffa500"/>
     <use xlink:href="#m3fd7b74019" x="279.256183" y="77.014811" style="fill: #ffa500"/>
     <use xlink:href="#m3fd7b74019" x="277.299506" y="195.255831" style="fill: #ffa500"/>
     <use xlink:href="#m3fd7b74019" x="274.533125" y="161.070502" style="fill: #ffa500"/>
     <use xlink:href="#m3fd7b74019" x="269.288157" y="186.052088" style="fill: #ffa500"/>
     <use xlink:href="#m3fd7b74019" x="278.697957" y="201.824776" style="fill: #ffa500"/>
     <use xlink:href="#m3fd7b74019" x="269.295022" y="272.808342" style="fill: #ffa500"/>
     <use xlink:href="#m3fd7b74019" x="269.310708" y="222.896589" style="fill: #ffa500"/>
     <use xlink:href="#m3fd7b74019" x="274.533125" y="145.092974" style="fill: #ffa500"/>
     <use xlink:href="#m3fd7b74019" x="267.413302" y="192.909779" style="fill: #ffa500"/>
     <use xlink:href="#m3fd7b74019" x="274.533125" y="24.896364" style="fill: #ffa500"/>
    </g>
   </g>
  </g>
 </g>
 <defs>
  <clipPath id="pd5622785df">
   <rect x="50.5325" y="10.8" width="298.6675" height="310.12"/>
  </clipPath>
 </defs>
</svg>
