<?xml version="1.0" encoding="utf-8" standalone="no"?>
<!DOCTYPE svg PUBLIC "-//W3C//DTD SVG 1.1//EN"
  "http://www.w3.org/Graphics/SVG/1.1/DTD/svg11.dtd">
<svg xmlns:xlink="http://www.w3.org/1999/xlink" width="353.245937pt" height="357.389531pt" viewBox="0 0 353.245937 357.389531" xmlns="http://www.w3.org/2000/svg" version="1.1">
 <metadata>
  <rdf:RDF xmlns:dc="http://purl.org/dc/elements/1.1/" xmlns:cc="http://creativecommons.org/ns#" xmlns:rdf="http://www.w3.org/1999/02/22-rdf-syntax-ns#">
   <cc:Work>
    <dc:type rdf:resource="http://purl.org/dc/dcmitype/StillImage"/>
    <dc:date>2025-01-27T18:37:24.608029</dc:date>
    <dc:format>image/svg+xml</dc:format>
    <dc:creator>
     <cc:Agent>
      <dc:title>Matplotlib v3.7.2, https://matplotlib.org/</dc:title>
     </cc:Agent>
    </dc:creator>
   </cc:Work>
  </rdf:RDF>
 </metadata>
 <defs>
  <style type="text/css">*{stroke-linejoin: round; stroke-linecap: butt}</style>
 </defs>
 <g id="figure_1">
  <g id="patch_1">
   <path d="M 0 357.389531 
L 353.245937 357.389531 
L 353.245937 0 
L 0 0 
z
" style="fill: #ffffff"/>
  </g>
  <g id="axes_1">
   <g id="patch_2">
    <path d="M 47.085938 320.898906 
L 346.045937 320.898906 
L 346.045937 10.778906 
L 47.085938 10.778906 
z
" style="fill: #eaeaf2"/>
   </g>
   <g id="matplotlib.axis_1">
    <g id="xtick_1">
     <g id="text_1">
      <!-- diminished -->
      <g style="fill: #262626" transform="translate(97.925938 335.056719) scale(0.1 -0.1)">
       <defs>
        <path id="ArialMT-64" d="M 2575 0 
L 2575 419 
Q 2259 -75 1647 -75 
Q 1250 -75 917 144 
Q 584 363 401 755 
Q 219 1147 219 1656 
Q 219 2153 384 2558 
Q 550 2963 881 3178 
Q 1213 3394 1622 3394 
Q 1922 3394 2156 3267 
Q 2391 3141 2538 2938 
L 2538 4581 
L 3097 4581 
L 3097 0 
L 2575 0 
z
M 797 1656 
Q 797 1019 1065 703 
Q 1334 388 1700 388 
Q 2069 388 2326 689 
Q 2584 991 2584 1609 
Q 2584 2291 2321 2609 
Q 2059 2928 1675 2928 
Q 1300 2928 1048 2622 
Q 797 2316 797 1656 
z
" transform="scale(0.015625)"/>
        <path id="ArialMT-69" d="M 425 3934 
L 425 4581 
L 988 4581 
L 988 3934 
L 425 3934 
z
M 425 0 
L 425 3319 
L 988 3319 
L 988 0 
L 425 0 
z
" transform="scale(0.015625)"/>
        <path id="ArialMT-6d" d="M 422 0 
L 422 3319 
L 925 3319 
L 925 2853 
Q 1081 3097 1340 3245 
Q 1600 3394 1931 3394 
Q 2300 3394 2536 3241 
Q 2772 3088 2869 2813 
Q 3263 3394 3894 3394 
Q 4388 3394 4653 3120 
Q 4919 2847 4919 2278 
L 4919 0 
L 4359 0 
L 4359 2091 
Q 4359 2428 4304 2576 
Q 4250 2725 4106 2815 
Q 3963 2906 3769 2906 
Q 3419 2906 3187 2673 
Q 2956 2441 2956 1928 
L 2956 0 
L 2394 0 
L 2394 2156 
Q 2394 2531 2256 2718 
Q 2119 2906 1806 2906 
Q 1569 2906 1367 2781 
Q 1166 2656 1075 2415 
Q 984 2175 984 1722 
L 984 0 
L 422 0 
z
" transform="scale(0.015625)"/>
        <path id="ArialMT-6e" d="M 422 0 
L 422 3319 
L 928 3319 
L 928 2847 
Q 1294 3394 1984 3394 
Q 2284 3394 2536 3286 
Q 2788 3178 2913 3003 
Q 3038 2828 3088 2588 
Q 3119 2431 3119 2041 
L 3119 0 
L 2556 0 
L 2556 2019 
Q 2556 2363 2490 2533 
Q 2425 2703 2258 2804 
Q 2091 2906 1866 2906 
Q 1506 2906 1245 2678 
Q 984 2450 984 1813 
L 984 0 
L 422 0 
z
" transform="scale(0.015625)"/>
        <path id="ArialMT-73" d="M 197 991 
L 753 1078 
Q 800 744 1014 566 
Q 1228 388 1613 388 
Q 2000 388 2187 545 
Q 2375 703 2375 916 
Q 2375 1106 2209 1216 
Q 2094 1291 1634 1406 
Q 1016 1563 777 1677 
Q 538 1791 414 1992 
Q 291 2194 291 2438 
Q 291 2659 392 2848 
Q 494 3038 669 3163 
Q 800 3259 1026 3326 
Q 1253 3394 1513 3394 
Q 1903 3394 2198 3281 
Q 2494 3169 2634 2976 
Q 2775 2784 2828 2463 
L 2278 2388 
Q 2241 2644 2061 2787 
Q 1881 2931 1553 2931 
Q 1166 2931 1000 2803 
Q 834 2675 834 2503 
Q 834 2394 903 2306 
Q 972 2216 1119 2156 
Q 1203 2125 1616 2013 
Q 2213 1853 2448 1751 
Q 2684 1650 2818 1456 
Q 2953 1263 2953 975 
Q 2953 694 2789 445 
Q 2625 197 2315 61 
Q 2006 -75 1616 -75 
Q 969 -75 630 194 
Q 291 463 197 991 
z
" transform="scale(0.015625)"/>
        <path id="ArialMT-68" d="M 422 0 
L 422 4581 
L 984 4581 
L 984 2938 
Q 1378 3394 1978 3394 
Q 2347 3394 2619 3248 
Q 2891 3103 3008 2847 
Q 3125 2591 3125 2103 
L 3125 0 
L 2563 0 
L 2563 2103 
Q 2563 2525 2380 2717 
Q 2197 2909 1863 2909 
Q 1613 2909 1392 2779 
Q 1172 2650 1078 2428 
Q 984 2206 984 1816 
L 984 0 
L 422 0 
z
" transform="scale(0.015625)"/>
        <path id="ArialMT-65" d="M 2694 1069 
L 3275 997 
Q 3138 488 2766 206 
Q 2394 -75 1816 -75 
Q 1088 -75 661 373 
Q 234 822 234 1631 
Q 234 2469 665 2931 
Q 1097 3394 1784 3394 
Q 2450 3394 2872 2941 
Q 3294 2488 3294 1666 
Q 3294 1616 3291 1516 
L 816 1516 
Q 847 969 1125 678 
Q 1403 388 1819 388 
Q 2128 388 2347 550 
Q 2566 713 2694 1069 
z
M 847 1978 
L 2700 1978 
Q 2663 2397 2488 2606 
Q 2219 2931 1791 2931 
Q 1403 2931 1139 2672 
Q 875 2413 847 1978 
z
" transform="scale(0.015625)"/>
       </defs>
       <use xlink:href="#ArialMT-64"/>
       <use xlink:href="#ArialMT-69" x="55.615234"/>
       <use xlink:href="#ArialMT-6d" x="77.832031"/>
       <use xlink:href="#ArialMT-69" x="161.132812"/>
       <use xlink:href="#ArialMT-6e" x="183.349609"/>
       <use xlink:href="#ArialMT-69" x="238.964844"/>
       <use xlink:href="#ArialMT-73" x="261.181641"/>
       <use xlink:href="#ArialMT-68" x="311.181641"/>
       <use xlink:href="#ArialMT-65" x="366.796875"/>
       <use xlink:href="#ArialMT-64" x="422.412109"/>
      </g>
     </g>
    </g>
    <g id="xtick_2">
     <g id="text_2">
      <!-- wholetone -->
      <g style="fill: #262626" transform="translate(248.512188 335.056719) scale(0.1 -0.1)">
       <defs>
        <path id="ArialMT-77" d="M 1034 0 
L 19 3319 
L 600 3319 
L 1128 1403 
L 1325 691 
Q 1338 744 1497 1375 
L 2025 3319 
L 2603 3319 
L 3100 1394 
L 3266 759 
L 3456 1400 
L 4025 3319 
L 4572 3319 
L 3534 0 
L 2950 0 
L 2422 1988 
L 2294 2553 
L 1622 0 
L 1034 0 
z
" transform="scale(0.015625)"/>
        <path id="ArialMT-6f" d="M 213 1659 
Q 213 2581 725 3025 
Q 1153 3394 1769 3394 
Q 2453 3394 2887 2945 
Q 3322 2497 3322 1706 
Q 3322 1066 3130 698 
Q 2938 331 2570 128 
Q 2203 -75 1769 -75 
Q 1072 -75 642 372 
Q 213 819 213 1659 
z
M 791 1659 
Q 791 1022 1069 705 
Q 1347 388 1769 388 
Q 2188 388 2466 706 
Q 2744 1025 2744 1678 
Q 2744 2294 2464 2611 
Q 2184 2928 1769 2928 
Q 1347 2928 1069 2612 
Q 791 2297 791 1659 
z
" transform="scale(0.015625)"/>
        <path id="ArialMT-6c" d="M 409 0 
L 409 4581 
L 972 4581 
L 972 0 
L 409 0 
z
" transform="scale(0.015625)"/>
        <path id="ArialMT-74" d="M 1650 503 
L 1731 6 
Q 1494 -44 1306 -44 
Q 1000 -44 831 53 
Q 663 150 594 308 
Q 525 466 525 972 
L 525 2881 
L 113 2881 
L 113 3319 
L 525 3319 
L 525 4141 
L 1084 4478 
L 1084 3319 
L 1650 3319 
L 1650 2881 
L 1084 2881 
L 1084 941 
Q 1084 700 1114 631 
Q 1144 563 1211 522 
Q 1278 481 1403 481 
Q 1497 481 1650 503 
z
" transform="scale(0.015625)"/>
       </defs>
       <use xlink:href="#ArialMT-77"/>
       <use xlink:href="#ArialMT-68" x="72.216797"/>
       <use xlink:href="#ArialMT-6f" x="127.832031"/>
       <use xlink:href="#ArialMT-6c" x="183.447266"/>
       <use xlink:href="#ArialMT-65" x="205.664062"/>
       <use xlink:href="#ArialMT-74" x="261.279297"/>
       <use xlink:href="#ArialMT-6f" x="289.0625"/>
       <use xlink:href="#ArialMT-6e" x="344.677734"/>
       <use xlink:href="#ArialMT-65" x="400.292969"/>
      </g>
     </g>
    </g>
    <g id="text_3">
     <!-- set -->
     <g style="fill: #262626" transform="translate(189.896406 348.202031) scale(0.1 -0.1)">
      <use xlink:href="#ArialMT-73"/>
      <use xlink:href="#ArialMT-65" x="50"/>
      <use xlink:href="#ArialMT-74" x="105.615234"/>
     </g>
    </g>
   </g>
   <g id="matplotlib.axis_2">
    <g id="ytick_1">
     <g id="line2d_1">
      <path d="M 47.085938 320.898906 
L 346.045937 320.898906 
" clip-path="url(#p75af6c83dc)" style="fill: none; stroke: #ffffff; stroke-width: 0.8; stroke-linecap: round"/>
     </g>
     <g id="text_4">
      <!-- −0.4 -->
      <g style="fill: #262626" transform="translate(20.345313 324.477813) scale(0.1 -0.1)">
       <defs>
        <path id="ArialMT-2212" d="M 3381 1997 
L 356 1997 
L 356 2522 
L 3381 2522 
L 3381 1997 
z
" transform="scale(0.015625)"/>
        <path id="ArialMT-30" d="M 266 2259 
Q 266 3072 433 3567 
Q 600 4063 929 4331 
Q 1259 4600 1759 4600 
Q 2128 4600 2406 4451 
Q 2684 4303 2865 4023 
Q 3047 3744 3150 3342 
Q 3253 2941 3253 2259 
Q 3253 1453 3087 958 
Q 2922 463 2592 192 
Q 2263 -78 1759 -78 
Q 1097 -78 719 397 
Q 266 969 266 2259 
z
M 844 2259 
Q 844 1131 1108 757 
Q 1372 384 1759 384 
Q 2147 384 2411 759 
Q 2675 1134 2675 2259 
Q 2675 3391 2411 3762 
Q 2147 4134 1753 4134 
Q 1366 4134 1134 3806 
Q 844 3388 844 2259 
z
" transform="scale(0.015625)"/>
        <path id="ArialMT-2e" d="M 581 0 
L 581 641 
L 1222 641 
L 1222 0 
L 581 0 
z
" transform="scale(0.015625)"/>
        <path id="ArialMT-34" d="M 2069 0 
L 2069 1097 
L 81 1097 
L 81 1613 
L 2172 4581 
L 2631 4581 
L 2631 1613 
L 3250 1613 
L 3250 1097 
L 2631 1097 
L 2631 0 
L 2069 0 
z
M 2069 1613 
L 2069 3678 
L 634 1613 
L 2069 1613 
z
" transform="scale(0.015625)"/>
       </defs>
       <use xlink:href="#ArialMT-2212"/>
       <use xlink:href="#ArialMT-30" x="58.398438"/>
       <use xlink:href="#ArialMT-2e" x="114.013672"/>
       <use xlink:href="#ArialMT-34" x="141.796875"/>
      </g>
     </g>
    </g>
    <g id="ytick_2">
     <g id="line2d_2">
      <path d="M 47.085938 276.596049 
L 346.045937 276.596049 
" clip-path="url(#p75af6c83dc)" style="fill: none; stroke: #ffffff; stroke-width: 0.8; stroke-linecap: round"/>
     </g>
     <g id="text_5">
      <!-- −0.2 -->
      <g style="fill: #262626" transform="translate(20.345313 280.174955) scale(0.1 -0.1)">
       <defs>
        <path id="ArialMT-32" d="M 3222 541 
L 3222 0 
L 194 0 
Q 188 203 259 391 
Q 375 700 629 1000 
Q 884 1300 1366 1694 
Q 2113 2306 2375 2664 
Q 2638 3022 2638 3341 
Q 2638 3675 2398 3904 
Q 2159 4134 1775 4134 
Q 1369 4134 1125 3890 
Q 881 3647 878 3216 
L 300 3275 
Q 359 3922 746 4261 
Q 1134 4600 1788 4600 
Q 2447 4600 2831 4234 
Q 3216 3869 3216 3328 
Q 3216 3053 3103 2787 
Q 2991 2522 2730 2228 
Q 2469 1934 1863 1422 
Q 1356 997 1212 845 
Q 1069 694 975 541 
L 3222 541 
z
" transform="scale(0.015625)"/>
       </defs>
       <use xlink:href="#ArialMT-2212"/>
       <use xlink:href="#ArialMT-30" x="58.398438"/>
       <use xlink:href="#ArialMT-2e" x="114.013672"/>
       <use xlink:href="#ArialMT-32" x="141.796875"/>
      </g>
     </g>
    </g>
    <g id="ytick_3">
     <g id="line2d_3">
      <path d="M 47.085938 232.293192 
L 346.045937 232.293192 
" clip-path="url(#p75af6c83dc)" style="fill: none; stroke: #ffffff; stroke-width: 0.8; stroke-linecap: round"/>
     </g>
     <g id="text_6">
      <!-- 0.0 -->
      <g style="fill: #262626" transform="translate(26.185938 235.872098) scale(0.1 -0.1)">
       <use xlink:href="#ArialMT-30"/>
       <use xlink:href="#ArialMT-2e" x="55.615234"/>
       <use xlink:href="#ArialMT-30" x="83.398438"/>
      </g>
     </g>
    </g>
    <g id="ytick_4">
     <g id="line2d_4">
      <path d="M 47.085938 187.990335 
L 346.045937 187.990335 
" clip-path="url(#p75af6c83dc)" style="fill: none; stroke: #ffffff; stroke-width: 0.8; stroke-linecap: round"/>
     </g>
     <g id="text_7">
      <!-- 0.2 -->
      <g style="fill: #262626" transform="translate(26.185938 191.569241) scale(0.1 -0.1)">
       <use xlink:href="#ArialMT-30"/>
       <use xlink:href="#ArialMT-2e" x="55.615234"/>
       <use xlink:href="#ArialMT-32" x="83.398438"/>
      </g>
     </g>
    </g>
    <g id="ytick_5">
     <g id="line2d_5">
      <path d="M 47.085938 143.687478 
L 346.045937 143.687478 
" clip-path="url(#p75af6c83dc)" style="fill: none; stroke: #ffffff; stroke-width: 0.8; stroke-linecap: round"/>
     </g>
     <g id="text_8">
      <!-- 0.4 -->
      <g style="fill: #262626" transform="translate(26.185938 147.266384) scale(0.1 -0.1)">
       <use xlink:href="#ArialMT-30"/>
       <use xlink:href="#ArialMT-2e" x="55.615234"/>
       <use xlink:href="#ArialMT-34" x="83.398438"/>
      </g>
     </g>
    </g>
    <g id="ytick_6">
     <g id="line2d_6">
      <path d="M 47.085938 99.384621 
L 346.045937 99.384621 
" clip-path="url(#p75af6c83dc)" style="fill: none; stroke: #ffffff; stroke-width: 0.8; stroke-linecap: round"/>
     </g>
     <g id="text_9">
      <!-- 0.6 -->
      <g style="fill: #262626" transform="translate(26.185938 102.963527) scale(0.1 -0.1)">
       <defs>
        <path id="ArialMT-36" d="M 3184 3459 
L 2625 3416 
Q 2550 3747 2413 3897 
Q 2184 4138 1850 4138 
Q 1581 4138 1378 3988 
Q 1113 3794 959 3422 
Q 806 3050 800 2363 
Q 1003 2672 1297 2822 
Q 1591 2972 1913 2972 
Q 2475 2972 2870 2558 
Q 3266 2144 3266 1488 
Q 3266 1056 3080 686 
Q 2894 316 2569 119 
Q 2244 -78 1831 -78 
Q 1128 -78 684 439 
Q 241 956 241 2144 
Q 241 3472 731 4075 
Q 1159 4600 1884 4600 
Q 2425 4600 2770 4297 
Q 3116 3994 3184 3459 
z
M 888 1484 
Q 888 1194 1011 928 
Q 1134 663 1356 523 
Q 1578 384 1822 384 
Q 2178 384 2434 671 
Q 2691 959 2691 1453 
Q 2691 1928 2437 2201 
Q 2184 2475 1800 2475 
Q 1419 2475 1153 2201 
Q 888 1928 888 1484 
z
" transform="scale(0.015625)"/>
       </defs>
       <use xlink:href="#ArialMT-30"/>
       <use xlink:href="#ArialMT-2e" x="55.615234"/>
       <use xlink:href="#ArialMT-36" x="83.398438"/>
      </g>
     </g>
    </g>
    <g id="ytick_7">
     <g id="line2d_7">
      <path d="M 47.085938 55.081763 
L 346.045937 55.081763 
" clip-path="url(#p75af6c83dc)" style="fill: none; stroke: #ffffff; stroke-width: 0.8; stroke-linecap: round"/>
     </g>
     <g id="text_10">
      <!-- 0.8 -->
      <g style="fill: #262626" transform="translate(26.185938 58.66067) scale(0.1 -0.1)">
       <defs>
        <path id="ArialMT-38" d="M 1131 2484 
Q 781 2613 612 2850 
Q 444 3088 444 3419 
Q 444 3919 803 4259 
Q 1163 4600 1759 4600 
Q 2359 4600 2725 4251 
Q 3091 3903 3091 3403 
Q 3091 3084 2923 2848 
Q 2756 2613 2416 2484 
Q 2838 2347 3058 2040 
Q 3278 1734 3278 1309 
Q 3278 722 2862 322 
Q 2447 -78 1769 -78 
Q 1091 -78 675 323 
Q 259 725 259 1325 
Q 259 1772 486 2073 
Q 713 2375 1131 2484 
z
M 1019 3438 
Q 1019 3113 1228 2906 
Q 1438 2700 1772 2700 
Q 2097 2700 2305 2904 
Q 2513 3109 2513 3406 
Q 2513 3716 2298 3927 
Q 2084 4138 1766 4138 
Q 1444 4138 1231 3931 
Q 1019 3725 1019 3438 
z
M 838 1322 
Q 838 1081 952 856 
Q 1066 631 1291 507 
Q 1516 384 1775 384 
Q 2178 384 2440 643 
Q 2703 903 2703 1303 
Q 2703 1709 2433 1975 
Q 2163 2241 1756 2241 
Q 1359 2241 1098 1978 
Q 838 1716 838 1322 
z
" transform="scale(0.015625)"/>
       </defs>
       <use xlink:href="#ArialMT-30"/>
       <use xlink:href="#ArialMT-2e" x="55.615234"/>
       <use xlink:href="#ArialMT-38" x="83.398438"/>
      </g>
     </g>
    </g>
    <g id="ytick_8">
     <g id="line2d_8">
      <path d="M 47.085938 10.778906 
L 346.045937 10.778906 
" clip-path="url(#p75af6c83dc)" style="fill: none; stroke: #ffffff; stroke-width: 0.8; stroke-linecap: round"/>
     </g>
     <g id="text_11">
      <!-- 1.0 -->
      <g style="fill: #262626" transform="translate(26.185938 14.357812) scale(0.1 -0.1)">
       <defs>
        <path id="ArialMT-31" d="M 2384 0 
L 1822 0 
L 1822 3584 
Q 1619 3391 1289 3197 
Q 959 3003 697 2906 
L 697 3450 
Q 1169 3672 1522 3987 
Q 1875 4303 2022 4600 
L 2384 4600 
L 2384 0 
z
" transform="scale(0.015625)"/>
       </defs>
       <use xlink:href="#ArialMT-31"/>
       <use xlink:href="#ArialMT-2e" x="55.615234"/>
       <use xlink:href="#ArialMT-30" x="83.398438"/>
      </g>
     </g>
    </g>
    <g id="text_12">
     <!-- rate -->
     <g style="fill: #262626" transform="translate(14.357813 174.45375) rotate(-90) scale(0.1 -0.1)">
      <defs>
       <path id="ArialMT-72" d="M 416 0 
L 416 3319 
L 922 3319 
L 922 2816 
Q 1116 3169 1280 3281 
Q 1444 3394 1641 3394 
Q 1925 3394 2219 3213 
L 2025 2691 
Q 1819 2813 1613 2813 
Q 1428 2813 1281 2702 
Q 1134 2591 1072 2394 
Q 978 2094 978 1738 
L 978 0 
L 416 0 
z
" transform="scale(0.015625)"/>
       <path id="ArialMT-61" d="M 2588 409 
Q 2275 144 1986 34 
Q 1697 -75 1366 -75 
Q 819 -75 525 192 
Q 231 459 231 875 
Q 231 1119 342 1320 
Q 453 1522 633 1644 
Q 813 1766 1038 1828 
Q 1203 1872 1538 1913 
Q 2219 1994 2541 2106 
Q 2544 2222 2544 2253 
Q 2544 2597 2384 2738 
Q 2169 2928 1744 2928 
Q 1347 2928 1158 2789 
Q 969 2650 878 2297 
L 328 2372 
Q 403 2725 575 2942 
Q 747 3159 1072 3276 
Q 1397 3394 1825 3394 
Q 2250 3394 2515 3294 
Q 2781 3194 2906 3042 
Q 3031 2891 3081 2659 
Q 3109 2516 3109 2141 
L 3109 1391 
Q 3109 606 3145 398 
Q 3181 191 3288 0 
L 2700 0 
Q 2613 175 2588 409 
z
M 2541 1666 
Q 2234 1541 1622 1453 
Q 1275 1403 1131 1340 
Q 988 1278 909 1158 
Q 831 1038 831 891 
Q 831 666 1001 516 
Q 1172 366 1500 366 
Q 1825 366 2078 508 
Q 2331 650 2450 897 
Q 2541 1088 2541 1459 
L 2541 1666 
z
" transform="scale(0.015625)"/>
      </defs>
      <use xlink:href="#ArialMT-72"/>
      <use xlink:href="#ArialMT-61" x="33.300781"/>
      <use xlink:href="#ArialMT-74" x="88.916016"/>
      <use xlink:href="#ArialMT-65" x="116.699219"/>
     </g>
    </g>
   </g>
   <g id="patch_3">
    <path d="M 84.455938 233.443916 
L 159.195938 233.443916 
L 159.195938 145.158581 
L 84.455938 145.158581 
L 84.455938 233.443916 
z
" clip-path="url(#p75af6c83dc)" style="fill: #3274a1; stroke: #3f3f3f; stroke-width: 1.5; stroke-linejoin: miter"/>
   </g>
   <g id="patch_4">
    <path d="M 233.935937 220.42257 
L 308.675938 220.42257 
L 308.675938 161.408621 
L 233.935937 161.408621 
L 233.935937 220.42257 
z
" clip-path="url(#p75af6c83dc)" style="fill: #e1812c; stroke: #3f3f3f; stroke-width: 1.5; stroke-linejoin: miter"/>
   </g>
   <g id="line2d_9">
    <path d="M 121.825938 233.443916 
L 121.825938 293.400581 
" clip-path="url(#p75af6c83dc)" style="fill: none; stroke: #3f3f3f; stroke-width: 1.5; stroke-linecap: round"/>
   </g>
   <g id="line2d_10">
    <path d="M 121.825938 145.158581 
L 121.825938 27.187372 
" clip-path="url(#p75af6c83dc)" style="fill: none; stroke: #3f3f3f; stroke-width: 1.5; stroke-linecap: round"/>
   </g>
   <g id="line2d_11">
    <path d="M 103.140938 293.400581 
L 140.510938 293.400581 
" clip-path="url(#p75af6c83dc)" style="fill: none; stroke: #3f3f3f; stroke-width: 1.5; stroke-linecap: round"/>
   </g>
   <g id="line2d_12">
    <path d="M 103.140938 27.187372 
L 140.510938 27.187372 
" clip-path="url(#p75af6c83dc)" style="fill: none; stroke: #3f3f3f; stroke-width: 1.5; stroke-linecap: round"/>
   </g>
   <g id="line2d_13"/>
   <g id="line2d_14">
    <path d="M 271.305938 220.42257 
L 271.305938 283.979859 
" clip-path="url(#p75af6c83dc)" style="fill: none; stroke: #3f3f3f; stroke-width: 1.5; stroke-linecap: round"/>
   </g>
   <g id="line2d_15">
    <path d="M 271.305938 161.408621 
L 271.305938 104.048079 
" clip-path="url(#p75af6c83dc)" style="fill: none; stroke: #3f3f3f; stroke-width: 1.5; stroke-linecap: round"/>
   </g>
   <g id="line2d_16">
    <path d="M 252.620937 283.979859 
L 289.990937 283.979859 
" clip-path="url(#p75af6c83dc)" style="fill: none; stroke: #3f3f3f; stroke-width: 1.5; stroke-linecap: round"/>
   </g>
   <g id="line2d_17">
    <path d="M 252.620937 104.048079 
L 289.990937 104.048079 
" clip-path="url(#p75af6c83dc)" style="fill: none; stroke: #3f3f3f; stroke-width: 1.5; stroke-linecap: round"/>
   </g>
   <g id="line2d_18"/>
   <g id="line2d_19">
    <path d="M 84.455938 187.990335 
L 159.195938 187.990335 
" clip-path="url(#p75af6c83dc)" style="fill: none; stroke: #3f3f3f; stroke-width: 1.5; stroke-linecap: round"/>
   </g>
   <g id="line2d_20">
    <path d="M 233.935937 187.990335 
L 308.675938 187.990335 
" clip-path="url(#p75af6c83dc)" style="fill: none; stroke: #3f3f3f; stroke-width: 1.5; stroke-linecap: round"/>
   </g>
   <g id="patch_5">
    <path d="M 47.085938 320.898906 
L 47.085938 10.778906 
" style="fill: none; stroke: #ffffff; stroke-width: 0.8; stroke-linejoin: miter; stroke-linecap: square"/>
   </g>
   <g id="patch_6">
    <path d="M 47.085938 320.898906 
L 346.045937 320.898906 
" style="fill: none; stroke: #ffffff; stroke-width: 0.8; stroke-linejoin: miter; stroke-linecap: square"/>
   </g>
   <g id="PathCollection_1">
    <defs>
     <path id="C0_0_e0ee8f581f" d="M 0 3 
C 0.795609 3 1.55874 2.683901 2.12132 2.12132 
C 2.683901 1.55874 3 0.795609 3 -0 
C 3 -0.795609 2.683901 -1.55874 2.12132 -2.12132 
C 1.55874 -2.683901 0.795609 -3 0 -3 
C -0.795609 -3 -1.55874 -2.683901 -2.12132 -2.12132 
C -2.683901 -1.55874 -3 -0.795609 -3 0 
C -3 0.795609 -2.683901 1.55874 -2.12132 2.12132 
C -1.55874 2.683901 -0.795609 3 0 3 
z
"/>
    </defs>
    <g clip-path="url(#p75af6c83dc)">
     <use xlink:href="#C0_0_e0ee8f581f" x="85.700423" y="227.370652" style="fill: #262626"/>
    </g>
    <g clip-path="url(#p75af6c83dc)">
     <use xlink:href="#C0_0_e0ee8f581f" x="91.929937" y="27.187372" style="fill: #262626"/>
    </g>
    <g clip-path="url(#p75af6c83dc)">
     <use xlink:href="#C0_0_e0ee8f581f" x="85.643166" y="150.682666" style="fill: #262626"/>
    </g>
    <g clip-path="url(#p75af6c83dc)">
     <use xlink:href="#C0_0_e0ee8f581f" x="86.057765" y="194.677559" style="fill: #262626"/>
    </g>
    <g clip-path="url(#p75af6c83dc)">
     <use xlink:href="#C0_0_e0ee8f581f" x="91.929937" y="210.141763" style="fill: #262626"/>
    </g>
    <g clip-path="url(#p75af6c83dc)">
     <use xlink:href="#C0_0_e0ee8f581f" x="86.744794" y="206.733851" style="fill: #262626"/>
    </g>
    <g clip-path="url(#p75af6c83dc)">
     <use xlink:href="#C0_0_e0ee8f581f" x="91.929937" y="247.570039" style="fill: #262626"/>
    </g>
    <g clip-path="url(#p75af6c83dc)">
     <use xlink:href="#C0_0_e0ee8f581f" x="91.929937" y="175.626747" style="fill: #262626"/>
    </g>
    <g clip-path="url(#p75af6c83dc)">
     <use xlink:href="#C0_0_e0ee8f581f" x="91.929937" y="105.7136" style="fill: #262626"/>
    </g>
    <g clip-path="url(#p75af6c83dc)">
     <use xlink:href="#C0_0_e0ee8f581f" x="91.929937" y="94.801566" style="fill: #262626"/>
    </g>
    <g clip-path="url(#p75af6c83dc)">
     <use xlink:href="#C0_0_e0ee8f581f" x="91.929937" y="293.400581" style="fill: #262626"/>
    </g>
    <g clip-path="url(#p75af6c83dc)">
     <use xlink:href="#C0_0_e0ee8f581f" x="91.929937" y="265.855963" style="fill: #262626"/>
    </g>
    <g clip-path="url(#p75af6c83dc)">
     <use xlink:href="#C0_0_e0ee8f581f" x="91.929937" y="196.850906" style="fill: #262626"/>
    </g>
    <g clip-path="url(#p75af6c83dc)">
     <use xlink:href="#C0_0_e0ee8f581f" x="85.629938" y="161.408621" style="fill: #262626"/>
    </g>
    <g clip-path="url(#p75af6c83dc)">
     <use xlink:href="#C0_0_e0ee8f581f" x="97.380384" y="262.846887" style="fill: #262626"/>
    </g>
    <g clip-path="url(#p75af6c83dc)">
     <use xlink:href="#C0_0_e0ee8f581f" x="93.754152" y="136.303668" style="fill: #262626"/>
    </g>
    <g clip-path="url(#p75af6c83dc)">
     <use xlink:href="#C0_0_e0ee8f581f" x="96.178556" y="205.711478" style="fill: #262626"/>
    </g>
    <g clip-path="url(#p75af6c83dc)">
     <use xlink:href="#C0_0_e0ee8f581f" x="91.929937" y="151.071287" style="fill: #262626"/>
    </g>
    <g clip-path="url(#p75af6c83dc)">
     <use xlink:href="#C0_0_e0ee8f581f" x="97.501449" y="148.270532" style="fill: #262626"/>
    </g>
    <g clip-path="url(#p75af6c83dc)">
     <use xlink:href="#C0_0_e0ee8f581f" x="87.10007" y="184.137912" style="fill: #262626"/>
    </g>
    <g clip-path="url(#p75af6c83dc)">
     <use xlink:href="#C0_0_e0ee8f581f" x="91.929937" y="87.827353" style="fill: #262626"/>
    </g>
    <g clip-path="url(#p75af6c83dc)">
     <use xlink:href="#C0_0_e0ee8f581f" x="91.929937" y="142.046631" style="fill: #262626"/>
    </g>
    <g clip-path="url(#p75af6c83dc)">
     <use xlink:href="#C0_0_e0ee8f581f" x="91.929937" y="161.408621" style="fill: #262626"/>
    </g>
    <g clip-path="url(#p75af6c83dc)">
     <use xlink:href="#C0_0_e0ee8f581f" x="91.929937" y="228.265659" style="fill: #262626"/>
    </g>
    <g clip-path="url(#p75af6c83dc)">
     <use xlink:href="#C0_0_e0ee8f581f" x="91.929937" y="256.026865" style="fill: #262626"/>
    </g>
    <g clip-path="url(#p75af6c83dc)">
     <use xlink:href="#C0_0_e0ee8f581f" x="91.929937" y="121.536049" style="fill: #262626"/>
    </g>
    <g clip-path="url(#p75af6c83dc)">
     <use xlink:href="#C0_0_e0ee8f581f" x="86.904327" y="243.951839" style="fill: #262626"/>
    </g>
    <g clip-path="url(#p75af6c83dc)">
     <use xlink:href="#C0_0_e0ee8f581f" x="86.902125" y="138.431206" style="fill: #262626"/>
    </g>
    <g clip-path="url(#p75af6c83dc)">
     <use xlink:href="#C0_0_e0ee8f581f" x="91.929937" y="238.622172" style="fill: #262626"/>
    </g>
    <g clip-path="url(#p75af6c83dc)">
     <use xlink:href="#C0_0_e0ee8f581f" x="85.960453" y="263.93809" style="fill: #262626"/>
    </g>
    <g clip-path="url(#p75af6c83dc)">
     <use xlink:href="#C0_0_e0ee8f581f" x="91.929937" y="187.990335" style="fill: #262626"/>
    </g>
   </g>
   <g id="PathCollection_2">
    <path d="M 0 360.389531 
C 0.795609 360.389531 1.55874 360.073432 2.12132 359.510852 
C 2.683901 358.948271 3 358.185141 3 357.389531 
C 3 356.593922 2.683901 355.830792 2.12132 355.268211 
C 1.55874 354.70563 0.795609 354.389531 0 354.389531 
C -0.795609 354.389531 -1.55874 354.70563 -2.12132 355.268211 
C -2.683901 355.830792 -3 356.593922 -3 357.389531 
C -3 358.185141 -2.683901 358.948271 -2.12132 359.510852 
C -1.55874 360.073432 -0.795609 360.389531 0 360.389531 
" clip-path="url(#p75af6c83dc)" style="fill: none"/>
   </g>
   <g id="PathCollection_3">
    <path d="M 0 360.389531 
C 0.795609 360.389531 1.55874 360.073432 2.12132 359.510852 
C 2.683901 358.948271 3 358.185141 3 357.389531 
C 3 356.593922 2.683901 355.830792 2.12132 355.268211 
C 1.55874 354.70563 0.795609 354.389531 0 354.389531 
C -0.795609 354.389531 -1.55874 354.70563 -2.12132 355.268211 
C -2.683901 355.830792 -3 356.593922 -3 357.389531 
C -3 358.185141 -2.683901 358.948271 -2.12132 359.510852 
C -1.55874 360.073432 -0.795609 360.389531 0 360.389531 
" clip-path="url(#p75af6c83dc)" style="fill: none"/>
   </g>
   <g id="PathCollection_4">
    <defs>
     <path id="C1_0_67a4d23b7f" d="M 0 3 
C 0.795609 3 1.55874 2.683901 2.12132 2.12132 
C 2.683901 1.55874 3 0.795609 3 -0 
C 3 -0.795609 2.683901 -1.55874 2.12132 -2.12132 
C 1.55874 -2.683901 0.795609 -3 0 -3 
C -0.795609 -3 -1.55874 -2.683901 -2.12132 -2.12132 
C -2.683901 -1.55874 -3 -0.795609 -3 0 
C -3 0.795609 -2.683901 1.55874 -2.12132 2.12132 
C -1.55874 2.683901 -0.795609 3 0 3 
z
"/>
    </defs>
    <g clip-path="url(#p75af6c83dc)">
     <use xlink:href="#C1_0_67a4d23b7f" x="295.458557" y="209.689693"/>
    </g>
    <g clip-path="url(#p75af6c83dc)">
     <use xlink:href="#C1_0_67a4d23b7f" x="309.926537" y="149.225335"/>
    </g>
    <g clip-path="url(#p75af6c83dc)">
     <use xlink:href="#C1_0_67a4d23b7f" x="301.201937" y="212.15553"/>
    </g>
    <g clip-path="url(#p75af6c83dc)">
     <use xlink:href="#C1_0_67a4d23b7f" x="294.917684" y="220.210595"/>
    </g>
    <g clip-path="url(#p75af6c83dc)">
     <use xlink:href="#C1_0_67a4d23b7f" x="301.201937" y="232.293192"/>
    </g>
    <g clip-path="url(#p75af6c83dc)">
     <use xlink:href="#C1_0_67a4d23b7f" x="301.201937" y="161.408621"/>
    </g>
    <g clip-path="url(#p75af6c83dc)">
     <use xlink:href="#C1_0_67a4d23b7f" x="301.201937" y="283.979859"/>
    </g>
    <g clip-path="url(#p75af6c83dc)">
     <use xlink:href="#C1_0_67a4d23b7f" x="301.201937" y="271.383948"/>
    </g>
    <g clip-path="url(#p75af6c83dc)">
     <use xlink:href="#C1_0_67a4d23b7f" x="307.501938" y="187.990335"/>
    </g>
    <g clip-path="url(#p75af6c83dc)">
     <use xlink:href="#C1_0_67a4d23b7f" x="301.201937" y="143.687478"/>
    </g>
    <g clip-path="url(#p75af6c83dc)">
     <use xlink:href="#C1_0_67a4d23b7f" x="301.201937" y="220.634545"/>
    </g>
    <g clip-path="url(#p75af6c83dc)">
     <use xlink:href="#C1_0_67a4d23b7f" x="301.201937" y="154.763192"/>
    </g>
    <g clip-path="url(#p75af6c83dc)">
     <use xlink:href="#C1_0_67a4d23b7f" x="288.851435" y="186.318529"/>
    </g>
    <g clip-path="url(#p75af6c83dc)">
     <use xlink:href="#C1_0_67a4d23b7f" x="307.501938" y="161.408621"/>
    </g>
    <g clip-path="url(#p75af6c83dc)">
     <use xlink:href="#C1_0_67a4d23b7f" x="301.201937" y="187.990335"/>
    </g>
    <g clip-path="url(#p75af6c83dc)">
     <use xlink:href="#C1_0_67a4d23b7f" x="301.201937" y="136.303668"/>
    </g>
    <g clip-path="url(#p75af6c83dc)">
     <use xlink:href="#C1_0_67a4d23b7f" x="313.55244" y="186.318529"/>
    </g>
    <g clip-path="url(#p75af6c83dc)">
     <use xlink:href="#C1_0_67a4d23b7f" x="294.901938" y="187.990335"/>
    </g>
    <g clip-path="url(#p75af6c83dc)">
     <use xlink:href="#C1_0_67a4d23b7f" x="301.201937" y="203.036588"/>
    </g>
    <g clip-path="url(#p75af6c83dc)">
     <use xlink:href="#C1_0_67a4d23b7f" x="295.520229" y="152.171004"/>
    </g>
    <g clip-path="url(#p75af6c83dc)">
     <use xlink:href="#C1_0_67a4d23b7f" x="301.201937" y="104.048079"/>
    </g>
    <g clip-path="url(#p75af6c83dc)">
     <use xlink:href="#C1_0_67a4d23b7f" x="303.626537" y="149.225335"/>
    </g>
    <g clip-path="url(#p75af6c83dc)">
     <use xlink:href="#C1_0_67a4d23b7f" x="312.91136" y="216.470743"/>
    </g>
    <g clip-path="url(#p75af6c83dc)">
     <use xlink:href="#C1_0_67a4d23b7f" x="301.201937" y="247.060811"/>
    </g>
    <g clip-path="url(#p75af6c83dc)">
     <use xlink:href="#C1_0_67a4d23b7f" x="301.201937" y="254.444621"/>
    </g>
    <g clip-path="url(#p75af6c83dc)">
     <use xlink:href="#C1_0_67a4d23b7f" x="294.901938" y="161.408621"/>
    </g>
    <g clip-path="url(#p75af6c83dc)">
     <use xlink:href="#C1_0_67a4d23b7f" x="289.283707" y="217.525573"/>
    </g>
    <g clip-path="url(#p75af6c83dc)">
     <use xlink:href="#C1_0_67a4d23b7f" x="301.201937" y="180.606525"/>
    </g>
    <g clip-path="url(#p75af6c83dc)">
     <use xlink:href="#C1_0_67a4d23b7f" x="295.044966" y="270.112704"/>
    </g>
    <g clip-path="url(#p75af6c83dc)">
     <use xlink:href="#C1_0_67a4d23b7f" x="301.201937" y="263.93809"/>
    </g>
    <g clip-path="url(#p75af6c83dc)">
     <use xlink:href="#C1_0_67a4d23b7f" x="307.335115" y="219.26294"/>
    </g>
   </g>
  </g>
 </g>
 <defs>
  <clipPath id="p75af6c83dc">
   <rect x="47.085938" y="10.778906" width="298.96" height="310.12"/>
  </clipPath>
 </defs>
</svg>
