<?xml version="1.0" encoding="utf-8" standalone="no"?>
<!DOCTYPE svg PUBLIC "-//W3C//DTD SVG 1.1//EN"
  "http://www.w3.org/Graphics/SVG/1.1/DTD/svg11.dtd">
<svg xmlns:xlink="http://www.w3.org/1999/xlink" width="427.069267pt" height="354.238034pt" viewBox="0 0 427.069267 354.238034" xmlns="http://www.w3.org/2000/svg" version="1.1">
 <metadata>
  <rdf:RDF xmlns:dc="http://purl.org/dc/elements/1.1/" xmlns:cc="http://creativecommons.org/ns#" xmlns:rdf="http://www.w3.org/1999/02/22-rdf-syntax-ns#">
   <cc:Work>
    <dc:type rdf:resource="http://purl.org/dc/dcmitype/StillImage"/>
    <dc:date>2025-01-25T21:06:47.346565</dc:date>
    <dc:format>image/svg+xml</dc:format>
    <dc:creator>
     <cc:Agent>
      <dc:title>Matplotlib v3.7.2, https://matplotlib.org/</dc:title>
     </cc:Agent>
    </dc:creator>
   </cc:Work>
  </rdf:RDF>
 </metadata>
 <defs>
  <style type="text/css">*{stroke-linejoin: round; stroke-linecap: butt}</style>
 </defs>
 <g id="figure_1">
  <g id="patch_1">
   <path d="M 0 354.238034 
L 427.069267 354.238034 
L 427.069267 0 
L 0 0 
z
" style="fill: #ffffff"/>
  </g>
  <g id="axes_1">
   <g id="patch_2">
    <path d="M 41.245313 317.747409 
L 342.913467 317.747409 
L 342.913467 7.962681 
L 41.245313 7.962681 
z
" style="fill: #eaeaf2"/>
   </g>
   <g id="matplotlib.axis_1">
    <g id="xtick_1">
     <g id="text_1">
      <!-- diminished -->
      <g style="fill: #262626" transform="translate(92.762351 331.905221) scale(0.1 -0.1)">
       <defs>
        <path id="ArialMT-64" d="M 2575 0 
L 2575 419 
Q 2259 -75 1647 -75 
Q 1250 -75 917 144 
Q 584 363 401 755 
Q 219 1147 219 1656 
Q 219 2153 384 2558 
Q 550 2963 881 3178 
Q 1213 3394 1622 3394 
Q 1922 3394 2156 3267 
Q 2391 3141 2538 2938 
L 2538 4581 
L 3097 4581 
L 3097 0 
L 2575 0 
z
M 797 1656 
Q 797 1019 1065 703 
Q 1334 388 1700 388 
Q 2069 388 2326 689 
Q 2584 991 2584 1609 
Q 2584 2291 2321 2609 
Q 2059 2928 1675 2928 
Q 1300 2928 1048 2622 
Q 797 2316 797 1656 
z
" transform="scale(0.015625)"/>
        <path id="ArialMT-69" d="M 425 3934 
L 425 4581 
L 988 4581 
L 988 3934 
L 425 3934 
z
M 425 0 
L 425 3319 
L 988 3319 
L 988 0 
L 425 0 
z
" transform="scale(0.015625)"/>
        <path id="ArialMT-6d" d="M 422 0 
L 422 3319 
L 925 3319 
L 925 2853 
Q 1081 3097 1340 3245 
Q 1600 3394 1931 3394 
Q 2300 3394 2536 3241 
Q 2772 3088 2869 2813 
Q 3263 3394 3894 3394 
Q 4388 3394 4653 3120 
Q 4919 2847 4919 2278 
L 4919 0 
L 4359 0 
L 4359 2091 
Q 4359 2428 4304 2576 
Q 4250 2725 4106 2815 
Q 3963 2906 3769 2906 
Q 3419 2906 3187 2673 
Q 2956 2441 2956 1928 
L 2956 0 
L 2394 0 
L 2394 2156 
Q 2394 2531 2256 2718 
Q 2119 2906 1806 2906 
Q 1569 2906 1367 2781 
Q 1166 2656 1075 2415 
Q 984 2175 984 1722 
L 984 0 
L 422 0 
z
" transform="scale(0.015625)"/>
        <path id="ArialMT-6e" d="M 422 0 
L 422 3319 
L 928 3319 
L 928 2847 
Q 1294 3394 1984 3394 
Q 2284 3394 2536 3286 
Q 2788 3178 2913 3003 
Q 3038 2828 3088 2588 
Q 3119 2431 3119 2041 
L 3119 0 
L 2556 0 
L 2556 2019 
Q 2556 2363 2490 2533 
Q 2425 2703 2258 2804 
Q 2091 2906 1866 2906 
Q 1506 2906 1245 2678 
Q 984 2450 984 1813 
L 984 0 
L 422 0 
z
" transform="scale(0.015625)"/>
        <path id="ArialMT-73" d="M 197 991 
L 753 1078 
Q 800 744 1014 566 
Q 1228 388 1613 388 
Q 2000 388 2187 545 
Q 2375 703 2375 916 
Q 2375 1106 2209 1216 
Q 2094 1291 1634 1406 
Q 1016 1563 777 1677 
Q 538 1791 414 1992 
Q 291 2194 291 2438 
Q 291 2659 392 2848 
Q 494 3038 669 3163 
Q 800 3259 1026 3326 
Q 1253 3394 1513 3394 
Q 1903 3394 2198 3281 
Q 2494 3169 2634 2976 
Q 2775 2784 2828 2463 
L 2278 2388 
Q 2241 2644 2061 2787 
Q 1881 2931 1553 2931 
Q 1166 2931 1000 2803 
Q 834 2675 834 2503 
Q 834 2394 903 2306 
Q 972 2216 1119 2156 
Q 1203 2125 1616 2013 
Q 2213 1853 2448 1751 
Q 2684 1650 2818 1456 
Q 2953 1263 2953 975 
Q 2953 694 2789 445 
Q 2625 197 2315 61 
Q 2006 -75 1616 -75 
Q 969 -75 630 194 
Q 291 463 197 991 
z
" transform="scale(0.015625)"/>
        <path id="ArialMT-68" d="M 422 0 
L 422 4581 
L 984 4581 
L 984 2938 
Q 1378 3394 1978 3394 
Q 2347 3394 2619 3248 
Q 2891 3103 3008 2847 
Q 3125 2591 3125 2103 
L 3125 0 
L 2563 0 
L 2563 2103 
Q 2563 2525 2380 2717 
Q 2197 2909 1863 2909 
Q 1613 2909 1392 2779 
Q 1172 2650 1078 2428 
Q 984 2206 984 1816 
L 984 0 
L 422 0 
z
" transform="scale(0.015625)"/>
        <path id="ArialMT-65" d="M 2694 1069 
L 3275 997 
Q 3138 488 2766 206 
Q 2394 -75 1816 -75 
Q 1088 -75 661 373 
Q 234 822 234 1631 
Q 234 2469 665 2931 
Q 1097 3394 1784 3394 
Q 2450 3394 2872 2941 
Q 3294 2488 3294 1666 
Q 3294 1616 3291 1516 
L 816 1516 
Q 847 969 1125 678 
Q 1403 388 1819 388 
Q 2128 388 2347 550 
Q 2566 713 2694 1069 
z
M 847 1978 
L 2700 1978 
Q 2663 2397 2488 2606 
Q 2219 2931 1791 2931 
Q 1403 2931 1139 2672 
Q 875 2413 847 1978 
z
" transform="scale(0.015625)"/>
       </defs>
       <use xlink:href="#ArialMT-64"/>
       <use xlink:href="#ArialMT-69" x="55.615234"/>
       <use xlink:href="#ArialMT-6d" x="77.832031"/>
       <use xlink:href="#ArialMT-69" x="161.132812"/>
       <use xlink:href="#ArialMT-6e" x="183.349609"/>
       <use xlink:href="#ArialMT-69" x="238.964844"/>
       <use xlink:href="#ArialMT-73" x="261.181641"/>
       <use xlink:href="#ArialMT-68" x="311.181641"/>
       <use xlink:href="#ArialMT-65" x="366.796875"/>
       <use xlink:href="#ArialMT-64" x="422.412109"/>
      </g>
     </g>
    </g>
    <g id="xtick_2">
     <g id="text_2">
      <!-- wholetone -->
      <g style="fill: #262626" transform="translate(244.702679 331.905221) scale(0.1 -0.1)">
       <defs>
        <path id="ArialMT-77" d="M 1034 0 
L 19 3319 
L 600 3319 
L 1128 1403 
L 1325 691 
Q 1338 744 1497 1375 
L 2025 3319 
L 2603 3319 
L 3100 1394 
L 3266 759 
L 3456 1400 
L 4025 3319 
L 4572 3319 
L 3534 0 
L 2950 0 
L 2422 1988 
L 2294 2553 
L 1622 0 
L 1034 0 
z
" transform="scale(0.015625)"/>
        <path id="ArialMT-6f" d="M 213 1659 
Q 213 2581 725 3025 
Q 1153 3394 1769 3394 
Q 2453 3394 2887 2945 
Q 3322 2497 3322 1706 
Q 3322 1066 3130 698 
Q 2938 331 2570 128 
Q 2203 -75 1769 -75 
Q 1072 -75 642 372 
Q 213 819 213 1659 
z
M 791 1659 
Q 791 1022 1069 705 
Q 1347 388 1769 388 
Q 2188 388 2466 706 
Q 2744 1025 2744 1678 
Q 2744 2294 2464 2611 
Q 2184 2928 1769 2928 
Q 1347 2928 1069 2612 
Q 791 2297 791 1659 
z
" transform="scale(0.015625)"/>
        <path id="ArialMT-6c" d="M 409 0 
L 409 4581 
L 972 4581 
L 972 0 
L 409 0 
z
" transform="scale(0.015625)"/>
        <path id="ArialMT-74" d="M 1650 503 
L 1731 6 
Q 1494 -44 1306 -44 
Q 1000 -44 831 53 
Q 663 150 594 308 
Q 525 466 525 972 
L 525 2881 
L 113 2881 
L 113 3319 
L 525 3319 
L 525 4141 
L 1084 4478 
L 1084 3319 
L 1650 3319 
L 1650 2881 
L 1084 2881 
L 1084 941 
Q 1084 700 1114 631 
Q 1144 563 1211 522 
Q 1278 481 1403 481 
Q 1497 481 1650 503 
z
" transform="scale(0.015625)"/>
       </defs>
       <use xlink:href="#ArialMT-77"/>
       <use xlink:href="#ArialMT-68" x="72.216797"/>
       <use xlink:href="#ArialMT-6f" x="127.832031"/>
       <use xlink:href="#ArialMT-6c" x="183.447266"/>
       <use xlink:href="#ArialMT-65" x="205.664062"/>
       <use xlink:href="#ArialMT-74" x="261.279297"/>
       <use xlink:href="#ArialMT-6f" x="289.0625"/>
       <use xlink:href="#ArialMT-6e" x="344.677734"/>
       <use xlink:href="#ArialMT-65" x="400.292969"/>
      </g>
     </g>
    </g>
    <g id="text_3">
     <!-- set -->
     <g style="fill: #262626" transform="translate(185.409859 345.050534) scale(0.1 -0.1)">
      <use xlink:href="#ArialMT-73"/>
      <use xlink:href="#ArialMT-65" x="50"/>
      <use xlink:href="#ArialMT-74" x="105.615234"/>
     </g>
    </g>
   </g>
   <g id="matplotlib.axis_2">
    <g id="ytick_1">
     <g id="line2d_1">
      <path d="M 41.245313 314.931184 
L 342.913467 314.931184 
" clip-path="url(#p9ca819c11f)" style="fill: none; stroke: #ffffff; stroke-width: 0.8; stroke-linecap: round"/>
     </g>
     <g id="text_4">
      <!-- 0.0 -->
      <g style="fill: #262626" transform="translate(20.345313 318.51009) scale(0.1 -0.1)">
       <defs>
        <path id="ArialMT-30" d="M 266 2259 
Q 266 3072 433 3567 
Q 600 4063 929 4331 
Q 1259 4600 1759 4600 
Q 2128 4600 2406 4451 
Q 2684 4303 2865 4023 
Q 3047 3744 3150 3342 
Q 3253 2941 3253 2259 
Q 3253 1453 3087 958 
Q 2922 463 2592 192 
Q 2263 -78 1759 -78 
Q 1097 -78 719 397 
Q 266 969 266 2259 
z
M 844 2259 
Q 844 1131 1108 757 
Q 1372 384 1759 384 
Q 2147 384 2411 759 
Q 2675 1134 2675 2259 
Q 2675 3391 2411 3762 
Q 2147 4134 1753 4134 
Q 1366 4134 1134 3806 
Q 844 3388 844 2259 
z
" transform="scale(0.015625)"/>
        <path id="ArialMT-2e" d="M 581 0 
L 581 641 
L 1222 641 
L 1222 0 
L 581 0 
z
" transform="scale(0.015625)"/>
       </defs>
       <use xlink:href="#ArialMT-30"/>
       <use xlink:href="#ArialMT-2e" x="55.615234"/>
       <use xlink:href="#ArialMT-30" x="83.398438"/>
      </g>
     </g>
    </g>
    <g id="ytick_2">
     <g id="line2d_2">
      <path d="M 41.245313 254.100728 
L 342.913467 254.100728 
" clip-path="url(#p9ca819c11f)" style="fill: none; stroke: #ffffff; stroke-width: 0.8; stroke-linecap: round"/>
     </g>
     <g id="text_5">
      <!-- 0.2 -->
      <g style="fill: #262626" transform="translate(20.345313 257.679635) scale(0.1 -0.1)">
       <defs>
        <path id="ArialMT-32" d="M 3222 541 
L 3222 0 
L 194 0 
Q 188 203 259 391 
Q 375 700 629 1000 
Q 884 1300 1366 1694 
Q 2113 2306 2375 2664 
Q 2638 3022 2638 3341 
Q 2638 3675 2398 3904 
Q 2159 4134 1775 4134 
Q 1369 4134 1125 3890 
Q 881 3647 878 3216 
L 300 3275 
Q 359 3922 746 4261 
Q 1134 4600 1788 4600 
Q 2447 4600 2831 4234 
Q 3216 3869 3216 3328 
Q 3216 3053 3103 2787 
Q 2991 2522 2730 2228 
Q 2469 1934 1863 1422 
Q 1356 997 1212 845 
Q 1069 694 975 541 
L 3222 541 
z
" transform="scale(0.015625)"/>
       </defs>
       <use xlink:href="#ArialMT-30"/>
       <use xlink:href="#ArialMT-2e" x="55.615234"/>
       <use xlink:href="#ArialMT-32" x="83.398438"/>
      </g>
     </g>
    </g>
    <g id="ytick_3">
     <g id="line2d_3">
      <path d="M 41.245313 193.270273 
L 342.913467 193.270273 
" clip-path="url(#p9ca819c11f)" style="fill: none; stroke: #ffffff; stroke-width: 0.8; stroke-linecap: round"/>
     </g>
     <g id="text_6">
      <!-- 0.4 -->
      <g style="fill: #262626" transform="translate(20.345313 196.849179) scale(0.1 -0.1)">
       <defs>
        <path id="ArialMT-34" d="M 2069 0 
L 2069 1097 
L 81 1097 
L 81 1613 
L 2172 4581 
L 2631 4581 
L 2631 1613 
L 3250 1613 
L 3250 1097 
L 2631 1097 
L 2631 0 
L 2069 0 
z
M 2069 1613 
L 2069 3678 
L 634 1613 
L 2069 1613 
z
" transform="scale(0.015625)"/>
       </defs>
       <use xlink:href="#ArialMT-30"/>
       <use xlink:href="#ArialMT-2e" x="55.615234"/>
       <use xlink:href="#ArialMT-34" x="83.398438"/>
      </g>
     </g>
    </g>
    <g id="ytick_4">
     <g id="line2d_4">
      <path d="M 41.245313 132.439817 
L 342.913467 132.439817 
" clip-path="url(#p9ca819c11f)" style="fill: none; stroke: #ffffff; stroke-width: 0.8; stroke-linecap: round"/>
     </g>
     <g id="text_7">
      <!-- 0.6 -->
      <g style="fill: #262626" transform="translate(20.345313 136.018724) scale(0.1 -0.1)">
       <defs>
        <path id="ArialMT-36" d="M 3184 3459 
L 2625 3416 
Q 2550 3747 2413 3897 
Q 2184 4138 1850 4138 
Q 1581 4138 1378 3988 
Q 1113 3794 959 3422 
Q 806 3050 800 2363 
Q 1003 2672 1297 2822 
Q 1591 2972 1913 2972 
Q 2475 2972 2870 2558 
Q 3266 2144 3266 1488 
Q 3266 1056 3080 686 
Q 2894 316 2569 119 
Q 2244 -78 1831 -78 
Q 1128 -78 684 439 
Q 241 956 241 2144 
Q 241 3472 731 4075 
Q 1159 4600 1884 4600 
Q 2425 4600 2770 4297 
Q 3116 3994 3184 3459 
z
M 888 1484 
Q 888 1194 1011 928 
Q 1134 663 1356 523 
Q 1578 384 1822 384 
Q 2178 384 2434 671 
Q 2691 959 2691 1453 
Q 2691 1928 2437 2201 
Q 2184 2475 1800 2475 
Q 1419 2475 1153 2201 
Q 888 1928 888 1484 
z
" transform="scale(0.015625)"/>
       </defs>
       <use xlink:href="#ArialMT-30"/>
       <use xlink:href="#ArialMT-2e" x="55.615234"/>
       <use xlink:href="#ArialMT-36" x="83.398438"/>
      </g>
     </g>
    </g>
    <g id="ytick_5">
     <g id="line2d_5">
      <path d="M 41.245313 71.609362 
L 342.913467 71.609362 
" clip-path="url(#p9ca819c11f)" style="fill: none; stroke: #ffffff; stroke-width: 0.8; stroke-linecap: round"/>
     </g>
     <g id="text_8">
      <!-- 0.8 -->
      <g style="fill: #262626" transform="translate(20.345313 75.188268) scale(0.1 -0.1)">
       <defs>
        <path id="ArialMT-38" d="M 1131 2484 
Q 781 2613 612 2850 
Q 444 3088 444 3419 
Q 444 3919 803 4259 
Q 1163 4600 1759 4600 
Q 2359 4600 2725 4251 
Q 3091 3903 3091 3403 
Q 3091 3084 2923 2848 
Q 2756 2613 2416 2484 
Q 2838 2347 3058 2040 
Q 3278 1734 3278 1309 
Q 3278 722 2862 322 
Q 2447 -78 1769 -78 
Q 1091 -78 675 323 
Q 259 725 259 1325 
Q 259 1772 486 2073 
Q 713 2375 1131 2484 
z
M 1019 3438 
Q 1019 3113 1228 2906 
Q 1438 2700 1772 2700 
Q 2097 2700 2305 2904 
Q 2513 3109 2513 3406 
Q 2513 3716 2298 3927 
Q 2084 4138 1766 4138 
Q 1444 4138 1231 3931 
Q 1019 3725 1019 3438 
z
M 838 1322 
Q 838 1081 952 856 
Q 1066 631 1291 507 
Q 1516 384 1775 384 
Q 2178 384 2440 643 
Q 2703 903 2703 1303 
Q 2703 1709 2433 1975 
Q 2163 2241 1756 2241 
Q 1359 2241 1098 1978 
Q 838 1716 838 1322 
z
" transform="scale(0.015625)"/>
       </defs>
       <use xlink:href="#ArialMT-30"/>
       <use xlink:href="#ArialMT-2e" x="55.615234"/>
       <use xlink:href="#ArialMT-38" x="83.398438"/>
      </g>
     </g>
    </g>
    <g id="ytick_6">
     <g id="line2d_6">
      <path d="M 41.245313 10.778906 
L 342.913467 10.778906 
" clip-path="url(#p9ca819c11f)" style="fill: none; stroke: #ffffff; stroke-width: 0.8; stroke-linecap: round"/>
     </g>
     <g id="text_9">
      <!-- 1.0 -->
      <g style="fill: #262626" transform="translate(20.345313 14.357812) scale(0.1 -0.1)">
       <defs>
        <path id="ArialMT-31" d="M 2384 0 
L 1822 0 
L 1822 3584 
Q 1619 3391 1289 3197 
Q 959 3003 697 2906 
L 697 3450 
Q 1169 3672 1522 3987 
Q 1875 4303 2022 4600 
L 2384 4600 
L 2384 0 
z
" transform="scale(0.015625)"/>
       </defs>
       <use xlink:href="#ArialMT-31"/>
       <use xlink:href="#ArialMT-2e" x="55.615234"/>
       <use xlink:href="#ArialMT-30" x="83.398438"/>
      </g>
     </g>
    </g>
    <g id="text_10">
     <!-- rate -->
     <g style="fill: #262626" transform="translate(14.357813 171.469889) rotate(-90) scale(0.1 -0.1)">
      <defs>
       <path id="ArialMT-72" d="M 416 0 
L 416 3319 
L 922 3319 
L 922 2816 
Q 1116 3169 1280 3281 
Q 1444 3394 1641 3394 
Q 1925 3394 2219 3213 
L 2025 2691 
Q 1819 2813 1613 2813 
Q 1428 2813 1281 2702 
Q 1134 2591 1072 2394 
Q 978 2094 978 1738 
L 978 0 
L 416 0 
z
" transform="scale(0.015625)"/>
       <path id="ArialMT-61" d="M 2588 409 
Q 2275 144 1986 34 
Q 1697 -75 1366 -75 
Q 819 -75 525 192 
Q 231 459 231 875 
Q 231 1119 342 1320 
Q 453 1522 633 1644 
Q 813 1766 1038 1828 
Q 1203 1872 1538 1913 
Q 2219 1994 2541 2106 
Q 2544 2222 2544 2253 
Q 2544 2597 2384 2738 
Q 2169 2928 1744 2928 
Q 1347 2928 1158 2789 
Q 969 2650 878 2297 
L 328 2372 
Q 403 2725 575 2942 
Q 747 3159 1072 3276 
Q 1397 3394 1825 3394 
Q 2250 3394 2515 3294 
Q 2781 3194 2906 3042 
Q 3031 2891 3081 2659 
Q 3109 2516 3109 2141 
L 3109 1391 
Q 3109 606 3145 398 
Q 3181 191 3288 0 
L 2700 0 
Q 2613 175 2588 409 
z
M 2541 1666 
Q 2234 1541 1622 1453 
Q 1275 1403 1131 1340 
Q 988 1278 909 1158 
Q 831 1038 831 891 
Q 831 666 1001 516 
Q 1172 366 1500 366 
Q 1825 366 2078 508 
Q 2331 650 2450 897 
Q 2541 1088 2541 1459 
L 2541 1666 
z
" transform="scale(0.015625)"/>
      </defs>
      <use xlink:href="#ArialMT-72"/>
      <use xlink:href="#ArialMT-61" x="33.300781"/>
      <use xlink:href="#ArialMT-74" x="88.916016"/>
      <use xlink:href="#ArialMT-65" x="116.699219"/>
     </g>
    </g>
   </g>
   <g id="patch_3">
    <path d="M 79.330917 163.645051 
L 116.285266 163.645051 
L 116.285266 103.034546 
L 79.330917 103.034546 
L 79.330917 163.645051 
z
" clip-path="url(#p9ca819c11f)" style="fill: #3274a1; stroke: #3f3f3f; stroke-width: 1.5; stroke-linejoin: miter"/>
   </g>
   <g id="patch_4">
    <path d="M 117.039436 222.675544 
L 153.993785 222.675544 
L 153.993785 162.065039 
L 117.039436 162.065039 
L 117.039436 222.675544 
z
" clip-path="url(#p9ca819c11f)" style="fill: #e1812c; stroke: #3f3f3f; stroke-width: 1.5; stroke-linejoin: miter"/>
   </g>
   <g id="patch_5">
    <path d="M 230.164995 154.70551 
L 267.119344 154.70551 
L 267.119344 114.190681 
L 230.164995 114.190681 
L 230.164995 154.70551 
z
" clip-path="url(#p9ca819c11f)" style="fill: #3274a1; stroke: #3f3f3f; stroke-width: 1.5; stroke-linejoin: miter"/>
   </g>
   <g id="patch_6">
    <path d="M 267.873514 211.51941 
L 304.827863 211.51941 
L 304.827863 171.00458 
L 267.873514 171.00458 
L 267.873514 211.51941 
z
" clip-path="url(#p9ca819c11f)" style="fill: #e1812c; stroke: #3f3f3f; stroke-width: 1.5; stroke-linejoin: miter"/>
   </g>
   <g id="patch_7">
    <path d="M 116.662351 314.931184 
L 116.662351 314.931184 
L 116.662351 314.931184 
L 116.662351 314.931184 
z
" clip-path="url(#p9ca819c11f)" style="fill: #3274a1; stroke: #3f3f3f; stroke-width: 0.75; stroke-linejoin: miter"/>
   </g>
   <g id="patch_8">
    <path d="M 116.662351 314.931184 
L 116.662351 314.931184 
L 116.662351 314.931184 
L 116.662351 314.931184 
z
" clip-path="url(#p9ca819c11f)" style="fill: #e1812c; stroke: #3f3f3f; stroke-width: 0.75; stroke-linejoin: miter"/>
   </g>
   <g id="PathCollection_1"/>
   <g id="PathCollection_2"/>
   <g id="line2d_7">
    <path d="M 97.808092 163.645051 
L 97.808092 204.807083 
" clip-path="url(#p9ca819c11f)" style="fill: none; stroke: #3f3f3f; stroke-width: 1.5; stroke-linecap: round"/>
   </g>
   <g id="line2d_8">
    <path d="M 97.808092 103.034546 
L 97.808092 22.043805 
" clip-path="url(#p9ca819c11f)" style="fill: none; stroke: #3f3f3f; stroke-width: 1.5; stroke-linecap: round"/>
   </g>
   <g id="line2d_9">
    <path d="M 88.569504 204.807083 
L 107.046679 204.807083 
" clip-path="url(#p9ca819c11f)" style="fill: none; stroke: #3f3f3f; stroke-width: 1.5; stroke-linecap: round"/>
   </g>
   <g id="line2d_10">
    <path d="M 88.569504 22.043805 
L 107.046679 22.043805 
" clip-path="url(#p9ca819c11f)" style="fill: none; stroke: #3f3f3f; stroke-width: 1.5; stroke-linecap: round"/>
   </g>
   <g id="line2d_11"/>
   <g id="line2d_12">
    <path d="M 135.516611 222.675544 
L 135.516611 303.666285 
" clip-path="url(#p9ca819c11f)" style="fill: none; stroke: #3f3f3f; stroke-width: 1.5; stroke-linecap: round"/>
   </g>
   <g id="line2d_13">
    <path d="M 135.516611 162.065039 
L 135.516611 120.903007 
" clip-path="url(#p9ca819c11f)" style="fill: none; stroke: #3f3f3f; stroke-width: 1.5; stroke-linecap: round"/>
   </g>
   <g id="line2d_14">
    <path d="M 126.278024 303.666285 
L 144.755198 303.666285 
" clip-path="url(#p9ca819c11f)" style="fill: none; stroke: #3f3f3f; stroke-width: 1.5; stroke-linecap: round"/>
   </g>
   <g id="line2d_15">
    <path d="M 126.278024 120.903007 
L 144.755198 120.903007 
" clip-path="url(#p9ca819c11f)" style="fill: none; stroke: #3f3f3f; stroke-width: 1.5; stroke-linecap: round"/>
   </g>
   <g id="line2d_16"/>
   <g id="line2d_17">
    <path d="M 248.642169 154.70551 
L 248.642169 198.339477 
" clip-path="url(#p9ca819c11f)" style="fill: none; stroke: #3f3f3f; stroke-width: 1.5; stroke-linecap: round"/>
   </g>
   <g id="line2d_18">
    <path d="M 248.642169 114.190681 
L 248.642169 74.810965 
" clip-path="url(#p9ca819c11f)" style="fill: none; stroke: #3f3f3f; stroke-width: 1.5; stroke-linecap: round"/>
   </g>
   <g id="line2d_19">
    <path d="M 239.403582 198.339477 
L 257.880756 198.339477 
" clip-path="url(#p9ca819c11f)" style="fill: none; stroke: #3f3f3f; stroke-width: 1.5; stroke-linecap: round"/>
   </g>
   <g id="line2d_20">
    <path d="M 239.403582 74.810965 
L 257.880756 74.810965 
" clip-path="url(#p9ca819c11f)" style="fill: none; stroke: #3f3f3f; stroke-width: 1.5; stroke-linecap: round"/>
   </g>
   <g id="line2d_21"/>
   <g id="line2d_22">
    <path d="M 286.350688 211.51941 
L 286.350688 250.899125 
" clip-path="url(#p9ca819c11f)" style="fill: none; stroke: #3f3f3f; stroke-width: 1.5; stroke-linecap: round"/>
   </g>
   <g id="line2d_23">
    <path d="M 286.350688 171.00458 
L 286.350688 127.370613 
" clip-path="url(#p9ca819c11f)" style="fill: none; stroke: #3f3f3f; stroke-width: 1.5; stroke-linecap: round"/>
   </g>
   <g id="line2d_24">
    <path d="M 277.112101 250.899125 
L 295.589276 250.899125 
" clip-path="url(#p9ca819c11f)" style="fill: none; stroke: #3f3f3f; stroke-width: 1.5; stroke-linecap: round"/>
   </g>
   <g id="line2d_25">
    <path d="M 277.112101 127.370613 
L 295.589276 127.370613 
" clip-path="url(#p9ca819c11f)" style="fill: none; stroke: #3f3f3f; stroke-width: 1.5; stroke-linecap: round"/>
   </g>
   <g id="line2d_26"/>
   <g id="line2d_27">
    <path d="M 79.330917 132.439817 
L 116.285266 132.439817 
" clip-path="url(#p9ca819c11f)" style="fill: none; stroke: #3f3f3f; stroke-width: 1.5; stroke-linecap: round"/>
   </g>
   <g id="line2d_28">
    <path d="M 117.039436 193.270273 
L 153.993785 193.270273 
" clip-path="url(#p9ca819c11f)" style="fill: none; stroke: #3f3f3f; stroke-width: 1.5; stroke-linecap: round"/>
   </g>
   <g id="line2d_29">
    <path d="M 230.164995 132.439817 
L 267.119344 132.439817 
" clip-path="url(#p9ca819c11f)" style="fill: none; stroke: #3f3f3f; stroke-width: 1.5; stroke-linecap: round"/>
   </g>
   <g id="line2d_30">
    <path d="M 267.873514 193.270273 
L 304.827863 193.270273 
" clip-path="url(#p9ca819c11f)" style="fill: none; stroke: #3f3f3f; stroke-width: 1.5; stroke-linecap: round"/>
   </g>
   <g id="patch_9">
    <path d="M 41.245313 317.747409 
L 41.245313 7.962681 
" style="fill: none; stroke: #ffffff; stroke-width: 0.8; stroke-linejoin: miter; stroke-linecap: square"/>
   </g>
   <g id="patch_10">
    <path d="M 41.245313 317.747409 
L 342.913467 317.747409 
" style="fill: none; stroke: #ffffff; stroke-width: 0.8; stroke-linejoin: miter; stroke-linecap: square"/>
   </g>
   <g id="PathCollection_3">
    <defs>
     <path id="C0_0_451da08754" d="M 0 3 
C 0.795609 3 1.55874 2.683901 2.12132 2.12132 
C 2.683901 1.55874 3 0.795609 3 -0 
C 3 -0.795609 2.683901 -1.55874 2.12132 -2.12132 
C 1.55874 -2.683901 0.795609 -3 0 -3 
C -0.795609 -3 -1.55874 -2.683901 -2.12132 -2.12132 
C -2.683901 -1.55874 -3 -0.795609 -3 0 
C -3 0.795609 -2.683901 1.55874 -2.12132 2.12132 
C -1.55874 2.683901 -0.795609 3 0 3 
z
"/>
    </defs>
    <g clip-path="url(#p9ca819c11f)">
     <use xlink:href="#C0_0_451da08754" x="80.228658" y="159.475575" style="fill: #262626"/>
    </g>
    <g clip-path="url(#p9ca819c11f)">
     <use xlink:href="#C0_0_451da08754" x="86.495536" y="22.043805" style="fill: #262626"/>
    </g>
    <g clip-path="url(#p9ca819c11f)">
     <use xlink:href="#C0_0_451da08754" x="80.201767" y="106.826994" style="fill: #262626"/>
    </g>
    <g clip-path="url(#p9ca819c11f)">
     <use xlink:href="#C0_0_451da08754" x="80.393443" y="137.030795" style="fill: #262626"/>
    </g>
    <g clip-path="url(#p9ca819c11f)">
     <use xlink:href="#C0_0_451da08754" x="86.495536" y="147.647431" style="fill: #262626"/>
    </g>
    <g clip-path="url(#p9ca819c11f)">
     <use xlink:href="#C0_0_451da08754" x="80.694239" y="145.307798" style="fill: #262626"/>
    </g>
    <g clip-path="url(#p9ca819c11f)">
     <use xlink:href="#C0_0_451da08754" x="84.905917" y="173.343055" style="fill: #262626"/>
    </g>
    <g clip-path="url(#p9ca819c11f)">
     <use xlink:href="#C0_0_451da08754" x="86.495536" y="123.951847" style="fill: #262626"/>
    </g>
    <g clip-path="url(#p9ca819c11f)">
     <use xlink:href="#C0_0_451da08754" x="86.495536" y="75.954394" style="fill: #262626"/>
    </g>
    <g clip-path="url(#p9ca819c11f)">
     <use xlink:href="#C0_0_451da08754" x="86.495536" y="68.462959" style="fill: #262626"/>
    </g>
    <g clip-path="url(#p9ca819c11f)">
     <use xlink:href="#C0_0_451da08754" x="86.495536" y="204.807083" style="fill: #262626"/>
    </g>
    <g clip-path="url(#p9ca819c11f)">
     <use xlink:href="#C0_0_451da08754" x="86.495536" y="185.896884" style="fill: #262626"/>
    </g>
    <g clip-path="url(#p9ca819c11f)">
     <use xlink:href="#C0_0_451da08754" x="86.495536" y="138.522863" style="fill: #262626"/>
    </g>
    <g clip-path="url(#p9ca819c11f)">
     <use xlink:href="#C0_0_451da08754" x="80.195536" y="114.190681" style="fill: #262626"/>
    </g>
    <g clip-path="url(#p9ca819c11f)">
     <use xlink:href="#C0_0_451da08754" x="92.410344" y="183.831064" style="fill: #262626"/>
    </g>
    <g clip-path="url(#p9ca819c11f)">
     <use xlink:href="#C0_0_451da08754" x="91.244392" y="96.955385" style="fill: #262626"/>
    </g>
    <g clip-path="url(#p9ca819c11f)">
     <use xlink:href="#C0_0_451da08754" x="91.926091" y="144.605908" style="fill: #262626"/>
    </g>
    <g clip-path="url(#p9ca819c11f)">
     <use xlink:href="#C0_0_451da08754" x="86.495536" y="107.093794" style="fill: #262626"/>
    </g>
    <g clip-path="url(#p9ca819c11f)">
     <use xlink:href="#C0_0_451da08754" x="92.463272" y="105.170992" style="fill: #262626"/>
    </g>
    <g clip-path="url(#p9ca819c11f)">
     <use xlink:href="#C0_0_451da08754" x="80.840623" y="129.795015" style="fill: #262626"/>
    </g>
    <g clip-path="url(#p9ca819c11f)">
     <use xlink:href="#C0_0_451da08754" x="82.6988" y="63.674955" style="fill: #262626"/>
    </g>
    <g clip-path="url(#p9ca819c11f)">
     <use xlink:href="#C0_0_451da08754" x="86.495536" y="100.8981" style="fill: #262626"/>
    </g>
    <g clip-path="url(#p9ca819c11f)">
     <use xlink:href="#C0_0_451da08754" x="86.495536" y="114.190681" style="fill: #262626"/>
    </g>
    <g clip-path="url(#p9ca819c11f)">
     <use xlink:href="#C0_0_451da08754" x="86.495536" y="160.090024" style="fill: #262626"/>
    </g>
    <g clip-path="url(#p9ca819c11f)">
     <use xlink:href="#C0_0_451da08754" x="86.495536" y="179.148917" style="fill: #262626"/>
    </g>
    <g clip-path="url(#p9ca819c11f)">
     <use xlink:href="#C0_0_451da08754" x="86.495536" y="86.816976" style="fill: #262626"/>
    </g>
    <g clip-path="url(#p9ca819c11f)">
     <use xlink:href="#C0_0_451da08754" x="90.64066" y="170.859052" style="fill: #262626"/>
    </g>
    <g clip-path="url(#p9ca819c11f)">
     <use xlink:href="#C0_0_451da08754" x="80.759883" y="98.416003" style="fill: #262626"/>
    </g>
    <g clip-path="url(#p9ca819c11f)">
     <use xlink:href="#C0_0_451da08754" x="85.647703" y="167.200078" style="fill: #262626"/>
    </g>
    <g clip-path="url(#p9ca819c11f)">
     <use xlink:href="#C0_0_451da08754" x="80.349101" y="184.580208" style="fill: #262626"/>
    </g>
    <g clip-path="url(#p9ca819c11f)">
     <use xlink:href="#C0_0_451da08754" x="86.495536" y="132.439817" style="fill: #262626"/>
    </g>
   </g>
   <g id="PathCollection_4">
    <defs>
     <path id="C1_0_d2580f845c" d="M 0 3 
C 0.795609 3 1.55874 2.683901 2.12132 2.12132 
C 2.683901 1.55874 3 0.795609 3 -0 
C 3 -0.795609 2.683901 -1.55874 2.12132 -2.12132 
C 1.55874 -2.683901 0.795609 -3 0 -3 
C -0.795609 -3 -1.55874 -2.683901 -2.12132 -2.12132 
C -2.683901 -1.55874 -3 -0.795609 -3 0 
C -3 0.795609 -2.683901 1.55874 -2.12132 2.12132 
C -1.55874 2.683901 -0.795609 3 0 3 
z
"/>
    </defs>
    <g clip-path="url(#p9ca819c11f)">
     <use xlink:href="#C1_0_d2580f845c" x="146.829167" y="166.234515"/>
    </g>
    <g clip-path="url(#p9ca819c11f)">
     <use xlink:href="#C1_0_d2580f845c" x="146.829167" y="303.666285"/>
    </g>
    <g clip-path="url(#p9ca819c11f)">
     <use xlink:href="#C1_0_d2580f845c" x="152.884459" y="218.883096"/>
    </g>
    <g clip-path="url(#p9ca819c11f)">
     <use xlink:href="#C1_0_d2580f845c" x="146.829167" y="188.679295"/>
    </g>
    <g clip-path="url(#p9ca819c11f)">
     <use xlink:href="#C1_0_d2580f845c" x="152.259722" y="178.062659"/>
    </g>
    <g clip-path="url(#p9ca819c11f)">
     <use xlink:href="#C1_0_d2580f845c" x="140.572422" y="180.402292"/>
    </g>
    <g clip-path="url(#p9ca819c11f)">
     <use xlink:href="#C1_0_d2580f845c" x="147.570953" y="152.367036"/>
    </g>
    <g clip-path="url(#p9ca819c11f)">
     <use xlink:href="#C1_0_d2580f845c" x="146.829167" y="201.758243"/>
    </g>
    <g clip-path="url(#p9ca819c11f)">
     <use xlink:href="#C1_0_d2580f845c" x="146.829167" y="249.755696"/>
    </g>
    <g clip-path="url(#p9ca819c11f)">
     <use xlink:href="#C1_0_d2580f845c" x="143.032431" y="257.247131"/>
    </g>
    <g clip-path="url(#p9ca819c11f)">
     <use xlink:href="#C1_0_d2580f845c" x="146.829167" y="120.903007"/>
    </g>
    <g clip-path="url(#p9ca819c11f)">
     <use xlink:href="#C1_0_d2580f845c" x="155.835741" y="139.813206"/>
    </g>
    <g clip-path="url(#p9ca819c11f)">
     <use xlink:href="#C1_0_d2580f845c" x="140.727074" y="187.187227"/>
    </g>
    <g clip-path="url(#p9ca819c11f)">
     <use xlink:href="#C1_0_d2580f845c" x="140.529167" y="211.51941"/>
    </g>
    <g clip-path="url(#p9ca819c11f)">
     <use xlink:href="#C1_0_d2580f845c" x="149.920933" y="141.879026"/>
    </g>
    <g clip-path="url(#p9ca819c11f)">
     <use xlink:href="#C1_0_d2580f845c" x="146.829167" y="228.754705"/>
    </g>
    <g clip-path="url(#p9ca819c11f)">
     <use xlink:href="#C1_0_d2580f845c" x="146.829167" y="181.104182"/>
    </g>
    <g clip-path="url(#p9ca819c11f)">
     <use xlink:href="#C1_0_d2580f845c" x="140.861431" y="218.616296"/>
    </g>
    <g clip-path="url(#p9ca819c11f)">
     <use xlink:href="#C1_0_d2580f845c" x="146.829167" y="220.539098"/>
    </g>
    <g clip-path="url(#p9ca819c11f)">
     <use xlink:href="#C1_0_d2580f845c" x="145.398164" y="195.915075"/>
    </g>
    <g clip-path="url(#p9ca819c11f)">
     <use xlink:href="#C1_0_d2580f845c" x="146.829167" y="262.035136"/>
    </g>
    <g clip-path="url(#p9ca819c11f)">
     <use xlink:href="#C1_0_d2580f845c" x="151.578023" y="224.811991"/>
    </g>
    <g clip-path="url(#p9ca819c11f)">
     <use xlink:href="#C1_0_d2580f845c" x="146.829167" y="211.51941"/>
    </g>
    <g clip-path="url(#p9ca819c11f)">
     <use xlink:href="#C1_0_d2580f845c" x="140.562289" y="165.620066"/>
    </g>
    <g clip-path="url(#p9ca819c11f)">
     <use xlink:href="#C1_0_d2580f845c" x="145.981334" y="146.561173"/>
    </g>
    <g clip-path="url(#p9ca819c11f)">
     <use xlink:href="#C1_0_d2580f845c" x="146.829167" y="238.893115"/>
    </g>
    <g clip-path="url(#p9ca819c11f)">
     <use xlink:href="#C1_0_d2580f845c" x="141.836209" y="154.851038"/>
    </g>
    <g clip-path="url(#p9ca819c11f)">
     <use xlink:href="#C1_0_d2580f845c" x="140.71869" y="227.294087"/>
    </g>
    <g clip-path="url(#p9ca819c11f)">
     <use xlink:href="#C1_0_d2580f845c" x="146.829167" y="158.510013"/>
    </g>
    <g clip-path="url(#p9ca819c11f)">
     <use xlink:href="#C1_0_d2580f845c" x="143.304126" y="141.129882"/>
    </g>
    <g clip-path="url(#p9ca819c11f)">
     <use xlink:href="#C1_0_d2580f845c" x="151.053077" y="193.270273"/>
    </g>
   </g>
   <g id="PathCollection_5">
    <defs>
     <path id="C2_0_d564fa6047" d="M 0 3 
C 0.795609 3 1.55874 2.683901 2.12132 2.12132 
C 2.683901 1.55874 3 0.795609 3 -0 
C 3 -0.795609 2.683901 -1.55874 2.12132 -2.12132 
C 1.55874 -2.683901 0.795609 -3 0 -3 
C -0.795609 -3 -1.55874 -2.683901 -2.12132 -2.12132 
C -2.683901 -1.55874 -3 -0.795609 -3 0 
C -3 0.795609 -2.683901 1.55874 -2.12132 2.12132 
C -1.55874 2.683901 -0.795609 3 0 3 
z
"/>
    </defs>
    <g clip-path="url(#p9ca819c11f)">
     <use xlink:href="#C2_0_d564fa6047" x="241.846695" y="147.337072" style="fill: #262626"/>
    </g>
    <g clip-path="url(#p9ca819c11f)">
     <use xlink:href="#C2_0_d564fa6047" x="249.560984" y="105.826493" style="fill: #262626"/>
    </g>
    <g clip-path="url(#p9ca819c11f)">
     <use xlink:href="#C2_0_d564fa6047" x="235.802652" y="149.029942" style="fill: #262626"/>
    </g>
    <g clip-path="url(#p9ca819c11f)">
     <use xlink:href="#C2_0_d564fa6047" x="231.03703" y="154.559983" style="fill: #262626"/>
    </g>
    <g clip-path="url(#p9ca819c11f)">
     <use xlink:href="#C2_0_d564fa6047" x="237.329613" y="162.855045" style="fill: #262626"/>
    </g>
    <g clip-path="url(#p9ca819c11f)">
     <use xlink:href="#C2_0_d564fa6047" x="237.329613" y="114.190681" style="fill: #262626"/>
    </g>
    <g clip-path="url(#p9ca819c11f)">
     <use xlink:href="#C2_0_d564fa6047" x="237.329613" y="198.339477" style="fill: #262626"/>
    </g>
    <g clip-path="url(#p9ca819c11f)">
     <use xlink:href="#C2_0_d564fa6047" x="237.329613" y="189.692011" style="fill: #262626"/>
    </g>
    <g clip-path="url(#p9ca819c11f)">
     <use xlink:href="#C2_0_d564fa6047" x="243.629613" y="132.439817" style="fill: #262626"/>
    </g>
    <g clip-path="url(#p9ca819c11f)">
     <use xlink:href="#C2_0_d564fa6047" x="235.815725" y="102.02459" style="fill: #262626"/>
    </g>
    <g clip-path="url(#p9ca819c11f)">
     <use xlink:href="#C2_0_d564fa6047" x="237.329613" y="154.851038" style="fill: #262626"/>
    </g>
    <g clip-path="url(#p9ca819c11f)">
     <use xlink:href="#C2_0_d564fa6047" x="226.937904" y="109.628396" style="fill: #262626"/>
    </g>
    <g clip-path="url(#p9ca819c11f)">
     <use xlink:href="#C2_0_d564fa6047" x="224.845953" y="131.292073" style="fill: #262626"/>
    </g>
    <g clip-path="url(#p9ca819c11f)">
     <use xlink:href="#C2_0_d564fa6047" x="243.629613" y="114.190681" style="fill: #262626"/>
    </g>
    <g clip-path="url(#p9ca819c11f)">
     <use xlink:href="#C2_0_d564fa6047" x="237.329613" y="132.439817" style="fill: #262626"/>
    </g>
    <g clip-path="url(#p9ca819c11f)">
     <use xlink:href="#C2_0_d564fa6047" x="239.186072" y="96.955385" style="fill: #262626"/>
    </g>
    <g clip-path="url(#p9ca819c11f)">
     <use xlink:href="#C2_0_d564fa6047" x="249.813274" y="131.292073" style="fill: #262626"/>
    </g>
    <g clip-path="url(#p9ca819c11f)">
     <use xlink:href="#C2_0_d564fa6047" x="231.029613" y="132.439817" style="fill: #262626"/>
    </g>
    <g clip-path="url(#p9ca819c11f)">
     <use xlink:href="#C2_0_d564fa6047" x="237.329613" y="142.769517" style="fill: #262626"/>
    </g>
    <g clip-path="url(#p9ca819c11f)">
     <use xlink:href="#C2_0_d564fa6047" x="237.329613" y="107.848782" style="fill: #262626"/>
    </g>
    <g clip-path="url(#p9ca819c11f)">
     <use xlink:href="#C2_0_d564fa6047" x="237.329613" y="74.810965" style="fill: #262626"/>
    </g>
    <g clip-path="url(#p9ca819c11f)">
     <use xlink:href="#C2_0_d564fa6047" x="243.260984" y="105.826493" style="fill: #262626"/>
    </g>
    <g clip-path="url(#p9ca819c11f)">
     <use xlink:href="#C2_0_d564fa6047" x="249.521363" y="151.992464" style="fill: #262626"/>
    </g>
    <g clip-path="url(#p9ca819c11f)">
     <use xlink:href="#C2_0_d564fa6047" x="233.959266" y="172.993454" style="fill: #262626"/>
    </g>
    <g clip-path="url(#p9ca819c11f)">
     <use xlink:href="#C2_0_d564fa6047" x="237.329613" y="178.062659" style="fill: #262626"/>
    </g>
    <g clip-path="url(#p9ca819c11f)">
     <use xlink:href="#C2_0_d564fa6047" x="231.029613" y="114.190681" style="fill: #262626"/>
    </g>
    <g clip-path="url(#p9ca819c11f)">
     <use xlink:href="#C2_0_d564fa6047" x="225.041717" y="152.716636" style="fill: #262626"/>
    </g>
    <g clip-path="url(#p9ca819c11f)">
     <use xlink:href="#C2_0_d564fa6047" x="220.077733" y="127.370613" style="fill: #262626"/>
    </g>
    <g clip-path="url(#p9ca819c11f)">
     <use xlink:href="#C2_0_d564fa6047" x="231.096617" y="188.819264" style="fill: #262626"/>
    </g>
    <g clip-path="url(#p9ca819c11f)">
     <use xlink:href="#C2_0_d564fa6047" x="240.628263" y="184.580208" style="fill: #262626"/>
    </g>
    <g clip-path="url(#p9ca819c11f)">
     <use xlink:href="#C2_0_d564fa6047" x="243.551543" y="153.90939" style="fill: #262626"/>
    </g>
   </g>
   <g id="PathCollection_6">
    <defs>
     <path id="C3_0_ede4aad08e" d="M 0 3 
C 0.795609 3 1.55874 2.683901 2.12132 2.12132 
C 2.683901 1.55874 3 0.795609 3 -0 
C 3 -0.795609 2.683901 -1.55874 2.12132 -2.12132 
C 1.55874 -2.683901 0.795609 -3 0 -3 
C -0.795609 -3 -1.55874 -2.683901 -2.12132 -2.12132 
C -2.683901 -1.55874 -3 -0.795609 -3 0 
C -3 0.795609 -2.683901 1.55874 -2.12132 2.12132 
C -1.55874 2.683901 -0.795609 3 0 3 
z
"/>
    </defs>
    <g clip-path="url(#p9ca819c11f)">
     <use xlink:href="#C3_0_ede4aad08e" x="293.578023" y="178.373018"/>
    </g>
    <g clip-path="url(#p9ca819c11f)">
     <use xlink:href="#C3_0_ede4aad08e" x="299.166699" y="219.883597"/>
    </g>
    <g clip-path="url(#p9ca819c11f)">
     <use xlink:href="#C3_0_ede4aad08e" x="299.622065" y="176.680149"/>
    </g>
    <g clip-path="url(#p9ca819c11f)">
     <use xlink:href="#C3_0_ede4aad08e" x="297.177877" y="171.150107"/>
    </g>
    <g clip-path="url(#p9ca819c11f)">
     <use xlink:href="#C3_0_ede4aad08e" x="297.663244" y="162.855045"/>
    </g>
    <g clip-path="url(#p9ca819c11f)">
     <use xlink:href="#C3_0_ede4aad08e" x="303.963244" y="211.51941"/>
    </g>
    <g clip-path="url(#p9ca819c11f)">
     <use xlink:href="#C3_0_ede4aad08e" x="297.663244" y="127.370613"/>
    </g>
    <g clip-path="url(#p9ca819c11f)">
     <use xlink:href="#C3_0_ede4aad08e" x="300.961894" y="136.018079"/>
    </g>
    <g clip-path="url(#p9ca819c11f)">
     <use xlink:href="#C3_0_ede4aad08e" x="280.411364" y="193.270273"/>
    </g>
    <g clip-path="url(#p9ca819c11f)">
     <use xlink:href="#C3_0_ede4aad08e" x="294.292897" y="223.685501"/>
    </g>
    <g clip-path="url(#p9ca819c11f)">
     <use xlink:href="#C3_0_ede4aad08e" x="310.639598" y="170.859052"/>
    </g>
    <g clip-path="url(#p9ca819c11f)">
     <use xlink:href="#C3_0_ede4aad08e" x="286.762503" y="216.081694"/>
    </g>
    <g clip-path="url(#p9ca819c11f)">
     <use xlink:href="#C3_0_ede4aad08e" x="292.895024" y="194.418017"/>
    </g>
    <g clip-path="url(#p9ca819c11f)">
     <use xlink:href="#C3_0_ede4aad08e" x="291.363244" y="211.51941"/>
    </g>
    <g clip-path="url(#p9ca819c11f)">
     <use xlink:href="#C3_0_ede4aad08e" x="308.615125" y="193.270273"/>
    </g>
    <g clip-path="url(#p9ca819c11f)">
     <use xlink:href="#C3_0_ede4aad08e" x="297.663244" y="228.754705"/>
    </g>
    <g clip-path="url(#p9ca819c11f)">
     <use xlink:href="#C3_0_ede4aad08e" x="302.431464" y="194.418017"/>
    </g>
    <g clip-path="url(#p9ca819c11f)">
     <use xlink:href="#C3_0_ede4aad08e" x="286.711364" y="193.270273"/>
    </g>
    <g clip-path="url(#p9ca819c11f)">
     <use xlink:href="#C3_0_ede4aad08e" x="297.663244" y="182.940573"/>
    </g>
    <g clip-path="url(#p9ca819c11f)">
     <use xlink:href="#C3_0_ede4aad08e" x="292.779009" y="217.861308"/>
    </g>
    <g clip-path="url(#p9ca819c11f)">
     <use xlink:href="#C3_0_ede4aad08e" x="297.663244" y="250.899125"/>
    </g>
    <g clip-path="url(#p9ca819c11f)">
     <use xlink:href="#C3_0_ede4aad08e" x="305.466699" y="219.883597"/>
    </g>
    <g clip-path="url(#p9ca819c11f)">
     <use xlink:href="#C3_0_ede4aad08e" x="305.100556" y="173.717626"/>
    </g>
    <g clip-path="url(#p9ca819c11f)">
     <use xlink:href="#C3_0_ede4aad08e" x="297.663244" y="152.716636"/>
    </g>
    <g clip-path="url(#p9ca819c11f)">
     <use xlink:href="#C3_0_ede4aad08e" x="294.292897" y="147.647431"/>
    </g>
    <g clip-path="url(#p9ca819c11f)">
     <use xlink:href="#C3_0_ede4aad08e" x="297.663244" y="211.51941"/>
    </g>
    <g clip-path="url(#p9ca819c11f)">
     <use xlink:href="#C3_0_ede4aad08e" x="290.788046" y="172.993454"/>
    </g>
    <g clip-path="url(#p9ca819c11f)">
     <use xlink:href="#C3_0_ede4aad08e" x="297.663244" y="198.339477"/>
    </g>
    <g clip-path="url(#p9ca819c11f)">
     <use xlink:href="#C3_0_ede4aad08e" x="293.204711" y="136.890826"/>
    </g>
    <g clip-path="url(#p9ca819c11f)">
     <use xlink:href="#C3_0_ede4aad08e" x="297.663244" y="141.129882"/>
    </g>
    <g clip-path="url(#p9ca819c11f)">
     <use xlink:href="#C3_0_ede4aad08e" x="284.613784" y="171.8007"/>
    </g>
   </g>
   <g id="legend_1">
    <g id="patch_11">
     <path d="M 262.216592 86.932994 
L 335.913467 86.932994 
Q 337.913467 86.932994 337.913467 84.932994 
L 337.913467 14.962681 
Q 337.913467 12.962681 335.913467 12.962681 
L 262.216592 12.962681 
Q 260.216592 12.962681 260.216592 14.962681 
L 260.216592 84.932994 
Q 260.216592 86.932994 262.216592 86.932994 
z
" style="fill: #eaeaf2; opacity: 0.8; stroke: #cccccc; stroke-linejoin: miter"/>
    </g>
    <g id="text_11">
     <!-- condition -->
     <g style="fill: #262626" transform="translate(279.051749 24.120494) scale(0.1 -0.1)">
      <defs>
       <path id="ArialMT-63" d="M 2588 1216 
L 3141 1144 
Q 3050 572 2676 248 
Q 2303 -75 1759 -75 
Q 1078 -75 664 370 
Q 250 816 250 1647 
Q 250 2184 428 2587 
Q 606 2991 970 3192 
Q 1334 3394 1763 3394 
Q 2303 3394 2647 3120 
Q 2991 2847 3088 2344 
L 2541 2259 
Q 2463 2594 2264 2762 
Q 2066 2931 1784 2931 
Q 1359 2931 1093 2626 
Q 828 2322 828 1663 
Q 828 994 1084 691 
Q 1341 388 1753 388 
Q 2084 388 2306 591 
Q 2528 794 2588 1216 
z
" transform="scale(0.015625)"/>
      </defs>
      <use xlink:href="#ArialMT-63"/>
      <use xlink:href="#ArialMT-6f" x="50"/>
      <use xlink:href="#ArialMT-6e" x="105.615234"/>
      <use xlink:href="#ArialMT-64" x="161.230469"/>
      <use xlink:href="#ArialMT-69" x="216.845703"/>
      <use xlink:href="#ArialMT-74" x="239.0625"/>
      <use xlink:href="#ArialMT-69" x="266.845703"/>
      <use xlink:href="#ArialMT-6f" x="289.0625"/>
      <use xlink:href="#ArialMT-6e" x="344.677734"/>
     </g>
    </g>
    <g id="patch_12">
     <path d="M 264.216592 38.265806 
L 284.216592 38.265806 
L 284.216592 31.265806 
L 264.216592 31.265806 
z
" style="fill: #3274a1; stroke: #3f3f3f; stroke-width: 0.75; stroke-linejoin: miter"/>
    </g>
    <g id="text_12">
     <!-- Shifted -->
     <g style="fill: #262626" transform="translate(292.216592 38.265806) scale(0.1 -0.1)">
      <defs>
       <path id="ArialMT-53" d="M 288 1472 
L 859 1522 
Q 900 1178 1048 958 
Q 1197 738 1509 602 
Q 1822 466 2213 466 
Q 2559 466 2825 569 
Q 3091 672 3220 851 
Q 3350 1031 3350 1244 
Q 3350 1459 3225 1620 
Q 3100 1781 2813 1891 
Q 2628 1963 1997 2114 
Q 1366 2266 1113 2400 
Q 784 2572 623 2826 
Q 463 3081 463 3397 
Q 463 3744 659 4045 
Q 856 4347 1234 4503 
Q 1613 4659 2075 4659 
Q 2584 4659 2973 4495 
Q 3363 4331 3572 4012 
Q 3781 3694 3797 3291 
L 3216 3247 
Q 3169 3681 2898 3903 
Q 2628 4125 2100 4125 
Q 1550 4125 1298 3923 
Q 1047 3722 1047 3438 
Q 1047 3191 1225 3031 
Q 1400 2872 2139 2705 
Q 2878 2538 3153 2413 
Q 3553 2228 3743 1945 
Q 3934 1663 3934 1294 
Q 3934 928 3725 604 
Q 3516 281 3123 101 
Q 2731 -78 2241 -78 
Q 1619 -78 1198 103 
Q 778 284 539 648 
Q 300 1013 288 1472 
z
" transform="scale(0.015625)"/>
       <path id="ArialMT-66" d="M 556 0 
L 556 2881 
L 59 2881 
L 59 3319 
L 556 3319 
L 556 3672 
Q 556 4006 616 4169 
Q 697 4388 901 4523 
Q 1106 4659 1475 4659 
Q 1713 4659 2000 4603 
L 1916 4113 
Q 1741 4144 1584 4144 
Q 1328 4144 1222 4034 
Q 1116 3925 1116 3625 
L 1116 3319 
L 1763 3319 
L 1763 2881 
L 1116 2881 
L 1116 0 
L 556 0 
z
" transform="scale(0.015625)"/>
      </defs>
      <use xlink:href="#ArialMT-53"/>
      <use xlink:href="#ArialMT-68" x="66.699219"/>
      <use xlink:href="#ArialMT-69" x="122.314453"/>
      <use xlink:href="#ArialMT-66" x="144.53125"/>
      <use xlink:href="#ArialMT-74" x="172.314453"/>
      <use xlink:href="#ArialMT-65" x="200.097656"/>
      <use xlink:href="#ArialMT-64" x="255.712891"/>
     </g>
    </g>
    <g id="patch_13">
     <path d="M 264.216592 52.532994 
L 284.216592 52.532994 
L 284.216592 45.532994 
L 264.216592 45.532994 
z
" style="fill: #e1812c; stroke: #3f3f3f; stroke-width: 0.75; stroke-linejoin: miter"/>
    </g>
    <g id="text_13">
     <!-- Swapped -->
     <g style="fill: #262626" transform="translate(292.216592 52.532994) scale(0.1 -0.1)">
      <defs>
       <path id="ArialMT-70" d="M 422 -1272 
L 422 3319 
L 934 3319 
L 934 2888 
Q 1116 3141 1344 3267 
Q 1572 3394 1897 3394 
Q 2322 3394 2647 3175 
Q 2972 2956 3137 2557 
Q 3303 2159 3303 1684 
Q 3303 1175 3120 767 
Q 2938 359 2589 142 
Q 2241 -75 1856 -75 
Q 1575 -75 1351 44 
Q 1128 163 984 344 
L 984 -1272 
L 422 -1272 
z
M 931 1641 
Q 931 1000 1190 694 
Q 1450 388 1819 388 
Q 2194 388 2461 705 
Q 2728 1022 2728 1688 
Q 2728 2322 2467 2637 
Q 2206 2953 1844 2953 
Q 1484 2953 1207 2617 
Q 931 2281 931 1641 
z
" transform="scale(0.015625)"/>
      </defs>
      <use xlink:href="#ArialMT-53"/>
      <use xlink:href="#ArialMT-77" x="66.699219"/>
      <use xlink:href="#ArialMT-61" x="138.916016"/>
      <use xlink:href="#ArialMT-70" x="194.53125"/>
      <use xlink:href="#ArialMT-70" x="250.146484"/>
      <use xlink:href="#ArialMT-65" x="305.761719"/>
      <use xlink:href="#ArialMT-64" x="361.376953"/>
     </g>
    </g>
    <g id="PathCollection_7">
     <defs>
      <path id="mabbb2b4928" d="M 0 3 
C 0.795609 3 1.55874 2.683901 2.12132 2.12132 
C 2.683901 1.55874 3 0.795609 3 0 
C 3 -0.795609 2.683901 -1.55874 2.12132 -2.12132 
C 1.55874 -2.683901 0.795609 -3 0 -3 
C -0.795609 -3 -1.55874 -2.683901 -2.12132 -2.12132 
C -2.683901 -1.55874 -3 -0.795609 -3 0 
C -3 0.795609 -2.683901 1.55874 -2.12132 2.12132 
C -1.55874 2.683901 -0.795609 3 0 3 
z
" style="stroke: #262626"/>
     </defs>
     <g>
      <use xlink:href="#mabbb2b4928" x="274.216592" y="64.053306" style="fill: #262626; stroke: #262626"/>
     </g>
    </g>
    <g id="text_14">
     <!-- Shifted -->
     <g style="fill: #262626" transform="translate(292.216592 66.678306) scale(0.1 -0.1)">
      <use xlink:href="#ArialMT-53"/>
      <use xlink:href="#ArialMT-68" x="66.699219"/>
      <use xlink:href="#ArialMT-69" x="122.314453"/>
      <use xlink:href="#ArialMT-66" x="144.53125"/>
      <use xlink:href="#ArialMT-74" x="172.314453"/>
      <use xlink:href="#ArialMT-65" x="200.097656"/>
      <use xlink:href="#ArialMT-64" x="255.712891"/>
     </g>
    </g>
    <g id="PathCollection_8">
     <defs>
      <path id="mc25fd69a7d" d="M 0 3 
C 0.795609 3 1.55874 2.683901 2.12132 2.12132 
C 2.683901 1.55874 3 0.795609 3 0 
C 3 -0.795609 2.683901 -1.55874 2.12132 -2.12132 
C 1.55874 -2.683901 0.795609 -3 0 -3 
C -0.795609 -3 -1.55874 -2.683901 -2.12132 -2.12132 
C -2.683901 -1.55874 -3 -0.795609 -3 0 
C -3 0.795609 -2.683901 1.55874 -2.12132 2.12132 
C -1.55874 2.683901 -0.795609 3 0 3 
z
" style="stroke: #000000"/>
     </defs>
     <g>
      <use xlink:href="#mc25fd69a7d" x="274.216592" y="78.320494" style="stroke: #000000"/>
     </g>
    </g>
    <g id="text_15">
     <!-- Swapped -->
     <g style="fill: #262626" transform="translate(292.216592 80.945494) scale(0.1 -0.1)">
      <use xlink:href="#ArialMT-53"/>
      <use xlink:href="#ArialMT-77" x="66.699219"/>
      <use xlink:href="#ArialMT-61" x="138.916016"/>
      <use xlink:href="#ArialMT-70" x="194.53125"/>
      <use xlink:href="#ArialMT-70" x="250.146484"/>
      <use xlink:href="#ArialMT-65" x="305.761719"/>
      <use xlink:href="#ArialMT-64" x="361.376953"/>
     </g>
    </g>
   </g>
  </g>
  <g id="legend_2">
   <g id="text_16">
    <!-- condition -->
    <g style="fill: #262626" transform="translate(363.207549 165.497923) scale(0.1 -0.1)">
     <use xlink:href="#ArialMT-63"/>
     <use xlink:href="#ArialMT-6f" x="50"/>
     <use xlink:href="#ArialMT-6e" x="105.615234"/>
     <use xlink:href="#ArialMT-64" x="161.230469"/>
     <use xlink:href="#ArialMT-69" x="216.845703"/>
     <use xlink:href="#ArialMT-74" x="239.0625"/>
     <use xlink:href="#ArialMT-69" x="266.845703"/>
     <use xlink:href="#ArialMT-6f" x="289.0625"/>
     <use xlink:href="#ArialMT-6e" x="344.677734"/>
    </g>
   </g>
   <g id="patch_14">
    <path d="M 348.372392 179.643236 
L 368.372392 179.643236 
L 368.372392 172.643236 
L 348.372392 172.643236 
z
" style="fill: #3274a1; stroke: #3f3f3f; stroke-width: 0.75; stroke-linejoin: miter"/>
   </g>
   <g id="text_17">
    <!-- Shifted -->
    <g style="fill: #262626" transform="translate(376.372392 179.643236) scale(0.1 -0.1)">
     <use xlink:href="#ArialMT-53"/>
     <use xlink:href="#ArialMT-68" x="66.699219"/>
     <use xlink:href="#ArialMT-69" x="122.314453"/>
     <use xlink:href="#ArialMT-66" x="144.53125"/>
     <use xlink:href="#ArialMT-74" x="172.314453"/>
     <use xlink:href="#ArialMT-65" x="200.097656"/>
     <use xlink:href="#ArialMT-64" x="255.712891"/>
    </g>
   </g>
   <g id="patch_15">
    <path d="M 348.372392 193.910423 
L 368.372392 193.910423 
L 368.372392 186.910423 
L 348.372392 186.910423 
z
" style="fill: #e1812c; stroke: #3f3f3f; stroke-width: 0.75; stroke-linejoin: miter"/>
   </g>
   <g id="text_18">
    <!-- Swapped -->
    <g style="fill: #262626" transform="translate(376.372392 193.910423) scale(0.1 -0.1)">
     <use xlink:href="#ArialMT-53"/>
     <use xlink:href="#ArialMT-77" x="66.699219"/>
     <use xlink:href="#ArialMT-61" x="138.916016"/>
     <use xlink:href="#ArialMT-70" x="194.53125"/>
     <use xlink:href="#ArialMT-70" x="250.146484"/>
     <use xlink:href="#ArialMT-65" x="305.761719"/>
     <use xlink:href="#ArialMT-64" x="361.376953"/>
    </g>
   </g>
  </g>
 </g>
 <defs>
  <clipPath id="p9ca819c11f">
   <rect x="41.245313" y="7.962681" width="301.668155" height="309.784727"/>
  </clipPath>
 </defs>
</svg>
