<?xml version="1.0" encoding="UTF-8"?>
<svg xmlns="http://www.w3.org/2000/svg" version="1.1" viewBox="0 0 427.1 353.8">
  <defs>
    <style>
      .cls-1, .cls-2, .cls-3, .cls-4, .cls-5, .cls-6 {
        stroke: #3f3f3f;
      }

      .cls-1, .cls-2, .cls-6 {
        stroke-width: 1.5px;
      }

      .cls-1, .cls-4 {
        fill: #3274a1;
      }

      .cls-7 {
        fill: #3787c0;
      }

      .cls-7, .cls-8, .cls-9, .cls-10 {
        fill-opacity: .6;
      }

      .cls-2, .cls-11 {
        stroke-linecap: round;
        stroke-linejoin: round;
      }

      .cls-2, .cls-11, .cls-12 {
        fill: none;
      }

      .cls-3 {
        fill: #3f3f3f;
      }

      .cls-4, .cls-5 {
        stroke-width: .8px;
      }

      .cls-8 {
        fill: #abd0e6;
      }

      .cls-13 {
        fill: #262626;
      }

      .cls-9 {
        fill: #fca082;
      }

      .cls-11 {
        stroke: #000;
      }

      .cls-11, .cls-12 {
        stroke-width: .8px;
      }

      .cls-12 {
        stroke: #fff;
        stroke-linecap: square;
      }

      .cls-10 {
        fill: #e32f27;
      }

      .cls-5, .cls-6 {
        fill: #e1812c;
      }
    </style>
  </defs>
  <!-- Generator: Adobe Illustrator 28.7.3, SVG Export Plug-In . SVG Version: 1.2.0 Build 164)  -->
  <g>
    <g id="Layer_1">
      <g id="matplotlib.axis_1">
        <g id="xtick_1">
          <g id="text_1">
            <g>
              <path id="ArialMT-30" class="cls-13" d="M97.6,327.9c0-.8,0-1.5.3-2,.2-.5.4-.9.8-1.2.3-.3.8-.4,1.3-.4s.7,0,1,.2c.3.2.5.4.7.7.2.3.3.6.4,1.1.1.4.2,1,.2,1.7s0,1.5-.3,2c-.2.5-.4.9-.8,1.2-.3.3-.8.4-1.3.4s-1.2-.2-1.6-.7c-.5-.6-.7-1.6-.7-2.9ZM98.5,327.9c0,1.2.1,2,.4,2.3.3.4.6.6,1,.6s.7-.2,1-.6.4-1.2.4-2.3-.1-2-.4-2.3c-.3-.4-.6-.6-1-.6s-.7.2-1,.5c-.3.4-.5,1.2-.5,2.4Z"/>
              <path id="ArialMT-20" class="cls-13" d="M102.8,331.5"/>
              <path id="ArialMT-31" class="cls-13" d="M109.3,331.5h-.9v-5.6c-.2.2-.5.4-.8.6s-.7.4-.9.5v-.9c.5-.2.9-.5,1.3-.8.4-.3.6-.6.8-1h.6v7.2Z"/>
              <path id="ArialMT-20-2" data-name="ArialMT-20" class="cls-13" d="M111.1,331.5"/>
              <path id="ArialMT-32" class="cls-13" d="M118.9,330.6v.8h-4.7c0-.2,0-.4.1-.6.1-.3.3-.6.6-1,.3-.3.6-.7,1.2-1.1.8-.6,1.3-1.1,1.6-1.5.3-.4.4-.7.4-1.1s-.1-.6-.4-.9c-.2-.2-.6-.4-1-.4s-.8.1-1,.4c-.3.3-.4.6-.4,1.1h-.9c0-.8.3-1.3.7-1.6.4-.4.9-.5,1.6-.5s1.2.2,1.6.6c.4.4.6.9.6,1.4s0,.6-.2.8c-.1.3-.3.6-.6.9s-.7.7-1.4,1.3c-.5.4-.9.7-1,.9-.1.2-.3.3-.4.5h3.5Z"/>
              <path id="ArialMT-20-3" data-name="ArialMT-20" class="cls-13" d="M119.4,331.5"/>
              <path id="ArialMT-34" class="cls-13" d="M125.5,331.5v-1.7h-3.1v-.8l3.3-4.6h.7v4.6h1v.8h-1v1.7h-.9ZM125.5,329v-3.2l-2.2,3.2h2.2Z"/>
              <path id="ArialMT-20-4" data-name="ArialMT-20" class="cls-13" d="M127.8,331.5"/>
              <path id="ArialMT-38" class="cls-13" d="M132.3,327.6c-.4-.1-.6-.3-.8-.6-.2-.2-.3-.5-.3-.9,0-.5.2-1,.6-1.3.4-.4.9-.5,1.5-.5s1.1.2,1.5.5c.4.4.6.8.6,1.3s0,.6-.3.9c-.2.2-.4.4-.8.6.4.1.8.4,1,.7.2.3.3.7.3,1.1s-.2,1.1-.7,1.5c-.4.4-1,.6-1.7.6s-1.3-.2-1.7-.6c-.4-.4-.7-.9-.7-1.6s.1-.9.4-1.2c.2-.3.6-.5,1-.6ZM132.2,326.1c0,.3.1.6.3.8.2.2.5.3.9.3s.6-.1.8-.3c.2-.2.3-.5.3-.8s-.1-.6-.3-.8c-.2-.2-.5-.3-.8-.3s-.6.1-.8.3c-.2.2-.3.5-.3.8ZM131.9,329.4c0,.3,0,.5.2.7s.3.4.5.5c.2.1.5.2.8.2.4,0,.8-.1,1-.4.3-.3.4-.6.4-1s-.1-.8-.4-1.1c-.3-.3-.6-.4-1.1-.4s-.8.1-1,.4c-.3.3-.4.6-.4,1Z"/>
            </g>
          </g>
        </g>
        <g id="xtick_2">
          <g id="text_2">
            <g>
              <path id="ArialMT-30-2" data-name="ArialMT-30" class="cls-13" d="M248.5,327.9c0-.8,0-1.5.3-2,.2-.5.4-.9.8-1.2.3-.3.8-.4,1.3-.4s.7,0,1,.2c.3.2.5.4.7.7.2.3.3.6.4,1.1.1.4.2,1,.2,1.7s0,1.5-.3,2c-.2.5-.4.9-.8,1.2-.3.3-.8.4-1.3.4s-1.2-.2-1.6-.7c-.5-.6-.7-1.6-.7-2.9ZM249.4,327.9c0,1.2.1,2,.4,2.3.3.4.6.6,1,.6s.7-.2,1-.6.4-1.2.4-2.3-.1-2-.4-2.3c-.3-.4-.6-.6-1-.6s-.7.2-1,.5c-.3.4-.5,1.2-.5,2.4Z"/>
              <path id="ArialMT-20-5" data-name="ArialMT-20" class="cls-13" d="M253.6,331.5"/>
              <path id="ArialMT-32-2" data-name="ArialMT-32" class="cls-13" d="M261.4,330.6v.8h-4.7c0-.2,0-.4.1-.6.1-.3.3-.6.6-1,.3-.3.6-.7,1.2-1.1.8-.6,1.3-1.1,1.6-1.5.3-.4.4-.7.4-1.1s-.1-.6-.4-.9c-.2-.2-.6-.4-1-.4s-.8.1-1,.4c-.3.3-.4.6-.4,1.1h-.9c0-.8.3-1.3.7-1.6.4-.4.9-.5,1.6-.5s1.2.2,1.6.6c.4.4.6.9.6,1.4s0,.6-.2.8c-.1.3-.3.6-.6.9s-.7.7-1.4,1.3c-.5.4-.9.7-1,.9-.1.2-.3.3-.4.5h3.5Z"/>
              <path id="ArialMT-20-6" data-name="ArialMT-20" class="cls-13" d="M261.9,331.5"/>
              <path id="ArialMT-34-2" data-name="ArialMT-34" class="cls-13" d="M268,331.5v-1.7h-3.1v-.8l3.3-4.6h.7v4.6h1v.8h-1v1.7h-.9ZM268,329v-3.2l-2.2,3.2h2.2Z"/>
              <path id="ArialMT-20-7" data-name="ArialMT-20" class="cls-13" d="M270.3,331.5"/>
              <path id="ArialMT-37" class="cls-13" d="M273.5,325.3v-.8h4.6v.7c-.5.5-.9,1.1-1.4,1.9-.4.8-.8,1.6-1,2.5-.2.6-.3,1.3-.3,2h-.9c0-.6.1-1.2.3-2,.2-.8.5-1.6.9-2.3s.8-1.4,1.3-1.9h-3.5Z"/>
              <path id="ArialMT-20-8" data-name="ArialMT-20" class="cls-13" d="M278.6,331.5"/>
              <path id="ArialMT-39" class="cls-13" d="M281.9,329.8h.8c0,.3.2.6.4.8.2.2.5.3.8.3s.5,0,.7-.2c.2-.1.4-.3.5-.5.1-.2.2-.5.3-.8,0-.4.1-.7.1-1.1s0,0,0-.2c-.2.3-.4.5-.7.7-.3.2-.6.3-1,.3-.6,0-1.1-.2-1.5-.6-.4-.4-.6-1-.6-1.7s.2-1.3.6-1.8c.4-.4,1-.7,1.6-.7s.9.1,1.3.4c.4.3.7.6.9,1.1.2.5.3,1.1.3,2s0,1.6-.3,2.2c-.2.5-.5,1-.9,1.2-.4.3-.9.4-1.4.4s-1-.2-1.4-.5c-.4-.3-.6-.7-.6-1.3ZM285.5,326.7c0-.5-.1-.9-.4-1.2-.3-.3-.6-.4-1-.4s-.7.2-1,.5c-.3.3-.4.7-.4,1.2s.1.8.4,1.1c.3.3.6.4,1,.4s.7-.1,1-.4c.3-.3.4-.7.4-1.2Z"/>
            </g>
          </g>
        </g>
        <g id="text_3">
          <g>
            <path id="ArialMT-73" class="cls-13" d="M185.7,343.1h.9c0,.2.2.5.4.7.2.2.5.3.9.3s.7,0,.9-.2c.2-.2.3-.4.3-.6s0-.4-.3-.5c-.1,0-.4-.2-.9-.3-.6-.2-1.1-.3-1.3-.4s-.4-.3-.6-.5c-.1-.2-.2-.4-.2-.7s0-.4.2-.6c.1-.2.3-.4.4-.5.1-.1.3-.2.6-.3.2,0,.5-.1.8-.1.4,0,.8,0,1.1.2.3.1.5.3.7.5.1.2.2.5.3.8h-.9c0-.1-.2-.4-.3-.5-.2-.2-.5-.2-.8-.2s-.7,0-.9.2c-.2.1-.3.3-.3.5s0,.2.1.3c0,0,.2.2.3.2,0,0,.3.1.8.2.6.2,1.1.3,1.3.4.2.1.4.3.6.5.1.2.2.5.2.8s0,.6-.3.8c-.2.3-.4.5-.7.6-.3.1-.7.2-1.1.2-.7,0-1.2-.1-1.5-.4-.4-.3-.6-.7-.7-1.2Z"/>
            <path id="ArialMT-65" class="cls-13" d="M194.6,343h.9c-.1.6-.4,1.1-.8,1.3-.4.3-.9.4-1.5.4s-1.4-.2-1.8-.7c-.4-.5-.7-1.1-.7-2s.2-1.6.7-2c.5-.5,1-.7,1.7-.7s1.3.2,1.7.7.7,1.1.7,2,0,.1,0,.2h-3.9c0,.6.2,1,.5,1.3.3.3.7.5,1.1.5s.6,0,.8-.3c.2-.2.4-.4.5-.8ZM191.7,341.5h2.9c0-.4-.1-.8-.3-1-.3-.3-.6-.5-1.1-.5s-.7.1-1,.4-.4.6-.5,1.1Z"/>
            <path id="ArialMT-74" class="cls-13" d="M198.5,343.8v.8c-.1,0-.3,0-.5,0-.3,0-.6,0-.7-.2-.2-.1-.3-.2-.4-.4,0-.2-.1-.5-.1-1v-3h-.6v-.7h.6v-1.3l.9-.5v1.8h.9v.7h-.9v3c0,.3,0,.4,0,.5,0,0,0,.1.2.2,0,0,.2,0,.3,0s.2,0,.4,0Z"/>
          </g>
        </g>
      </g>
      <g id="matplotlib.axis_2">
        <g id="ytick_1">
          <g id="line2d_1">
            <path class="cls-11" d="M41.2,304.1h301.7"/>
          </g>
          <g id="text_4">
            <g>
              <path id="ArialMT-30-3" data-name="ArialMT-30" class="cls-13" d="M20.8,304.2c0-.8,0-1.5.3-2,.2-.5.4-.9.8-1.2.3-.3.8-.4,1.3-.4s.7,0,1,.2c.3.2.5.4.7.7.2.3.3.6.4,1.1.1.4.2,1,.2,1.7s0,1.5-.3,2c-.2.5-.4.9-.8,1.2-.3.3-.8.4-1.3.4s-1.2-.2-1.6-.7c-.5-.6-.7-1.6-.7-2.9ZM21.7,304.2c0,1.2.1,2,.4,2.3.3.4.6.6,1,.6s.7-.2,1-.6.4-1.2.4-2.3-.1-2-.4-2.3c-.3-.4-.6-.6-1-.6s-.7.2-1,.5c-.3.4-.5,1.2-.5,2.4Z"/>
              <path id="ArialMT-2e" class="cls-13" d="M26.8,307.7v-1h1v1h-1Z"/>
              <path id="ArialMT-31-2" data-name="ArialMT-31" class="cls-13" d="M32.4,307.7h-.9v-5.6c-.2.2-.5.4-.8.6s-.7.4-.9.5v-.9c.5-.2.9-.5,1.3-.8.4-.3.6-.6.8-1h.6v7.2Z"/>
            </g>
          </g>
        </g>
        <g id="ytick_2">
          <g id="line2d_2">
            <path class="cls-11" d="M41.2,268.7h301.7"/>
          </g>
          <g id="text_5">
            <g>
              <path id="ArialMT-30-4" data-name="ArialMT-30" class="cls-13" d="M20.8,268.7c0-.8,0-1.5.3-2,.2-.5.4-.9.8-1.2.3-.3.8-.4,1.3-.4s.7,0,1,.2c.3.2.5.4.7.7.2.3.3.6.4,1.1.1.4.2,1,.2,1.7s0,1.5-.3,2c-.2.5-.4.9-.8,1.2-.3.3-.8.4-1.3.4s-1.2-.2-1.6-.7c-.5-.6-.7-1.6-.7-2.9ZM21.7,268.7c0,1.2.1,2,.4,2.3.3.4.6.6,1,.6s.7-.2,1-.6.4-1.2.4-2.3-.1-2-.4-2.3c-.3-.4-.6-.6-1-.6s-.7.2-1,.5c-.3.4-.5,1.2-.5,2.4Z"/>
              <path id="ArialMT-2e-2" data-name="ArialMT-2e" class="cls-13" d="M26.8,272.2v-1h1v1h-1Z"/>
              <path id="ArialMT-32-3" data-name="ArialMT-32" class="cls-13" d="M33.7,271.4v.8h-4.7c0-.2,0-.4.1-.6.1-.3.3-.6.6-1,.3-.3.6-.7,1.2-1.1.8-.6,1.3-1.1,1.6-1.5.3-.4.4-.7.4-1.1s-.1-.6-.4-.9c-.2-.2-.6-.4-1-.4s-.8.1-1,.4c-.3.3-.4.6-.4,1.1h-.9c0-.8.3-1.3.7-1.6.4-.4.9-.5,1.6-.5s1.2.2,1.6.6c.4.4.6.9.6,1.4s0,.6-.2.8c-.1.3-.3.6-.6.9s-.7.7-1.4,1.3c-.5.4-.9.7-1,.9-.1.2-.3.3-.4.5h3.5Z"/>
            </g>
          </g>
        </g>
        <g id="ytick_3">
          <g id="line2d_3">
            <path class="cls-11" d="M41.2,233.2h301.7"/>
          </g>
          <g id="text_6">
            <g>
              <path id="ArialMT-30-5" data-name="ArialMT-30" class="cls-13" d="M20.8,233.2c0-.8,0-1.5.3-2,.2-.5.4-.9.8-1.2.3-.3.8-.4,1.3-.4s.7,0,1,.2c.3.2.5.4.7.7.2.3.3.6.4,1.1.1.4.2,1,.2,1.7s0,1.5-.3,2c-.2.5-.4.9-.8,1.2-.3.3-.8.4-1.3.4s-1.2-.2-1.6-.7c-.5-.6-.7-1.6-.7-2.9ZM21.7,233.2c0,1.2.1,2,.4,2.3.3.4.6.6,1,.6s.7-.2,1-.6.4-1.2.4-2.3-.1-2-.4-2.3c-.3-.4-.6-.6-1-.6s-.7.2-1,.5c-.3.4-.5,1.2-.5,2.4Z"/>
              <path id="ArialMT-2e-3" data-name="ArialMT-2e" class="cls-13" d="M26.8,236.8v-1h1v1h-1Z"/>
              <path id="ArialMT-33" class="cls-13" d="M29.1,234.9h.9c.1.4.3.7.5,1,.2.2.5.3.9.3s.8-.1,1-.4c.3-.3.4-.6.4-1.1s-.1-.7-.4-1c-.3-.3-.6-.4-1-.4s-.4,0-.6,0v-.8c.2,0,.2,0,.2,0,.4,0,.7,0,1-.3.3-.2.5-.5.5-.9s-.1-.6-.3-.8c-.2-.2-.5-.3-.8-.3s-.6.1-.9.3c-.2.2-.4.5-.4,1l-.9-.2c.1-.6.4-1,.7-1.4.4-.3.9-.5,1.4-.5s.8,0,1.1.3c.3.2.6.4.8.7.2.3.3.6.3.9s0,.6-.3.8c-.2.3-.4.5-.7.6.4,0,.8.3,1,.6.2.3.4.7.4,1.2s-.2,1.2-.7,1.6c-.5.4-1,.7-1.7.7s-1.2-.2-1.6-.6c-.4-.4-.7-.9-.7-1.5Z"/>
            </g>
          </g>
        </g>
        <g id="ytick_4">
          <g id="line2d_4">
            <path class="cls-11" d="M41.2,197.7h301.7"/>
          </g>
          <g id="text_7">
            <g>
              <path id="ArialMT-30-6" data-name="ArialMT-30" class="cls-13" d="M20.8,197.8c0-.8,0-1.5.3-2,.2-.5.4-.9.8-1.2.3-.3.8-.4,1.3-.4s.7,0,1,.2c.3.2.5.4.7.7.2.3.3.6.4,1.1.1.4.2,1,.2,1.7s0,1.5-.3,2c-.2.5-.4.9-.8,1.2-.3.3-.8.4-1.3.4s-1.2-.2-1.6-.7c-.5-.6-.7-1.6-.7-2.9ZM21.7,197.8c0,1.2.1,2,.4,2.3.3.4.6.6,1,.6s.7-.2,1-.6.4-1.2.4-2.3-.1-2-.4-2.3c-.3-.4-.6-.6-1-.6s-.7.2-1,.5c-.3.4-.5,1.2-.5,2.4Z"/>
              <path id="ArialMT-2e-4" data-name="ArialMT-2e" class="cls-13" d="M26.8,201.3v-1h1v1h-1Z"/>
              <path id="ArialMT-34-3" data-name="ArialMT-34" class="cls-13" d="M31.9,201.3v-1.7h-3.1v-.8l3.3-4.6h.7v4.6h1v.8h-1v1.7h-.9ZM31.9,198.8v-3.2l-2.2,3.2h2.2Z"/>
            </g>
          </g>
        </g>
        <g id="ytick_5">
          <g id="line2d_5">
            <path class="cls-11" d="M41.2,162.3h301.7"/>
          </g>
          <g id="text_8">
            <g>
              <path id="ArialMT-30-7" data-name="ArialMT-30" class="cls-13" d="M20.8,162.3c0-.8,0-1.5.3-2,.2-.5.4-.9.8-1.2.3-.3.8-.4,1.3-.4s.7,0,1,.2c.3.2.5.4.7.7.2.3.3.6.4,1.1.1.4.2,1,.2,1.7s0,1.5-.3,2c-.2.5-.4.9-.8,1.2-.3.3-.8.4-1.3.4s-1.2-.2-1.6-.7c-.5-.6-.7-1.6-.7-2.9ZM21.7,162.3c0,1.2.1,2,.4,2.3.3.4.6.6,1,.6s.7-.2,1-.6.4-1.2.4-2.3-.1-2-.4-2.3c-.3-.4-.6-.6-1-.6s-.7.2-1,.5c-.3.4-.5,1.2-.5,2.4Z"/>
              <path id="ArialMT-2e-5" data-name="ArialMT-2e" class="cls-13" d="M26.8,165.8v-1h1v1h-1Z"/>
              <path id="ArialMT-35" class="cls-13" d="M29.1,164h.9c0,.4.2.7.5.9.2.2.5.3.9.3s.8-.2,1.1-.5c.3-.3.4-.7.4-1.3s-.1-.9-.4-1.2c-.3-.3-.7-.4-1.1-.4s-.5,0-.8.2c-.2.1-.4.3-.5.5h-.8c0-.1.7-3.8.7-3.8h3.6v.8h-2.9l-.4,1.9c.4-.3.9-.5,1.4-.5s1.2.2,1.6.7c.4.4.6,1,.6,1.7s-.2,1.2-.6,1.7c-.5.6-1.1.9-1.9.9s-1.2-.2-1.6-.5c-.4-.4-.6-.8-.7-1.5Z"/>
            </g>
          </g>
        </g>
        <g id="ytick_6">
          <g id="line2d_6">
            <path class="cls-11" d="M41.2,126.8h301.7"/>
          </g>
          <g id="text_9">
            <g>
              <path id="ArialMT-30-8" data-name="ArialMT-30" class="cls-13" d="M20.8,126.8c0-.8,0-1.5.3-2,.2-.5.4-.9.8-1.2.3-.3.8-.4,1.3-.4s.7,0,1,.2c.3.2.5.4.7.7.2.3.3.6.4,1.1.1.4.2,1,.2,1.7s0,1.5-.3,2c-.2.5-.4.9-.8,1.2-.3.3-.8.4-1.3.4s-1.2-.2-1.6-.7c-.5-.6-.7-1.6-.7-2.9ZM21.7,126.8c0,1.2.1,2,.4,2.3.3.4.6.6,1,.6s.7-.2,1-.6.4-1.2.4-2.3-.1-2-.4-2.3c-.3-.4-.6-.6-1-.6s-.7.2-1,.5c-.3.4-.5,1.2-.5,2.4Z"/>
              <path id="ArialMT-2e-6" data-name="ArialMT-2e" class="cls-13" d="M26.8,130.4v-1h1v1h-1Z"/>
              <path id="ArialMT-36" class="cls-13" d="M33.7,125h-.9c0-.3-.2-.5-.3-.7-.2-.3-.5-.4-.9-.4s-.5,0-.7.2c-.3.2-.5.5-.7.9-.2.4-.2.9-.2,1.7.2-.3.5-.6.8-.7s.6-.2,1-.2c.6,0,1.1.2,1.5.6.4.4.6,1,.6,1.7s0,.9-.3,1.3c-.2.4-.5.7-.8.9-.3.2-.7.3-1.2.3-.7,0-1.3-.3-1.8-.8-.5-.5-.7-1.4-.7-2.7s.3-2.4.8-3c.4-.5,1-.8,1.8-.8s1,.2,1.4.5c.4.3.6.8.6,1.3ZM30.1,128.1c0,.3,0,.6.2.9.1.3.3.5.5.6.2.1.5.2.7.2.4,0,.7-.1,1-.4.3-.3.4-.7.4-1.2s-.1-.9-.4-1.2c-.3-.3-.6-.4-1-.4s-.7.1-1,.4c-.3.3-.4.7-.4,1.1Z"/>
            </g>
          </g>
        </g>
        <g id="ytick_7">
          <g id="line2d_7">
            <path class="cls-11" d="M41.2,91.3h301.7"/>
          </g>
          <g id="text_10">
            <g>
              <path id="ArialMT-30-9" data-name="ArialMT-30" class="cls-13" d="M20.8,91.4c0-.8,0-1.5.3-2,.2-.5.4-.9.8-1.2.3-.3.8-.4,1.3-.4s.7,0,1,.2c.3.2.5.4.7.7.2.3.3.6.4,1.1.1.4.2,1,.2,1.7s0,1.5-.3,2c-.2.5-.4.9-.8,1.2-.3.3-.8.4-1.3.4s-1.2-.2-1.6-.7c-.5-.6-.7-1.6-.7-2.9ZM21.7,91.4c0,1.2.1,2,.4,2.3.3.4.6.6,1,.6s.7-.2,1-.6.4-1.2.4-2.3-.1-2-.4-2.3c-.3-.4-.6-.6-1-.6s-.7.2-1,.5c-.3.4-.5,1.2-.5,2.4Z"/>
              <path id="ArialMT-2e-7" data-name="ArialMT-2e" class="cls-13" d="M26.8,94.9v-1h1v1h-1Z"/>
              <path id="ArialMT-37-2" data-name="ArialMT-37" class="cls-13" d="M29.2,88.7v-.8h4.6v.7c-.5.5-.9,1.1-1.4,1.9-.4.8-.8,1.6-1,2.5-.2.6-.3,1.3-.3,2h-.9c0-.6.1-1.2.3-2,.2-.8.5-1.6.9-2.3s.8-1.4,1.3-1.9h-3.5Z"/>
            </g>
          </g>
        </g>
        <g id="ytick_8">
          <g id="line2d_8">
            <path class="cls-11" d="M41.2,55.9h301.7"/>
          </g>
          <g id="text_11">
            <g>
              <path id="ArialMT-30-10" data-name="ArialMT-30" class="cls-13" d="M20.8,55.9c0-.8,0-1.5.3-2,.2-.5.4-.9.8-1.2.3-.3.8-.4,1.3-.4s.7,0,1,.2c.3.2.5.4.7.7.2.3.3.6.4,1.1.1.4.2,1,.2,1.7s0,1.5-.3,2c-.2.5-.4.9-.8,1.2-.3.3-.8.4-1.3.4s-1.2-.2-1.6-.7c-.5-.6-.7-1.6-.7-2.9ZM21.7,55.9c0,1.2.1,2,.4,2.3.3.4.6.6,1,.6s.7-.2,1-.6.4-1.2.4-2.3-.1-2-.4-2.3c-.3-.4-.6-.6-1-.6s-.7.2-1,.5c-.3.4-.5,1.2-.5,2.4Z"/>
              <path id="ArialMT-2e-8" data-name="ArialMT-2e" class="cls-13" d="M26.8,59.4v-1h1v1h-1Z"/>
              <path id="ArialMT-38-2" data-name="ArialMT-38" class="cls-13" d="M30.5,55.6c-.4-.1-.6-.3-.8-.6-.2-.2-.3-.5-.3-.9,0-.5.2-1,.6-1.3.4-.4.9-.5,1.5-.5s1.1.2,1.5.5c.4.4.6.8.6,1.3s0,.6-.3.9c-.2.2-.4.4-.8.6.4.1.8.4,1,.7.2.3.3.7.3,1.1s-.2,1.1-.7,1.5c-.4.4-1,.6-1.7.6s-1.3-.2-1.7-.6c-.4-.4-.7-.9-.7-1.6s.1-.9.4-1.2c.2-.3.6-.5,1-.6ZM30.3,54.1c0,.3.1.6.3.8.2.2.5.3.9.3s.6-.1.8-.3c.2-.2.3-.5.3-.8s-.1-.6-.3-.8c-.2-.2-.5-.3-.8-.3s-.6.1-.8.3c-.2.2-.3.5-.3.8ZM30,57.4c0,.3,0,.5.2.7s.3.4.5.5c.2.1.5.2.8.2.4,0,.8-.1,1-.4.3-.3.4-.6.4-1s-.1-.8-.4-1.1c-.3-.3-.6-.4-1.1-.4s-.8.1-1,.4c-.3.3-.4.6-.4,1Z"/>
            </g>
          </g>
        </g>
        <g id="ytick_9">
          <g id="line2d_9">
            <path class="cls-11" d="M41.2,20.4h301.7"/>
          </g>
          <g id="text_12">
            <g>
              <path id="ArialMT-30-11" data-name="ArialMT-30" class="cls-13" d="M20.8,20.4c0-.8,0-1.5.3-2,.2-.5.4-.9.8-1.2.3-.3.8-.4,1.3-.4s.7,0,1,.2c.3.2.5.4.7.7.2.3.3.6.4,1.1.1.4.2,1,.2,1.7s0,1.5-.3,2c-.2.5-.4.9-.8,1.2-.3.3-.8.4-1.3.4s-1.2-.2-1.6-.7c-.5-.6-.7-1.6-.7-2.9ZM21.7,20.4c0,1.2.1,2,.4,2.3.3.4.6.6,1,.6s.7-.2,1-.6.4-1.2.4-2.3-.1-2-.4-2.3c-.3-.4-.6-.6-1-.6s-.7.2-1,.5c-.3.4-.5,1.2-.5,2.4Z"/>
              <path id="ArialMT-2e-9" data-name="ArialMT-2e" class="cls-13" d="M26.8,24v-1h1v1h-1Z"/>
              <path id="ArialMT-39-2" data-name="ArialMT-39" class="cls-13" d="M29.2,22.3h.8c0,.3.2.6.4.8.2.2.5.3.8.3s.5,0,.7-.2c.2-.1.4-.3.5-.5.1-.2.2-.5.3-.8,0-.4.1-.7.1-1.1s0,0,0-.2c-.2.3-.4.5-.7.7-.3.2-.6.3-1,.3-.6,0-1.1-.2-1.5-.6-.4-.4-.6-1-.6-1.7s.2-1.3.6-1.8c.4-.4,1-.7,1.6-.7s.9.1,1.3.4c.4.3.7.6.9,1.1.2.5.3,1.1.3,2s0,1.6-.3,2.2c-.2.5-.5,1-.9,1.2-.4.3-.9.4-1.4.4s-1-.2-1.4-.5c-.4-.3-.6-.7-.6-1.3ZM32.8,19.2c0-.5-.1-.9-.4-1.2-.3-.3-.6-.4-1-.4s-.7.2-1,.5c-.3.3-.4.7-.4,1.2s.1.8.4,1.1c.3.3.6.4,1,.4s.7-.1,1-.4c.3-.3.4-.7.4-1.2Z"/>
            </g>
          </g>
        </g>
        <g id="text_13">
          <g>
            <path id="ArialMT-72" class="cls-13" d="M14.4,170.2h-5.2v-.8h.8c-.4-.2-.6-.4-.7-.6-.1-.2-.2-.4-.2-.6,0-.3,0-.6.3-.9l.8.3c-.1.2-.2.4-.2.6s0,.4.2.5.3.3.5.3c.3,0,.7.1,1,.1h2.7v.9Z"/>
            <path id="ArialMT-61" class="cls-13" d="M13.7,163.5c.3.3.5.6.6.9.1.3.2.6.2,1,0,.6-.1,1-.4,1.3s-.6.5-1.1.5-.5,0-.7-.2c-.2-.1-.4-.3-.5-.5s-.2-.4-.3-.6c0-.2,0-.4-.1-.8,0-.7-.2-1.2-.3-1.6-.1,0-.2,0-.2,0-.4,0-.6,0-.8.3-.2.2-.3.6-.3,1s0,.7.2.9.4.3.8.4v.9c-.5,0-.8-.2-1-.4-.2-.2-.4-.4-.5-.8-.1-.3-.2-.7-.2-1.2s0-.8.2-1.1c.1-.3.2-.5.4-.6.2-.1.4-.2.6-.3.1,0,.4,0,.8,0h1.2c.8,0,1.3,0,1.6,0,.2,0,.4-.1.6-.2v.9c-.2,0-.4.1-.6.2ZM11.8,163.6c.1.3.2.8.3,1.4,0,.4.1.6.2.8,0,.1.2.3.3.3.1,0,.3.1.4.1.2,0,.4,0,.6-.3.2-.2.2-.4.2-.8s0-.6-.2-.9c-.1-.3-.4-.5-.6-.6-.2,0-.5-.1-.9-.1h-.3Z"/>
            <path id="ArialMT-74-2" data-name="ArialMT-74" class="cls-13" d="M13.6,159.4h.8c0,.1,0,.3,0,.5,0,.3,0,.6-.2.7-.1.2-.2.3-.4.4-.2,0-.5.1-1,.1h-3v.6h-.7v-.6h-1.3l-.5-.9h1.8v-.9h.7v.9h3c.3,0,.4,0,.5,0,0,0,.1,0,.2-.2,0,0,0-.2,0-.3s0-.2,0-.4Z"/>
            <path id="ArialMT-65-2" data-name="ArialMT-65" class="cls-13" d="M12.7,155v-.9c.6.1,1.1.4,1.3.8.3.4.4.9.4,1.5s-.2,1.4-.7,1.8c-.5.4-1.1.7-2,.7s-1.6-.2-2-.7c-.5-.5-.7-1-.7-1.7s.2-1.3.7-1.7,1.1-.7,2-.7.1,0,.2,0v3.9c.6,0,1-.2,1.3-.5.3-.3.5-.7.5-1.1s0-.6-.3-.8c-.2-.2-.4-.4-.8-.5ZM11.3,157.9v-2.9c-.4,0-.8.1-1,.3-.3.3-.5.6-.5,1.1s.1.7.4,1,.6.4,1.1.5Z"/>
          </g>
        </g>
      </g>
      <g id="patch_3">
        <path class="cls-1" d="M79.3,162.3h37v-45.8h-37v45.8Z"/>
      </g>
      <g id="patch_4">
        <path class="cls-6" d="M117,208.1h37v-45.8h-37v45.8Z"/>
      </g>
      <g id="patch_5">
        <path class="cls-1" d="M230.2,142.6h37v-39.3h-37v39.3Z"/>
      </g>
      <g id="patch_6">
        <path class="cls-6" d="M267.9,221.2h37v-39.3h-37v39.3Z"/>
      </g>
      <g id="patch_7">
        <path class="cls-4" d="M116.7,339.6h0Z"/>
      </g>
      <g id="patch_8">
        <path class="cls-5" d="M116.7,339.6h0Z"/>
      </g>
      <g id="line2d_10">
        <path class="cls-2" d="M97.8,162.3v46"/>
      </g>
      <g id="line2d_11">
        <path class="cls-2" d="M97.8,116.4v-58.1"/>
      </g>
      <g id="line2d_12">
        <path class="cls-2" d="M88.6,208.2h18.5"/>
      </g>
      <g id="line2d_13">
        <path class="cls-2" d="M88.6,58.3h18.5"/>
      </g>
      <g id="line2d_14">
        <path id="mf2651a35de" class="cls-3" d="M97.8,37.2l.2-.4-.2-.4-.2.4.2.4Z"/>
      </g>
      <g id="line2d_15">
        <path class="cls-2" d="M135.5,208.1v58.1"/>
      </g>
      <g id="line2d_16">
        <path class="cls-2" d="M135.5,162.3v-46"/>
      </g>
      <g id="line2d_17">
        <path class="cls-2" d="M126.3,266.2h18.5"/>
      </g>
      <g id="line2d_18">
        <path class="cls-2" d="M126.3,116.3h18.5"/>
      </g>
      <g id="line2d_19">
        <path id="mf2651a35de-2" data-name="mf2651a35de" class="cls-3" d="M135.5,288.1l.2-.4-.2-.4-.2.4.2.4Z"/>
      </g>
      <g id="line2d_20">
        <path class="cls-2" d="M248.6,142.6v51.9"/>
      </g>
      <g id="line2d_21">
        <path class="cls-2" d="M248.6,103.3v-47.5"/>
      </g>
      <g id="line2d_22">
        <path class="cls-2" d="M239.4,194.5h18.5"/>
      </g>
      <g id="line2d_23">
        <path class="cls-2" d="M239.4,55.9h18.5"/>
      </g>
      <g id="line2d_24">
        <path id="mf2651a35de-3" data-name="mf2651a35de" class="cls-3" d="M248.6,21.6l.2-.4-.2-.4-.2.4.2.4Z"/>
      </g>
      <g id="line2d_25">
        <path class="cls-2" d="M286.4,221.2v47.5"/>
      </g>
      <g id="line2d_26">
        <path class="cls-2" d="M286.4,181.9v-51.9"/>
      </g>
      <g id="line2d_27">
        <path class="cls-2" d="M277.1,268.7h18.5"/>
      </g>
      <g id="line2d_28">
        <path class="cls-2" d="M277.1,130h18.5"/>
      </g>
      <g id="line2d_29">
        <path id="mf2651a35de-4" data-name="mf2651a35de" class="cls-3" d="M286.4,303.6l.2-.4-.2-.4-.2.4.2.4Z"/>
      </g>
      <g id="line2d_30">
        <path class="cls-2" d="M79.3,135.7h37"/>
      </g>
      <g id="line2d_31">
        <path class="cls-2" d="M117,188.9h37"/>
      </g>
      <g id="line2d_32">
        <path class="cls-2" d="M230.2,128.3h37"/>
      </g>
      <g id="line2d_33">
        <path class="cls-2" d="M267.9,196.2h37"/>
      </g>
      <g id="patch_9">
        <path class="cls-12" d="M41.2,317.3V7.2"/>
      </g>
      <g id="PathCollection_5">
        <path id="C0_0_5353a473a0" class="cls-8" d="M89.4,128.3c.4,0,.8-.2,1.1-.4.3-.3.4-.7.4-1.1s-.2-.8-.4-1.1c-.3-.3-.7-.4-1.1-.4s-.8.2-1.1.4c-.3.3-.4.7-.4,1.1s.2.8.4,1.1c.3.3.7.4,1.1.4Z"/>
        <path id="C0_0_5353a473a0-2" data-name="C0_0_5353a473a0" class="cls-8" d="M91.3,169.9c.4,0,.8-.2,1.1-.4.3-.3.4-.7.4-1.1s-.2-.8-.4-1.1c-.3-.3-.7-.4-1.1-.4s-.8.2-1.1.4c-.3.3-.4.7-.4,1.1s.2.8.4,1.1c.3.3.7.4,1.1.4Z"/>
        <path id="C0_0_5353a473a0-3" data-name="C0_0_5353a473a0" class="cls-8" d="M91.3,199.2c.4,0,.8-.2,1.1-.4.3-.3.4-.7.4-1.1s-.2-.8-.4-1.1c-.3-.3-.7-.4-1.1-.4s-.8.2-1.1.4c-.3.3-.4.7-.4,1.1s.2.8.4,1.1c.3.3.7.4,1.1.4Z"/>
        <path id="C0_0_5353a473a0-4" data-name="C0_0_5353a473a0" class="cls-8" d="M91.3,77.2c.4,0,.8-.2,1.1-.4.3-.3.4-.7.4-1.1s-.2-.8-.4-1.1c-.3-.3-.7-.4-1.1-.4s-.8.2-1.1.4c-.3.3-.4.7-.4,1.1s.2.8.4,1.1c.3.3.7.4,1.1.4Z"/>
        <path id="C0_0_5353a473a0-5" data-name="C0_0_5353a473a0" class="cls-8" d="M91.3,148.3c.4,0,.8-.2,1.1-.4.3-.3.4-.7.4-1.1s-.2-.8-.4-1.1c-.3-.3-.7-.4-1.1-.4s-.8.2-1.1.4c-.3.3-.4.7-.4,1.1s.2.8.4,1.1c.3.3.7.4,1.1.4Z"/>
        <path id="C0_0_5353a473a0-6" data-name="C0_0_5353a473a0" class="cls-8" d="M91.3,130.7c.4,0,.8-.2,1.1-.4.3-.3.4-.7.4-1.1s-.2-.8-.4-1.1c-.3-.3-.7-.4-1.1-.4s-.8.2-1.1.4c-.3.3-.4.7-.4,1.1s.2.8.4,1.1c.3.3.7.4,1.1.4Z"/>
        <path id="C0_0_5353a473a0-7" data-name="C0_0_5353a473a0" class="cls-8" d="M91.3,134.2c.4,0,.8-.2,1.1-.4.3-.3.4-.7.4-1.1s-.2-.8-.4-1.1c-.3-.3-.7-.4-1.1-.4s-.8.2-1.1.4c-.3.3-.4.7-.4,1.1s.2.8.4,1.1c.3.3.7.4,1.1.4Z"/>
        <path id="C0_0_5353a473a0-8" data-name="C0_0_5353a473a0" class="cls-8" d="M91.3,116.5c.4,0,.8-.2,1.1-.4.3-.3.4-.7.4-1.1s-.2-.8-.4-1.1c-.3-.3-.7-.4-1.1-.4s-.8.2-1.1.4c-.3.3-.4.7-.4,1.1s.2.8.4,1.1c.3.3.7.4,1.1.4Z"/>
        <path id="C0_0_5353a473a0-9" data-name="C0_0_5353a473a0" class="cls-8" d="M91.3,92.1c.4,0,.8-.2,1.1-.4.3-.3.4-.7.4-1.1s-.2-.8-.4-1.1c-.3-.3-.7-.4-1.1-.4s-.8.2-1.1.4c-.3.3-.4.7-.4,1.1s.2.8.4,1.1c.3.3.7.4,1.1.4Z"/>
        <path id="C0_0_5353a473a0-10" data-name="C0_0_5353a473a0" class="cls-8" d="M91.3,109.5c.4,0,.8-.2,1.1-.4.3-.3.4-.7.4-1.1s-.2-.8-.4-1.1c-.3-.3-.7-.4-1.1-.4s-.8.2-1.1.4c-.3.3-.4.7-.4,1.1s.2.8.4,1.1c.3.3.7.4,1.1.4Z"/>
        <path id="C0_0_5353a473a0-11" data-name="C0_0_5353a473a0" class="cls-8" d="M91.3,154.7c.4,0,.8-.2,1.1-.4.3-.3.4-.7.4-1.1s-.2-.8-.4-1.1c-.3-.3-.7-.4-1.1-.4s-.8.2-1.1.4c-.3.3-.4.7-.4,1.1s.2.8.4,1.1c.3.3.7.4,1.1.4Z"/>
        <path id="C0_0_5353a473a0-12" data-name="C0_0_5353a473a0" class="cls-8" d="M91.3,86.7c.4,0,.8-.2,1.1-.4.3-.3.4-.7.4-1.1s-.2-.8-.4-1.1c-.3-.3-.7-.4-1.1-.4s-.8.2-1.1.4c-.3.3-.4.7-.4,1.1s.2.8.4,1.1c.3.3.7.4,1.1.4Z"/>
        <path id="C0_0_5353a473a0-13" data-name="C0_0_5353a473a0" class="cls-8" d="M90.2,151.9c.4,0,.8-.2,1.1-.4.3-.3.4-.7.4-1.1s-.2-.8-.4-1.1c-.3-.3-.7-.4-1.1-.4s-.8.2-1.1.4c-.3.3-.4.7-.4,1.1s.2.8.4,1.1c.3.3.7.4,1.1.4Z"/>
        <path id="C0_0_5353a473a0-14" data-name="C0_0_5353a473a0" class="cls-8" d="M91.3,122.4c.4,0,.8-.2,1.1-.4.3-.3.4-.7.4-1.1s-.2-.8-.4-1.1c-.3-.3-.7-.4-1.1-.4s-.8.2-1.1.4c-.3.3-.4.7-.4,1.1s.2.8.4,1.1c.3.3.7.4,1.1.4Z"/>
        <path id="C0_0_5353a473a0-15" data-name="C0_0_5353a473a0" class="cls-8" d="M91.3,193.3c.4,0,.8-.2,1.1-.4.3-.3.4-.7.4-1.1s-.2-.8-.4-1.1c-.3-.3-.7-.4-1.1-.4s-.8.2-1.1.4c-.3.3-.4.7-.4,1.1s.2.8.4,1.1c.3.3.7.4,1.1.4Z"/>
        <path id="C0_0_5353a473a0-16" data-name="C0_0_5353a473a0" class="cls-8" d="M91.3,59.8c.4,0,.8-.2,1.1-.4.3-.3.4-.7.4-1.1s-.2-.8-.4-1.1c-.3-.3-.7-.4-1.1-.4s-.8.2-1.1.4c-.3.3-.4.7-.4,1.1s.2.8.4,1.1c.3.3.7.4,1.1.4Z"/>
        <path id="C0_0_5353a473a0-17" data-name="C0_0_5353a473a0" class="cls-8" d="M90.8,119.4c.4,0,.8-.2,1.1-.4.3-.3.4-.7.4-1.1s-.2-.8-.4-1.1c-.3-.3-.7-.4-1.1-.4s-.8.2-1.1.4c-.3.3-.4.7-.4,1.1s.2.8.4,1.1c.3.3.7.4,1.1.4Z"/>
        <path id="C0_0_5353a473a0-18" data-name="C0_0_5353a473a0" class="cls-8" d="M91.3,100.4c.4,0,.8-.2,1.1-.4.3-.3.4-.7.4-1.1s-.2-.8-.4-1.1c-.3-.3-.7-.4-1.1-.4s-.8.2-1.1.4c-.3.3-.4.7-.4,1.1s.2.8.4,1.1c.3.3.7.4,1.1.4Z"/>
        <path id="C0_0_5353a473a0-19" data-name="C0_0_5353a473a0" class="cls-8" d="M88.4,115.4c.4,0,.8-.2,1.1-.4.3-.3.4-.7.4-1.1s-.2-.8-.4-1.1c-.3-.3-.7-.4-1.1-.4s-.8.2-1.1.4c-.3.3-.4.7-.4,1.1s.2.8.4,1.1c.3.3.7.4,1.1.4Z"/>
        <path id="C0_0_5353a473a0-20" data-name="C0_0_5353a473a0" class="cls-8" d="M88.2,169.7c.4,0,.8-.2,1.1-.4.3-.3.4-.7.4-1.1s-.2-.8-.4-1.1c-.3-.3-.7-.4-1.1-.4s-.8.2-1.1.4c-.3.3-.4.7-.4,1.1s.2.8.4,1.1c.3.3.7.4,1.1.4Z"/>
        <path id="C0_0_5353a473a0-21" data-name="C0_0_5353a473a0" class="cls-8" d="M88.2,163.8c.4,0,.8-.2,1.1-.4.3-.3.4-.7.4-1.1s-.2-.8-.4-1.1c-.3-.3-.7-.4-1.1-.4s-.8.2-1.1.4c-.3.3-.4.7-.4,1.1s.2.8.4,1.1c.3.3.7.4,1.1.4Z"/>
        <path id="C0_0_5353a473a0-22" data-name="C0_0_5353a473a0" class="cls-8" d="M91.3,163.8c.4,0,.8-.2,1.1-.4.3-.3.4-.7.4-1.1s-.2-.8-.4-1.1c-.3-.3-.7-.4-1.1-.4s-.8.2-1.1.4c-.3.3-.4.7-.4,1.1s.2.8.4,1.1c.3.3.7.4,1.1.4Z"/>
        <path id="C0_0_5353a473a0-23" data-name="C0_0_5353a473a0" class="cls-8" d="M93.9,119.4c.4,0,.8-.2,1.1-.4.3-.3.4-.7.4-1.1s-.2-.8-.4-1.1c-.3-.3-.7-.4-1.1-.4s-.8.2-1.1.4c-.3.3-.4.7-.4,1.1s.2.8.4,1.1c.3.3.7.4,1.1.4Z"/>
        <path id="C0_0_5353a473a0-24" data-name="C0_0_5353a473a0" class="cls-8" d="M91.3,141c.4,0,.8-.2,1.1-.4.3-.3.4-.7.4-1.1s-.2-.8-.4-1.1c-.3-.3-.7-.4-1.1-.4s-.8.2-1.1.4c-.3.3-.4.7-.4,1.1s.2.8.4,1.1c.3.3.7.4,1.1.4Z"/>
        <path id="C0_0_5353a473a0-25" data-name="C0_0_5353a473a0" class="cls-8" d="M91.3,38.3c.4,0,.8-.2,1.1-.4.3-.3.4-.7.4-1.1s-.2-.8-.4-1.1c-.3-.3-.7-.4-1.1-.4s-.8.2-1.1.4c-.3.3-.4.7-.4,1.1s.2.8.4,1.1c.3.3.7.4,1.1.4Z"/>
      </g>
      <g id="PathCollection_6">
        <path id="C1_0_e9c15982c0" class="cls-7" d="M129.2,199.2c.4,0,.8-.2,1.1-.4.3-.3.4-.7.4-1.1s-.2-.8-.4-1.1c-.3-.3-.7-.4-1.1-.4s-.8.2-1.1.4c-.3.3-.4.7-.4,1.1s.2.8.4,1.1c.3.3.7.4,1.1.4Z"/>
        <path id="C1_0_e9c15982c0-2" data-name="C1_0_e9c15982c0" class="cls-7" d="M126.1,157.6c.4,0,.8-.2,1.1-.4.3-.3.4-.7.4-1.1s-.2-.8-.4-1.1c-.3-.3-.7-.4-1.1-.4s-.8.2-1.1.4c-.3.3-.4.7-.4,1.1s.2.8.4,1.1c.3.3.7.4,1.1.4Z"/>
        <path id="C1_0_e9c15982c0-3" data-name="C1_0_e9c15982c0" class="cls-7" d="M129.2,128.3c.4,0,.8-.2,1.1-.4.3-.3.4-.7.4-1.1s-.2-.8-.4-1.1c-.3-.3-.7-.4-1.1-.4s-.8.2-1.1.4c-.3.3-.4.7-.4,1.1s.2.8.4,1.1c.3.3.7.4,1.1.4Z"/>
        <path id="C1_0_e9c15982c0-4" data-name="C1_0_e9c15982c0" class="cls-7" d="M129.2,250.4c.4,0,.8-.2,1.1-.4.3-.3.4-.7.4-1.1s-.2-.8-.4-1.1c-.3-.3-.7-.4-1.1-.4s-.8.2-1.1.4c-.3.3-.4.7-.4,1.1s.2.8.4,1.1c.3.3.7.4,1.1.4Z"/>
        <path id="C1_0_e9c15982c0-5" data-name="C1_0_e9c15982c0" class="cls-7" d="M129.2,179.2c.4,0,.8-.2,1.1-.4.3-.3.4-.7.4-1.1s-.2-.8-.4-1.1c-.3-.3-.7-.4-1.1-.4s-.8.2-1.1.4c-.3.3-.4.7-.4,1.1s.2.8.4,1.1c.3.3.7.4,1.1.4Z"/>
        <path id="C1_0_e9c15982c0-6" data-name="C1_0_e9c15982c0" class="cls-7" d="M127.3,196.8c.4,0,.8-.2,1.1-.4.3-.3.4-.7.4-1.1s-.2-.8-.4-1.1c-.3-.3-.7-.4-1.1-.4s-.8.2-1.1.4c-.3.3-.4.7-.4,1.1s.2.8.4,1.1c.3.3.7.4,1.1.4Z"/>
        <path id="C1_0_e9c15982c0-7" data-name="C1_0_e9c15982c0" class="cls-7" d="M129.2,193.3c.4,0,.8-.2,1.1-.4.3-.3.4-.7.4-1.1s-.2-.8-.4-1.1c-.3-.3-.7-.4-1.1-.4s-.8.2-1.1.4c-.3.3-.4.7-.4,1.1s.2.8.4,1.1c.3.3.7.4,1.1.4Z"/>
        <path id="C1_0_e9c15982c0-8" data-name="C1_0_e9c15982c0" class="cls-7" d="M126.3,211.1c.4,0,.8-.2,1.1-.4.3-.3.4-.7.4-1.1s-.2-.8-.4-1.1c-.3-.3-.7-.4-1.1-.4s-.8.2-1.1.4c-.3.3-.4.7-.4,1.1s.2.8.4,1.1c.3.3.7.4,1.1.4Z"/>
        <path id="C1_0_e9c15982c0-9" data-name="C1_0_e9c15982c0" class="cls-7" d="M129.2,235.5c.4,0,.8-.2,1.1-.4.3-.3.4-.7.4-1.1s-.2-.8-.4-1.1c-.3-.3-.7-.4-1.1-.4s-.8.2-1.1.4c-.3.3-.4.7-.4,1.1s.2.8.4,1.1c.3.3.7.4,1.1.4Z"/>
        <path id="C1_0_e9c15982c0-10" data-name="C1_0_e9c15982c0" class="cls-7" d="M129.2,218c.4,0,.8-.2,1.1-.4.3-.3.4-.7.4-1.1s-.2-.8-.4-1.1c-.3-.3-.7-.4-1.1-.4s-.8.2-1.1.4c-.3.3-.4.7-.4,1.1s.2.8.4,1.1c.3.3.7.4,1.1.4Z"/>
        <path id="C1_0_e9c15982c0-11" data-name="C1_0_e9c15982c0" class="cls-7" d="M128.1,172.8c.4,0,.8-.2,1.1-.4.3-.3.4-.7.4-1.1s-.2-.8-.4-1.1c-.3-.3-.7-.4-1.1-.4s-.8.2-1.1.4c-.3.3-.4.7-.4,1.1s.2.8.4,1.1c.3.3.7.4,1.1.4Z"/>
        <path id="C1_0_e9c15982c0-12" data-name="C1_0_e9c15982c0" class="cls-7" d="M129.2,240.9c.4,0,.8-.2,1.1-.4.3-.3.4-.7.4-1.1s-.2-.8-.4-1.1c-.3-.3-.7-.4-1.1-.4s-.8.2-1.1.4c-.3.3-.4.7-.4,1.1s.2.8.4,1.1c.3.3.7.4,1.1.4Z"/>
        <path id="C1_0_e9c15982c0-13" data-name="C1_0_e9c15982c0" class="cls-7" d="M129.2,175.6c.4,0,.8-.2,1.1-.4.3-.3.4-.7.4-1.1s-.2-.8-.4-1.1c-.3-.3-.7-.4-1.1-.4s-.8.2-1.1.4c-.3.3-.4.7-.4,1.1s.2.8.4,1.1c.3.3.7.4,1.1.4Z"/>
        <path id="C1_0_e9c15982c0-14" data-name="C1_0_e9c15982c0" class="cls-7" d="M128.7,205.1c.4,0,.8-.2,1.1-.4.3-.3.4-.7.4-1.1s-.2-.8-.4-1.1c-.3-.3-.7-.4-1.1-.4s-.8.2-1.1.4c-.3.3-.4.7-.4,1.1s.2.8.4,1.1c.3.3.7.4,1.1.4Z"/>
        <path id="C1_0_e9c15982c0-15" data-name="C1_0_e9c15982c0" class="cls-7" d="M129.2,134.2c.4,0,.8-.2,1.1-.4.3-.3.4-.7.4-1.1s-.2-.8-.4-1.1c-.3-.3-.7-.4-1.1-.4s-.8.2-1.1.4c-.3.3-.4.7-.4,1.1s.2.8.4,1.1c.3.3.7.4,1.1.4Z"/>
        <path id="C1_0_e9c15982c0-16" data-name="C1_0_e9c15982c0" class="cls-7" d="M129.2,267.7c.4,0,.8-.2,1.1-.4.3-.3.4-.7.4-1.1s-.2-.8-.4-1.1c-.3-.3-.7-.4-1.1-.4s-.8.2-1.1.4c-.3.3-.4.7-.4,1.1s.2.8.4,1.1c.3.3.7.4,1.1.4Z"/>
        <path id="C1_0_e9c15982c0-17" data-name="C1_0_e9c15982c0" class="cls-7" d="M132.4,208.1c.4,0,.8-.2,1.1-.4.3-.3.4-.7.4-1.1s-.2-.8-.4-1.1c-.3-.3-.7-.4-1.1-.4s-.8.2-1.1.4c-.3.3-.4.7-.4,1.1s.2.8.4,1.1c.3.3.7.4,1.1.4Z"/>
        <path id="C1_0_e9c15982c0-18" data-name="C1_0_e9c15982c0" class="cls-7" d="M129.2,227.1c.4,0,.8-.2,1.1-.4.3-.3.4-.7.4-1.1s-.2-.8-.4-1.1c-.3-.3-.7-.4-1.1-.4s-.8.2-1.1.4c-.3.3-.4.7-.4,1.1s.2.8.4,1.1c.3.3.7.4,1.1.4Z"/>
        <path id="C1_0_e9c15982c0-19" data-name="C1_0_e9c15982c0" class="cls-7" d="M129.2,212.1c.4,0,.8-.2,1.1-.4.3-.3.4-.7.4-1.1s-.2-.8-.4-1.1c-.3-.3-.7-.4-1.1-.4s-.8.2-1.1.4c-.3.3-.4.7-.4,1.1s.2.8.4,1.1c.3.3.7.4,1.1.4Z"/>
        <path id="C1_0_e9c15982c0-20" data-name="C1_0_e9c15982c0" class="cls-7" d="M129.2,157.8c.4,0,.8-.2,1.1-.4.3-.3.4-.7.4-1.1s-.2-.8-.4-1.1c-.3-.3-.7-.4-1.1-.4s-.8.2-1.1.4c-.3.3-.4.7-.4,1.1s.2.8.4,1.1c.3.3.7.4,1.1.4Z"/>
        <path id="C1_0_e9c15982c0-21" data-name="C1_0_e9c15982c0" class="cls-7" d="M129.2,163.8c.4,0,.8-.2,1.1-.4.3-.3.4-.7.4-1.1s-.2-.8-.4-1.1c-.3-.3-.7-.4-1.1-.4s-.8.2-1.1.4c-.3.3-.4.7-.4,1.1s.2.8.4,1.1c.3.3.7.4,1.1.4Z"/>
        <path id="C1_0_e9c15982c0-22" data-name="C1_0_e9c15982c0" class="cls-7" d="M126.1,163.8c.4,0,.8-.2,1.1-.4.3-.3.4-.7.4-1.1s-.2-.8-.4-1.1c-.3-.3-.7-.4-1.1-.4s-.8.2-1.1.4c-.3.3-.4.7-.4,1.1s.2.8.4,1.1c.3.3.7.4,1.1.4Z"/>
        <path id="C1_0_e9c15982c0-23" data-name="C1_0_e9c15982c0" class="cls-7" d="M129.2,208.1c.4,0,.8-.2,1.1-.4.3-.3.4-.7.4-1.1s-.2-.8-.4-1.1c-.3-.3-.7-.4-1.1-.4s-.8.2-1.1.4c-.3.3-.4.7-.4,1.1s.2.8.4,1.1c.3.3.7.4,1.1.4Z"/>
        <path id="C1_0_e9c15982c0-24" data-name="C1_0_e9c15982c0" class="cls-7" d="M129.2,186.5c.4,0,.8-.2,1.1-.4.3-.3.4-.7.4-1.1s-.2-.8-.4-1.1c-.3-.3-.7-.4-1.1-.4s-.8.2-1.1.4c-.3.3-.4.7-.4,1.1s.2.8.4,1.1c.3.3.7.4,1.1.4Z"/>
        <path id="C1_0_e9c15982c0-25" data-name="C1_0_e9c15982c0" class="cls-7" d="M129.2,289.2c.4,0,.8-.2,1.1-.4.3-.3.4-.7.4-1.1s-.2-.8-.4-1.1c-.3-.3-.7-.4-1.1-.4s-.8.2-1.1.4c-.3.3-.4.7-.4,1.1s.2.8.4,1.1c.3.3.7.4,1.1.4Z"/>
      </g>
      <g id="PathCollection_7">
        <path id="C2_0_0924370df1" class="cls-8" d="M237.3,116.5c.4,0,.8-.2,1.1-.4.3-.3.4-.7.4-1.1s-.2-.8-.4-1.1c-.3-.3-.7-.4-1.1-.4s-.8.2-1.1.4c-.3.3-.4.7-.4,1.1s.2.8.4,1.1c.3.3.7.4,1.1.4Z"/>
        <path id="C2_0_0924370df1-2" data-name="C2_0_0924370df1" class="cls-8" d="M237.3,187.4c.4,0,.8-.2,1.1-.4.3-.3.4-.7.4-1.1s-.2-.8-.4-1.1c-.3-.3-.7-.4-1.1-.4s-.8.2-1.1.4c-.3.3-.4.7-.4,1.1s.2.8.4,1.1c.3.3.7.4,1.1.4Z"/>
        <path id="C2_0_0924370df1-3" data-name="C2_0_0924370df1" class="cls-8" d="M237.3,157.8c.4,0,.8-.2,1.1-.4.3-.3.4-.7.4-1.1s-.2-.8-.4-1.1c-.3-.3-.7-.4-1.1-.4s-.8.2-1.1.4c-.3.3-.4.7-.4,1.1s.2.8.4,1.1c.3.3.7.4,1.1.4Z"/>
        <path id="C2_0_0924370df1-4" data-name="C2_0_0924370df1" class="cls-8" d="M237.3,142.1c.4,0,.8-.2,1.1-.4.3-.3.4-.7.4-1.1s-.2-.8-.4-1.1c-.3-.3-.7-.4-1.1-.4s-.8.2-1.1.4c-.3.3-.4.7-.4,1.1s.2.8.4,1.1c.3.3.7.4,1.1.4Z"/>
        <path id="C2_0_0924370df1-5" data-name="C2_0_0924370df1" class="cls-8" d="M237.3,75.1c.4,0,.8-.2,1.1-.4.3-.3.4-.7.4-1.1s-.2-.8-.4-1.1c-.3-.3-.7-.4-1.1-.4s-.8.2-1.1.4c-.3.3-.4.7-.4,1.1s.2.8.4,1.1c.3.3.7.4,1.1.4Z"/>
        <path id="C2_0_0924370df1-6" data-name="C2_0_0924370df1" class="cls-8" d="M234.5,128.3c.4,0,.8-.2,1.1-.4.3-.3.4-.7.4-1.1s-.2-.8-.4-1.1c-.3-.3-.7-.4-1.1-.4s-.8.2-1.1.4c-.3.3-.4.7-.4,1.1s.2.8.4,1.1c.3.3.7.4,1.1.4Z"/>
        <path id="C2_0_0924370df1-7" data-name="C2_0_0924370df1" class="cls-8" d="M234.3,141.2c.4,0,.8-.2,1.1-.4.3-.3.4-.7.4-1.1s-.2-.8-.4-1.1c-.3-.3-.7-.4-1.1-.4s-.8.2-1.1.4c-.3.3-.4.7-.4,1.1s.2.8.4,1.1c.3.3.7.4,1.1.4Z"/>
        <path id="C2_0_0924370df1-8" data-name="C2_0_0924370df1" class="cls-8" d="M239.7,140.1c.4,0,.8-.2,1.1-.4.3-.3.4-.7.4-1.1s-.2-.8-.4-1.1c-.3-.3-.7-.4-1.1-.4s-.8.2-1.1.4c-.3.3-.4.7-.4,1.1s.2.8.4,1.1c.3.3.7.4,1.1.4Z"/>
        <path id="C2_0_0924370df1-9" data-name="C2_0_0924370df1" class="cls-8" d="M237.3,58.8c.4,0,.8-.2,1.1-.4.3-.3.4-.7.4-1.1s-.2-.8-.4-1.1c-.3-.3-.7-.4-1.1-.4s-.8.2-1.1.4c-.3.3-.4.7-.4,1.1s.2.8.4,1.1c.3.3.7.4,1.1.4Z"/>
        <path id="C2_0_0924370df1-10" data-name="C2_0_0924370df1" class="cls-8" d="M237.3,107.2c.4,0,.8-.2,1.1-.4.3-.3.4-.7.4-1.1s-.2-.8-.4-1.1c-.3-.3-.7-.4-1.1-.4s-.8.2-1.1.4c-.3.3-.4.7-.4,1.1s.2.8.4,1.1c.3.3.7.4,1.1.4Z"/>
        <path id="C2_0_0924370df1-11" data-name="C2_0_0924370df1" class="cls-8" d="M234.6,134.2c.4,0,.8-.2,1.1-.4.3-.3.4-.7.4-1.1s-.2-.8-.4-1.1c-.3-.3-.7-.4-1.1-.4s-.8.2-1.1.4c-.3.3-.4.7-.4,1.1s.2.8.4,1.1c.3.3.7.4,1.1.4Z"/>
        <path id="C2_0_0924370df1-12" data-name="C2_0_0924370df1" class="cls-8" d="M235.7,99.9c.4,0,.8-.2,1.1-.4.3-.3.4-.7.4-1.1s-.2-.8-.4-1.1c-.3-.3-.7-.4-1.1-.4s-.8.2-1.1.4c-.3.3-.4.7-.4,1.1s.2.8.4,1.1c.3.3.7.4,1.1.4Z"/>
        <path id="C2_0_0924370df1-13" data-name="C2_0_0924370df1" class="cls-8" d="M237.3,163.8c.4,0,.8-.2,1.1-.4.3-.3.4-.7.4-1.1s-.2-.8-.4-1.1c-.3-.3-.7-.4-1.1-.4s-.8.2-1.1.4c-.3.3-.4.7-.4,1.1s.2.8.4,1.1c.3.3.7.4,1.1.4Z"/>
        <path id="C2_0_0924370df1-14" data-name="C2_0_0924370df1" class="cls-8" d="M237.3,63.3c.4,0,.8-.2,1.1-.4.3-.3.4-.7.4-1.1s-.2-.8-.4-1.1c-.3-.3-.7-.4-1.1-.4s-.8.2-1.1.4c-.3.3-.4.7-.4,1.1s.2.8.4,1.1c.3.3.7.4,1.1.4Z"/>
        <path id="C2_0_0924370df1-15" data-name="C2_0_0924370df1" class="cls-8" d="M235.1,151.9c.4,0,.8-.2,1.1-.4.3-.3.4-.7.4-1.1s-.2-.8-.4-1.1c-.3-.3-.7-.4-1.1-.4s-.8.2-1.1.4c-.3.3-.4.7-.4,1.1s.2.8.4,1.1c.3.3.7.4,1.1.4Z"/>
        <path id="C2_0_0924370df1-16" data-name="C2_0_0924370df1" class="cls-8" d="M234.6,57.4c.4,0,.8-.2,1.1-.4.3-.3.4-.7.4-1.1s-.2-.8-.4-1.1c-.3-.3-.7-.4-1.1-.4s-.8.2-1.1.4c-.3.3-.4.7-.4,1.1s.2.8.4,1.1c.3.3.7.4,1.1.4Z"/>
        <path id="C2_0_0924370df1-17" data-name="C2_0_0924370df1" class="cls-8" d="M237.3,135.8c.4,0,.8-.2,1.1-.4.3-.3.4-.7.4-1.1s-.2-.8-.4-1.1c-.3-.3-.7-.4-1.1-.4s-.8.2-1.1.4c-.3.3-.4.7-.4,1.1s.2.8.4,1.1c.3.3.7.4,1.1.4Z"/>
        <path id="C2_0_0924370df1-18" data-name="C2_0_0924370df1" class="cls-8" d="M237.3,113.1c.4,0,.8-.2,1.1-.4.3-.3.4-.7.4-1.1s-.2-.8-.4-1.1c-.3-.3-.7-.4-1.1-.4s-.8.2-1.1.4c-.3.3-.4.7-.4,1.1s.2.8.4,1.1c.3.3.7.4,1.1.4Z"/>
        <path id="C2_0_0924370df1-19" data-name="C2_0_0924370df1" class="cls-8" d="M237.3,129.7c.4,0,.8-.2,1.1-.4.3-.3.4-.7.4-1.1s-.2-.8-.4-1.1c-.3-.3-.7-.4-1.1-.4s-.8.2-1.1.4c-.3.3-.4.7-.4,1.1s.2.8.4,1.1c.3.3.7.4,1.1.4Z"/>
        <path id="C2_0_0924370df1-20" data-name="C2_0_0924370df1" class="cls-8" d="M242.8,140.1c.4,0,.8-.2,1.1-.4.3-.3.4-.7.4-1.1s-.2-.8-.4-1.1c-.3-.3-.7-.4-1.1-.4s-.8.2-1.1.4c-.3.3-.4.7-.4,1.1s.2.8.4,1.1c.3.3.7.4,1.1.4Z"/>
        <path id="C2_0_0924370df1-21" data-name="C2_0_0924370df1" class="cls-8" d="M234.2,187.2c.4,0,.8-.2,1.1-.4.3-.3.4-.7.4-1.1s-.2-.8-.4-1.1c-.3-.3-.7-.4-1.1-.4s-.8.2-1.1.4c-.3.3-.4.7-.4,1.1s.2.8.4,1.1c.3.3.7.4,1.1.4Z"/>
        <path id="C2_0_0924370df1-22" data-name="C2_0_0924370df1" class="cls-8" d="M237.3,154.1c.4,0,.8-.2,1.1-.4.3-.3.4-.7.4-1.1s-.2-.8-.4-1.1c-.3-.3-.7-.4-1.1-.4s-.8.2-1.1.4c-.3.3-.4.7-.4,1.1s.2.8.4,1.1c.3.3.7.4,1.1.4Z"/>
        <path id="C2_0_0924370df1-23" data-name="C2_0_0924370df1" class="cls-8" d="M237.3,102.5c.4,0,.8-.2,1.1-.4.3-.3.4-.7.4-1.1s-.2-.8-.4-1.1c-.3-.3-.7-.4-1.1-.4s-.8.2-1.1.4c-.3.3-.4.7-.4,1.1s.2.8.4,1.1c.3.3.7.4,1.1.4Z"/>
        <path id="C2_0_0924370df1-24" data-name="C2_0_0924370df1" class="cls-8" d="M240,134.2c.4,0,.8-.2,1.1-.4.3-.3.4-.7.4-1.1s-.2-.8-.4-1.1c-.3-.3-.7-.4-1.1-.4s-.8.2-1.1.4c-.3.3-.4.7-.4,1.1s.2.8.4,1.1c.3.3.7.4,1.1.4Z"/>
        <path id="C2_0_0924370df1-25" data-name="C2_0_0924370df1" class="cls-8" d="M237.3,22.8c.4,0,.8-.2,1.1-.4.3-.3.4-.7.4-1.1s-.2-.8-.4-1.1c-.3-.3-.7-.4-1.1-.4s-.8.2-1.1.4c-.3.3-.4.7-.4,1.1s.2.8.4,1.1c.3.3.7.4,1.1.4Z"/>
      </g>
      <g id="PathCollection_8">
        <path id="C3_0_bbf7f0954a" class="cls-7" d="M278.9,211.1c.4,0,.8-.2,1.1-.4.3-.3.4-.7.4-1.1s-.2-.8-.4-1.1c-.3-.3-.7-.4-1.1-.4s-.8.2-1.1.4c-.3.3-.4.7-.4,1.1s.2.8.4,1.1c.3.3.7.4,1.1.4Z"/>
        <path id="C3_0_bbf7f0954a-2" data-name="C3_0_bbf7f0954a" class="cls-7" d="M275.8,140.1c.4,0,.8-.2,1.1-.4.3-.3.4-.7.4-1.1s-.2-.8-.4-1.1c-.3-.3-.7-.4-1.1-.4s-.8.2-1.1.4c-.3.3-.4.7-.4,1.1s.2.8.4,1.1c.3.3.7.4,1.1.4Z"/>
        <path id="C3_0_bbf7f0954a-3" data-name="C3_0_bbf7f0954a" class="cls-7" d="M278.9,169.7c.4,0,.8-.2,1.1-.4.3-.3.4-.7.4-1.1s-.2-.8-.4-1.1c-.3-.3-.7-.4-1.1-.4s-.8.2-1.1.4c-.3.3-.4.7-.4,1.1s.2.8.4,1.1c.3.3.7.4,1.1.4Z"/>
        <path id="C3_0_bbf7f0954a-4" data-name="C3_0_bbf7f0954a" class="cls-7" d="M273.5,185.4c.4,0,.8-.2,1.1-.4.3-.3.4-.7.4-1.1s-.2-.8-.4-1.1c-.3-.3-.7-.4-1.1-.4s-.8.2-1.1.4c-.3.3-.4.7-.4,1.1s.2.8.4,1.1c.3.3.7.4,1.1.4Z"/>
        <path id="C3_0_bbf7f0954a-5" data-name="C3_0_bbf7f0954a" class="cls-7" d="M278.9,252.4c.4,0,.8-.2,1.1-.4.3-.3.4-.7.4-1.1s-.2-.8-.4-1.1c-.3-.3-.7-.4-1.1-.4s-.8.2-1.1.4c-.3.3-.4.7-.4,1.1s.2.8.4,1.1c.3.3.7.4,1.1.4Z"/>
        <path id="C3_0_bbf7f0954a-6" data-name="C3_0_bbf7f0954a" class="cls-7" d="M278.9,199.2c.4,0,.8-.2,1.1-.4.3-.3.4-.7.4-1.1s-.2-.8-.4-1.1c-.3-.3-.7-.4-1.1-.4s-.8.2-1.1.4c-.3.3-.4.7-.4,1.1s.2.8.4,1.1c.3.3.7.4,1.1.4Z"/>
        <path id="C3_0_bbf7f0954a-7" data-name="C3_0_bbf7f0954a" class="cls-7" d="M281.9,186.3c.4,0,.8-.2,1.1-.4.3-.3.4-.7.4-1.1s-.2-.8-.4-1.1c-.3-.3-.7-.4-1.1-.4s-.8.2-1.1.4c-.3.3-.4.7-.4,1.1s.2.8.4,1.1c.3.3.7.4,1.1.4Z"/>
        <path id="C3_0_bbf7f0954a-8" data-name="C3_0_bbf7f0954a" class="cls-7" d="M275.8,187.4c.4,0,.8-.2,1.1-.4.3-.3.4-.7.4-1.1s-.2-.8-.4-1.1c-.3-.3-.7-.4-1.1-.4s-.8.2-1.1.4c-.3.3-.4.7-.4,1.1s.2.8.4,1.1c.3.3.7.4,1.1.4Z"/>
        <path id="C3_0_bbf7f0954a-9" data-name="C3_0_bbf7f0954a" class="cls-7" d="M276.2,268.7c.4,0,.8-.2,1.1-.4.3-.3.4-.7.4-1.1s-.2-.8-.4-1.1c-.3-.3-.7-.4-1.1-.4s-.8.2-1.1.4c-.3.3-.4.7-.4,1.1s.2.8.4,1.1c.3.3.7.4,1.1.4Z"/>
        <path id="C3_0_bbf7f0954a-10" data-name="C3_0_bbf7f0954a" class="cls-7" d="M278.9,220.4c.4,0,.8-.2,1.1-.4.3-.3.4-.7.4-1.1s-.2-.8-.4-1.1c-.3-.3-.7-.4-1.1-.4s-.8.2-1.1.4c-.3.3-.4.7-.4,1.1s.2.8.4,1.1c.3.3.7.4,1.1.4Z"/>
        <path id="C3_0_bbf7f0954a-11" data-name="C3_0_bbf7f0954a" class="cls-7" d="M278.9,193.3c.4,0,.8-.2,1.1-.4.3-.3.4-.7.4-1.1s-.2-.8-.4-1.1c-.3-.3-.7-.4-1.1-.4s-.8.2-1.1.4c-.3.3-.4.7-.4,1.1s.2.8.4,1.1c.3.3.7.4,1.1.4Z"/>
        <path id="C3_0_bbf7f0954a-12" data-name="C3_0_bbf7f0954a" class="cls-7" d="M278.9,227.6c.4,0,.8-.2,1.1-.4.3-.3.4-.7.4-1.1s-.2-.8-.4-1.1c-.3-.3-.7-.4-1.1-.4s-.8.2-1.1.4c-.3.3-.4.7-.4,1.1s.2.8.4,1.1c.3.3.7.4,1.1.4Z"/>
        <path id="C3_0_bbf7f0954a-13" data-name="C3_0_bbf7f0954a" class="cls-7" d="M278.9,163.8c.4,0,.8-.2,1.1-.4.3-.3.4-.7.4-1.1s-.2-.8-.4-1.1c-.3-.3-.7-.4-1.1-.4s-.8.2-1.1.4c-.3.3-.4.7-.4,1.1s.2.8.4,1.1c.3.3.7.4,1.1.4Z"/>
        <path id="C3_0_bbf7f0954a-14" data-name="C3_0_bbf7f0954a" class="cls-7" d="M278.9,264.3c.4,0,.8-.2,1.1-.4.3-.3.4-.7.4-1.1s-.2-.8-.4-1.1c-.3-.3-.7-.4-1.1-.4s-.8.2-1.1.4c-.3.3-.4.7-.4,1.1s.2.8.4,1.1c.3.3.7.4,1.1.4Z"/>
        <path id="C3_0_bbf7f0954a-15" data-name="C3_0_bbf7f0954a" class="cls-7" d="M278.9,175.6c.4,0,.8-.2,1.1-.4.3-.3.4-.7.4-1.1s-.2-.8-.4-1.1c-.3-.3-.7-.4-1.1-.4s-.8.2-1.1.4c-.3.3-.4.7-.4,1.1s.2.8.4,1.1c.3.3.7.4,1.1.4Z"/>
        <path id="C3_0_bbf7f0954a-16" data-name="C3_0_bbf7f0954a" class="cls-7" d="M278.9,270.2c.4,0,.8-.2,1.1-.4.3-.3.4-.7.4-1.1s-.2-.8-.4-1.1c-.3-.3-.7-.4-1.1-.4s-.8.2-1.1.4c-.3.3-.4.7-.4,1.1s.2.8.4,1.1c.3.3.7.4,1.1.4Z"/>
        <path id="C3_0_bbf7f0954a-17" data-name="C3_0_bbf7f0954a" class="cls-7" d="M281.6,191.8c.4,0,.8-.2,1.1-.4.3-.3.4-.7.4-1.1s-.2-.8-.4-1.1c-.3-.3-.7-.4-1.1-.4s-.8.2-1.1.4c-.3.3-.4.7-.4,1.1s.2.8.4,1.1c.3.3.7.4,1.1.4Z"/>
        <path id="C3_0_bbf7f0954a-18" data-name="C3_0_bbf7f0954a" class="cls-7" d="M278.9,214.4c.4,0,.8-.2,1.1-.4.3-.3.4-.7.4-1.1s-.2-.8-.4-1.1c-.3-.3-.7-.4-1.1-.4s-.8.2-1.1.4c-.3.3-.4.7-.4,1.1s.2.8.4,1.1c.3.3.7.4,1.1.4Z"/>
        <path id="C3_0_bbf7f0954a-19" data-name="C3_0_bbf7f0954a" class="cls-7" d="M276.1,197.9c.4,0,.8-.2,1.1-.4.3-.3.4-.7.4-1.1s-.2-.8-.4-1.1c-.3-.3-.7-.4-1.1-.4s-.8.2-1.1.4c-.3.3-.4.7-.4,1.1s.2.8.4,1.1c.3.3.7.4,1.1.4Z"/>
        <path id="C3_0_bbf7f0954a-20" data-name="C3_0_bbf7f0954a" class="cls-7" d="M278.9,187.4c.4,0,.8-.2,1.1-.4.3-.3.4-.7.4-1.1s-.2-.8-.4-1.1c-.3-.3-.7-.4-1.1-.4s-.8.2-1.1.4c-.3.3-.4.7-.4,1.1s.2.8.4,1.1c.3.3.7.4,1.1.4Z"/>
        <path id="C3_0_bbf7f0954a-21" data-name="C3_0_bbf7f0954a" class="cls-7" d="M278.9,140.3c.4,0,.8-.2,1.1-.4.3-.3.4-.7.4-1.1s-.2-.8-.4-1.1c-.3-.3-.7-.4-1.1-.4s-.8.2-1.1.4c-.3.3-.4.7-.4,1.1s.2.8.4,1.1c.3.3.7.4,1.1.4Z"/>
        <path id="C3_0_bbf7f0954a-22" data-name="C3_0_bbf7f0954a" class="cls-7" d="M276.8,173.4c.4,0,.8-.2,1.1-.4.3-.3.4-.7.4-1.1s-.2-.8-.4-1.1c-.3-.3-.7-.4-1.1-.4s-.8.2-1.1.4c-.3.3-.4.7-.4,1.1s.2.8.4,1.1c.3.3.7.4,1.1.4Z"/>
        <path id="C3_0_bbf7f0954a-23" data-name="C3_0_bbf7f0954a" class="cls-7" d="M277.3,225c.4,0,.8-.2,1.1-.4.3-.3.4-.7.4-1.1s-.2-.8-.4-1.1c-.3-.3-.7-.4-1.1-.4s-.8.2-1.1.4c-.3.3-.4.7-.4,1.1s.2.8.4,1.1c.3.3.7.4,1.1.4Z"/>
        <path id="C3_0_bbf7f0954a-24" data-name="C3_0_bbf7f0954a" class="cls-7" d="M275.8,193.3c.4,0,.8-.2,1.1-.4.3-.3.4-.7.4-1.1s-.2-.8-.4-1.1c-.3-.3-.7-.4-1.1-.4s-.8.2-1.1.4c-.3.3-.4.7-.4,1.1s.2.8.4,1.1c.3.3.7.4,1.1.4Z"/>
        <path id="C3_0_bbf7f0954a-25" data-name="C3_0_bbf7f0954a" class="cls-7" d="M278.9,304.7c.4,0,.8-.2,1.1-.4.3-.3.4-.7.4-1.1s-.2-.8-.4-1.1c-.3-.3-.7-.4-1.1-.4s-.8.2-1.1.4c-.3.3-.4.7-.4,1.1s.2.8.4,1.1c.3.3.7.4,1.1.4Z"/>
      </g>
      <g id="PathCollection_9">
        <path id="C4_0_c99811bf40" class="cls-9" d="M105.9,156.4c.4,0,.8-.2,1.1-.4.3-.3.4-.7.4-1.1s-.2-.8-.4-1.1c-.3-.3-.7-.4-1.1-.4s-.8.2-1.1.4c-.3.3-.4.7-.4,1.1s.2.8.4,1.1c.3.3.7.4,1.1.4Z"/>
        <path id="C4_0_c99811bf40-2" data-name="C4_0_c99811bf40" class="cls-9" d="M109,171.1c.4,0,.8-.2,1.1-.4.3-.3.4-.7.4-1.1s-.2-.8-.4-1.1c-.3-.3-.7-.4-1.1-.4s-.8.2-1.1.4c-.3.3-.4.7-.4,1.1s.2.8.4,1.1c.3.3.7.4,1.1.4Z"/>
        <path id="C4_0_c99811bf40-3" data-name="C4_0_c99811bf40" class="cls-9" d="M109,193.3c.4,0,.8-.2,1.1-.4.3-.3.4-.7.4-1.1s-.2-.8-.4-1.1c-.3-.3-.7-.4-1.1-.4s-.8.2-1.1.4c-.3.3-.4.7-.4,1.1s.2.8.4,1.1c.3.3.7.4,1.1.4Z"/>
        <path id="C4_0_c99811bf40-4" data-name="C4_0_c99811bf40" class="cls-9" d="M109,121.2c.4,0,.8-.2,1.1-.4.3-.3.4-.7.4-1.1s-.2-.8-.4-1.1c-.3-.3-.7-.4-1.1-.4s-.8.2-1.1.4c-.3.3-.4.7-.4,1.1s.2.8.4,1.1c.3.3.7.4,1.1.4Z"/>
        <path id="C4_0_c99811bf40-5" data-name="C4_0_c99811bf40" class="cls-9" d="M106.5,119.4c.4,0,.8-.2,1.1-.4.3-.3.4-.7.4-1.1s-.2-.8-.4-1.1c-.3-.3-.7-.4-1.1-.4s-.8.2-1.1.4c-.3.3-.4.7-.4,1.1s.2.8.4,1.1c.3.3.7.4,1.1.4Z"/>
        <path id="C4_0_c99811bf40-6" data-name="C4_0_c99811bf40" class="cls-9" d="M109,156.7c.4,0,.8-.2,1.1-.4.3-.3.4-.7.4-1.1s-.2-.8-.4-1.1c-.3-.3-.7-.4-1.1-.4s-.8.2-1.1.4c-.3.3-.4.7-.4,1.1s.2.8.4,1.1c.3.3.7.4,1.1.4Z"/>
        <path id="C4_0_c99811bf40-7" data-name="C4_0_c99811bf40" class="cls-9" d="M109,159.8c.4,0,.8-.2,1.1-.4.3-.3.4-.7.4-1.1s-.2-.8-.4-1.1c-.3-.3-.7-.4-1.1-.4s-.8.2-1.1.4c-.3.3-.4.7-.4,1.1s.2.8.4,1.1c.3.3.7.4,1.1.4Z"/>
        <path id="C4_0_c99811bf40-8" data-name="C4_0_c99811bf40" class="cls-9" d="M109,197.5c.4,0,.8-.2,1.1-.4.3-.3.4-.7.4-1.1s-.2-.8-.4-1.1c-.3-.3-.7-.4-1.1-.4s-.8.2-1.1.4c-.3.3-.4.7-.4,1.1s.2.8.4,1.1c.3.3.7.4,1.1.4Z"/>
        <path id="C4_0_c99811bf40-9" data-name="C4_0_c99811bf40" class="cls-9" d="M109,209.7c.4,0,.8-.2,1.1-.4.3-.3.4-.7.4-1.1s-.2-.8-.4-1.1c-.3-.3-.7-.4-1.1-.4s-.8.2-1.1.4c-.3.3-.4.7-.4,1.1s.2.8.4,1.1c.3.3.7.4,1.1.4Z"/>
        <path id="C4_0_c99811bf40-10" data-name="C4_0_c99811bf40" class="cls-9" d="M109,137.2c.4,0,.8-.2,1.1-.4.3-.3.4-.7.4-1.1s-.2-.8-.4-1.1c-.3-.3-.7-.4-1.1-.4s-.8.2-1.1.4c-.3.3-.4.7-.4,1.1s.2.8.4,1.1c.3.3.7.4,1.1.4Z"/>
      </g>
      <g id="PathCollection_10">
        <path id="C5_0_d2a81c8492" class="cls-10" d="M145.5,171.1c.4,0,.8-.2,1.1-.4.3-.3.4-.7.4-1.1s-.2-.8-.4-1.1c-.3-.3-.7-.4-1.1-.4s-.8.2-1.1.4c-.3.3-.4.7-.4,1.1s.2.8.4,1.1c.3.3.7.4,1.1.4Z"/>
        <path id="C5_0_d2a81c8492-2" data-name="C5_0_d2a81c8492" class="cls-10" d="M145.5,156.4c.4,0,.8-.2,1.1-.4.3-.3.4-.7.4-1.1s-.2-.8-.4-1.1c-.3-.3-.7-.4-1.1-.4s-.8.2-1.1.4c-.3.3-.4.7-.4,1.1s.2.8.4,1.1c.3.3.7.4,1.1.4Z"/>
        <path id="C5_0_d2a81c8492-3" data-name="C5_0_d2a81c8492" class="cls-10" d="M145.5,134.2c.4,0,.8-.2,1.1-.4.3-.3.4-.7.4-1.1s-.2-.8-.4-1.1c-.3-.3-.7-.4-1.1-.4s-.8.2-1.1.4c-.3.3-.4.7-.4,1.1s.2.8.4,1.1c.3.3.7.4,1.1.4Z"/>
        <path id="C5_0_d2a81c8492-4" data-name="C5_0_d2a81c8492" class="cls-10" d="M143,206.3c.4,0,.8-.2,1.1-.4.3-.3.4-.7.4-1.1s-.2-.8-.4-1.1c-.3-.3-.7-.4-1.1-.4s-.8.2-1.1.4c-.3.3-.4.7-.4,1.1s.2.8.4,1.1c.3.3.7.4,1.1.4Z"/>
        <path id="C5_0_d2a81c8492-5" data-name="C5_0_d2a81c8492" class="cls-10" d="M145.5,208.1c.4,0,.8-.2,1.1-.4.3-.3.4-.7.4-1.1s-.2-.8-.4-1.1c-.3-.3-.7-.4-1.1-.4s-.8.2-1.1.4c-.3.3-.4.7-.4,1.1s.2.8.4,1.1c.3.3.7.4,1.1.4Z"/>
        <path id="C5_0_d2a81c8492-6" data-name="C5_0_d2a81c8492" class="cls-10" d="M142.4,170.9c.4,0,.8-.2,1.1-.4.3-.3.4-.7.4-1.1s-.2-.8-.4-1.1c-.3-.3-.7-.4-1.1-.4s-.8.2-1.1.4c-.3.3-.4.7-.4,1.1s.2.8.4,1.1c.3.3.7.4,1.1.4Z"/>
        <path id="C5_0_d2a81c8492-7" data-name="C5_0_d2a81c8492" class="cls-10" d="M145.5,167.7c.4,0,.8-.2,1.1-.4.3-.3.4-.7.4-1.1s-.2-.8-.4-1.1c-.3-.3-.7-.4-1.1-.4s-.8.2-1.1.4c-.3.3-.4.7-.4,1.1s.2.8.4,1.1c.3.3.7.4,1.1.4Z"/>
        <path id="C5_0_d2a81c8492-8" data-name="C5_0_d2a81c8492" class="cls-10" d="M145.5,130c.4,0,.8-.2,1.1-.4.3-.3.4-.7.4-1.1s-.2-.8-.4-1.1c-.3-.3-.7-.4-1.1-.4s-.8.2-1.1.4c-.3.3-.4.7-.4,1.1s.2.8.4,1.1c.3.3.7.4,1.1.4Z"/>
        <path id="C5_0_d2a81c8492-9" data-name="C5_0_d2a81c8492" class="cls-10" d="M145.5,117.8c.4,0,.8-.2,1.1-.4.3-.3.4-.7.4-1.1s-.2-.8-.4-1.1c-.3-.3-.7-.4-1.1-.4s-.8.2-1.1.4c-.3.3-.4.7-.4,1.1s.2.8.4,1.1c.3.3.7.4,1.1.4Z"/>
        <path id="C5_0_d2a81c8492-10" data-name="C5_0_d2a81c8492" class="cls-10" d="M145.5,190.4c.4,0,.8-.2,1.1-.4.3-.3.4-.7.4-1.1s-.2-.8-.4-1.1c-.3-.3-.7-.4-1.1-.4s-.8.2-1.1.4c-.3.3-.4.7-.4,1.1s.2.8.4,1.1c.3.3.7.4,1.1.4Z"/>
      </g>
      <g id="PathCollection_11">
        <path id="C6_0_2367ae6531" class="cls-9" d="M261.5,120.3c.4,0,.8-.2,1.1-.4.3-.3.4-.7.4-1.1s-.2-.8-.4-1.1c-.3-.3-.7-.4-1.1-.4s-.8.2-1.1.4c-.3.3-.4.7-.4,1.1s.2.8.4,1.1c.3.3.7.4,1.1.4Z"/>
        <path id="C6_0_2367ae6531-2" data-name="C6_0_2367ae6531" class="cls-9" d="M261.5,138.4c.4,0,.8-.2,1.1-.4.3-.3.4-.7.4-1.1s-.2-.8-.4-1.1c-.3-.3-.7-.4-1.1-.4s-.8.2-1.1.4c-.3.3-.4.7-.4,1.1s.2.8.4,1.1c.3.3.7.4,1.1.4Z"/>
        <path id="C6_0_2367ae6531-3" data-name="C6_0_2367ae6531" class="cls-9" d="M261.5,146c.4,0,.8-.2,1.1-.4.3-.3.4-.7.4-1.1s-.2-.8-.4-1.1c-.3-.3-.7-.4-1.1-.4s-.8.2-1.1.4c-.3.3-.4.7-.4,1.1s.2.8.4,1.1c.3.3.7.4,1.1.4Z"/>
        <path id="C6_0_2367ae6531-4" data-name="C6_0_2367ae6531" class="cls-9" d="M261.5,111.6c.4,0,.8-.2,1.1-.4.3-.3.4-.7.4-1.1s-.2-.8-.4-1.1c-.3-.3-.7-.4-1.1-.4s-.8.2-1.1.4c-.3.3-.4.7-.4,1.1s.2.8.4,1.1c.3.3.7.4,1.1.4Z"/>
        <path id="C6_0_2367ae6531-5" data-name="C6_0_2367ae6531" class="cls-9" d="M261.5,57.4c.4,0,.8-.2,1.1-.4.3-.3.4-.7.4-1.1s-.2-.8-.4-1.1c-.3-.3-.7-.4-1.1-.4s-.8.2-1.1.4c-.3.3-.4.7-.4,1.1s.2.8.4,1.1c.3.3.7.4,1.1.4Z"/>
        <path id="C6_0_2367ae6531-6" data-name="C6_0_2367ae6531" class="cls-9" d="M261.5,90.7c.4,0,.8-.2,1.1-.4.3-.3.4-.7.4-1.1s-.2-.8-.4-1.1c-.3-.3-.7-.4-1.1-.4s-.8.2-1.1.4c-.3.3-.4.7-.4,1.1s.2.8.4,1.1c.3.3.7.4,1.1.4Z"/>
        <path id="C6_0_2367ae6531-7" data-name="C6_0_2367ae6531" class="cls-9" d="M261.5,129.8c.4,0,.8-.2,1.1-.4.3-.3.4-.7.4-1.1s-.2-.8-.4-1.1c-.3-.3-.7-.4-1.1-.4s-.8.2-1.1.4c-.3.3-.4.7-.4,1.1s.2.8.4,1.1c.3.3.7.4,1.1.4Z"/>
        <path id="C6_0_2367ae6531-8" data-name="C6_0_2367ae6531" class="cls-9" d="M261.5,196c.4,0,.8-.2,1.1-.4.3-.3.4-.7.4-1.1s-.2-.8-.4-1.1c-.3-.3-.7-.4-1.1-.4s-.8.2-1.1.4c-.3.3-.4.7-.4,1.1s.2.8.4,1.1c.3.3.7.4,1.1.4Z"/>
        <path id="C6_0_2367ae6531-9" data-name="C6_0_2367ae6531" class="cls-9" d="M258.4,111.2c.4,0,.8-.2,1.1-.4.3-.3.4-.7.4-1.1s-.2-.8-.4-1.1c-.3-.3-.7-.4-1.1-.4s-.8.2-1.1.4c-.3.3-.4.7-.4,1.1s.2.8.4,1.1c.3.3.7.4,1.1.4Z"/>
        <path id="C6_0_2367ae6531-10" data-name="C6_0_2367ae6531" class="cls-9" d="M261.5,154.4c.4,0,.8-.2,1.1-.4.3-.3.4-.7.4-1.1s-.2-.8-.4-1.1c-.3-.3-.7-.4-1.1-.4s-.8.2-1.1.4c-.3.3-.4.7-.4,1.1s.2.8.4,1.1c.3.3.7.4,1.1.4Z"/>
      </g>
      <g id="PathCollection_12">
        <path id="C7_0_fadf123bfc" class="cls-10" d="M297.7,207.3c.4,0,.8-.2,1.1-.4.3-.3.4-.7.4-1.1s-.2-.8-.4-1.1c-.3-.3-.7-.4-1.1-.4s-.8.2-1.1.4c-.3.3-.4.7-.4,1.1s.2.8.4,1.1c.3.3.7.4,1.1.4Z"/>
        <path id="C7_0_fadf123bfc-2" data-name="C7_0_fadf123bfc" class="cls-10" d="M297.7,189.1c.4,0,.8-.2,1.1-.4.3-.3.4-.7.4-1.1s-.2-.8-.4-1.1c-.3-.3-.7-.4-1.1-.4s-.8.2-1.1.4c-.3.3-.4.7-.4,1.1s.2.8.4,1.1c.3.3.7.4,1.1.4Z"/>
        <path id="C7_0_fadf123bfc-3" data-name="C7_0_fadf123bfc" class="cls-10" d="M297.7,181.5c.4,0,.8-.2,1.1-.4.3-.3.4-.7.4-1.1s-.2-.8-.4-1.1c-.3-.3-.7-.4-1.1-.4s-.8.2-1.1.4c-.3.3-.4.7-.4,1.1s.2.8.4,1.1c.3.3.7.4,1.1.4Z"/>
        <path id="C7_0_fadf123bfc-4" data-name="C7_0_fadf123bfc" class="cls-10" d="M294.5,215.9c.4,0,.8-.2,1.1-.4.3-.3.4-.7.4-1.1s-.2-.8-.4-1.1c-.3-.3-.7-.4-1.1-.4s-.8.2-1.1.4c-.3.3-.4.7-.4,1.1s.2.8.4,1.1c.3.3.7.4,1.1.4Z"/>
        <path id="C7_0_fadf123bfc-5" data-name="C7_0_fadf123bfc" class="cls-10" d="M297.7,270.2c.4,0,.8-.2,1.1-.4.3-.3.4-.7.4-1.1s-.2-.8-.4-1.1c-.3-.3-.7-.4-1.1-.4s-.8.2-1.1.4c-.3.3-.4.7-.4,1.1s.2.8.4,1.1c.3.3.7.4,1.1.4Z"/>
        <path id="C7_0_fadf123bfc-6" data-name="C7_0_fadf123bfc" class="cls-10" d="M297.7,236.8c.4,0,.8-.2,1.1-.4.3-.3.4-.7.4-1.1s-.2-.8-.4-1.1c-.3-.3-.7-.4-1.1-.4s-.8.2-1.1.4c-.3.3-.4.7-.4,1.1s.2.8.4,1.1c.3.3.7.4,1.1.4Z"/>
        <path id="C7_0_fadf123bfc-7" data-name="C7_0_fadf123bfc" class="cls-10" d="M297.7,197.7c.4,0,.8-.2,1.1-.4.3-.3.4-.7.4-1.1s-.2-.8-.4-1.1c-.3-.3-.7-.4-1.1-.4s-.8.2-1.1.4c-.3.3-.4.7-.4,1.1s.2.8.4,1.1c.3.3.7.4,1.1.4Z"/>
        <path id="C7_0_fadf123bfc-8" data-name="C7_0_fadf123bfc" class="cls-10" d="M297.7,131.5c.4,0,.8-.2,1.1-.4.3-.3.4-.7.4-1.1s-.2-.8-.4-1.1c-.3-.3-.7-.4-1.1-.4s-.8.2-1.1.4c-.3.3-.4.7-.4,1.1s.2.8.4,1.1c.3.3.7.4,1.1.4Z"/>
        <path id="C7_0_fadf123bfc-9" data-name="C7_0_fadf123bfc" class="cls-10" d="M297.7,216.3c.4,0,.8-.2,1.1-.4.3-.3.4-.7.4-1.1s-.2-.8-.4-1.1c-.3-.3-.7-.4-1.1-.4s-.8.2-1.1.4c-.3.3-.4.7-.4,1.1s.2.8.4,1.1c.3.3.7.4,1.1.4Z"/>
        <path id="C7_0_fadf123bfc-10" data-name="C7_0_fadf123bfc" class="cls-10" d="M297.7,173.1c.4,0,.8-.2,1.1-.4.3-.3.4-.7.4-1.1s-.2-.8-.4-1.1c-.3-.3-.7-.4-1.1-.4s-.8.2-1.1.4c-.3.3-.4.7-.4,1.1s.2.8.4,1.1c.3.3.7.4,1.1.4Z"/>
      </g>
      <g id="legend_2">
        <g id="text_21">
          <g>
            <path id="ArialMT-63" class="cls-13" d="M367.3,163.4h.9c0,.7-.3,1.2-.7,1.5-.4.3-.9.5-1.4.5s-1.3-.2-1.7-.7c-.4-.5-.6-1.1-.6-2s0-1,.3-1.5c.2-.4.5-.7.8-.9.4-.2.8-.3,1.2-.3s1,.1,1.4.4c.4.3.6.7.7,1.2h-.9c0-.2-.2-.5-.4-.7-.2-.2-.5-.3-.8-.3-.4,0-.8.2-1.1.5-.3.3-.4.8-.4,1.5s.1,1.2.4,1.5c.3.3.6.5,1,.5s.6-.1.9-.3c.2-.2.4-.5.4-1Z"/>
            <path id="ArialMT-6f" class="cls-13" d="M368.5,162.7c0-1,.3-1.7.8-2.1.4-.4,1-.6,1.6-.6s1.3.2,1.7.7c.5.5.7,1.1.7,1.9s-.1,1.2-.3,1.6c-.2.4-.5.7-.9.9-.4.2-.8.3-1.3.3-.7,0-1.3-.2-1.8-.7-.4-.5-.7-1.1-.7-2ZM369.4,162.7c0,.7.1,1.2.4,1.5.3.3.7.5,1.1.5s.8-.2,1.1-.5c.3-.3.4-.8.4-1.5s-.1-1.1-.4-1.5-.7-.5-1.1-.5-.8.2-1.1.5c-.3.3-.4.8-.4,1.5Z"/>
            <path id="ArialMT-6e" class="cls-13" d="M374.4,165.3v-5.2h.8v.7c.4-.6.9-.9,1.7-.9s.6,0,.9.2.5.3.6.4.2.4.3.6c0,.2,0,.4,0,.9v3.2h-.9v-3.2c0-.4,0-.6-.1-.8,0-.2-.2-.3-.4-.4-.2-.1-.4-.2-.6-.2-.4,0-.7.1-1,.4s-.4.7-.4,1.4v2.8h-.9Z"/>
            <path id="ArialMT-64" class="cls-13" d="M383.4,165.3v-.7c-.3.5-.8.8-1.5.8s-.8-.1-1.1-.3-.6-.5-.8-1c-.2-.4-.3-.9-.3-1.4s0-1,.3-1.4c.2-.4.4-.7.8-1,.3-.2.7-.3,1.2-.3s.6,0,.8.2c.2.1.4.3.6.5v-2.6h.9v7.2h-.8ZM380.6,162.7c0,.7.1,1.2.4,1.5.3.3.6.5,1,.5s.7-.2,1-.5c.3-.3.4-.8.4-1.4s-.1-1.2-.4-1.6c-.3-.3-.6-.5-1-.5s-.7.2-1,.5c-.3.3-.4.8-.4,1.5Z"/>
            <path id="ArialMT-69" class="cls-13" d="M385.6,159.1v-1h.9v1h-.9ZM385.6,165.3v-5.2h.9v5.2h-.9Z"/>
            <path id="ArialMT-74-3" data-name="ArialMT-74" class="cls-13" d="M389.7,164.5v.8c-.1,0-.3,0-.5,0-.3,0-.6,0-.7-.2-.2-.1-.3-.2-.4-.4,0-.2-.1-.5-.1-1v-3h-.6v-.7h.6v-1.3l.9-.5v1.8h.9v.7h-.9v3c0,.3,0,.4,0,.5,0,0,0,.1.2.2,0,0,.2,0,.3,0s.2,0,.4,0Z"/>
            <path id="ArialMT-69-2" data-name="ArialMT-69" class="cls-13" d="M390.6,159.1v-1h.9v1h-.9ZM390.6,165.3v-5.2h.9v5.2h-.9Z"/>
            <path id="ArialMT-6f-2" data-name="ArialMT-6f" class="cls-13" d="M392.4,162.7c0-1,.3-1.7.8-2.1.4-.4,1-.6,1.6-.6s1.3.2,1.7.7c.5.5.7,1.1.7,1.9s-.1,1.2-.3,1.6c-.2.4-.5.7-.9.9-.4.2-.8.3-1.3.3-.7,0-1.3-.2-1.8-.7-.4-.5-.7-1.1-.7-2ZM393.3,162.7c0,.7.1,1.2.4,1.5.3.3.7.5,1.1.5s.8-.2,1.1-.5c.3-.3.4-.8.4-1.5s-.1-1.1-.4-1.5-.7-.5-1.1-.5-.8.2-1.1.5c-.3.3-.4.8-.4,1.5Z"/>
            <path id="ArialMT-6e-2" data-name="ArialMT-6e" class="cls-13" d="M398.3,165.3v-5.2h.8v.7c.4-.6.9-.9,1.7-.9s.6,0,.9.2.5.3.6.4.2.4.3.6c0,.2,0,.4,0,.9v3.2h-.9v-3.2c0-.4,0-.6-.1-.8,0-.2-.2-.3-.4-.4-.2-.1-.4-.2-.6-.2-.4,0-.7.1-1,.4s-.4.7-.4,1.4v2.8h-.9Z"/>
          </g>
        </g>
        <g id="patch_14">
          <path class="cls-4" d="M348.4,179.4h20v-7h-20v7Z"/>
        </g>
        <g id="text_22">
          <g>
            <path id="ArialMT-53" class="cls-13" d="M376.8,177.1h.9c0,.3.1.6.3.8.2.2.4.4.7.6.3.1.7.2,1.1.2s.7,0,1-.2c.3-.1.5-.3.6-.4.1-.2.2-.4.2-.6s0-.4-.2-.6-.3-.3-.6-.4c-.2,0-.6-.2-1.3-.3-.7-.2-1.1-.3-1.4-.4-.3-.2-.6-.4-.8-.7-.2-.3-.3-.6-.3-.9s.1-.7.3-1c.2-.3.5-.6.9-.7.4-.2.8-.2,1.3-.2s1,0,1.4.3c.4.2.7.4.9.8.2.3.3.7.4,1.1h-.9c0-.4-.2-.7-.5-1-.3-.2-.7-.3-1.2-.3s-1,.1-1.3.3c-.3.2-.4.5-.4.8s0,.5.3.6c.2.2.7.3,1.4.5.8.2,1.3.3,1.6.5.4.2.7.4.9.7.2.3.3.6.3,1s-.1.7-.3,1.1c-.2.3-.5.6-.9.8-.4.2-.9.3-1.4.3s-1.2,0-1.6-.3c-.4-.2-.8-.5-1-.9-.2-.4-.4-.8-.4-1.3Z"/>
            <path id="ArialMT-68" class="cls-13" d="M383.7,179.4v-7.2h.9v2.6c.4-.5.9-.7,1.6-.7s.7,0,1,.2c.3.2.5.4.6.6s.2.7.2,1.2v3.3h-.9v-3.3c0-.4,0-.8-.3-1s-.5-.3-.8-.3-.5,0-.7.2c-.2.1-.4.3-.5.5,0,.2-.1.6-.1,1v2.8h-.9Z"/>
            <path id="ArialMT-69-3" data-name="ArialMT-69" class="cls-13" d="M389.3,173.3v-1h.9v1h-.9ZM389.3,179.4v-5.2h.9v5.2h-.9Z"/>
            <path id="ArialMT-66" class="cls-13" d="M391.7,179.4v-4.5h-.8v-.7h.8v-.6c0-.3,0-.6,0-.8,0-.2.2-.4.4-.6.2-.1.5-.2.9-.2s.5,0,.8,0v.8c-.3,0-.5,0-.7,0-.3,0-.5,0-.6.2-.1.1-.2.3-.2.6v.5h1v.7h-1v4.5h-.9Z"/>
            <path id="ArialMT-74-4" data-name="ArialMT-74" class="cls-13" d="M396.2,178.6v.8c-.1,0-.3,0-.5,0-.3,0-.6,0-.7-.2-.2-.1-.3-.2-.4-.4,0-.2-.1-.5-.1-1v-3h-.6v-.7h.6v-1.3l.9-.5v1.8h.9v.7h-.9v3c0,.3,0,.4,0,.5,0,0,0,.1.2.2,0,0,.2,0,.3,0s.2,0,.4,0Z"/>
            <path id="ArialMT-65-3" data-name="ArialMT-65" class="cls-13" d="M400.6,177.8h.9c-.1.6-.4,1.1-.8,1.3-.4.3-.9.4-1.5.4s-1.4-.2-1.8-.7c-.4-.5-.7-1.1-.7-2s.2-1.6.7-2c.5-.5,1-.7,1.7-.7s1.3.2,1.7.7.7,1.1.7,2,0,.1,0,.2h-3.9c0,.6.2,1,.5,1.3.3.3.7.5,1.1.5s.6,0,.8-.3c.2-.2.4-.4.5-.8ZM397.7,176.3h2.9c0-.4-.1-.8-.3-1-.3-.3-.6-.5-1.1-.5s-.7.1-1,.4-.4.6-.5,1.1Z"/>
            <path id="ArialMT-64-2" data-name="ArialMT-64" class="cls-13" d="M406,179.4v-.7c-.3.5-.8.8-1.5.8s-.8-.1-1.1-.3-.6-.5-.8-1c-.2-.4-.3-.9-.3-1.4s0-1,.3-1.4c.2-.4.4-.7.8-1,.3-.2.7-.3,1.2-.3s.6,0,.8.2c.2.1.4.3.6.5v-2.6h.9v7.2h-.8ZM403.2,176.8c0,.7.1,1.2.4,1.5.3.3.6.5,1,.5s.7-.2,1-.5c.3-.3.4-.8.4-1.4s-.1-1.2-.4-1.6c-.3-.3-.6-.5-1-.5s-.7.2-1,.5c-.3.3-.4.8-.4,1.5Z"/>
          </g>
        </g>
        <g id="patch_15">
          <path class="cls-5" d="M348.4,193.7h20v-7h-20v7Z"/>
        </g>
        <g id="text_23">
          <g>
            <path id="ArialMT-53-2" data-name="ArialMT-53" class="cls-13" d="M376.8,191.4h.9c0,.3.1.6.3.8.2.2.4.4.7.6.3.1.7.2,1.1.2s.7,0,1-.2c.3-.1.5-.3.6-.4.1-.2.2-.4.2-.6s0-.4-.2-.6-.3-.3-.6-.4c-.2,0-.6-.2-1.3-.3-.7-.2-1.1-.3-1.4-.4-.3-.2-.6-.4-.8-.7-.2-.3-.3-.6-.3-.9s.1-.7.3-1c.2-.3.5-.6.9-.7.4-.2.8-.2,1.3-.2s1,0,1.4.3c.4.2.7.4.9.8.2.3.3.7.4,1.1h-.9c0-.4-.2-.7-.5-1-.3-.2-.7-.3-1.2-.3s-1,.1-1.3.3c-.3.2-.4.5-.4.8s0,.5.3.6c.2.2.7.3,1.4.5.8.2,1.3.3,1.6.5.4.2.7.4.9.7.2.3.3.6.3,1s-.1.7-.3,1.1c-.2.3-.5.6-.9.8-.4.2-.9.3-1.4.3s-1.2,0-1.6-.3c-.4-.2-.8-.5-1-.9-.2-.4-.4-.8-.4-1.3Z"/>
            <path id="ArialMT-77" class="cls-13" d="M384.7,193.7l-1.6-5.2h.9l.8,3,.3,1.1c0,0,.1-.4.3-1.1l.8-3h.9l.8,3,.3,1,.3-1,.9-3h.9l-1.6,5.2h-.9l-.8-3.1-.2-.9-1.1,4h-.9Z"/>
            <path id="ArialMT-61-2" data-name="ArialMT-61" class="cls-13" d="M394.3,193.1c-.3.3-.6.5-.9.6-.3.1-.6.2-1,.2-.6,0-1-.1-1.3-.4s-.5-.6-.5-1.1,0-.5.2-.7c.1-.2.3-.4.5-.5s.4-.2.6-.3c.2,0,.4,0,.8-.1.7,0,1.2-.2,1.6-.3,0-.1,0-.2,0-.2,0-.4,0-.6-.3-.8-.2-.2-.6-.3-1-.3s-.7,0-.9.2-.3.4-.4.8h-.9c0-.5.2-.8.4-1,.2-.2.4-.4.8-.5.3-.1.7-.2,1.2-.2s.8,0,1.1.2c.3.1.5.2.6.4.1.2.2.4.3.6,0,.1,0,.4,0,.8v1.2c0,.8,0,1.3,0,1.6,0,.2.1.4.2.6h-.9c0-.2-.1-.4-.2-.6ZM394.2,191.1c-.3.1-.8.2-1.4.3-.4,0-.6.1-.8.2-.1,0-.3.2-.3.3,0,.1-.1.3-.1.4,0,.2,0,.4.3.6.2.2.4.2.8.2s.6,0,.9-.2c.3-.1.5-.4.6-.6,0-.2.1-.5.1-.9v-.3Z"/>
            <path id="ArialMT-70" class="cls-13" d="M396.5,195.7v-7.2h.8v.7c.2-.3.4-.5.6-.6.2-.1.5-.2.9-.2s.8.1,1.2.3.6.6.8,1c.2.4.3.9.3,1.4s0,1-.3,1.4c-.2.4-.5.8-.8,1-.4.2-.7.3-1.1.3s-.6,0-.8-.2c-.2-.1-.4-.3-.6-.5v2.5h-.9ZM397.3,191.1c0,.7.1,1.2.4,1.5.3.3.6.5,1,.5s.7-.2,1-.5c.3-.3.4-.8.4-1.5s-.1-1.2-.4-1.5c-.3-.3-.6-.5-1-.5s-.7.2-1,.5c-.3.4-.4.9-.4,1.5Z"/>
            <path id="ArialMT-70-2" data-name="ArialMT-70" class="cls-13" d="M402,195.7v-7.2h.8v.7c.2-.3.4-.5.6-.6.2-.1.5-.2.9-.2s.8.1,1.2.3.6.6.8,1c.2.4.3.9.3,1.4s0,1-.3,1.4c-.2.4-.5.8-.8,1-.4.2-.7.3-1.1.3s-.6,0-.8-.2c-.2-.1-.4-.3-.6-.5v2.5h-.9ZM402.8,191.1c0,.7.1,1.2.4,1.5.3.3.6.5,1,.5s.7-.2,1-.5c.3-.3.4-.8.4-1.5s-.1-1.2-.4-1.5c-.3-.3-.6-.5-1-.5s-.7.2-1,.5c-.3.4-.4.9-.4,1.5Z"/>
            <path id="ArialMT-65-4" data-name="ArialMT-65" class="cls-13" d="M411.2,192h.9c-.1.6-.4,1.1-.8,1.3-.4.3-.9.4-1.5.4s-1.4-.2-1.8-.7c-.4-.5-.7-1.1-.7-2s.2-1.6.7-2c.5-.5,1-.7,1.7-.7s1.3.2,1.7.7.7,1.1.7,2,0,.1,0,.2h-3.9c0,.6.2,1,.5,1.3.3.3.7.5,1.1.5s.6,0,.8-.3c.2-.2.4-.4.5-.8ZM408.3,190.6h2.9c0-.4-.1-.8-.3-1-.3-.3-.6-.5-1.1-.5s-.7.1-1,.4-.4.6-.5,1.1Z"/>
            <path id="ArialMT-64-3" data-name="ArialMT-64" class="cls-13" d="M416.5,193.7v-.7c-.3.5-.8.8-1.5.8s-.8-.1-1.1-.3-.6-.5-.8-1c-.2-.4-.3-.9-.3-1.4s0-1,.3-1.4c.2-.4.4-.7.8-1,.3-.2.7-.3,1.2-.3s.6,0,.8.2c.2.1.4.3.6.5v-2.6h.9v7.2h-.8ZM413.8,191.1c0,.7.1,1.2.4,1.5.3.3.6.5,1,.5s.7-.2,1-.5c.3-.3.4-.8.4-1.4s-.1-1.2-.4-1.6c-.3-.3-.6-.5-1-.5s-.7.2-1,.5c-.3.3-.4.8-.4,1.5Z"/>
          </g>
        </g>
      </g>
    </g>
  </g>
</svg>