<?xml version="1.0" encoding="utf-8" standalone="no"?>
<!DOCTYPE svg PUBLIC "-//W3C//DTD SVG 1.1//EN"
  "http://www.w3.org/Graphics/SVG/1.1/DTD/svg11.dtd">
<svg xmlns:xlink="http://www.w3.org/1999/xlink" width="353.1925pt" height="354.212604pt" viewBox="0 0 353.1925 354.212604" xmlns="http://www.w3.org/2000/svg" version="1.1">
 <metadata>
  <rdf:RDF xmlns:dc="http://purl.org/dc/elements/1.1/" xmlns:cc="http://creativecommons.org/ns#" xmlns:rdf="http://www.w3.org/1999/02/22-rdf-syntax-ns#">
   <cc:Work>
    <dc:type rdf:resource="http://purl.org/dc/dcmitype/StillImage"/>
    <dc:date>2024-05-20T12:54:00.725464</dc:date>
    <dc:format>image/svg+xml</dc:format>
    <dc:creator>
     <cc:Agent>
      <dc:title>Matplotlib v3.7.2, https://matplotlib.org/</dc:title>
     </cc:Agent>
    </dc:creator>
   </cc:Work>
  </rdf:RDF>
 </metadata>
 <defs>
  <style type="text/css">*{stroke-linejoin: round; stroke-linecap: butt}</style>
 </defs>
 <g id="figure_1">
  <g id="patch_1">
   <path d="M 0 354.212604 
L 353.1925 354.212604 
L 353.1925 0 
L 0 0 
z
" style="fill: #ffffff"/>
  </g>
  <g id="axes_1">
   <g id="patch_2">
    <path d="M 47.325 317.721979 
L 345.9925 317.721979 
L 345.9925 8.970512 
L 47.325 8.970512 
z
" style="fill: #eaeaf2"/>
   </g>
   <g id="matplotlib.axis_1">
    <g id="xtick_1">
     <g id="text_1">
      <!-- chromatic -->
      <g style="fill: #262626" transform="translate(100.320781 331.879791) scale(0.1 -0.1)">
       <defs>
        <path id="ArialMT-63" d="M 2588 1216 
L 3141 1144 
Q 3050 572 2676 248 
Q 2303 -75 1759 -75 
Q 1078 -75 664 370 
Q 250 816 250 1647 
Q 250 2184 428 2587 
Q 606 2991 970 3192 
Q 1334 3394 1763 3394 
Q 2303 3394 2647 3120 
Q 2991 2847 3088 2344 
L 2541 2259 
Q 2463 2594 2264 2762 
Q 2066 2931 1784 2931 
Q 1359 2931 1093 2626 
Q 828 2322 828 1663 
Q 828 994 1084 691 
Q 1341 388 1753 388 
Q 2084 388 2306 591 
Q 2528 794 2588 1216 
z
" transform="scale(0.015625)"/>
        <path id="ArialMT-68" d="M 422 0 
L 422 4581 
L 984 4581 
L 984 2938 
Q 1378 3394 1978 3394 
Q 2347 3394 2619 3248 
Q 2891 3103 3008 2847 
Q 3125 2591 3125 2103 
L 3125 0 
L 2563 0 
L 2563 2103 
Q 2563 2525 2380 2717 
Q 2197 2909 1863 2909 
Q 1613 2909 1392 2779 
Q 1172 2650 1078 2428 
Q 984 2206 984 1816 
L 984 0 
L 422 0 
z
" transform="scale(0.015625)"/>
        <path id="ArialMT-72" d="M 416 0 
L 416 3319 
L 922 3319 
L 922 2816 
Q 1116 3169 1280 3281 
Q 1444 3394 1641 3394 
Q 1925 3394 2219 3213 
L 2025 2691 
Q 1819 2813 1613 2813 
Q 1428 2813 1281 2702 
Q 1134 2591 1072 2394 
Q 978 2094 978 1738 
L 978 0 
L 416 0 
z
" transform="scale(0.015625)"/>
        <path id="ArialMT-6f" d="M 213 1659 
Q 213 2581 725 3025 
Q 1153 3394 1769 3394 
Q 2453 3394 2887 2945 
Q 3322 2497 3322 1706 
Q 3322 1066 3130 698 
Q 2938 331 2570 128 
Q 2203 -75 1769 -75 
Q 1072 -75 642 372 
Q 213 819 213 1659 
z
M 791 1659 
Q 791 1022 1069 705 
Q 1347 388 1769 388 
Q 2188 388 2466 706 
Q 2744 1025 2744 1678 
Q 2744 2294 2464 2611 
Q 2184 2928 1769 2928 
Q 1347 2928 1069 2612 
Q 791 2297 791 1659 
z
" transform="scale(0.015625)"/>
        <path id="ArialMT-6d" d="M 422 0 
L 422 3319 
L 925 3319 
L 925 2853 
Q 1081 3097 1340 3245 
Q 1600 3394 1931 3394 
Q 2300 3394 2536 3241 
Q 2772 3088 2869 2813 
Q 3263 3394 3894 3394 
Q 4388 3394 4653 3120 
Q 4919 2847 4919 2278 
L 4919 0 
L 4359 0 
L 4359 2091 
Q 4359 2428 4304 2576 
Q 4250 2725 4106 2815 
Q 3963 2906 3769 2906 
Q 3419 2906 3187 2673 
Q 2956 2441 2956 1928 
L 2956 0 
L 2394 0 
L 2394 2156 
Q 2394 2531 2256 2718 
Q 2119 2906 1806 2906 
Q 1569 2906 1367 2781 
Q 1166 2656 1075 2415 
Q 984 2175 984 1722 
L 984 0 
L 422 0 
z
" transform="scale(0.015625)"/>
        <path id="ArialMT-61" d="M 2588 409 
Q 2275 144 1986 34 
Q 1697 -75 1366 -75 
Q 819 -75 525 192 
Q 231 459 231 875 
Q 231 1119 342 1320 
Q 453 1522 633 1644 
Q 813 1766 1038 1828 
Q 1203 1872 1538 1913 
Q 2219 1994 2541 2106 
Q 2544 2222 2544 2253 
Q 2544 2597 2384 2738 
Q 2169 2928 1744 2928 
Q 1347 2928 1158 2789 
Q 969 2650 878 2297 
L 328 2372 
Q 403 2725 575 2942 
Q 747 3159 1072 3276 
Q 1397 3394 1825 3394 
Q 2250 3394 2515 3294 
Q 2781 3194 2906 3042 
Q 3031 2891 3081 2659 
Q 3109 2516 3109 2141 
L 3109 1391 
Q 3109 606 3145 398 
Q 3181 191 3288 0 
L 2700 0 
Q 2613 175 2588 409 
z
M 2541 1666 
Q 2234 1541 1622 1453 
Q 1275 1403 1131 1340 
Q 988 1278 909 1158 
Q 831 1038 831 891 
Q 831 666 1001 516 
Q 1172 366 1500 366 
Q 1825 366 2078 508 
Q 2331 650 2450 897 
Q 2541 1088 2541 1459 
L 2541 1666 
z
" transform="scale(0.015625)"/>
        <path id="ArialMT-74" d="M 1650 503 
L 1731 6 
Q 1494 -44 1306 -44 
Q 1000 -44 831 53 
Q 663 150 594 308 
Q 525 466 525 972 
L 525 2881 
L 113 2881 
L 113 3319 
L 525 3319 
L 525 4141 
L 1084 4478 
L 1084 3319 
L 1650 3319 
L 1650 2881 
L 1084 2881 
L 1084 941 
Q 1084 700 1114 631 
Q 1144 563 1211 522 
Q 1278 481 1403 481 
Q 1497 481 1650 503 
z
" transform="scale(0.015625)"/>
        <path id="ArialMT-69" d="M 425 3934 
L 425 4581 
L 988 4581 
L 988 3934 
L 425 3934 
z
M 425 0 
L 425 3319 
L 988 3319 
L 988 0 
L 425 0 
z
" transform="scale(0.015625)"/>
       </defs>
       <use xlink:href="#ArialMT-63"/>
       <use xlink:href="#ArialMT-68" x="50"/>
       <use xlink:href="#ArialMT-72" x="105.615234"/>
       <use xlink:href="#ArialMT-6f" x="138.916016"/>
       <use xlink:href="#ArialMT-6d" x="194.53125"/>
       <use xlink:href="#ArialMT-61" x="277.832031"/>
       <use xlink:href="#ArialMT-74" x="333.447266"/>
       <use xlink:href="#ArialMT-69" x="361.230469"/>
       <use xlink:href="#ArialMT-63" x="383.447266"/>
      </g>
     </g>
    </g>
    <g id="xtick_2">
     <g id="text_2">
      <!-- diatonic -->
      <g style="fill: #262626" transform="translate(254.092813 331.879791) scale(0.1 -0.1)">
       <defs>
        <path id="ArialMT-64" d="M 2575 0 
L 2575 419 
Q 2259 -75 1647 -75 
Q 1250 -75 917 144 
Q 584 363 401 755 
Q 219 1147 219 1656 
Q 219 2153 384 2558 
Q 550 2963 881 3178 
Q 1213 3394 1622 3394 
Q 1922 3394 2156 3267 
Q 2391 3141 2538 2938 
L 2538 4581 
L 3097 4581 
L 3097 0 
L 2575 0 
z
M 797 1656 
Q 797 1019 1065 703 
Q 1334 388 1700 388 
Q 2069 388 2326 689 
Q 2584 991 2584 1609 
Q 2584 2291 2321 2609 
Q 2059 2928 1675 2928 
Q 1300 2928 1048 2622 
Q 797 2316 797 1656 
z
" transform="scale(0.015625)"/>
        <path id="ArialMT-6e" d="M 422 0 
L 422 3319 
L 928 3319 
L 928 2847 
Q 1294 3394 1984 3394 
Q 2284 3394 2536 3286 
Q 2788 3178 2913 3003 
Q 3038 2828 3088 2588 
Q 3119 2431 3119 2041 
L 3119 0 
L 2556 0 
L 2556 2019 
Q 2556 2363 2490 2533 
Q 2425 2703 2258 2804 
Q 2091 2906 1866 2906 
Q 1506 2906 1245 2678 
Q 984 2450 984 1813 
L 984 0 
L 422 0 
z
" transform="scale(0.015625)"/>
       </defs>
       <use xlink:href="#ArialMT-64"/>
       <use xlink:href="#ArialMT-69" x="55.615234"/>
       <use xlink:href="#ArialMT-61" x="77.832031"/>
       <use xlink:href="#ArialMT-74" x="133.447266"/>
       <use xlink:href="#ArialMT-6f" x="161.230469"/>
       <use xlink:href="#ArialMT-6e" x="216.845703"/>
       <use xlink:href="#ArialMT-69" x="272.460938"/>
       <use xlink:href="#ArialMT-63" x="294.677734"/>
      </g>
     </g>
    </g>
    <g id="text_3">
     <!-- set -->
     <g style="fill: #262626" transform="translate(189.989219 345.025104) scale(0.1 -0.1)">
      <defs>
       <path id="ArialMT-73" d="M 197 991 
L 753 1078 
Q 800 744 1014 566 
Q 1228 388 1613 388 
Q 2000 388 2187 545 
Q 2375 703 2375 916 
Q 2375 1106 2209 1216 
Q 2094 1291 1634 1406 
Q 1016 1563 777 1677 
Q 538 1791 414 1992 
Q 291 2194 291 2438 
Q 291 2659 392 2848 
Q 494 3038 669 3163 
Q 800 3259 1026 3326 
Q 1253 3394 1513 3394 
Q 1903 3394 2198 3281 
Q 2494 3169 2634 2976 
Q 2775 2784 2828 2463 
L 2278 2388 
Q 2241 2644 2061 2787 
Q 1881 2931 1553 2931 
Q 1166 2931 1000 2803 
Q 834 2675 834 2503 
Q 834 2394 903 2306 
Q 972 2216 1119 2156 
Q 1203 2125 1616 2013 
Q 2213 1853 2448 1751 
Q 2684 1650 2818 1456 
Q 2953 1263 2953 975 
Q 2953 694 2789 445 
Q 2625 197 2315 61 
Q 2006 -75 1616 -75 
Q 969 -75 630 194 
Q 291 463 197 991 
z
" transform="scale(0.015625)"/>
       <path id="ArialMT-65" d="M 2694 1069 
L 3275 997 
Q 3138 488 2766 206 
Q 2394 -75 1816 -75 
Q 1088 -75 661 373 
Q 234 822 234 1631 
Q 234 2469 665 2931 
Q 1097 3394 1784 3394 
Q 2450 3394 2872 2941 
Q 3294 2488 3294 1666 
Q 3294 1616 3291 1516 
L 816 1516 
Q 847 969 1125 678 
Q 1403 388 1819 388 
Q 2128 388 2347 550 
Q 2566 713 2694 1069 
z
M 847 1978 
L 2700 1978 
Q 2663 2397 2488 2606 
Q 2219 2931 1791 2931 
Q 1403 2931 1139 2672 
Q 875 2413 847 1978 
z
" transform="scale(0.015625)"/>
      </defs>
      <use xlink:href="#ArialMT-73"/>
      <use xlink:href="#ArialMT-65" x="50"/>
      <use xlink:href="#ArialMT-74" x="105.615234"/>
     </g>
    </g>
   </g>
   <g id="matplotlib.axis_2">
    <g id="ytick_1">
     <g id="line2d_1">
      <path d="M 47.325 291.971465 
L 345.9925 291.971465 
" clip-path="url(#p2d41bc5ec5)" style="fill: none; stroke: #ffffff; stroke-width: 0.8; stroke-linecap: round"/>
     </g>
     <g id="text_4">
      <!-- −0.2 -->
      <g style="fill: #262626" transform="translate(20.584375 295.550371) scale(0.1 -0.1)">
       <defs>
        <path id="ArialMT-2212" d="M 3381 1997 
L 356 1997 
L 356 2522 
L 3381 2522 
L 3381 1997 
z
" transform="scale(0.015625)"/>
        <path id="ArialMT-30" d="M 266 2259 
Q 266 3072 433 3567 
Q 600 4063 929 4331 
Q 1259 4600 1759 4600 
Q 2128 4600 2406 4451 
Q 2684 4303 2865 4023 
Q 3047 3744 3150 3342 
Q 3253 2941 3253 2259 
Q 3253 1453 3087 958 
Q 2922 463 2592 192 
Q 2263 -78 1759 -78 
Q 1097 -78 719 397 
Q 266 969 266 2259 
z
M 844 2259 
Q 844 1131 1108 757 
Q 1372 384 1759 384 
Q 2147 384 2411 759 
Q 2675 1134 2675 2259 
Q 2675 3391 2411 3762 
Q 2147 4134 1753 4134 
Q 1366 4134 1134 3806 
Q 844 3388 844 2259 
z
" transform="scale(0.015625)"/>
        <path id="ArialMT-2e" d="M 581 0 
L 581 641 
L 1222 641 
L 1222 0 
L 581 0 
z
" transform="scale(0.015625)"/>
        <path id="ArialMT-32" d="M 3222 541 
L 3222 0 
L 194 0 
Q 188 203 259 391 
Q 375 700 629 1000 
Q 884 1300 1366 1694 
Q 2113 2306 2375 2664 
Q 2638 3022 2638 3341 
Q 2638 3675 2398 3904 
Q 2159 4134 1775 4134 
Q 1369 4134 1125 3890 
Q 881 3647 878 3216 
L 300 3275 
Q 359 3922 746 4261 
Q 1134 4600 1788 4600 
Q 2447 4600 2831 4234 
Q 3216 3869 3216 3328 
Q 3216 3053 3103 2787 
Q 2991 2522 2730 2228 
Q 2469 1934 1863 1422 
Q 1356 997 1212 845 
Q 1069 694 975 541 
L 3222 541 
z
" transform="scale(0.015625)"/>
       </defs>
       <use xlink:href="#ArialMT-2212"/>
       <use xlink:href="#ArialMT-30" x="58.398438"/>
       <use xlink:href="#ArialMT-2e" x="114.013672"/>
       <use xlink:href="#ArialMT-32" x="141.796875"/>
      </g>
     </g>
    </g>
    <g id="ytick_2">
     <g id="line2d_2">
      <path d="M 47.325 256.822395 
L 345.9925 256.822395 
" clip-path="url(#p2d41bc5ec5)" style="fill: none; stroke: #ffffff; stroke-width: 0.8; stroke-linecap: round"/>
     </g>
     <g id="text_5">
      <!-- −0.1 -->
      <g style="fill: #262626" transform="translate(20.584375 260.401301) scale(0.1 -0.1)">
       <defs>
        <path id="ArialMT-31" d="M 2384 0 
L 1822 0 
L 1822 3584 
Q 1619 3391 1289 3197 
Q 959 3003 697 2906 
L 697 3450 
Q 1169 3672 1522 3987 
Q 1875 4303 2022 4600 
L 2384 4600 
L 2384 0 
z
" transform="scale(0.015625)"/>
       </defs>
       <use xlink:href="#ArialMT-2212"/>
       <use xlink:href="#ArialMT-30" x="58.398438"/>
       <use xlink:href="#ArialMT-2e" x="114.013672"/>
       <use xlink:href="#ArialMT-31" x="141.796875"/>
      </g>
     </g>
    </g>
    <g id="ytick_3">
     <g id="line2d_3">
      <path d="M 47.325 221.673325 
L 345.9925 221.673325 
" clip-path="url(#p2d41bc5ec5)" style="fill: none; stroke: #ffffff; stroke-width: 0.8; stroke-linecap: round"/>
     </g>
     <g id="text_6">
      <!-- 0.0 -->
      <g style="fill: #262626" transform="translate(26.425 225.252231) scale(0.1 -0.1)">
       <use xlink:href="#ArialMT-30"/>
       <use xlink:href="#ArialMT-2e" x="55.615234"/>
       <use xlink:href="#ArialMT-30" x="83.398438"/>
      </g>
     </g>
    </g>
    <g id="ytick_4">
     <g id="line2d_4">
      <path d="M 47.325 186.524255 
L 345.9925 186.524255 
" clip-path="url(#p2d41bc5ec5)" style="fill: none; stroke: #ffffff; stroke-width: 0.8; stroke-linecap: round"/>
     </g>
     <g id="text_7">
      <!-- 0.1 -->
      <g style="fill: #262626" transform="translate(26.425 190.103162) scale(0.1 -0.1)">
       <use xlink:href="#ArialMT-30"/>
       <use xlink:href="#ArialMT-2e" x="55.615234"/>
       <use xlink:href="#ArialMT-31" x="83.398438"/>
      </g>
     </g>
    </g>
    <g id="ytick_5">
     <g id="line2d_5">
      <path d="M 47.325 151.375185 
L 345.9925 151.375185 
" clip-path="url(#p2d41bc5ec5)" style="fill: none; stroke: #ffffff; stroke-width: 0.8; stroke-linecap: round"/>
     </g>
     <g id="text_8">
      <!-- 0.2 -->
      <g style="fill: #262626" transform="translate(26.425 154.954092) scale(0.1 -0.1)">
       <use xlink:href="#ArialMT-30"/>
       <use xlink:href="#ArialMT-2e" x="55.615234"/>
       <use xlink:href="#ArialMT-32" x="83.398438"/>
      </g>
     </g>
    </g>
    <g id="ytick_6">
     <g id="line2d_6">
      <path d="M 47.325 116.226116 
L 345.9925 116.226116 
" clip-path="url(#p2d41bc5ec5)" style="fill: none; stroke: #ffffff; stroke-width: 0.8; stroke-linecap: round"/>
     </g>
     <g id="text_9">
      <!-- 0.3 -->
      <g style="fill: #262626" transform="translate(26.425 119.805022) scale(0.1 -0.1)">
       <defs>
        <path id="ArialMT-33" d="M 269 1209 
L 831 1284 
Q 928 806 1161 595 
Q 1394 384 1728 384 
Q 2125 384 2398 659 
Q 2672 934 2672 1341 
Q 2672 1728 2419 1979 
Q 2166 2231 1775 2231 
Q 1616 2231 1378 2169 
L 1441 2663 
Q 1497 2656 1531 2656 
Q 1891 2656 2178 2843 
Q 2466 3031 2466 3422 
Q 2466 3731 2256 3934 
Q 2047 4138 1716 4138 
Q 1388 4138 1169 3931 
Q 950 3725 888 3313 
L 325 3413 
Q 428 3978 793 4289 
Q 1159 4600 1703 4600 
Q 2078 4600 2393 4439 
Q 2709 4278 2876 4000 
Q 3044 3722 3044 3409 
Q 3044 3113 2884 2869 
Q 2725 2625 2413 2481 
Q 2819 2388 3044 2092 
Q 3269 1797 3269 1353 
Q 3269 753 2831 336 
Q 2394 -81 1725 -81 
Q 1122 -81 723 278 
Q 325 638 269 1209 
z
" transform="scale(0.015625)"/>
       </defs>
       <use xlink:href="#ArialMT-30"/>
       <use xlink:href="#ArialMT-2e" x="55.615234"/>
       <use xlink:href="#ArialMT-33" x="83.398438"/>
      </g>
     </g>
    </g>
    <g id="ytick_7">
     <g id="line2d_7">
      <path d="M 47.325 81.077046 
L 345.9925 81.077046 
" clip-path="url(#p2d41bc5ec5)" style="fill: none; stroke: #ffffff; stroke-width: 0.8; stroke-linecap: round"/>
     </g>
     <g id="text_10">
      <!-- 0.4 -->
      <g style="fill: #262626" transform="translate(26.425 84.655952) scale(0.1 -0.1)">
       <defs>
        <path id="ArialMT-34" d="M 2069 0 
L 2069 1097 
L 81 1097 
L 81 1613 
L 2172 4581 
L 2631 4581 
L 2631 1613 
L 3250 1613 
L 3250 1097 
L 2631 1097 
L 2631 0 
L 2069 0 
z
M 2069 1613 
L 2069 3678 
L 634 1613 
L 2069 1613 
z
" transform="scale(0.015625)"/>
       </defs>
       <use xlink:href="#ArialMT-30"/>
       <use xlink:href="#ArialMT-2e" x="55.615234"/>
       <use xlink:href="#ArialMT-34" x="83.398438"/>
      </g>
     </g>
    </g>
    <g id="ytick_8">
     <g id="line2d_8">
      <path d="M 47.325 45.927976 
L 345.9925 45.927976 
" clip-path="url(#p2d41bc5ec5)" style="fill: none; stroke: #ffffff; stroke-width: 0.8; stroke-linecap: round"/>
     </g>
     <g id="text_11">
      <!-- 0.5 -->
      <g style="fill: #262626" transform="translate(26.425 49.506882) scale(0.1 -0.1)">
       <defs>
        <path id="ArialMT-35" d="M 266 1200 
L 856 1250 
Q 922 819 1161 601 
Q 1400 384 1738 384 
Q 2144 384 2425 690 
Q 2706 997 2706 1503 
Q 2706 1984 2436 2262 
Q 2166 2541 1728 2541 
Q 1456 2541 1237 2417 
Q 1019 2294 894 2097 
L 366 2166 
L 809 4519 
L 3088 4519 
L 3088 3981 
L 1259 3981 
L 1013 2750 
Q 1425 3038 1878 3038 
Q 2478 3038 2890 2622 
Q 3303 2206 3303 1553 
Q 3303 931 2941 478 
Q 2500 -78 1738 -78 
Q 1113 -78 717 272 
Q 322 622 266 1200 
z
" transform="scale(0.015625)"/>
       </defs>
       <use xlink:href="#ArialMT-30"/>
       <use xlink:href="#ArialMT-2e" x="55.615234"/>
       <use xlink:href="#ArialMT-35" x="83.398438"/>
      </g>
     </g>
    </g>
    <g id="ytick_9">
     <g id="line2d_9">
      <path d="M 47.325 10.778906 
L 345.9925 10.778906 
" clip-path="url(#p2d41bc5ec5)" style="fill: none; stroke: #ffffff; stroke-width: 0.8; stroke-linecap: round"/>
     </g>
     <g id="text_12">
      <!-- 0.6 -->
      <g style="fill: #262626" transform="translate(26.425 14.357812) scale(0.1 -0.1)">
       <defs>
        <path id="ArialMT-36" d="M 3184 3459 
L 2625 3416 
Q 2550 3747 2413 3897 
Q 2184 4138 1850 4138 
Q 1581 4138 1378 3988 
Q 1113 3794 959 3422 
Q 806 3050 800 2363 
Q 1003 2672 1297 2822 
Q 1591 2972 1913 2972 
Q 2475 2972 2870 2558 
Q 3266 2144 3266 1488 
Q 3266 1056 3080 686 
Q 2894 316 2569 119 
Q 2244 -78 1831 -78 
Q 1128 -78 684 439 
Q 241 956 241 2144 
Q 241 3472 731 4075 
Q 1159 4600 1884 4600 
Q 2425 4600 2770 4297 
Q 3116 3994 3184 3459 
z
M 888 1484 
Q 888 1194 1011 928 
Q 1134 663 1356 523 
Q 1578 384 1822 384 
Q 2178 384 2434 671 
Q 2691 959 2691 1453 
Q 2691 1928 2437 2201 
Q 2184 2475 1800 2475 
Q 1419 2475 1153 2201 
Q 888 1928 888 1484 
z
" transform="scale(0.015625)"/>
       </defs>
       <use xlink:href="#ArialMT-30"/>
       <use xlink:href="#ArialMT-2e" x="55.615234"/>
       <use xlink:href="#ArialMT-36" x="83.398438"/>
      </g>
     </g>
    </g>
    <g id="text_13">
     <!-- rate shifted - rate swapped (NN) -->
     <g style="fill: #262626" transform="translate(14.479687 234.481402) rotate(-90) scale(0.1 -0.1)">
      <defs>
       <path id="ArialMT-20" transform="scale(0.015625)"/>
       <path id="ArialMT-66" d="M 556 0 
L 556 2881 
L 59 2881 
L 59 3319 
L 556 3319 
L 556 3672 
Q 556 4006 616 4169 
Q 697 4388 901 4523 
Q 1106 4659 1475 4659 
Q 1713 4659 2000 4603 
L 1916 4113 
Q 1741 4144 1584 4144 
Q 1328 4144 1222 4034 
Q 1116 3925 1116 3625 
L 1116 3319 
L 1763 3319 
L 1763 2881 
L 1116 2881 
L 1116 0 
L 556 0 
z
" transform="scale(0.015625)"/>
       <path id="ArialMT-2d" d="M 203 1375 
L 203 1941 
L 1931 1941 
L 1931 1375 
L 203 1375 
z
" transform="scale(0.015625)"/>
       <path id="ArialMT-77" d="M 1034 0 
L 19 3319 
L 600 3319 
L 1128 1403 
L 1325 691 
Q 1338 744 1497 1375 
L 2025 3319 
L 2603 3319 
L 3100 1394 
L 3266 759 
L 3456 1400 
L 4025 3319 
L 4572 3319 
L 3534 0 
L 2950 0 
L 2422 1988 
L 2294 2553 
L 1622 0 
L 1034 0 
z
" transform="scale(0.015625)"/>
       <path id="ArialMT-70" d="M 422 -1272 
L 422 3319 
L 934 3319 
L 934 2888 
Q 1116 3141 1344 3267 
Q 1572 3394 1897 3394 
Q 2322 3394 2647 3175 
Q 2972 2956 3137 2557 
Q 3303 2159 3303 1684 
Q 3303 1175 3120 767 
Q 2938 359 2589 142 
Q 2241 -75 1856 -75 
Q 1575 -75 1351 44 
Q 1128 163 984 344 
L 984 -1272 
L 422 -1272 
z
M 931 1641 
Q 931 1000 1190 694 
Q 1450 388 1819 388 
Q 2194 388 2461 705 
Q 2728 1022 2728 1688 
Q 2728 2322 2467 2637 
Q 2206 2953 1844 2953 
Q 1484 2953 1207 2617 
Q 931 2281 931 1641 
z
" transform="scale(0.015625)"/>
       <path id="ArialMT-28" d="M 1497 -1347 
Q 1031 -759 709 28 
Q 388 816 388 1659 
Q 388 2403 628 3084 
Q 909 3875 1497 4659 
L 1900 4659 
Q 1522 4009 1400 3731 
Q 1209 3300 1100 2831 
Q 966 2247 966 1656 
Q 966 153 1900 -1347 
L 1497 -1347 
z
" transform="scale(0.015625)"/>
       <path id="ArialMT-4e" d="M 488 0 
L 488 4581 
L 1109 4581 
L 3516 984 
L 3516 4581 
L 4097 4581 
L 4097 0 
L 3475 0 
L 1069 3600 
L 1069 0 
L 488 0 
z
" transform="scale(0.015625)"/>
       <path id="ArialMT-29" d="M 791 -1347 
L 388 -1347 
Q 1322 153 1322 1656 
Q 1322 2244 1188 2822 
Q 1081 3291 891 3722 
Q 769 4003 388 4659 
L 791 4659 
Q 1378 3875 1659 3084 
Q 1900 2403 1900 1659 
Q 1900 816 1576 28 
Q 1253 -759 791 -1347 
z
" transform="scale(0.015625)"/>
      </defs>
      <use xlink:href="#ArialMT-72"/>
      <use xlink:href="#ArialMT-61" x="33.300781"/>
      <use xlink:href="#ArialMT-74" x="88.916016"/>
      <use xlink:href="#ArialMT-65" x="116.699219"/>
      <use xlink:href="#ArialMT-20" x="172.314453"/>
      <use xlink:href="#ArialMT-73" x="200.097656"/>
      <use xlink:href="#ArialMT-68" x="250.097656"/>
      <use xlink:href="#ArialMT-69" x="305.712891"/>
      <use xlink:href="#ArialMT-66" x="327.929688"/>
      <use xlink:href="#ArialMT-74" x="355.712891"/>
      <use xlink:href="#ArialMT-65" x="383.496094"/>
      <use xlink:href="#ArialMT-64" x="439.111328"/>
      <use xlink:href="#ArialMT-20" x="494.726562"/>
      <use xlink:href="#ArialMT-2d" x="522.509766"/>
      <use xlink:href="#ArialMT-20" x="555.810547"/>
      <use xlink:href="#ArialMT-72" x="583.59375"/>
      <use xlink:href="#ArialMT-61" x="616.894531"/>
      <use xlink:href="#ArialMT-74" x="672.509766"/>
      <use xlink:href="#ArialMT-65" x="700.292969"/>
      <use xlink:href="#ArialMT-20" x="755.908203"/>
      <use xlink:href="#ArialMT-73" x="783.691406"/>
      <use xlink:href="#ArialMT-77" x="833.691406"/>
      <use xlink:href="#ArialMT-61" x="905.908203"/>
      <use xlink:href="#ArialMT-70" x="961.523438"/>
      <use xlink:href="#ArialMT-70" x="1017.138672"/>
      <use xlink:href="#ArialMT-65" x="1072.753906"/>
      <use xlink:href="#ArialMT-64" x="1128.369141"/>
      <use xlink:href="#ArialMT-20" x="1183.984375"/>
      <use xlink:href="#ArialMT-28" x="1211.767578"/>
      <use xlink:href="#ArialMT-4e" x="1245.068359"/>
      <use xlink:href="#ArialMT-4e" x="1317.285156"/>
      <use xlink:href="#ArialMT-29" x="1389.501953"/>
     </g>
    </g>
   </g>
   <g id="patch_3">
    <path d="M 84.658438 254.531375 
L 159.325312 254.531375 
L 159.325312 234.278509 
L 84.658438 234.278509 
L 84.658438 254.531375 
z
" clip-path="url(#p2d41bc5ec5)" style="fill: #3274a1; stroke: #3f3f3f; stroke-width: 1.5; stroke-linejoin: miter"/>
   </g>
   <g id="patch_4">
    <path d="M 233.992188 221.673325 
L 308.659063 221.673325 
L 308.659063 109.845771 
L 233.992188 109.845771 
L 233.992188 221.673325 
z
" clip-path="url(#p2d41bc5ec5)" style="fill: #e1812c; stroke: #3f3f3f; stroke-width: 1.5; stroke-linejoin: miter"/>
   </g>
   <g id="line2d_10">
    <path d="M 121.991875 254.531375 
L 121.991875 263.852209 
" clip-path="url(#p2d41bc5ec5)" style="fill: none; stroke: #3f3f3f; stroke-width: 1.5; stroke-linecap: round"/>
   </g>
   <g id="line2d_11">
    <path d="M 121.991875 234.278509 
L 121.991875 233.793694 
" clip-path="url(#p2d41bc5ec5)" style="fill: none; stroke: #3f3f3f; stroke-width: 1.5; stroke-linecap: round"/>
   </g>
   <g id="line2d_12">
    <path d="M 103.325156 263.852209 
L 140.658594 263.852209 
" clip-path="url(#p2d41bc5ec5)" style="fill: none; stroke: #3f3f3f; stroke-width: 1.5; stroke-linecap: round"/>
   </g>
   <g id="line2d_13">
    <path d="M 103.325156 233.793694 
L 140.658594 233.793694 
" clip-path="url(#p2d41bc5ec5)" style="fill: none; stroke: #3f3f3f; stroke-width: 1.5; stroke-linecap: round"/>
   </g>
   <g id="line2d_14">
    <defs>
     <path id="mab82dc8988" d="M 0 0.353553 
L 0.212132 0 
L 0 -0.353553 
L -0.212132 0 
z
" style="stroke: #3f3f3f; stroke-linejoin: miter"/>
    </defs>
    <g clip-path="url(#p2d41bc5ec5)">
     <use xlink:href="#mab82dc8988" x="121.991875" y="303.687821" style="fill: #3f3f3f; stroke: #3f3f3f; stroke-linejoin: miter"/>
     <use xlink:href="#mab82dc8988" x="121.991875" y="173.429504" style="fill: #3f3f3f; stroke: #3f3f3f; stroke-linejoin: miter"/>
     <use xlink:href="#mab82dc8988" x="121.991875" y="187.213453" style="fill: #3f3f3f; stroke: #3f3f3f; stroke-linejoin: miter"/>
     <use xlink:href="#mab82dc8988" x="121.991875" y="168.0561" style="fill: #3f3f3f; stroke: #3f3f3f; stroke-linejoin: miter"/>
     <use xlink:href="#mab82dc8988" x="121.991875" y="151.375185" style="fill: #3f3f3f; stroke: #3f3f3f; stroke-linejoin: miter"/>
    </g>
   </g>
   <g id="line2d_15">
    <path d="M 271.325625 221.673325 
L 271.325625 299.120428 
" clip-path="url(#p2d41bc5ec5)" style="fill: none; stroke: #3f3f3f; stroke-width: 1.5; stroke-linecap: round"/>
   </g>
   <g id="line2d_16">
    <path d="M 271.325625 109.845771 
L 271.325625 23.00467 
" clip-path="url(#p2d41bc5ec5)" style="fill: none; stroke: #3f3f3f; stroke-width: 1.5; stroke-linecap: round"/>
   </g>
   <g id="line2d_17">
    <path d="M 252.658906 299.120428 
L 289.992344 299.120428 
" clip-path="url(#p2d41bc5ec5)" style="fill: none; stroke: #3f3f3f; stroke-width: 1.5; stroke-linecap: round"/>
   </g>
   <g id="line2d_18">
    <path d="M 252.658906 23.00467 
L 289.992344 23.00467 
" clip-path="url(#p2d41bc5ec5)" style="fill: none; stroke: #3f3f3f; stroke-width: 1.5; stroke-linecap: round"/>
   </g>
   <g id="line2d_19"/>
   <g id="line2d_20">
    <path d="M 84.658438 242.975792 
L 159.325312 242.975792 
" clip-path="url(#p2d41bc5ec5)" style="fill: none; stroke: #3f3f3f; stroke-width: 1.5; stroke-linecap: round"/>
   </g>
   <g id="line2d_21">
    <path d="M 233.992188 172.109674 
L 308.659063 172.109674 
" clip-path="url(#p2d41bc5ec5)" style="fill: none; stroke: #3f3f3f; stroke-width: 1.5; stroke-linecap: round"/>
   </g>
   <g id="patch_5">
    <path d="M 47.325 317.721979 
L 47.325 8.970512 
" style="fill: none; stroke: #ffffff; stroke-width: 0.8; stroke-linejoin: miter; stroke-linecap: square"/>
   </g>
   <g id="patch_6">
    <path d="M 47.325 317.721979 
L 345.9925 317.721979 
" style="fill: none; stroke: #ffffff; stroke-width: 0.8; stroke-linejoin: miter; stroke-linecap: square"/>
   </g>
   <g id="PathCollection_1">
    <defs>
     <path id="C0_0_728b80f507" d="M 0 3 
C 0.795609 3 1.55874 2.683901 2.12132 2.12132 
C 2.683901 1.55874 3 0.795609 3 -0 
C 3 -0.795609 2.683901 -1.55874 2.12132 -2.12132 
C 1.55874 -2.683901 0.795609 -3 0 -3 
C -0.795609 -3 -1.55874 -2.683901 -2.12132 -2.12132 
C -2.683901 -1.55874 -3 -0.795609 -3 0 
C -3 0.795609 -2.683901 1.55874 -2.12132 2.12132 
C -1.55874 2.683901 -0.795609 3 0 3 
z
"/>
    </defs>
    <g clip-path="url(#p2d41bc5ec5)">
     <use xlink:href="#C0_0_728b80f507" x="87.089093" y="245.106038" style="fill: #262626"/>
    </g>
    <g clip-path="url(#p2d41bc5ec5)">
     <use xlink:href="#C0_0_728b80f507" x="86.309509" y="253.627025" style="fill: #262626"/>
    </g>
    <g clip-path="url(#p2d41bc5ec5)">
     <use xlink:href="#C0_0_728b80f507" x="92.125125" y="240.845545" style="fill: #262626"/>
    </g>
    <g clip-path="url(#p2d41bc5ec5)">
     <use xlink:href="#C0_0_728b80f507" x="95.912419" y="254.832825" style="fill: #262626"/>
    </g>
    <g clip-path="url(#p2d41bc5ec5)">
     <use xlink:href="#C0_0_728b80f507" x="92.125125" y="173.429504" style="fill: #262626"/>
    </g>
    <g clip-path="url(#p2d41bc5ec5)">
     <use xlink:href="#C0_0_728b80f507" x="90.584281" y="258.034432" style="fill: #262626"/>
    </g>
    <g clip-path="url(#p2d41bc5ec5)">
     <use xlink:href="#C0_0_728b80f507" x="101.123275" y="251.460672" style="fill: #262626"/>
    </g>
    <g clip-path="url(#p2d41bc5ec5)">
     <use xlink:href="#C0_0_728b80f507" x="86.059772" y="262.229944" style="fill: #262626"/>
    </g>
    <g clip-path="url(#p2d41bc5ec5)">
     <use xlink:href="#C0_0_728b80f507" x="102.622962" y="235.732953" style="fill: #262626"/>
    </g>
    <g clip-path="url(#p2d41bc5ec5)">
     <use xlink:href="#C0_0_728b80f507" x="92.125125" y="187.213453" style="fill: #262626"/>
    </g>
    <g clip-path="url(#p2d41bc5ec5)">
     <use xlink:href="#C0_0_728b80f507" x="92.125125" y="233.793694" style="fill: #262626"/>
    </g>
    <g clip-path="url(#p2d41bc5ec5)">
     <use xlink:href="#C0_0_728b80f507" x="89.322091" y="168.0561" style="fill: #262626"/>
    </g>
    <g clip-path="url(#p2d41bc5ec5)">
     <use xlink:href="#C0_0_728b80f507" x="92.125125" y="263.852209" style="fill: #262626"/>
    </g>
    <g clip-path="url(#p2d41bc5ec5)">
     <use xlink:href="#C0_0_728b80f507" x="92.125125" y="248.711071" style="fill: #262626"/>
    </g>
    <g clip-path="url(#p2d41bc5ec5)">
     <use xlink:href="#C0_0_728b80f507" x="98.385403" y="240.172835" style="fill: #262626"/>
    </g>
    <g clip-path="url(#p2d41bc5ec5)">
     <use xlink:href="#C0_0_728b80f507" x="84.721812" y="239.545733" style="fill: #262626"/>
    </g>
    <g clip-path="url(#p2d41bc5ec5)">
     <use xlink:href="#C0_0_728b80f507" x="92.125125" y="303.687821" style="fill: #262626"/>
    </g>
    <g clip-path="url(#p2d41bc5ec5)">
     <use xlink:href="#C0_0_728b80f507" x="92.125125" y="151.375185" style="fill: #262626"/>
    </g>
   </g>
   <g id="PathCollection_2">
    <path d="M 0 357.212604 
C 0.795609 357.212604 1.55874 356.896505 2.12132 356.333924 
C 2.683901 355.771343 3 355.008213 3 354.212604 
C 3 353.416995 2.683901 352.653864 2.12132 352.091283 
C 1.55874 351.528703 0.795609 351.212604 0 351.212604 
C -0.795609 351.212604 -1.55874 351.528703 -2.12132 352.091283 
C -2.683901 352.653864 -3 353.416995 -3 354.212604 
C -3 355.008213 -2.683901 355.771343 -2.12132 356.333924 
C -1.55874 356.896505 -0.795609 357.212604 0 357.212604 
" clip-path="url(#p2d41bc5ec5)" style="fill: none"/>
   </g>
   <g id="PathCollection_3">
    <path d="M 0 357.212604 
C 0.795609 357.212604 1.55874 356.896505 2.12132 356.333924 
C 2.683901 355.771343 3 355.008213 3 354.212604 
C 3 353.416995 2.683901 352.653864 2.12132 352.091283 
C 1.55874 351.528703 0.795609 351.212604 0 351.212604 
C -0.795609 351.212604 -1.55874 351.528703 -2.12132 352.091283 
C -2.683901 352.653864 -3 353.416995 -3 354.212604 
C -3 355.008213 -2.683901 355.771343 -2.12132 356.333924 
C -1.55874 356.896505 -0.795609 357.212604 0 357.212604 
" clip-path="url(#p2d41bc5ec5)" style="fill: none"/>
   </g>
   <g id="PathCollection_4">
    <defs>
     <path id="C1_0_9dddcb2f5f" d="M 0 3 
C 0.795609 3 1.55874 2.683901 2.12132 2.12132 
C 2.683901 1.55874 3 0.795609 3 -0 
C 3 -0.795609 2.683901 -1.55874 2.12132 -2.12132 
C 1.55874 -2.683901 0.795609 -3 0 -3 
C -0.795609 -3 -1.55874 -2.683901 -2.12132 -2.12132 
C -2.683901 -1.55874 -3 -0.795609 -3 0 
C -3 0.795609 -2.683901 1.55874 -2.12132 2.12132 
C -1.55874 2.683901 -0.795609 3 0 3 
z
"/>
    </defs>
    <g clip-path="url(#p2d41bc5ec5)">
     <use xlink:href="#C1_0_9dddcb2f5f" x="307.492375" y="221.673325"/>
    </g>
    <g clip-path="url(#p2d41bc5ec5)">
     <use xlink:href="#C1_0_9dddcb2f5f" x="301.192375" y="299.120428"/>
    </g>
    <g clip-path="url(#p2d41bc5ec5)">
     <use xlink:href="#C1_0_9dddcb2f5f" x="301.192375" y="75.93328"/>
    </g>
    <g clip-path="url(#p2d41bc5ec5)">
     <use xlink:href="#C1_0_9dddcb2f5f" x="301.192375" y="275.748817"/>
    </g>
    <g clip-path="url(#p2d41bc5ec5)">
     <use xlink:href="#C1_0_9dddcb2f5f" x="296.199421" y="108.931026"/>
    </g>
    <g clip-path="url(#p2d41bc5ec5)">
     <use xlink:href="#C1_0_9dddcb2f5f" x="303.604745" y="69.360689"/>
    </g>
    <g clip-path="url(#p2d41bc5ec5)">
     <use xlink:href="#C1_0_9dddcb2f5f" x="301.192375" y="112.590005"/>
    </g>
    <g clip-path="url(#p2d41bc5ec5)">
     <use xlink:href="#C1_0_9dddcb2f5f" x="301.192375" y="189.719625"/>
    </g>
    <g clip-path="url(#p2d41bc5ec5)">
     <use xlink:href="#C1_0_9dddcb2f5f" x="297.554839" y="71.034454"/>
    </g>
    <g clip-path="url(#p2d41bc5ec5)">
     <use xlink:href="#C1_0_9dddcb2f5f" x="301.192375" y="200.997402"/>
    </g>
    <g clip-path="url(#p2d41bc5ec5)">
     <use xlink:href="#C1_0_9dddcb2f5f" x="296.917603" y="185.312218"/>
    </g>
    <g clip-path="url(#p2d41bc5ec5)">
     <use xlink:href="#C1_0_9dddcb2f5f" x="301.192375" y="151.375185"/>
    </g>
    <g clip-path="url(#p2d41bc5ec5)">
     <use xlink:href="#C1_0_9dddcb2f5f" x="301.192375" y="123.25593"/>
    </g>
    <g clip-path="url(#p2d41bc5ec5)">
     <use xlink:href="#C1_0_9dddcb2f5f" x="301.192375" y="23.00467"/>
    </g>
    <g clip-path="url(#p2d41bc5ec5)">
     <use xlink:href="#C1_0_9dddcb2f5f" x="301.192375" y="221.673325"/>
    </g>
    <g clip-path="url(#p2d41bc5ec5)">
     <use xlink:href="#C1_0_9dddcb2f5f" x="301.192375" y="158.907129"/>
    </g>
    <g clip-path="url(#p2d41bc5ec5)">
     <use xlink:href="#C1_0_9dddcb2f5f" x="294.892375" y="221.673325"/>
    </g>
    <g clip-path="url(#p2d41bc5ec5)">
     <use xlink:href="#C1_0_9dddcb2f5f" x="301.192375" y="239.24786"/>
    </g>
   </g>
  </g>
 </g>
 <defs>
  <clipPath id="p2d41bc5ec5">
   <rect x="47.325" y="8.970512" width="298.6675" height="308.751467"/>
  </clipPath>
 </defs>
</svg>
