<?xml version="1.0" encoding="utf-8" standalone="no"?>
<!DOCTYPE svg PUBLIC "-//W3C//DTD SVG 1.1//EN"
  "http://www.w3.org/Graphics/SVG/1.1/DTD/svg11.dtd">
<svg xmlns:xlink="http://www.w3.org/1999/xlink" width="429.272522pt" height="351.99625pt" viewBox="0 0 429.272522 351.99625" xmlns="http://www.w3.org/2000/svg" version="1.1">
 <metadata>
  <rdf:RDF xmlns:dc="http://purl.org/dc/elements/1.1/" xmlns:cc="http://creativecommons.org/ns#" xmlns:rdf="http://www.w3.org/1999/02/22-rdf-syntax-ns#">
   <cc:Work>
    <dc:type rdf:resource="http://purl.org/dc/dcmitype/StillImage"/>
    <dc:date>2023-08-14T13:04:09.867894</dc:date>
    <dc:format>image/svg+xml</dc:format>
    <dc:creator>
     <cc:Agent>
      <dc:title>Matplotlib v3.7.1, https://matplotlib.org/</dc:title>
     </cc:Agent>
    </dc:creator>
   </cc:Work>
  </rdf:RDF>
 </metadata>
 <defs>
  <style type="text/css">*{stroke-linejoin: round; stroke-linecap: butt}</style>
 </defs>
 <g id="figure_1">
  <g id="patch_1">
   <path d="M 0 351.99625 
L 429.272522 351.99625 
L 429.272522 0 
L 0 0 
z
" style="fill: #ffffff"/>
  </g>
  <g id="axes_1">
   <g id="patch_2">
    <path d="M 43.78125 314.44 
L 340.662622 314.44 
L 340.662622 7.2 
L 43.78125 7.2 
z
" style="fill: #ffffff"/>
   </g>
   <g id="patch_3">
    <path d="M 81.262523 183.917635 
L 117.630491 183.917635 
L 117.630491 169.68084 
L 81.262523 169.68084 
L 81.262523 183.917635 
z
" clip-path="url(#p079fc10f3b)" style="fill: #3274a1; stroke: #3f3f3f; stroke-width: 1.5; stroke-linejoin: miter"/>
   </g>
   <g id="patch_4">
    <path d="M 118.372695 151.95916 
L 154.740663 151.95916 
L 154.740663 137.722365 
L 118.372695 137.722365 
L 118.372695 151.95916 
z
" clip-path="url(#p079fc10f3b)" style="fill: #e1812c; stroke: #3f3f3f; stroke-width: 1.5; stroke-linejoin: miter"/>
   </g>
   <g id="patch_5">
    <path d="M 229.70321 160.82 
L 266.071178 160.82 
L 266.071178 82.210587 
L 229.70321 82.210587 
L 229.70321 160.82 
z
" clip-path="url(#p079fc10f3b)" style="fill: #3274a1; stroke: #3f3f3f; stroke-width: 1.5; stroke-linejoin: miter"/>
   </g>
   <g id="patch_6">
    <path d="M 266.813381 239.429413 
L 303.181349 239.429413 
L 303.181349 160.82 
L 266.813381 160.82 
L 266.813381 239.429413 
z
" clip-path="url(#p079fc10f3b)" style="fill: #e1812c; stroke: #3f3f3f; stroke-width: 1.5; stroke-linejoin: miter"/>
   </g>
   <g id="patch_7">
    <path d="M 118.001593 407.901119 
L 118.001593 407.901119 
L 118.001593 407.901119 
L 118.001593 407.901119 
z
" clip-path="url(#p079fc10f3b)" style="fill: #3274a1; stroke: #3f3f3f; stroke-width: 0.75; stroke-linejoin: miter"/>
   </g>
   <g id="patch_8">
    <path d="M 118.001593 407.901119 
L 118.001593 407.901119 
L 118.001593 407.901119 
L 118.001593 407.901119 
z
" clip-path="url(#p079fc10f3b)" style="fill: #e1812c; stroke: #3f3f3f; stroke-width: 0.75; stroke-linejoin: miter"/>
   </g>
   <g id="PathCollection_1"/>
   <g id="PathCollection_2"/>
   <g id="matplotlib.axis_1">
    <g id="xtick_1">
     <g id="line2d_1">
      <defs>
       <path id="mdf722b120c" d="M 0 0 
L 0 3.5 
" style="stroke: #000000; stroke-width: 0.8"/>
      </defs>
      <g>
       <use xlink:href="#mdf722b120c" x="118.001593" y="314.44" style="stroke: #000000; stroke-width: 0.8"/>
      </g>
     </g>
     <g id="text_1">
      <!-- chromatic -->
      <g transform="translate(93.048468 329.038437) scale(0.1 -0.1)">
       <defs>
        <path id="DejaVuSans-63" d="M 3122 3366 
L 3122 2828 
Q 2878 2963 2633 3030 
Q 2388 3097 2138 3097 
Q 1578 3097 1268 2742 
Q 959 2388 959 1747 
Q 959 1106 1268 751 
Q 1578 397 2138 397 
Q 2388 397 2633 464 
Q 2878 531 3122 666 
L 3122 134 
Q 2881 22 2623 -34 
Q 2366 -91 2075 -91 
Q 1284 -91 818 406 
Q 353 903 353 1747 
Q 353 2603 823 3093 
Q 1294 3584 2113 3584 
Q 2378 3584 2631 3529 
Q 2884 3475 3122 3366 
z
" transform="scale(0.015625)"/>
        <path id="DejaVuSans-68" d="M 3513 2113 
L 3513 0 
L 2938 0 
L 2938 2094 
Q 2938 2591 2744 2837 
Q 2550 3084 2163 3084 
Q 1697 3084 1428 2787 
Q 1159 2491 1159 1978 
L 1159 0 
L 581 0 
L 581 4863 
L 1159 4863 
L 1159 2956 
Q 1366 3272 1645 3428 
Q 1925 3584 2291 3584 
Q 2894 3584 3203 3211 
Q 3513 2838 3513 2113 
z
" transform="scale(0.015625)"/>
        <path id="DejaVuSans-72" d="M 2631 2963 
Q 2534 3019 2420 3045 
Q 2306 3072 2169 3072 
Q 1681 3072 1420 2755 
Q 1159 2438 1159 1844 
L 1159 0 
L 581 0 
L 581 3500 
L 1159 3500 
L 1159 2956 
Q 1341 3275 1631 3429 
Q 1922 3584 2338 3584 
Q 2397 3584 2469 3576 
Q 2541 3569 2628 3553 
L 2631 2963 
z
" transform="scale(0.015625)"/>
        <path id="DejaVuSans-6f" d="M 1959 3097 
Q 1497 3097 1228 2736 
Q 959 2375 959 1747 
Q 959 1119 1226 758 
Q 1494 397 1959 397 
Q 2419 397 2687 759 
Q 2956 1122 2956 1747 
Q 2956 2369 2687 2733 
Q 2419 3097 1959 3097 
z
M 1959 3584 
Q 2709 3584 3137 3096 
Q 3566 2609 3566 1747 
Q 3566 888 3137 398 
Q 2709 -91 1959 -91 
Q 1206 -91 779 398 
Q 353 888 353 1747 
Q 353 2609 779 3096 
Q 1206 3584 1959 3584 
z
" transform="scale(0.015625)"/>
        <path id="DejaVuSans-6d" d="M 3328 2828 
Q 3544 3216 3844 3400 
Q 4144 3584 4550 3584 
Q 5097 3584 5394 3201 
Q 5691 2819 5691 2113 
L 5691 0 
L 5113 0 
L 5113 2094 
Q 5113 2597 4934 2840 
Q 4756 3084 4391 3084 
Q 3944 3084 3684 2787 
Q 3425 2491 3425 1978 
L 3425 0 
L 2847 0 
L 2847 2094 
Q 2847 2600 2669 2842 
Q 2491 3084 2119 3084 
Q 1678 3084 1418 2786 
Q 1159 2488 1159 1978 
L 1159 0 
L 581 0 
L 581 3500 
L 1159 3500 
L 1159 2956 
Q 1356 3278 1631 3431 
Q 1906 3584 2284 3584 
Q 2666 3584 2933 3390 
Q 3200 3197 3328 2828 
z
" transform="scale(0.015625)"/>
        <path id="DejaVuSans-61" d="M 2194 1759 
Q 1497 1759 1228 1600 
Q 959 1441 959 1056 
Q 959 750 1161 570 
Q 1363 391 1709 391 
Q 2188 391 2477 730 
Q 2766 1069 2766 1631 
L 2766 1759 
L 2194 1759 
z
M 3341 1997 
L 3341 0 
L 2766 0 
L 2766 531 
Q 2569 213 2275 61 
Q 1981 -91 1556 -91 
Q 1019 -91 701 211 
Q 384 513 384 1019 
Q 384 1609 779 1909 
Q 1175 2209 1959 2209 
L 2766 2209 
L 2766 2266 
Q 2766 2663 2505 2880 
Q 2244 3097 1772 3097 
Q 1472 3097 1187 3025 
Q 903 2953 641 2809 
L 641 3341 
Q 956 3463 1253 3523 
Q 1550 3584 1831 3584 
Q 2591 3584 2966 3190 
Q 3341 2797 3341 1997 
z
" transform="scale(0.015625)"/>
        <path id="DejaVuSans-74" d="M 1172 4494 
L 1172 3500 
L 2356 3500 
L 2356 3053 
L 1172 3053 
L 1172 1153 
Q 1172 725 1289 603 
Q 1406 481 1766 481 
L 2356 481 
L 2356 0 
L 1766 0 
Q 1100 0 847 248 
Q 594 497 594 1153 
L 594 3053 
L 172 3053 
L 172 3500 
L 594 3500 
L 594 4494 
L 1172 4494 
z
" transform="scale(0.015625)"/>
        <path id="DejaVuSans-69" d="M 603 3500 
L 1178 3500 
L 1178 0 
L 603 0 
L 603 3500 
z
M 603 4863 
L 1178 4863 
L 1178 4134 
L 603 4134 
L 603 4863 
z
" transform="scale(0.015625)"/>
       </defs>
       <use xlink:href="#DejaVuSans-63"/>
       <use xlink:href="#DejaVuSans-68" x="54.980469"/>
       <use xlink:href="#DejaVuSans-72" x="118.359375"/>
       <use xlink:href="#DejaVuSans-6f" x="157.222656"/>
       <use xlink:href="#DejaVuSans-6d" x="218.404297"/>
       <use xlink:href="#DejaVuSans-61" x="315.816406"/>
       <use xlink:href="#DejaVuSans-74" x="377.095703"/>
       <use xlink:href="#DejaVuSans-69" x="416.304688"/>
       <use xlink:href="#DejaVuSans-63" x="444.087891"/>
      </g>
     </g>
    </g>
    <g id="xtick_2">
     <g id="line2d_2">
      <g>
       <use xlink:href="#mdf722b120c" x="266.442279" y="314.44" style="stroke: #000000; stroke-width: 0.8"/>
      </g>
     </g>
     <g id="text_2">
      <!-- diatonic -->
      <g transform="translate(246.488373 329.038437) scale(0.1 -0.1)">
       <defs>
        <path id="DejaVuSans-64" d="M 2906 2969 
L 2906 4863 
L 3481 4863 
L 3481 0 
L 2906 0 
L 2906 525 
Q 2725 213 2448 61 
Q 2172 -91 1784 -91 
Q 1150 -91 751 415 
Q 353 922 353 1747 
Q 353 2572 751 3078 
Q 1150 3584 1784 3584 
Q 2172 3584 2448 3432 
Q 2725 3281 2906 2969 
z
M 947 1747 
Q 947 1113 1208 752 
Q 1469 391 1925 391 
Q 2381 391 2643 752 
Q 2906 1113 2906 1747 
Q 2906 2381 2643 2742 
Q 2381 3103 1925 3103 
Q 1469 3103 1208 2742 
Q 947 2381 947 1747 
z
" transform="scale(0.015625)"/>
        <path id="DejaVuSans-6e" d="M 3513 2113 
L 3513 0 
L 2938 0 
L 2938 2094 
Q 2938 2591 2744 2837 
Q 2550 3084 2163 3084 
Q 1697 3084 1428 2787 
Q 1159 2491 1159 1978 
L 1159 0 
L 581 0 
L 581 3500 
L 1159 3500 
L 1159 2956 
Q 1366 3272 1645 3428 
Q 1925 3584 2291 3584 
Q 2894 3584 3203 3211 
Q 3513 2838 3513 2113 
z
" transform="scale(0.015625)"/>
       </defs>
       <use xlink:href="#DejaVuSans-64"/>
       <use xlink:href="#DejaVuSans-69" x="63.476562"/>
       <use xlink:href="#DejaVuSans-61" x="91.259766"/>
       <use xlink:href="#DejaVuSans-74" x="152.539062"/>
       <use xlink:href="#DejaVuSans-6f" x="191.748047"/>
       <use xlink:href="#DejaVuSans-6e" x="252.929688"/>
       <use xlink:href="#DejaVuSans-69" x="316.308594"/>
       <use xlink:href="#DejaVuSans-63" x="344.091797"/>
      </g>
     </g>
    </g>
    <g id="text_3">
     <!-- set -->
     <g transform="translate(184.58053 342.716562) scale(0.1 -0.1)">
      <defs>
       <path id="DejaVuSans-73" d="M 2834 3397 
L 2834 2853 
Q 2591 2978 2328 3040 
Q 2066 3103 1784 3103 
Q 1356 3103 1142 2972 
Q 928 2841 928 2578 
Q 928 2378 1081 2264 
Q 1234 2150 1697 2047 
L 1894 2003 
Q 2506 1872 2764 1633 
Q 3022 1394 3022 966 
Q 3022 478 2636 193 
Q 2250 -91 1575 -91 
Q 1294 -91 989 -36 
Q 684 19 347 128 
L 347 722 
Q 666 556 975 473 
Q 1284 391 1588 391 
Q 1994 391 2212 530 
Q 2431 669 2431 922 
Q 2431 1156 2273 1281 
Q 2116 1406 1581 1522 
L 1381 1569 
Q 847 1681 609 1914 
Q 372 2147 372 2553 
Q 372 3047 722 3315 
Q 1072 3584 1716 3584 
Q 2034 3584 2315 3537 
Q 2597 3491 2834 3397 
z
" transform="scale(0.015625)"/>
       <path id="DejaVuSans-65" d="M 3597 1894 
L 3597 1613 
L 953 1613 
Q 991 1019 1311 708 
Q 1631 397 2203 397 
Q 2534 397 2845 478 
Q 3156 559 3463 722 
L 3463 178 
Q 3153 47 2828 -22 
Q 2503 -91 2169 -91 
Q 1331 -91 842 396 
Q 353 884 353 1716 
Q 353 2575 817 3079 
Q 1281 3584 2069 3584 
Q 2775 3584 3186 3129 
Q 3597 2675 3597 1894 
z
M 3022 2063 
Q 3016 2534 2758 2815 
Q 2500 3097 2075 3097 
Q 1594 3097 1305 2825 
Q 1016 2553 972 2059 
L 3022 2063 
z
" transform="scale(0.015625)"/>
      </defs>
      <use xlink:href="#DejaVuSans-73"/>
      <use xlink:href="#DejaVuSans-65" x="52.099609"/>
      <use xlink:href="#DejaVuSans-74" x="113.623047"/>
     </g>
    </g>
   </g>
   <g id="matplotlib.axis_2">
    <g id="ytick_1">
     <g id="line2d_3">
      <defs>
       <path id="mdc231ac6c4" d="M 0 0 
L -3.5 0 
" style="stroke: #000000; stroke-width: 0.8"/>
      </defs>
      <g>
       <use xlink:href="#mdc231ac6c4" x="43.78125" y="309.068671" style="stroke: #000000; stroke-width: 0.8"/>
      </g>
     </g>
     <g id="text_4">
      <!-- 0.2 -->
      <g transform="translate(20.878125 312.86789) scale(0.1 -0.1)">
       <defs>
        <path id="DejaVuSans-30" d="M 2034 4250 
Q 1547 4250 1301 3770 
Q 1056 3291 1056 2328 
Q 1056 1369 1301 889 
Q 1547 409 2034 409 
Q 2525 409 2770 889 
Q 3016 1369 3016 2328 
Q 3016 3291 2770 3770 
Q 2525 4250 2034 4250 
z
M 2034 4750 
Q 2819 4750 3233 4129 
Q 3647 3509 3647 2328 
Q 3647 1150 3233 529 
Q 2819 -91 2034 -91 
Q 1250 -91 836 529 
Q 422 1150 422 2328 
Q 422 3509 836 4129 
Q 1250 4750 2034 4750 
z
" transform="scale(0.015625)"/>
        <path id="DejaVuSans-2e" d="M 684 794 
L 1344 794 
L 1344 0 
L 684 0 
L 684 794 
z
" transform="scale(0.015625)"/>
        <path id="DejaVuSans-32" d="M 1228 531 
L 3431 531 
L 3431 0 
L 469 0 
L 469 531 
Q 828 903 1448 1529 
Q 2069 2156 2228 2338 
Q 2531 2678 2651 2914 
Q 2772 3150 2772 3378 
Q 2772 3750 2511 3984 
Q 2250 4219 1831 4219 
Q 1534 4219 1204 4116 
Q 875 4013 500 3803 
L 500 4441 
Q 881 4594 1212 4672 
Q 1544 4750 1819 4750 
Q 2544 4750 2975 4387 
Q 3406 4025 3406 3419 
Q 3406 3131 3298 2873 
Q 3191 2616 2906 2266 
Q 2828 2175 2409 1742 
Q 1991 1309 1228 531 
z
" transform="scale(0.015625)"/>
       </defs>
       <use xlink:href="#DejaVuSans-30"/>
       <use xlink:href="#DejaVuSans-2e" x="63.623047"/>
       <use xlink:href="#DejaVuSans-32" x="95.410156"/>
      </g>
     </g>
    </g>
    <g id="ytick_2">
     <g id="line2d_4">
      <g>
       <use xlink:href="#mdc231ac6c4" x="43.78125" y="259.652448" style="stroke: #000000; stroke-width: 0.8"/>
      </g>
     </g>
     <g id="text_5">
      <!-- 0.3 -->
      <g transform="translate(20.878125 263.451666) scale(0.1 -0.1)">
       <defs>
        <path id="DejaVuSans-33" d="M 2597 2516 
Q 3050 2419 3304 2112 
Q 3559 1806 3559 1356 
Q 3559 666 3084 287 
Q 2609 -91 1734 -91 
Q 1441 -91 1130 -33 
Q 819 25 488 141 
L 488 750 
Q 750 597 1062 519 
Q 1375 441 1716 441 
Q 2309 441 2620 675 
Q 2931 909 2931 1356 
Q 2931 1769 2642 2001 
Q 2353 2234 1838 2234 
L 1294 2234 
L 1294 2753 
L 1863 2753 
Q 2328 2753 2575 2939 
Q 2822 3125 2822 3475 
Q 2822 3834 2567 4026 
Q 2313 4219 1838 4219 
Q 1578 4219 1281 4162 
Q 984 4106 628 3988 
L 628 4550 
Q 988 4650 1302 4700 
Q 1616 4750 1894 4750 
Q 2613 4750 3031 4423 
Q 3450 4097 3450 3541 
Q 3450 3153 3228 2886 
Q 3006 2619 2597 2516 
z
" transform="scale(0.015625)"/>
       </defs>
       <use xlink:href="#DejaVuSans-30"/>
       <use xlink:href="#DejaVuSans-2e" x="63.623047"/>
       <use xlink:href="#DejaVuSans-33" x="95.410156"/>
      </g>
     </g>
    </g>
    <g id="ytick_3">
     <g id="line2d_5">
      <g>
       <use xlink:href="#mdc231ac6c4" x="43.78125" y="210.236224" style="stroke: #000000; stroke-width: 0.8"/>
      </g>
     </g>
     <g id="text_6">
      <!-- 0.4 -->
      <g transform="translate(20.878125 214.035443) scale(0.1 -0.1)">
       <defs>
        <path id="DejaVuSans-34" d="M 2419 4116 
L 825 1625 
L 2419 1625 
L 2419 4116 
z
M 2253 4666 
L 3047 4666 
L 3047 1625 
L 3713 1625 
L 3713 1100 
L 3047 1100 
L 3047 0 
L 2419 0 
L 2419 1100 
L 313 1100 
L 313 1709 
L 2253 4666 
z
" transform="scale(0.015625)"/>
       </defs>
       <use xlink:href="#DejaVuSans-30"/>
       <use xlink:href="#DejaVuSans-2e" x="63.623047"/>
       <use xlink:href="#DejaVuSans-34" x="95.410156"/>
      </g>
     </g>
    </g>
    <g id="ytick_4">
     <g id="line2d_6">
      <g>
       <use xlink:href="#mdc231ac6c4" x="43.78125" y="160.82" style="stroke: #000000; stroke-width: 0.8"/>
      </g>
     </g>
     <g id="text_7">
      <!-- 0.5 -->
      <g transform="translate(20.878125 164.619219) scale(0.1 -0.1)">
       <defs>
        <path id="DejaVuSans-35" d="M 691 4666 
L 3169 4666 
L 3169 4134 
L 1269 4134 
L 1269 2991 
Q 1406 3038 1543 3061 
Q 1681 3084 1819 3084 
Q 2600 3084 3056 2656 
Q 3513 2228 3513 1497 
Q 3513 744 3044 326 
Q 2575 -91 1722 -91 
Q 1428 -91 1123 -41 
Q 819 9 494 109 
L 494 744 
Q 775 591 1075 516 
Q 1375 441 1709 441 
Q 2250 441 2565 725 
Q 2881 1009 2881 1497 
Q 2881 1984 2565 2268 
Q 2250 2553 1709 2553 
Q 1456 2553 1204 2497 
Q 953 2441 691 2322 
L 691 4666 
z
" transform="scale(0.015625)"/>
       </defs>
       <use xlink:href="#DejaVuSans-30"/>
       <use xlink:href="#DejaVuSans-2e" x="63.623047"/>
       <use xlink:href="#DejaVuSans-35" x="95.410156"/>
      </g>
     </g>
    </g>
    <g id="ytick_5">
     <g id="line2d_7">
      <g>
       <use xlink:href="#mdc231ac6c4" x="43.78125" y="111.403776" style="stroke: #000000; stroke-width: 0.8"/>
      </g>
     </g>
     <g id="text_8">
      <!-- 0.6 -->
      <g transform="translate(20.878125 115.202995) scale(0.1 -0.1)">
       <defs>
        <path id="DejaVuSans-36" d="M 2113 2584 
Q 1688 2584 1439 2293 
Q 1191 2003 1191 1497 
Q 1191 994 1439 701 
Q 1688 409 2113 409 
Q 2538 409 2786 701 
Q 3034 994 3034 1497 
Q 3034 2003 2786 2293 
Q 2538 2584 2113 2584 
z
M 3366 4563 
L 3366 3988 
Q 3128 4100 2886 4159 
Q 2644 4219 2406 4219 
Q 1781 4219 1451 3797 
Q 1122 3375 1075 2522 
Q 1259 2794 1537 2939 
Q 1816 3084 2150 3084 
Q 2853 3084 3261 2657 
Q 3669 2231 3669 1497 
Q 3669 778 3244 343 
Q 2819 -91 2113 -91 
Q 1303 -91 875 529 
Q 447 1150 447 2328 
Q 447 3434 972 4092 
Q 1497 4750 2381 4750 
Q 2619 4750 2861 4703 
Q 3103 4656 3366 4563 
z
" transform="scale(0.015625)"/>
       </defs>
       <use xlink:href="#DejaVuSans-30"/>
       <use xlink:href="#DejaVuSans-2e" x="63.623047"/>
       <use xlink:href="#DejaVuSans-36" x="95.410156"/>
      </g>
     </g>
    </g>
    <g id="ytick_6">
     <g id="line2d_8">
      <g>
       <use xlink:href="#mdc231ac6c4" x="43.78125" y="61.987552" style="stroke: #000000; stroke-width: 0.8"/>
      </g>
     </g>
     <g id="text_9">
      <!-- 0.7 -->
      <g transform="translate(20.878125 65.786771) scale(0.1 -0.1)">
       <defs>
        <path id="DejaVuSans-37" d="M 525 4666 
L 3525 4666 
L 3525 4397 
L 1831 0 
L 1172 0 
L 2766 4134 
L 525 4134 
L 525 4666 
z
" transform="scale(0.015625)"/>
       </defs>
       <use xlink:href="#DejaVuSans-30"/>
       <use xlink:href="#DejaVuSans-2e" x="63.623047"/>
       <use xlink:href="#DejaVuSans-37" x="95.410156"/>
      </g>
     </g>
    </g>
    <g id="ytick_7">
     <g id="line2d_9">
      <g>
       <use xlink:href="#mdc231ac6c4" x="43.78125" y="12.571329" style="stroke: #000000; stroke-width: 0.8"/>
      </g>
     </g>
     <g id="text_10">
      <!-- 0.8 -->
      <g transform="translate(20.878125 16.370547) scale(0.1 -0.1)">
       <defs>
        <path id="DejaVuSans-38" d="M 2034 2216 
Q 1584 2216 1326 1975 
Q 1069 1734 1069 1313 
Q 1069 891 1326 650 
Q 1584 409 2034 409 
Q 2484 409 2743 651 
Q 3003 894 3003 1313 
Q 3003 1734 2745 1975 
Q 2488 2216 2034 2216 
z
M 1403 2484 
Q 997 2584 770 2862 
Q 544 3141 544 3541 
Q 544 4100 942 4425 
Q 1341 4750 2034 4750 
Q 2731 4750 3128 4425 
Q 3525 4100 3525 3541 
Q 3525 3141 3298 2862 
Q 3072 2584 2669 2484 
Q 3125 2378 3379 2068 
Q 3634 1759 3634 1313 
Q 3634 634 3220 271 
Q 2806 -91 2034 -91 
Q 1263 -91 848 271 
Q 434 634 434 1313 
Q 434 1759 690 2068 
Q 947 2378 1403 2484 
z
M 1172 3481 
Q 1172 3119 1398 2916 
Q 1625 2713 2034 2713 
Q 2441 2713 2670 2916 
Q 2900 3119 2900 3481 
Q 2900 3844 2670 4047 
Q 2441 4250 2034 4250 
Q 1625 4250 1398 4047 
Q 1172 3844 1172 3481 
z
" transform="scale(0.015625)"/>
       </defs>
       <use xlink:href="#DejaVuSans-30"/>
       <use xlink:href="#DejaVuSans-2e" x="63.623047"/>
       <use xlink:href="#DejaVuSans-38" x="95.410156"/>
      </g>
     </g>
    </g>
    <g id="text_11">
     <!-- rate -->
     <g transform="translate(14.798438 170.97625) rotate(-90) scale(0.1 -0.1)">
      <use xlink:href="#DejaVuSans-72"/>
      <use xlink:href="#DejaVuSans-61" x="41.113281"/>
      <use xlink:href="#DejaVuSans-74" x="102.392578"/>
      <use xlink:href="#DejaVuSans-65" x="141.601562"/>
     </g>
    </g>
   </g>
   <g id="line2d_10">
    <path d="M 99.446507 183.917635 
L 99.446507 190.469734 
" clip-path="url(#p079fc10f3b)" style="fill: none; stroke: #3f3f3f; stroke-width: 1.5; stroke-linecap: square"/>
   </g>
   <g id="line2d_11">
    <path d="M 99.446507 169.68084 
L 99.446507 169.340039 
" clip-path="url(#p079fc10f3b)" style="fill: none; stroke: #3f3f3f; stroke-width: 1.5; stroke-linecap: square"/>
   </g>
   <g id="line2d_12">
    <path d="M 90.354515 190.469734 
L 108.538499 190.469734 
" clip-path="url(#p079fc10f3b)" style="fill: none; stroke: #3f3f3f; stroke-width: 1.5; stroke-linecap: square"/>
   </g>
   <g id="line2d_13">
    <path d="M 90.354515 169.340039 
L 108.538499 169.340039 
" clip-path="url(#p079fc10f3b)" style="fill: none; stroke: #3f3f3f; stroke-width: 1.5; stroke-linecap: square"/>
   </g>
   <g id="line2d_14">
    <defs>
     <path id="m08b9827910" d="M -0 0.353553 
L 0.212132 0 
L 0 -0.353553 
L -0.212132 -0 
z
" style="stroke: #3f3f3f; stroke-linejoin: miter"/>
    </defs>
    <g clip-path="url(#p079fc10f3b)">
     <use xlink:href="#m08b9827910" x="99.446507" y="218.472261" style="fill: #3f3f3f; stroke: #3f3f3f; stroke-linejoin: miter"/>
     <use xlink:href="#m08b9827910" x="99.446507" y="126.906905" style="fill: #3f3f3f; stroke: #3f3f3f; stroke-linejoin: miter"/>
     <use xlink:href="#m08b9827910" x="99.446507" y="136.596361" style="fill: #3f3f3f; stroke: #3f3f3f; stroke-linejoin: miter"/>
     <use xlink:href="#m08b9827910" x="99.446507" y="123.12966" style="fill: #3f3f3f; stroke: #3f3f3f; stroke-linejoin: miter"/>
     <use xlink:href="#m08b9827910" x="99.446507" y="111.403776" style="fill: #3f3f3f; stroke: #3f3f3f; stroke-linejoin: miter"/>
    </g>
   </g>
   <g id="line2d_15">
    <path d="M 136.556679 151.95916 
L 136.556679 152.299961 
" clip-path="url(#p079fc10f3b)" style="fill: none; stroke: #3f3f3f; stroke-width: 1.5; stroke-linecap: square"/>
   </g>
   <g id="line2d_16">
    <path d="M 136.556679 137.722365 
L 136.556679 131.170266 
" clip-path="url(#p079fc10f3b)" style="fill: none; stroke: #3f3f3f; stroke-width: 1.5; stroke-linecap: square"/>
   </g>
   <g id="line2d_17">
    <path d="M 127.464687 152.299961 
L 145.648671 152.299961 
" clip-path="url(#p079fc10f3b)" style="fill: none; stroke: #3f3f3f; stroke-width: 1.5; stroke-linecap: square"/>
   </g>
   <g id="line2d_18">
    <path d="M 127.464687 131.170266 
L 145.648671 131.170266 
" clip-path="url(#p079fc10f3b)" style="fill: none; stroke: #3f3f3f; stroke-width: 1.5; stroke-linecap: square"/>
   </g>
   <g id="line2d_19">
    <g clip-path="url(#p079fc10f3b)">
     <use xlink:href="#m08b9827910" x="136.556679" y="194.733095" style="fill: #3f3f3f; stroke: #3f3f3f; stroke-linejoin: miter"/>
     <use xlink:href="#m08b9827910" x="136.556679" y="185.043639" style="fill: #3f3f3f; stroke: #3f3f3f; stroke-linejoin: miter"/>
     <use xlink:href="#m08b9827910" x="136.556679" y="198.51034" style="fill: #3f3f3f; stroke: #3f3f3f; stroke-linejoin: miter"/>
     <use xlink:href="#m08b9827910" x="136.556679" y="210.236224" style="fill: #3f3f3f; stroke: #3f3f3f; stroke-linejoin: miter"/>
     <use xlink:href="#m08b9827910" x="136.556679" y="103.167739" style="fill: #3f3f3f; stroke: #3f3f3f; stroke-linejoin: miter"/>
    </g>
   </g>
   <g id="line2d_20">
    <path d="M 247.887194 160.82 
L 247.887194 215.261602 
" clip-path="url(#p079fc10f3b)" style="fill: none; stroke: #3f3f3f; stroke-width: 1.5; stroke-linecap: square"/>
   </g>
   <g id="line2d_21">
    <path d="M 247.887194 82.210587 
L 247.887194 21.165455 
" clip-path="url(#p079fc10f3b)" style="fill: none; stroke: #3f3f3f; stroke-width: 1.5; stroke-linecap: square"/>
   </g>
   <g id="line2d_22">
    <path d="M 238.795202 215.261602 
L 256.979186 215.261602 
" clip-path="url(#p079fc10f3b)" style="fill: none; stroke: #3f3f3f; stroke-width: 1.5; stroke-linecap: square"/>
   </g>
   <g id="line2d_23">
    <path d="M 238.795202 21.165455 
L 256.979186 21.165455 
" clip-path="url(#p079fc10f3b)" style="fill: none; stroke: #3f3f3f; stroke-width: 1.5; stroke-linecap: square"/>
   </g>
   <g id="line2d_24"/>
   <g id="line2d_25">
    <path d="M 284.997365 239.429413 
L 284.997365 300.474545 
" clip-path="url(#p079fc10f3b)" style="fill: none; stroke: #3f3f3f; stroke-width: 1.5; stroke-linecap: square"/>
   </g>
   <g id="line2d_26">
    <path d="M 284.997365 160.82 
L 284.997365 106.378398 
" clip-path="url(#p079fc10f3b)" style="fill: none; stroke: #3f3f3f; stroke-width: 1.5; stroke-linecap: square"/>
   </g>
   <g id="line2d_27">
    <path d="M 275.905373 300.474545 
L 294.089357 300.474545 
" clip-path="url(#p079fc10f3b)" style="fill: none; stroke: #3f3f3f; stroke-width: 1.5; stroke-linecap: square"/>
   </g>
   <g id="line2d_28">
    <path d="M 275.905373 106.378398 
L 294.089357 106.378398 
" clip-path="url(#p079fc10f3b)" style="fill: none; stroke: #3f3f3f; stroke-width: 1.5; stroke-linecap: square"/>
   </g>
   <g id="line2d_29"/>
   <g id="line2d_30">
    <path d="M 81.262523 175.794613 
L 117.630491 175.794613 
" clip-path="url(#p079fc10f3b)" style="fill: none; stroke: #3f3f3f; stroke-width: 1.5; stroke-linecap: square"/>
   </g>
   <g id="line2d_31">
    <path d="M 118.372695 145.845387 
L 154.740663 145.845387 
" clip-path="url(#p079fc10f3b)" style="fill: none; stroke: #3f3f3f; stroke-width: 1.5; stroke-linecap: square"/>
   </g>
   <g id="line2d_32">
    <path d="M 229.70321 125.979128 
L 266.071178 125.979128 
" clip-path="url(#p079fc10f3b)" style="fill: none; stroke: #3f3f3f; stroke-width: 1.5; stroke-linecap: square"/>
   </g>
   <g id="line2d_33">
    <path d="M 266.813381 195.660872 
L 303.181349 195.660872 
" clip-path="url(#p079fc10f3b)" style="fill: none; stroke: #3f3f3f; stroke-width: 1.5; stroke-linecap: square"/>
   </g>
   <g id="patch_9">
    <path d="M 43.78125 314.44 
L 43.78125 7.2 
" style="fill: none; stroke: #000000; stroke-width: 0.8; stroke-linejoin: miter; stroke-linecap: square"/>
   </g>
   <g id="patch_10">
    <path d="M 43.78125 314.44 
L 340.662622 314.44 
" style="fill: none; stroke: #000000; stroke-width: 0.8; stroke-linejoin: miter; stroke-linecap: square"/>
   </g>
   <g id="PathCollection_3">
    <defs>
     <path id="C0_0_bd98df6adb" d="M 0 3 
C 0.795609 3 1.55874 2.683901 2.12132 2.12132 
C 2.683901 1.55874 3 0.795609 3 -0 
C 3 -0.795609 2.683901 -1.55874 2.12132 -2.12132 
C 1.55874 -2.683901 0.795609 -3 0 -3 
C -0.795609 -3 -1.55874 -2.683901 -2.12132 -2.12132 
C -2.683901 -1.55874 -3 -0.795609 -3 0 
C -3 0.795609 -2.683901 1.55874 -2.12132 2.12132 
C -1.55874 2.683901 -0.795609 3 0 3 
z
"/>
    </defs>
    <g clip-path="url(#p079fc10f3b)">
     <use xlink:href="#C0_0_bd98df6adb" x="88.313456" y="177.292075" style="fill: #262626"/>
    </g>
    <g clip-path="url(#p079fc10f3b)">
     <use xlink:href="#C0_0_bd98df6adb" x="80.846476" y="183.28192" style="fill: #262626"/>
    </g>
    <g clip-path="url(#p079fc10f3b)">
     <use xlink:href="#C0_0_bd98df6adb" x="93.77249" y="174.297152" style="fill: #262626"/>
    </g>
    <g clip-path="url(#p079fc10f3b)">
     <use xlink:href="#C0_0_bd98df6adb" x="87.083294" y="184.12954" style="fill: #262626"/>
    </g>
    <g clip-path="url(#p079fc10f3b)">
     <use xlink:href="#C0_0_bd98df6adb" x="88.313456" y="126.906905" style="fill: #262626"/>
    </g>
    <g clip-path="url(#p079fc10f3b)">
     <use xlink:href="#C0_0_bd98df6adb" x="92.923305" y="186.380116" style="fill: #262626"/>
    </g>
    <g clip-path="url(#p079fc10f3b)">
     <use xlink:href="#C0_0_bd98df6adb" x="96.941666" y="181.759078" style="fill: #262626"/>
    </g>
    <g clip-path="url(#p079fc10f3b)">
     <use xlink:href="#C0_0_bd98df6adb" x="82.128292" y="189.32936" style="fill: #262626"/>
    </g>
    <g clip-path="url(#p079fc10f3b)">
     <use xlink:href="#C0_0_bd98df6adb" x="88.313456" y="170.703245" style="fill: #262626"/>
    </g>
    <g clip-path="url(#p079fc10f3b)">
     <use xlink:href="#C0_0_bd98df6adb" x="88.313456" y="136.596361" style="fill: #262626"/>
    </g>
    <g clip-path="url(#p079fc10f3b)">
     <use xlink:href="#C0_0_bd98df6adb" x="97.321898" y="169.340039" style="fill: #262626"/>
    </g>
    <g clip-path="url(#p079fc10f3b)">
     <use xlink:href="#C0_0_bd98df6adb" x="83.418562" y="123.12966" style="fill: #262626"/>
    </g>
    <g clip-path="url(#p079fc10f3b)">
     <use xlink:href="#C0_0_bd98df6adb" x="88.313456" y="190.469734" style="fill: #262626"/>
    </g>
    <g clip-path="url(#p079fc10f3b)">
     <use xlink:href="#C0_0_bd98df6adb" x="75.696306" y="179.82624" style="fill: #262626"/>
    </g>
    <g clip-path="url(#p079fc10f3b)">
     <use xlink:href="#C0_0_bd98df6adb" x="83.172279" y="173.824269" style="fill: #262626"/>
    </g>
    <g clip-path="url(#p079fc10f3b)">
     <use xlink:href="#C0_0_bd98df6adb" x="76.889306" y="173.383447" style="fill: #262626"/>
    </g>
    <g clip-path="url(#p079fc10f3b)">
     <use xlink:href="#C0_0_bd98df6adb" x="88.313456" y="218.472261" style="fill: #262626"/>
    </g>
    <g clip-path="url(#p079fc10f3b)">
     <use xlink:href="#C0_0_bd98df6adb" x="88.313456" y="111.403776" style="fill: #262626"/>
    </g>
   </g>
   <g id="PathCollection_4">
    <defs>
     <path id="C1_0_13ea198c5f" d="M 0 3 
C 0.795609 3 1.55874 2.683901 2.12132 2.12132 
C 2.683901 1.55874 3 0.795609 3 -0 
C 3 -0.795609 2.683901 -1.55874 2.12132 -2.12132 
C 1.55874 -2.683901 0.795609 -3 0 -3 
C -0.795609 -3 -1.55874 -2.683901 -2.12132 -2.12132 
C -2.683901 -1.55874 -3 -0.795609 -3 0 
C -3 0.795609 -2.683901 1.55874 -2.12132 2.12132 
C -1.55874 2.683901 -0.795609 3 0 3 
z
"/>
    </defs>
    <g clip-path="url(#p079fc10f3b)">
     <use xlink:href="#C1_0_13ea198c5f" x="147.68973" y="144.347925"/>
    </g>
    <g clip-path="url(#p079fc10f3b)">
     <use xlink:href="#C1_0_13ea198c5f" x="137.390007" y="138.35808"/>
    </g>
    <g clip-path="url(#p079fc10f3b)">
     <use xlink:href="#C1_0_13ea198c5f" x="136.509697" y="147.342848"/>
    </g>
    <g clip-path="url(#p079fc10f3b)">
     <use xlink:href="#C1_0_13ea198c5f" x="149.010068" y="137.51046"/>
    </g>
    <g clip-path="url(#p079fc10f3b)">
     <use xlink:href="#C1_0_13ea198c5f" x="142.794836" y="194.733095"/>
    </g>
    <g clip-path="url(#p079fc10f3b)">
     <use xlink:href="#C1_0_13ea198c5f" x="154.85008" y="135.259884"/>
    </g>
    <g clip-path="url(#p079fc10f3b)">
     <use xlink:href="#C1_0_13ea198c5f" x="143.483713" y="139.880922"/>
    </g>
    <g clip-path="url(#p079fc10f3b)">
     <use xlink:href="#C1_0_13ea198c5f" x="145.866748" y="132.31064"/>
    </g>
    <g clip-path="url(#p079fc10f3b)">
     <use xlink:href="#C1_0_13ea198c5f" x="141.554489" y="150.936755"/>
    </g>
    <g clip-path="url(#p079fc10f3b)">
     <use xlink:href="#C1_0_13ea198c5f" x="147.68973" y="185.043639"/>
    </g>
    <g clip-path="url(#p079fc10f3b)">
     <use xlink:href="#C1_0_13ea198c5f" x="147.68973" y="152.299961"/>
    </g>
    <g clip-path="url(#p079fc10f3b)">
     <use xlink:href="#C1_0_13ea198c5f" x="147.68973" y="198.51034"/>
    </g>
    <g clip-path="url(#p079fc10f3b)">
     <use xlink:href="#C1_0_13ea198c5f" x="139.681585" y="131.170266"/>
    </g>
    <g clip-path="url(#p079fc10f3b)">
     <use xlink:href="#C1_0_13ea198c5f" x="153.400225" y="141.81376"/>
    </g>
    <g clip-path="url(#p079fc10f3b)">
     <use xlink:href="#C1_0_13ea198c5f" x="158.627278" y="147.815731"/>
    </g>
    <g clip-path="url(#p079fc10f3b)">
     <use xlink:href="#C1_0_13ea198c5f" x="152.344305" y="148.256553"/>
    </g>
    <g clip-path="url(#p079fc10f3b)">
     <use xlink:href="#C1_0_13ea198c5f" x="147.68973" y="103.167739"/>
    </g>
    <g clip-path="url(#p079fc10f3b)">
     <use xlink:href="#C1_0_13ea198c5f" x="147.68973" y="210.236224"/>
    </g>
   </g>
   <g id="PathCollection_5">
    <defs>
     <path id="C2_0_23541fe0af" d="M 0 3 
C 0.795609 3 1.55874 2.683901 2.12132 2.12132 
C 2.683901 1.55874 3 0.795609 3 -0 
C 3 -0.795609 2.683901 -1.55874 2.12132 -2.12132 
C 1.55874 -2.683901 0.795609 -3 0 -3 
C -0.795609 -3 -1.55874 -2.683901 -2.12132 -2.12132 
C -2.683901 -1.55874 -3 -0.795609 -3 0 
C -3 0.795609 -2.683901 1.55874 -2.12132 2.12132 
C -1.55874 2.683901 -0.795609 3 0 3 
z
"/>
    </defs>
    <g clip-path="url(#p079fc10f3b)">
     <use xlink:href="#C2_0_23541fe0af" x="243.054142" y="160.82" style="fill: #262626"/>
    </g>
    <g clip-path="url(#p079fc10f3b)">
     <use xlink:href="#C2_0_23541fe0af" x="236.754142" y="215.261602" style="fill: #262626"/>
    </g>
    <g clip-path="url(#p079fc10f3b)">
     <use xlink:href="#C2_0_23541fe0af" x="236.754142" y="58.371731" style="fill: #262626"/>
    </g>
    <g clip-path="url(#p079fc10f3b)">
     <use xlink:href="#C2_0_23541fe0af" x="236.754142" y="198.83248" style="fill: #262626"/>
    </g>
    <g clip-path="url(#p079fc10f3b)">
     <use xlink:href="#C2_0_23541fe0af" x="231.06237" y="81.567566" style="fill: #262626"/>
    </g>
    <g clip-path="url(#p079fc10f3b)">
     <use xlink:href="#C2_0_23541fe0af" x="240.773545" y="53.751515" style="fill: #262626"/>
    </g>
    <g clip-path="url(#p079fc10f3b)">
     <use xlink:href="#C2_0_23541fe0af" x="236.754142" y="84.139653" style="fill: #262626"/>
    </g>
    <g clip-path="url(#p079fc10f3b)">
     <use xlink:href="#C2_0_23541fe0af" x="236.754142" y="138.35808" style="fill: #262626"/>
    </g>
    <g clip-path="url(#p079fc10f3b)">
     <use xlink:href="#C2_0_23541fe0af" x="231.595088" y="54.928092" style="fill: #262626"/>
    </g>
    <g clip-path="url(#p079fc10f3b)">
     <use xlink:href="#C2_0_23541fe0af" x="236.754142" y="146.285817" style="fill: #262626"/>
    </g>
    <g clip-path="url(#p079fc10f3b)">
     <use xlink:href="#C2_0_23541fe0af" x="231.359024" y="135.259884" style="fill: #262626"/>
    </g>
    <g clip-path="url(#p079fc10f3b)">
     <use xlink:href="#C2_0_23541fe0af" x="233.790377" y="111.403776" style="fill: #262626"/>
    </g>
    <g clip-path="url(#p079fc10f3b)">
     <use xlink:href="#C2_0_23541fe0af" x="236.754142" y="91.637287" style="fill: #262626"/>
    </g>
    <g clip-path="url(#p079fc10f3b)">
     <use xlink:href="#C2_0_23541fe0af" x="236.754142" y="21.165455" style="fill: #262626"/>
    </g>
    <g clip-path="url(#p079fc10f3b)">
     <use xlink:href="#C2_0_23541fe0af" x="236.754142" y="160.82" style="fill: #262626"/>
    </g>
    <g clip-path="url(#p079fc10f3b)">
     <use xlink:href="#C2_0_23541fe0af" x="236.754142" y="116.698372" style="fill: #262626"/>
    </g>
    <g clip-path="url(#p079fc10f3b)">
     <use xlink:href="#C2_0_23541fe0af" x="230.454142" y="160.82" style="fill: #262626"/>
    </g>
    <g clip-path="url(#p079fc10f3b)">
     <use xlink:href="#C2_0_23541fe0af" x="236.754142" y="173.174056" style="fill: #262626"/>
    </g>
   </g>
   <g id="PathCollection_6">
    <defs>
     <path id="C3_0_7bcfba2963" d="M 0 3 
C 0.795609 3 1.55874 2.683901 2.12132 2.12132 
C 2.683901 1.55874 3 0.795609 3 -0 
C 3 -0.795609 2.683901 -1.55874 2.12132 -2.12132 
C 1.55874 -2.683901 0.795609 -3 0 -3 
C -0.795609 -3 -1.55874 -2.683901 -2.12132 -2.12132 
C -2.683901 -1.55874 -3 -0.795609 -3 0 
C -3 0.795609 -2.683901 1.55874 -2.12132 2.12132 
C -1.55874 2.683901 -0.795609 3 0 3 
z
"/>
    </defs>
    <g clip-path="url(#p079fc10f3b)">
     <use xlink:href="#C3_0_7bcfba2963" x="289.830417" y="160.82"/>
    </g>
    <g clip-path="url(#p079fc10f3b)">
     <use xlink:href="#C3_0_7bcfba2963" x="296.130417" y="106.378398"/>
    </g>
    <g clip-path="url(#p079fc10f3b)">
     <use xlink:href="#C3_0_7bcfba2963" x="300.149819" y="263.268269"/>
    </g>
    <g clip-path="url(#p079fc10f3b)">
     <use xlink:href="#C3_0_7bcfba2963" x="296.130417" y="122.80752"/>
    </g>
    <g clip-path="url(#p079fc10f3b)">
     <use xlink:href="#C3_0_7bcfba2963" x="296.130417" y="240.072434"/>
    </g>
    <g clip-path="url(#p079fc10f3b)">
     <use xlink:href="#C3_0_7bcfba2963" x="296.130417" y="267.888485"/>
    </g>
    <g clip-path="url(#p079fc10f3b)">
     <use xlink:href="#C3_0_7bcfba2963" x="290.438645" y="237.500347"/>
    </g>
    <g clip-path="url(#p079fc10f3b)">
     <use xlink:href="#C3_0_7bcfba2963" x="290.735298" y="183.28192"/>
    </g>
    <g clip-path="url(#p079fc10f3b)">
     <use xlink:href="#C3_0_7bcfba2963" x="289.952733" y="266.711908"/>
    </g>
    <g clip-path="url(#p079fc10f3b)">
     <use xlink:href="#C3_0_7bcfba2963" x="296.130417" y="175.354183"/>
    </g>
    <g clip-path="url(#p079fc10f3b)">
     <use xlink:href="#C3_0_7bcfba2963" x="296.130417" y="186.380116"/>
    </g>
    <g clip-path="url(#p079fc10f3b)">
     <use xlink:href="#C3_0_7bcfba2963" x="296.130417" y="210.236224"/>
    </g>
    <g clip-path="url(#p079fc10f3b)">
     <use xlink:href="#C3_0_7bcfba2963" x="296.130417" y="230.002713"/>
    </g>
    <g clip-path="url(#p079fc10f3b)">
     <use xlink:href="#C3_0_7bcfba2963" x="296.130417" y="300.474545"/>
    </g>
    <g clip-path="url(#p079fc10f3b)">
     <use xlink:href="#C3_0_7bcfba2963" x="296.130417" y="160.82"/>
    </g>
    <g clip-path="url(#p079fc10f3b)">
     <use xlink:href="#C3_0_7bcfba2963" x="293.166652" y="204.941628"/>
    </g>
    <g clip-path="url(#p079fc10f3b)">
     <use xlink:href="#C3_0_7bcfba2963" x="302.430417" y="160.82"/>
    </g>
    <g clip-path="url(#p079fc10f3b)">
     <use xlink:href="#C3_0_7bcfba2963" x="296.130417" y="148.465944"/>
    </g>
   </g>
   <g id="legend_1">
    <g id="patch_11">
     <path d="M 50.78125 88.590625 
L 128.634375 88.590625 
Q 130.634375 88.590625 130.634375 86.590625 
L 130.634375 14.2 
Q 130.634375 12.2 128.634375 12.2 
L 50.78125 12.2 
Q 48.78125 12.2 48.78125 14.2 
L 48.78125 86.590625 
Q 48.78125 88.590625 50.78125 88.590625 
z
" style="fill: #ffffff; opacity: 0.8; stroke: #cccccc; stroke-linejoin: miter"/>
    </g>
    <g id="text_12">
     <!-- condition -->
     <g transform="translate(66.589844 23.798438) scale(0.1 -0.1)">
      <use xlink:href="#DejaVuSans-63"/>
      <use xlink:href="#DejaVuSans-6f" x="54.980469"/>
      <use xlink:href="#DejaVuSans-6e" x="116.162109"/>
      <use xlink:href="#DejaVuSans-64" x="179.541016"/>
      <use xlink:href="#DejaVuSans-69" x="243.017578"/>
      <use xlink:href="#DejaVuSans-74" x="270.800781"/>
      <use xlink:href="#DejaVuSans-69" x="310.009766"/>
      <use xlink:href="#DejaVuSans-6f" x="337.792969"/>
      <use xlink:href="#DejaVuSans-6e" x="398.974609"/>
     </g>
    </g>
    <g id="patch_12">
     <path d="M 52.78125 38.476563 
L 72.78125 38.476563 
L 72.78125 31.476563 
L 52.78125 31.476563 
z
" style="fill: #3274a1; stroke: #3f3f3f; stroke-width: 0.75; stroke-linejoin: miter"/>
    </g>
    <g id="text_13">
     <!-- Shifted -->
     <g transform="translate(80.78125 38.476563) scale(0.1 -0.1)">
      <defs>
       <path id="DejaVuSans-53" d="M 3425 4513 
L 3425 3897 
Q 3066 4069 2747 4153 
Q 2428 4238 2131 4238 
Q 1616 4238 1336 4038 
Q 1056 3838 1056 3469 
Q 1056 3159 1242 3001 
Q 1428 2844 1947 2747 
L 2328 2669 
Q 3034 2534 3370 2195 
Q 3706 1856 3706 1288 
Q 3706 609 3251 259 
Q 2797 -91 1919 -91 
Q 1588 -91 1214 -16 
Q 841 59 441 206 
L 441 856 
Q 825 641 1194 531 
Q 1563 422 1919 422 
Q 2459 422 2753 634 
Q 3047 847 3047 1241 
Q 3047 1584 2836 1778 
Q 2625 1972 2144 2069 
L 1759 2144 
Q 1053 2284 737 2584 
Q 422 2884 422 3419 
Q 422 4038 858 4394 
Q 1294 4750 2059 4750 
Q 2388 4750 2728 4690 
Q 3069 4631 3425 4513 
z
" transform="scale(0.015625)"/>
       <path id="DejaVuSans-66" d="M 2375 4863 
L 2375 4384 
L 1825 4384 
Q 1516 4384 1395 4259 
Q 1275 4134 1275 3809 
L 1275 3500 
L 2222 3500 
L 2222 3053 
L 1275 3053 
L 1275 0 
L 697 0 
L 697 3053 
L 147 3053 
L 147 3500 
L 697 3500 
L 697 3744 
Q 697 4328 969 4595 
Q 1241 4863 1831 4863 
L 2375 4863 
z
" transform="scale(0.015625)"/>
      </defs>
      <use xlink:href="#DejaVuSans-53"/>
      <use xlink:href="#DejaVuSans-68" x="63.476562"/>
      <use xlink:href="#DejaVuSans-69" x="126.855469"/>
      <use xlink:href="#DejaVuSans-66" x="154.638672"/>
      <use xlink:href="#DejaVuSans-74" x="188.09375"/>
      <use xlink:href="#DejaVuSans-65" x="227.302734"/>
      <use xlink:href="#DejaVuSans-64" x="288.826172"/>
     </g>
    </g>
    <g id="patch_13">
     <path d="M 52.78125 53.154688 
L 72.78125 53.154688 
L 72.78125 46.154688 
L 52.78125 46.154688 
z
" style="fill: #e1812c; stroke: #3f3f3f; stroke-width: 0.75; stroke-linejoin: miter"/>
    </g>
    <g id="text_14">
     <!-- Swapped -->
     <g transform="translate(80.78125 53.154688) scale(0.1 -0.1)">
      <defs>
       <path id="DejaVuSans-77" d="M 269 3500 
L 844 3500 
L 1563 769 
L 2278 3500 
L 2956 3500 
L 3675 769 
L 4391 3500 
L 4966 3500 
L 4050 0 
L 3372 0 
L 2619 2869 
L 1863 0 
L 1184 0 
L 269 3500 
z
" transform="scale(0.015625)"/>
       <path id="DejaVuSans-70" d="M 1159 525 
L 1159 -1331 
L 581 -1331 
L 581 3500 
L 1159 3500 
L 1159 2969 
Q 1341 3281 1617 3432 
Q 1894 3584 2278 3584 
Q 2916 3584 3314 3078 
Q 3713 2572 3713 1747 
Q 3713 922 3314 415 
Q 2916 -91 2278 -91 
Q 1894 -91 1617 61 
Q 1341 213 1159 525 
z
M 3116 1747 
Q 3116 2381 2855 2742 
Q 2594 3103 2138 3103 
Q 1681 3103 1420 2742 
Q 1159 2381 1159 1747 
Q 1159 1113 1420 752 
Q 1681 391 2138 391 
Q 2594 391 2855 752 
Q 3116 1113 3116 1747 
z
" transform="scale(0.015625)"/>
      </defs>
      <use xlink:href="#DejaVuSans-53"/>
      <use xlink:href="#DejaVuSans-77" x="63.476562"/>
      <use xlink:href="#DejaVuSans-61" x="145.263672"/>
      <use xlink:href="#DejaVuSans-70" x="206.542969"/>
      <use xlink:href="#DejaVuSans-70" x="270.019531"/>
      <use xlink:href="#DejaVuSans-65" x="333.496094"/>
      <use xlink:href="#DejaVuSans-64" x="395.019531"/>
     </g>
    </g>
    <g id="PathCollection_7">
     <defs>
      <path id="m58b3cea83e" d="M 0 3 
C 0.795609 3 1.55874 2.683901 2.12132 2.12132 
C 2.683901 1.55874 3 0.795609 3 0 
C 3 -0.795609 2.683901 -1.55874 2.12132 -2.12132 
C 1.55874 -2.683901 0.795609 -3 0 -3 
C -0.795609 -3 -1.55874 -2.683901 -2.12132 -2.12132 
C -2.683901 -1.55874 -3 -0.795609 -3 0 
C -3 0.795609 -2.683901 1.55874 -2.12132 2.12132 
C -1.55874 2.683901 -0.795609 3 0 3 
z
" style="stroke: #262626"/>
     </defs>
     <g>
      <use xlink:href="#m58b3cea83e" x="62.78125" y="65.207813" style="fill: #262626; stroke: #262626"/>
     </g>
    </g>
    <g id="text_15">
     <!-- Shifted -->
     <g transform="translate(80.78125 67.832813) scale(0.1 -0.1)">
      <use xlink:href="#DejaVuSans-53"/>
      <use xlink:href="#DejaVuSans-68" x="63.476562"/>
      <use xlink:href="#DejaVuSans-69" x="126.855469"/>
      <use xlink:href="#DejaVuSans-66" x="154.638672"/>
      <use xlink:href="#DejaVuSans-74" x="188.09375"/>
      <use xlink:href="#DejaVuSans-65" x="227.302734"/>
      <use xlink:href="#DejaVuSans-64" x="288.826172"/>
     </g>
    </g>
    <g id="PathCollection_8">
     <defs>
      <path id="mb982bc6f49" d="M 0 3 
C 0.795609 3 1.55874 2.683901 2.12132 2.12132 
C 2.683901 1.55874 3 0.795609 3 0 
C 3 -0.795609 2.683901 -1.55874 2.12132 -2.12132 
C 1.55874 -2.683901 0.795609 -3 0 -3 
C -0.795609 -3 -1.55874 -2.683901 -2.12132 -2.12132 
C -2.683901 -1.55874 -3 -0.795609 -3 0 
C -3 0.795609 -2.683901 1.55874 -2.12132 2.12132 
C -1.55874 2.683901 -0.795609 3 0 3 
z
" style="stroke: #000000"/>
     </defs>
     <g>
      <use xlink:href="#mb982bc6f49" x="62.78125" y="79.885938" style="stroke: #000000"/>
     </g>
    </g>
    <g id="text_16">
     <!-- Swapped -->
     <g transform="translate(80.78125 82.510938) scale(0.1 -0.1)">
      <use xlink:href="#DejaVuSans-53"/>
      <use xlink:href="#DejaVuSans-77" x="63.476562"/>
      <use xlink:href="#DejaVuSans-61" x="145.263672"/>
      <use xlink:href="#DejaVuSans-70" x="206.542969"/>
      <use xlink:href="#DejaVuSans-70" x="270.019531"/>
      <use xlink:href="#DejaVuSans-65" x="333.496094"/>
      <use xlink:href="#DejaVuSans-64" x="395.019531"/>
     </g>
    </g>
   </g>
  </g>
  <g id="legend_2">
   <g id="text_17">
    <!-- condition -->
    <g transform="translate(360.227991 164.079375) scale(0.1 -0.1)">
     <use xlink:href="#DejaVuSans-63"/>
     <use xlink:href="#DejaVuSans-6f" x="54.980469"/>
     <use xlink:href="#DejaVuSans-6e" x="116.162109"/>
     <use xlink:href="#DejaVuSans-64" x="179.541016"/>
     <use xlink:href="#DejaVuSans-69" x="243.017578"/>
     <use xlink:href="#DejaVuSans-74" x="270.800781"/>
     <use xlink:href="#DejaVuSans-69" x="310.009766"/>
     <use xlink:href="#DejaVuSans-6f" x="337.792969"/>
     <use xlink:href="#DejaVuSans-6e" x="398.974609"/>
    </g>
   </g>
   <g id="patch_14">
    <path d="M 346.419397 178.7575 
L 366.419397 178.7575 
L 366.419397 171.7575 
L 346.419397 171.7575 
z
" style="fill: #3274a1; stroke: #3f3f3f; stroke-width: 0.75; stroke-linejoin: miter"/>
   </g>
   <g id="text_18">
    <!-- Shifted -->
    <g transform="translate(374.419397 178.7575) scale(0.1 -0.1)">
     <use xlink:href="#DejaVuSans-53"/>
     <use xlink:href="#DejaVuSans-68" x="63.476562"/>
     <use xlink:href="#DejaVuSans-69" x="126.855469"/>
     <use xlink:href="#DejaVuSans-66" x="154.638672"/>
     <use xlink:href="#DejaVuSans-74" x="188.09375"/>
     <use xlink:href="#DejaVuSans-65" x="227.302734"/>
     <use xlink:href="#DejaVuSans-64" x="288.826172"/>
    </g>
   </g>
   <g id="patch_15">
    <path d="M 346.419397 193.435625 
L 366.419397 193.435625 
L 366.419397 186.435625 
L 346.419397 186.435625 
z
" style="fill: #e1812c; stroke: #3f3f3f; stroke-width: 0.75; stroke-linejoin: miter"/>
   </g>
   <g id="text_19">
    <!-- Swapped -->
    <g transform="translate(374.419397 193.435625) scale(0.1 -0.1)">
     <use xlink:href="#DejaVuSans-53"/>
     <use xlink:href="#DejaVuSans-77" x="63.476562"/>
     <use xlink:href="#DejaVuSans-61" x="145.263672"/>
     <use xlink:href="#DejaVuSans-70" x="206.542969"/>
     <use xlink:href="#DejaVuSans-70" x="270.019531"/>
     <use xlink:href="#DejaVuSans-65" x="333.496094"/>
     <use xlink:href="#DejaVuSans-64" x="395.019531"/>
    </g>
   </g>
  </g>
 </g>
 <defs>
  <clipPath id="p079fc10f3b">
   <rect x="43.78125" y="7.2" width="296.881372" height="307.24"/>
  </clipPath>
 </defs>
</svg>
