<?xml version="1.0" encoding="utf-8" standalone="no"?>
<!DOCTYPE svg PUBLIC "-//W3C//DTD SVG 1.1//EN"
  "http://www.w3.org/Graphics/SVG/1.1/DTD/svg11.dtd">
<svg xmlns:xlink="http://www.w3.org/1999/xlink" width="1520.5pt" height="360pt" viewBox="0 0 1520.5 360" xmlns="http://www.w3.org/2000/svg" version="1.1">
 <metadata>
  <rdf:RDF xmlns:dc="http://purl.org/dc/elements/1.1/" xmlns:cc="http://creativecommons.org/ns#" xmlns:rdf="http://www.w3.org/1999/02/22-rdf-syntax-ns#">
   <cc:Work>
    <dc:type rdf:resource="http://purl.org/dc/dcmitype/StillImage"/>
    <dc:date>2022-08-11T22:43:28.027250</dc:date>
    <dc:format>image/svg+xml</dc:format>
    <dc:creator>
     <cc:Agent>
      <dc:title>Matplotlib v3.5.0, https://matplotlib.org/</dc:title>
     </cc:Agent>
    </dc:creator>
   </cc:Work>
  </rdf:RDF>
 </metadata>
 <defs>
  <style type="text/css">*{stroke-linejoin: round; stroke-linecap: butt}</style>
 </defs>
 <g id="figure_1">
  <g id="patch_1">
   <path d="M 0 360 
L 1520.5 360 
L 1520.5 0 
L 0 0 
L 0 360 
z
" style="fill: none"/>
  </g>
  <g id="axes_1">
   <g id="patch_2">
    <path d="M 54.175 318.2 
L 383.405 318.2 
L 383.405 24.8 
L 54.175 24.8 
z
" style="fill: #ffffff"/>
   </g>
   <g id="matplotlib.axis_1">
    <g id="xtick_1">
     <g id="line2d_1">
      <defs>
       <path id="mb751292391" d="M 0 0 
L 0 3.5 
" style="stroke: #000000; stroke-width: 0.8"/>
      </defs>
      <g>
       <use xlink:href="#mb751292391" x="73.34145" y="318.2" style="stroke: #000000; stroke-width: 0.8"/>
      </g>
     </g>
     <g id="text_1">
      <!-- −0.2 -->
      <g transform="translate(61.200043 332.798438)scale(0.1 -0.1)">
       <defs>
        <path id="DejaVuSans-2212" d="M 678 2272 
L 4684 2272 
L 4684 1741 
L 678 1741 
L 678 2272 
z
" transform="scale(0.015625)"/>
        <path id="DejaVuSans-30" d="M 2034 4250 
Q 1547 4250 1301 3770 
Q 1056 3291 1056 2328 
Q 1056 1369 1301 889 
Q 1547 409 2034 409 
Q 2525 409 2770 889 
Q 3016 1369 3016 2328 
Q 3016 3291 2770 3770 
Q 2525 4250 2034 4250 
z
M 2034 4750 
Q 2819 4750 3233 4129 
Q 3647 3509 3647 2328 
Q 3647 1150 3233 529 
Q 2819 -91 2034 -91 
Q 1250 -91 836 529 
Q 422 1150 422 2328 
Q 422 3509 836 4129 
Q 1250 4750 2034 4750 
z
" transform="scale(0.015625)"/>
        <path id="DejaVuSans-2e" d="M 684 794 
L 1344 794 
L 1344 0 
L 684 0 
L 684 794 
z
" transform="scale(0.015625)"/>
        <path id="DejaVuSans-32" d="M 1228 531 
L 3431 531 
L 3431 0 
L 469 0 
L 469 531 
Q 828 903 1448 1529 
Q 2069 2156 2228 2338 
Q 2531 2678 2651 2914 
Q 2772 3150 2772 3378 
Q 2772 3750 2511 3984 
Q 2250 4219 1831 4219 
Q 1534 4219 1204 4116 
Q 875 4013 500 3803 
L 500 4441 
Q 881 4594 1212 4672 
Q 1544 4750 1819 4750 
Q 2544 4750 2975 4387 
Q 3406 4025 3406 3419 
Q 3406 3131 3298 2873 
Q 3191 2616 2906 2266 
Q 2828 2175 2409 1742 
Q 1991 1309 1228 531 
z
" transform="scale(0.015625)"/>
       </defs>
       <use xlink:href="#DejaVuSans-2212"/>
       <use xlink:href="#DejaVuSans-30" x="83.789062"/>
       <use xlink:href="#DejaVuSans-2e" x="147.412109"/>
       <use xlink:href="#DejaVuSans-32" x="179.199219"/>
      </g>
     </g>
    </g>
    <g id="xtick_2">
     <g id="line2d_2">
      <g>
       <use xlink:href="#mb751292391" x="114.146907" y="318.2" style="stroke: #000000; stroke-width: 0.8"/>
      </g>
     </g>
     <g id="text_2">
      <!-- 0.0 -->
      <g transform="translate(106.195344 332.798438)scale(0.1 -0.1)">
       <use xlink:href="#DejaVuSans-30"/>
       <use xlink:href="#DejaVuSans-2e" x="63.623047"/>
       <use xlink:href="#DejaVuSans-30" x="95.410156"/>
      </g>
     </g>
    </g>
    <g id="xtick_3">
     <g id="line2d_3">
      <g>
       <use xlink:href="#mb751292391" x="154.952364" y="318.2" style="stroke: #000000; stroke-width: 0.8"/>
      </g>
     </g>
     <g id="text_3">
      <!-- 0.2 -->
      <g transform="translate(147.000801 332.798438)scale(0.1 -0.1)">
       <use xlink:href="#DejaVuSans-30"/>
       <use xlink:href="#DejaVuSans-2e" x="63.623047"/>
       <use xlink:href="#DejaVuSans-32" x="95.410156"/>
      </g>
     </g>
    </g>
    <g id="xtick_4">
     <g id="line2d_4">
      <g>
       <use xlink:href="#mb751292391" x="195.757821" y="318.2" style="stroke: #000000; stroke-width: 0.8"/>
      </g>
     </g>
     <g id="text_4">
      <!-- 0.4 -->
      <g transform="translate(187.806258 332.798438)scale(0.1 -0.1)">
       <defs>
        <path id="DejaVuSans-34" d="M 2419 4116 
L 825 1625 
L 2419 1625 
L 2419 4116 
z
M 2253 4666 
L 3047 4666 
L 3047 1625 
L 3713 1625 
L 3713 1100 
L 3047 1100 
L 3047 0 
L 2419 0 
L 2419 1100 
L 313 1100 
L 313 1709 
L 2253 4666 
z
" transform="scale(0.015625)"/>
       </defs>
       <use xlink:href="#DejaVuSans-30"/>
       <use xlink:href="#DejaVuSans-2e" x="63.623047"/>
       <use xlink:href="#DejaVuSans-34" x="95.410156"/>
      </g>
     </g>
    </g>
    <g id="xtick_5">
     <g id="line2d_5">
      <g>
       <use xlink:href="#mb751292391" x="236.563278" y="318.2" style="stroke: #000000; stroke-width: 0.8"/>
      </g>
     </g>
     <g id="text_5">
      <!-- 0.6 -->
      <g transform="translate(228.611715 332.798438)scale(0.1 -0.1)">
       <defs>
        <path id="DejaVuSans-36" d="M 2113 2584 
Q 1688 2584 1439 2293 
Q 1191 2003 1191 1497 
Q 1191 994 1439 701 
Q 1688 409 2113 409 
Q 2538 409 2786 701 
Q 3034 994 3034 1497 
Q 3034 2003 2786 2293 
Q 2538 2584 2113 2584 
z
M 3366 4563 
L 3366 3988 
Q 3128 4100 2886 4159 
Q 2644 4219 2406 4219 
Q 1781 4219 1451 3797 
Q 1122 3375 1075 2522 
Q 1259 2794 1537 2939 
Q 1816 3084 2150 3084 
Q 2853 3084 3261 2657 
Q 3669 2231 3669 1497 
Q 3669 778 3244 343 
Q 2819 -91 2113 -91 
Q 1303 -91 875 529 
Q 447 1150 447 2328 
Q 447 3434 972 4092 
Q 1497 4750 2381 4750 
Q 2619 4750 2861 4703 
Q 3103 4656 3366 4563 
z
" transform="scale(0.015625)"/>
       </defs>
       <use xlink:href="#DejaVuSans-30"/>
       <use xlink:href="#DejaVuSans-2e" x="63.623047"/>
       <use xlink:href="#DejaVuSans-36" x="95.410156"/>
      </g>
     </g>
    </g>
    <g id="xtick_6">
     <g id="line2d_6">
      <g>
       <use xlink:href="#mb751292391" x="277.368735" y="318.2" style="stroke: #000000; stroke-width: 0.8"/>
      </g>
     </g>
     <g id="text_6">
      <!-- 0.8 -->
      <g transform="translate(269.417172 332.798438)scale(0.1 -0.1)">
       <defs>
        <path id="DejaVuSans-38" d="M 2034 2216 
Q 1584 2216 1326 1975 
Q 1069 1734 1069 1313 
Q 1069 891 1326 650 
Q 1584 409 2034 409 
Q 2484 409 2743 651 
Q 3003 894 3003 1313 
Q 3003 1734 2745 1975 
Q 2488 2216 2034 2216 
z
M 1403 2484 
Q 997 2584 770 2862 
Q 544 3141 544 3541 
Q 544 4100 942 4425 
Q 1341 4750 2034 4750 
Q 2731 4750 3128 4425 
Q 3525 4100 3525 3541 
Q 3525 3141 3298 2862 
Q 3072 2584 2669 2484 
Q 3125 2378 3379 2068 
Q 3634 1759 3634 1313 
Q 3634 634 3220 271 
Q 2806 -91 2034 -91 
Q 1263 -91 848 271 
Q 434 634 434 1313 
Q 434 1759 690 2068 
Q 947 2378 1403 2484 
z
M 1172 3481 
Q 1172 3119 1398 2916 
Q 1625 2713 2034 2713 
Q 2441 2713 2670 2916 
Q 2900 3119 2900 3481 
Q 2900 3844 2670 4047 
Q 2441 4250 2034 4250 
Q 1625 4250 1398 4047 
Q 1172 3844 1172 3481 
z
" transform="scale(0.015625)"/>
       </defs>
       <use xlink:href="#DejaVuSans-30"/>
       <use xlink:href="#DejaVuSans-2e" x="63.623047"/>
       <use xlink:href="#DejaVuSans-38" x="95.410156"/>
      </g>
     </g>
    </g>
    <g id="xtick_7">
     <g id="line2d_7">
      <g>
       <use xlink:href="#mb751292391" x="318.174192" y="318.2" style="stroke: #000000; stroke-width: 0.8"/>
      </g>
     </g>
     <g id="text_7">
      <!-- 1.0 -->
      <g transform="translate(310.222629 332.798438)scale(0.1 -0.1)">
       <defs>
        <path id="DejaVuSans-31" d="M 794 531 
L 1825 531 
L 1825 4091 
L 703 3866 
L 703 4441 
L 1819 4666 
L 2450 4666 
L 2450 531 
L 3481 531 
L 3481 0 
L 794 0 
L 794 531 
z
" transform="scale(0.015625)"/>
       </defs>
       <use xlink:href="#DejaVuSans-31"/>
       <use xlink:href="#DejaVuSans-2e" x="63.623047"/>
       <use xlink:href="#DejaVuSans-30" x="95.410156"/>
      </g>
     </g>
    </g>
    <g id="xtick_8">
     <g id="line2d_8">
      <g>
       <use xlink:href="#mb751292391" x="358.979649" y="318.2" style="stroke: #000000; stroke-width: 0.8"/>
      </g>
     </g>
     <g id="text_8">
      <!-- 1.2 -->
      <g transform="translate(351.028086 332.798438)scale(0.1 -0.1)">
       <use xlink:href="#DejaVuSans-31"/>
       <use xlink:href="#DejaVuSans-2e" x="63.623047"/>
       <use xlink:href="#DejaVuSans-32" x="95.410156"/>
      </g>
     </g>
    </g>
    <g id="text_9">
     <!-- rate -->
     <g transform="translate(208.63375 346.476562)scale(0.1 -0.1)">
      <defs>
       <path id="DejaVuSans-72" d="M 2631 2963 
Q 2534 3019 2420 3045 
Q 2306 3072 2169 3072 
Q 1681 3072 1420 2755 
Q 1159 2438 1159 1844 
L 1159 0 
L 581 0 
L 581 3500 
L 1159 3500 
L 1159 2956 
Q 1341 3275 1631 3429 
Q 1922 3584 2338 3584 
Q 2397 3584 2469 3576 
Q 2541 3569 2628 3553 
L 2631 2963 
z
" transform="scale(0.015625)"/>
       <path id="DejaVuSans-61" d="M 2194 1759 
Q 1497 1759 1228 1600 
Q 959 1441 959 1056 
Q 959 750 1161 570 
Q 1363 391 1709 391 
Q 2188 391 2477 730 
Q 2766 1069 2766 1631 
L 2766 1759 
L 2194 1759 
z
M 3341 1997 
L 3341 0 
L 2766 0 
L 2766 531 
Q 2569 213 2275 61 
Q 1981 -91 1556 -91 
Q 1019 -91 701 211 
Q 384 513 384 1019 
Q 384 1609 779 1909 
Q 1175 2209 1959 2209 
L 2766 2209 
L 2766 2266 
Q 2766 2663 2505 2880 
Q 2244 3097 1772 3097 
Q 1472 3097 1187 3025 
Q 903 2953 641 2809 
L 641 3341 
Q 956 3463 1253 3523 
Q 1550 3584 1831 3584 
Q 2591 3584 2966 3190 
Q 3341 2797 3341 1997 
z
" transform="scale(0.015625)"/>
       <path id="DejaVuSans-74" d="M 1172 4494 
L 1172 3500 
L 2356 3500 
L 2356 3053 
L 1172 3053 
L 1172 1153 
Q 1172 725 1289 603 
Q 1406 481 1766 481 
L 2356 481 
L 2356 0 
L 1766 0 
Q 1100 0 847 248 
Q 594 497 594 1153 
L 594 3053 
L 172 3053 
L 172 3500 
L 594 3500 
L 594 4494 
L 1172 4494 
z
" transform="scale(0.015625)"/>
       <path id="DejaVuSans-65" d="M 3597 1894 
L 3597 1613 
L 953 1613 
Q 991 1019 1311 708 
Q 1631 397 2203 397 
Q 2534 397 2845 478 
Q 3156 559 3463 722 
L 3463 178 
Q 3153 47 2828 -22 
Q 2503 -91 2169 -91 
Q 1331 -91 842 396 
Q 353 884 353 1716 
Q 353 2575 817 3079 
Q 1281 3584 2069 3584 
Q 2775 3584 3186 3129 
Q 3597 2675 3597 1894 
z
M 3022 2063 
Q 3016 2534 2758 2815 
Q 2500 3097 2075 3097 
Q 1594 3097 1305 2825 
Q 1016 2553 972 2059 
L 3022 2063 
z
" transform="scale(0.015625)"/>
      </defs>
      <use xlink:href="#DejaVuSans-72"/>
      <use xlink:href="#DejaVuSans-61" x="41.113281"/>
      <use xlink:href="#DejaVuSans-74" x="102.392578"/>
      <use xlink:href="#DejaVuSans-65" x="141.601562"/>
     </g>
    </g>
   </g>
   <g id="matplotlib.axis_2">
    <g id="ytick_1">
     <g id="line2d_9">
      <defs>
       <path id="m8cb2665171" d="M 0 0 
L -3.5 0 
" style="stroke: #000000; stroke-width: 0.8"/>
      </defs>
      <g>
       <use xlink:href="#m8cb2665171" x="54.175" y="318.2" style="stroke: #000000; stroke-width: 0.8"/>
      </g>
     </g>
     <g id="text_10">
      <!-- 0.00 -->
      <g transform="translate(24.909375 321.999219)scale(0.1 -0.1)">
       <use xlink:href="#DejaVuSans-30"/>
       <use xlink:href="#DejaVuSans-2e" x="63.623047"/>
       <use xlink:href="#DejaVuSans-30" x="95.410156"/>
       <use xlink:href="#DejaVuSans-30" x="159.033203"/>
      </g>
     </g>
    </g>
    <g id="ytick_2">
     <g id="line2d_10">
      <g>
       <use xlink:href="#m8cb2665171" x="54.175" y="279.687039" style="stroke: #000000; stroke-width: 0.8"/>
      </g>
     </g>
     <g id="text_11">
      <!-- 0.05 -->
      <g transform="translate(24.909375 283.486258)scale(0.1 -0.1)">
       <defs>
        <path id="DejaVuSans-35" d="M 691 4666 
L 3169 4666 
L 3169 4134 
L 1269 4134 
L 1269 2991 
Q 1406 3038 1543 3061 
Q 1681 3084 1819 3084 
Q 2600 3084 3056 2656 
Q 3513 2228 3513 1497 
Q 3513 744 3044 326 
Q 2575 -91 1722 -91 
Q 1428 -91 1123 -41 
Q 819 9 494 109 
L 494 744 
Q 775 591 1075 516 
Q 1375 441 1709 441 
Q 2250 441 2565 725 
Q 2881 1009 2881 1497 
Q 2881 1984 2565 2268 
Q 2250 2553 1709 2553 
Q 1456 2553 1204 2497 
Q 953 2441 691 2322 
L 691 4666 
z
" transform="scale(0.015625)"/>
       </defs>
       <use xlink:href="#DejaVuSans-30"/>
       <use xlink:href="#DejaVuSans-2e" x="63.623047"/>
       <use xlink:href="#DejaVuSans-30" x="95.410156"/>
       <use xlink:href="#DejaVuSans-35" x="159.033203"/>
      </g>
     </g>
    </g>
    <g id="ytick_3">
     <g id="line2d_11">
      <g>
       <use xlink:href="#m8cb2665171" x="54.175" y="241.174078" style="stroke: #000000; stroke-width: 0.8"/>
      </g>
     </g>
     <g id="text_12">
      <!-- 0.10 -->
      <g transform="translate(24.909375 244.973297)scale(0.1 -0.1)">
       <use xlink:href="#DejaVuSans-30"/>
       <use xlink:href="#DejaVuSans-2e" x="63.623047"/>
       <use xlink:href="#DejaVuSans-31" x="95.410156"/>
       <use xlink:href="#DejaVuSans-30" x="159.033203"/>
      </g>
     </g>
    </g>
    <g id="ytick_4">
     <g id="line2d_12">
      <g>
       <use xlink:href="#m8cb2665171" x="54.175" y="202.661118" style="stroke: #000000; stroke-width: 0.8"/>
      </g>
     </g>
     <g id="text_13">
      <!-- 0.15 -->
      <g transform="translate(24.909375 206.460336)scale(0.1 -0.1)">
       <use xlink:href="#DejaVuSans-30"/>
       <use xlink:href="#DejaVuSans-2e" x="63.623047"/>
       <use xlink:href="#DejaVuSans-31" x="95.410156"/>
       <use xlink:href="#DejaVuSans-35" x="159.033203"/>
      </g>
     </g>
    </g>
    <g id="ytick_5">
     <g id="line2d_13">
      <g>
       <use xlink:href="#m8cb2665171" x="54.175" y="164.148157" style="stroke: #000000; stroke-width: 0.8"/>
      </g>
     </g>
     <g id="text_14">
      <!-- 0.20 -->
      <g transform="translate(24.909375 167.947375)scale(0.1 -0.1)">
       <use xlink:href="#DejaVuSans-30"/>
       <use xlink:href="#DejaVuSans-2e" x="63.623047"/>
       <use xlink:href="#DejaVuSans-32" x="95.410156"/>
       <use xlink:href="#DejaVuSans-30" x="159.033203"/>
      </g>
     </g>
    </g>
    <g id="ytick_6">
     <g id="line2d_14">
      <g>
       <use xlink:href="#m8cb2665171" x="54.175" y="125.635196" style="stroke: #000000; stroke-width: 0.8"/>
      </g>
     </g>
     <g id="text_15">
      <!-- 0.25 -->
      <g transform="translate(24.909375 129.434415)scale(0.1 -0.1)">
       <use xlink:href="#DejaVuSans-30"/>
       <use xlink:href="#DejaVuSans-2e" x="63.623047"/>
       <use xlink:href="#DejaVuSans-32" x="95.410156"/>
       <use xlink:href="#DejaVuSans-35" x="159.033203"/>
      </g>
     </g>
    </g>
    <g id="ytick_7">
     <g id="line2d_15">
      <g>
       <use xlink:href="#m8cb2665171" x="54.175" y="87.122235" style="stroke: #000000; stroke-width: 0.8"/>
      </g>
     </g>
     <g id="text_16">
      <!-- 0.30 -->
      <g transform="translate(24.909375 90.921454)scale(0.1 -0.1)">
       <defs>
        <path id="DejaVuSans-33" d="M 2597 2516 
Q 3050 2419 3304 2112 
Q 3559 1806 3559 1356 
Q 3559 666 3084 287 
Q 2609 -91 1734 -91 
Q 1441 -91 1130 -33 
Q 819 25 488 141 
L 488 750 
Q 750 597 1062 519 
Q 1375 441 1716 441 
Q 2309 441 2620 675 
Q 2931 909 2931 1356 
Q 2931 1769 2642 2001 
Q 2353 2234 1838 2234 
L 1294 2234 
L 1294 2753 
L 1863 2753 
Q 2328 2753 2575 2939 
Q 2822 3125 2822 3475 
Q 2822 3834 2567 4026 
Q 2313 4219 1838 4219 
Q 1578 4219 1281 4162 
Q 984 4106 628 3988 
L 628 4550 
Q 988 4650 1302 4700 
Q 1616 4750 1894 4750 
Q 2613 4750 3031 4423 
Q 3450 4097 3450 3541 
Q 3450 3153 3228 2886 
Q 3006 2619 2597 2516 
z
" transform="scale(0.015625)"/>
       </defs>
       <use xlink:href="#DejaVuSans-30"/>
       <use xlink:href="#DejaVuSans-2e" x="63.623047"/>
       <use xlink:href="#DejaVuSans-33" x="95.410156"/>
       <use xlink:href="#DejaVuSans-30" x="159.033203"/>
      </g>
     </g>
    </g>
    <g id="ytick_8">
     <g id="line2d_16">
      <g>
       <use xlink:href="#m8cb2665171" x="54.175" y="48.609274" style="stroke: #000000; stroke-width: 0.8"/>
      </g>
     </g>
     <g id="text_17">
      <!-- 0.35 -->
      <g transform="translate(24.909375 52.408493)scale(0.1 -0.1)">
       <use xlink:href="#DejaVuSans-30"/>
       <use xlink:href="#DejaVuSans-2e" x="63.623047"/>
       <use xlink:href="#DejaVuSans-33" x="95.410156"/>
       <use xlink:href="#DejaVuSans-35" x="159.033203"/>
      </g>
     </g>
    </g>
    <g id="text_18">
     <!-- Density -->
     <g transform="translate(18.829687 190.508594)rotate(-90)scale(0.1 -0.1)">
      <defs>
       <path id="DejaVuSans-44" d="M 1259 4147 
L 1259 519 
L 2022 519 
Q 2988 519 3436 956 
Q 3884 1394 3884 2338 
Q 3884 3275 3436 3711 
Q 2988 4147 2022 4147 
L 1259 4147 
z
M 628 4666 
L 1925 4666 
Q 3281 4666 3915 4102 
Q 4550 3538 4550 2338 
Q 4550 1131 3912 565 
Q 3275 0 1925 0 
L 628 0 
L 628 4666 
z
" transform="scale(0.015625)"/>
       <path id="DejaVuSans-6e" d="M 3513 2113 
L 3513 0 
L 2938 0 
L 2938 2094 
Q 2938 2591 2744 2837 
Q 2550 3084 2163 3084 
Q 1697 3084 1428 2787 
Q 1159 2491 1159 1978 
L 1159 0 
L 581 0 
L 581 3500 
L 1159 3500 
L 1159 2956 
Q 1366 3272 1645 3428 
Q 1925 3584 2291 3584 
Q 2894 3584 3203 3211 
Q 3513 2838 3513 2113 
z
" transform="scale(0.015625)"/>
       <path id="DejaVuSans-73" d="M 2834 3397 
L 2834 2853 
Q 2591 2978 2328 3040 
Q 2066 3103 1784 3103 
Q 1356 3103 1142 2972 
Q 928 2841 928 2578 
Q 928 2378 1081 2264 
Q 1234 2150 1697 2047 
L 1894 2003 
Q 2506 1872 2764 1633 
Q 3022 1394 3022 966 
Q 3022 478 2636 193 
Q 2250 -91 1575 -91 
Q 1294 -91 989 -36 
Q 684 19 347 128 
L 347 722 
Q 666 556 975 473 
Q 1284 391 1588 391 
Q 1994 391 2212 530 
Q 2431 669 2431 922 
Q 2431 1156 2273 1281 
Q 2116 1406 1581 1522 
L 1381 1569 
Q 847 1681 609 1914 
Q 372 2147 372 2553 
Q 372 3047 722 3315 
Q 1072 3584 1716 3584 
Q 2034 3584 2315 3537 
Q 2597 3491 2834 3397 
z
" transform="scale(0.015625)"/>
       <path id="DejaVuSans-69" d="M 603 3500 
L 1178 3500 
L 1178 0 
L 603 0 
L 603 3500 
z
M 603 4863 
L 1178 4863 
L 1178 4134 
L 603 4134 
L 603 4863 
z
" transform="scale(0.015625)"/>
       <path id="DejaVuSans-79" d="M 2059 -325 
Q 1816 -950 1584 -1140 
Q 1353 -1331 966 -1331 
L 506 -1331 
L 506 -850 
L 844 -850 
Q 1081 -850 1212 -737 
Q 1344 -625 1503 -206 
L 1606 56 
L 191 3500 
L 800 3500 
L 1894 763 
L 2988 3500 
L 3597 3500 
L 2059 -325 
z
" transform="scale(0.015625)"/>
      </defs>
      <use xlink:href="#DejaVuSans-44"/>
      <use xlink:href="#DejaVuSans-65" x="77.001953"/>
      <use xlink:href="#DejaVuSans-6e" x="138.525391"/>
      <use xlink:href="#DejaVuSans-73" x="201.904297"/>
      <use xlink:href="#DejaVuSans-69" x="254.003906"/>
      <use xlink:href="#DejaVuSans-74" x="281.787109"/>
      <use xlink:href="#DejaVuSans-79" x="320.996094"/>
     </g>
    </g>
   </g>
   <g id="line2d_17">
    <path d="M 80.767861 316.439522 
L 82.156481 315.658151 
L 83.5451 314.586271 
L 84.93372 313.141086 
L 86.322339 311.22626 
L 87.710959 308.733401 
L 89.099578 305.545142 
L 90.488198 301.540042 
L 91.876817 296.599413 
L 93.265437 290.615945 
L 94.654056 283.503763 
L 96.042676 275.209243 
L 97.431295 265.721661 
L 99.514225 249.360115 
L 101.597154 230.813598 
L 105.068703 197.068896 
L 108.540251 163.954917 
L 110.623181 146.549046 
L 112.0118 136.562419 
L 113.40042 128.096207 
L 114.789039 121.255995 
L 116.177659 116.063089 
L 116.871968 114.068578 
L 117.566278 112.457512 
L 118.260588 111.211347 
L 118.954898 110.308041 
L 119.649207 109.72267 
L 120.343517 109.428077 
L 121.037827 109.395555 
L 121.732137 109.595535 
L 122.426446 109.998272 
L 123.120756 110.574499 
L 124.509376 112.136372 
L 125.897995 114.078386 
L 128.675234 118.501181 
L 132.841093 125.546726 
L 134.924022 129.422504 
L 137.006951 133.899769 
L 138.395571 137.375757 
L 139.78419 141.336978 
L 141.17281 145.835786 
L 142.561429 150.893117 
L 144.644358 159.485123 
L 146.727288 169.094735 
L 150.893146 189.828674 
L 153.670385 203.210295 
L 155.753314 212.231381 
L 157.836244 220.023608 
L 159.224863 224.459095 
L 160.613483 228.286945 
L 162.002102 231.546453 
L 163.390722 234.307064 
L 164.779341 236.661608 
L 166.86227 239.670556 
L 171.722439 246.188234 
L 173.805368 249.497645 
L 175.888297 253.371768 
L 177.971226 257.844085 
L 180.054156 262.856001 
L 182.831395 270.15399 
L 190.468802 290.688802 
L 192.551731 295.655798 
L 194.63466 300.129519 
L 196.71759 304.048135 
L 198.800519 307.384418 
L 200.883448 310.143211 
L 202.272068 311.676582 
L 203.660687 312.982289 
L 205.049307 314.078628 
L 207.132236 315.375744 
L 209.215165 316.321354 
L 211.298095 316.987961 
L 213.381024 317.442094 
L 216.158263 317.814358 
L 218.935502 318.014801 
L 218.935502 318.014801 
" clip-path="url(#p29d3d6d670)" style="fill: none; stroke: #2ca02c; stroke-width: 1.5; stroke-linecap: square"/>
   </g>
   <g id="line2d_18">
    <path d="M 86.938149 317.87304 
L 90.082494 317.517297 
L 92.440753 317.060293 
L 94.799011 316.360297 
L 96.371184 315.714805 
L 97.943356 314.891515 
L 99.515529 313.858625 
L 101.087701 312.583862 
L 102.659873 311.036031 
L 104.232046 309.18678 
L 105.804218 307.012471 
L 107.376391 304.495986 
L 108.948563 301.628288 
L 110.520736 298.40954 
L 112.878994 292.947486 
L 115.237253 286.792801 
L 117.595512 280.057238 
L 120.739856 270.406627 
L 125.456374 255.115702 
L 132.53115 231.409183 
L 137.247667 214.85248 
L 141.178098 200.191591 
L 146.680702 178.548517 
L 150.611133 163.447721 
L 152.969391 155.280915 
L 154.541564 150.472336 
L 156.113736 146.323836 
L 157.685909 142.956151 
L 158.471995 141.59858 
L 159.258081 140.473687 
L 160.044167 139.590793 
L 160.830254 138.957352 
L 161.61634 138.578787 
L 162.402426 138.458358 
L 163.188512 138.59705 
L 163.974599 138.993505 
L 164.760685 139.643978 
L 165.546771 140.542336 
L 166.332857 141.680085 
L 167.90503 144.628441 
L 169.477202 148.377407 
L 171.049375 152.785553 
L 173.407633 160.270006 
L 179.696323 181.082407 
L 181.268495 185.611133 
L 182.840668 189.644369 
L 184.41284 193.134216 
L 185.985013 196.075717 
L 187.557185 198.506587 
L 189.129358 200.504183 
L 190.70153 202.179862 
L 196.204134 207.612444 
L 197.776306 209.678764 
L 199.348478 212.225113 
L 200.920651 215.347622 
L 202.492823 219.106306 
L 204.064996 223.521373 
L 205.637168 228.572449 
L 207.995427 237.203529 
L 210.353686 246.792254 
L 218.214548 279.744739 
L 220.572806 288.242466 
L 222.144979 293.269179 
L 223.717151 297.740512 
L 225.289324 301.645822 
L 226.861496 304.995871 
L 228.433669 307.818926 
L 230.005841 310.156372 
L 231.578013 312.058268 
L 233.150186 313.579219 
L 234.722358 314.774799 
L 236.294531 315.698694 
L 237.866703 316.40061 
L 240.224962 317.132744 
L 242.583221 317.58824 
L 243.369307 317.695677 
L 243.369307 317.695677 
" clip-path="url(#p29d3d6d670)" style="fill: none; stroke: #ff7f0e; stroke-width: 1.5; stroke-linecap: square"/>
   </g>
   <g id="line2d_19">
    <path d="M 126.45286 318.062292 
L 131.986047 317.826936 
L 136.412596 317.432788 
L 139.732509 316.938808 
L 143.052421 316.201702 
L 145.265695 315.538214 
L 147.47897 314.710182 
L 149.692245 313.695465 
L 151.90552 312.474382 
L 154.118794 311.031392 
L 156.332069 309.356796 
L 158.545344 307.448307 
L 160.758618 305.312311 
L 164.07853 301.719043 
L 167.398443 297.745257 
L 172.931629 290.657142 
L 178.464816 283.642927 
L 181.784728 279.743896 
L 185.10464 276.164419 
L 188.424552 272.877106 
L 196.171014 265.46667 
L 198.384289 263.075553 
L 200.597563 260.398507 
L 202.810838 257.350546 
L 205.024113 253.861131 
L 207.237388 249.881677 
L 209.450662 245.39194 
L 211.663937 240.404666 
L 213.877212 234.967961 
L 217.197124 226.161117 
L 224.943585 204.93918 
L 227.15686 199.427027 
L 229.370135 194.449076 
L 231.58341 190.13225 
L 233.796684 186.570832 
L 234.903322 185.092464 
L 236.009959 183.820734 
L 237.116596 182.756242 
L 238.223234 181.897082 
L 239.329871 181.238976 
L 240.436508 180.775444 
L 241.543146 180.49804 
L 242.649783 180.396612 
L 243.756421 180.459616 
L 244.863058 180.674444 
L 245.969695 181.027773 
L 248.18297 182.095202 
L 250.396245 183.55441 
L 252.609519 185.308089 
L 255.929432 188.325081 
L 259.249344 191.6721 
L 262.569256 195.318586 
L 265.889168 199.342 
L 268.102442 202.301691 
L 270.315717 205.536308 
L 272.528992 209.086269 
L 274.742267 212.981567 
L 276.955541 217.238093 
L 279.168816 221.855674 
L 282.488728 229.418341 
L 285.80864 237.632264 
L 290.23519 249.272525 
L 299.088289 272.777549 
L 302.408201 280.908519 
L 305.728113 288.331363 
L 307.941388 292.810031 
L 310.154662 296.876664 
L 312.367937 300.514704 
L 314.581212 303.720293 
L 316.794486 306.501441 
L 319.007761 308.876604 
L 321.221036 310.872795 
L 323.434311 312.52341 
L 325.647585 313.865958 
L 327.86086 314.939868 
L 330.074135 315.784528 
L 332.287409 316.437662 
L 335.607322 317.133438 
L 338.927234 317.577214 
L 343.353783 317.912809 
L 346.673695 318.046093 
L 346.673695 318.046093 
" clip-path="url(#p29d3d6d670)" style="fill: none; stroke: #1f77b4; stroke-width: 1.5; stroke-linecap: square"/>
   </g>
   <g id="patch_3">
    <path d="M 54.175 318.2 
L 54.175 24.8 
" style="fill: none; stroke: #000000; stroke-width: 0.8; stroke-linejoin: miter; stroke-linecap: square"/>
   </g>
   <g id="patch_4">
    <path d="M 54.175 318.2 
L 383.405 318.2 
" style="fill: none; stroke: #000000; stroke-width: 0.8; stroke-linejoin: miter; stroke-linecap: square"/>
   </g>
   <g id="text_19">
    <!-- set = 0 1 3 5 8 -->
    <g transform="translate(181.518125 18.8)scale(0.1 -0.1)">
     <defs>
      <path id="DejaVuSans-20" transform="scale(0.015625)"/>
      <path id="DejaVuSans-3d" d="M 678 2906 
L 4684 2906 
L 4684 2381 
L 678 2381 
L 678 2906 
z
M 678 1631 
L 4684 1631 
L 4684 1100 
L 678 1100 
L 678 1631 
z
" transform="scale(0.015625)"/>
     </defs>
     <use xlink:href="#DejaVuSans-73"/>
     <use xlink:href="#DejaVuSans-65" x="52.099609"/>
     <use xlink:href="#DejaVuSans-74" x="113.623047"/>
     <use xlink:href="#DejaVuSans-20" x="152.832031"/>
     <use xlink:href="#DejaVuSans-3d" x="184.619141"/>
     <use xlink:href="#DejaVuSans-20" x="268.408203"/>
     <use xlink:href="#DejaVuSans-30" x="300.195312"/>
     <use xlink:href="#DejaVuSans-20" x="363.818359"/>
     <use xlink:href="#DejaVuSans-31" x="395.605469"/>
     <use xlink:href="#DejaVuSans-20" x="459.228516"/>
     <use xlink:href="#DejaVuSans-33" x="491.015625"/>
     <use xlink:href="#DejaVuSans-20" x="554.638672"/>
     <use xlink:href="#DejaVuSans-35" x="586.425781"/>
     <use xlink:href="#DejaVuSans-20" x="650.048828"/>
     <use xlink:href="#DejaVuSans-38" x="681.835938"/>
    </g>
   </g>
  </g>
  <g id="axes_2">
   <g id="patch_5">
    <path d="M 397.705 318.2 
L 726.935 318.2 
L 726.935 24.8 
L 397.705 24.8 
z
" style="fill: #ffffff"/>
   </g>
   <g id="matplotlib.axis_3">
    <g id="xtick_9">
     <g id="line2d_20">
      <g>
       <use xlink:href="#mb751292391" x="416.87145" y="318.2" style="stroke: #000000; stroke-width: 0.8"/>
      </g>
     </g>
     <g id="text_20">
      <!-- −0.2 -->
      <g transform="translate(404.730043 332.798438)scale(0.1 -0.1)">
       <use xlink:href="#DejaVuSans-2212"/>
       <use xlink:href="#DejaVuSans-30" x="83.789062"/>
       <use xlink:href="#DejaVuSans-2e" x="147.412109"/>
       <use xlink:href="#DejaVuSans-32" x="179.199219"/>
      </g>
     </g>
    </g>
    <g id="xtick_10">
     <g id="line2d_21">
      <g>
       <use xlink:href="#mb751292391" x="457.676907" y="318.2" style="stroke: #000000; stroke-width: 0.8"/>
      </g>
     </g>
     <g id="text_21">
      <!-- 0.0 -->
      <g transform="translate(449.725344 332.798438)scale(0.1 -0.1)">
       <use xlink:href="#DejaVuSans-30"/>
       <use xlink:href="#DejaVuSans-2e" x="63.623047"/>
       <use xlink:href="#DejaVuSans-30" x="95.410156"/>
      </g>
     </g>
    </g>
    <g id="xtick_11">
     <g id="line2d_22">
      <g>
       <use xlink:href="#mb751292391" x="498.482364" y="318.2" style="stroke: #000000; stroke-width: 0.8"/>
      </g>
     </g>
     <g id="text_22">
      <!-- 0.2 -->
      <g transform="translate(490.530801 332.798438)scale(0.1 -0.1)">
       <use xlink:href="#DejaVuSans-30"/>
       <use xlink:href="#DejaVuSans-2e" x="63.623047"/>
       <use xlink:href="#DejaVuSans-32" x="95.410156"/>
      </g>
     </g>
    </g>
    <g id="xtick_12">
     <g id="line2d_23">
      <g>
       <use xlink:href="#mb751292391" x="539.287821" y="318.2" style="stroke: #000000; stroke-width: 0.8"/>
      </g>
     </g>
     <g id="text_23">
      <!-- 0.4 -->
      <g transform="translate(531.336258 332.798438)scale(0.1 -0.1)">
       <use xlink:href="#DejaVuSans-30"/>
       <use xlink:href="#DejaVuSans-2e" x="63.623047"/>
       <use xlink:href="#DejaVuSans-34" x="95.410156"/>
      </g>
     </g>
    </g>
    <g id="xtick_13">
     <g id="line2d_24">
      <g>
       <use xlink:href="#mb751292391" x="580.093278" y="318.2" style="stroke: #000000; stroke-width: 0.8"/>
      </g>
     </g>
     <g id="text_24">
      <!-- 0.6 -->
      <g transform="translate(572.141715 332.798438)scale(0.1 -0.1)">
       <use xlink:href="#DejaVuSans-30"/>
       <use xlink:href="#DejaVuSans-2e" x="63.623047"/>
       <use xlink:href="#DejaVuSans-36" x="95.410156"/>
      </g>
     </g>
    </g>
    <g id="xtick_14">
     <g id="line2d_25">
      <g>
       <use xlink:href="#mb751292391" x="620.898735" y="318.2" style="stroke: #000000; stroke-width: 0.8"/>
      </g>
     </g>
     <g id="text_25">
      <!-- 0.8 -->
      <g transform="translate(612.947172 332.798438)scale(0.1 -0.1)">
       <use xlink:href="#DejaVuSans-30"/>
       <use xlink:href="#DejaVuSans-2e" x="63.623047"/>
       <use xlink:href="#DejaVuSans-38" x="95.410156"/>
      </g>
     </g>
    </g>
    <g id="xtick_15">
     <g id="line2d_26">
      <g>
       <use xlink:href="#mb751292391" x="661.704192" y="318.2" style="stroke: #000000; stroke-width: 0.8"/>
      </g>
     </g>
     <g id="text_26">
      <!-- 1.0 -->
      <g transform="translate(653.752629 332.798438)scale(0.1 -0.1)">
       <use xlink:href="#DejaVuSans-31"/>
       <use xlink:href="#DejaVuSans-2e" x="63.623047"/>
       <use xlink:href="#DejaVuSans-30" x="95.410156"/>
      </g>
     </g>
    </g>
    <g id="xtick_16">
     <g id="line2d_27">
      <g>
       <use xlink:href="#mb751292391" x="702.509649" y="318.2" style="stroke: #000000; stroke-width: 0.8"/>
      </g>
     </g>
     <g id="text_27">
      <!-- 1.2 -->
      <g transform="translate(694.558086 332.798438)scale(0.1 -0.1)">
       <use xlink:href="#DejaVuSans-31"/>
       <use xlink:href="#DejaVuSans-2e" x="63.623047"/>
       <use xlink:href="#DejaVuSans-32" x="95.410156"/>
      </g>
     </g>
    </g>
    <g id="text_28">
     <!-- rate -->
     <g transform="translate(552.16375 346.476562)scale(0.1 -0.1)">
      <use xlink:href="#DejaVuSans-72"/>
      <use xlink:href="#DejaVuSans-61" x="41.113281"/>
      <use xlink:href="#DejaVuSans-74" x="102.392578"/>
      <use xlink:href="#DejaVuSans-65" x="141.601562"/>
     </g>
    </g>
   </g>
   <g id="matplotlib.axis_4">
    <g id="ytick_9">
     <g id="line2d_28">
      <g>
       <use xlink:href="#m8cb2665171" x="397.705" y="318.2" style="stroke: #000000; stroke-width: 0.8"/>
      </g>
     </g>
    </g>
    <g id="ytick_10">
     <g id="line2d_29">
      <g>
       <use xlink:href="#m8cb2665171" x="397.705" y="279.687039" style="stroke: #000000; stroke-width: 0.8"/>
      </g>
     </g>
    </g>
    <g id="ytick_11">
     <g id="line2d_30">
      <g>
       <use xlink:href="#m8cb2665171" x="397.705" y="241.174078" style="stroke: #000000; stroke-width: 0.8"/>
      </g>
     </g>
    </g>
    <g id="ytick_12">
     <g id="line2d_31">
      <g>
       <use xlink:href="#m8cb2665171" x="397.705" y="202.661118" style="stroke: #000000; stroke-width: 0.8"/>
      </g>
     </g>
    </g>
    <g id="ytick_13">
     <g id="line2d_32">
      <g>
       <use xlink:href="#m8cb2665171" x="397.705" y="164.148157" style="stroke: #000000; stroke-width: 0.8"/>
      </g>
     </g>
    </g>
    <g id="ytick_14">
     <g id="line2d_33">
      <g>
       <use xlink:href="#m8cb2665171" x="397.705" y="125.635196" style="stroke: #000000; stroke-width: 0.8"/>
      </g>
     </g>
    </g>
    <g id="ytick_15">
     <g id="line2d_34">
      <g>
       <use xlink:href="#m8cb2665171" x="397.705" y="87.122235" style="stroke: #000000; stroke-width: 0.8"/>
      </g>
     </g>
    </g>
    <g id="ytick_16">
     <g id="line2d_35">
      <g>
       <use xlink:href="#m8cb2665171" x="397.705" y="48.609274" style="stroke: #000000; stroke-width: 0.8"/>
      </g>
     </g>
    </g>
   </g>
   <g id="line2d_36">
    <path d="M 423.242288 315.964047 
L 424.79782 314.867349 
L 426.353352 313.321878 
L 427.908885 311.187574 
L 429.464417 308.299506 
L 431.019949 304.470911 
L 432.575482 299.499642 
L 434.131014 293.178524 
L 435.686546 285.309737 
L 437.242078 275.722803 
L 438.797611 264.295118 
L 440.353143 250.973273 
L 441.908675 235.792847 
L 444.241974 209.874841 
L 446.575272 181.067135 
L 452.019635 111.670883 
L 453.575167 93.889047 
L 455.1307 78.049433 
L 456.686232 64.596278 
L 458.241764 53.849802 
L 459.019531 49.552608 
L 459.797297 45.986491 
L 460.575063 43.149975 
L 461.352829 41.032522 
L 462.130595 39.615041 
L 462.908361 38.87057 
L 463.686127 38.765102 
L 464.463894 39.258528 
L 465.24166 40.305658 
L 466.019426 41.857299 
L 466.797192 43.861349 
L 468.352724 49.010187 
L 469.908257 55.317134 
L 472.241555 66.044 
L 476.908152 87.910126 
L 479.24145 97.5277 
L 480.796983 103.188115 
L 482.352515 108.216561 
L 483.908047 112.635549 
L 485.463579 116.503239 
L 487.019112 119.906905 
L 489.35241 124.388307 
L 494.796773 134.265693 
L 496.352305 137.538425 
L 497.907838 141.213253 
L 499.46337 145.358471 
L 501.018902 150.008273 
L 503.352201 157.915814 
L 505.685499 166.801057 
L 508.796564 179.683369 
L 516.574225 212.429802 
L 519.68529 224.499837 
L 522.796354 235.834252 
L 526.685185 249.06981 
L 529.79625 258.892877 
L 532.907314 267.898905 
L 535.240613 274.026494 
L 537.573911 279.579289 
L 539.90721 284.571213 
L 542.240508 289.057915 
L 544.573806 293.119081 
L 547.684871 298.006079 
L 550.795936 302.395698 
L 553.129234 305.374845 
L 555.462532 308.060297 
L 557.795831 310.417199 
L 560.129129 312.417045 
L 562.462428 314.049621 
L 564.795726 315.327902 
L 567.129025 316.286098 
L 569.462323 316.973043 
L 571.795622 317.44383 
L 574.906686 317.827327 
L 578.017751 318.029064 
L 578.017751 318.029064 
" clip-path="url(#p6f8ad55131)" style="fill: none; stroke: #2ca02c; stroke-width: 1.5; stroke-linecap: square"/>
   </g>
   <g id="line2d_37">
    <path d="M 412.67 317.912931 
L 416.077518 317.636565 
L 419.485035 317.145969 
L 421.756714 316.641323 
L 424.028392 315.942496 
L 426.300071 314.996784 
L 428.571749 313.745897 
L 430.843427 312.12847 
L 433.115106 310.08354 
L 435.386784 307.554799 
L 437.658463 304.495222 
L 439.930141 300.871521 
L 442.20182 296.667777 
L 444.473498 291.887611 
L 446.745176 286.554353 
L 449.016855 280.708916 
L 452.424372 271.100919 
L 455.83189 260.668204 
L 459.239408 249.594253 
L 463.782765 234.012523 
L 468.326121 217.478719 
L 471.733639 204.312313 
L 475.141157 190.35995 
L 478.548674 175.58459 
L 483.092031 154.836776 
L 489.907066 123.472688 
L 492.178745 113.748662 
L 494.450423 104.805904 
L 496.722102 96.910911 
L 497.857941 93.437967 
L 498.99378 90.322811 
L 500.129619 87.594456 
L 501.265459 85.279799 
L 502.401298 83.40326 
L 503.537137 81.986441 
L 504.672976 81.047823 
L 505.808815 80.60249 
L 506.944655 80.661895 
L 508.080494 81.233664 
L 509.216333 82.321436 
L 510.352172 83.924753 
L 511.488011 86.038991 
L 512.623851 88.655332 
L 513.75969 91.760796 
L 514.895529 95.33831 
L 516.031368 99.36684 
L 518.303047 108.67409 
L 520.574725 119.442998 
L 522.846404 131.38727 
L 526.253921 150.801299 
L 534.204796 197.227998 
L 536.476474 209.43043 
L 538.748153 220.747146 
L 541.019831 231.046716 
L 543.291509 240.259322 
L 545.563188 248.37205 
L 547.834866 255.419889 
L 550.106545 261.473737 
L 552.378223 266.62705 
L 554.649902 270.982846 
L 556.92158 274.642585 
L 559.193258 277.698087 
L 561.464937 280.227052 
L 563.736615 282.292245 
L 566.008294 283.943827 
L 568.279972 285.224007 
L 570.551651 286.172865 
L 572.823329 286.834208 
L 575.095007 287.26033 
L 578.502525 287.600734 
L 584.181721 288.038529 
L 586.4534 288.419006 
L 588.725078 289.033117 
L 590.996756 289.936019 
L 593.268435 291.158334 
L 595.540113 292.702685 
L 597.811792 294.543398 
L 600.08347 296.629451 
L 603.490988 300.060656 
L 609.170184 305.888542 
L 612.577701 309.030392 
L 614.84938 310.863558 
L 617.121058 312.455594 
L 619.392737 313.799068 
L 621.664415 314.901504 
L 623.936094 315.781733 
L 626.207772 316.465936 
L 629.61529 317.190097 
L 633.022807 317.64068 
L 637.566164 317.964809 
L 638.702003 318.013249 
L 638.702003 318.013249 
" clip-path="url(#p6f8ad55131)" style="fill: none; stroke: #ff7f0e; stroke-width: 1.5; stroke-linecap: square"/>
   </g>
   <g id="line2d_38">
    <path d="M 467.419123 317.981006 
L 472.334719 317.665519 
L 476.021416 317.210692 
L 478.479213 316.74593 
L 480.937011 316.105577 
L 483.394809 315.243325 
L 485.852607 314.108869 
L 488.310404 312.650789 
L 490.768202 310.820572 
L 493.226 308.577584 
L 495.683798 305.894633 
L 498.141595 302.763479 
L 500.599393 299.199549 
L 503.057191 295.244957 
L 506.743887 288.739168 
L 516.575078 270.603693 
L 519.032876 266.513855 
L 521.490674 262.771795 
L 523.948472 259.402838 
L 526.406269 256.387648 
L 528.864067 253.661912 
L 537.466359 244.625073 
L 539.924157 241.543231 
L 542.381955 237.949916 
L 544.839753 233.716289 
L 547.29755 228.746896 
L 549.755348 222.986667 
L 552.213146 216.425317 
L 554.670944 209.099319 
L 557.128741 201.09169 
L 560.815438 188.092035 
L 570.646629 152.364234 
L 573.104427 144.492113 
L 575.562225 137.54334 
L 576.791123 134.486354 
L 578.020022 131.74175 
L 579.248921 129.332085 
L 580.47782 127.277092 
L 581.706719 125.593384 
L 582.935618 124.294192 
L 584.164517 123.389148 
L 585.393416 122.884124 
L 586.622314 122.78112 
L 587.851213 123.078215 
L 589.080112 123.769583 
L 590.309011 124.845573 
L 591.53791 126.292859 
L 592.766809 128.094652 
L 593.995708 130.230983 
L 595.224607 132.679039 
L 597.682404 138.407277 
L 600.140202 145.056097 
L 602.598 152.385989 
L 606.284697 164.13844 
L 613.65809 187.904862 
L 617.344786 199.026907 
L 621.031483 209.40004 
L 624.71818 219.049948 
L 628.404876 228.080695 
L 632.091573 236.602874 
L 635.77827 244.687548 
L 639.464966 252.354334 
L 643.151663 259.587693 
L 646.838359 266.365913 
L 650.525056 272.685597 
L 654.211753 278.570254 
L 657.898449 284.061165 
L 661.585146 289.197303 
L 665.271843 293.995289 
L 668.958539 298.438989 
L 672.645236 302.483036 
L 675.103034 304.92773 
L 677.560831 307.151597 
L 680.018629 309.141881 
L 682.476427 310.891757 
L 684.934225 312.401441 
L 687.392022 313.678368 
L 689.84982 314.736539 
L 692.307618 315.595233 
L 694.765416 316.27734 
L 698.452112 317.023594 
L 702.138809 317.511027 
L 707.054404 317.885029 
L 711.97 318.067149 
L 711.97 318.067149 
" clip-path="url(#p6f8ad55131)" style="fill: none; stroke: #1f77b4; stroke-width: 1.5; stroke-linecap: square"/>
   </g>
   <g id="patch_6">
    <path d="M 397.705 318.2 
L 397.705 24.8 
" style="fill: none; stroke: #000000; stroke-width: 0.8; stroke-linejoin: miter; stroke-linecap: square"/>
   </g>
   <g id="patch_7">
    <path d="M 397.705 318.2 
L 726.935 318.2 
" style="fill: none; stroke: #000000; stroke-width: 0.8; stroke-linejoin: miter; stroke-linecap: square"/>
   </g>
   <g id="text_29">
    <!-- set = 0 2 4 7 9 -->
    <g transform="translate(525.048125 18.8)scale(0.1 -0.1)">
     <defs>
      <path id="DejaVuSans-37" d="M 525 4666 
L 3525 4666 
L 3525 4397 
L 1831 0 
L 1172 0 
L 2766 4134 
L 525 4134 
L 525 4666 
z
" transform="scale(0.015625)"/>
      <path id="DejaVuSans-39" d="M 703 97 
L 703 672 
Q 941 559 1184 500 
Q 1428 441 1663 441 
Q 2288 441 2617 861 
Q 2947 1281 2994 2138 
Q 2813 1869 2534 1725 
Q 2256 1581 1919 1581 
Q 1219 1581 811 2004 
Q 403 2428 403 3163 
Q 403 3881 828 4315 
Q 1253 4750 1959 4750 
Q 2769 4750 3195 4129 
Q 3622 3509 3622 2328 
Q 3622 1225 3098 567 
Q 2575 -91 1691 -91 
Q 1453 -91 1209 -44 
Q 966 3 703 97 
z
M 1959 2075 
Q 2384 2075 2632 2365 
Q 2881 2656 2881 3163 
Q 2881 3666 2632 3958 
Q 2384 4250 1959 4250 
Q 1534 4250 1286 3958 
Q 1038 3666 1038 3163 
Q 1038 2656 1286 2365 
Q 1534 2075 1959 2075 
z
" transform="scale(0.015625)"/>
     </defs>
     <use xlink:href="#DejaVuSans-73"/>
     <use xlink:href="#DejaVuSans-65" x="52.099609"/>
     <use xlink:href="#DejaVuSans-74" x="113.623047"/>
     <use xlink:href="#DejaVuSans-20" x="152.832031"/>
     <use xlink:href="#DejaVuSans-3d" x="184.619141"/>
     <use xlink:href="#DejaVuSans-20" x="268.408203"/>
     <use xlink:href="#DejaVuSans-30" x="300.195312"/>
     <use xlink:href="#DejaVuSans-20" x="363.818359"/>
     <use xlink:href="#DejaVuSans-32" x="395.605469"/>
     <use xlink:href="#DejaVuSans-20" x="459.228516"/>
     <use xlink:href="#DejaVuSans-34" x="491.015625"/>
     <use xlink:href="#DejaVuSans-20" x="554.638672"/>
     <use xlink:href="#DejaVuSans-37" x="586.425781"/>
     <use xlink:href="#DejaVuSans-20" x="650.048828"/>
     <use xlink:href="#DejaVuSans-39" x="681.835938"/>
    </g>
   </g>
  </g>
  <g id="axes_3">
   <g id="patch_8">
    <path d="M 741.235 318.2 
L 1070.465 318.2 
L 1070.465 24.8 
L 741.235 24.8 
z
" style="fill: #ffffff"/>
   </g>
   <g id="matplotlib.axis_5">
    <g id="xtick_17">
     <g id="line2d_39">
      <g>
       <use xlink:href="#mb751292391" x="760.40145" y="318.2" style="stroke: #000000; stroke-width: 0.8"/>
      </g>
     </g>
     <g id="text_30">
      <!-- −0.2 -->
      <g transform="translate(748.260043 332.798438)scale(0.1 -0.1)">
       <use xlink:href="#DejaVuSans-2212"/>
       <use xlink:href="#DejaVuSans-30" x="83.789062"/>
       <use xlink:href="#DejaVuSans-2e" x="147.412109"/>
       <use xlink:href="#DejaVuSans-32" x="179.199219"/>
      </g>
     </g>
    </g>
    <g id="xtick_18">
     <g id="line2d_40">
      <g>
       <use xlink:href="#mb751292391" x="801.206907" y="318.2" style="stroke: #000000; stroke-width: 0.8"/>
      </g>
     </g>
     <g id="text_31">
      <!-- 0.0 -->
      <g transform="translate(793.255344 332.798438)scale(0.1 -0.1)">
       <use xlink:href="#DejaVuSans-30"/>
       <use xlink:href="#DejaVuSans-2e" x="63.623047"/>
       <use xlink:href="#DejaVuSans-30" x="95.410156"/>
      </g>
     </g>
    </g>
    <g id="xtick_19">
     <g id="line2d_41">
      <g>
       <use xlink:href="#mb751292391" x="842.012364" y="318.2" style="stroke: #000000; stroke-width: 0.8"/>
      </g>
     </g>
     <g id="text_32">
      <!-- 0.2 -->
      <g transform="translate(834.060801 332.798438)scale(0.1 -0.1)">
       <use xlink:href="#DejaVuSans-30"/>
       <use xlink:href="#DejaVuSans-2e" x="63.623047"/>
       <use xlink:href="#DejaVuSans-32" x="95.410156"/>
      </g>
     </g>
    </g>
    <g id="xtick_20">
     <g id="line2d_42">
      <g>
       <use xlink:href="#mb751292391" x="882.817821" y="318.2" style="stroke: #000000; stroke-width: 0.8"/>
      </g>
     </g>
     <g id="text_33">
      <!-- 0.4 -->
      <g transform="translate(874.866258 332.798438)scale(0.1 -0.1)">
       <use xlink:href="#DejaVuSans-30"/>
       <use xlink:href="#DejaVuSans-2e" x="63.623047"/>
       <use xlink:href="#DejaVuSans-34" x="95.410156"/>
      </g>
     </g>
    </g>
    <g id="xtick_21">
     <g id="line2d_43">
      <g>
       <use xlink:href="#mb751292391" x="923.623278" y="318.2" style="stroke: #000000; stroke-width: 0.8"/>
      </g>
     </g>
     <g id="text_34">
      <!-- 0.6 -->
      <g transform="translate(915.671715 332.798438)scale(0.1 -0.1)">
       <use xlink:href="#DejaVuSans-30"/>
       <use xlink:href="#DejaVuSans-2e" x="63.623047"/>
       <use xlink:href="#DejaVuSans-36" x="95.410156"/>
      </g>
     </g>
    </g>
    <g id="xtick_22">
     <g id="line2d_44">
      <g>
       <use xlink:href="#mb751292391" x="964.428735" y="318.2" style="stroke: #000000; stroke-width: 0.8"/>
      </g>
     </g>
     <g id="text_35">
      <!-- 0.8 -->
      <g transform="translate(956.477172 332.798438)scale(0.1 -0.1)">
       <use xlink:href="#DejaVuSans-30"/>
       <use xlink:href="#DejaVuSans-2e" x="63.623047"/>
       <use xlink:href="#DejaVuSans-38" x="95.410156"/>
      </g>
     </g>
    </g>
    <g id="xtick_23">
     <g id="line2d_45">
      <g>
       <use xlink:href="#mb751292391" x="1005.234192" y="318.2" style="stroke: #000000; stroke-width: 0.8"/>
      </g>
     </g>
     <g id="text_36">
      <!-- 1.0 -->
      <g transform="translate(997.282629 332.798438)scale(0.1 -0.1)">
       <use xlink:href="#DejaVuSans-31"/>
       <use xlink:href="#DejaVuSans-2e" x="63.623047"/>
       <use xlink:href="#DejaVuSans-30" x="95.410156"/>
      </g>
     </g>
    </g>
    <g id="xtick_24">
     <g id="line2d_46">
      <g>
       <use xlink:href="#mb751292391" x="1046.039649" y="318.2" style="stroke: #000000; stroke-width: 0.8"/>
      </g>
     </g>
     <g id="text_37">
      <!-- 1.2 -->
      <g transform="translate(1038.088086 332.798438)scale(0.1 -0.1)">
       <use xlink:href="#DejaVuSans-31"/>
       <use xlink:href="#DejaVuSans-2e" x="63.623047"/>
       <use xlink:href="#DejaVuSans-32" x="95.410156"/>
      </g>
     </g>
    </g>
    <g id="text_38">
     <!-- rate -->
     <g transform="translate(895.69375 346.476562)scale(0.1 -0.1)">
      <use xlink:href="#DejaVuSans-72"/>
      <use xlink:href="#DejaVuSans-61" x="41.113281"/>
      <use xlink:href="#DejaVuSans-74" x="102.392578"/>
      <use xlink:href="#DejaVuSans-65" x="141.601562"/>
     </g>
    </g>
   </g>
   <g id="matplotlib.axis_6">
    <g id="ytick_17">
     <g id="line2d_47">
      <g>
       <use xlink:href="#m8cb2665171" x="741.235" y="318.2" style="stroke: #000000; stroke-width: 0.8"/>
      </g>
     </g>
    </g>
    <g id="ytick_18">
     <g id="line2d_48">
      <g>
       <use xlink:href="#m8cb2665171" x="741.235" y="279.687039" style="stroke: #000000; stroke-width: 0.8"/>
      </g>
     </g>
    </g>
    <g id="ytick_19">
     <g id="line2d_49">
      <g>
       <use xlink:href="#m8cb2665171" x="741.235" y="241.174078" style="stroke: #000000; stroke-width: 0.8"/>
      </g>
     </g>
    </g>
    <g id="ytick_20">
     <g id="line2d_50">
      <g>
       <use xlink:href="#m8cb2665171" x="741.235" y="202.661118" style="stroke: #000000; stroke-width: 0.8"/>
      </g>
     </g>
    </g>
    <g id="ytick_21">
     <g id="line2d_51">
      <g>
       <use xlink:href="#m8cb2665171" x="741.235" y="164.148157" style="stroke: #000000; stroke-width: 0.8"/>
      </g>
     </g>
    </g>
    <g id="ytick_22">
     <g id="line2d_52">
      <g>
       <use xlink:href="#m8cb2665171" x="741.235" y="125.635196" style="stroke: #000000; stroke-width: 0.8"/>
      </g>
     </g>
    </g>
    <g id="ytick_23">
     <g id="line2d_53">
      <g>
       <use xlink:href="#m8cb2665171" x="741.235" y="87.122235" style="stroke: #000000; stroke-width: 0.8"/>
      </g>
     </g>
    </g>
    <g id="ytick_24">
     <g id="line2d_54">
      <g>
       <use xlink:href="#m8cb2665171" x="741.235" y="48.609274" style="stroke: #000000; stroke-width: 0.8"/>
      </g>
     </g>
    </g>
   </g>
   <g id="line2d_55">
    <path d="M 770.005912 316.871972 
L 771.273857 316.296411 
L 772.541801 315.510924 
L 773.809746 314.456172 
L 775.077691 313.062713 
L 776.345636 311.251629 
L 777.613581 308.936111 
L 778.881526 306.024131 
L 780.149471 302.422302 
L 781.417416 298.040878 
L 782.685361 292.799708 
L 783.953305 286.63481 
L 785.22125 279.505071 
L 786.489195 271.398452 
L 788.391113 257.46531 
L 790.29303 241.625272 
L 792.82892 218.286769 
L 799.168644 158.066456 
L 801.070561 142.103713 
L 802.972479 127.973068 
L 804.874396 115.929527 
L 806.142341 109.128433 
L 807.410286 103.332778 
L 808.678231 98.552897 
L 809.946176 94.797802 
L 811.214121 92.079698 
L 811.848093 91.114756 
L 812.482065 90.415989 
L 813.116038 89.986257 
L 813.75001 89.828499 
L 814.383983 89.945574 
L 815.017955 90.34007 
L 815.651928 91.0141 
L 816.2859 91.969073 
L 816.919873 93.205477 
L 818.187817 96.518585 
L 819.455762 100.930779 
L 820.723707 106.392354 
L 821.991652 112.823038 
L 823.893569 124.033457 
L 825.795487 136.668719 
L 833.403156 189.094023 
L 835.305073 199.907297 
L 837.206991 209.148151 
L 838.474936 214.413795 
L 839.742881 218.99367 
L 841.010825 222.941249 
L 842.27877 226.327281 
L 843.546715 229.232835 
L 844.81466 231.742764 
L 846.716577 234.946071 
L 848.618495 237.697481 
L 851.788357 241.823367 
L 855.592192 246.842603 
L 858.128081 250.648767 
L 860.029999 253.913316 
L 861.931916 257.622115 
L 863.833833 261.826731 
L 865.735751 266.531135 
L 868.271641 273.476348 
L 876.513282 297.095725 
L 878.4152 301.671103 
L 880.317117 305.626022 
L 882.219034 308.916516 
L 883.486979 310.743893 
L 884.754924 312.293306 
L 886.022869 313.585255 
L 887.290814 314.644757 
L 888.558759 315.499379 
L 890.460676 316.45907 
L 892.362593 317.113295 
L 894.264511 317.543308 
L 896.166428 317.815889 
L 896.166428 317.815889 
" clip-path="url(#p511b6a54e9)" style="fill: none; stroke: #2ca02c; stroke-width: 1.5; stroke-linecap: square"/>
   </g>
   <g id="line2d_56">
    <path d="M 795.925984 317.882603 
L 799.246447 317.483009 
L 801.736795 316.933257 
L 803.397026 316.385061 
L 805.057258 315.640214 
L 806.71749 314.645619 
L 808.377721 313.340443 
L 810.037953 311.657284 
L 811.698185 309.524234 
L 813.358416 306.867912 
L 815.018648 303.617464 
L 816.67888 299.709375 
L 818.339111 295.092814 
L 819.999343 289.735119 
L 821.659575 283.626866 
L 823.319806 276.785953 
L 825.810154 265.263483 
L 828.300501 252.4931 
L 832.451081 229.604379 
L 836.60166 206.733879 
L 839.092007 193.915869 
L 841.582355 182.179173 
L 844.072702 171.70225 
L 845.732934 165.457078 
L 847.393166 159.813466 
L 849.053397 154.777938 
L 850.713629 150.36403 
L 852.373861 146.597975 
L 854.034092 143.521004 
L 855.694324 141.187686 
L 856.52444 140.319314 
L 857.354556 139.66044 
L 858.184671 139.218688 
L 859.014787 139.001002 
L 859.844903 139.01331 
L 860.675019 139.26021 
L 861.505135 139.744676 
L 862.335251 140.467806 
L 863.165366 141.428625 
L 863.995482 142.623945 
L 864.825598 144.048292 
L 866.48583 147.55078 
L 868.146061 151.848133 
L 869.806293 156.822524 
L 872.296641 165.246096 
L 875.617104 177.492014 
L 880.597799 195.95635 
L 883.918262 207.396717 
L 887.238726 217.886692 
L 890.559189 227.469598 
L 893.879652 236.244492 
L 897.200116 244.269347 
L 899.690463 249.799602 
L 902.180811 254.907211 
L 904.671158 259.600452 
L 907.161506 263.910983 
L 910.481969 269.17006 
L 914.632548 275.25767 
L 922.103591 286.118684 
L 932.895097 302.256836 
L 935.385444 305.525431 
L 937.875792 308.421879 
L 940.366139 310.890859 
L 942.026371 312.288381 
L 943.686602 313.489624 
L 945.346834 314.50354 
L 947.837182 315.704098 
L 950.327529 316.57372 
L 952.817877 317.17809 
L 956.13834 317.680633 
L 960.288919 317.997033 
L 961.119035 318.03391 
L 961.119035 318.03391 
" clip-path="url(#p511b6a54e9)" style="fill: none; stroke: #ff7f0e; stroke-width: 1.5; stroke-linecap: square"/>
   </g>
   <g id="line2d_57">
    <path d="M 805.528837 318.063319 
L 811.639494 317.77395 
L 815.713265 317.358995 
L 818.768593 316.854218 
L 821.823922 316.117291 
L 824.87925 315.080487 
L 826.916136 314.18816 
L 828.953021 313.11193 
L 830.989907 311.834618 
L 833.026792 310.3428 
L 835.063678 308.628225 
L 837.100563 306.689186 
L 840.155892 303.37536 
L 843.21122 299.629966 
L 847.284991 294.15237 
L 854.414091 284.327103 
L 857.469419 280.511186 
L 859.506304 278.222623 
L 861.54319 276.174141 
L 863.580076 274.376821 
L 865.616961 272.820924 
L 868.672289 270.863152 
L 876.819832 266.115413 
L 878.856717 264.511635 
L 880.893603 262.540386 
L 882.930488 260.119464 
L 884.967374 257.187193 
L 887.004259 253.706501 
L 889.041145 249.666929 
L 891.078031 245.084593 
L 893.114916 240.000337 
L 896.170244 231.574409 
L 899.225573 222.44553 
L 908.391558 194.472102 
L 910.428443 188.911542 
L 912.465329 183.864865 
L 914.502214 179.457258 
L 916.5391 175.805788 
L 917.557543 174.296445 
L 918.575985 173.013137 
L 919.594428 171.965294 
L 920.612871 171.160561 
L 921.631314 170.6046 
L 922.649757 170.300909 
L 923.668199 170.250686 
L 924.686642 170.452727 
L 925.705085 170.903375 
L 926.723528 171.596527 
L 927.74197 172.523691 
L 928.760413 173.674106 
L 929.778856 175.034924 
L 931.815742 178.327382 
L 933.852627 182.266593 
L 935.889513 186.70423 
L 938.944841 193.970347 
L 960.332139 246.996014 
L 965.424353 260.814372 
L 972.553453 280.271463 
L 975.608781 287.90805 
L 977.645667 292.569046 
L 979.682552 296.819638 
L 981.719438 300.623605 
L 983.756323 303.964097 
L 985.793209 306.842652 
L 987.830094 309.276843 
L 989.86698 311.29702 
L 991.903865 312.942621 
L 993.940751 314.258478 
L 995.977637 315.291459 
L 998.014522 316.087657 
L 1000.051408 316.690278 
L 1003.106736 317.314908 
L 1006.162064 317.699651 
L 1008.19895 317.864794 
L 1008.19895 317.864794 
" clip-path="url(#p511b6a54e9)" style="fill: none; stroke: #1f77b4; stroke-width: 1.5; stroke-linecap: square"/>
   </g>
   <g id="patch_9">
    <path d="M 741.235 318.2 
L 741.235 24.8 
" style="fill: none; stroke: #000000; stroke-width: 0.8; stroke-linejoin: miter; stroke-linecap: square"/>
   </g>
   <g id="patch_10">
    <path d="M 741.235 318.2 
L 1070.465 318.2 
" style="fill: none; stroke: #000000; stroke-width: 0.8; stroke-linejoin: miter; stroke-linecap: square"/>
   </g>
   <g id="text_39">
    <!-- set = 0 1 2 5 8 -->
    <g transform="translate(868.578125 18.8)scale(0.1 -0.1)">
     <use xlink:href="#DejaVuSans-73"/>
     <use xlink:href="#DejaVuSans-65" x="52.099609"/>
     <use xlink:href="#DejaVuSans-74" x="113.623047"/>
     <use xlink:href="#DejaVuSans-20" x="152.832031"/>
     <use xlink:href="#DejaVuSans-3d" x="184.619141"/>
     <use xlink:href="#DejaVuSans-20" x="268.408203"/>
     <use xlink:href="#DejaVuSans-30" x="300.195312"/>
     <use xlink:href="#DejaVuSans-20" x="363.818359"/>
     <use xlink:href="#DejaVuSans-31" x="395.605469"/>
     <use xlink:href="#DejaVuSans-20" x="459.228516"/>
     <use xlink:href="#DejaVuSans-32" x="491.015625"/>
     <use xlink:href="#DejaVuSans-20" x="554.638672"/>
     <use xlink:href="#DejaVuSans-35" x="586.425781"/>
     <use xlink:href="#DejaVuSans-20" x="650.048828"/>
     <use xlink:href="#DejaVuSans-38" x="681.835938"/>
    </g>
   </g>
  </g>
  <g id="axes_4">
   <g id="patch_11">
    <path d="M 1084.765 318.2 
L 1413.995 318.2 
L 1413.995 24.8 
L 1084.765 24.8 
z
" style="fill: #ffffff"/>
   </g>
   <g id="matplotlib.axis_7">
    <g id="xtick_25">
     <g id="line2d_58">
      <g>
       <use xlink:href="#mb751292391" x="1103.93145" y="318.2" style="stroke: #000000; stroke-width: 0.8"/>
      </g>
     </g>
     <g id="text_40">
      <!-- −0.2 -->
      <g transform="translate(1091.790043 332.798438)scale(0.1 -0.1)">
       <use xlink:href="#DejaVuSans-2212"/>
       <use xlink:href="#DejaVuSans-30" x="83.789062"/>
       <use xlink:href="#DejaVuSans-2e" x="147.412109"/>
       <use xlink:href="#DejaVuSans-32" x="179.199219"/>
      </g>
     </g>
    </g>
    <g id="xtick_26">
     <g id="line2d_59">
      <g>
       <use xlink:href="#mb751292391" x="1144.736907" y="318.2" style="stroke: #000000; stroke-width: 0.8"/>
      </g>
     </g>
     <g id="text_41">
      <!-- 0.0 -->
      <g transform="translate(1136.785344 332.798438)scale(0.1 -0.1)">
       <use xlink:href="#DejaVuSans-30"/>
       <use xlink:href="#DejaVuSans-2e" x="63.623047"/>
       <use xlink:href="#DejaVuSans-30" x="95.410156"/>
      </g>
     </g>
    </g>
    <g id="xtick_27">
     <g id="line2d_60">
      <g>
       <use xlink:href="#mb751292391" x="1185.542364" y="318.2" style="stroke: #000000; stroke-width: 0.8"/>
      </g>
     </g>
     <g id="text_42">
      <!-- 0.2 -->
      <g transform="translate(1177.590801 332.798438)scale(0.1 -0.1)">
       <use xlink:href="#DejaVuSans-30"/>
       <use xlink:href="#DejaVuSans-2e" x="63.623047"/>
       <use xlink:href="#DejaVuSans-32" x="95.410156"/>
      </g>
     </g>
    </g>
    <g id="xtick_28">
     <g id="line2d_61">
      <g>
       <use xlink:href="#mb751292391" x="1226.347821" y="318.2" style="stroke: #000000; stroke-width: 0.8"/>
      </g>
     </g>
     <g id="text_43">
      <!-- 0.4 -->
      <g transform="translate(1218.396258 332.798438)scale(0.1 -0.1)">
       <use xlink:href="#DejaVuSans-30"/>
       <use xlink:href="#DejaVuSans-2e" x="63.623047"/>
       <use xlink:href="#DejaVuSans-34" x="95.410156"/>
      </g>
     </g>
    </g>
    <g id="xtick_29">
     <g id="line2d_62">
      <g>
       <use xlink:href="#mb751292391" x="1267.153278" y="318.2" style="stroke: #000000; stroke-width: 0.8"/>
      </g>
     </g>
     <g id="text_44">
      <!-- 0.6 -->
      <g transform="translate(1259.201715 332.798438)scale(0.1 -0.1)">
       <use xlink:href="#DejaVuSans-30"/>
       <use xlink:href="#DejaVuSans-2e" x="63.623047"/>
       <use xlink:href="#DejaVuSans-36" x="95.410156"/>
      </g>
     </g>
    </g>
    <g id="xtick_30">
     <g id="line2d_63">
      <g>
       <use xlink:href="#mb751292391" x="1307.958735" y="318.2" style="stroke: #000000; stroke-width: 0.8"/>
      </g>
     </g>
     <g id="text_45">
      <!-- 0.8 -->
      <g transform="translate(1300.007172 332.798438)scale(0.1 -0.1)">
       <use xlink:href="#DejaVuSans-30"/>
       <use xlink:href="#DejaVuSans-2e" x="63.623047"/>
       <use xlink:href="#DejaVuSans-38" x="95.410156"/>
      </g>
     </g>
    </g>
    <g id="xtick_31">
     <g id="line2d_64">
      <g>
       <use xlink:href="#mb751292391" x="1348.764192" y="318.2" style="stroke: #000000; stroke-width: 0.8"/>
      </g>
     </g>
     <g id="text_46">
      <!-- 1.0 -->
      <g transform="translate(1340.812629 332.798438)scale(0.1 -0.1)">
       <use xlink:href="#DejaVuSans-31"/>
       <use xlink:href="#DejaVuSans-2e" x="63.623047"/>
       <use xlink:href="#DejaVuSans-30" x="95.410156"/>
      </g>
     </g>
    </g>
    <g id="xtick_32">
     <g id="line2d_65">
      <g>
       <use xlink:href="#mb751292391" x="1389.569649" y="318.2" style="stroke: #000000; stroke-width: 0.8"/>
      </g>
     </g>
     <g id="text_47">
      <!-- 1.2 -->
      <g transform="translate(1381.618086 332.798438)scale(0.1 -0.1)">
       <use xlink:href="#DejaVuSans-31"/>
       <use xlink:href="#DejaVuSans-2e" x="63.623047"/>
       <use xlink:href="#DejaVuSans-32" x="95.410156"/>
      </g>
     </g>
    </g>
    <g id="text_48">
     <!-- rate -->
     <g transform="translate(1239.22375 346.476562)scale(0.1 -0.1)">
      <use xlink:href="#DejaVuSans-72"/>
      <use xlink:href="#DejaVuSans-61" x="41.113281"/>
      <use xlink:href="#DejaVuSans-74" x="102.392578"/>
      <use xlink:href="#DejaVuSans-65" x="141.601562"/>
     </g>
    </g>
   </g>
   <g id="matplotlib.axis_8">
    <g id="ytick_25">
     <g id="line2d_66">
      <g>
       <use xlink:href="#m8cb2665171" x="1084.765" y="318.2" style="stroke: #000000; stroke-width: 0.8"/>
      </g>
     </g>
    </g>
    <g id="ytick_26">
     <g id="line2d_67">
      <g>
       <use xlink:href="#m8cb2665171" x="1084.765" y="279.687039" style="stroke: #000000; stroke-width: 0.8"/>
      </g>
     </g>
    </g>
    <g id="ytick_27">
     <g id="line2d_68">
      <g>
       <use xlink:href="#m8cb2665171" x="1084.765" y="241.174078" style="stroke: #000000; stroke-width: 0.8"/>
      </g>
     </g>
    </g>
    <g id="ytick_28">
     <g id="line2d_69">
      <g>
       <use xlink:href="#m8cb2665171" x="1084.765" y="202.661118" style="stroke: #000000; stroke-width: 0.8"/>
      </g>
     </g>
    </g>
    <g id="ytick_29">
     <g id="line2d_70">
      <g>
       <use xlink:href="#m8cb2665171" x="1084.765" y="164.148157" style="stroke: #000000; stroke-width: 0.8"/>
      </g>
     </g>
    </g>
    <g id="ytick_30">
     <g id="line2d_71">
      <g>
       <use xlink:href="#m8cb2665171" x="1084.765" y="125.635196" style="stroke: #000000; stroke-width: 0.8"/>
      </g>
     </g>
    </g>
    <g id="ytick_31">
     <g id="line2d_72">
      <g>
       <use xlink:href="#m8cb2665171" x="1084.765" y="87.122235" style="stroke: #000000; stroke-width: 0.8"/>
      </g>
     </g>
    </g>
    <g id="ytick_32">
     <g id="line2d_73">
      <g>
       <use xlink:href="#m8cb2665171" x="1084.765" y="48.609274" style="stroke: #000000; stroke-width: 0.8"/>
      </g>
     </g>
    </g>
   </g>
   <g id="line2d_74">
    <path d="M 1110.076572 316.814579 
L 1111.593472 316.156657 
L 1113.110373 315.236504 
L 1114.627273 313.973359 
L 1116.144173 312.271532 
L 1117.661074 310.021432 
L 1119.177974 307.10224 
L 1120.694874 303.386532 
L 1122.211775 298.746998 
L 1123.728675 293.065181 
L 1125.245575 286.241877 
L 1126.762476 278.208534 
L 1128.279376 268.938681 
L 1129.796276 258.458188 
L 1132.071627 240.673209 
L 1134.346977 220.933528 
L 1141.173029 159.65094 
L 1142.689929 147.798614 
L 1144.206829 137.274771 
L 1145.72373 128.304962 
L 1147.24063 121.039495 
L 1148.757531 115.546301 
L 1149.515981 113.462763 
L 1150.274431 111.810498 
L 1151.032881 110.575727 
L 1151.791331 109.740611 
L 1152.549781 109.283745 
L 1153.308232 109.180728 
L 1154.066682 109.404767 
L 1154.825132 109.927327 
L 1155.583582 110.718785 
L 1156.342032 111.749098 
L 1157.858933 114.407848 
L 1159.375833 117.67855 
L 1161.651183 123.31832 
L 1164.684984 131.552896 
L 1167.718785 140.314297 
L 1169.994135 147.420547 
L 1172.269486 155.301189 
L 1174.544836 164.238888 
L 1176.820187 174.397674 
L 1179.095537 185.747282 
L 1182.129338 202.268686 
L 1187.438489 231.63127 
L 1189.71384 242.862912 
L 1191.23074 249.524721 
L 1192.74764 255.415165 
L 1194.264541 260.486608 
L 1195.781441 264.734849 
L 1197.298341 268.196694 
L 1198.815242 270.944416 
L 1200.332142 273.077729 
L 1201.849042 274.714145 
L 1203.365943 275.978687 
L 1205.641293 277.443678 
L 1210.950444 280.511311 
L 1213.225795 282.128706 
L 1215.501145 284.004373 
L 1218.534946 286.842204 
L 1222.327197 290.748996 
L 1227.636348 296.600954 
L 1237.4962 307.640281 
L 1240.530001 310.54644 
L 1242.805351 312.410269 
L 1245.080702 313.966915 
L 1247.356052 315.212306 
L 1249.631403 316.166245 
L 1251.906753 316.86572 
L 1254.182104 317.356743 
L 1257.215904 317.768765 
L 1261.008155 318.030465 
L 1261.008155 318.030465 
" clip-path="url(#p1c5527dbf5)" style="fill: none; stroke: #2ca02c; stroke-width: 1.5; stroke-linecap: square"/>
   </g>
   <g id="line2d_75">
    <path d="M 1135.661612 318.029395 
L 1139.175469 317.791912 
L 1141.810862 317.460552 
L 1144.446255 316.926349 
L 1147.081648 316.113394 
L 1148.838577 315.378674 
L 1150.595505 314.466722 
L 1152.352434 313.363624 
L 1154.109363 312.063094 
L 1156.744756 309.751372 
L 1159.380148 307.055822 
L 1162.894006 303.028369 
L 1169.043256 295.487025 
L 1178.706363 283.393008 
L 1184.855613 275.639327 
L 1188.369471 271.627867 
L 1194.518721 264.931408 
L 1196.275649 262.452115 
L 1198.032578 259.262655 
L 1198.911042 257.299091 
L 1199.789507 255.032031 
L 1200.667971 252.4183 
L 1201.546435 249.416238 
L 1202.4249 245.98705 
L 1204.181828 237.714828 
L 1205.938757 227.401579 
L 1207.695685 214.979515 
L 1209.452614 200.546439 
L 1211.209543 184.384883 
L 1213.844935 157.971209 
L 1217.358793 122.339935 
L 1219.115721 106.168121 
L 1220.87265 92.172255 
L 1221.751114 86.214791 
L 1222.629579 81.052706 
L 1223.508043 76.748306 
L 1224.386507 73.351284 
L 1225.264971 70.897918 
L 1226.143436 69.410621 
L 1227.0219 68.897842 
L 1227.900364 69.354297 
L 1228.778829 70.761516 
L 1229.657293 73.088672 
L 1230.535757 76.29365 
L 1231.414222 80.324304 
L 1232.292686 85.119864 
L 1234.049615 96.728554 
L 1235.806543 110.518873 
L 1238.441936 133.890618 
L 1244.591186 190.53126 
L 1247.226579 211.939268 
L 1248.983508 224.526975 
L 1250.740436 235.620701 
L 1252.497365 245.190058 
L 1254.254294 253.2768 
L 1256.011222 259.98138 
L 1257.768151 265.448563 
L 1259.525079 269.852962 
L 1261.282008 273.385249 
L 1263.038937 276.23969 
L 1264.795865 278.603433 
L 1267.431258 281.59775 
L 1273.580508 288.187195 
L 1276.215901 291.401764 
L 1279.729759 296.123119 
L 1285.879009 304.626406 
L 1288.514402 307.881036 
L 1291.149795 310.683891 
L 1292.906723 312.263614 
L 1294.663652 313.605302 
L 1296.42058 314.716382 
L 1298.177509 315.613597 
L 1299.934438 316.320136 
L 1302.56983 317.081298 
L 1305.205223 317.566196 
L 1308.719081 317.925025 
L 1310.476009 318.024853 
L 1310.476009 318.024853 
" clip-path="url(#p1c5527dbf5)" style="fill: none; stroke: #ff7f0e; stroke-width: 1.5; stroke-linecap: square"/>
   </g>
   <g id="line2d_76">
    <path d="M 1145.207557 318.0374 
L 1149.870822 317.779355 
L 1153.601433 317.361697 
L 1156.399392 316.850063 
L 1159.197351 316.099739 
L 1161.99531 315.041166 
L 1163.860616 314.129254 
L 1165.725921 313.02956 
L 1167.591227 311.725423 
L 1169.456533 310.204085 
L 1171.321839 308.457718 
L 1173.187145 306.484142 
L 1175.985104 303.107555 
L 1178.783062 299.265555 
L 1181.581021 295.016219 
L 1185.311633 288.837371 
L 1189.042244 282.219193 
L 1194.638162 271.748766 
L 1205.829997 250.441529 
L 1208.627956 245.548766 
L 1211.425914 241.061658 
L 1214.223873 237.070886 
L 1217.021832 233.613914 
L 1219.819791 230.65655 
L 1222.617749 228.085735 
L 1230.078973 221.544017 
L 1231.944279 219.567548 
L 1233.809585 217.303642 
L 1235.67489 214.692017 
L 1237.540196 211.689162 
L 1239.405502 208.272983 
L 1241.270808 204.446768 
L 1244.068767 198.016068 
L 1247.799378 188.553533 
L 1252.462643 176.701594 
L 1254.327949 172.468906 
L 1256.193255 168.790466 
L 1258.05856 165.837148 
L 1258.991213 164.68175 
L 1259.923866 163.764096 
L 1260.856519 163.099711 
L 1261.789172 162.702127 
L 1262.721825 162.582703 
L 1263.654478 162.750468 
L 1264.587131 163.212009 
L 1265.519784 163.971387 
L 1266.452437 165.0301 
L 1267.38509 166.387082 
L 1268.317743 168.038741 
L 1269.250395 169.97903 
L 1271.115701 174.68973 
L 1272.981007 180.426612 
L 1274.846313 187.067684 
L 1276.711619 194.468385 
L 1279.509578 206.642229 
L 1284.172842 228.402379 
L 1288.836107 249.901796 
L 1291.634066 261.852358 
L 1294.432024 272.721419 
L 1296.29733 279.270749 
L 1298.162636 285.223236 
L 1300.027942 290.564723 
L 1301.893248 295.296749 
L 1303.758553 299.434636 
L 1305.623859 303.005364 
L 1307.489165 306.045301 
L 1309.354471 308.597853 
L 1311.219777 310.711125 
L 1313.085083 312.435672 
L 1314.950389 313.822449 
L 1316.815694 314.921021 
L 1318.681 315.778115 
L 1320.546306 316.436534 
L 1323.344265 317.133791 
L 1326.142224 317.576499 
L 1329.872835 317.910809 
L 1330.805488 317.963619 
L 1330.805488 317.963619 
" clip-path="url(#p1c5527dbf5)" style="fill: none; stroke: #1f77b4; stroke-width: 1.5; stroke-linecap: square"/>
   </g>
   <g id="patch_12">
    <path d="M 1084.765 318.2 
L 1084.765 24.8 
" style="fill: none; stroke: #000000; stroke-width: 0.8; stroke-linejoin: miter; stroke-linecap: square"/>
   </g>
   <g id="patch_13">
    <path d="M 1084.765 318.2 
L 1413.995 318.2 
" style="fill: none; stroke: #000000; stroke-width: 0.8; stroke-linejoin: miter; stroke-linecap: square"/>
   </g>
   <g id="text_49">
    <!-- set = 0 2 4 5 6 -->
    <g transform="translate(1212.108125 18.8)scale(0.1 -0.1)">
     <use xlink:href="#DejaVuSans-73"/>
     <use xlink:href="#DejaVuSans-65" x="52.099609"/>
     <use xlink:href="#DejaVuSans-74" x="113.623047"/>
     <use xlink:href="#DejaVuSans-20" x="152.832031"/>
     <use xlink:href="#DejaVuSans-3d" x="184.619141"/>
     <use xlink:href="#DejaVuSans-20" x="268.408203"/>
     <use xlink:href="#DejaVuSans-30" x="300.195312"/>
     <use xlink:href="#DejaVuSans-20" x="363.818359"/>
     <use xlink:href="#DejaVuSans-32" x="395.605469"/>
     <use xlink:href="#DejaVuSans-20" x="459.228516"/>
     <use xlink:href="#DejaVuSans-34" x="491.015625"/>
     <use xlink:href="#DejaVuSans-20" x="554.638672"/>
     <use xlink:href="#DejaVuSans-35" x="586.425781"/>
     <use xlink:href="#DejaVuSans-20" x="650.048828"/>
     <use xlink:href="#DejaVuSans-36" x="681.835938"/>
    </g>
   </g>
  </g>
  <g id="legend_1">
   <g id="text_50">
    <!-- chose -->
    <g transform="translate(1460.484375 160.742188)scale(0.1 -0.1)">
     <defs>
      <path id="DejaVuSans-63" d="M 3122 3366 
L 3122 2828 
Q 2878 2963 2633 3030 
Q 2388 3097 2138 3097 
Q 1578 3097 1268 2742 
Q 959 2388 959 1747 
Q 959 1106 1268 751 
Q 1578 397 2138 397 
Q 2388 397 2633 464 
Q 2878 531 3122 666 
L 3122 134 
Q 2881 22 2623 -34 
Q 2366 -91 2075 -91 
Q 1284 -91 818 406 
Q 353 903 353 1747 
Q 353 2603 823 3093 
Q 1294 3584 2113 3584 
Q 2378 3584 2631 3529 
Q 2884 3475 3122 3366 
z
" transform="scale(0.015625)"/>
      <path id="DejaVuSans-68" d="M 3513 2113 
L 3513 0 
L 2938 0 
L 2938 2094 
Q 2938 2591 2744 2837 
Q 2550 3084 2163 3084 
Q 1697 3084 1428 2787 
Q 1159 2491 1159 1978 
L 1159 0 
L 581 0 
L 581 4863 
L 1159 4863 
L 1159 2956 
Q 1366 3272 1645 3428 
Q 1925 3584 2291 3584 
Q 2894 3584 3203 3211 
Q 3513 2838 3513 2113 
z
" transform="scale(0.015625)"/>
      <path id="DejaVuSans-6f" d="M 1959 3097 
Q 1497 3097 1228 2736 
Q 959 2375 959 1747 
Q 959 1119 1226 758 
Q 1494 397 1959 397 
Q 2419 397 2687 759 
Q 2956 1122 2956 1747 
Q 2956 2369 2687 2733 
Q 2419 3097 1959 3097 
z
M 1959 3584 
Q 2709 3584 3137 3096 
Q 3566 2609 3566 1747 
Q 3566 888 3137 398 
Q 2709 -91 1959 -91 
Q 1206 -91 779 398 
Q 353 888 353 1747 
Q 353 2609 779 3096 
Q 1206 3584 1959 3584 
z
" transform="scale(0.015625)"/>
     </defs>
     <use xlink:href="#DejaVuSans-63"/>
     <use xlink:href="#DejaVuSans-68" x="54.980469"/>
     <use xlink:href="#DejaVuSans-6f" x="118.359375"/>
     <use xlink:href="#DejaVuSans-73" x="179.541016"/>
     <use xlink:href="#DejaVuSans-65" x="231.640625"/>
    </g>
   </g>
   <g id="line2d_77">
    <path d="M 1438.785938 171.920312 
L 1448.785938 171.920312 
L 1458.785938 171.920312 
" style="fill: none; stroke: #1f77b4; stroke-width: 1.5; stroke-linecap: square"/>
   </g>
   <g id="text_51">
    <!-- shifted -->
    <g transform="translate(1466.785938 175.420312)scale(0.1 -0.1)">
     <defs>
      <path id="DejaVuSans-66" d="M 2375 4863 
L 2375 4384 
L 1825 4384 
Q 1516 4384 1395 4259 
Q 1275 4134 1275 3809 
L 1275 3500 
L 2222 3500 
L 2222 3053 
L 1275 3053 
L 1275 0 
L 697 0 
L 697 3053 
L 147 3053 
L 147 3500 
L 697 3500 
L 697 3744 
Q 697 4328 969 4595 
Q 1241 4863 1831 4863 
L 2375 4863 
z
" transform="scale(0.015625)"/>
      <path id="DejaVuSans-64" d="M 2906 2969 
L 2906 4863 
L 3481 4863 
L 3481 0 
L 2906 0 
L 2906 525 
Q 2725 213 2448 61 
Q 2172 -91 1784 -91 
Q 1150 -91 751 415 
Q 353 922 353 1747 
Q 353 2572 751 3078 
Q 1150 3584 1784 3584 
Q 2172 3584 2448 3432 
Q 2725 3281 2906 2969 
z
M 947 1747 
Q 947 1113 1208 752 
Q 1469 391 1925 391 
Q 2381 391 2643 752 
Q 2906 1113 2906 1747 
Q 2906 2381 2643 2742 
Q 2381 3103 1925 3103 
Q 1469 3103 1208 2742 
Q 947 2381 947 1747 
z
" transform="scale(0.015625)"/>
     </defs>
     <use xlink:href="#DejaVuSans-73"/>
     <use xlink:href="#DejaVuSans-68" x="52.099609"/>
     <use xlink:href="#DejaVuSans-69" x="115.478516"/>
     <use xlink:href="#DejaVuSans-66" x="143.261719"/>
     <use xlink:href="#DejaVuSans-74" x="176.716797"/>
     <use xlink:href="#DejaVuSans-65" x="215.925781"/>
     <use xlink:href="#DejaVuSans-64" x="277.449219"/>
    </g>
   </g>
   <g id="line2d_78">
    <path d="M 1438.785938 186.598437 
L 1448.785938 186.598437 
L 1458.785938 186.598437 
" style="fill: none; stroke: #ff7f0e; stroke-width: 1.5; stroke-linecap: square"/>
   </g>
   <g id="text_52">
    <!-- swapped -->
    <g transform="translate(1466.785938 190.098437)scale(0.1 -0.1)">
     <defs>
      <path id="DejaVuSans-77" d="M 269 3500 
L 844 3500 
L 1563 769 
L 2278 3500 
L 2956 3500 
L 3675 769 
L 4391 3500 
L 4966 3500 
L 4050 0 
L 3372 0 
L 2619 2869 
L 1863 0 
L 1184 0 
L 269 3500 
z
" transform="scale(0.015625)"/>
      <path id="DejaVuSans-70" d="M 1159 525 
L 1159 -1331 
L 581 -1331 
L 581 3500 
L 1159 3500 
L 1159 2969 
Q 1341 3281 1617 3432 
Q 1894 3584 2278 3584 
Q 2916 3584 3314 3078 
Q 3713 2572 3713 1747 
Q 3713 922 3314 415 
Q 2916 -91 2278 -91 
Q 1894 -91 1617 61 
Q 1341 213 1159 525 
z
M 3116 1747 
Q 3116 2381 2855 2742 
Q 2594 3103 2138 3103 
Q 1681 3103 1420 2742 
Q 1159 2381 1159 1747 
Q 1159 1113 1420 752 
Q 1681 391 2138 391 
Q 2594 391 2855 752 
Q 3116 1113 3116 1747 
z
" transform="scale(0.015625)"/>
     </defs>
     <use xlink:href="#DejaVuSans-73"/>
     <use xlink:href="#DejaVuSans-77" x="52.099609"/>
     <use xlink:href="#DejaVuSans-61" x="133.886719"/>
     <use xlink:href="#DejaVuSans-70" x="195.166016"/>
     <use xlink:href="#DejaVuSans-70" x="258.642578"/>
     <use xlink:href="#DejaVuSans-65" x="322.119141"/>
     <use xlink:href="#DejaVuSans-64" x="383.642578"/>
    </g>
   </g>
   <g id="line2d_79">
    <path d="M 1438.785938 201.276563 
L 1448.785938 201.276563 
L 1458.785938 201.276563 
" style="fill: none; stroke: #2ca02c; stroke-width: 1.5; stroke-linecap: square"/>
   </g>
   <g id="text_53">
    <!-- neither -->
    <g transform="translate(1466.785938 204.776563)scale(0.1 -0.1)">
     <use xlink:href="#DejaVuSans-6e"/>
     <use xlink:href="#DejaVuSans-65" x="63.378906"/>
     <use xlink:href="#DejaVuSans-69" x="124.902344"/>
     <use xlink:href="#DejaVuSans-74" x="152.685547"/>
     <use xlink:href="#DejaVuSans-68" x="191.894531"/>
     <use xlink:href="#DejaVuSans-65" x="255.273438"/>
     <use xlink:href="#DejaVuSans-72" x="316.796875"/>
    </g>
   </g>
  </g>
 </g>
 <defs>
  <clipPath id="p29d3d6d670">
   <rect x="54.175" y="24.8" width="329.23" height="293.4"/>
  </clipPath>
  <clipPath id="p6f8ad55131">
   <rect x="397.705" y="24.8" width="329.23" height="293.4"/>
  </clipPath>
  <clipPath id="p511b6a54e9">
   <rect x="741.235" y="24.8" width="329.23" height="293.4"/>
  </clipPath>
  <clipPath id="p1c5527dbf5">
   <rect x="1084.765" y="24.8" width="329.23" height="293.4"/>
  </clipPath>
 </defs>
</svg>
