<?xml version="1.0" encoding="utf-8" standalone="no"?>
<!DOCTYPE svg PUBLIC "-//W3C//DTD SVG 1.1//EN"
  "http://www.w3.org/Graphics/SVG/1.1/DTD/svg11.dtd">
<svg xmlns:xlink="http://www.w3.org/1999/xlink" width="431.875pt" height="360pt" viewBox="0 0 431.875 360" xmlns="http://www.w3.org/2000/svg" version="1.1">
 <metadata>
  <rdf:RDF xmlns:dc="http://purl.org/dc/elements/1.1/" xmlns:cc="http://creativecommons.org/ns#" xmlns:rdf="http://www.w3.org/1999/02/22-rdf-syntax-ns#">
   <cc:Work>
    <dc:type rdf:resource="http://purl.org/dc/dcmitype/StillImage"/>
    <dc:date>2023-01-14T17:19:46.654365</dc:date>
    <dc:format>image/svg+xml</dc:format>
    <dc:creator>
     <cc:Agent>
      <dc:title>Matplotlib v3.5.0, https://matplotlib.org/</dc:title>
     </cc:Agent>
    </dc:creator>
   </cc:Work>
  </rdf:RDF>
 </metadata>
 <defs>
  <style type="text/css">*{stroke-linejoin: round; stroke-linecap: butt}</style>
 </defs>
 <g id="figure_1">
  <g id="patch_1">
   <path d="M 0 360 
L 431.875 360 
L 431.875 0 
L 0 0 
L 0 360 
z
" style="fill: none"/>
  </g>
  <g id="axes_1">
   <g id="patch_2">
    <path d="M 47.8 318.2 
L 344.88125 318.2 
L 344.88125 10.8 
L 47.8 10.8 
z
" style="fill: #ffffff"/>
   </g>
   <g id="matplotlib.axis_1">
    <g id="xtick_1">
     <g id="line2d_1">
      <defs>
       <path id="m7662790036" d="M 0 0 
L 0 3.5 
" style="stroke: #000000; stroke-width: 0.8"/>
      </defs>
      <g>
       <use xlink:href="#m7662790036" x="82.56432" y="318.2" style="stroke: #000000; stroke-width: 0.8"/>
      </g>
     </g>
     <g id="text_1">
      <!-- 0.0 -->
      <g transform="translate(74.612757 332.798437)scale(0.1 -0.1)">
       <defs>
        <path id="DejaVuSans-30" d="M 2034 4250 
Q 1547 4250 1301 3770 
Q 1056 3291 1056 2328 
Q 1056 1369 1301 889 
Q 1547 409 2034 409 
Q 2525 409 2770 889 
Q 3016 1369 3016 2328 
Q 3016 3291 2770 3770 
Q 2525 4250 2034 4250 
z
M 2034 4750 
Q 2819 4750 3233 4129 
Q 3647 3509 3647 2328 
Q 3647 1150 3233 529 
Q 2819 -91 2034 -91 
Q 1250 -91 836 529 
Q 422 1150 422 2328 
Q 422 3509 836 4129 
Q 1250 4750 2034 4750 
z
" transform="scale(0.015625)"/>
        <path id="DejaVuSans-2e" d="M 684 794 
L 1344 794 
L 1344 0 
L 684 0 
L 684 794 
z
" transform="scale(0.015625)"/>
       </defs>
       <use xlink:href="#DejaVuSans-30"/>
       <use xlink:href="#DejaVuSans-2e" x="63.623047"/>
       <use xlink:href="#DejaVuSans-30" x="95.410156"/>
      </g>
     </g>
    </g>
    <g id="xtick_2">
     <g id="line2d_2">
      <g>
       <use xlink:href="#m7662790036" x="128.356312" y="318.2" style="stroke: #000000; stroke-width: 0.8"/>
      </g>
     </g>
     <g id="text_2">
      <!-- 0.2 -->
      <g transform="translate(120.40475 332.798437)scale(0.1 -0.1)">
       <defs>
        <path id="DejaVuSans-32" d="M 1228 531 
L 3431 531 
L 3431 0 
L 469 0 
L 469 531 
Q 828 903 1448 1529 
Q 2069 2156 2228 2338 
Q 2531 2678 2651 2914 
Q 2772 3150 2772 3378 
Q 2772 3750 2511 3984 
Q 2250 4219 1831 4219 
Q 1534 4219 1204 4116 
Q 875 4013 500 3803 
L 500 4441 
Q 881 4594 1212 4672 
Q 1544 4750 1819 4750 
Q 2544 4750 2975 4387 
Q 3406 4025 3406 3419 
Q 3406 3131 3298 2873 
Q 3191 2616 2906 2266 
Q 2828 2175 2409 1742 
Q 1991 1309 1228 531 
z
" transform="scale(0.015625)"/>
       </defs>
       <use xlink:href="#DejaVuSans-30"/>
       <use xlink:href="#DejaVuSans-2e" x="63.623047"/>
       <use xlink:href="#DejaVuSans-32" x="95.410156"/>
      </g>
     </g>
    </g>
    <g id="xtick_3">
     <g id="line2d_3">
      <g>
       <use xlink:href="#m7662790036" x="174.148304" y="318.2" style="stroke: #000000; stroke-width: 0.8"/>
      </g>
     </g>
     <g id="text_3">
      <!-- 0.4 -->
      <g transform="translate(166.196742 332.798437)scale(0.1 -0.1)">
       <defs>
        <path id="DejaVuSans-34" d="M 2419 4116 
L 825 1625 
L 2419 1625 
L 2419 4116 
z
M 2253 4666 
L 3047 4666 
L 3047 1625 
L 3713 1625 
L 3713 1100 
L 3047 1100 
L 3047 0 
L 2419 0 
L 2419 1100 
L 313 1100 
L 313 1709 
L 2253 4666 
z
" transform="scale(0.015625)"/>
       </defs>
       <use xlink:href="#DejaVuSans-30"/>
       <use xlink:href="#DejaVuSans-2e" x="63.623047"/>
       <use xlink:href="#DejaVuSans-34" x="95.410156"/>
      </g>
     </g>
    </g>
    <g id="xtick_4">
     <g id="line2d_4">
      <g>
       <use xlink:href="#m7662790036" x="219.940296" y="318.2" style="stroke: #000000; stroke-width: 0.8"/>
      </g>
     </g>
     <g id="text_4">
      <!-- 0.6 -->
      <g transform="translate(211.988734 332.798437)scale(0.1 -0.1)">
       <defs>
        <path id="DejaVuSans-36" d="M 2113 2584 
Q 1688 2584 1439 2293 
Q 1191 2003 1191 1497 
Q 1191 994 1439 701 
Q 1688 409 2113 409 
Q 2538 409 2786 701 
Q 3034 994 3034 1497 
Q 3034 2003 2786 2293 
Q 2538 2584 2113 2584 
z
M 3366 4563 
L 3366 3988 
Q 3128 4100 2886 4159 
Q 2644 4219 2406 4219 
Q 1781 4219 1451 3797 
Q 1122 3375 1075 2522 
Q 1259 2794 1537 2939 
Q 1816 3084 2150 3084 
Q 2853 3084 3261 2657 
Q 3669 2231 3669 1497 
Q 3669 778 3244 343 
Q 2819 -91 2113 -91 
Q 1303 -91 875 529 
Q 447 1150 447 2328 
Q 447 3434 972 4092 
Q 1497 4750 2381 4750 
Q 2619 4750 2861 4703 
Q 3103 4656 3366 4563 
z
" transform="scale(0.015625)"/>
       </defs>
       <use xlink:href="#DejaVuSans-30"/>
       <use xlink:href="#DejaVuSans-2e" x="63.623047"/>
       <use xlink:href="#DejaVuSans-36" x="95.410156"/>
      </g>
     </g>
    </g>
    <g id="xtick_5">
     <g id="line2d_5">
      <g>
       <use xlink:href="#m7662790036" x="265.732289" y="318.2" style="stroke: #000000; stroke-width: 0.8"/>
      </g>
     </g>
     <g id="text_5">
      <!-- 0.8 -->
      <g transform="translate(257.780726 332.798437)scale(0.1 -0.1)">
       <defs>
        <path id="DejaVuSans-38" d="M 2034 2216 
Q 1584 2216 1326 1975 
Q 1069 1734 1069 1313 
Q 1069 891 1326 650 
Q 1584 409 2034 409 
Q 2484 409 2743 651 
Q 3003 894 3003 1313 
Q 3003 1734 2745 1975 
Q 2488 2216 2034 2216 
z
M 1403 2484 
Q 997 2584 770 2862 
Q 544 3141 544 3541 
Q 544 4100 942 4425 
Q 1341 4750 2034 4750 
Q 2731 4750 3128 4425 
Q 3525 4100 3525 3541 
Q 3525 3141 3298 2862 
Q 3072 2584 2669 2484 
Q 3125 2378 3379 2068 
Q 3634 1759 3634 1313 
Q 3634 634 3220 271 
Q 2806 -91 2034 -91 
Q 1263 -91 848 271 
Q 434 634 434 1313 
Q 434 1759 690 2068 
Q 947 2378 1403 2484 
z
M 1172 3481 
Q 1172 3119 1398 2916 
Q 1625 2713 2034 2713 
Q 2441 2713 2670 2916 
Q 2900 3119 2900 3481 
Q 2900 3844 2670 4047 
Q 2441 4250 2034 4250 
Q 1625 4250 1398 4047 
Q 1172 3844 1172 3481 
z
" transform="scale(0.015625)"/>
       </defs>
       <use xlink:href="#DejaVuSans-30"/>
       <use xlink:href="#DejaVuSans-2e" x="63.623047"/>
       <use xlink:href="#DejaVuSans-38" x="95.410156"/>
      </g>
     </g>
    </g>
    <g id="xtick_6">
     <g id="line2d_6">
      <g>
       <use xlink:href="#m7662790036" x="311.524281" y="318.2" style="stroke: #000000; stroke-width: 0.8"/>
      </g>
     </g>
     <g id="text_6">
      <!-- 1.0 -->
      <g transform="translate(303.572718 332.798437)scale(0.1 -0.1)">
       <defs>
        <path id="DejaVuSans-31" d="M 794 531 
L 1825 531 
L 1825 4091 
L 703 3866 
L 703 4441 
L 1819 4666 
L 2450 4666 
L 2450 531 
L 3481 531 
L 3481 0 
L 794 0 
L 794 531 
z
" transform="scale(0.015625)"/>
       </defs>
       <use xlink:href="#DejaVuSans-31"/>
       <use xlink:href="#DejaVuSans-2e" x="63.623047"/>
       <use xlink:href="#DejaVuSans-30" x="95.410156"/>
      </g>
     </g>
    </g>
    <g id="text_7">
     <!-- rate -->
     <g transform="translate(186.184375 346.476562)scale(0.1 -0.1)">
      <defs>
       <path id="DejaVuSans-72" d="M 2631 2963 
Q 2534 3019 2420 3045 
Q 2306 3072 2169 3072 
Q 1681 3072 1420 2755 
Q 1159 2438 1159 1844 
L 1159 0 
L 581 0 
L 581 3500 
L 1159 3500 
L 1159 2956 
Q 1341 3275 1631 3429 
Q 1922 3584 2338 3584 
Q 2397 3584 2469 3576 
Q 2541 3569 2628 3553 
L 2631 2963 
z
" transform="scale(0.015625)"/>
       <path id="DejaVuSans-61" d="M 2194 1759 
Q 1497 1759 1228 1600 
Q 959 1441 959 1056 
Q 959 750 1161 570 
Q 1363 391 1709 391 
Q 2188 391 2477 730 
Q 2766 1069 2766 1631 
L 2766 1759 
L 2194 1759 
z
M 3341 1997 
L 3341 0 
L 2766 0 
L 2766 531 
Q 2569 213 2275 61 
Q 1981 -91 1556 -91 
Q 1019 -91 701 211 
Q 384 513 384 1019 
Q 384 1609 779 1909 
Q 1175 2209 1959 2209 
L 2766 2209 
L 2766 2266 
Q 2766 2663 2505 2880 
Q 2244 3097 1772 3097 
Q 1472 3097 1187 3025 
Q 903 2953 641 2809 
L 641 3341 
Q 956 3463 1253 3523 
Q 1550 3584 1831 3584 
Q 2591 3584 2966 3190 
Q 3341 2797 3341 1997 
z
" transform="scale(0.015625)"/>
       <path id="DejaVuSans-74" d="M 1172 4494 
L 1172 3500 
L 2356 3500 
L 2356 3053 
L 1172 3053 
L 1172 1153 
Q 1172 725 1289 603 
Q 1406 481 1766 481 
L 2356 481 
L 2356 0 
L 1766 0 
Q 1100 0 847 248 
Q 594 497 594 1153 
L 594 3053 
L 172 3053 
L 172 3500 
L 594 3500 
L 594 4494 
L 1172 4494 
z
" transform="scale(0.015625)"/>
       <path id="DejaVuSans-65" d="M 3597 1894 
L 3597 1613 
L 953 1613 
Q 991 1019 1311 708 
Q 1631 397 2203 397 
Q 2534 397 2845 478 
Q 3156 559 3463 722 
L 3463 178 
Q 3153 47 2828 -22 
Q 2503 -91 2169 -91 
Q 1331 -91 842 396 
Q 353 884 353 1716 
Q 353 2575 817 3079 
Q 1281 3584 2069 3584 
Q 2775 3584 3186 3129 
Q 3597 2675 3597 1894 
z
M 3022 2063 
Q 3016 2534 2758 2815 
Q 2500 3097 2075 3097 
Q 1594 3097 1305 2825 
Q 1016 2553 972 2059 
L 3022 2063 
z
" transform="scale(0.015625)"/>
      </defs>
      <use xlink:href="#DejaVuSans-72"/>
      <use xlink:href="#DejaVuSans-61" x="41.113281"/>
      <use xlink:href="#DejaVuSans-74" x="102.392578"/>
      <use xlink:href="#DejaVuSans-65" x="141.601562"/>
     </g>
    </g>
   </g>
   <g id="matplotlib.axis_2">
    <g id="ytick_1">
     <g id="line2d_7">
      <defs>
       <path id="m5934720141" d="M 0 0 
L -3.5 0 
" style="stroke: #000000; stroke-width: 0.8"/>
      </defs>
      <g>
       <use xlink:href="#m5934720141" x="47.8" y="318.2" style="stroke: #000000; stroke-width: 0.8"/>
      </g>
     </g>
     <g id="text_8">
      <!-- 0.0 -->
      <g transform="translate(24.896875 321.999219)scale(0.1 -0.1)">
       <use xlink:href="#DejaVuSans-30"/>
       <use xlink:href="#DejaVuSans-2e" x="63.623047"/>
       <use xlink:href="#DejaVuSans-30" x="95.410156"/>
      </g>
     </g>
    </g>
    <g id="ytick_2">
     <g id="line2d_8">
      <g>
       <use xlink:href="#m5934720141" x="47.8" y="283.585501" style="stroke: #000000; stroke-width: 0.8"/>
      </g>
     </g>
     <g id="text_9">
      <!-- 0.2 -->
      <g transform="translate(24.896875 287.38472)scale(0.1 -0.1)">
       <use xlink:href="#DejaVuSans-30"/>
       <use xlink:href="#DejaVuSans-2e" x="63.623047"/>
       <use xlink:href="#DejaVuSans-32" x="95.410156"/>
      </g>
     </g>
    </g>
    <g id="ytick_3">
     <g id="line2d_9">
      <g>
       <use xlink:href="#m5934720141" x="47.8" y="248.971002" style="stroke: #000000; stroke-width: 0.8"/>
      </g>
     </g>
     <g id="text_10">
      <!-- 0.4 -->
      <g transform="translate(24.896875 252.77022)scale(0.1 -0.1)">
       <use xlink:href="#DejaVuSans-30"/>
       <use xlink:href="#DejaVuSans-2e" x="63.623047"/>
       <use xlink:href="#DejaVuSans-34" x="95.410156"/>
      </g>
     </g>
    </g>
    <g id="ytick_4">
     <g id="line2d_10">
      <g>
       <use xlink:href="#m5934720141" x="47.8" y="214.356502" style="stroke: #000000; stroke-width: 0.8"/>
      </g>
     </g>
     <g id="text_11">
      <!-- 0.6 -->
      <g transform="translate(24.896875 218.155721)scale(0.1 -0.1)">
       <use xlink:href="#DejaVuSans-30"/>
       <use xlink:href="#DejaVuSans-2e" x="63.623047"/>
       <use xlink:href="#DejaVuSans-36" x="95.410156"/>
      </g>
     </g>
    </g>
    <g id="ytick_5">
     <g id="line2d_11">
      <g>
       <use xlink:href="#m5934720141" x="47.8" y="179.742003" style="stroke: #000000; stroke-width: 0.8"/>
      </g>
     </g>
     <g id="text_12">
      <!-- 0.8 -->
      <g transform="translate(24.896875 183.541222)scale(0.1 -0.1)">
       <use xlink:href="#DejaVuSans-30"/>
       <use xlink:href="#DejaVuSans-2e" x="63.623047"/>
       <use xlink:href="#DejaVuSans-38" x="95.410156"/>
      </g>
     </g>
    </g>
    <g id="ytick_6">
     <g id="line2d_12">
      <g>
       <use xlink:href="#m5934720141" x="47.8" y="145.127504" style="stroke: #000000; stroke-width: 0.8"/>
      </g>
     </g>
     <g id="text_13">
      <!-- 1.0 -->
      <g transform="translate(24.896875 148.926723)scale(0.1 -0.1)">
       <use xlink:href="#DejaVuSans-31"/>
       <use xlink:href="#DejaVuSans-2e" x="63.623047"/>
       <use xlink:href="#DejaVuSans-30" x="95.410156"/>
      </g>
     </g>
    </g>
    <g id="ytick_7">
     <g id="line2d_13">
      <g>
       <use xlink:href="#m5934720141" x="47.8" y="110.513005" style="stroke: #000000; stroke-width: 0.8"/>
      </g>
     </g>
     <g id="text_14">
      <!-- 1.2 -->
      <g transform="translate(24.896875 114.312224)scale(0.1 -0.1)">
       <use xlink:href="#DejaVuSans-31"/>
       <use xlink:href="#DejaVuSans-2e" x="63.623047"/>
       <use xlink:href="#DejaVuSans-32" x="95.410156"/>
      </g>
     </g>
    </g>
    <g id="ytick_8">
     <g id="line2d_14">
      <g>
       <use xlink:href="#m5934720141" x="47.8" y="75.898506" style="stroke: #000000; stroke-width: 0.8"/>
      </g>
     </g>
     <g id="text_15">
      <!-- 1.4 -->
      <g transform="translate(24.896875 79.697724)scale(0.1 -0.1)">
       <use xlink:href="#DejaVuSans-31"/>
       <use xlink:href="#DejaVuSans-2e" x="63.623047"/>
       <use xlink:href="#DejaVuSans-34" x="95.410156"/>
      </g>
     </g>
    </g>
    <g id="ytick_9">
     <g id="line2d_15">
      <g>
       <use xlink:href="#m5934720141" x="47.8" y="41.284006" style="stroke: #000000; stroke-width: 0.8"/>
      </g>
     </g>
     <g id="text_16">
      <!-- 1.6 -->
      <g transform="translate(24.896875 45.083225)scale(0.1 -0.1)">
       <use xlink:href="#DejaVuSans-31"/>
       <use xlink:href="#DejaVuSans-2e" x="63.623047"/>
       <use xlink:href="#DejaVuSans-36" x="95.410156"/>
      </g>
     </g>
    </g>
    <g id="text_17">
     <!-- Density -->
     <g transform="translate(18.817187 183.508594)rotate(-90)scale(0.1 -0.1)">
      <defs>
       <path id="DejaVuSans-44" d="M 1259 4147 
L 1259 519 
L 2022 519 
Q 2988 519 3436 956 
Q 3884 1394 3884 2338 
Q 3884 3275 3436 3711 
Q 2988 4147 2022 4147 
L 1259 4147 
z
M 628 4666 
L 1925 4666 
Q 3281 4666 3915 4102 
Q 4550 3538 4550 2338 
Q 4550 1131 3912 565 
Q 3275 0 1925 0 
L 628 0 
L 628 4666 
z
" transform="scale(0.015625)"/>
       <path id="DejaVuSans-6e" d="M 3513 2113 
L 3513 0 
L 2938 0 
L 2938 2094 
Q 2938 2591 2744 2837 
Q 2550 3084 2163 3084 
Q 1697 3084 1428 2787 
Q 1159 2491 1159 1978 
L 1159 0 
L 581 0 
L 581 3500 
L 1159 3500 
L 1159 2956 
Q 1366 3272 1645 3428 
Q 1925 3584 2291 3584 
Q 2894 3584 3203 3211 
Q 3513 2838 3513 2113 
z
" transform="scale(0.015625)"/>
       <path id="DejaVuSans-73" d="M 2834 3397 
L 2834 2853 
Q 2591 2978 2328 3040 
Q 2066 3103 1784 3103 
Q 1356 3103 1142 2972 
Q 928 2841 928 2578 
Q 928 2378 1081 2264 
Q 1234 2150 1697 2047 
L 1894 2003 
Q 2506 1872 2764 1633 
Q 3022 1394 3022 966 
Q 3022 478 2636 193 
Q 2250 -91 1575 -91 
Q 1294 -91 989 -36 
Q 684 19 347 128 
L 347 722 
Q 666 556 975 473 
Q 1284 391 1588 391 
Q 1994 391 2212 530 
Q 2431 669 2431 922 
Q 2431 1156 2273 1281 
Q 2116 1406 1581 1522 
L 1381 1569 
Q 847 1681 609 1914 
Q 372 2147 372 2553 
Q 372 3047 722 3315 
Q 1072 3584 1716 3584 
Q 2034 3584 2315 3537 
Q 2597 3491 2834 3397 
z
" transform="scale(0.015625)"/>
       <path id="DejaVuSans-69" d="M 603 3500 
L 1178 3500 
L 1178 0 
L 603 0 
L 603 3500 
z
M 603 4863 
L 1178 4863 
L 1178 4134 
L 603 4134 
L 603 4863 
z
" transform="scale(0.015625)"/>
       <path id="DejaVuSans-79" d="M 2059 -325 
Q 1816 -950 1584 -1140 
Q 1353 -1331 966 -1331 
L 506 -1331 
L 506 -850 
L 844 -850 
Q 1081 -850 1212 -737 
Q 1344 -625 1503 -206 
L 1606 56 
L 191 3500 
L 800 3500 
L 1894 763 
L 2988 3500 
L 3597 3500 
L 2059 -325 
z
" transform="scale(0.015625)"/>
      </defs>
      <use xlink:href="#DejaVuSans-44"/>
      <use xlink:href="#DejaVuSans-65" x="77.001953"/>
      <use xlink:href="#DejaVuSans-6e" x="138.525391"/>
      <use xlink:href="#DejaVuSans-73" x="201.904297"/>
      <use xlink:href="#DejaVuSans-69" x="254.003906"/>
      <use xlink:href="#DejaVuSans-74" x="281.787109"/>
      <use xlink:href="#DejaVuSans-79" x="320.996094"/>
     </g>
    </g>
   </g>
   <g id="line2d_16">
    <path d="M 77.325509 318.181871 
L 82.432083 318.053017 
L 86.262014 317.716415 
L 90.091944 317.04757 
L 95.198518 315.959596 
L 97.751805 315.64635 
L 100.305092 315.614795 
L 104.135022 315.953107 
L 109.241596 316.436083 
L 119.454743 316.9775 
L 122.00803 316.879038 
L 124.561317 316.526277 
L 127.114604 315.947014 
L 132.221178 314.461531 
L 134.774465 313.513726 
L 136.051108 312.885928 
L 137.327752 312.084863 
L 138.604395 311.050204 
L 139.881039 309.722224 
L 141.157682 308.047574 
L 142.434326 305.984763 
L 143.710969 303.508855 
L 144.987613 300.614877 
L 146.264256 297.319383 
L 148.817543 289.689282 
L 151.37083 281.070515 
L 155.20076 267.127671 
L 157.754047 257.016409 
L 160.307334 245.435366 
L 161.583977 238.799885 
L 162.860621 231.480348 
L 165.413908 214.698468 
L 167.967195 195.462069 
L 174.350412 144.667195 
L 176.903699 126.755004 
L 178.180342 118.781128 
L 179.456986 111.534657 
L 180.733629 105.039075 
L 182.010273 99.297494 
L 183.286916 94.296589 
L 184.56356 90.010699 
L 185.840203 86.406383 
L 187.116847 83.447876 
L 188.39349 81.103707 
L 189.670133 79.354336 
L 190.946777 78.20003 
L 192.22342 77.667669 
L 193.500064 77.814792 
L 194.776707 78.729156 
L 196.053351 80.52246 
L 197.329994 83.317612 
L 198.606638 87.230059 
L 199.883281 92.345073 
L 201.159925 98.694315 
L 202.436568 106.236048 
L 203.713211 114.843619 
L 206.266498 134.341794 
L 210.096429 164.635262 
L 212.649716 182.189619 
L 213.926359 189.703193 
L 215.203003 196.368645 
L 216.479646 202.275937 
L 219.032933 212.408803 
L 225.41615 235.37733 
L 227.969437 245.607713 
L 233.076011 266.527158 
L 235.629298 275.599386 
L 236.905941 279.521524 
L 238.182585 283.007605 
L 239.459228 286.074317 
L 240.735872 288.760938 
L 242.012515 291.12181 
L 244.565802 295.115821 
L 247.119089 298.539124 
L 253.502306 306.470873 
L 256.055593 309.374751 
L 258.60888 311.818478 
L 259.885523 312.809769 
L 261.162167 313.634372 
L 262.43881 314.29511 
L 263.715454 314.803187 
L 266.268741 315.432541 
L 268.822028 315.680103 
L 271.375314 315.68704 
L 276.481888 315.386358 
L 280.311819 315.225452 
L 285.418392 315.309866 
L 290.524966 315.310215 
L 294.354897 315.307368 
L 296.908184 315.490102 
L 307.121331 316.660102 
L 313.504548 316.929794 
L 318.611122 317.481892 
L 323.717696 317.968214 
L 328.82427 318.158519 
L 331.377557 318.185958 
L 331.377557 318.185958 
" clip-path="url(#pcca331939c)" style="fill: none; stroke: #2ca02c; stroke-width: 1.5; stroke-linecap: square"/>
   </g>
   <g id="line2d_17">
    <path d="M 61.303693 318.169414 
L 66.466844 317.982572 
L 69.048419 317.722935 
L 71.629995 317.279855 
L 74.21157 316.637463 
L 81.956296 314.454908 
L 84.537871 314.059361 
L 89.701022 313.464171 
L 92.282598 312.823947 
L 94.864173 311.787656 
L 98.736536 309.732216 
L 101.318111 308.375756 
L 103.899687 307.290588 
L 106.481262 306.551007 
L 111.644413 305.442156 
L 112.9352 305.004025 
L 114.225988 304.418545 
L 115.516776 303.661636 
L 116.807564 302.72654 
L 119.389139 300.384373 
L 123.261502 296.209968 
L 127.133865 291.793951 
L 129.71544 288.386961 
L 131.006228 286.34001 
L 132.297016 283.958105 
L 133.587803 281.171153 
L 134.878591 277.924628 
L 136.169379 274.183232 
L 137.460166 269.931987 
L 138.750954 265.175321 
L 141.332529 254.24617 
L 143.914105 241.715393 
L 146.49568 228.002626 
L 150.368043 206.036669 
L 156.821982 167.586034 
L 160.694345 144.664432 
L 163.27592 130.304407 
L 165.857495 117.428089 
L 167.148283 111.784409 
L 168.439071 106.800667 
L 169.729858 102.566131 
L 171.020646 99.154421 
L 172.311434 96.616286 
L 173.602222 94.973894 
L 174.893009 94.217749 
L 176.183797 94.307048 
L 177.474585 95.17377 
L 178.765372 96.730204 
L 180.05616 98.878926 
L 181.346948 101.52373 
L 182.637735 104.579739 
L 185.219311 111.684832 
L 187.800886 119.941267 
L 190.382461 129.399526 
L 192.964037 140.249591 
L 195.545612 152.65968 
L 198.127187 166.66668 
L 200.708763 182.099126 
L 204.581126 206.963378 
L 209.744277 240.029393 
L 212.325852 255.123746 
L 214.907427 268.545781 
L 216.198215 274.496354 
L 217.489003 279.891496 
L 218.77979 284.71525 
L 220.070578 288.970263 
L 221.361366 292.67684 
L 222.652153 295.869479 
L 223.942941 298.591682 
L 225.233729 300.890394 
L 226.524516 302.811503 
L 227.815304 304.397383 
L 229.106092 305.686769 
L 230.39688 306.716431 
L 231.687667 307.523593 
L 232.978455 308.147854 
L 235.56003 309.018988 
L 242.013969 310.758869 
L 247.177119 312.599698 
L 251.049482 313.886058 
L 254.921845 314.887999 
L 260.084996 315.88289 
L 266.538935 316.849651 
L 270.411298 317.166384 
L 274.283661 317.166615 
L 283.319174 316.881311 
L 300.099414 317.102215 
L 311.716504 318.06683 
L 318.170442 318.186887 
L 318.170442 318.186887 
" clip-path="url(#pcca331939c)" style="fill: none; stroke: #ff7f0e; stroke-width: 1.5; stroke-linecap: square"/>
   </g>
   <g id="line2d_18">
    <path d="M 64.009562 316.374682 
L 64.771318 315.561375 
L 65.533074 314.441433 
L 66.294831 312.924194 
L 67.056587 310.902139 
L 67.818343 308.251379 
L 68.580099 304.833634 
L 69.341856 300.500048 
L 70.103612 295.09706 
L 70.865368 288.47442 
L 71.627124 280.495203 
L 72.388881 271.04739 
L 73.912393 247.497172 
L 75.435906 217.887709 
L 76.959418 183.362926 
L 80.7682 92.527745 
L 82.291712 62.988999 
L 83.053468 51.118804 
L 83.815225 41.462865 
L 84.576981 34.114496 
L 85.338737 29.070145 
L 86.100493 26.235442 
L 86.86225 25.437471 
L 87.624006 26.441865 
L 88.385762 28.972921 
L 89.147519 32.734748 
L 90.671031 42.785274 
L 96.765081 88.66865 
L 99.812106 108.430554 
L 102.097375 121.890787 
L 103.620888 129.865224 
L 105.1444 136.673571 
L 106.667913 142.08392 
L 107.429669 144.245791 
L 108.191425 146.066711 
L 108.953181 147.582813 
L 110.476694 149.914801 
L 113.523719 153.720703 
L 115.047232 156.290592 
L 116.570744 159.79915 
L 118.094257 164.326172 
L 119.617769 169.718561 
L 122.664794 181.783798 
L 124.950063 190.623514 
L 127.235332 198.590615 
L 130.282357 208.069346 
L 134.091138 219.738912 
L 136.376407 227.377868 
L 139.423432 238.454685 
L 144.755726 258.223329 
L 147.040995 265.667393 
L 148.564507 270.007844 
L 150.08802 273.798779 
L 151.611532 277.054002 
L 153.135045 279.834868 
L 154.658557 282.237057 
L 156.943826 285.374206 
L 165.323145 296.243112 
L 170.655439 303.483839 
L 173.702464 307.185102 
L 175.987733 309.653255 
L 178.273001 311.843202 
L 180.55827 313.715525 
L 182.081783 314.754362 
L 183.605295 315.602802 
L 185.128808 316.249548 
L 186.65232 316.695764 
L 188.175833 316.957108 
L 190.461102 317.070967 
L 194.269883 316.894999 
L 197.316908 316.829107 
L 200.363933 317.025182 
L 210.266764 318.062387 
L 215.599058 318.184976 
L 215.599058 318.184976 
" clip-path="url(#pcca331939c)" style="fill: none; stroke: #1f77b4; stroke-width: 1.5; stroke-linecap: square"/>
   </g>
   <g id="patch_3">
    <path d="M 47.8 318.2 
L 47.8 10.8 
" style="fill: none; stroke: #000000; stroke-width: 0.8; stroke-linejoin: miter; stroke-linecap: square"/>
   </g>
   <g id="patch_4">
    <path d="M 47.8 318.2 
L 344.88125 318.2 
" style="fill: none; stroke: #000000; stroke-width: 0.8; stroke-linejoin: miter; stroke-linecap: square"/>
   </g>
  </g>
  <g id="legend_1">
   <g id="text_18">
    <!-- pressed -->
    <g transform="translate(371.325781 160.742188)scale(0.1 -0.1)">
     <defs>
      <path id="DejaVuSans-70" d="M 1159 525 
L 1159 -1331 
L 581 -1331 
L 581 3500 
L 1159 3500 
L 1159 2969 
Q 1341 3281 1617 3432 
Q 1894 3584 2278 3584 
Q 2916 3584 3314 3078 
Q 3713 2572 3713 1747 
Q 3713 922 3314 415 
Q 2916 -91 2278 -91 
Q 1894 -91 1617 61 
Q 1341 213 1159 525 
z
M 3116 1747 
Q 3116 2381 2855 2742 
Q 2594 3103 2138 3103 
Q 1681 3103 1420 2742 
Q 1159 2381 1159 1747 
Q 1159 1113 1420 752 
Q 1681 391 2138 391 
Q 2594 391 2855 752 
Q 3116 1113 3116 1747 
z
" transform="scale(0.015625)"/>
      <path id="DejaVuSans-64" d="M 2906 2969 
L 2906 4863 
L 3481 4863 
L 3481 0 
L 2906 0 
L 2906 525 
Q 2725 213 2448 61 
Q 2172 -91 1784 -91 
Q 1150 -91 751 415 
Q 353 922 353 1747 
Q 353 2572 751 3078 
Q 1150 3584 1784 3584 
Q 2172 3584 2448 3432 
Q 2725 3281 2906 2969 
z
M 947 1747 
Q 947 1113 1208 752 
Q 1469 391 1925 391 
Q 2381 391 2643 752 
Q 2906 1113 2906 1747 
Q 2906 2381 2643 2742 
Q 2381 3103 1925 3103 
Q 1469 3103 1208 2742 
Q 947 2381 947 1747 
z
" transform="scale(0.015625)"/>
     </defs>
     <use xlink:href="#DejaVuSans-70"/>
     <use xlink:href="#DejaVuSans-72" x="63.476562"/>
     <use xlink:href="#DejaVuSans-65" x="102.339844"/>
     <use xlink:href="#DejaVuSans-73" x="163.863281"/>
     <use xlink:href="#DejaVuSans-73" x="215.962891"/>
     <use xlink:href="#DejaVuSans-65" x="268.0625"/>
     <use xlink:href="#DejaVuSans-64" x="329.585938"/>
    </g>
   </g>
   <g id="line2d_19">
    <path d="M 359.084375 171.920312 
L 369.084375 171.920312 
L 379.084375 171.920312 
" style="fill: none; stroke: #1f77b4; stroke-width: 1.5; stroke-linecap: square"/>
   </g>
   <g id="text_19">
    <!-- neither -->
    <g transform="translate(387.084375 175.420312)scale(0.1 -0.1)">
     <defs>
      <path id="DejaVuSans-68" d="M 3513 2113 
L 3513 0 
L 2938 0 
L 2938 2094 
Q 2938 2591 2744 2837 
Q 2550 3084 2163 3084 
Q 1697 3084 1428 2787 
Q 1159 2491 1159 1978 
L 1159 0 
L 581 0 
L 581 4863 
L 1159 4863 
L 1159 2956 
Q 1366 3272 1645 3428 
Q 1925 3584 2291 3584 
Q 2894 3584 3203 3211 
Q 3513 2838 3513 2113 
z
" transform="scale(0.015625)"/>
     </defs>
     <use xlink:href="#DejaVuSans-6e"/>
     <use xlink:href="#DejaVuSans-65" x="63.378906"/>
     <use xlink:href="#DejaVuSans-69" x="124.902344"/>
     <use xlink:href="#DejaVuSans-74" x="152.685547"/>
     <use xlink:href="#DejaVuSans-68" x="191.894531"/>
     <use xlink:href="#DejaVuSans-65" x="255.273438"/>
     <use xlink:href="#DejaVuSans-72" x="316.796875"/>
    </g>
   </g>
   <g id="line2d_20">
    <path d="M 359.084375 186.598437 
L 369.084375 186.598437 
L 379.084375 186.598437 
" style="fill: none; stroke: #ff7f0e; stroke-width: 1.5; stroke-linecap: square"/>
   </g>
   <g id="text_20">
    <!-- 1st -->
    <g transform="translate(387.084375 190.098437)scale(0.1 -0.1)">
     <use xlink:href="#DejaVuSans-31"/>
     <use xlink:href="#DejaVuSans-73" x="63.623047"/>
     <use xlink:href="#DejaVuSans-74" x="115.722656"/>
    </g>
   </g>
   <g id="line2d_21">
    <path d="M 359.084375 201.276563 
L 369.084375 201.276563 
L 379.084375 201.276563 
" style="fill: none; stroke: #2ca02c; stroke-width: 1.5; stroke-linecap: square"/>
   </g>
   <g id="text_21">
    <!-- 2nd -->
    <g transform="translate(387.084375 204.776563)scale(0.1 -0.1)">
     <use xlink:href="#DejaVuSans-32"/>
     <use xlink:href="#DejaVuSans-6e" x="63.623047"/>
     <use xlink:href="#DejaVuSans-64" x="127.001953"/>
    </g>
   </g>
  </g>
 </g>
 <defs>
  <clipPath id="pcca331939c">
   <rect x="47.8" y="10.8" width="297.08125" height="307.4"/>
  </clipPath>
 </defs>
</svg>
