<?xml version="1.0" encoding="utf-8" standalone="no"?>
<!DOCTYPE svg PUBLIC "-//W3C//DTD SVG 1.1//EN"
  "http://www.w3.org/Graphics/SVG/1.1/DTD/svg11.dtd">
<svg xmlns:xlink="http://www.w3.org/1999/xlink" width="576pt" height="432pt" viewBox="0 0 576 432" xmlns="http://www.w3.org/2000/svg" version="1.1">
 <metadata>
  <rdf:RDF xmlns:dc="http://purl.org/dc/elements/1.1/" xmlns:cc="http://creativecommons.org/ns#" xmlns:rdf="http://www.w3.org/1999/02/22-rdf-syntax-ns#">
   <cc:Work>
    <dc:type rdf:resource="http://purl.org/dc/dcmitype/StillImage"/>
    <dc:date>2024-01-31T14:02:52.722875</dc:date>
    <dc:format>image/svg+xml</dc:format>
    <dc:creator>
     <cc:Agent>
      <dc:title>Matplotlib v3.8.2, https://matplotlib.org/</dc:title>
     </cc:Agent>
    </dc:creator>
   </cc:Work>
  </rdf:RDF>
 </metadata>
 <defs>
  <style type="text/css">*{stroke-linejoin: round; stroke-linecap: butt}</style>
 </defs>
 <g id="figure_1">
  <g id="patch_1">
   <path d="M 0 432 
L 576 432 
L 576 0 
L 0 0 
z
" style="fill: #ffffff"/>
  </g>
  <g id="axes_1">
   <g id="patch_2">
    <path d="M 72 384.48 
L 518.4 384.48 
L 518.4 51.84 
L 72 51.84 
z
" style="fill: #ffffff"/>
   </g>
   <g id="matplotlib.axis_1">
    <g id="xtick_1">
     <g id="text_1">
      <!-- 3.2 -->
      <g style="fill: #262626" transform="translate(92.903252 401.853594) scale(0.11 -0.11)">
       <defs>
        <path id="ArialMT-33" d="M 269 1209 
L 831 1284 
Q 928 806 1161 595 
Q 1394 384 1728 384 
Q 2125 384 2398 659 
Q 2672 934 2672 1341 
Q 2672 1728 2419 1979 
Q 2166 2231 1775 2231 
Q 1616 2231 1378 2169 
L 1441 2663 
Q 1497 2656 1531 2656 
Q 1891 2656 2178 2843 
Q 2466 3031 2466 3422 
Q 2466 3731 2256 3934 
Q 2047 4138 1716 4138 
Q 1388 4138 1169 3931 
Q 950 3725 888 3313 
L 325 3413 
Q 428 3978 793 4289 
Q 1159 4600 1703 4600 
Q 2078 4600 2393 4439 
Q 2709 4278 2876 4000 
Q 3044 3722 3044 3409 
Q 3044 3113 2884 2869 
Q 2725 2625 2413 2481 
Q 2819 2388 3044 2092 
Q 3269 1797 3269 1353 
Q 3269 753 2831 336 
Q 2394 -81 1725 -81 
Q 1122 -81 723 278 
Q 325 638 269 1209 
z
" transform="scale(0.015625)"/>
        <path id="ArialMT-2e" d="M 581 0 
L 581 641 
L 1222 641 
L 1222 0 
L 581 0 
z
" transform="scale(0.015625)"/>
        <path id="ArialMT-32" d="M 3222 541 
L 3222 0 
L 194 0 
Q 188 203 259 391 
Q 375 700 629 1000 
Q 884 1300 1366 1694 
Q 2113 2306 2375 2664 
Q 2638 3022 2638 3341 
Q 2638 3675 2398 3904 
Q 2159 4134 1775 4134 
Q 1369 4134 1125 3890 
Q 881 3647 878 3216 
L 300 3275 
Q 359 3922 746 4261 
Q 1134 4600 1788 4600 
Q 2447 4600 2831 4234 
Q 3216 3869 3216 3328 
Q 3216 3053 3103 2787 
Q 2991 2522 2730 2228 
Q 2469 1934 1863 1422 
Q 1356 997 1212 845 
Q 1069 694 975 541 
L 3222 541 
z
" transform="scale(0.015625)"/>
       </defs>
       <use xlink:href="#ArialMT-33"/>
       <use xlink:href="#ArialMT-2e" x="55.615234"/>
       <use xlink:href="#ArialMT-32" x="83.398438"/>
      </g>
     </g>
    </g>
    <g id="xtick_2">
     <g id="text_2">
      <!-- 3.3 -->
      <g style="fill: #262626" transform="translate(189.927028 401.853594) scale(0.11 -0.11)">
       <use xlink:href="#ArialMT-33"/>
       <use xlink:href="#ArialMT-2e" x="55.615234"/>
       <use xlink:href="#ArialMT-33" x="83.398438"/>
      </g>
     </g>
    </g>
    <g id="xtick_3">
     <g id="text_3">
      <!-- 3.4 -->
      <g style="fill: #262626" transform="translate(286.950804 401.853594) scale(0.11 -0.11)">
       <defs>
        <path id="ArialMT-34" d="M 2069 0 
L 2069 1097 
L 81 1097 
L 81 1613 
L 2172 4581 
L 2631 4581 
L 2631 1613 
L 3250 1613 
L 3250 1097 
L 2631 1097 
L 2631 0 
L 2069 0 
z
M 2069 1613 
L 2069 3678 
L 634 1613 
L 2069 1613 
z
" transform="scale(0.015625)"/>
       </defs>
       <use xlink:href="#ArialMT-33"/>
       <use xlink:href="#ArialMT-2e" x="55.615234"/>
       <use xlink:href="#ArialMT-34" x="83.398438"/>
      </g>
     </g>
    </g>
    <g id="xtick_4">
     <g id="text_4">
      <!-- 3.5 -->
      <g style="fill: #262626" transform="translate(383.97458 401.853594) scale(0.11 -0.11)">
       <defs>
        <path id="ArialMT-35" d="M 266 1200 
L 856 1250 
Q 922 819 1161 601 
Q 1400 384 1738 384 
Q 2144 384 2425 690 
Q 2706 997 2706 1503 
Q 2706 1984 2436 2262 
Q 2166 2541 1728 2541 
Q 1456 2541 1237 2417 
Q 1019 2294 894 2097 
L 366 2166 
L 809 4519 
L 3088 4519 
L 3088 3981 
L 1259 3981 
L 1013 2750 
Q 1425 3038 1878 3038 
Q 2478 3038 2890 2622 
Q 3303 2206 3303 1553 
Q 3303 931 2941 478 
Q 2500 -78 1738 -78 
Q 1113 -78 717 272 
Q 322 622 266 1200 
z
" transform="scale(0.015625)"/>
       </defs>
       <use xlink:href="#ArialMT-33"/>
       <use xlink:href="#ArialMT-2e" x="55.615234"/>
       <use xlink:href="#ArialMT-35" x="83.398438"/>
      </g>
     </g>
    </g>
    <g id="xtick_5">
     <g id="text_5">
      <!-- 3.6 -->
      <g style="fill: #262626" transform="translate(480.998357 401.853594) scale(0.11 -0.11)">
       <defs>
        <path id="ArialMT-36" d="M 3184 3459 
L 2625 3416 
Q 2550 3747 2413 3897 
Q 2184 4138 1850 4138 
Q 1581 4138 1378 3988 
Q 1113 3794 959 3422 
Q 806 3050 800 2363 
Q 1003 2672 1297 2822 
Q 1591 2972 1913 2972 
Q 2475 2972 2870 2558 
Q 3266 2144 3266 1488 
Q 3266 1056 3080 686 
Q 2894 316 2569 119 
Q 2244 -78 1831 -78 
Q 1128 -78 684 439 
Q 241 956 241 2144 
Q 241 3472 731 4075 
Q 1159 4600 1884 4600 
Q 2425 4600 2770 4297 
Q 3116 3994 3184 3459 
z
M 888 1484 
Q 888 1194 1011 928 
Q 1134 663 1356 523 
Q 1578 384 1822 384 
Q 2178 384 2434 671 
Q 2691 959 2691 1453 
Q 2691 1928 2437 2201 
Q 2184 2475 1800 2475 
Q 1419 2475 1153 2201 
Q 888 1928 888 1484 
z
" transform="scale(0.015625)"/>
       </defs>
       <use xlink:href="#ArialMT-33"/>
       <use xlink:href="#ArialMT-2e" x="55.615234"/>
       <use xlink:href="#ArialMT-36" x="83.398438"/>
      </g>
     </g>
    </g>
    <g id="text_6">
     <!-- Q1 Median -->
     <g style="fill: #262626" transform="translate(265.8525 416.629219) scale(0.12 -0.12)">
      <defs>
       <path id="ArialMT-51" d="M 3966 491 
Q 4388 200 4744 66 
L 4566 -356 
Q 4072 -178 3581 206 
Q 3072 -78 2456 -78 
Q 1834 -78 1328 222 
Q 822 522 548 1065 
Q 275 1609 275 2291 
Q 275 2969 550 3525 
Q 825 4081 1333 4372 
Q 1841 4663 2469 4663 
Q 3103 4663 3612 4361 
Q 4122 4059 4389 3517 
Q 4656 2975 4656 2294 
Q 4656 1728 4484 1276 
Q 4313 825 3966 491 
z
M 2631 1266 
Q 3156 1119 3497 828 
Q 4031 1316 4031 2294 
Q 4031 2850 3842 3265 
Q 3653 3681 3289 3911 
Q 2925 4141 2472 4141 
Q 1794 4141 1347 3677 
Q 900 3213 900 2291 
Q 900 1397 1342 919 
Q 1784 441 2472 441 
Q 2797 441 3084 563 
Q 2800 747 2484 825 
L 2631 1266 
z
" transform="scale(0.015625)"/>
       <path id="ArialMT-31" d="M 2384 0 
L 1822 0 
L 1822 3584 
Q 1619 3391 1289 3197 
Q 959 3003 697 2906 
L 697 3450 
Q 1169 3672 1522 3987 
Q 1875 4303 2022 4600 
L 2384 4600 
L 2384 0 
z
" transform="scale(0.015625)"/>
       <path id="ArialMT-20" transform="scale(0.015625)"/>
       <path id="ArialMT-4d" d="M 475 0 
L 475 4581 
L 1388 4581 
L 2472 1338 
Q 2622 884 2691 659 
Q 2769 909 2934 1394 
L 4031 4581 
L 4847 4581 
L 4847 0 
L 4263 0 
L 4263 3834 
L 2931 0 
L 2384 0 
L 1059 3900 
L 1059 0 
L 475 0 
z
" transform="scale(0.015625)"/>
       <path id="ArialMT-65" d="M 2694 1069 
L 3275 997 
Q 3138 488 2766 206 
Q 2394 -75 1816 -75 
Q 1088 -75 661 373 
Q 234 822 234 1631 
Q 234 2469 665 2931 
Q 1097 3394 1784 3394 
Q 2450 3394 2872 2941 
Q 3294 2488 3294 1666 
Q 3294 1616 3291 1516 
L 816 1516 
Q 847 969 1125 678 
Q 1403 388 1819 388 
Q 2128 388 2347 550 
Q 2566 713 2694 1069 
z
M 847 1978 
L 2700 1978 
Q 2663 2397 2488 2606 
Q 2219 2931 1791 2931 
Q 1403 2931 1139 2672 
Q 875 2413 847 1978 
z
" transform="scale(0.015625)"/>
       <path id="ArialMT-64" d="M 2575 0 
L 2575 419 
Q 2259 -75 1647 -75 
Q 1250 -75 917 144 
Q 584 363 401 755 
Q 219 1147 219 1656 
Q 219 2153 384 2558 
Q 550 2963 881 3178 
Q 1213 3394 1622 3394 
Q 1922 3394 2156 3267 
Q 2391 3141 2538 2938 
L 2538 4581 
L 3097 4581 
L 3097 0 
L 2575 0 
z
M 797 1656 
Q 797 1019 1065 703 
Q 1334 388 1700 388 
Q 2069 388 2326 689 
Q 2584 991 2584 1609 
Q 2584 2291 2321 2609 
Q 2059 2928 1675 2928 
Q 1300 2928 1048 2622 
Q 797 2316 797 1656 
z
" transform="scale(0.015625)"/>
       <path id="ArialMT-69" d="M 425 3934 
L 425 4581 
L 988 4581 
L 988 3934 
L 425 3934 
z
M 425 0 
L 425 3319 
L 988 3319 
L 988 0 
L 425 0 
z
" transform="scale(0.015625)"/>
       <path id="ArialMT-61" d="M 2588 409 
Q 2275 144 1986 34 
Q 1697 -75 1366 -75 
Q 819 -75 525 192 
Q 231 459 231 875 
Q 231 1119 342 1320 
Q 453 1522 633 1644 
Q 813 1766 1038 1828 
Q 1203 1872 1538 1913 
Q 2219 1994 2541 2106 
Q 2544 2222 2544 2253 
Q 2544 2597 2384 2738 
Q 2169 2928 1744 2928 
Q 1347 2928 1158 2789 
Q 969 2650 878 2297 
L 328 2372 
Q 403 2725 575 2942 
Q 747 3159 1072 3276 
Q 1397 3394 1825 3394 
Q 2250 3394 2515 3294 
Q 2781 3194 2906 3042 
Q 3031 2891 3081 2659 
Q 3109 2516 3109 2141 
L 3109 1391 
Q 3109 606 3145 398 
Q 3181 191 3288 0 
L 2700 0 
Q 2613 175 2588 409 
z
M 2541 1666 
Q 2234 1541 1622 1453 
Q 1275 1403 1131 1340 
Q 988 1278 909 1158 
Q 831 1038 831 891 
Q 831 666 1001 516 
Q 1172 366 1500 366 
Q 1825 366 2078 508 
Q 2331 650 2450 897 
Q 2541 1088 2541 1459 
L 2541 1666 
z
" transform="scale(0.015625)"/>
       <path id="ArialMT-6e" d="M 422 0 
L 422 3319 
L 928 3319 
L 928 2847 
Q 1294 3394 1984 3394 
Q 2284 3394 2536 3286 
Q 2788 3178 2913 3003 
Q 3038 2828 3088 2588 
Q 3119 2431 3119 2041 
L 3119 0 
L 2556 0 
L 2556 2019 
Q 2556 2363 2490 2533 
Q 2425 2703 2258 2804 
Q 2091 2906 1866 2906 
Q 1506 2906 1245 2678 
Q 984 2450 984 1813 
L 984 0 
L 422 0 
z
" transform="scale(0.015625)"/>
      </defs>
      <use xlink:href="#ArialMT-51"/>
      <use xlink:href="#ArialMT-31" x="77.783203"/>
      <use xlink:href="#ArialMT-20" x="133.398438"/>
      <use xlink:href="#ArialMT-4d" x="161.181641"/>
      <use xlink:href="#ArialMT-65" x="244.482422"/>
      <use xlink:href="#ArialMT-64" x="300.097656"/>
      <use xlink:href="#ArialMT-69" x="355.712891"/>
      <use xlink:href="#ArialMT-61" x="377.929688"/>
      <use xlink:href="#ArialMT-6e" x="433.544922"/>
     </g>
    </g>
   </g>
   <g id="matplotlib.axis_2">
    <g id="ytick_1">
     <g id="text_7">
      <!-- 0.00 -->
      <g style="fill: #262626" transform="translate(41.092969 365.934878) scale(0.11 -0.11)">
       <defs>
        <path id="ArialMT-30" d="M 266 2259 
Q 266 3072 433 3567 
Q 600 4063 929 4331 
Q 1259 4600 1759 4600 
Q 2128 4600 2406 4451 
Q 2684 4303 2865 4023 
Q 3047 3744 3150 3342 
Q 3253 2941 3253 2259 
Q 3253 1453 3087 958 
Q 2922 463 2592 192 
Q 2263 -78 1759 -78 
Q 1097 -78 719 397 
Q 266 969 266 2259 
z
M 844 2259 
Q 844 1131 1108 757 
Q 1372 384 1759 384 
Q 2147 384 2411 759 
Q 2675 1134 2675 2259 
Q 2675 3391 2411 3762 
Q 2147 4134 1753 4134 
Q 1366 4134 1134 3806 
Q 844 3388 844 2259 
z
" transform="scale(0.015625)"/>
       </defs>
       <use xlink:href="#ArialMT-30"/>
       <use xlink:href="#ArialMT-2e" x="55.615234"/>
       <use xlink:href="#ArialMT-30" x="83.398438"/>
       <use xlink:href="#ArialMT-30" x="139.013672"/>
      </g>
     </g>
    </g>
    <g id="ytick_2">
     <g id="text_8">
      <!-- 0.05 -->
      <g style="fill: #262626" transform="translate(41.092969 319.902762) scale(0.11 -0.11)">
       <use xlink:href="#ArialMT-30"/>
       <use xlink:href="#ArialMT-2e" x="55.615234"/>
       <use xlink:href="#ArialMT-30" x="83.398438"/>
       <use xlink:href="#ArialMT-35" x="139.013672"/>
      </g>
     </g>
    </g>
    <g id="ytick_3">
     <g id="text_9">
      <!-- 0.10 -->
      <g style="fill: #262626" transform="translate(41.092969 273.870645) scale(0.11 -0.11)">
       <use xlink:href="#ArialMT-30"/>
       <use xlink:href="#ArialMT-2e" x="55.615234"/>
       <use xlink:href="#ArialMT-31" x="83.398438"/>
       <use xlink:href="#ArialMT-30" x="139.013672"/>
      </g>
     </g>
    </g>
    <g id="ytick_4">
     <g id="text_10">
      <!-- 0.15 -->
      <g style="fill: #262626" transform="translate(41.092969 227.838529) scale(0.11 -0.11)">
       <use xlink:href="#ArialMT-30"/>
       <use xlink:href="#ArialMT-2e" x="55.615234"/>
       <use xlink:href="#ArialMT-31" x="83.398438"/>
       <use xlink:href="#ArialMT-35" x="139.013672"/>
      </g>
     </g>
    </g>
    <g id="ytick_5">
     <g id="text_11">
      <!-- 0.20 -->
      <g style="fill: #262626" transform="translate(41.092969 181.806413) scale(0.11 -0.11)">
       <use xlink:href="#ArialMT-30"/>
       <use xlink:href="#ArialMT-2e" x="55.615234"/>
       <use xlink:href="#ArialMT-32" x="83.398438"/>
       <use xlink:href="#ArialMT-30" x="139.013672"/>
      </g>
     </g>
    </g>
    <g id="ytick_6">
     <g id="text_12">
      <!-- 0.25 -->
      <g style="fill: #262626" transform="translate(41.092969 135.774297) scale(0.11 -0.11)">
       <use xlink:href="#ArialMT-30"/>
       <use xlink:href="#ArialMT-2e" x="55.615234"/>
       <use xlink:href="#ArialMT-32" x="83.398438"/>
       <use xlink:href="#ArialMT-35" x="139.013672"/>
      </g>
     </g>
    </g>
    <g id="ytick_7">
     <g id="text_13">
      <!-- 0.30 -->
      <g style="fill: #262626" transform="translate(41.092969 89.74218) scale(0.11 -0.11)">
       <use xlink:href="#ArialMT-30"/>
       <use xlink:href="#ArialMT-2e" x="55.615234"/>
       <use xlink:href="#ArialMT-33" x="83.398438"/>
       <use xlink:href="#ArialMT-30" x="139.013672"/>
      </g>
     </g>
    </g>
    <g id="text_14">
     <!-- rate shifted - rate swapped (NN) -->
     <g style="fill: #262626" transform="translate(34.567344 303.522187) rotate(-90) scale(0.12 -0.12)">
      <defs>
       <path id="ArialMT-72" d="M 416 0 
L 416 3319 
L 922 3319 
L 922 2816 
Q 1116 3169 1280 3281 
Q 1444 3394 1641 3394 
Q 1925 3394 2219 3213 
L 2025 2691 
Q 1819 2813 1613 2813 
Q 1428 2813 1281 2702 
Q 1134 2591 1072 2394 
Q 978 2094 978 1738 
L 978 0 
L 416 0 
z
" transform="scale(0.015625)"/>
       <path id="ArialMT-74" d="M 1650 503 
L 1731 6 
Q 1494 -44 1306 -44 
Q 1000 -44 831 53 
Q 663 150 594 308 
Q 525 466 525 972 
L 525 2881 
L 113 2881 
L 113 3319 
L 525 3319 
L 525 4141 
L 1084 4478 
L 1084 3319 
L 1650 3319 
L 1650 2881 
L 1084 2881 
L 1084 941 
Q 1084 700 1114 631 
Q 1144 563 1211 522 
Q 1278 481 1403 481 
Q 1497 481 1650 503 
z
" transform="scale(0.015625)"/>
       <path id="ArialMT-73" d="M 197 991 
L 753 1078 
Q 800 744 1014 566 
Q 1228 388 1613 388 
Q 2000 388 2187 545 
Q 2375 703 2375 916 
Q 2375 1106 2209 1216 
Q 2094 1291 1634 1406 
Q 1016 1563 777 1677 
Q 538 1791 414 1992 
Q 291 2194 291 2438 
Q 291 2659 392 2848 
Q 494 3038 669 3163 
Q 800 3259 1026 3326 
Q 1253 3394 1513 3394 
Q 1903 3394 2198 3281 
Q 2494 3169 2634 2976 
Q 2775 2784 2828 2463 
L 2278 2388 
Q 2241 2644 2061 2787 
Q 1881 2931 1553 2931 
Q 1166 2931 1000 2803 
Q 834 2675 834 2503 
Q 834 2394 903 2306 
Q 972 2216 1119 2156 
Q 1203 2125 1616 2013 
Q 2213 1853 2448 1751 
Q 2684 1650 2818 1456 
Q 2953 1263 2953 975 
Q 2953 694 2789 445 
Q 2625 197 2315 61 
Q 2006 -75 1616 -75 
Q 969 -75 630 194 
Q 291 463 197 991 
z
" transform="scale(0.015625)"/>
       <path id="ArialMT-68" d="M 422 0 
L 422 4581 
L 984 4581 
L 984 2938 
Q 1378 3394 1978 3394 
Q 2347 3394 2619 3248 
Q 2891 3103 3008 2847 
Q 3125 2591 3125 2103 
L 3125 0 
L 2563 0 
L 2563 2103 
Q 2563 2525 2380 2717 
Q 2197 2909 1863 2909 
Q 1613 2909 1392 2779 
Q 1172 2650 1078 2428 
Q 984 2206 984 1816 
L 984 0 
L 422 0 
z
" transform="scale(0.015625)"/>
       <path id="ArialMT-66" d="M 556 0 
L 556 2881 
L 59 2881 
L 59 3319 
L 556 3319 
L 556 3672 
Q 556 4006 616 4169 
Q 697 4388 901 4523 
Q 1106 4659 1475 4659 
Q 1713 4659 2000 4603 
L 1916 4113 
Q 1741 4144 1584 4144 
Q 1328 4144 1222 4034 
Q 1116 3925 1116 3625 
L 1116 3319 
L 1763 3319 
L 1763 2881 
L 1116 2881 
L 1116 0 
L 556 0 
z
" transform="scale(0.015625)"/>
       <path id="ArialMT-2d" d="M 203 1375 
L 203 1941 
L 1931 1941 
L 1931 1375 
L 203 1375 
z
" transform="scale(0.015625)"/>
       <path id="ArialMT-77" d="M 1034 0 
L 19 3319 
L 600 3319 
L 1128 1403 
L 1325 691 
Q 1338 744 1497 1375 
L 2025 3319 
L 2603 3319 
L 3100 1394 
L 3266 759 
L 3456 1400 
L 4025 3319 
L 4572 3319 
L 3534 0 
L 2950 0 
L 2422 1988 
L 2294 2553 
L 1622 0 
L 1034 0 
z
" transform="scale(0.015625)"/>
       <path id="ArialMT-70" d="M 422 -1272 
L 422 3319 
L 934 3319 
L 934 2888 
Q 1116 3141 1344 3267 
Q 1572 3394 1897 3394 
Q 2322 3394 2647 3175 
Q 2972 2956 3137 2557 
Q 3303 2159 3303 1684 
Q 3303 1175 3120 767 
Q 2938 359 2589 142 
Q 2241 -75 1856 -75 
Q 1575 -75 1351 44 
Q 1128 163 984 344 
L 984 -1272 
L 422 -1272 
z
M 931 1641 
Q 931 1000 1190 694 
Q 1450 388 1819 388 
Q 2194 388 2461 705 
Q 2728 1022 2728 1688 
Q 2728 2322 2467 2637 
Q 2206 2953 1844 2953 
Q 1484 2953 1207 2617 
Q 931 2281 931 1641 
z
" transform="scale(0.015625)"/>
       <path id="ArialMT-28" d="M 1497 -1347 
Q 1031 -759 709 28 
Q 388 816 388 1659 
Q 388 2403 628 3084 
Q 909 3875 1497 4659 
L 1900 4659 
Q 1522 4009 1400 3731 
Q 1209 3300 1100 2831 
Q 966 2247 966 1656 
Q 966 153 1900 -1347 
L 1497 -1347 
z
" transform="scale(0.015625)"/>
       <path id="ArialMT-4e" d="M 488 0 
L 488 4581 
L 1109 4581 
L 3516 984 
L 3516 4581 
L 4097 4581 
L 4097 0 
L 3475 0 
L 1069 3600 
L 1069 0 
L 488 0 
z
" transform="scale(0.015625)"/>
       <path id="ArialMT-29" d="M 791 -1347 
L 388 -1347 
Q 1322 153 1322 1656 
Q 1322 2244 1188 2822 
Q 1081 3291 891 3722 
Q 769 4003 388 4659 
L 791 4659 
Q 1378 3875 1659 3084 
Q 1900 2403 1900 1659 
Q 1900 816 1576 28 
Q 1253 -759 791 -1347 
z
" transform="scale(0.015625)"/>
      </defs>
      <use xlink:href="#ArialMT-72"/>
      <use xlink:href="#ArialMT-61" x="33.300781"/>
      <use xlink:href="#ArialMT-74" x="88.916016"/>
      <use xlink:href="#ArialMT-65" x="116.699219"/>
      <use xlink:href="#ArialMT-20" x="172.314453"/>
      <use xlink:href="#ArialMT-73" x="200.097656"/>
      <use xlink:href="#ArialMT-68" x="250.097656"/>
      <use xlink:href="#ArialMT-69" x="305.712891"/>
      <use xlink:href="#ArialMT-66" x="327.929688"/>
      <use xlink:href="#ArialMT-74" x="355.712891"/>
      <use xlink:href="#ArialMT-65" x="383.496094"/>
      <use xlink:href="#ArialMT-64" x="439.111328"/>
      <use xlink:href="#ArialMT-20" x="494.726562"/>
      <use xlink:href="#ArialMT-2d" x="522.509766"/>
      <use xlink:href="#ArialMT-20" x="555.810547"/>
      <use xlink:href="#ArialMT-72" x="583.59375"/>
      <use xlink:href="#ArialMT-61" x="616.894531"/>
      <use xlink:href="#ArialMT-74" x="672.509766"/>
      <use xlink:href="#ArialMT-65" x="700.292969"/>
      <use xlink:href="#ArialMT-20" x="755.908203"/>
      <use xlink:href="#ArialMT-73" x="783.691406"/>
      <use xlink:href="#ArialMT-77" x="833.691406"/>
      <use xlink:href="#ArialMT-61" x="905.908203"/>
      <use xlink:href="#ArialMT-70" x="961.523438"/>
      <use xlink:href="#ArialMT-70" x="1017.138672"/>
      <use xlink:href="#ArialMT-65" x="1072.753906"/>
      <use xlink:href="#ArialMT-64" x="1128.369141"/>
      <use xlink:href="#ArialMT-20" x="1183.984375"/>
      <use xlink:href="#ArialMT-28" x="1211.767578"/>
      <use xlink:href="#ArialMT-4e" x="1245.068359"/>
      <use xlink:href="#ArialMT-4e" x="1317.285156"/>
      <use xlink:href="#ArialMT-29" x="1389.501953"/>
     </g>
    </g>
   </g>
   <g id="PathCollection_1">
    <defs>
     <path id="m08cb93ca90" d="M 0 3 
C 0.795609 3 1.55874 2.683901 2.12132 2.12132 
C 2.683901 1.55874 3 0.795609 3 0 
C 3 -0.795609 2.683901 -1.55874 2.12132 -2.12132 
C 1.55874 -2.683901 0.795609 -3 0 -3 
C -0.795609 -3 -1.55874 -2.683901 -2.12132 -2.12132 
C -2.683901 -1.55874 -3 -0.795609 -3 0 
C -3 0.795609 -2.683901 1.55874 -2.12132 2.12132 
C -1.55874 2.683901 -0.795609 3 0 3 
z
" style="stroke: #4c72b0; stroke-opacity: 0.8"/>
    </defs>
    <g clip-path="url(#pca985fb342)">
     <use xlink:href="#m08cb93ca90" x="422.584615" y="186.702506" style="fill: #4c72b0; fill-opacity: 0.8; stroke: #4c72b0; stroke-opacity: 0.8"/>
     <use xlink:href="#m08cb93ca90" x="236.381538" y="273.395476" style="fill: #4c72b0; fill-opacity: 0.8; stroke: #4c72b0; stroke-opacity: 0.8"/>
     <use xlink:href="#m08cb93ca90" x="109.573719" y="331.924771" style="fill: #4c72b0; fill-opacity: 0.8; stroke: #4c72b0; stroke-opacity: 0.8"/>
     <use xlink:href="#m08cb93ca90" x="201.376882" y="311.200408" style="fill: #4c72b0; fill-opacity: 0.8; stroke: #4c72b0; stroke-opacity: 0.8"/>
     <use xlink:href="#m08cb93ca90" x="199.593357" y="230.238618" style="fill: #4c72b0; fill-opacity: 0.8; stroke: #4c72b0; stroke-opacity: 0.8"/>
     <use xlink:href="#m08cb93ca90" x="207.274406" y="284.223665" style="fill: #4c72b0; fill-opacity: 0.8; stroke: #4c72b0; stroke-opacity: 0.8"/>
     <use xlink:href="#m08cb93ca90" x="259.314431" y="236.513605" style="fill: #4c72b0; fill-opacity: 0.8; stroke: #4c72b0; stroke-opacity: 0.8"/>
     <use xlink:href="#m08cb93ca90" x="162.290655" y="369.36" style="fill: #4c72b0; fill-opacity: 0.8; stroke: #4c72b0; stroke-opacity: 0.8"/>
     <use xlink:href="#m08cb93ca90" x="354.302743" y="147.632834" style="fill: #4c72b0; fill-opacity: 0.8; stroke: #4c72b0; stroke-opacity: 0.8"/>
     <use xlink:href="#m08cb93ca90" x="118.74021" y="279.778834" style="fill: #4c72b0; fill-opacity: 0.8; stroke: #4c72b0; stroke-opacity: 0.8"/>
     <use xlink:href="#m08cb93ca90" x="401.321958" y="232.899361" style="fill: #4c72b0; fill-opacity: 0.8; stroke: #4c72b0; stroke-opacity: 0.8"/>
     <use xlink:href="#m08cb93ca90" x="130.401721" y="285.020874" style="fill: #4c72b0; fill-opacity: 0.8; stroke: #4c72b0; stroke-opacity: 0.8"/>
     <use xlink:href="#m08cb93ca90" x="432.046154" y="270.425159" style="fill: #4c72b0; fill-opacity: 0.8; stroke: #4c72b0; stroke-opacity: 0.8"/>
     <use xlink:href="#m08cb93ca90" x="341.086364" y="238.848139" style="fill: #4c72b0; fill-opacity: 0.8; stroke: #4c72b0; stroke-opacity: 0.8"/>
     <use xlink:href="#m08cb93ca90" x="154.220979" y="240.787438" style="fill: #4c72b0; fill-opacity: 0.8; stroke: #4c72b0; stroke-opacity: 0.8"/>
     <use xlink:href="#m08cb93ca90" x="114.408791" y="166.156988" style="fill: #4c72b0; fill-opacity: 0.8; stroke: #4c72b0; stroke-opacity: 0.8"/>
     <use xlink:href="#m08cb93ca90" x="306.010366" y="122.591665" style="fill: #4c72b0; fill-opacity: 0.8; stroke: #4c72b0; stroke-opacity: 0.8"/>
     <use xlink:href="#m08cb93ca90" x="475.988081" y="250.510674" style="fill: #4c72b0; fill-opacity: 0.8; stroke: #4c72b0; stroke-opacity: 0.8"/>
     <use xlink:href="#m08cb93ca90" x="298.724476" y="255.745539" style="fill: #4c72b0; fill-opacity: 0.8; stroke: #4c72b0; stroke-opacity: 0.8"/>
     <use xlink:href="#m08cb93ca90" x="444.349894" y="69.238926" style="fill: #4c72b0; fill-opacity: 0.8; stroke: #4c72b0; stroke-opacity: 0.8"/>
     <use xlink:href="#m08cb93ca90" x="201.790453" y="184.567045" style="fill: #4c72b0; fill-opacity: 0.8; stroke: #4c72b0; stroke-opacity: 0.8"/>
     <use xlink:href="#m08cb93ca90" x="334.063103" y="193.600373" style="fill: #4c72b0; fill-opacity: 0.8; stroke: #4c72b0; stroke-opacity: 0.8"/>
     <use xlink:href="#m08cb93ca90" x="219.132867" y="233.815185" style="fill: #4c72b0; fill-opacity: 0.8; stroke: #4c72b0; stroke-opacity: 0.8"/>
     <use xlink:href="#m08cb93ca90" x="263.47497" y="226.765817" style="fill: #4c72b0; fill-opacity: 0.8; stroke: #4c72b0; stroke-opacity: 0.8"/>
     <use xlink:href="#m08cb93ca90" x="498.109091" y="239.784575" style="fill: #4c72b0; fill-opacity: 0.8; stroke: #4c72b0; stroke-opacity: 0.8"/>
     <use xlink:href="#m08cb93ca90" x="352.81007" y="271.428965" style="fill: #4c72b0; fill-opacity: 0.8; stroke: #4c72b0; stroke-opacity: 0.8"/>
     <use xlink:href="#m08cb93ca90" x="287.665534" y="151.212457" style="fill: #4c72b0; fill-opacity: 0.8; stroke: #4c72b0; stroke-opacity: 0.8"/>
     <use xlink:href="#m08cb93ca90" x="268.134774" y="240.515273" style="fill: #4c72b0; fill-opacity: 0.8; stroke: #4c72b0; stroke-opacity: 0.8"/>
     <use xlink:href="#m08cb93ca90" x="191.864747" y="245.042125" style="fill: #4c72b0; fill-opacity: 0.8; stroke: #4c72b0; stroke-opacity: 0.8"/>
     <use xlink:href="#m08cb93ca90" x="373.313208" y="234.030946" style="fill: #4c72b0; fill-opacity: 0.8; stroke: #4c72b0; stroke-opacity: 0.8"/>
     <use xlink:href="#m08cb93ca90" x="191.864747" y="246.456089" style="fill: #4c72b0; fill-opacity: 0.8; stroke: #4c72b0; stroke-opacity: 0.8"/>
     <use xlink:href="#m08cb93ca90" x="294.595804" y="159.705797" style="fill: #4c72b0; fill-opacity: 0.8; stroke: #4c72b0; stroke-opacity: 0.8"/>
     <use xlink:href="#m08cb93ca90" x="226.472727" y="259.780166" style="fill: #4c72b0; fill-opacity: 0.8; stroke: #4c72b0; stroke-opacity: 0.8"/>
     <use xlink:href="#m08cb93ca90" x="183.711489" y="232.110607" style="fill: #4c72b0; fill-opacity: 0.8; stroke: #4c72b0; stroke-opacity: 0.8"/>
     <use xlink:href="#m08cb93ca90" x="177.047768" y="235.694307" style="fill: #4c72b0; fill-opacity: 0.8; stroke: #4c72b0; stroke-opacity: 0.8"/>
     <use xlink:href="#m08cb93ca90" x="92.290909" y="225.831855" style="fill: #4c72b0; fill-opacity: 0.8; stroke: #4c72b0; stroke-opacity: 0.8"/>
     <use xlink:href="#m08cb93ca90" x="402.165643" y="254.598717" style="fill: #4c72b0; fill-opacity: 0.8; stroke: #4c72b0; stroke-opacity: 0.8"/>
     <use xlink:href="#m08cb93ca90" x="263.47497" y="125.581601" style="fill: #4c72b0; fill-opacity: 0.8; stroke: #4c72b0; stroke-opacity: 0.8"/>
     <use xlink:href="#m08cb93ca90" x="251.474126" y="185.033521" style="fill: #4c72b0; fill-opacity: 0.8; stroke: #4c72b0; stroke-opacity: 0.8"/>
     <use xlink:href="#m08cb93ca90" x="304.298182" y="146.913884" style="fill: #4c72b0; fill-opacity: 0.8; stroke: #4c72b0; stroke-opacity: 0.8"/>
     <use xlink:href="#m08cb93ca90" x="281.365289" y="231.969625" style="fill: #4c72b0; fill-opacity: 0.8; stroke: #4c72b0; stroke-opacity: 0.8"/>
     <use xlink:href="#m08cb93ca90" x="359.981393" y="248.619403" style="fill: #4c72b0; fill-opacity: 0.8; stroke: #4c72b0; stroke-opacity: 0.8"/>
     <use xlink:href="#m08cb93ca90" x="354.302743" y="140.587452" style="fill: #4c72b0; fill-opacity: 0.8; stroke: #4c72b0; stroke-opacity: 0.8"/>
     <use xlink:href="#m08cb93ca90" x="172.840477" y="281.811437" style="fill: #4c72b0; fill-opacity: 0.8; stroke: #4c72b0; stroke-opacity: 0.8"/>
     <use xlink:href="#m08cb93ca90" x="193.978555" y="97.416076" style="fill: #4c72b0; fill-opacity: 0.8; stroke: #4c72b0; stroke-opacity: 0.8"/>
     <use xlink:href="#m08cb93ca90" x="112.934266" y="264.45862" style="fill: #4c72b0; fill-opacity: 0.8; stroke: #4c72b0; stroke-opacity: 0.8"/>
     <use xlink:href="#m08cb93ca90" x="283.815385" y="227.895584" style="fill: #4c72b0; fill-opacity: 0.8; stroke: #4c72b0; stroke-opacity: 0.8"/>
     <use xlink:href="#m08cb93ca90" x="326.937063" y="234.507284" style="fill: #4c72b0; fill-opacity: 0.8; stroke: #4c72b0; stroke-opacity: 0.8"/>
     <use xlink:href="#m08cb93ca90" x="177.264726" y="192.76055" style="fill: #4c72b0; fill-opacity: 0.8; stroke: #4c72b0; stroke-opacity: 0.8"/>
     <use xlink:href="#m08cb93ca90" x="332.217268" y="214.813129" style="fill: #4c72b0; fill-opacity: 0.8; stroke: #4c72b0; stroke-opacity: 0.8"/>
     <use xlink:href="#m08cb93ca90" x="329.877177" y="66.96" style="fill: #4c72b0; fill-opacity: 0.8; stroke: #4c72b0; stroke-opacity: 0.8"/>
     <use xlink:href="#m08cb93ca90" x="260.233217" y="273.196082" style="fill: #4c72b0; fill-opacity: 0.8; stroke: #4c72b0; stroke-opacity: 0.8"/>
     <use xlink:href="#m08cb93ca90" x="452.259441" y="281.871255" style="fill: #4c72b0; fill-opacity: 0.8; stroke: #4c72b0; stroke-opacity: 0.8"/>
     <use xlink:href="#m08cb93ca90" x="199.593357" y="211.503209" style="fill: #4c72b0; fill-opacity: 0.8; stroke: #4c72b0; stroke-opacity: 0.8"/>
     <use xlink:href="#m08cb93ca90" x="290.553147" y="176.850359" style="fill: #4c72b0; fill-opacity: 0.8; stroke: #4c72b0; stroke-opacity: 0.8"/>
     <use xlink:href="#m08cb93ca90" x="229.913287" y="217.58502" style="fill: #4c72b0; fill-opacity: 0.8; stroke: #4c72b0; stroke-opacity: 0.8"/>
     <use xlink:href="#m08cb93ca90" x="171.110998" y="160.420464" style="fill: #4c72b0; fill-opacity: 0.8; stroke: #4c72b0; stroke-opacity: 0.8"/>
     <use xlink:href="#m08cb93ca90" x="440.131469" y="222.440092" style="fill: #4c72b0; fill-opacity: 0.8; stroke: #4c72b0; stroke-opacity: 0.8"/>
     <use xlink:href="#m08cb93ca90" x="203.512259" y="199.991234" style="fill: #4c72b0; fill-opacity: 0.8; stroke: #4c72b0; stroke-opacity: 0.8"/>
     <use xlink:href="#m08cb93ca90" x="350.332867" y="304.309171" style="fill: #4c72b0; fill-opacity: 0.8; stroke: #4c72b0; stroke-opacity: 0.8"/>
     <use xlink:href="#m08cb93ca90" x="402.4" y="190.28073" style="fill: #4c72b0; fill-opacity: 0.8; stroke: #4c72b0; stroke-opacity: 0.8"/>
     <use xlink:href="#m08cb93ca90" x="267.961826" y="284.783153" style="fill: #4c72b0; fill-opacity: 0.8; stroke: #4c72b0; stroke-opacity: 0.8"/>
     <use xlink:href="#m08cb93ca90" x="329.68951" y="135.801659" style="fill: #4c72b0; fill-opacity: 0.8; stroke: #4c72b0; stroke-opacity: 0.8"/>
     <use xlink:href="#m08cb93ca90" x="229.913287" y="149.017458" style="fill: #4c72b0; fill-opacity: 0.8; stroke: #4c72b0; stroke-opacity: 0.8"/>
     <use xlink:href="#m08cb93ca90" x="195.507692" y="206.361698" style="fill: #4c72b0; fill-opacity: 0.8; stroke: #4c72b0; stroke-opacity: 0.8"/>
     <use xlink:href="#m08cb93ca90" x="233.023023" y="299.898904" style="fill: #4c72b0; fill-opacity: 0.8; stroke: #4c72b0; stroke-opacity: 0.8"/>
    </g>
   </g>
   <g id="PolyCollection_1">
    <defs>
     <path id="mf8e61c0401" d="M 92.290909 -218.547486 
L 92.290909 -159.522551 
L 96.390083 -160.456842 
L 100.489256 -161.391134 
L 104.58843 -162.325426 
L 108.687603 -163.259718 
L 112.786777 -164.492118 
L 116.88595 -165.552673 
L 120.985124 -166.433412 
L 125.084298 -167.334566 
L 129.183471 -168.336601 
L 133.282645 -169.46305 
L 137.381818 -170.700666 
L 141.480992 -171.650596 
L 145.580165 -172.577004 
L 149.679339 -173.79247 
L 153.778512 -174.952025 
L 157.877686 -175.935539 
L 161.97686 -177.260202 
L 166.076033 -178.435036 
L 170.175207 -179.570208 
L 174.27438 -180.588861 
L 178.373554 -181.503569 
L 182.472727 -182.515024 
L 186.571901 -183.66203 
L 190.671074 -184.628008 
L 194.770248 -185.590062 
L 198.869421 -186.328972 
L 202.968595 -187.043118 
L 207.067769 -187.756417 
L 211.166942 -188.460473 
L 215.266116 -189.164529 
L 219.365289 -189.838294 
L 223.464463 -190.317658 
L 227.563636 -191.298853 
L 231.66281 -191.923497 
L 235.761983 -192.426138 
L 239.861157 -193.162547 
L 243.960331 -193.882909 
L 248.059504 -194.497676 
L 252.158678 -195.155735 
L 256.257851 -195.633904 
L 260.357025 -196.208898 
L 264.456198 -196.692984 
L 268.555372 -197.070728 
L 272.654545 -197.40188 
L 276.753719 -197.960363 
L 280.852893 -198.419454 
L 284.952066 -198.873007 
L 289.05124 -199.2589 
L 293.150413 -199.653417 
L 297.249587 -200.173003 
L 301.34876 -200.461654 
L 305.447934 -200.648379 
L 309.547107 -200.879835 
L 313.646281 -201.528441 
L 317.745455 -201.82554 
L 321.844628 -201.970682 
L 325.943802 -202.316729 
L 330.042975 -202.417549 
L 334.142149 -202.519436 
L 338.241322 -202.611041 
L 342.340496 -202.611888 
L 346.439669 -202.822218 
L 350.538843 -202.927731 
L 354.638017 -203.323477 
L 358.73719 -203.755066 
L 362.836364 -203.756662 
L 366.935537 -203.830833 
L 371.034711 -203.825395 
L 375.133884 -203.821723 
L 379.233058 -203.819762 
L 383.332231 -204.038566 
L 387.431405 -204.211534 
L 391.530579 -204.362779 
L 395.629752 -204.448261 
L 399.728926 -204.451969 
L 403.828099 -204.409135 
L 407.927273 -204.480221 
L 412.026446 -204.581684 
L 416.12562 -204.683427 
L 420.224793 -204.78517 
L 424.323967 -204.818553 
L 428.42314 -204.988657 
L 432.522314 -204.975263 
L 436.621488 -205.066663 
L 440.720661 -205.232104 
L 444.819835 -205.226505 
L 448.919008 -205.20627 
L 453.018182 -205.384296 
L 457.117355 -205.548455 
L 461.216529 -205.491737 
L 465.315702 -205.551474 
L 469.414876 -205.517217 
L 473.51405 -205.48296 
L 477.613223 -205.448876 
L 481.712397 -205.418964 
L 485.81157 -205.195601 
L 489.910744 -204.91693 
L 494.009917 -204.946098 
L 498.109091 -204.972443 
L 498.109091 -282.942456 
L 498.109091 -282.942456 
L 494.009917 -281.650744 
L 489.910744 -280.359031 
L 485.81157 -279.159381 
L 481.712397 -278.1651 
L 477.613223 -277.032444 
L 473.51405 -275.689379 
L 469.414876 -274.4335 
L 465.315702 -273.074287 
L 461.216529 -271.937552 
L 457.117355 -270.800816 
L 453.018182 -269.664081 
L 448.919008 -268.527346 
L 444.819835 -267.430807 
L 440.720661 -266.383579 
L 436.621488 -265.316755 
L 432.522314 -264.375867 
L 428.42314 -263.217567 
L 424.323967 -262.01036 
L 420.224793 -260.825337 
L 416.12562 -259.640314 
L 412.026446 -258.460093 
L 407.927273 -257.348918 
L 403.828099 -256.24554 
L 399.728926 -255.146111 
L 395.629752 -254.076447 
L 391.530579 -253.022529 
L 387.431405 -251.968611 
L 383.332231 -250.914693 
L 379.233058 -249.860774 
L 375.133884 -248.801395 
L 371.034711 -247.741572 
L 366.935537 -246.970132 
L 362.836364 -245.760411 
L 358.73719 -244.625727 
L 354.638017 -243.537523 
L 350.538843 -242.601848 
L 346.439669 -241.656172 
L 342.340496 -240.395365 
L 338.241322 -239.272721 
L 334.142149 -238.212257 
L 330.042975 -237.217972 
L 325.943802 -236.045323 
L 321.844628 -234.94693 
L 317.745455 -233.782697 
L 313.646281 -232.930571 
L 309.547107 -231.95664 
L 305.447934 -231.2439 
L 301.34876 -230.644692 
L 297.249587 -229.990011 
L 293.150413 -229.441417 
L 289.05124 -228.635272 
L 284.952066 -227.762794 
L 280.852893 -227.003644 
L 276.753719 -226.294454 
L 272.654545 -225.87931 
L 268.555372 -225.198965 
L 264.456198 -224.703014 
L 260.357025 -224.095078 
L 256.257851 -223.466598 
L 252.158678 -222.914533 
L 248.059504 -222.612538 
L 243.960331 -221.951088 
L 239.861157 -221.584587 
L 235.761983 -221.19342 
L 231.66281 -220.781346 
L 227.563636 -220.710953 
L 223.464463 -220.403736 
L 219.365289 -220.2863 
L 215.266116 -220.050396 
L 211.166942 -219.820854 
L 207.067769 -219.76866 
L 202.968595 -219.395497 
L 198.869421 -219.184431 
L 194.770248 -219.063433 
L 190.671074 -218.835649 
L 186.571901 -218.847919 
L 182.472727 -218.887025 
L 178.373554 -218.49889 
L 174.27438 -218.525551 
L 170.175207 -218.437936 
L 166.076033 -218.302545 
L 161.97686 -218.32952 
L 157.877686 -218.221525 
L 153.778512 -218.225062 
L 149.679339 -218.311589 
L 145.580165 -218.341746 
L 141.480992 -218.3533 
L 137.381818 -218.364853 
L 133.282645 -218.376406 
L 129.183471 -218.38796 
L 125.084298 -218.412582 
L 120.985124 -218.457641 
L 116.88595 -218.433127 
L 112.786777 -218.532904 
L 108.687603 -218.632682 
L 104.58843 -218.698279 
L 100.489256 -218.651059 
L 96.390083 -218.600011 
L 92.290909 -218.547486 
z
" style="stroke: #ffffff; stroke-opacity: 0.15"/>
    </defs>
    <g clip-path="url(#pca985fb342)">
     <use xlink:href="#mf8e61c0401" x="0" y="432" style="fill: #4c72b0; fill-opacity: 0.15; stroke: #ffffff; stroke-opacity: 0.15"/>
    </g>
   </g>
   <g id="line2d_1">
    <path d="M 92.290909 242.612561 
L 96.390083 242.120636 
L 100.489256 241.62871 
L 104.58843 241.136785 
L 108.687603 240.644859 
L 112.786777 240.152934 
L 116.88595 239.661009 
L 120.985124 239.169083 
L 125.084298 238.677158 
L 129.183471 238.185232 
L 133.282645 237.693307 
L 137.381818 237.201381 
L 141.480992 236.709456 
L 145.580165 236.217531 
L 149.679339 235.725605 
L 153.778512 235.23368 
L 157.877686 234.741754 
L 161.97686 234.249829 
L 166.076033 233.757903 
L 170.175207 233.265978 
L 174.27438 232.774053 
L 178.373554 232.282127 
L 182.472727 231.790202 
L 186.571901 231.298276 
L 190.671074 230.806351 
L 194.770248 230.314425 
L 198.869421 229.8225 
L 202.968595 229.330575 
L 207.067769 228.838649 
L 211.166942 228.346724 
L 215.266116 227.854798 
L 219.365289 227.362873 
L 223.464463 226.870947 
L 227.563636 226.379022 
L 231.66281 225.887097 
L 235.761983 225.395171 
L 239.861157 224.903246 
L 243.960331 224.41132 
L 248.059504 223.919395 
L 252.158678 223.427469 
L 256.257851 222.935544 
L 260.357025 222.443619 
L 264.456198 221.951693 
L 268.555372 221.459768 
L 272.654545 220.967842 
L 276.753719 220.475917 
L 280.852893 219.983991 
L 284.952066 219.492066 
L 289.05124 219.000141 
L 293.150413 218.508215 
L 297.249587 218.01629 
L 301.34876 217.524364 
L 305.447934 217.032439 
L 309.547107 216.540513 
L 313.646281 216.048588 
L 317.745455 215.556663 
L 321.844628 215.064737 
L 325.943802 214.572812 
L 330.042975 214.080886 
L 334.142149 213.588961 
L 338.241322 213.097035 
L 342.340496 212.60511 
L 346.439669 212.113185 
L 350.538843 211.621259 
L 354.638017 211.129334 
L 358.73719 210.637408 
L 362.836364 210.145483 
L 366.935537 209.653557 
L 371.034711 209.161632 
L 375.133884 208.669707 
L 379.233058 208.177781 
L 383.332231 207.685856 
L 387.431405 207.19393 
L 391.530579 206.702005 
L 395.629752 206.210079 
L 399.728926 205.718154 
L 403.828099 205.226229 
L 407.927273 204.734303 
L 412.026446 204.242378 
L 416.12562 203.750452 
L 420.224793 203.258527 
L 424.323967 202.766601 
L 428.42314 202.274676 
L 432.522314 201.782751 
L 436.621488 201.290825 
L 440.720661 200.7989 
L 444.819835 200.306974 
L 448.919008 199.815049 
L 453.018182 199.323123 
L 457.117355 198.831198 
L 461.216529 198.339273 
L 465.315702 197.847347 
L 469.414876 197.355422 
L 473.51405 196.863496 
L 477.613223 196.371571 
L 481.712397 195.879645 
L 485.81157 195.38772 
L 489.910744 194.895795 
L 494.009917 194.403869 
L 498.109091 193.911944 
" clip-path="url(#pca985fb342)" style="fill: none; stroke: #4c72b0; stroke-width: 2.25; stroke-linecap: round"/>
   </g>
   <g id="patch_3">
    <path d="M 72 384.48 
L 72 51.84 
" style="fill: none; stroke: #262626; stroke-width: 1.25; stroke-linejoin: miter; stroke-linecap: square"/>
   </g>
   <g id="patch_4">
    <path d="M 518.4 384.48 
L 518.4 51.84 
" style="fill: none; stroke: #262626; stroke-width: 1.25; stroke-linejoin: miter; stroke-linecap: square"/>
   </g>
   <g id="patch_5">
    <path d="M 72 384.48 
L 518.4 384.48 
" style="fill: none; stroke: #262626; stroke-width: 1.25; stroke-linejoin: miter; stroke-linecap: square"/>
   </g>
   <g id="patch_6">
    <path d="M 72 51.84 
L 518.4 51.84 
" style="fill: none; stroke: #262626; stroke-width: 1.25; stroke-linejoin: miter; stroke-linecap: square"/>
   </g>
   <g id="text_15">
    <!-- r2=0.04, p=0.1 -->
    <g style="fill: #262626" transform="translate(80.928 85.104) scale(0.12 -0.12)">
     <defs>
      <path id="ArialMT-3d" d="M 3381 2694 
L 356 2694 
L 356 3219 
L 3381 3219 
L 3381 2694 
z
M 3381 1303 
L 356 1303 
L 356 1828 
L 3381 1828 
L 3381 1303 
z
" transform="scale(0.015625)"/>
      <path id="ArialMT-2c" d="M 569 0 
L 569 641 
L 1209 641 
L 1209 0 
Q 1209 -353 1084 -570 
Q 959 -788 688 -906 
L 531 -666 
Q 709 -588 793 -436 
Q 878 -284 888 0 
L 569 0 
z
" transform="scale(0.015625)"/>
     </defs>
     <use xlink:href="#ArialMT-72"/>
     <use xlink:href="#ArialMT-32" x="33.300781"/>
     <use xlink:href="#ArialMT-3d" x="88.916016"/>
     <use xlink:href="#ArialMT-30" x="147.314453"/>
     <use xlink:href="#ArialMT-2e" x="202.929688"/>
     <use xlink:href="#ArialMT-30" x="230.712891"/>
     <use xlink:href="#ArialMT-34" x="286.328125"/>
     <use xlink:href="#ArialMT-2c" x="341.943359"/>
     <use xlink:href="#ArialMT-20" x="369.726562"/>
     <use xlink:href="#ArialMT-70" x="397.509766"/>
     <use xlink:href="#ArialMT-3d" x="453.125"/>
     <use xlink:href="#ArialMT-30" x="511.523438"/>
     <use xlink:href="#ArialMT-2e" x="567.138672"/>
     <use xlink:href="#ArialMT-31" x="594.921875"/>
    </g>
   </g>
  </g>
 </g>
 <defs>
  <clipPath id="pca985fb342">
   <rect x="72" y="51.84" width="446.4" height="332.64"/>
  </clipPath>
 </defs>
</svg>
