<?xml version="1.0" encoding="utf-8" standalone="no"?>
<!DOCTYPE svg PUBLIC "-//W3C//DTD SVG 1.1//EN"
  "http://www.w3.org/Graphics/SVG/1.1/DTD/svg11.dtd">
<svg xmlns:xlink="http://www.w3.org/1999/xlink" width="576pt" height="432pt" viewBox="0 0 576 432" xmlns="http://www.w3.org/2000/svg" version="1.1">
 <metadata>
  <rdf:RDF xmlns:dc="http://purl.org/dc/elements/1.1/" xmlns:cc="http://creativecommons.org/ns#" xmlns:rdf="http://www.w3.org/1999/02/22-rdf-syntax-ns#">
   <cc:Work>
    <dc:type rdf:resource="http://purl.org/dc/dcmitype/StillImage"/>
    <dc:date>2024-01-30T14:41:36.913268</dc:date>
    <dc:format>image/svg+xml</dc:format>
    <dc:creator>
     <cc:Agent>
      <dc:title>Matplotlib v3.8.2, https://matplotlib.org/</dc:title>
     </cc:Agent>
    </dc:creator>
   </cc:Work>
  </rdf:RDF>
 </metadata>
 <defs>
  <style type="text/css">*{stroke-linejoin: round; stroke-linecap: butt}</style>
 </defs>
 <g id="figure_1">
  <g id="patch_1">
   <path d="M 0 432 
L 576 432 
L 576 0 
L 0 0 
z
" style="fill: #ffffff"/>
  </g>
  <g id="axes_1">
   <g id="patch_2">
    <path d="M 72 384.48 
L 518.4 384.48 
L 518.4 51.84 
L 72 51.84 
z
" style="fill: #eaeaf2"/>
   </g>
   <g id="matplotlib.axis_1">
    <g id="xtick_1">
     <g id="line2d_1">
      <path d="M 151.177386 384.48 
L 151.177386 51.84 
" clip-path="url(#p30767eff30)" style="fill: none; stroke: #ffffff; stroke-width: 0.8; stroke-linecap: round"/>
     </g>
     <g id="text_1">
      <!-- 2.8 -->
      <g style="fill: #262626" transform="translate(144.227386 398.637812) scale(0.1 -0.1)">
       <defs>
        <path id="ArialMT-32" d="M 3222 541 
L 3222 0 
L 194 0 
Q 188 203 259 391 
Q 375 700 629 1000 
Q 884 1300 1366 1694 
Q 2113 2306 2375 2664 
Q 2638 3022 2638 3341 
Q 2638 3675 2398 3904 
Q 2159 4134 1775 4134 
Q 1369 4134 1125 3890 
Q 881 3647 878 3216 
L 300 3275 
Q 359 3922 746 4261 
Q 1134 4600 1788 4600 
Q 2447 4600 2831 4234 
Q 3216 3869 3216 3328 
Q 3216 3053 3103 2787 
Q 2991 2522 2730 2228 
Q 2469 1934 1863 1422 
Q 1356 997 1212 845 
Q 1069 694 975 541 
L 3222 541 
z
" transform="scale(0.015625)"/>
        <path id="ArialMT-2e" d="M 581 0 
L 581 641 
L 1222 641 
L 1222 0 
L 581 0 
z
" transform="scale(0.015625)"/>
        <path id="ArialMT-38" d="M 1131 2484 
Q 781 2613 612 2850 
Q 444 3088 444 3419 
Q 444 3919 803 4259 
Q 1163 4600 1759 4600 
Q 2359 4600 2725 4251 
Q 3091 3903 3091 3403 
Q 3091 3084 2923 2848 
Q 2756 2613 2416 2484 
Q 2838 2347 3058 2040 
Q 3278 1734 3278 1309 
Q 3278 722 2862 322 
Q 2447 -78 1769 -78 
Q 1091 -78 675 323 
Q 259 725 259 1325 
Q 259 1772 486 2073 
Q 713 2375 1131 2484 
z
M 1019 3438 
Q 1019 3113 1228 2906 
Q 1438 2700 1772 2700 
Q 2097 2700 2305 2904 
Q 2513 3109 2513 3406 
Q 2513 3716 2298 3927 
Q 2084 4138 1766 4138 
Q 1444 4138 1231 3931 
Q 1019 3725 1019 3438 
z
M 838 1322 
Q 838 1081 952 856 
Q 1066 631 1291 507 
Q 1516 384 1775 384 
Q 2178 384 2440 643 
Q 2703 903 2703 1303 
Q 2703 1709 2433 1975 
Q 2163 2241 1756 2241 
Q 1359 2241 1098 1978 
Q 838 1716 838 1322 
z
" transform="scale(0.015625)"/>
       </defs>
       <use xlink:href="#ArialMT-32"/>
       <use xlink:href="#ArialMT-2e" x="55.615234"/>
       <use xlink:href="#ArialMT-38" x="83.398438"/>
      </g>
     </g>
    </g>
    <g id="xtick_2">
     <g id="line2d_2">
      <path d="M 246.517397 384.48 
L 246.517397 51.84 
" clip-path="url(#p30767eff30)" style="fill: none; stroke: #ffffff; stroke-width: 0.8; stroke-linecap: round"/>
     </g>
     <g id="text_2">
      <!-- 3.0 -->
      <g style="fill: #262626" transform="translate(239.567397 398.637812) scale(0.1 -0.1)">
       <defs>
        <path id="ArialMT-33" d="M 269 1209 
L 831 1284 
Q 928 806 1161 595 
Q 1394 384 1728 384 
Q 2125 384 2398 659 
Q 2672 934 2672 1341 
Q 2672 1728 2419 1979 
Q 2166 2231 1775 2231 
Q 1616 2231 1378 2169 
L 1441 2663 
Q 1497 2656 1531 2656 
Q 1891 2656 2178 2843 
Q 2466 3031 2466 3422 
Q 2466 3731 2256 3934 
Q 2047 4138 1716 4138 
Q 1388 4138 1169 3931 
Q 950 3725 888 3313 
L 325 3413 
Q 428 3978 793 4289 
Q 1159 4600 1703 4600 
Q 2078 4600 2393 4439 
Q 2709 4278 2876 4000 
Q 3044 3722 3044 3409 
Q 3044 3113 2884 2869 
Q 2725 2625 2413 2481 
Q 2819 2388 3044 2092 
Q 3269 1797 3269 1353 
Q 3269 753 2831 336 
Q 2394 -81 1725 -81 
Q 1122 -81 723 278 
Q 325 638 269 1209 
z
" transform="scale(0.015625)"/>
        <path id="ArialMT-30" d="M 266 2259 
Q 266 3072 433 3567 
Q 600 4063 929 4331 
Q 1259 4600 1759 4600 
Q 2128 4600 2406 4451 
Q 2684 4303 2865 4023 
Q 3047 3744 3150 3342 
Q 3253 2941 3253 2259 
Q 3253 1453 3087 958 
Q 2922 463 2592 192 
Q 2263 -78 1759 -78 
Q 1097 -78 719 397 
Q 266 969 266 2259 
z
M 844 2259 
Q 844 1131 1108 757 
Q 1372 384 1759 384 
Q 2147 384 2411 759 
Q 2675 1134 2675 2259 
Q 2675 3391 2411 3762 
Q 2147 4134 1753 4134 
Q 1366 4134 1134 3806 
Q 844 3388 844 2259 
z
" transform="scale(0.015625)"/>
       </defs>
       <use xlink:href="#ArialMT-33"/>
       <use xlink:href="#ArialMT-2e" x="55.615234"/>
       <use xlink:href="#ArialMT-30" x="83.398438"/>
      </g>
     </g>
    </g>
    <g id="xtick_3">
     <g id="line2d_3">
      <path d="M 341.857407 384.48 
L 341.857407 51.84 
" clip-path="url(#p30767eff30)" style="fill: none; stroke: #ffffff; stroke-width: 0.8; stroke-linecap: round"/>
     </g>
     <g id="text_3">
      <!-- 3.2 -->
      <g style="fill: #262626" transform="translate(334.907407 398.637812) scale(0.1 -0.1)">
       <use xlink:href="#ArialMT-33"/>
       <use xlink:href="#ArialMT-2e" x="55.615234"/>
       <use xlink:href="#ArialMT-32" x="83.398438"/>
      </g>
     </g>
    </g>
    <g id="xtick_4">
     <g id="line2d_4">
      <path d="M 437.197418 384.48 
L 437.197418 51.84 
" clip-path="url(#p30767eff30)" style="fill: none; stroke: #ffffff; stroke-width: 0.8; stroke-linecap: round"/>
     </g>
     <g id="text_4">
      <!-- 3.4 -->
      <g style="fill: #262626" transform="translate(430.247418 398.637812) scale(0.1 -0.1)">
       <defs>
        <path id="ArialMT-34" d="M 2069 0 
L 2069 1097 
L 81 1097 
L 81 1613 
L 2172 4581 
L 2631 4581 
L 2631 1613 
L 3250 1613 
L 3250 1097 
L 2631 1097 
L 2631 0 
L 2069 0 
z
M 2069 1613 
L 2069 3678 
L 634 1613 
L 2069 1613 
z
" transform="scale(0.015625)"/>
       </defs>
       <use xlink:href="#ArialMT-33"/>
       <use xlink:href="#ArialMT-2e" x="55.615234"/>
       <use xlink:href="#ArialMT-34" x="83.398438"/>
      </g>
     </g>
    </g>
    <g id="text_5">
     <!-- Q2 Median -->
     <g style="fill: #262626" transform="translate(270.74375 411.783125) scale(0.1 -0.1)">
      <defs>
       <path id="ArialMT-51" d="M 3966 491 
Q 4388 200 4744 66 
L 4566 -356 
Q 4072 -178 3581 206 
Q 3072 -78 2456 -78 
Q 1834 -78 1328 222 
Q 822 522 548 1065 
Q 275 1609 275 2291 
Q 275 2969 550 3525 
Q 825 4081 1333 4372 
Q 1841 4663 2469 4663 
Q 3103 4663 3612 4361 
Q 4122 4059 4389 3517 
Q 4656 2975 4656 2294 
Q 4656 1728 4484 1276 
Q 4313 825 3966 491 
z
M 2631 1266 
Q 3156 1119 3497 828 
Q 4031 1316 4031 2294 
Q 4031 2850 3842 3265 
Q 3653 3681 3289 3911 
Q 2925 4141 2472 4141 
Q 1794 4141 1347 3677 
Q 900 3213 900 2291 
Q 900 1397 1342 919 
Q 1784 441 2472 441 
Q 2797 441 3084 563 
Q 2800 747 2484 825 
L 2631 1266 
z
" transform="scale(0.015625)"/>
       <path id="ArialMT-20" transform="scale(0.015625)"/>
       <path id="ArialMT-4d" d="M 475 0 
L 475 4581 
L 1388 4581 
L 2472 1338 
Q 2622 884 2691 659 
Q 2769 909 2934 1394 
L 4031 4581 
L 4847 4581 
L 4847 0 
L 4263 0 
L 4263 3834 
L 2931 0 
L 2384 0 
L 1059 3900 
L 1059 0 
L 475 0 
z
" transform="scale(0.015625)"/>
       <path id="ArialMT-65" d="M 2694 1069 
L 3275 997 
Q 3138 488 2766 206 
Q 2394 -75 1816 -75 
Q 1088 -75 661 373 
Q 234 822 234 1631 
Q 234 2469 665 2931 
Q 1097 3394 1784 3394 
Q 2450 3394 2872 2941 
Q 3294 2488 3294 1666 
Q 3294 1616 3291 1516 
L 816 1516 
Q 847 969 1125 678 
Q 1403 388 1819 388 
Q 2128 388 2347 550 
Q 2566 713 2694 1069 
z
M 847 1978 
L 2700 1978 
Q 2663 2397 2488 2606 
Q 2219 2931 1791 2931 
Q 1403 2931 1139 2672 
Q 875 2413 847 1978 
z
" transform="scale(0.015625)"/>
       <path id="ArialMT-64" d="M 2575 0 
L 2575 419 
Q 2259 -75 1647 -75 
Q 1250 -75 917 144 
Q 584 363 401 755 
Q 219 1147 219 1656 
Q 219 2153 384 2558 
Q 550 2963 881 3178 
Q 1213 3394 1622 3394 
Q 1922 3394 2156 3267 
Q 2391 3141 2538 2938 
L 2538 4581 
L 3097 4581 
L 3097 0 
L 2575 0 
z
M 797 1656 
Q 797 1019 1065 703 
Q 1334 388 1700 388 
Q 2069 388 2326 689 
Q 2584 991 2584 1609 
Q 2584 2291 2321 2609 
Q 2059 2928 1675 2928 
Q 1300 2928 1048 2622 
Q 797 2316 797 1656 
z
" transform="scale(0.015625)"/>
       <path id="ArialMT-69" d="M 425 3934 
L 425 4581 
L 988 4581 
L 988 3934 
L 425 3934 
z
M 425 0 
L 425 3319 
L 988 3319 
L 988 0 
L 425 0 
z
" transform="scale(0.015625)"/>
       <path id="ArialMT-61" d="M 2588 409 
Q 2275 144 1986 34 
Q 1697 -75 1366 -75 
Q 819 -75 525 192 
Q 231 459 231 875 
Q 231 1119 342 1320 
Q 453 1522 633 1644 
Q 813 1766 1038 1828 
Q 1203 1872 1538 1913 
Q 2219 1994 2541 2106 
Q 2544 2222 2544 2253 
Q 2544 2597 2384 2738 
Q 2169 2928 1744 2928 
Q 1347 2928 1158 2789 
Q 969 2650 878 2297 
L 328 2372 
Q 403 2725 575 2942 
Q 747 3159 1072 3276 
Q 1397 3394 1825 3394 
Q 2250 3394 2515 3294 
Q 2781 3194 2906 3042 
Q 3031 2891 3081 2659 
Q 3109 2516 3109 2141 
L 3109 1391 
Q 3109 606 3145 398 
Q 3181 191 3288 0 
L 2700 0 
Q 2613 175 2588 409 
z
M 2541 1666 
Q 2234 1541 1622 1453 
Q 1275 1403 1131 1340 
Q 988 1278 909 1158 
Q 831 1038 831 891 
Q 831 666 1001 516 
Q 1172 366 1500 366 
Q 1825 366 2078 508 
Q 2331 650 2450 897 
Q 2541 1088 2541 1459 
L 2541 1666 
z
" transform="scale(0.015625)"/>
       <path id="ArialMT-6e" d="M 422 0 
L 422 3319 
L 928 3319 
L 928 2847 
Q 1294 3394 1984 3394 
Q 2284 3394 2536 3286 
Q 2788 3178 2913 3003 
Q 3038 2828 3088 2588 
Q 3119 2431 3119 2041 
L 3119 0 
L 2556 0 
L 2556 2019 
Q 2556 2363 2490 2533 
Q 2425 2703 2258 2804 
Q 2091 2906 1866 2906 
Q 1506 2906 1245 2678 
Q 984 2450 984 1813 
L 984 0 
L 422 0 
z
" transform="scale(0.015625)"/>
      </defs>
      <use xlink:href="#ArialMT-51"/>
      <use xlink:href="#ArialMT-32" x="77.783203"/>
      <use xlink:href="#ArialMT-20" x="133.398438"/>
      <use xlink:href="#ArialMT-4d" x="161.181641"/>
      <use xlink:href="#ArialMT-65" x="244.482422"/>
      <use xlink:href="#ArialMT-64" x="300.097656"/>
      <use xlink:href="#ArialMT-69" x="355.712891"/>
      <use xlink:href="#ArialMT-61" x="377.929688"/>
      <use xlink:href="#ArialMT-6e" x="433.544922"/>
     </g>
    </g>
   </g>
   <g id="matplotlib.axis_2">
    <g id="ytick_1">
     <g id="line2d_5">
      <path d="M 72 361.998081 
L 518.4 361.998081 
" clip-path="url(#p30767eff30)" style="fill: none; stroke: #ffffff; stroke-width: 0.8; stroke-linecap: round"/>
     </g>
     <g id="text_6">
      <!-- 0.00 -->
      <g style="fill: #262626" transform="translate(45.539062 365.576987) scale(0.1 -0.1)">
       <use xlink:href="#ArialMT-30"/>
       <use xlink:href="#ArialMT-2e" x="55.615234"/>
       <use xlink:href="#ArialMT-30" x="83.398438"/>
       <use xlink:href="#ArialMT-30" x="139.013672"/>
      </g>
     </g>
    </g>
    <g id="ytick_2">
     <g id="line2d_6">
      <path d="M 72 315.965965 
L 518.4 315.965965 
" clip-path="url(#p30767eff30)" style="fill: none; stroke: #ffffff; stroke-width: 0.8; stroke-linecap: round"/>
     </g>
     <g id="text_7">
      <!-- 0.05 -->
      <g style="fill: #262626" transform="translate(45.539062 319.544871) scale(0.1 -0.1)">
       <defs>
        <path id="ArialMT-35" d="M 266 1200 
L 856 1250 
Q 922 819 1161 601 
Q 1400 384 1738 384 
Q 2144 384 2425 690 
Q 2706 997 2706 1503 
Q 2706 1984 2436 2262 
Q 2166 2541 1728 2541 
Q 1456 2541 1237 2417 
Q 1019 2294 894 2097 
L 366 2166 
L 809 4519 
L 3088 4519 
L 3088 3981 
L 1259 3981 
L 1013 2750 
Q 1425 3038 1878 3038 
Q 2478 3038 2890 2622 
Q 3303 2206 3303 1553 
Q 3303 931 2941 478 
Q 2500 -78 1738 -78 
Q 1113 -78 717 272 
Q 322 622 266 1200 
z
" transform="scale(0.015625)"/>
       </defs>
       <use xlink:href="#ArialMT-30"/>
       <use xlink:href="#ArialMT-2e" x="55.615234"/>
       <use xlink:href="#ArialMT-30" x="83.398438"/>
       <use xlink:href="#ArialMT-35" x="139.013672"/>
      </g>
     </g>
    </g>
    <g id="ytick_3">
     <g id="line2d_7">
      <path d="M 72 269.933849 
L 518.4 269.933849 
" clip-path="url(#p30767eff30)" style="fill: none; stroke: #ffffff; stroke-width: 0.8; stroke-linecap: round"/>
     </g>
     <g id="text_8">
      <!-- 0.10 -->
      <g style="fill: #262626" transform="translate(45.539062 273.512755) scale(0.1 -0.1)">
       <defs>
        <path id="ArialMT-31" d="M 2384 0 
L 1822 0 
L 1822 3584 
Q 1619 3391 1289 3197 
Q 959 3003 697 2906 
L 697 3450 
Q 1169 3672 1522 3987 
Q 1875 4303 2022 4600 
L 2384 4600 
L 2384 0 
z
" transform="scale(0.015625)"/>
       </defs>
       <use xlink:href="#ArialMT-30"/>
       <use xlink:href="#ArialMT-2e" x="55.615234"/>
       <use xlink:href="#ArialMT-31" x="83.398438"/>
       <use xlink:href="#ArialMT-30" x="139.013672"/>
      </g>
     </g>
    </g>
    <g id="ytick_4">
     <g id="line2d_8">
      <path d="M 72 223.901732 
L 518.4 223.901732 
" clip-path="url(#p30767eff30)" style="fill: none; stroke: #ffffff; stroke-width: 0.8; stroke-linecap: round"/>
     </g>
     <g id="text_9">
      <!-- 0.15 -->
      <g style="fill: #262626" transform="translate(45.539062 227.480639) scale(0.1 -0.1)">
       <use xlink:href="#ArialMT-30"/>
       <use xlink:href="#ArialMT-2e" x="55.615234"/>
       <use xlink:href="#ArialMT-31" x="83.398438"/>
       <use xlink:href="#ArialMT-35" x="139.013672"/>
      </g>
     </g>
    </g>
    <g id="ytick_5">
     <g id="line2d_9">
      <path d="M 72 177.869616 
L 518.4 177.869616 
" clip-path="url(#p30767eff30)" style="fill: none; stroke: #ffffff; stroke-width: 0.8; stroke-linecap: round"/>
     </g>
     <g id="text_10">
      <!-- 0.20 -->
      <g style="fill: #262626" transform="translate(45.539062 181.448522) scale(0.1 -0.1)">
       <use xlink:href="#ArialMT-30"/>
       <use xlink:href="#ArialMT-2e" x="55.615234"/>
       <use xlink:href="#ArialMT-32" x="83.398438"/>
       <use xlink:href="#ArialMT-30" x="139.013672"/>
      </g>
     </g>
    </g>
    <g id="ytick_6">
     <g id="line2d_10">
      <path d="M 72 131.8375 
L 518.4 131.8375 
" clip-path="url(#p30767eff30)" style="fill: none; stroke: #ffffff; stroke-width: 0.8; stroke-linecap: round"/>
     </g>
     <g id="text_11">
      <!-- 0.25 -->
      <g style="fill: #262626" transform="translate(45.539062 135.416406) scale(0.1 -0.1)">
       <use xlink:href="#ArialMT-30"/>
       <use xlink:href="#ArialMT-2e" x="55.615234"/>
       <use xlink:href="#ArialMT-32" x="83.398438"/>
       <use xlink:href="#ArialMT-35" x="139.013672"/>
      </g>
     </g>
    </g>
    <g id="ytick_7">
     <g id="line2d_11">
      <path d="M 72 85.805383 
L 518.4 85.805383 
" clip-path="url(#p30767eff30)" style="fill: none; stroke: #ffffff; stroke-width: 0.8; stroke-linecap: round"/>
     </g>
     <g id="text_12">
      <!-- 0.30 -->
      <g style="fill: #262626" transform="translate(45.539062 89.38429) scale(0.1 -0.1)">
       <use xlink:href="#ArialMT-30"/>
       <use xlink:href="#ArialMT-2e" x="55.615234"/>
       <use xlink:href="#ArialMT-33" x="83.398438"/>
       <use xlink:href="#ArialMT-30" x="139.013672"/>
      </g>
     </g>
    </g>
    <g id="text_13">
     <!-- rate shifted - rate swapped (NN) -->
     <g style="fill: #262626" transform="translate(39.434375 289.295156) rotate(-90) scale(0.1 -0.1)">
      <defs>
       <path id="ArialMT-72" d="M 416 0 
L 416 3319 
L 922 3319 
L 922 2816 
Q 1116 3169 1280 3281 
Q 1444 3394 1641 3394 
Q 1925 3394 2219 3213 
L 2025 2691 
Q 1819 2813 1613 2813 
Q 1428 2813 1281 2702 
Q 1134 2591 1072 2394 
Q 978 2094 978 1738 
L 978 0 
L 416 0 
z
" transform="scale(0.015625)"/>
       <path id="ArialMT-74" d="M 1650 503 
L 1731 6 
Q 1494 -44 1306 -44 
Q 1000 -44 831 53 
Q 663 150 594 308 
Q 525 466 525 972 
L 525 2881 
L 113 2881 
L 113 3319 
L 525 3319 
L 525 4141 
L 1084 4478 
L 1084 3319 
L 1650 3319 
L 1650 2881 
L 1084 2881 
L 1084 941 
Q 1084 700 1114 631 
Q 1144 563 1211 522 
Q 1278 481 1403 481 
Q 1497 481 1650 503 
z
" transform="scale(0.015625)"/>
       <path id="ArialMT-73" d="M 197 991 
L 753 1078 
Q 800 744 1014 566 
Q 1228 388 1613 388 
Q 2000 388 2187 545 
Q 2375 703 2375 916 
Q 2375 1106 2209 1216 
Q 2094 1291 1634 1406 
Q 1016 1563 777 1677 
Q 538 1791 414 1992 
Q 291 2194 291 2438 
Q 291 2659 392 2848 
Q 494 3038 669 3163 
Q 800 3259 1026 3326 
Q 1253 3394 1513 3394 
Q 1903 3394 2198 3281 
Q 2494 3169 2634 2976 
Q 2775 2784 2828 2463 
L 2278 2388 
Q 2241 2644 2061 2787 
Q 1881 2931 1553 2931 
Q 1166 2931 1000 2803 
Q 834 2675 834 2503 
Q 834 2394 903 2306 
Q 972 2216 1119 2156 
Q 1203 2125 1616 2013 
Q 2213 1853 2448 1751 
Q 2684 1650 2818 1456 
Q 2953 1263 2953 975 
Q 2953 694 2789 445 
Q 2625 197 2315 61 
Q 2006 -75 1616 -75 
Q 969 -75 630 194 
Q 291 463 197 991 
z
" transform="scale(0.015625)"/>
       <path id="ArialMT-68" d="M 422 0 
L 422 4581 
L 984 4581 
L 984 2938 
Q 1378 3394 1978 3394 
Q 2347 3394 2619 3248 
Q 2891 3103 3008 2847 
Q 3125 2591 3125 2103 
L 3125 0 
L 2563 0 
L 2563 2103 
Q 2563 2525 2380 2717 
Q 2197 2909 1863 2909 
Q 1613 2909 1392 2779 
Q 1172 2650 1078 2428 
Q 984 2206 984 1816 
L 984 0 
L 422 0 
z
" transform="scale(0.015625)"/>
       <path id="ArialMT-66" d="M 556 0 
L 556 2881 
L 59 2881 
L 59 3319 
L 556 3319 
L 556 3672 
Q 556 4006 616 4169 
Q 697 4388 901 4523 
Q 1106 4659 1475 4659 
Q 1713 4659 2000 4603 
L 1916 4113 
Q 1741 4144 1584 4144 
Q 1328 4144 1222 4034 
Q 1116 3925 1116 3625 
L 1116 3319 
L 1763 3319 
L 1763 2881 
L 1116 2881 
L 1116 0 
L 556 0 
z
" transform="scale(0.015625)"/>
       <path id="ArialMT-2d" d="M 203 1375 
L 203 1941 
L 1931 1941 
L 1931 1375 
L 203 1375 
z
" transform="scale(0.015625)"/>
       <path id="ArialMT-77" d="M 1034 0 
L 19 3319 
L 600 3319 
L 1128 1403 
L 1325 691 
Q 1338 744 1497 1375 
L 2025 3319 
L 2603 3319 
L 3100 1394 
L 3266 759 
L 3456 1400 
L 4025 3319 
L 4572 3319 
L 3534 0 
L 2950 0 
L 2422 1988 
L 2294 2553 
L 1622 0 
L 1034 0 
z
" transform="scale(0.015625)"/>
       <path id="ArialMT-70" d="M 422 -1272 
L 422 3319 
L 934 3319 
L 934 2888 
Q 1116 3141 1344 3267 
Q 1572 3394 1897 3394 
Q 2322 3394 2647 3175 
Q 2972 2956 3137 2557 
Q 3303 2159 3303 1684 
Q 3303 1175 3120 767 
Q 2938 359 2589 142 
Q 2241 -75 1856 -75 
Q 1575 -75 1351 44 
Q 1128 163 984 344 
L 984 -1272 
L 422 -1272 
z
M 931 1641 
Q 931 1000 1190 694 
Q 1450 388 1819 388 
Q 2194 388 2461 705 
Q 2728 1022 2728 1688 
Q 2728 2322 2467 2637 
Q 2206 2953 1844 2953 
Q 1484 2953 1207 2617 
Q 931 2281 931 1641 
z
" transform="scale(0.015625)"/>
       <path id="ArialMT-28" d="M 1497 -1347 
Q 1031 -759 709 28 
Q 388 816 388 1659 
Q 388 2403 628 3084 
Q 909 3875 1497 4659 
L 1900 4659 
Q 1522 4009 1400 3731 
Q 1209 3300 1100 2831 
Q 966 2247 966 1656 
Q 966 153 1900 -1347 
L 1497 -1347 
z
" transform="scale(0.015625)"/>
       <path id="ArialMT-4e" d="M 488 0 
L 488 4581 
L 1109 4581 
L 3516 984 
L 3516 4581 
L 4097 4581 
L 4097 0 
L 3475 0 
L 1069 3600 
L 1069 0 
L 488 0 
z
" transform="scale(0.015625)"/>
       <path id="ArialMT-29" d="M 791 -1347 
L 388 -1347 
Q 1322 153 1322 1656 
Q 1322 2244 1188 2822 
Q 1081 3291 891 3722 
Q 769 4003 388 4659 
L 791 4659 
Q 1378 3875 1659 3084 
Q 1900 2403 1900 1659 
Q 1900 816 1576 28 
Q 1253 -759 791 -1347 
z
" transform="scale(0.015625)"/>
      </defs>
      <use xlink:href="#ArialMT-72"/>
      <use xlink:href="#ArialMT-61" x="33.300781"/>
      <use xlink:href="#ArialMT-74" x="88.916016"/>
      <use xlink:href="#ArialMT-65" x="116.699219"/>
      <use xlink:href="#ArialMT-20" x="172.314453"/>
      <use xlink:href="#ArialMT-73" x="200.097656"/>
      <use xlink:href="#ArialMT-68" x="250.097656"/>
      <use xlink:href="#ArialMT-69" x="305.712891"/>
      <use xlink:href="#ArialMT-66" x="327.929688"/>
      <use xlink:href="#ArialMT-74" x="355.712891"/>
      <use xlink:href="#ArialMT-65" x="383.496094"/>
      <use xlink:href="#ArialMT-64" x="439.111328"/>
      <use xlink:href="#ArialMT-20" x="494.726562"/>
      <use xlink:href="#ArialMT-2d" x="522.509766"/>
      <use xlink:href="#ArialMT-20" x="555.810547"/>
      <use xlink:href="#ArialMT-72" x="583.59375"/>
      <use xlink:href="#ArialMT-61" x="616.894531"/>
      <use xlink:href="#ArialMT-74" x="672.509766"/>
      <use xlink:href="#ArialMT-65" x="700.292969"/>
      <use xlink:href="#ArialMT-20" x="755.908203"/>
      <use xlink:href="#ArialMT-73" x="783.691406"/>
      <use xlink:href="#ArialMT-77" x="833.691406"/>
      <use xlink:href="#ArialMT-61" x="905.908203"/>
      <use xlink:href="#ArialMT-70" x="961.523438"/>
      <use xlink:href="#ArialMT-70" x="1017.138672"/>
      <use xlink:href="#ArialMT-65" x="1072.753906"/>
      <use xlink:href="#ArialMT-64" x="1128.369141"/>
      <use xlink:href="#ArialMT-20" x="1183.984375"/>
      <use xlink:href="#ArialMT-28" x="1211.767578"/>
      <use xlink:href="#ArialMT-4e" x="1245.068359"/>
      <use xlink:href="#ArialMT-4e" x="1317.285156"/>
      <use xlink:href="#ArialMT-29" x="1389.501953"/>
     </g>
    </g>
   </g>
   <g id="PathCollection_1">
    <defs>
     <path id="m50fdf3a1a7" d="M 0 3 
C 0.795609 3 1.55874 2.683901 2.12132 2.12132 
C 2.683901 1.55874 3 0.795609 3 0 
C 3 -0.795609 2.683901 -1.55874 2.12132 -2.12132 
C 1.55874 -2.683901 0.795609 -3 0 -3 
C -0.795609 -3 -1.55874 -2.683901 -2.12132 -2.12132 
C -2.683901 -1.55874 -3 -0.795609 -3 0 
C -3 0.795609 -2.683901 1.55874 -2.12132 2.12132 
C -1.55874 2.683901 -0.795609 3 0 3 
z
" style="stroke: #1f77b4; stroke-opacity: 0.8"/>
    </defs>
    <g clip-path="url(#p30767eff30)">
     <use xlink:href="#m50fdf3a1a7" x="373.299325" y="186.702506" style="fill: #1f77b4; fill-opacity: 0.8; stroke: #1f77b4; stroke-opacity: 0.8"/>
     <use xlink:href="#m50fdf3a1a7" x="222.682394" y="273.395476" style="fill: #1f77b4; fill-opacity: 0.8; stroke: #1f77b4; stroke-opacity: 0.8"/>
     <use xlink:href="#m50fdf3a1a7" x="202.173206" y="331.924771" style="fill: #1f77b4; fill-opacity: 0.8; stroke: #1f77b4; stroke-opacity: 0.8"/>
     <use xlink:href="#m50fdf3a1a7" x="302.599756" y="311.200408" style="fill: #1f77b4; fill-opacity: 0.8; stroke: #1f77b4; stroke-opacity: 0.8"/>
     <use xlink:href="#m50fdf3a1a7" x="221.689269" y="230.238618" style="fill: #1f77b4; fill-opacity: 0.8; stroke: #1f77b4; stroke-opacity: 0.8"/>
     <use xlink:href="#m50fdf3a1a7" x="170.245388" y="284.223665" style="fill: #1f77b4; fill-opacity: 0.8; stroke: #1f77b4; stroke-opacity: 0.8"/>
     <use xlink:href="#m50fdf3a1a7" x="302.854676" y="236.513605" style="fill: #1f77b4; fill-opacity: 0.8; stroke: #1f77b4; stroke-opacity: 0.8"/>
     <use xlink:href="#m50fdf3a1a7" x="207.514665" y="369.36" style="fill: #1f77b4; fill-opacity: 0.8; stroke: #1f77b4; stroke-opacity: 0.8"/>
     <use xlink:href="#m50fdf3a1a7" x="228.182779" y="147.632834" style="fill: #1f77b4; fill-opacity: 0.8; stroke: #1f77b4; stroke-opacity: 0.8"/>
     <use xlink:href="#m50fdf3a1a7" x="261.414273" y="279.778834" style="fill: #1f77b4; fill-opacity: 0.8; stroke: #1f77b4; stroke-opacity: 0.8"/>
     <use xlink:href="#m50fdf3a1a7" x="260.818398" y="232.899361" style="fill: #1f77b4; fill-opacity: 0.8; stroke: #1f77b4; stroke-opacity: 0.8"/>
     <use xlink:href="#m50fdf3a1a7" x="182.346236" y="285.020874" style="fill: #1f77b4; fill-opacity: 0.8; stroke: #1f77b4; stroke-opacity: 0.8"/>
     <use xlink:href="#m50fdf3a1a7" x="226.654894" y="270.425159" style="fill: #1f77b4; fill-opacity: 0.8; stroke: #1f77b4; stroke-opacity: 0.8"/>
     <use xlink:href="#m50fdf3a1a7" x="236.586146" y="238.848139" style="fill: #1f77b4; fill-opacity: 0.8; stroke: #1f77b4; stroke-opacity: 0.8"/>
     <use xlink:href="#m50fdf3a1a7" x="424.012097" y="240.787438" style="fill: #1f77b4; fill-opacity: 0.8; stroke: #1f77b4; stroke-opacity: 0.8"/>
     <use xlink:href="#m50fdf3a1a7" x="129.774527" y="166.156988" style="fill: #1f77b4; fill-opacity: 0.8; stroke: #1f77b4; stroke-opacity: 0.8"/>
     <use xlink:href="#m50fdf3a1a7" x="419.438004" y="122.591665" style="fill: #1f77b4; fill-opacity: 0.8; stroke: #1f77b4; stroke-opacity: 0.8"/>
     <use xlink:href="#m50fdf3a1a7" x="365.69241" y="250.510674" style="fill: #1f77b4; fill-opacity: 0.8; stroke: #1f77b4; stroke-opacity: 0.8"/>
     <use xlink:href="#m50fdf3a1a7" x="216.089734" y="255.745539" style="fill: #1f77b4; fill-opacity: 0.8; stroke: #1f77b4; stroke-opacity: 0.8"/>
     <use xlink:href="#m50fdf3a1a7" x="407.144588" y="69.238926" style="fill: #1f77b4; fill-opacity: 0.8; stroke: #1f77b4; stroke-opacity: 0.8"/>
     <use xlink:href="#m50fdf3a1a7" x="277.60653" y="184.567045" style="fill: #1f77b4; fill-opacity: 0.8; stroke: #1f77b4; stroke-opacity: 0.8"/>
     <use xlink:href="#m50fdf3a1a7" x="327.314016" y="193.600373" style="fill: #1f77b4; fill-opacity: 0.8; stroke: #1f77b4; stroke-opacity: 0.8"/>
     <use xlink:href="#m50fdf3a1a7" x="310.077404" y="233.815185" style="fill: #1f77b4; fill-opacity: 0.8; stroke: #1f77b4; stroke-opacity: 0.8"/>
     <use xlink:href="#m50fdf3a1a7" x="224.031545" y="226.765817" style="fill: #1f77b4; fill-opacity: 0.8; stroke: #1f77b4; stroke-opacity: 0.8"/>
     <use xlink:href="#m50fdf3a1a7" x="281.397888" y="239.784575" style="fill: #1f77b4; fill-opacity: 0.8; stroke: #1f77b4; stroke-opacity: 0.8"/>
     <use xlink:href="#m50fdf3a1a7" x="341.857407" y="271.428965" style="fill: #1f77b4; fill-opacity: 0.8; stroke: #1f77b4; stroke-opacity: 0.8"/>
     <use xlink:href="#m50fdf3a1a7" x="184.09239" y="151.212457" style="fill: #1f77b4; fill-opacity: 0.8; stroke: #1f77b4; stroke-opacity: 0.8"/>
     <use xlink:href="#m50fdf3a1a7" x="263.851944" y="240.515273" style="fill: #1f77b4; fill-opacity: 0.8; stroke: #1f77b4; stroke-opacity: 0.8"/>
     <use xlink:href="#m50fdf3a1a7" x="246.517397" y="245.042125" style="fill: #1f77b4; fill-opacity: 0.8; stroke: #1f77b4; stroke-opacity: 0.8"/>
     <use xlink:href="#m50fdf3a1a7" x="228.528715" y="234.030946" style="fill: #1f77b4; fill-opacity: 0.8; stroke: #1f77b4; stroke-opacity: 0.8"/>
     <use xlink:href="#m50fdf3a1a7" x="92.290909" y="246.456089" style="fill: #1f77b4; fill-opacity: 0.8; stroke: #1f77b4; stroke-opacity: 0.8"/>
     <use xlink:href="#m50fdf3a1a7" x="289.420401" y="159.705797" style="fill: #1f77b4; fill-opacity: 0.8; stroke: #1f77b4; stroke-opacity: 0.8"/>
     <use xlink:href="#m50fdf3a1a7" x="287.087614" y="259.780166" style="fill: #1f77b4; fill-opacity: 0.8; stroke: #1f77b4; stroke-opacity: 0.8"/>
     <use xlink:href="#m50fdf3a1a7" x="265.974542" y="232.110607" style="fill: #1f77b4; fill-opacity: 0.8; stroke: #1f77b4; stroke-opacity: 0.8"/>
     <use xlink:href="#m50fdf3a1a7" x="287.770286" y="235.694307" style="fill: #1f77b4; fill-opacity: 0.8; stroke: #1f77b4; stroke-opacity: 0.8"/>
     <use xlink:href="#m50fdf3a1a7" x="180.590794" y="225.831855" style="fill: #1f77b4; fill-opacity: 0.8; stroke: #1f77b4; stroke-opacity: 0.8"/>
     <use xlink:href="#m50fdf3a1a7" x="303.514142" y="254.598717" style="fill: #1f77b4; fill-opacity: 0.8; stroke: #1f77b4; stroke-opacity: 0.8"/>
     <use xlink:href="#m50fdf3a1a7" x="453.387231" y="125.581601" style="fill: #1f77b4; fill-opacity: 0.8; stroke: #1f77b4; stroke-opacity: 0.8"/>
     <use xlink:href="#m50fdf3a1a7" x="241.220729" y="185.033521" style="fill: #1f77b4; fill-opacity: 0.8; stroke: #1f77b4; stroke-opacity: 0.8"/>
     <use xlink:href="#m50fdf3a1a7" x="256.051398" y="146.913884" style="fill: #1f77b4; fill-opacity: 0.8; stroke: #1f77b4; stroke-opacity: 0.8"/>
     <use xlink:href="#m50fdf3a1a7" x="273.602627" y="231.969625" style="fill: #1f77b4; fill-opacity: 0.8; stroke: #1f77b4; stroke-opacity: 0.8"/>
     <use xlink:href="#m50fdf3a1a7" x="215.428263" y="248.619403" style="fill: #1f77b4; fill-opacity: 0.8; stroke: #1f77b4; stroke-opacity: 0.8"/>
     <use xlink:href="#m50fdf3a1a7" x="278.602977" y="140.587452" style="fill: #1f77b4; fill-opacity: 0.8; stroke: #1f77b4; stroke-opacity: 0.8"/>
     <use xlink:href="#m50fdf3a1a7" x="148.373268" y="281.811437" style="fill: #1f77b4; fill-opacity: 0.8; stroke: #1f77b4; stroke-opacity: 0.8"/>
     <use xlink:href="#m50fdf3a1a7" x="498.109091" y="97.416076" style="fill: #1f77b4; fill-opacity: 0.8; stroke: #1f77b4; stroke-opacity: 0.8"/>
     <use xlink:href="#m50fdf3a1a7" x="246.517397" y="264.45862" style="fill: #1f77b4; fill-opacity: 0.8; stroke: #1f77b4; stroke-opacity: 0.8"/>
     <use xlink:href="#m50fdf3a1a7" x="325.967405" y="227.895584" style="fill: #1f77b4; fill-opacity: 0.8; stroke: #1f77b4; stroke-opacity: 0.8"/>
     <use xlink:href="#m50fdf3a1a7" x="167.067388" y="234.507284" style="fill: #1f77b4; fill-opacity: 0.8; stroke: #1f77b4; stroke-opacity: 0.8"/>
     <use xlink:href="#m50fdf3a1a7" x="374.006945" y="192.76055" style="fill: #1f77b4; fill-opacity: 0.8; stroke: #1f77b4; stroke-opacity: 0.8"/>
     <use xlink:href="#m50fdf3a1a7" x="246.517397" y="214.813129" style="fill: #1f77b4; fill-opacity: 0.8; stroke: #1f77b4; stroke-opacity: 0.8"/>
     <use xlink:href="#m50fdf3a1a7" x="463.199239" y="66.96" style="fill: #1f77b4; fill-opacity: 0.8; stroke: #1f77b4; stroke-opacity: 0.8"/>
     <use xlink:href="#m50fdf3a1a7" x="405.417414" y="273.196082" style="fill: #1f77b4; fill-opacity: 0.8; stroke: #1f77b4; stroke-opacity: 0.8"/>
     <use xlink:href="#m50fdf3a1a7" x="176.998639" y="281.871255" style="fill: #1f77b4; fill-opacity: 0.8; stroke: #1f77b4; stroke-opacity: 0.8"/>
     <use xlink:href="#m50fdf3a1a7" x="216.723643" y="211.503209" style="fill: #1f77b4; fill-opacity: 0.8; stroke: #1f77b4; stroke-opacity: 0.8"/>
     <use xlink:href="#m50fdf3a1a7" x="266.379899" y="176.850359" style="fill: #1f77b4; fill-opacity: 0.8; stroke: #1f77b4; stroke-opacity: 0.8"/>
     <use xlink:href="#m50fdf3a1a7" x="204.455627" y="217.58502" style="fill: #1f77b4; fill-opacity: 0.8; stroke: #1f77b4; stroke-opacity: 0.8"/>
     <use xlink:href="#m50fdf3a1a7" x="272.519218" y="160.420464" style="fill: #1f77b4; fill-opacity: 0.8; stroke: #1f77b4; stroke-opacity: 0.8"/>
     <use xlink:href="#m50fdf3a1a7" x="303.721403" y="222.440092" style="fill: #1f77b4; fill-opacity: 0.8; stroke: #1f77b4; stroke-opacity: 0.8"/>
     <use xlink:href="#m50fdf3a1a7" x="207.603107" y="199.991234" style="fill: #1f77b4; fill-opacity: 0.8; stroke: #1f77b4; stroke-opacity: 0.8"/>
     <use xlink:href="#m50fdf3a1a7" x="276.94506" y="304.309171" style="fill: #1f77b4; fill-opacity: 0.8; stroke: #1f77b4; stroke-opacity: 0.8"/>
     <use xlink:href="#m50fdf3a1a7" x="299.484069" y="190.28073" style="fill: #1f77b4; fill-opacity: 0.8; stroke: #1f77b4; stroke-opacity: 0.8"/>
     <use xlink:href="#m50fdf3a1a7" x="246.517397" y="284.783153" style="fill: #1f77b4; fill-opacity: 0.8; stroke: #1f77b4; stroke-opacity: 0.8"/>
     <use xlink:href="#m50fdf3a1a7" x="211.018457" y="135.801659" style="fill: #1f77b4; fill-opacity: 0.8; stroke: #1f77b4; stroke-opacity: 0.8"/>
     <use xlink:href="#m50fdf3a1a7" x="425.279916" y="149.017458" style="fill: #1f77b4; fill-opacity: 0.8; stroke: #1f77b4; stroke-opacity: 0.8"/>
     <use xlink:href="#m50fdf3a1a7" x="383.44188" y="206.361698" style="fill: #1f77b4; fill-opacity: 0.8; stroke: #1f77b4; stroke-opacity: 0.8"/>
     <use xlink:href="#m50fdf3a1a7" x="241.933742" y="299.898904" style="fill: #1f77b4; fill-opacity: 0.8; stroke: #1f77b4; stroke-opacity: 0.8"/>
    </g>
   </g>
   <g id="PolyCollection_1">
    <defs>
     <path id="m0555fd61ca" d="M 92.290909 -185.342362 
L 92.290909 -117.554131 
L 96.390083 -119.559039 
L 100.489256 -121.563947 
L 104.58843 -123.459127 
L 108.687603 -125.307746 
L 112.786777 -127.411319 
L 116.88595 -129.514892 
L 120.985124 -131.528215 
L 125.084298 -133.45079 
L 129.183471 -135.376314 
L 133.282645 -137.30363 
L 137.381818 -139.230946 
L 141.480992 -141.158261 
L 145.580165 -143.085577 
L 149.679339 -145.012893 
L 153.778512 -146.942244 
L 157.877686 -148.8722 
L 161.97686 -150.63066 
L 166.076033 -152.709936 
L 170.175207 -154.761183 
L 174.27438 -156.584929 
L 178.373554 -158.728505 
L 182.472727 -160.436664 
L 186.571901 -162.358733 
L 190.671074 -164.286049 
L 194.770248 -166.18878 
L 198.869421 -168.132737 
L 202.968595 -169.714235 
L 207.067769 -171.5985 
L 211.166942 -173.414592 
L 215.266116 -175.351408 
L 219.365289 -176.741004 
L 223.464463 -178.380098 
L 227.563636 -179.891384 
L 231.66281 -181.724226 
L 235.761983 -183.690015 
L 239.861157 -185.210071 
L 243.960331 -186.598683 
L 248.059504 -187.868104 
L 252.158678 -189.787255 
L 256.257851 -191.162503 
L 260.357025 -192.241009 
L 264.456198 -193.613141 
L 268.555372 -195.200755 
L 272.654545 -196.981779 
L 276.753719 -198.042772 
L 280.852893 -199.105123 
L 284.952066 -199.965683 
L 289.05124 -200.917063 
L 293.150413 -201.787967 
L 297.249587 -202.986768 
L 301.34876 -204.135813 
L 305.447934 -205.337392 
L 309.547107 -206.185002 
L 313.646281 -207.152193 
L 317.745455 -208.060488 
L 321.844628 -208.632102 
L 325.943802 -209.65566 
L 330.042975 -210.820565 
L 334.142149 -211.520142 
L 338.241322 -212.502255 
L 342.340496 -212.893378 
L 346.439669 -213.117405 
L 350.538843 -213.761523 
L 354.638017 -214.678302 
L 358.73719 -215.61782 
L 362.836364 -216.535632 
L 366.935537 -217.307867 
L 371.034711 -217.83815 
L 375.133884 -218.497207 
L 379.233058 -219.319019 
L 383.332231 -219.706461 
L 387.431405 -220.093903 
L 391.530579 -220.481346 
L 395.629752 -220.974357 
L 399.728926 -221.493314 
L 403.828099 -222.015795 
L 407.927273 -222.542117 
L 412.026446 -223.130401 
L 416.12562 -223.805062 
L 420.224793 -224.479724 
L 424.323967 -225.154385 
L 428.42314 -225.829047 
L 432.522314 -226.503708 
L 436.621488 -227.184122 
L 440.720661 -227.729815 
L 444.819835 -228.204344 
L 448.919008 -228.816349 
L 453.018182 -229.567571 
L 457.117355 -230.270144 
L 461.216529 -230.728878 
L 465.315702 -231.307032 
L 469.414876 -231.821825 
L 473.51405 -232.339435 
L 477.613223 -232.86057 
L 481.712397 -233.383244 
L 485.81157 -233.913709 
L 489.910744 -234.602154 
L 494.009917 -235.290598 
L 498.109091 -235.981801 
L 498.109091 -323.132393 
L 498.109091 -323.132393 
L 494.009917 -321.179119 
L 489.910744 -319.314461 
L 485.81157 -317.575019 
L 481.712397 -315.827175 
L 477.613223 -313.771842 
L 473.51405 -311.710832 
L 469.414876 -309.700781 
L 465.315702 -307.596818 
L 461.216529 -305.561222 
L 457.117355 -303.607672 
L 453.018182 -301.654122 
L 448.919008 -299.651042 
L 444.819835 -297.621925 
L 440.720661 -295.688736 
L 436.621488 -293.641218 
L 432.522314 -291.601576 
L 428.42314 -289.774528 
L 424.323967 -287.887698 
L 420.224793 -285.781249 
L 416.12562 -284.060058 
L 412.026446 -282.153399 
L 407.927273 -280.160317 
L 403.828099 -278.196254 
L 399.728926 -276.299654 
L 395.629752 -274.596414 
L 391.530579 -272.786741 
L 387.431405 -270.947311 
L 383.332231 -269.152839 
L 379.233058 -267.371505 
L 375.133884 -265.406601 
L 371.034711 -263.222476 
L 366.935537 -261.140719 
L 362.836364 -259.296584 
L 358.73719 -257.450736 
L 354.638017 -255.645819 
L 350.538843 -253.841561 
L 346.439669 -252.067657 
L 342.340496 -250.293753 
L 338.241322 -248.551213 
L 334.142149 -246.966049 
L 330.042975 -245.124885 
L 325.943802 -243.36976 
L 321.844628 -241.621398 
L 317.745455 -239.816797 
L 313.646281 -237.955584 
L 309.547107 -236.412508 
L 305.447934 -234.78214 
L 301.34876 -233.220391 
L 297.249587 -231.514818 
L 293.150413 -229.76847 
L 289.05124 -228.132404 
L 284.952066 -226.482033 
L 280.852893 -225.314873 
L 276.753719 -224.013684 
L 272.654545 -222.691607 
L 268.555372 -221.38875 
L 264.456198 -219.778694 
L 260.357025 -218.637345 
L 256.257851 -217.282257 
L 252.158678 -215.655177 
L 248.059504 -214.704837 
L 243.960331 -213.298041 
L 239.861157 -212.074848 
L 235.761983 -210.906705 
L 231.66281 -209.56995 
L 227.563636 -208.426663 
L 223.464463 -207.568215 
L 219.365289 -206.726985 
L 215.266116 -206.071681 
L 211.166942 -205.319694 
L 207.067769 -204.574593 
L 202.968595 -203.8272 
L 198.869421 -203.098579 
L 194.770248 -202.391634 
L 190.671074 -201.402347 
L 186.571901 -200.498702 
L 182.472727 -199.89576 
L 178.373554 -199.306179 
L 174.27438 -198.588516 
L 170.175207 -197.844047 
L 166.076033 -197.158317 
L 161.97686 -196.719178 
L 157.877686 -195.934293 
L 153.778512 -195.137469 
L 149.679339 -194.625361 
L 145.580165 -194.07994 
L 141.480992 -193.381585 
L 137.381818 -192.68323 
L 133.282645 -191.980101 
L 129.183471 -191.272814 
L 125.084298 -190.570637 
L 120.985124 -189.866242 
L 116.88595 -189.225903 
L 112.786777 -188.465309 
L 108.687603 -187.764843 
L 104.58843 -187.275919 
L 100.489256 -186.819789 
L 96.390083 -185.992137 
L 92.290909 -185.342362 
z
" style="stroke: #ffffff; stroke-opacity: 0.15"/>
    </defs>
    <g clip-path="url(#p30767eff30)">
     <use xlink:href="#m0555fd61ca" x="0" y="432" style="fill: #1f77b4; fill-opacity: 0.15; stroke: #ffffff; stroke-opacity: 0.15"/>
    </g>
   </g>
   <g id="line2d_12">
    <path d="M 92.290909 280.332513 
L 96.390083 278.995517 
L 100.489256 277.658522 
L 104.58843 276.321527 
L 108.687603 274.984531 
L 112.786777 273.647536 
L 116.88595 272.310541 
L 120.985124 270.973546 
L 125.084298 269.63655 
L 129.183471 268.299555 
L 133.282645 266.96256 
L 137.381818 265.625564 
L 141.480992 264.288569 
L 145.580165 262.951574 
L 149.679339 261.614578 
L 153.778512 260.277583 
L 157.877686 258.940588 
L 161.97686 257.603593 
L 166.076033 256.266597 
L 170.175207 254.929602 
L 174.27438 253.592607 
L 178.373554 252.255611 
L 182.472727 250.918616 
L 186.571901 249.581621 
L 190.671074 248.244626 
L 194.770248 246.90763 
L 198.869421 245.570635 
L 202.968595 244.23364 
L 207.067769 242.896644 
L 211.166942 241.559649 
L 215.266116 240.222654 
L 219.365289 238.885658 
L 223.464463 237.548663 
L 227.563636 236.211668 
L 231.66281 234.874673 
L 235.761983 233.537677 
L 239.861157 232.200682 
L 243.960331 230.863687 
L 248.059504 229.526691 
L 252.158678 228.189696 
L 256.257851 226.852701 
L 260.357025 225.515705 
L 264.456198 224.17871 
L 268.555372 222.841715 
L 272.654545 221.50472 
L 276.753719 220.167724 
L 280.852893 218.830729 
L 284.952066 217.493734 
L 289.05124 216.156738 
L 293.150413 214.819743 
L 297.249587 213.482748 
L 301.34876 212.145753 
L 305.447934 210.808757 
L 309.547107 209.471762 
L 313.646281 208.134767 
L 317.745455 206.797771 
L 321.844628 205.460776 
L 325.943802 204.123781 
L 330.042975 202.786785 
L 334.142149 201.44979 
L 338.241322 200.112795 
L 342.340496 198.7758 
L 346.439669 197.438804 
L 350.538843 196.101809 
L 354.638017 194.764814 
L 358.73719 193.427818 
L 362.836364 192.090823 
L 366.935537 190.753828 
L 371.034711 189.416833 
L 375.133884 188.079837 
L 379.233058 186.742842 
L 383.332231 185.405847 
L 387.431405 184.068851 
L 391.530579 182.731856 
L 395.629752 181.394861 
L 399.728926 180.057865 
L 403.828099 178.72087 
L 407.927273 177.383875 
L 412.026446 176.04688 
L 416.12562 174.709884 
L 420.224793 173.372889 
L 424.323967 172.035894 
L 428.42314 170.698898 
L 432.522314 169.361903 
L 436.621488 168.024908 
L 440.720661 166.687912 
L 444.819835 165.350917 
L 448.919008 164.013922 
L 453.018182 162.676927 
L 457.117355 161.339931 
L 461.216529 160.002936 
L 465.315702 158.665941 
L 469.414876 157.328945 
L 473.51405 155.99195 
L 477.613223 154.654955 
L 481.712397 153.31796 
L 485.81157 151.980964 
L 489.910744 150.643969 
L 494.009917 149.306974 
L 498.109091 147.969978 
" clip-path="url(#p30767eff30)" style="fill: none; stroke: #1f77b4; stroke-width: 2.25; stroke-linecap: round"/>
   </g>
   <g id="patch_3">
    <path d="M 72 384.48 
L 72 51.84 
" style="fill: none; stroke: #ffffff; stroke-width: 0.8; stroke-linejoin: miter; stroke-linecap: square"/>
   </g>
   <g id="patch_4">
    <path d="M 518.4 384.48 
L 518.4 51.84 
" style="fill: none; stroke: #ffffff; stroke-width: 0.8; stroke-linejoin: miter; stroke-linecap: square"/>
   </g>
   <g id="patch_5">
    <path d="M 72 384.48 
L 518.4 384.48 
" style="fill: none; stroke: #ffffff; stroke-width: 0.8; stroke-linejoin: miter; stroke-linecap: square"/>
   </g>
   <g id="patch_6">
    <path d="M 72 51.84 
L 518.4 51.84 
" style="fill: none; stroke: #ffffff; stroke-width: 0.8; stroke-linejoin: miter; stroke-linecap: square"/>
   </g>
   <g id="text_14">
    <!-- r2=0.11, p=0.0058 -->
    <g style="fill: #262626" transform="translate(80.928 85.104) scale(0.1 -0.1)">
     <defs>
      <path id="ArialMT-3d" d="M 3381 2694 
L 356 2694 
L 356 3219 
L 3381 3219 
L 3381 2694 
z
M 3381 1303 
L 356 1303 
L 356 1828 
L 3381 1828 
L 3381 1303 
z
" transform="scale(0.015625)"/>
      <path id="ArialMT-2c" d="M 569 0 
L 569 641 
L 1209 641 
L 1209 0 
Q 1209 -353 1084 -570 
Q 959 -788 688 -906 
L 531 -666 
Q 709 -588 793 -436 
Q 878 -284 888 0 
L 569 0 
z
" transform="scale(0.015625)"/>
     </defs>
     <use xlink:href="#ArialMT-72"/>
     <use xlink:href="#ArialMT-32" x="33.300781"/>
     <use xlink:href="#ArialMT-3d" x="88.916016"/>
     <use xlink:href="#ArialMT-30" x="147.314453"/>
     <use xlink:href="#ArialMT-2e" x="202.929688"/>
     <use xlink:href="#ArialMT-31" x="230.712891"/>
     <use xlink:href="#ArialMT-31" x="278.953125"/>
     <use xlink:href="#ArialMT-2c" x="334.568359"/>
     <use xlink:href="#ArialMT-20" x="362.351562"/>
     <use xlink:href="#ArialMT-70" x="390.134766"/>
     <use xlink:href="#ArialMT-3d" x="445.75"/>
     <use xlink:href="#ArialMT-30" x="504.148438"/>
     <use xlink:href="#ArialMT-2e" x="559.763672"/>
     <use xlink:href="#ArialMT-30" x="587.546875"/>
     <use xlink:href="#ArialMT-30" x="643.162109"/>
     <use xlink:href="#ArialMT-35" x="698.777344"/>
     <use xlink:href="#ArialMT-38" x="754.392578"/>
    </g>
   </g>
  </g>
 </g>
 <defs>
  <clipPath id="p30767eff30">
   <rect x="72" y="51.84" width="446.4" height="332.64"/>
  </clipPath>
 </defs>
</svg>
